<svg width="300" height="140" viewBox="0 0 300 140" fill="none" xmlns="http://www.w3.org/2000/svg">
<path d="M58.5181 101.546C58.5181 101.546 6.32738 106.343 6.43177 111.338C6.53615 116.333 33.4196 111.015 27.9813 116.427C22.543 121.84 -0.462626 125.057 0.00709052 134.004C0.476807 142.952 51.7124 133.034 83.9715 133.691C116.231 134.348 215.857 141.935 241.968 139.531C268.079 137.127 262.088 127.08 256.613 124.52C251.138 121.959 231.802 123.352 237.699 119.42C243.597 115.489 299.582 113.94 299.999 108.262C300.417 102.584 138.975 94.5385 58.5181 101.546Z" fill="#E8F1F8"/>
<path d="M10 56.9008C10 41.6549 26.7955 19.1803 65.2906 15.5878C103.786 11.9954 143.583 48.2702 179.387 20.8012C199.872 5.1172 232.378 1.74382 255.292 53.177C280.247 109.166 228.992 112.321 208.942 109.911C188.892 107.502 169.145 130.064 134.86 100.711C100.531 71.3582 73.6667 121.477 38.2095 107.063C9.86981 95.4976 10 67.3277 10 56.9008Z" fill="#F1FAF8"/>
<path d="M147.03 20.6397C162.496 21.8447 185.476 4.28703 166.078 3.21119C146.725 2.13536 107.187 5.06163 121.954 14.486C126.672 17.4983 136.939 19.8651 147.03 20.6397Z" fill="#F1FAF8"/>
<path d="M111.645 96.3665C124.967 98.9148 137.636 114.55 123.443 116.537C109.251 118.524 74.989 107.812 83.9571 102.111C92.8818 96.3665 102.329 94.5957 111.645 96.3665Z" fill="#E8F1F8"/>
<path d="M232.256 38.0331C232.132 37.9039 232.039 37.7493 231.981 37.5802C231.923 37.4111 231.903 37.2315 231.922 37.0539C231.941 36.8763 231.998 36.7049 232.09 36.5517C232.182 36.3984 232.306 36.267 232.454 36.1665C233.571 35.3531 233.957 35.8484 235.137 32.7825C236.316 29.7166 239.662 30.3423 239.923 32.1151C240.23 34.2008 240.137 35.9944 238.592 36.6723C237.548 37.1363 236.692 36.8756 234.641 39.2324C233.978 39.9624 232.48 39.8164 232.256 38.0331Z" fill="#FBD3AE"/>
<path d="M215.789 43.6226C215.789 43.6226 224.552 41.6674 230.763 35.9162C231.074 35.6121 231.476 35.4165 231.907 35.3583C232.339 35.3 232.778 35.3823 233.159 35.5929C233.704 35.8824 234.163 36.3127 234.486 36.839C234.809 37.3653 234.985 37.9685 234.996 38.5858C235.079 41.5944 226.943 50.547 219.798 52.0017L215.789 43.6226Z" fill="#30686E"/>
<path style="mix-blend-mode:multiply" opacity="0.66" d="M215.789 43.6226C215.789 43.6226 224.552 41.6674 230.763 35.9162C231.074 35.6121 231.476 35.4165 231.907 35.3583C232.339 35.3 232.778 35.3823 233.159 35.5929C233.704 35.8824 234.163 36.3127 234.486 36.839C234.809 37.3653 234.985 37.9685 234.996 38.5858C235.079 41.5944 226.943 50.547 219.798 52.0017L215.789 43.6226Z" fill="url(#paint0_linear)"/>
<path d="M27.3237 88.3337C27.3237 88.3337 20.1997 76.5915 34.2077 75.0846C48.2156 73.5777 55.6058 73.6664 62.281 72.6183C68.9562 71.5703 81.1219 64.6564 90.297 70.6318C99.4721 76.6071 112.916 91.1076 95.657 94.9348C78.3975 98.7619 66.8947 102.328 56.7227 104.284C46.5508 106.239 33.3674 112.068 30.3769 101.061C27.3863 90.0543 27.3237 88.3337 27.3237 88.3337Z" fill="#182149"/>
<path d="M187.586 83.6931C187.586 83.6931 181.996 94.5124 198.332 95.9411C209.26 96.8796 219.954 86.3262 220.388 86.7069C220.821 87.0875 213.284 106.52 215.91 107.36C218.535 108.199 219.98 107.11 220.988 105.634C221.995 104.159 239.103 78.7762 233.206 72.2638C229.364 68.0612 206.479 74.7978 187.586 83.6931Z" fill="#182149"/>
<path d="M141.882 66.7837C141.882 66.7837 143.218 65.5115 144.805 65.9443C146.392 66.377 145.175 66.7368 148.897 65.5532C152.618 64.3696 154.575 68.275 153.354 70.0165C151.678 72.4045 149.633 72.5662 147.853 71.6381C146.626 70.9967 146.872 70.444 143.187 70.6265C142.039 70.6839 140.4 68.3375 141.882 66.7837Z" fill="#FBD3AE"/>
<path d="M121.726 101.755C125.113 96.207 133.156 88.3441 135.818 90.4871C138.479 92.6301 134.612 103.809 131.12 109.258C127.692 114.571 124.398 114.827 121.846 112.788C119.294 110.749 118.422 107.162 121.726 101.755Z" fill="#182149"/>
<path d="M188.322 21.2384C183.129 29.2943 172.236 40.15 169.074 37.6577C165.911 35.1653 171.349 20.0236 176.349 11.8322C181.516 3.3749 186.187 2.35814 189.564 5.01213C192.94 7.66611 193.687 12.9272 188.322 21.2384Z" fill="#182149"/>
<path d="M129.555 101.374C129.422 101.374 129.291 101.338 129.176 101.271C129.061 101.203 128.967 101.106 128.902 100.989C128.838 100.873 128.806 100.741 128.809 100.608C128.813 100.475 128.853 100.345 128.923 100.232L176.412 24.5546C176.517 24.3866 176.685 24.2672 176.878 24.2228C177.071 24.1783 177.274 24.2123 177.442 24.3174C177.611 24.4225 177.73 24.59 177.775 24.7832C177.819 24.9763 177.785 25.1792 177.68 25.3472L130.186 101.025C130.119 101.131 130.025 101.219 129.915 101.28C129.805 101.341 129.681 101.373 129.555 101.374Z" fill="#0C1436"/>
<path d="M157.988 48.8576C157.988 48.8576 158.072 47.0118 159.512 46.2506C160.953 45.4893 160.332 46.5686 162.19 43.1221C164.048 39.6756 168.118 40.8904 168.776 42.9187C169.434 44.947 167.586 47.6636 165.645 48.2267C164.314 48.6125 164.11 48.0442 161.579 50.7295C160.807 51.5585 158.009 50.9902 157.988 48.8576Z" fill="#FBD3AE"/>
<path d="M163.886 41.3754C163.886 41.3754 166.407 39.8111 168.254 42.0271C170.102 44.2431 168.051 47.1213 166.339 47.6532C165.535 47.9087 163.818 47.455 164.606 46.5269C165.394 45.5988 164.272 43.9199 162.894 45.3225C161.396 46.8346 162.884 41.7769 163.886 41.3754Z" fill="#FBD3AE"/>
<path d="M152.472 71.0176C152.472 71.0176 150.066 73.4734 147.66 71.8831C145.254 70.2928 146.386 66.9506 147.869 65.9443C148.568 65.4698 150.342 65.4229 149.852 66.523C149.361 67.6232 150.932 68.9372 151.84 67.1852C152.811 65.3134 153.291 70.3554 152.472 71.0176Z" fill="#FBD3AE"/>
<path d="M109.66 87.1449C109.66 87.1449 111.257 98.1362 124.174 96.4208C137.091 94.7053 146.355 82.9371 148.182 84.8298C150.008 86.7225 165.76 100.832 168.536 101.046C171.313 101.259 176.547 98.7984 174.554 96.5407C172.56 94.283 158.375 71.9874 153.114 70.9185C142.613 68.7755 109.66 87.1449 109.66 87.1449Z" fill="#182149"/>
<path d="M128.234 44.2536C128.234 44.2536 127.712 59.0095 130.75 62.4039C133.787 65.7983 146.72 64.7294 147.206 66.7681C147.691 68.8068 145.389 73.609 143.37 73.4317C141.35 73.2545 129.111 74.2921 125.515 71.3461C121.919 68.4001 114.785 53.6494 113.511 50.7608C112.238 47.8722 126.695 40.5933 128.234 44.2536Z" fill="#154774"/>
<path style="mix-blend-mode:multiply" opacity="0.86" d="M128.234 44.2536C128.234 44.2536 127.712 59.0095 130.75 62.4039C133.787 65.7983 146.72 64.7294 147.206 66.7681C147.691 68.8068 145.389 73.609 143.37 73.4317C141.35 73.2545 129.111 74.2921 125.515 71.3461C121.919 68.4001 114.785 53.6494 113.511 50.7608C112.238 47.8722 126.695 40.5933 128.234 44.2536Z" fill="url(#paint1_linear)"/>
<path d="M137.389 23.0269C138.098 25.1701 138.514 27.3994 138.626 29.6541C138.709 32.9546 139.669 33.3039 139.617 33.9401C139.544 35.2332 137.791 34.5397 137.791 35.9788C137.791 37.4179 137.832 40.0197 136.063 40.2283C132.217 40.6767 126.669 35.9527 126.016 31.771C125.364 27.5893 123.892 22.8288 125.359 21.0664C126.825 19.304 135.024 18.3186 137.389 23.0269Z" fill="#FBD3AE"/>
<path d="M138.312 26.6664C138.312 26.6664 142.952 23.6109 138.312 22.8809C133.84 22.1822 135.99 18.5011 133.829 19.2936C132.932 19.6221 132.785 19.158 131.34 18.475C129.894 17.7919 128.454 18.1361 127.655 19.1632C126.857 20.1904 125.27 20.2061 124.075 20.2061C123.062 20.2061 122.217 21.9893 123.955 25.5505C125.693 29.1118 125.207 29.3516 124.915 30.6082C124.764 31.2496 124.957 32.7304 127.347 31.651C129.737 30.5717 127.055 28.4287 128.318 27.4276C129.581 26.4265 129.816 29.1326 131.141 28.6581C132.467 28.1837 131.522 26.4161 132.425 25.7122C133.328 25.0083 136.089 27.3077 138.312 26.6664Z" fill="#182149"/>
<path d="M126.063 32.0473C125.727 34.5091 125.052 36.9128 124.059 39.1907C124.832 42.0689 127.535 44.7541 129.847 42.9761C129.847 42.9761 130.562 39.3627 133.339 39.8476L126.063 32.0473Z" fill="#FBD3AE"/>
<path d="M130.813 29.7844C130.813 29.7844 130.526 27.8083 129.346 27.1044C128.167 26.4005 126.267 27.1721 127.462 30.165C128.313 32.282 130.901 32.3967 130.813 29.7844Z" fill="#FBD3AE"/>
<path d="M112.603 101.901C115.213 107 125.129 110.645 135.567 101.379C140.729 96.8014 148.474 68.5305 141.642 70.2772C137.029 71.4452 130.16 78.3956 130.682 73.1815C131.653 63.6188 137.008 41.9489 127.18 38.0957C117.353 34.2425 108.689 48.7533 105.813 81.5293C104.843 92.458 110.437 97.7139 112.603 101.901Z" fill="#154774"/>
<path d="M128.647 38.9352C128.647 38.9352 126.992 34.4145 121.664 31.3591C116.335 28.3036 114.508 26.8645 112.165 27.8083C108.679 29.2213 111.591 35.5669 107.802 40.2648C105.5 43.1169 107.802 49.0871 114.519 47.4446C121.236 45.8022 125.51 38.3251 128.647 38.9352Z" fill="#154774"/>
<path d="M130.552 40.6715C130.552 40.6715 141.334 50.3437 145.833 51.0997C150.332 51.8558 157.774 45.1713 159.403 46.4644C161.031 47.7575 162.242 52.9455 160.551 54.0665C158.86 55.1876 149.951 63.6136 145.301 63.5458C140.651 63.478 125.875 56.3712 123.078 54.8956C120.281 53.42 127.065 38.7423 130.552 40.6715Z" fill="#154774"/>
<path d="M125.338 31.9065C125.338 31.9065 131.162 24.5077 138.312 22.8809C138.312 22.8809 138.312 19.7003 135.395 19.0903C135.395 19.0903 133.949 17.38 130.583 16.8899C127.217 16.3998 126.83 14.0795 124.064 15.821C122.206 17.0046 122.822 20.2321 122.885 22.5994C122.937 24.5077 121.705 30.4518 125.338 31.9065Z" fill="#D76954"/>
<path d="M112.624 47.8304C112.588 47.8356 112.551 47.8356 112.515 47.8304C112.389 47.7949 112.281 47.7136 112.213 47.6026C112.144 47.4916 112.119 47.359 112.144 47.2308L112.953 43.7634C112.947 43.6819 112.96 43.6 112.991 43.5245C113.023 43.4489 113.071 43.3818 113.133 43.3285C113.195 43.2752 113.269 43.2373 113.349 43.2178C113.428 43.1982 113.511 43.1976 113.591 43.2161C113.671 43.2345 113.745 43.2714 113.808 43.3238C113.871 43.3762 113.92 43.4426 113.953 43.5177C113.985 43.5929 113.999 43.6745 113.994 43.7561C113.989 43.8378 113.965 43.9171 113.924 43.9876L113.11 47.4498C113.084 47.5592 113.023 47.6566 112.934 47.7259C112.846 47.7952 112.736 47.8321 112.624 47.8304Z" fill="#0C1436"/>
<path d="M130.635 72.634C130.497 72.634 130.364 72.579 130.266 72.4813C130.168 72.3835 130.113 72.2509 130.113 72.1126L130.432 66.9819C130.445 66.8528 130.505 66.7332 130.602 66.6465C130.698 66.5597 130.824 66.512 130.954 66.5126C131.082 66.5268 131.2 66.5879 131.286 66.6842C131.372 66.7805 131.419 66.9051 131.418 67.034L131.1 72.1647C131.088 72.2844 131.036 72.3966 130.951 72.4821C130.867 72.5676 130.755 72.6213 130.635 72.634Z" fill="#293B7D"/>
<path d="M129.858 40.2648C129.858 40.2648 121.846 41.0834 122.076 51.0997C122.306 61.116 132.17 59.9115 132.17 59.9115C132.17 59.9115 134.116 72.9468 128.647 74.5528C123.177 76.1587 106.476 82.0089 105.124 79.2559C103.773 76.5028 98.2874 37.7203 129.858 40.2648Z" fill="#EAAA65"/>
<path d="M130.552 40.6714C130.552 40.6714 118.965 39.1072 112.776 49.7492L113.188 43.1012C113.188 43.1012 121.413 35.1706 130.552 40.6714Z" fill="#200000"/>
<path d="M113.981 42.4077C113.981 42.4077 107.864 80.5438 106.153 82.7076C104.441 84.8715 93.4545 83.3333 91.4191 79.5322C89.3837 75.7311 96.419 44.5977 97.8542 40.3951C99.5817 35.3739 114.576 34.7326 113.981 42.4077Z" fill="#262661"/>
<path d="M132.598 58.9209C132.598 58.9209 125.327 72.7644 108.068 71.8728L107.781 76.5185C107.781 76.5185 132.598 75.2984 132.598 58.9209Z" fill="#200000"/>
<path d="M15.4138 94.1422C15.3663 93.7481 15.4034 93.3485 15.5226 92.97C15.6418 92.5914 15.8403 92.2425 16.105 91.9465C16.3696 91.6505 16.6943 91.4143 17.0575 91.2534C17.4207 91.0926 17.814 91.0109 18.2112 91.0137C46.8848 91.0398 269.248 91.3526 271.106 95.0599C273.1 99.0226 267.719 109.352 251.034 110.984C244.39 111.636 188.478 120.958 30.3716 109.232C30.3716 109.221 17.3553 107.855 15.4138 94.1422Z" fill="#EAAA65"/>
<path d="M252.944 97.6044L83.5696 95.5917C83.5024 95.5918 83.436 95.5782 83.3743 95.5516C83.3127 95.5251 83.2571 95.4862 83.2111 95.4373C83.1651 95.3884 83.1297 95.3306 83.107 95.2675C83.0842 95.2044 83.0747 95.1372 83.079 95.0703C83.079 94.932 83.134 94.7994 83.2319 94.7016C83.3297 94.6038 83.4625 94.5489 83.6009 94.5489L252.975 96.5615C253.082 96.5945 253.175 96.6607 253.241 96.7503C253.307 96.8399 253.342 96.9482 253.342 97.0595C253.342 97.1708 253.307 97.2791 253.241 97.3687C253.175 97.4583 253.082 97.5244 252.975 97.5574L252.944 97.6044Z" fill="#E69A49"/>
<path d="M233.581 6.74844C235.977 12.7916 237.428 23.955 234.103 24.7945C230.779 25.634 224.187 15.821 221.938 9.73091C219.73 3.79725 221.52 1.01291 224.683 0.204727C227.846 -0.603461 231.243 0.861705 233.581 6.74844Z" fill="#182149"/>
<path d="M257.887 108.335C254.572 99.3407 252.438 84.1207 256.321 83.0935C260.204 82.0663 269.05 95.5187 272.594 104.44C276.247 113.648 274.248 117.997 270.099 119.087C265.95 120.176 261.31 117.616 257.887 108.335Z" fill="#182149"/>
<path d="M261.702 97.8494C261.55 97.8491 261.403 97.8032 261.278 97.7176C261.153 97.632 261.057 97.5107 261.002 97.3697L229.072 13.9439C229.028 13.8507 229.005 13.7495 229.002 13.6467C229 13.5439 229.018 13.4416 229.057 13.3464C229.096 13.2512 229.154 13.165 229.228 13.0933C229.302 13.0217 229.39 12.9661 229.486 12.93C229.583 12.8939 229.686 12.8781 229.788 12.8837C229.891 12.8893 229.992 12.916 230.084 12.9623C230.176 13.0085 230.257 13.0733 230.323 13.1525C230.389 13.2317 230.437 13.3236 230.466 13.4225L262.401 96.8483C262.436 96.94 262.453 97.0378 262.45 97.136C262.447 97.2342 262.425 97.3309 262.385 97.4206C262.345 97.5102 262.287 97.591 262.216 97.6584C262.144 97.7257 262.06 97.7782 261.968 97.8129C261.882 97.8401 261.792 97.8525 261.702 97.8494Z" fill="#0C1436"/>
<path d="M239.562 54.7809C239.484 54.6205 239.44 54.4449 239.436 54.2662C239.432 54.0875 239.466 53.91 239.537 53.746C239.608 53.5819 239.714 53.4352 239.847 53.3159C239.98 53.1966 240.138 53.1076 240.309 53.055C241.619 52.6066 241.838 53.1958 243.873 50.62C245.909 48.0442 248.92 49.6241 248.644 51.3969C248.315 53.4826 247.699 55.1615 246.034 55.3492C244.875 55.4848 244.16 54.9842 241.504 56.6319C240.658 57.1429 239.27 56.5537 239.562 54.7809Z" fill="#FBD3AE"/>
<path d="M211.113 24.0384C211.113 24.0384 215.471 22.4742 216.792 24.0384C218.112 25.6026 218.258 26.755 218.697 28.898C219.218 31.359 220.387 32.1464 220.377 33.1996C220.367 34.2529 219.333 33.4186 219.015 35.6294C218.874 36.5366 219.537 39.5556 216.056 40.051C214.135 40.3221 210.889 40.369 209.391 39.0655C205.936 36.0934 202.335 26.4786 211.113 24.0384Z" fill="#FBD3AE"/>
<path d="M207.356 30.8533C207.356 30.8533 206.27 42.8979 201.228 43.4506C202.607 44.5864 204.211 45.4179 205.935 45.8906C207.658 46.3632 209.462 46.4664 211.228 46.1932C211.228 46.1932 211.072 40.7236 214.626 40.2074C214.626 40.2074 207.893 36.6618 207.356 30.8533Z" fill="#FBD3AE"/>
<path d="M217.903 27.6622C219.004 27.1408 220.168 27.1982 220.111 24.8466C220.08 23.6682 219.897 21.2437 215.08 20.5554C213.055 20.2686 212.689 19.8359 209.657 19.4344C206.087 18.9651 203.321 20.5345 202.079 22.9852C200.957 25.1908 196.124 34.4562 195.602 37.0894C195.08 39.7225 196.985 42.1262 198.415 42.9709C210.179 49.9369 209.067 30.822 209.678 30.5509C209.678 30.5509 212.731 30.7751 213.879 29.3673C216.014 26.7393 216.077 28.4965 217.903 27.6622Z" fill="#82483D"/>
<path d="M210.936 30.5196C210.936 30.5196 209.892 27.6831 207.705 28.7468C205.518 29.8105 207.95 33.8253 209.741 33.8775C211.531 33.9296 210.936 30.5196 210.936 30.5196Z" fill="#FBD3AE"/>
<path d="M207.997 31.8335C207.875 31.8286 207.759 31.781 207.668 31.6991C207.578 31.6172 207.519 31.506 207.502 31.3851C207.418 30.5144 207.611 29.9304 208.081 29.6436C208.806 29.19 209.777 29.7583 209.96 29.8783C210.066 29.9523 210.141 30.0633 210.17 30.1896C210.199 30.3158 210.18 30.4484 210.116 30.5613C210.042 30.6689 209.93 30.7447 209.803 30.7737C209.675 30.8026 209.541 30.7827 209.428 30.7177C209.156 30.5457 208.728 30.4049 208.603 30.4883C208.478 30.5717 208.441 30.7438 208.493 31.2861C208.495 31.4126 208.45 31.5352 208.367 31.6312C208.285 31.7271 208.17 31.7898 208.044 31.8075L207.997 31.8335Z" fill="#F7BC94"/>
<path d="M211.651 38.9091C211.579 38.908 211.508 38.892 211.442 38.8622C211.369 38.8309 209.72 38.0227 209.245 35.1028C209.23 34.9738 209.265 34.844 209.341 34.7389C209.417 34.6338 209.53 34.5609 209.657 34.5345C209.722 34.521 209.789 34.5212 209.854 34.5349C209.919 34.5487 209.981 34.5758 210.035 34.6145C210.089 34.6533 210.134 34.7027 210.168 34.7599C210.202 34.817 210.223 34.8805 210.231 34.9464C210.612 37.3084 211.797 37.9393 211.87 37.9653C211.956 38.0249 212.022 38.1087 212.059 38.2061C212.097 38.3034 212.104 38.4098 212.081 38.5115C212.057 38.6131 212.003 38.7053 211.927 38.7762C211.85 38.8471 211.754 38.8934 211.651 38.9091Z" fill="#F7BC94"/>
<path d="M187.528 86.6495C187.528 86.6495 200.231 92.6927 212.287 77.8533C213.279 76.628 214.297 59.9063 215.419 59.4058C216.541 58.9052 223.441 70.8351 243.117 56.7987C243.117 56.7987 242.595 50.2967 241.154 50.8494C224.307 57.4192 225.852 49.0557 215.774 43.6122C204.073 37.3031 199.167 43.6331 196.97 45.8856C194.772 48.1381 182.815 86.1333 187.528 86.6495Z" fill="#30686E"/>
<path d="M210.696 41.5109C210.696 41.5109 211.609 39.8998 211.677 35.9005C211.745 31.9013 213.076 20.4094 212.366 19.3509C211.656 18.2925 200.743 15.9722 197.027 25.9259C193.311 35.8797 194.141 41.6726 198.212 43.5444C202.283 45.4163 210.696 41.5109 210.696 41.5109Z" fill="#30686E"/>
<path d="M235.304 32.574C235.304 32.574 236.154 30.2276 238.529 30.7229C240.904 31.2183 241.253 33.6116 240.21 35.4157C239.855 36.0309 239.354 36.2551 238.879 35.1184C238.404 33.9818 237.094 34.8212 237.156 36.1143C237.24 37.908 234.865 33.3717 235.304 32.574Z" fill="#FBD3AE"/>
<path d="M190.879 72.8269C190.814 72.8275 190.751 72.8151 190.691 72.7904C190.573 72.7356 190.48 72.6391 190.43 72.5195C190.38 72.4 190.376 72.2661 190.42 72.1439L191.249 70.1156C191.274 70.0548 191.309 69.9995 191.355 69.9529C191.401 69.9062 191.456 69.8692 191.516 69.8439C191.576 69.8187 191.641 69.8057 191.706 69.8058C191.772 69.8059 191.836 69.819 191.897 69.8444C192.015 69.8983 192.109 69.9945 192.16 70.1141C192.212 70.2338 192.216 70.3682 192.173 70.491L191.343 72.5193C191.303 72.6092 191.238 72.6858 191.156 72.7402C191.073 72.7947 190.978 72.8247 190.879 72.8269Z" fill="#E69A49"/>
<path d="M211.974 41.7821C211.974 41.7821 203.963 42.6007 204.198 52.6118C204.433 62.6229 214.292 61.4236 214.292 61.4236C214.292 61.4236 216.233 74.4589 210.769 76.0649C205.304 77.6708 188.614 83.5263 187.241 80.7888C185.869 78.0514 180.409 39.2376 211.974 41.7821Z" fill="#EAAA65"/>
<path d="M198.76 44.3213C198.76 44.3213 192.455 40.0771 188.322 45.3642C184.188 50.6513 169.429 74.0418 177.033 79.0526C184.637 84.0633 190.644 74.8813 191.432 71.4712C192.137 68.4001 198.76 44.3213 198.76 44.3213Z" fill="#D76954"/>
<path d="M215.226 59.6769C215.226 59.6769 207.773 65.4124 190.096 69.9331L188.89 73.4891C188.89 73.4891 213.9 69.224 215.226 59.6769Z" fill="#D76954"/>
<path d="M198.253 45.4476C198.253 45.4476 202.084 42.0324 211.677 41.7977C211.677 41.7977 205.414 39.1281 197.027 43.68L198.253 45.4476Z" fill="#D76954"/>
<path d="M198.18 45.6196C198.086 45.618 197.994 45.5909 197.915 45.5413C197.835 45.4918 197.77 45.4215 197.726 45.3381L197.137 44.0867C197.082 44.0263 197.041 43.9538 197.02 43.8751C196.998 43.7964 196.995 43.7136 197.011 43.6335C197.027 43.5534 197.061 43.4782 197.112 43.4139C197.162 43.3496 197.227 43.2981 197.301 43.2634C197.375 43.2288 197.456 43.212 197.538 43.2145C197.62 43.2169 197.7 43.2385 197.772 43.2775C197.844 43.3165 197.905 43.3719 197.952 43.4391C197.998 43.5063 198.028 43.5834 198.039 43.6644L198.629 44.9105C198.679 45.0309 198.682 45.1657 198.638 45.2882C198.594 45.4108 198.505 45.5123 198.389 45.5727C198.324 45.6037 198.253 45.6197 198.18 45.6196Z" fill="#D15B46"/>
<path d="M185.091 68.713C184.999 68.7139 184.908 68.6886 184.83 68.64C184.722 68.5675 184.645 68.4572 184.614 68.3308C184.583 68.2044 184.601 68.0711 184.663 67.9569C184.762 67.7849 194.678 51.2353 193.812 43.2785C193.804 43.1492 193.844 43.0214 193.925 42.9202C194.006 42.819 194.122 42.7515 194.25 42.731C194.315 42.7223 194.382 42.7269 194.445 42.7444C194.508 42.7619 194.567 42.7921 194.618 42.833C194.669 42.8739 194.712 42.9248 194.743 42.9826C194.774 43.0403 194.793 43.1038 194.798 43.169C195.722 51.4386 185.926 67.764 185.514 68.4523C185.473 68.5294 185.412 68.5942 185.338 68.64C185.263 68.6859 185.178 68.711 185.091 68.713Z" fill="#D15B46"/>
<path d="M220.377 86.3992C220.242 86.3973 220.113 86.3431 220.017 86.248C219.929 86.1519 219.88 86.0264 219.88 85.8961C219.88 85.7658 219.929 85.6403 220.017 85.5441C221.922 83.5816 223.578 81.3927 224.949 79.0265C224.965 78.9459 225 78.8702 225.051 78.8056C225.102 78.7411 225.168 78.6895 225.243 78.6552C225.317 78.6208 225.399 78.6046 225.481 78.6078C225.564 78.6111 225.644 78.6338 225.716 78.6739C225.788 78.7141 225.849 78.7707 225.895 78.8391C225.94 78.9075 225.969 78.9857 225.979 79.0674C225.989 79.149 225.979 79.2318 225.95 79.309C225.922 79.3862 225.876 79.4555 225.815 79.5114C224.407 81.9671 222.691 84.2343 220.711 86.2585C220.622 86.3467 220.502 86.3972 220.377 86.3992Z" fill="#0C1436"/>
<path style="mix-blend-mode:multiply" opacity="0.66" d="M215.586 59.2181C215.586 59.2181 210.054 54.833 208.624 52.6014C207.194 50.3697 208.451 61.2829 212.501 61.4132C214.151 60.3965 215.288 59.7656 215.586 59.2181Z" fill="url(#paint2_linear)"/>
<path style="mix-blend-mode:multiply" opacity="0.67" d="M132.613 59.0095C132.613 59.0095 127.086 54.6244 125.651 52.3876C124.216 50.1507 125.609 59.6404 129.659 59.7655C131.559 60.1044 131.898 59.9637 132.613 59.0095Z" fill="url(#paint3_linear)"/>
<path style="mix-blend-mode:multiply" opacity="0.86" d="M112.593 35.1289C112.593 35.1289 119.493 36.6201 121.768 37.9914C124.044 39.3627 118.595 31.4686 114.905 33.1423C113.052 33.6793 112.807 33.94 112.593 35.1289Z" fill="url(#paint4_linear)"/>
<path style="mix-blend-mode:multiply" opacity="0.66" d="M208.817 36.9173C208.817 36.9173 208.076 29.9043 208.665 27.3181C209.255 24.7319 203.446 32.3706 206.207 35.3427C207.298 36.933 207.622 37.0842 208.817 36.9173Z" fill="url(#paint5_linear)"/>
<path style="mix-blend-mode:multiply" opacity="0.67" d="M131.168 75.0846C131.168 75.0846 123.824 80.9609 125.265 85.4294C125.176 86.5244 127.874 86.441 127.874 86.441C127.874 86.441 128.396 82.984 131.168 75.0846Z" fill="url(#paint6_linear)"/>
<path d="M137.018 30.676C136.919 31.1661 136.658 31.5311 136.434 31.4842C136.209 31.4373 136.11 31.0045 136.214 30.5144C136.319 30.0242 136.574 29.6645 136.794 29.7062C137.013 29.7479 137.117 30.1859 137.018 30.676Z" fill="#2E1F44"/>
<path d="M137.848 28.0846C137.054 27.8638 136.211 27.904 135.442 28.1993C135.134 28.3401 134.534 28.7937 135.124 29.044C135.458 29.19 135.99 29.0179 136.345 29.044C136.802 29.1194 137.268 29.1299 137.728 29.0753C138.135 28.9345 138.359 28.2045 137.848 28.0846Z" fill="#182149"/>
<path d="M136 35.9214C135.972 35.9172 135.943 35.9204 135.916 35.9306C135.889 35.9407 135.866 35.9577 135.847 35.9797C135.829 36.0017 135.817 36.028 135.811 36.0562C135.806 36.0843 135.808 36.1133 135.818 36.1404C136.047 36.5104 136.412 36.7761 136.835 36.8808C137.13 36.994 137.436 37.0744 137.749 37.1207C137.749 36.7557 137.78 36.3959 137.79 36.0779C137.191 36.0696 136.592 36.0174 136 35.9214Z" fill="#DD6B4B"/>
<path d="M217.12 30.9732C217.157 31.4946 217.381 31.8961 217.616 31.8752C217.851 31.8544 218.008 31.4268 217.971 30.9106C217.935 30.3944 217.71 29.9877 217.475 30.0086C217.24 30.0294 217.068 30.457 217.12 30.9732Z" fill="#2E1F44"/>
<path d="M217.079 36.2916C217.364 36.6634 217.784 36.9087 218.248 36.9746C218.488 37.0365 218.732 37.0835 218.978 37.1154C218.978 36.7974 219.01 36.4167 219.01 35.9944C218.423 36.0511 217.834 36.0668 217.246 36.0413C217.215 36.0388 217.184 36.0446 217.157 36.058C217.129 36.0713 217.105 36.0918 217.088 36.1174C217.071 36.1429 217.062 36.1725 217.06 36.2031C217.058 36.2338 217.065 36.2643 217.079 36.2916Z" fill="white"/>
<path d="M216.155 29.6749C216.379 29.6071 217.199 29.2369 217.428 29.2056C217.658 29.1743 218.117 29.1743 218.31 28.9449C218.371 28.8718 218.405 28.7795 218.405 28.6842C218.405 28.5889 218.371 28.4967 218.31 28.4235C218.25 28.3452 218.17 28.2842 218.078 28.2467C217.986 28.2092 217.887 28.1964 217.788 28.2097C217.412 28.2091 217.04 28.2861 216.695 28.436C216.35 28.5858 216.04 28.8053 215.784 29.0805L215.758 29.1118C215.476 29.4559 215.868 29.7635 216.155 29.6749Z" fill="#82483D"/>
<defs>
<linearGradient id="paint0_linear" x1="215.789" y1="43.6748" x2="234.996" y2="43.6748" gradientUnits="userSpaceOnUse">
<stop stop-color="#A9C8D4"/>
<stop offset="1" stop-color="white"/>
</linearGradient>
<linearGradient id="paint1_linear" x1="113.433" y1="58.3577" x2="147.274" y2="58.3577" gradientUnits="userSpaceOnUse">
<stop offset="0.39" stop-color="#CBC7FF"/>
<stop offset="1" stop-color="white"/>
</linearGradient>
<linearGradient id="paint2_linear" x1="208.05" y1="56.8561" x2="215.586" y2="56.8561" gradientUnits="userSpaceOnUse">
<stop stop-color="white"/>
<stop offset="1" stop-color="#A9C8D4"/>
</linearGradient>
<linearGradient id="paint3_linear" x1="125.103" y1="55.9905" x2="132.613" y2="55.9905" gradientUnits="userSpaceOnUse">
<stop stop-color="white"/>
<stop offset="1" stop-color="#CBC7FF"/>
</linearGradient>
<linearGradient id="paint4_linear" x1="120.575" y1="34.6829" x2="113.836" y2="38.0077" gradientUnits="userSpaceOnUse">
<stop stop-color="#CBC7FF"/>
<stop offset="0.63" stop-color="white"/>
</linearGradient>
<linearGradient id="paint5_linear" x1="25366.7" y1="-19262.7" x2="25400.6" y2="-19228.2" gradientUnits="userSpaceOnUse">
<stop stop-color="#A9C8D4"/>
<stop offset="1" stop-color="white"/>
</linearGradient>
<linearGradient id="paint6_linear" x1="1584.43" y1="1834.07" x2="1655.56" y2="1834.07" gradientUnits="userSpaceOnUse">
<stop stop-color="white"/>
<stop offset="1" stop-color="#CBC7FF"/>
</linearGradient>
</defs>
</svg>
