<svg width="88" height="88" viewBox="0 0 88 88" fill="none" xmlns="http://www.w3.org/2000/svg">
<g clip-path="url(#clip0)">
<path fill-rule="evenodd" clip-rule="evenodd" d="M43.9759 83.9851C42.9482 83.9851 41.9204 84.0073 40.8927 83.9851C37.8316 83.9062 34.8743 83.2427 31.9679 82.3221C18.4608 78.0263 8.31564 67.0534 5.0546 53.2286C4.21161 49.6996 3.87213 46.0687 4.04629 42.4441C4.5611 32.0689 8.43045 23.1478 15.7321 15.7617C21.1357 10.2966 27.6235 6.74321 35.0909 5.00781C39.7496 3.93001 44.5652 3.71239 49.3017 4.36562C56.8546 5.3784 63.5745 8.31002 69.4614 13.1605C75.3619 18.0282 79.5353 24.1003 81.9815 31.3766C83.0884 34.6382 83.7451 38.0362 83.9333 41.4762C84.5315 52.7099 81.1464 62.5868 73.6558 70.9585C67.6791 77.6402 60.208 81.7606 51.4137 83.4867C48.9462 83.9749 46.4685 84.037 43.9759 83.9851ZM43.9907 81.6381C64.3319 81.6994 81.0964 65.291 81.4704 44.8217C81.8556 23.6675 64.9828 6.92696 44.775 6.53255C23.7551 6.12236 6.54161 23.0801 6.52679 44.0366C6.5129 64.8261 23.2727 81.6381 43.9907 81.6381Z" fill="#339746"/>
<path fill-rule="evenodd" clip-rule="evenodd" d="M43.9893 81.6381C23.2713 81.6381 6.51151 64.826 6.5254 44.0365C6.54021 23.08 23.7537 6.12225 44.7736 6.53243C64.9814 6.92684 81.8542 23.6674 81.469 44.8216C81.095 65.291 64.3305 81.6993 43.9893 81.6381ZM46.9967 79.6577C46.9921 79.5454 47.2606 79.5092 47.0893 79.3653C46.9745 79.2679 46.8282 79.2985 46.7004 79.3802C46.6254 79.4275 46.5624 79.473 46.6245 79.576C46.7254 79.744 46.8532 79.7458 47.0022 79.6493C47.0948 79.7727 47.0346 79.9203 47.0652 80.053C47.0837 80.1282 47.1513 80.2386 47.2393 80.1625C47.3578 80.0595 47.5346 79.9658 47.517 79.782C47.5106 79.6892 47.3939 79.6243 47.2939 79.7301C47.1532 79.886 47.0939 79.6957 46.9967 79.6577V79.6577ZM47.6013 64.492C47.5837 64.5783 47.4346 64.6451 47.6087 64.7537C47.9263 64.9513 48.217 65.0748 48.4828 64.6933C48.0874 64.3954 48.0254 64.3667 47.6744 64.3277C47.3124 63.886 46.9967 63.8804 46.6967 64.3119C46.9606 64.5634 47.2791 64.5374 47.6013 64.492ZM40.1672 75.9994C39.8894 76.2964 39.9394 76.4449 40.3246 76.649C40.5033 76.7418 40.6079 76.5618 40.7552 76.598C40.6329 76.8244 40.707 76.9432 40.9403 77.0481C41.0949 77.1194 41.259 77.1682 41.4274 77.1928C41.5542 77.4527 41.8209 77.4833 42.0505 77.5371C42.244 77.5826 42.3551 77.3812 42.407 77.243C42.4588 77.1047 42.2533 77.139 42.1801 77.0731C41.8718 76.7947 41.669 77.1279 41.4218 77.1993C41.2755 77.0304 41.8144 76.9534 41.4838 76.7715C41.3116 76.6787 41.1626 76.5015 40.9283 76.5664C40.9033 76.5729 40.8663 76.5367 40.8357 76.521C40.7431 76.1776 40.4487 76.0996 40.1644 76.0068C39.9589 75.4658 39.6607 75.3461 39.233 75.6356C39.5682 76.0792 39.5682 76.0792 40.1672 76.0041V75.9994ZM49.7883 75.1642C49.2522 75.4018 49.1522 75.6533 49.4003 76.1247C49.7938 75.9085 49.9624 75.6004 49.7818 75.1568C49.967 75.1568 49.9142 75.411 50.0855 75.4454C50.2855 75.1855 50.591 74.9684 50.3799 74.5693C50.6577 74.6909 50.6494 74.6844 50.8364 74.3837C50.9187 74.2307 50.9652 74.0609 50.9725 73.8872C51.2049 73.6246 51.5234 73.3842 51.2086 72.9787L51.2697 72.9008C51.329 72.9249 51.3966 73.0065 51.4549 72.9416C51.7327 72.6131 51.6068 72.2103 51.1355 72.0303C51.1864 72.6251 50.8309 73.0956 50.7281 73.6413C50.4735 73.8668 50.3735 74.1703 50.3059 74.4895C49.9698 74.5925 49.8966 74.8914 49.7883 75.1642V75.1642ZM48.9392 65.5193C48.9568 65.3513 49.1605 65.3829 49.2216 65.2622C48.7281 64.7332 48.6726 64.724 48.2809 65.1258C48.4254 65.2325 48.5633 65.3457 48.7133 65.4423C48.7876 65.4763 48.8661 65.5003 48.9466 65.5137C49.1559 66.0455 49.4725 66.1633 49.9077 65.8849C49.5466 65.4877 49.5466 65.4877 48.9392 65.5193V65.5193ZM38.133 67.6342C37.8339 67.8384 37.796 68.1484 37.795 68.4695C37.4784 68.7209 37.5506 69.0773 37.546 69.4123C37.4034 69.4754 37.4052 69.6165 37.3951 69.7334C37.3435 70.4083 37.341 71.0859 37.3876 71.7611C37.4089 72.1323 37.6719 72.1324 37.9765 72.1231C37.8293 71.6693 37.8163 71.2053 37.8154 70.7403C37.8223 70.6843 37.8095 70.6277 37.7792 70.5801C37.749 70.5326 37.7032 70.497 37.6497 70.4795L37.7349 70.3923C37.9774 70.01 37.9321 69.7826 37.5404 69.4058C37.6987 69.2527 37.7867 69.5107 37.8923 69.481C38.196 69.0922 37.9978 68.7766 37.7886 68.4602C38.1219 68.5966 38.3163 68.4518 38.3821 68.089C38.4117 67.9275 38.1348 67.8681 38.2969 67.7038C38.3848 67.7131 38.4534 67.8894 38.5626 67.7038C38.7478 67.3883 38.92 67.0913 38.4858 66.8417C38.2921 67.0648 38.1692 67.3407 38.133 67.6342ZM43.2912 77.5306C43.2782 77.6671 43.0884 77.6828 43.0903 77.8285C43.6042 78.1069 43.8245 78.1172 44.0551 77.8647C44.0866 77.9575 44.1079 78.0791 44.2403 78.0503C44.6393 77.9705 45.0291 78.067 45.4226 78.0884C45.4651 78.0938 45.5082 78.0882 45.5478 78.0719C45.5874 78.0556 45.6221 78.0293 45.6486 77.9956C45.7263 77.8898 45.7819 77.758 45.7152 77.6429C45.6486 77.5279 45.53 77.616 45.4541 77.6513C45.0902 77.8202 45.181 77.5241 45.143 77.358C45.2828 77.4313 45.4106 77.5279 45.5782 77.3877C45.6361 77.3395 45.7076 77.3104 45.7828 77.3046C45.8579 77.2988 45.933 77.3165 45.9976 77.3553C45.9467 77.5622 45.8949 77.7691 45.8356 78.0049L46.4189 77.8619C46.3915 77.904 46.3706 77.95 46.3569 77.9984C46.3208 78.3278 46.1995 78.4512 45.8615 78.2768C45.6208 78.1487 45.3532 78.209 45.0902 78.2768C44.8893 78.326 44.9236 78.4262 44.981 78.5552C44.6014 78.403 44.2301 78.3696 43.881 78.6359C43.7884 78.4763 44.0912 78.4642 44.0023 78.3009C43.7569 78.184 43.4931 78.1923 43.2283 78.2007C42.9634 78.209 43.0051 78.3408 43.1208 78.4874C43.3329 78.7575 43.631 78.5802 43.8875 78.6294L43.9847 78.7779L43.9393 78.8308L43.6977 79.3987C44.244 79.4804 44.5727 78.8169 45.143 79.0999C45.1541 79.1343 44.9467 79.2623 45.1726 79.3329C45.4671 79.4257 45.7504 79.4451 46.0161 79.266C46.1004 79.2094 46.0161 79.1473 45.981 79.0925C45.7745 78.789 45.506 78.8243 45.1893 78.9784C45.2384 78.8429 45.1208 78.7324 45.2273 78.6266C45.5782 78.8958 45.8958 78.5654 46.3439 78.5041C46.1236 78.6461 46.0134 78.7167 45.8606 78.8132C46.231 78.9867 46.4161 79.5862 46.9133 79.073C46.8208 78.7816 46.4967 78.7102 46.2532 78.5162C46.4837 78.4095 46.8087 78.8122 46.8772 78.3464C46.9069 78.1376 47.0365 77.8638 46.6671 77.7961C46.6485 77.577 46.8235 77.3766 46.7291 77.1557C46.4624 77.1557 46.2661 77.41 45.9884 77.3655C45.9884 77.0871 46.3236 77.2374 46.3976 77.0499C46.2006 76.8933 45.9497 76.8213 45.6998 76.8497C45.4499 76.878 45.2214 77.0044 45.0643 77.2012C44.8199 77.1956 44.7051 77.4258 44.5088 77.5056L44.4504 77.4304C44.4903 77.3506 44.618 77.3079 44.5541 77.1826C44.4245 76.9302 43.7995 76.8365 43.6171 77.0462C43.5514 77.1214 43.4857 77.2142 43.5144 77.3107C43.5495 77.4286 43.6801 77.3887 43.769 77.4035C43.9282 77.4378 44.1032 77.4035 44.2523 77.5242L44.0477 77.8703C44.0329 77.7441 44.0782 77.5919 43.8625 77.5845C43.6708 77.5845 43.4792 77.552 43.2866 77.5344C43.2968 77.3404 43.307 77.1464 43.3171 76.9497C42.6801 77.1121 42.5227 77.2996 42.5292 77.8777C42.4709 77.9046 42.4014 77.719 42.3486 77.8889C42.3031 78.0655 42.3015 78.2506 42.344 78.428C42.356 78.4995 42.4366 78.6248 42.2514 78.6303C41.9931 78.6378 41.8857 78.8317 41.7644 79.0173C41.8903 79.0971 42.0774 79.0359 42.1051 79.2289C42.0033 79.3626 41.9107 79.1955 41.8088 79.2196C41.707 79.2438 41.5311 79.1974 41.5653 79.3468C41.5959 79.4683 41.7079 79.6549 41.8792 79.6252C42.0848 79.5927 42.0783 79.3858 42.1014 79.2215C42.3051 79.2113 42.5783 79.2716 42.4246 78.9004C42.4496 78.8735 42.4746 78.8466 42.4986 78.8187C42.6783 78.8475 42.8931 78.9236 43.0144 78.7631C43.107 78.6424 42.8671 78.545 42.8644 78.4048C42.8644 78.2025 42.6616 78.1264 42.606 77.9547C42.744 77.9065 42.8959 77.9074 42.9477 77.7079C42.9584 77.6735 42.9759 77.6416 42.999 77.614C43.0221 77.5864 43.0505 77.5637 43.0825 77.5473C43.1144 77.5308 43.1493 77.5208 43.1852 77.5179C43.221 77.5151 43.2571 77.5194 43.2912 77.5306V77.5306ZM45.9041 63.731C46.1124 63.8563 45.6726 64.0233 45.9347 64.1551C46.318 64.349 46.5485 64.2729 46.7448 63.8693C46.481 63.7115 46.1893 63.7171 45.8986 63.7356C45.606 63.3644 45.1893 63.6734 44.8347 63.5389C44.4597 63.396 44.0847 63.4999 44.0069 64.0168C43.8079 63.8628 44.1606 63.6038 43.8282 63.5528C43.3949 63.4915 43.2495 63.6196 43.1681 64.1393C43.3352 64.1266 43.5012 64.1008 43.6644 64.0623C44.0736 63.9342 44.5116 63.9509 44.9051 63.9918C45.2986 64.0326 45.6476 64.1356 45.9041 63.731V63.731ZM14.1373 59.2477L14.1678 59.2533H14.1317C14.1965 59.1104 14.0854 59.012 14.0391 58.9053C13.6688 58.1462 13.3271 57.3787 13.0206 56.5945C12.7882 56.0043 12.3271 55.7593 11.6947 55.8864C11.204 55.9876 10.7244 56.0108 10.2642 55.7686L10.2161 55.7166C10.2161 55.7491 10.2161 55.7825 10.2161 55.8159C10.4846 56.7745 10.8873 57.6831 11.2753 58.6C11.5457 59.2394 11.8531 59.4036 12.5558 59.2756C13.0771 59.1772 13.6021 58.9712 14.1373 59.2477ZM71.9915 25.22C71.9915 25.2024 71.9915 25.1847 71.9915 25.1662C71.9915 25.1717 71.9813 25.1773 71.9822 25.1819C71.9856 25.1937 71.9899 25.2052 71.9952 25.2163C72.5294 26.0236 73.0451 26.844 73.5155 27.6913C73.6306 27.922 73.8262 28.1023 74.0651 28.1981C74.304 28.2939 74.5697 28.2985 74.8118 28.211C75.3331 28.044 75.8488 27.8871 76.4571 28.1897C75.9756 27.18 75.471 26.2918 74.9479 25.4149C74.634 24.8887 74.2729 24.7281 73.6831 24.9221C73.1331 25.1049 72.5905 25.31 71.9915 25.22ZM33.1414 12.2472C33.2729 12.3196 33.3813 12.2286 33.497 12.1943C34.2896 11.9595 35.0784 11.7136 35.8747 11.4946C36.5284 11.3145 36.8006 10.9879 36.7793 10.2946C36.7645 9.77123 36.7497 9.25153 37.1701 8.7866C37.0679 8.78745 36.9658 8.79457 36.8645 8.80794C35.9071 9.01953 34.959 9.26545 34.0127 9.52437C33.5498 9.65151 33.3877 9.96054 33.3257 10.3679C33.2897 10.5627 33.2922 10.7626 33.3331 10.9563C33.4526 11.4203 33.3572 11.8416 33.1479 12.2555C33.1322 12.2704 33.1164 12.2862 33.1016 12.3019H33.1368L33.1414 12.2472ZM74.0451 24.0173C74.0451 24.0368 74.0451 24.0553 74.0451 24.0748H74.0812L74.0396 24.0238C73.5016 23.1134 72.8239 22.3051 72.1952 21.4596C71.9248 21.0968 71.5804 21.0448 71.1924 21.1385C70.974 21.1904 70.7654 21.2775 70.5748 21.3965C70.1804 21.648 69.7739 21.7937 69.2026 21.6341C69.9267 22.4591 70.5591 23.2247 71.147 24.0228C71.4498 24.4293 71.8878 24.5889 72.3591 24.3829C72.9026 24.1435 73.4414 23.9356 74.0451 24.0173ZM74.3035 29.0045C74.2849 28.9859 74.2544 28.9497 74.2488 28.9534C74.196 28.9877 74.2238 29.0212 74.2581 29.0509C74.647 29.938 75.0395 30.8224 75.421 31.7124C75.5097 31.9408 75.6755 32.1309 75.8894 32.2495C76.1034 32.3682 76.3521 32.408 76.5923 32.362C77.1265 32.2692 77.6608 32.1542 78.1663 32.4892C78.2173 32.2952 78.1339 32.1718 78.0895 32.0437C77.7886 31.1816 77.4302 30.3417 77.0849 29.4972C76.9117 29.0722 76.5978 28.9404 76.1997 28.9302C75.9892 28.924 75.779 28.9522 75.5775 29.0137C75.1638 29.1541 74.715 29.1509 74.3035 29.0045V29.0045ZM75.9766 33.0877C75.9895 33.0404 75.9766 33.0181 75.9303 33.0506L75.983 33.0822C75.9442 33.2604 76.0506 33.4079 76.0951 33.5666C76.309 34.3229 76.5404 35.0737 76.7432 35.8319C76.9043 36.4212 77.3154 36.7432 77.9311 36.708C78.4543 36.6783 78.9709 36.6634 79.4006 37.0476C79.4691 36.9149 79.4219 36.8091 79.4006 36.7033C79.2033 35.7985 78.9867 34.8974 78.72 34.0121C78.546 33.4311 78.3052 33.2483 77.696 33.2418C77.1201 33.2325 76.5293 33.3801 75.9766 33.0859V33.0877ZM61.2741 71.5189C61.5001 71.5579 61.6278 71.3769 61.7825 71.2758C63.3401 70.2645 64.8043 69.1153 66.1573 67.8421C67.1999 66.8593 68.2193 65.8515 69.0786 64.6961C69.2026 64.5616 69.3369 64.4363 69.4489 64.2924C75.2173 56.8683 77.4117 48.479 76.1155 39.1821C75.5284 34.9633 74.0785 31.0294 71.872 27.3813C70.9683 25.8854 69.9776 24.4488 68.8036 23.1486C68.7517 23.0654 68.6951 22.9851 68.6341 22.9083C64.5194 18.1874 59.4927 14.8577 53.4956 13.036C49.3511 11.7773 44.9954 11.3713 40.6903 11.8426C38.9709 12.0282 37.2645 12.3066 35.6081 12.8207C35.4849 12.8458 35.3599 12.8634 35.2377 12.8977C33.0377 13.5218 30.9122 14.3848 28.899 15.4711C27.1555 16.4149 25.487 17.4719 23.9713 18.7591C23.9018 18.8055 23.8278 18.8463 23.763 18.8992C21.2004 20.9813 18.9693 23.4425 17.1464 26.1981C16.5029 27.1707 15.8706 28.1535 15.4011 29.229C15.2493 29.513 15.0863 29.7905 14.9484 30.081C14.3271 31.3876 13.7447 32.711 13.3697 34.1132C13.3215 34.2292 13.2614 34.3424 13.2252 34.4621C11.2613 40.8683 11.3049 47.7241 13.3502 54.1046C14.787 58.562 17.1786 62.6507 20.3575 66.0844C21.9535 67.8163 23.7299 69.3719 25.6564 70.7245C25.8824 70.8832 26.0185 70.8869 26.212 70.6781C26.6693 70.2121 26.9805 69.622 27.1073 68.9808C27.186 68.5585 27.3712 68.4481 27.7499 68.4017C29.1628 68.2291 30.0804 67.4097 30.4406 66.0278C30.7952 64.6636 30.5971 63.3106 30.3202 61.9659C30.1397 61.088 30.1249 61.0917 29.2804 61.384C29.2138 61.4072 29.148 61.4313 29.0804 61.4508C27.9138 61.7942 26.8027 61.7562 25.8018 60.9701C25.3555 60.6193 25.0361 60.1581 24.7185 59.6542C24.3612 60.0446 23.9702 60.4027 23.55 60.7242C23.1433 61.0491 22.7097 61.3384 22.2537 61.5891C21.2473 62.1227 20.7408 61.9984 19.9649 60.8996C19.6631 60.4718 19.6871 59.9966 19.9316 59.5373C20.2232 58.9869 20.2167 58.8663 19.8038 58.3809C19.4399 57.9522 19.0473 57.5457 18.6927 57.1077C17.5427 55.6906 17.3761 54.138 18.0872 52.4676C18.5131 51.4709 19.1353 50.6032 19.839 49.7921C19.9048 49.7228 19.9513 49.6373 19.9738 49.5444C19.9964 49.4514 19.9943 49.3541 19.9677 49.2622C19.6566 47.6623 20.0482 46.2731 21.3565 45.2671C22.2277 44.5996 23.1479 43.999 24.1093 43.4704C24.1167 43.9187 24.0926 44.3697 24.137 44.8142C24.4398 47.8767 25.5731 50.6413 27.1842 53.2202C28.0369 54.5863 29.2786 55.4317 30.9054 55.6591C31.86 55.7918 32.81 55.8261 33.7544 55.6024C34.7275 55.3732 35.0914 54.8081 34.8831 53.8299C34.7905 53.404 34.6646 52.9854 34.5368 52.5697C34.2183 51.5322 33.9053 50.4946 33.9461 49.3903C33.9507 49.2566 33.9025 49.0627 34.0581 49.0237C34.2285 48.982 34.2599 49.1861 34.3136 49.3021C34.7201 50.2125 35.1118 51.1294 35.5247 52.0379C36.4145 53.9988 37.3413 55.9356 38.6497 57.6673C41.1496 60.9738 44.8986 61.7589 48.142 60.9367C49.5614 60.5766 49.9012 59.8231 49.2263 58.5239C48.7111 57.508 48.3444 56.4232 48.1374 55.3027C47.7763 53.4912 47.6291 51.6741 48.105 49.8589C48.2966 49.1314 48.5818 48.4391 49.18 47.9379C49.7216 47.4851 50.279 47.5509 50.7207 48.104C50.975 48.4424 51.1483 48.8349 51.2271 49.2511C51.5438 50.6431 51.4012 52.0259 51.1799 53.4086C51.0096 54.4768 50.6873 55.5199 50.7262 56.6205C50.7855 58.3058 51.7077 59.2876 53.3669 59.1354C55.6113 58.9285 57.5807 58.0821 58.9066 56.1175C59.4825 55.2637 59.9001 54.3246 60.3491 53.404C60.7084 54.1464 60.8232 54.9556 60.9408 55.7639C61.1093 56.923 60.8704 58.0691 60.8427 59.2217C60.7964 61.1149 60.9352 62.9728 61.8065 64.697C62.1102 65.3003 62.4704 65.8747 62.7704 66.4798C63.1787 67.3029 63.1843 68.1344 62.7241 68.9492C62.5232 69.3047 62.3148 69.6555 62.113 70.01C61.8269 70.5092 61.4751 70.9714 61.2797 71.5189C61.2682 71.5256 61.2573 71.5334 61.2473 71.5421C61.2473 71.5421 61.2473 71.557 61.2473 71.5644L61.2741 71.5189ZM44.6078 68.0853C44.6217 68.2504 44.6375 68.346 44.6384 68.4425C44.6477 69.4699 44.731 70.4962 44.6754 71.5245C44.6662 71.6934 44.6828 71.8549 44.9088 71.8252C45.0764 71.8038 45.3486 71.9987 45.3967 71.7138C45.5597 70.7385 46.056 69.8921 46.3893 68.9836C46.8337 67.7669 46.5245 66.7276 45.4986 65.9007C45.1847 65.6473 44.8652 65.1973 44.5551 65.2019C44.2449 65.2065 43.919 65.6557 43.6023 65.9118C43.0718 66.3415 42.6931 66.8714 42.5625 67.5535C42.432 68.2356 42.6551 68.8351 42.9125 69.4337C43.207 70.1185 43.5653 70.783 43.6718 71.5301C43.7162 71.8428 43.8449 71.8595 44.1079 71.8484C44.4069 71.8363 44.4393 71.6953 44.4393 71.4484C44.4393 70.4619 44.4569 69.4754 44.4736 68.4889C44.4736 68.3757 44.4236 68.2421 44.606 68.0853H44.6078ZM39.1339 70.3338C39.1339 71.2053 39.6533 71.9059 40.4005 72.047C40.6783 72.0999 40.8366 72.111 40.8163 71.7231C40.806 71.613 40.8192 71.5019 40.8549 71.3973C40.8905 71.2926 40.9479 71.1967 41.0232 71.1159C41.0985 71.0351 41.1901 70.9711 41.2918 70.9283C41.3935 70.8855 41.5032 70.8648 41.6135 70.8675C41.8069 70.8703 41.9942 70.9356 42.1477 71.0536C42.3012 71.1716 42.4125 71.3361 42.4653 71.5226C42.6162 72.0201 42.9283 71.9746 43.2986 71.9115C43.5023 71.8771 43.5431 71.7843 43.5097 71.5922C43.3551 70.6995 43.0292 69.8865 42.419 69.2063C41.844 68.565 41.0107 68.3423 40.2792 68.6226C39.5793 68.8889 39.1367 69.5506 39.1321 70.3338H39.1339ZM50.0114 70.3218C49.9809 69.6601 49.7022 69.0708 49.0448 68.7191C48.3698 68.3581 47.6948 68.4286 47.1004 68.875C46.1745 69.5654 45.7893 70.5677 45.6134 71.6702C45.5993 71.7098 45.6001 71.7532 45.6156 71.7923C45.6311 71.8314 45.6603 71.8635 45.6976 71.8827C45.8558 71.9634 46.0392 71.9788 46.2086 71.9258C46.378 71.8727 46.5199 71.7553 46.6041 71.5987C46.6344 71.5349 46.6684 71.4729 46.7059 71.4131C46.9541 71.0029 47.3226 70.8034 47.6735 70.8869C48.0967 70.9872 48.3355 71.2981 48.3217 71.8428C48.3142 72.1054 48.4318 72.0822 48.5994 72.0702C49.355 72.0145 49.9966 71.2526 50.0096 70.3218H50.0114ZM41.8542 8.14441C40.7967 8.19336 39.7431 8.30492 38.6987 8.47849C38.0886 8.5713 37.8793 8.81722 37.7821 9.43157C37.6895 10.0051 37.8654 10.6426 37.2423 11.1716C38.3348 10.9396 39.2913 10.8004 40.2496 10.6668C40.9052 10.574 41.2163 10.2297 41.2598 9.55964C41.2894 9.06407 41.3746 8.58522 41.8524 8.14812L41.8542 8.14441ZM46.4958 8.14441C45.4134 8.12121 44.3662 7.98571 43.3116 8.08223C42.769 8.13141 42.5088 8.32908 42.3616 8.84692C42.1986 9.42043 42.269 10.0765 41.6394 10.5396C42.6192 10.4585 43.6028 10.4312 44.5856 10.458C45.2115 10.4793 45.6088 10.1925 45.755 9.56892C45.8791 9.03716 46.0004 8.50448 46.4976 8.14719L46.4958 8.14441ZM11.9456 60.0421C12.4512 61.1112 12.9891 62.0151 13.5123 62.9292C13.7428 63.3329 14.0817 63.3932 14.4715 63.3672C14.6538 63.3507 14.8319 63.3033 14.9984 63.2271C15.4419 63.0294 15.8835 62.8633 16.3872 63.0934C16.3789 62.8893 16.265 62.7965 16.1946 62.6814C15.7715 61.9844 15.3372 61.2894 14.9234 60.5906C14.5845 60.0152 14.1576 59.8268 13.5243 60.0337C13.0327 60.1943 12.5503 60.3131 11.9456 60.0421ZM11.3068 51.0319C11.2651 50.7619 11.2438 50.6255 11.2225 50.4881C11.0975 49.6835 10.9577 48.8808 10.8522 48.0753C10.7799 47.5305 10.4133 47.1064 9.87532 47.0656C9.31145 47.0238 8.76424 46.9542 8.30962 46.4447C8.38924 47.5407 8.4948 48.5421 8.64572 49.5397C8.74757 50.2171 8.9846 50.4566 9.66421 50.5382C10.2022 50.6023 10.7938 50.4779 11.3068 51.0319V51.0319ZM46.143 10.4181C46.2476 10.5406 46.3513 10.5201 46.4448 10.5257C47.342 10.5777 48.2337 10.6798 49.1235 10.8041C49.3449 10.8395 49.5718 10.798 49.7666 10.6867C49.9614 10.5753 50.1124 10.4007 50.1948 10.1916C50.4059 9.64687 50.5799 9.08913 51.2262 8.74391C50.6336 8.63997 50.1549 8.54717 49.6735 8.47942C49.104 8.39683 48.5291 8.35414 47.9615 8.26134C47.505 8.18524 47.2504 8.43302 47.0402 8.76618C46.9501 8.90871 46.8849 9.06564 46.8476 9.23019C46.7448 9.70998 46.5782 10.1452 46.143 10.4181ZM77.7737 45.9557C77.7237 46.5654 77.6923 47.0415 77.6432 47.5166C77.5941 47.9918 77.5386 48.466 77.4682 48.9383C77.3849 49.4951 77.5997 49.9592 78.108 50.1522C78.6469 50.3573 79.183 50.5485 79.4969 51.1591C79.7209 50.0455 79.8672 49.0033 79.9885 47.9565C80.0413 47.4925 79.8959 47.1797 79.4765 46.9626C79.3174 46.8732 79.1471 46.8058 78.97 46.7621C78.5034 46.6638 78.095 46.4809 77.7737 45.9557ZM8.91886 37.0569C8.87442 37.2555 8.83923 37.3761 8.82072 37.4996C8.69572 38.3348 8.61517 39.1811 8.43924 40.0052C8.24851 40.9054 8.69387 41.2348 9.31145 41.4269C9.80773 41.5819 10.304 41.7053 10.6466 42.2965C10.6975 41.2042 10.8096 40.2548 10.9299 39.312C11.0225 38.6169 10.7855 38.2531 10.117 38.0127C9.63644 37.8355 9.17719 37.6304 8.91886 37.0569ZM14.3011 24.0451C13.6938 24.936 13.2021 25.7666 12.7345 26.612C12.3049 27.3897 12.3336 27.6607 12.9965 28.249C13.3891 28.597 13.8104 28.8987 13.9049 29.5483C14.3558 28.5998 14.8039 27.7739 15.278 26.9628C15.6548 26.3188 15.5882 25.8965 15.0243 25.3852C14.6539 25.0502 14.3215 24.6947 14.3011 24.0451ZM17.1464 67.8607C17.8965 68.7324 18.6914 69.5645 19.5279 70.3533C19.7908 70.6058 20.1029 70.5389 20.3954 70.4526C20.596 70.3875 20.7826 70.2852 20.9454 70.151C21.3158 69.8466 21.6973 69.5747 22.2417 69.6415C21.526 68.9539 20.8214 68.2987 20.1482 67.6092C19.7131 67.1628 19.2177 67.109 18.6881 67.4588C18.2464 67.7447 17.7946 67.9813 17.1464 67.8607ZM80.0848 41.7833C80.0172 40.6168 79.8802 39.5653 79.7348 38.5139C79.6681 38.0397 79.3839 37.8401 78.9793 37.7334C78.8312 37.6901 78.6779 37.6676 78.5237 37.6666C78.0154 37.6777 77.5191 37.6582 77.0691 37.1794C77.2904 38.2457 77.4312 39.2034 77.5636 40.162C77.6497 40.7847 77.995 41.117 78.6237 41.1745C79.1413 41.2209 79.6496 41.2831 80.0848 41.7824V41.7833ZM16.0752 25.6153C16.6446 24.8154 17.202 24.0451 17.7872 23.2953C18.2001 22.7682 18.1992 22.3069 17.7631 21.79C17.427 21.3919 17.115 20.9891 17.1659 20.3237C16.4446 21.1274 15.8465 21.8856 15.2715 22.6633C14.7697 23.3435 14.7724 23.699 15.3391 24.3244C15.678 24.6947 16.0613 25.0335 16.0752 25.6153ZM74.5072 58.6603C74.0303 59.6533 73.5646 60.5163 73.0674 61.3599C72.8248 61.7701 72.8285 62.2582 73.1377 62.5951C73.5442 63.0387 74.0636 63.3904 74.1229 64.1644C74.771 63.176 75.297 62.2656 75.8219 61.3525C76.0516 60.9534 75.9534 60.623 75.7293 60.3038C75.5905 60.1084 75.4181 59.9394 75.2201 59.8045C74.8414 59.5595 74.6081 59.2338 74.5072 58.6603ZM67.9332 71.2164C68.8146 70.4542 69.6524 69.6428 70.4424 68.7859C70.6202 68.5929 70.5758 68.3349 70.5248 68.0982C70.4681 67.8498 70.3515 67.6191 70.185 67.4264C69.873 67.0552 69.6378 66.6598 69.7295 66.0167C68.9832 66.8593 68.3184 67.5786 67.6184 68.2644C67.2221 68.6523 67.1555 69.146 67.4592 69.6239C67.7629 70.1018 68.036 70.5529 67.9369 71.2201L67.9332 71.2164ZM58.8436 13.7645C59.726 14.2536 60.5797 14.7064 61.4093 15.2039C61.8723 15.4823 62.363 15.4312 62.7361 15.0359C63.125 14.6238 63.4944 14.1951 64.2028 14.1533C63.2361 13.4917 62.3111 12.9655 61.3889 12.4346C61.0186 12.2203 60.6908 12.2945 60.376 12.5117C60.215 12.6241 60.0736 12.7624 59.9575 12.9209C59.6723 13.3098 59.3751 13.6726 58.8436 13.7645ZM20.4343 17.085C19.559 17.8003 18.7385 18.5804 17.9798 19.4189C17.7529 19.6732 17.8288 19.9757 17.9187 20.2541C17.9822 20.4567 18.083 20.6455 18.2159 20.811C18.5288 21.1822 18.7714 21.5738 18.6696 22.2178C19.3973 21.3826 20.0418 20.6829 20.7214 20.0147C21.1991 19.5461 21.2491 19.0867 20.8871 18.5197C20.6167 18.0863 20.3612 17.652 20.4343 17.085ZM76.1516 54.732C75.7747 55.6433 75.4599 56.5444 75.0747 57.4177C74.834 57.9615 74.9581 58.4227 75.4451 58.7698C75.8886 59.0872 76.3275 59.4036 76.4719 60.069C77.0034 59.0278 77.3978 58.0404 77.8024 57.0539C77.9747 56.6316 77.8302 56.318 77.5589 56.033C77.4237 55.8889 77.2653 55.7685 77.0904 55.6767C76.6821 55.4642 76.3321 55.1988 76.1516 54.732ZM80.095 46.4939C80.207 45.41 80.157 44.4235 80.2033 43.4407C80.2404 42.651 79.8107 42.3531 79.245 42.2343C78.7191 42.1304 78.1571 42.1415 77.8247 41.6775C77.8247 42.6538 77.8247 43.6087 77.8247 44.5646C77.8247 45.1901 78.1219 45.5659 78.7413 45.6986C79.2506 45.8072 79.7487 45.938 80.095 46.4939ZM25.7231 72.2771C24.9352 71.6915 24.1667 71.1514 23.4324 70.5649C22.9343 70.1668 22.4482 70.1677 21.9658 70.5761C21.5584 70.9204 21.1482 71.2554 20.4686 71.1988C21.338 71.9727 22.1843 72.614 23.0222 73.2655C23.3833 73.5439 23.7185 73.5003 24.0722 73.3128C24.2345 73.2291 24.3828 73.1208 24.512 72.9917C24.8472 72.6437 25.1879 72.3161 25.7231 72.2771ZM72.3498 62.519C71.7461 63.4238 71.1952 64.2024 70.6017 64.9495C70.2248 65.4228 70.2147 65.9248 70.6017 66.3925C70.9498 66.812 71.2767 67.2278 71.2656 67.8774C72.0165 67.0301 72.6544 66.193 73.2951 65.3606C73.6016 64.9652 73.5257 64.6107 73.3155 64.2386C73.227 64.0784 73.1125 63.9342 72.9766 63.8117C72.6146 63.4906 72.3646 63.1194 72.3498 62.519ZM10.129 32.4957C9.76421 33.6093 9.48089 34.619 9.217 35.6389C9.09108 36.1224 9.28459 36.4231 9.6207 36.6903C9.75201 36.7969 9.89999 36.8809 10.0587 36.939C10.5216 37.0996 10.9244 37.3307 11.1596 37.894C11.3947 36.8518 11.5845 35.9043 11.8549 34.9772C12.029 34.3786 11.841 33.9489 11.291 33.6566C10.8142 33.4033 10.3494 33.1397 10.1262 32.4957H10.129ZM55.7761 9.99302C54.7808 9.62181 53.8317 9.37311 52.8882 9.12718C52.0966 8.92116 51.7623 9.06779 51.4068 9.80278C51.1827 10.2668 51.0133 10.7633 50.4318 10.9971C51.4419 11.2468 52.3651 11.4612 53.2826 11.7034C53.9308 11.8732 54.3363 11.7034 54.6548 11.1002C54.8983 10.638 55.1493 10.1842 55.7752 9.99302H55.7761ZM11.9281 28.172C11.4105 29.1826 11.0262 30.1589 10.6179 31.125C10.4244 31.5825 10.5744 31.9129 10.8725 32.2219C10.9997 32.355 11.1488 32.4652 11.3133 32.5476C11.7456 32.7639 12.0938 33.0543 12.2392 33.5935C12.6253 32.608 12.9799 31.6939 13.3428 30.7835C13.5447 30.2805 13.4354 29.8025 13.0049 29.4842C12.5447 29.1585 12.0827 28.842 11.9281 28.172ZM25.2944 16.2173C26.1407 15.7013 26.961 15.1964 27.7999 14.7185C28.2582 14.4596 28.4647 14.0383 28.3351 13.5343C28.1906 12.9775 27.9536 12.4254 28.299 11.7711C27.2444 12.2843 26.3314 12.8021 25.4287 13.3487C25.0472 13.5807 24.8796 13.9436 24.9703 14.3751C25.0018 14.5549 25.0537 14.7305 25.125 14.8985C25.3259 15.3097 25.4676 15.7263 25.2944 16.2173ZM64.1917 74.0858C65.0715 73.512 65.9207 72.8925 66.736 72.2298C67.2101 71.853 67.3101 71.5106 67.0786 70.9445C66.8583 70.4044 66.4249 69.9367 66.6379 69.1868C65.8231 69.9023 65.0972 70.5009 64.3463 71.0679C63.8009 71.479 63.6917 71.9031 63.9759 72.5193C64.188 72.9833 64.3935 73.4464 64.1917 74.0858ZM71.2813 20.4008C70.5128 19.4867 69.7471 18.7433 68.9934 17.9879C68.7406 17.7336 68.4767 17.6937 68.1601 17.7401C67.9105 17.7885 67.6781 17.9025 67.4869 18.0705C67.1083 18.3675 66.7231 18.6273 66.0907 18.5781C66.8657 19.2519 67.511 19.8774 68.1406 20.5121C68.7314 21.1126 69.1165 21.1488 69.8332 20.7061C70.2378 20.4537 70.6508 20.1985 71.2813 20.4008V20.4008ZM60.1232 11.7897C59.1047 11.2793 58.1186 10.8691 57.1326 10.4654C56.7131 10.2937 56.3918 10.4116 56.1011 10.69C55.9554 10.8233 55.833 10.9801 55.7391 11.154C55.515 11.5966 55.2233 11.9549 54.6511 12.1154C55.6363 12.4523 56.5279 12.7789 57.3992 13.1594C58.0353 13.4378 58.476 13.3135 58.8807 12.7409C59.1825 12.3131 59.4936 11.9085 60.1232 11.7897ZM62.5722 15.9212C63.4611 16.5384 64.2555 17.0915 65.0129 17.6937C65.449 18.0408 65.9444 18.0473 66.3786 17.6937C66.8129 17.3402 67.2277 16.9903 67.8999 17.0089C67.0666 16.2395 66.2203 15.6122 65.3879 14.9672C65.0176 14.6814 64.6583 14.7194 64.2972 14.9301C64.088 15.0469 63.9002 15.1984 63.7417 15.3783C63.4583 15.7189 63.1074 15.8785 62.5722 15.9212ZM14.2928 64.1226C14.8303 64.9517 15.4097 65.7527 16.0289 66.5225C16.5918 67.2278 16.9094 67.3131 17.7113 66.8937C18.1464 66.6672 18.5612 66.4297 19.1834 66.5707C18.4696 65.755 17.864 65.02 17.2946 64.2572C16.9242 63.7616 16.4742 63.6428 15.9057 63.8962C15.4215 64.1133 14.9437 64.3574 14.2928 64.1226ZM8.31517 41.7638C8.29081 41.8968 8.2732 42.0309 8.2624 42.1656C8.24758 43.0807 8.23554 43.9954 8.22629 44.9098C8.22629 45.5214 8.43276 45.784 9.02627 45.9575C9.58181 46.1209 10.2401 46.0132 10.6531 46.6071C10.6012 45.6058 10.5827 44.6639 10.591 43.721C10.5966 43.0194 10.3485 42.7048 9.66514 42.5378C9.16515 42.4134 8.65683 42.2983 8.31517 41.7638ZM24.2092 14.1403C23.3269 14.712 22.5547 15.2902 21.8019 15.8906C21.1417 16.4149 21.0538 16.7564 21.4315 17.5118C21.6556 17.9573 21.9463 18.3712 21.7787 19.019C22.6204 18.3062 23.3528 17.6807 24.1296 17.1054C24.5592 16.7871 24.6852 16.2794 24.4592 15.7755C24.2333 15.2716 23.9981 14.7844 24.2092 14.1403ZM32.6276 9.98467C31.6395 10.3025 30.6696 10.6743 29.7221 11.0983C29.1156 11.3637 28.9314 11.708 29.0527 12.3613C29.1536 12.9052 29.3869 13.4397 28.9971 14.0837C29.9813 13.5882 30.8489 13.1919 31.735 12.8393C32.3192 12.6063 32.56 12.1674 32.4442 11.5475C32.3517 11.0528 32.2887 10.5545 32.6276 9.98467ZM78.2747 55.7017C78.6654 54.6002 78.9228 53.5812 79.2006 52.565C79.32 52.1214 79.133 51.8338 78.8367 51.5748C78.7085 51.4647 78.5622 51.3778 78.4043 51.3178C77.9413 51.1415 77.5052 50.9373 77.2571 50.3517C77.2052 50.5373 77.1821 50.6143 77.1645 50.6914C76.9599 51.5516 76.7654 52.4147 76.5506 53.2722C76.4071 53.8448 76.5747 54.293 77.096 54.5649C77.5663 54.8155 78.0293 55.0716 78.2747 55.7017ZM8.96331 51.1322C8.98553 51.3503 8.98645 51.4616 9.0096 51.5693C9.21052 52.4899 9.45589 53.3993 9.69755 54.3097C9.82069 54.7737 10.142 54.9287 10.5447 55.0002C10.7113 55.0308 10.8819 55.0308 11.0484 55.0002C11.5262 54.9074 11.9882 54.8888 12.4836 55.2786C12.4179 55.0308 12.391 54.8972 12.3466 54.77C12.0864 54.0109 11.8642 53.2416 11.6651 52.4648C11.4873 51.7725 11.1558 51.5312 10.4364 51.5451C9.94384 51.5489 9.44478 51.5813 8.96331 51.1322ZM44.6171 74.3772H44.4523C44.4523 74.0719 44.4523 73.7675 44.4523 73.4622C44.4523 73.2246 44.3995 73.078 44.1023 73.065C43.8347 73.0539 43.6838 73.0938 43.6394 73.3842C43.5816 73.7334 43.4465 74.0651 43.244 74.355C43.0884 74.5786 43.0921 74.7559 43.2625 74.9572C44.4264 76.3316 44.7004 76.2927 45.8458 74.9804C46.031 74.7707 46.031 74.5795 45.8708 74.3401C45.6606 74.0362 45.522 73.6884 45.4652 73.323C45.418 73.0103 45.2088 73.065 44.9958 73.0697C44.7828 73.0743 44.669 73.156 44.669 73.3954C44.669 73.7221 44.6356 74.0496 44.6171 74.3772ZM32.4692 61.023C33.0654 61.028 33.6392 60.7956 34.0647 60.377C34.4901 59.9584 34.7325 59.3877 34.7386 58.7902C34.7419 58.4937 34.686 58.1996 34.5743 57.925C34.4626 57.6505 34.2974 57.4011 34.0882 57.1914C33.8791 56.9817 33.6303 56.8159 33.3564 56.7039C33.0826 56.5918 32.7891 56.5357 32.4933 56.5388C31.2063 56.5388 30.1943 57.5272 30.1943 58.7883C30.1934 60.0124 31.2202 61.0184 32.4692 61.023ZM44.5532 72.0312C43.9341 72.0181 43.3157 72.0804 42.7116 72.2168C42.569 72.2511 42.3588 72.2623 42.3459 72.4451C42.3329 72.6279 42.5477 72.666 42.6857 72.6947C43.9277 72.9574 45.211 72.9555 46.4523 72.6892C46.581 72.6613 46.7745 72.6353 46.7791 72.472C46.7846 72.2781 46.5763 72.2576 46.4365 72.2233C45.8192 72.0805 45.1865 72.016 44.5532 72.0312V72.0312ZM41.7579 73.7573C41.67 73.8093 41.3422 73.5346 41.4663 73.9429C41.5103 74.1072 41.5994 74.2559 41.7234 74.372C41.8475 74.4881 42.0015 74.5671 42.1681 74.6C42.506 74.6742 42.7718 74.5517 42.9931 74.3067C43.2096 74.0661 43.3616 73.7742 43.4347 73.4585C43.4634 73.3332 43.6773 73.0984 43.3968 73.0529C43.1634 73.0158 42.8338 72.7226 42.6607 73.1847C42.507 73.581 42.2125 73.787 41.7533 73.7573H41.7579ZM46.1874 72.9648C45.5893 72.9722 45.5319 73.0576 45.7365 73.6144C45.8164 73.8397 45.9331 74.0502 46.0819 74.2371C46.5448 74.8162 47.3559 74.6826 47.6346 73.9912C47.7272 73.7647 47.6948 73.684 47.4328 73.7285C46.9458 73.8111 46.6171 73.5931 46.4467 73.1411C46.3884 72.9973 46.3282 72.923 46.1828 72.9648H46.1874ZM49.7383 78.5273C49.7423 78.3968 49.7198 78.2668 49.6721 78.1452C49.6244 78.0237 49.5524 77.9132 49.4607 77.8204C49.3689 77.7277 49.2593 77.6547 49.1384 77.6058C49.0176 77.5569 48.888 77.5333 48.7578 77.5362C48.1837 77.5362 47.7633 77.952 47.7661 78.5153C47.7645 78.7774 47.8669 79.0294 48.0507 79.2159C48.2345 79.4024 48.4847 79.508 48.7462 79.5096C49.0077 79.5112 49.2592 79.4087 49.4452 79.2244C49.6313 79.0402 49.7367 78.7895 49.7383 78.5273V78.5273ZM51.2966 70.2921C51.3281 70.5148 51.2966 70.7292 51.3336 70.9556C51.3707 71.1821 51.2725 71.4011 51.241 71.6266C51.2302 71.6814 51.234 71.738 51.2521 71.7908C51.2859 71.8611 51.3383 71.9206 51.4037 71.9628C51.469 72.0051 51.5448 72.0284 51.6225 72.0303C51.7438 72.0303 51.7077 71.853 51.7401 71.7519C51.8456 71.4168 51.6475 71.2414 51.3827 71.1162C51.4975 70.9389 51.8086 71.3018 51.8188 70.9036C51.8197 70.5621 51.8021 70.2754 51.2938 70.2921H51.2966ZM51.3651 68.3432C51.1373 67.5934 51.1096 67.5711 50.6077 67.7623C50.7318 68.1187 50.8355 68.5094 51.3623 68.3414L51.3651 68.3432ZM46.9374 77.5919C47.7106 77.3682 47.7161 77.3608 47.5763 76.8142C47.2189 76.9506 46.8004 77.0397 46.9374 77.5919ZM51.1512 69.3938C51.2595 69.7278 51.116 70.229 51.7614 70.1659C51.7132 69.7965 51.8447 69.313 51.1512 69.39V69.3938ZM50.9318 68.5381C50.9762 68.6996 51.0244 68.8602 51.0623 69.0216C51.1281 69.2926 51.3632 69.2249 51.5401 69.2518C51.6327 69.2657 51.6216 69.2397 51.5642 68.9223C51.4975 68.5381 51.2808 68.4463 50.9318 68.5344V68.5381ZM37.4969 72.2771C37.6386 73.0353 37.6515 73.0474 38.1867 72.9833C38.0034 72.317 38.0034 72.317 37.4969 72.2734V72.2771ZM43.0357 63.7041C42.3273 63.8043 42.3273 63.8043 42.3329 64.3824C42.6672 64.2646 43.144 64.3156 43.0357 63.7004V63.7041ZM38.5172 73.7787C38.3839 73.4232 38.3043 73.0158 37.7636 73.1857C37.9617 73.9067 37.9932 73.9327 38.5172 73.7749V73.7787ZM48.4605 76.6834C48.3679 76.6221 48.4985 76.3483 48.3105 76.3957C48.1226 76.443 47.8726 76.5479 47.792 76.7725C47.7457 76.9033 47.7522 77.0908 47.893 77.1789C48.0004 77.2457 48.4541 76.856 48.4605 76.6834ZM39.4607 66.3499C39.5811 66.2236 39.707 66.0965 39.8265 65.9638C39.9931 65.7782 39.8265 65.6232 39.77 65.4682C39.7339 65.3754 39.6894 65.4144 39.4598 65.6009C39.1478 65.8515 39.2191 66.0844 39.4607 66.3499ZM41.2737 64.35C40.6107 64.5866 40.5718 64.6488 40.7848 65.1592C41.0866 64.9708 41.5237 64.878 41.2709 64.35H41.2737ZM38.6561 74.6649C38.72 74.5777 39.0052 74.7494 38.9209 74.4645C38.8608 74.3086 38.7694 74.1668 38.6524 74.0478C38.5432 73.9206 38.3913 74.0144 38.258 74.019C38.1987 74.019 38.1561 74.0385 38.1506 74.1118C38.1386 74.2659 38.4821 74.6631 38.6561 74.6649ZM50.1373 66.954C50.2392 67.1257 50.3225 67.2844 50.4244 67.4291C50.5614 67.6259 50.7781 67.5544 50.916 67.482C51.054 67.4097 50.8864 67.2732 50.8503 67.1702C50.7272 66.8269 50.479 66.7962 50.1336 66.954H50.1373ZM41.5625 64.6868C42.1903 64.478 42.1903 64.478 42.1264 63.9444C41.4051 64.1764 41.3913 64.1996 41.5625 64.6868ZM49.6133 66.2422C49.9892 66.8463 49.9892 66.8463 50.4966 66.6292C50.2799 66.3146 50.117 65.8896 49.6133 66.2422ZM40.4468 64.8307C39.8404 65.1833 39.8404 65.1833 40.0718 65.7225C40.3237 65.4784 40.8107 65.3597 40.445 64.8307H40.4468ZM38.6413 74.8691C38.9598 75.4844 38.9746 75.4909 39.5432 75.2774C39.2904 75.0018 39.1598 74.5294 38.6395 74.8691H38.6413ZM48.6596 76.7168C49.2846 76.3298 49.2846 76.3298 49.0559 75.8157C48.7392 76.0375 48.3494 76.2194 48.6578 76.7168H48.6596ZM38.9284 67.0468C39.0441 66.8881 39.1561 66.747 39.2552 66.5967C39.3802 66.4111 39.2182 66.2617 39.1219 66.1587C38.9719 66 38.9367 66.232 38.8598 66.2979C38.5839 66.5429 38.5978 66.7888 38.9284 67.0468ZM42.7366 79.034C42.8783 79.2438 43.0699 79.2902 43.2532 79.3459C43.4181 79.395 43.531 79.3059 43.5986 79.176C43.6356 79.1074 43.6727 78.9728 43.6412 78.944C43.5894 78.8976 43.5257 78.8668 43.4573 78.855C43.3888 78.8431 43.3184 78.8509 43.2542 78.8772C43.0977 78.9709 42.9236 78.9839 42.7366 79.034ZM41.294 79.5676C41.2144 79.5936 41.1301 79.6447 41.1551 79.7041C41.1813 79.7827 41.2233 79.8553 41.2783 79.9172C41.3334 79.9791 41.4005 80.0291 41.4755 80.0641C41.5533 80.0938 41.6264 79.9713 41.6116 79.898C41.5923 79.8198 41.5528 79.7482 41.497 79.6902C41.4413 79.6322 41.3713 79.5899 41.294 79.5676Z" fill="#FDFDFD"/>
<path fill-rule="evenodd" clip-rule="evenodd" d="M60.3551 53.4067C59.906 54.3283 59.4884 55.2674 58.9125 56.1212C57.5866 58.0858 55.6172 58.9322 53.3728 59.1391C51.7136 59.2913 50.7914 58.3095 50.7321 56.6242C50.6932 55.5236 51.0155 54.4805 51.1858 53.4123C51.4071 52.0296 51.5497 50.644 51.233 49.2548C51.1542 48.8386 50.9809 48.4461 50.7266 48.1077C50.2849 47.5509 49.7275 47.4888 49.1859 47.9416C48.5877 48.4428 48.3026 49.1351 48.1109 49.8626C47.635 51.6778 47.7822 53.4949 48.1433 55.3064C48.3504 56.4269 48.7171 57.5117 49.2322 58.5276C49.9109 59.8268 49.5673 60.5822 48.1479 60.9404C44.9073 61.7626 41.1546 60.9775 38.6556 57.671C37.3473 55.9402 36.4204 54.0025 35.5306 52.0416C35.1177 51.1331 34.726 50.2162 34.3196 49.3058C34.2659 49.1861 34.2344 48.9819 34.064 49.0274C33.9085 49.0664 33.9566 49.2603 33.952 49.394C33.9112 50.4983 34.2242 51.5359 34.5427 52.5734C34.6705 52.9891 34.7983 53.4086 34.889 53.8336C35.0973 54.8118 34.7334 55.3769 33.7603 55.6062C32.8159 55.8298 31.8659 55.7918 30.9113 55.6628C29.2845 55.4354 28.041 54.59 27.1901 53.2239C25.579 50.645 24.4457 47.8776 24.143 44.8179C24.0985 44.3734 24.1226 43.9224 24.1152 43.4741C24.2735 42.625 24.155 41.787 23.9661 40.9629C23.33 38.1946 23.1856 35.4143 23.7744 32.6228C24.7596 27.9586 27.4623 24.6158 31.652 22.4378C31.827 22.345 32.0224 22.1993 32.2279 22.4062C32.115 22.6159 31.8993 22.7078 31.7206 22.8387C30.3595 23.8409 29.1623 25.0084 28.2549 26.4394C25.8068 30.3027 25.6522 34.3786 27.2688 38.5658C28.2012 40.9787 29.6762 43.0101 31.8465 44.482C31.9835 44.5748 32.1298 44.7177 32.3011 44.5943C32.4724 44.4708 32.2946 44.3158 32.2918 44.1701C32.283 44.1287 32.269 44.0885 32.2502 44.0504C31.7789 42.5192 31.4493 40.9731 31.7113 39.3537C31.9437 37.9134 31.8826 36.4592 31.8872 35.0078C31.8955 32.5021 32.4066 30.1162 33.6788 27.9289C34.8112 25.98 36.3723 24.4376 38.2028 23.156C38.4287 22.9974 38.5056 22.9027 38.3074 22.654C37.784 21.9865 37.4578 21.1853 37.3658 20.3414C37.3547 18.9001 38.0139 17.7661 39.0324 16.8316C40.775 15.241 43.2703 15.4395 44.6888 17.2575C45.2684 18 45.6147 18.8574 45.7998 19.7771C45.8804 21.0337 45.6943 21.4309 44.6675 21.8447C43.6093 22.2672 42.6384 22.8823 41.8036 23.659C40.999 24.4014 40.5537 24.4265 39.6157 23.8725C39.3759 23.7314 39.2778 23.8122 39.1472 23.9903C38.6894 24.5971 38.2721 25.2335 37.8982 25.8956C36.2927 28.8198 35.5631 31.9091 36.3751 35.211C37.0991 38.1575 38.825 40.2882 41.799 41.1977C42.7249 41.4761 43.3184 41.9772 43.7434 42.8403C44.5767 44.5451 45.2378 44.4467 46.4239 44.1247C47.2035 43.9122 47.9442 43.9753 48.6507 44.4179C49.0772 44.6703 49.5595 44.8128 50.0544 44.8328C50.672 44.8736 51.1358 44.5608 51.4793 44.0764C51.9423 43.4268 52.508 43.0751 53.3358 43.1484C53.7061 43.1818 54.0932 43.102 54.4654 43.0352C58.1986 42.3614 60.5013 40.0729 61.7041 36.5576C62.18 35.1656 62.3022 33.7253 62.3143 32.2683C62.5865 32.1495 62.6226 32.3611 62.6763 32.5337C62.9339 33.3946 63.1176 34.276 63.2254 35.1683C63.4105 36.5093 63.4105 37.8596 63.4105 39.208C63.3294 41.1778 63.1129 43.1397 62.7624 45.0796C62.248 47.931 61.4413 50.7215 60.3551 53.4067V53.4067ZM49.7997 45.3673C48.434 45.3562 47.1322 45.1529 45.835 44.9107C45.6221 44.8708 45.2906 44.6963 45.2193 44.8467C45.1138 45.0703 45.3119 45.3487 45.473 45.5668C45.6158 45.7598 45.7932 45.9244 45.9961 46.0522C46.3747 46.2974 46.8011 46.459 47.2468 46.5262C47.6925 46.5934 48.1475 46.5647 48.5813 46.4419C49.1294 46.2935 49.5664 45.9789 49.8016 45.3673H49.7997Z" fill="#18181D"/>
<path fill-rule="evenodd" clip-rule="evenodd" d="M45.8031 19.7763C45.6179 18.8567 45.2717 18.001 44.692 17.2568C43.2736 15.436 40.7782 15.2402 39.0357 16.8308C38.0098 17.7653 37.3542 18.8994 37.3691 20.3406C37.2052 20.3721 37.0394 20.4009 36.8756 20.4334C35.1987 20.786 33.6729 21.4941 32.2312 22.4036C32.0284 22.1966 31.8303 22.3442 31.6553 22.4351C27.4656 24.6132 24.7629 27.9559 23.7777 32.6201C23.1888 35.4116 23.3333 38.1883 23.9694 40.9603C24.1546 41.7843 24.2768 42.6223 24.1184 43.4715C23.1571 44.0001 22.2369 44.6007 21.3657 45.2681C20.0546 46.2741 19.663 47.6633 19.9769 49.2633C20.0035 49.3551 20.0056 49.4524 19.983 49.5454C19.9604 49.6384 19.9139 49.7238 19.8482 49.7932C19.1445 50.6042 18.5223 51.4719 18.0964 52.4686C17.3853 54.1391 17.5519 55.6879 18.7019 57.1087C19.0556 57.5468 19.4482 57.9532 19.813 58.382C20.2259 58.8673 20.2324 58.988 19.9408 59.5383C19.6972 60.0023 19.6722 60.4728 19.9741 60.9006C20.75 61.9994 21.2565 62.1238 22.2629 61.5902C22.7189 61.3395 23.1525 61.0501 23.5592 60.7252C23.9793 60.4037 24.3704 60.0457 24.7277 59.6552C25.0453 60.1591 25.3647 60.6204 25.811 60.9712C26.8119 61.7572 27.923 61.7952 29.0896 61.4519C29.1572 61.4324 29.223 61.4083 29.2896 61.3851C30.134 61.0927 30.1489 61.089 30.3294 61.9669C30.6072 63.3116 30.8044 64.6647 30.4498 66.0289C30.0896 67.4107 29.172 68.2301 27.7591 68.4027C27.3804 68.4491 27.1952 68.5596 27.1165 68.9818C26.9897 69.6231 26.6785 70.2131 26.2212 70.6792C26.0249 70.888 25.8888 70.8843 25.6656 70.7256C23.7391 69.3729 21.9627 67.8174 20.3667 66.0855C15.2144 60.5218 12.1892 53.3124 11.8252 45.7303C11.632 41.9211 12.1062 38.1074 13.2261 34.4623C13.2622 34.3425 13.3187 34.2293 13.3705 34.1133C14.0326 33.7421 14.69 33.3653 15.4075 33.1148C16.0946 32.8744 16.3334 32.5273 16.3445 31.7905C16.3584 30.8151 15.9659 29.9901 15.3983 29.2291C15.8677 28.1536 16.5001 27.1708 17.1436 26.1982C18.9667 23.4425 21.1982 20.9813 23.761 18.8994C23.8259 18.8465 23.8999 18.8066 23.9694 18.7592C24.6802 18.9836 25.4213 19.0966 26.1665 19.0942C28.7665 19.0469 31.1062 18.1838 33.2858 16.802C34.2052 16.2192 34.8682 15.2986 35.9265 14.8912C36.3163 14.7409 36.3895 14.2648 36.2256 13.8138C36.0934 13.4415 35.8817 13.1026 35.6052 12.8208C37.2635 12.3076 38.9681 12.0246 40.6875 11.8427C44.9925 11.3715 49.3482 11.7774 53.4928 13.0361C59.4898 14.8578 64.5166 18.1876 68.635 22.9103C68.696 22.9871 68.7525 23.0674 68.8044 23.1506C67.9934 24.357 66.9823 24.5733 65.7378 23.8002C64.8703 23.2601 64.2823 22.4741 63.9166 21.5377C63.7786 21.186 63.5768 21.0125 63.2398 20.9401C62.9452 20.3628 62.5572 19.8385 62.0916 19.3884C60.5565 17.8989 58.3352 17.8108 56.8029 19.1889C56.2279 19.7049 55.8835 20.3879 55.5288 21.0598C54.6703 20.5804 53.7637 20.1928 52.8243 19.9035C50.4993 19.2195 48.1568 19.1332 45.8031 19.7763Z" fill="#01A4E2"/>
<path fill-rule="evenodd" clip-rule="evenodd" d="M63.2438 20.9392C63.5808 21.0116 63.7827 21.1851 63.9206 21.5369C64.291 22.4732 64.8743 23.2593 65.7419 23.7994C66.9863 24.5733 67.9974 24.3562 68.8085 23.1498C69.9825 24.449 70.9733 25.8865 71.8769 27.3825C74.0797 31.0305 75.5333 34.9644 76.1204 39.1832C77.4166 48.4801 75.2185 56.8703 69.4538 64.2935C69.3418 64.4374 69.2075 64.5627 69.0835 64.6972C69.0057 64.1989 69.0835 63.7089 69.1918 63.23C69.9936 59.8149 70.2927 56.3627 69.9149 52.8696C69.5825 49.8006 68.7863 46.8709 67.3094 44.1462C66.2909 42.2744 65.0373 40.5928 63.4114 39.2036C63.4114 37.8542 63.4114 36.5049 63.2262 35.1639C63.1184 34.2716 62.9347 33.3902 62.6771 32.5293C62.6234 32.3594 62.5846 32.1451 62.3151 32.2638C62.3001 31.743 62.2485 31.2239 62.1605 30.7103C61.9225 29.194 61.4003 27.7741 60.7207 26.4062C60.8077 26.3644 60.892 26.3134 60.9809 26.2818C63.1058 25.416 64.1271 23.005 63.2438 20.9392Z" fill="#A5CD39"/>
<path fill-rule="evenodd" clip-rule="evenodd" d="M63.4061 39.2053C65.032 40.5974 66.2903 42.2761 67.3042 44.148C68.781 46.8717 69.5773 49.8015 69.9097 52.8714C70.2875 56.3691 69.9884 59.8167 69.1865 63.2318C69.0745 63.7106 69.0014 64.2006 69.0782 64.699C68.219 65.8544 67.1996 66.8622 66.157 67.845C64.8039 69.1182 63.3398 70.2673 61.7821 71.2786C61.6275 71.3798 61.4997 71.557 61.2738 71.5218L61.2821 71.5273C61.4793 70.9798 61.8312 70.5177 62.1154 70.0184C62.3173 69.6639 62.5256 69.3131 62.7265 68.9577C63.1895 68.1429 63.1811 67.3113 62.7728 66.4882C62.4728 65.8831 62.1126 65.3087 61.8089 64.7055C60.9367 62.9794 60.7988 61.1215 60.8451 59.2301C60.8728 58.0775 61.1117 56.9314 60.9432 55.7723C60.8256 54.964 60.7108 54.1585 60.3516 53.4124C61.4359 50.7256 62.2408 47.9339 62.7534 45.0815C63.1056 43.1402 63.3237 41.1768 63.4061 39.2053V39.2053Z" fill="#01A4E2"/>
<path fill-rule="evenodd" clip-rule="evenodd" d="M35.6105 12.8208C35.887 13.1025 36.0987 13.4414 36.2308 13.8138C36.3928 14.2648 36.3234 14.7418 35.9317 14.8912C34.8734 15.2986 34.2105 16.2192 33.2911 16.802C31.1115 18.1838 28.7717 19.0469 26.1718 19.0942C25.4264 19.0954 24.6852 18.9811 23.9746 18.7555C25.4903 17.4683 27.1588 16.4113 28.9023 15.4675C30.9156 14.3824 33.0411 13.5208 35.241 12.8978C35.3623 12.8635 35.4873 12.8459 35.6105 12.8208Z" fill="#A5CD39"/>
<path fill-rule="evenodd" clip-rule="evenodd" d="M44.608 68.0853C44.4228 68.2422 44.4756 68.3758 44.4737 68.489C44.4571 69.4755 44.4413 70.462 44.4395 71.4485C44.4395 71.6953 44.4071 71.8364 44.108 71.8484C43.845 71.8596 43.7163 71.8429 43.6719 71.5301C43.5654 70.7877 43.209 70.1186 42.9127 69.4337C42.6562 68.8352 42.4349 68.2273 42.5627 67.5536C42.6905 66.8798 43.0719 66.3416 43.6025 65.9119C43.9191 65.6558 44.2339 65.2075 44.5552 65.202C44.8765 65.1964 45.1848 65.6474 45.4987 65.9008C46.5246 66.7276 46.8338 67.767 46.3894 68.9836C46.0561 69.8922 45.5561 70.7385 45.3969 71.7139C45.3487 71.9988 45.0765 71.8067 44.9089 71.8252C44.683 71.8549 44.6663 71.6935 44.6756 71.5246C44.7293 70.4963 44.6478 69.4699 44.6385 68.4426C44.6376 68.3461 44.6219 68.2505 44.608 68.0853Z" fill="#5E3B97"/>
<path fill-rule="evenodd" clip-rule="evenodd" d="M39.1328 70.3339C39.1375 69.5506 39.58 68.8889 40.2782 68.6226C41.0096 68.3442 41.843 68.5651 42.4179 69.2063C43.0281 69.8866 43.354 70.6995 43.5087 71.5923C43.542 71.7844 43.5012 71.8772 43.2975 71.9115C42.9272 71.9746 42.6152 72.0201 42.4642 71.5227C42.4115 71.3361 42.3001 71.1716 42.1466 71.0536C41.9932 70.9356 41.8058 70.8703 41.6124 70.8675C41.5021 70.8648 41.3925 70.8855 41.2907 70.9283C41.189 70.9712 41.0975 71.0351 41.0221 71.1159C40.9468 71.1967 40.8895 71.2926 40.8538 71.3973C40.8181 71.502 40.805 71.613 40.8152 71.7231C40.8356 72.111 40.6772 72.0999 40.3995 72.047C39.6523 71.9059 39.1291 71.2053 39.1328 70.3339ZM40.7458 69.6564C40.5365 69.8123 40.3689 69.6805 40.155 69.545C40.3485 69.8235 40.1476 69.9413 39.9199 70.1019C40.2282 70.1306 40.3467 70.2615 40.3735 70.5306C40.4254 70.1845 40.68 70.2522 41.0217 70.2086C40.5819 70.0833 40.7763 69.8374 40.7439 69.6518L40.7782 69.6388L40.7458 69.6564Z" fill="#5E3B97"/>
<path fill-rule="evenodd" clip-rule="evenodd" d="M50.0101 70.322C49.9972 71.25 49.3555 72.0147 48.5898 72.0713C48.4259 72.0834 48.312 72.1066 48.312 71.844C48.3287 71.2992 48.0898 70.9883 47.6639 70.8881C47.313 70.8046 46.9444 71.0041 46.6963 71.4143C46.6587 71.4741 46.6247 71.5361 46.5944 71.5999C46.5103 71.7565 46.3683 71.8739 46.1989 71.9269C46.0295 71.98 45.8462 71.9645 45.688 71.8839C45.6506 71.8647 45.6215 71.8326 45.606 71.7935C45.5905 71.7544 45.5897 71.711 45.6037 71.6714C45.7796 70.5689 46.1676 69.5666 47.0907 68.8762C47.687 68.4298 48.362 68.3592 49.0351 68.7203C49.7009 69.071 49.9796 69.6603 50.0101 70.322ZM48.3546 69.665L48.3222 69.6464L48.3602 69.6585C48.4015 69.7578 48.4117 69.8674 48.3893 69.9727C48.367 70.0779 48.3132 70.1739 48.2352 70.2478C48.5009 70.155 48.6342 70.2933 48.7731 70.5698C48.787 70.2478 48.9074 70.1169 49.1639 70.0817C48.9259 69.9657 48.8777 69.7856 48.9166 69.5443C48.7472 69.755 48.5592 69.7615 48.3546 69.665V69.665Z" fill="#5E3B97"/>
<path fill-rule="evenodd" clip-rule="evenodd" d="M41.8541 8.14819C41.3763 8.58529 41.2912 9.06415 41.2597 9.56342C41.2162 10.2335 40.9051 10.5842 40.2495 10.6705C39.2912 10.8023 38.3348 10.9434 37.2422 11.1754C37.8653 10.6464 37.6922 10.0089 37.782 9.43536C37.8746 8.82101 38.0885 8.57787 38.6986 8.48228C39.743 8.30871 40.7966 8.19715 41.8541 8.14819V8.14819Z" fill="#5E3B97"/>
<path fill-rule="evenodd" clip-rule="evenodd" d="M46.4989 8.14719C46.0054 8.50447 45.8841 9.03716 45.7582 9.5717C45.6119 10.1953 45.2147 10.4821 44.5888 10.4607C43.606 10.434 42.6224 10.4613 41.6426 10.5424C42.2731 10.0784 42.1981 9.42321 42.3648 8.8497C42.512 8.33186 42.7722 8.13419 43.3148 8.08501C44.3638 7.99035 45.4129 8.12399 46.4989 8.14719Z" fill="#5E3B97"/>
<path fill-rule="evenodd" clip-rule="evenodd" d="M11.9473 60.0422C12.5519 60.3132 13.0343 60.1944 13.5213 60.0348C14.1546 59.8269 14.5815 60.0153 14.9203 60.5916C15.3342 61.2941 15.7685 61.9837 16.1916 62.6825C16.262 62.7975 16.3768 62.8903 16.3842 63.0945C15.8851 62.8644 15.4435 63.0305 14.9953 63.2281C14.8289 63.3044 14.6508 63.3518 14.4685 63.3683C14.0787 63.3961 13.7398 63.3339 13.5093 62.9302C12.9908 62.0152 12.4528 61.1113 11.9473 60.0422Z" fill="#5E3B97"/>
<path fill-rule="evenodd" clip-rule="evenodd" d="M11.3085 51.032C10.7955 50.4751 10.2066 50.6023 9.66127 50.5364C8.98534 50.4547 8.74831 50.2153 8.64275 49.5378C8.49275 48.5402 8.38627 47.5389 8.30664 46.4429C8.76405 46.9524 9.30849 47.022 9.87238 47.0637C10.4103 47.1046 10.777 47.5277 10.8492 48.0734C10.9557 48.8808 11.0955 49.6835 11.2196 50.4863C11.2455 50.6255 11.2668 50.7619 11.3085 51.032Z" fill="#5E3B97"/>
<path fill-rule="evenodd" clip-rule="evenodd" d="M46.1445 10.4182C46.5797 10.1453 46.7464 9.71007 46.8491 9.23121C46.8865 9.06666 46.9516 8.90973 47.0417 8.7672C47.2519 8.43404 47.5047 8.18626 47.963 8.26236C48.5306 8.35516 49.1056 8.39785 49.675 8.48044C50.1565 8.55005 50.6352 8.6447 51.2278 8.74864C50.5796 9.09387 50.4074 9.65161 50.1963 10.1964C50.114 10.4054 49.9629 10.58 49.7681 10.6914C49.5733 10.8028 49.3465 10.8442 49.125 10.8088C48.2352 10.6808 47.3436 10.5787 46.4464 10.5304C46.3529 10.5202 46.2492 10.5406 46.1445 10.4182Z" fill="#5E3B97"/>
<path fill-rule="evenodd" clip-rule="evenodd" d="M75.9786 33.086C76.5341 33.3802 77.1221 33.2317 77.6999 33.2373C78.3091 33.2438 78.5499 33.4229 78.7239 34.0075C78.9906 34.8956 79.2073 35.7967 79.4045 36.6988C79.4276 36.8046 79.4749 36.9104 79.4045 37.0431C78.9749 36.6589 78.4582 36.6719 77.9351 36.7034C77.3193 36.7387 76.9082 36.4167 76.7471 35.8274C76.5406 35.0692 76.3091 34.3184 76.0989 33.5621C76.0545 33.4034 75.948 33.2558 75.9869 33.0776L75.9786 33.086Z" fill="#5E3B97"/>
<path fill-rule="evenodd" clip-rule="evenodd" d="M77.7742 45.9558C78.0955 46.4811 78.5038 46.6639 78.9705 46.7623C79.1476 46.8059 79.3179 46.8733 79.477 46.9627C79.8964 47.1799 80.0418 47.4935 79.989 47.9566C79.8696 49.0034 79.7214 50.0456 79.4974 51.1592C79.1835 50.5486 78.6474 50.3574 78.1085 50.1523C77.6001 49.9583 77.3853 49.498 77.4687 48.9384C77.539 48.4661 77.5955 47.9919 77.6437 47.5167C77.6918 47.0416 77.7242 46.5655 77.7742 45.9558Z" fill="#5E3B97"/>
<path fill-rule="evenodd" clip-rule="evenodd" d="M8.92048 37.0569C9.17881 37.6304 9.63807 37.8355 10.1186 38.0109C10.7871 38.254 11.0205 38.6178 10.9316 39.3101C10.8112 40.2558 10.6992 41.2023 10.6483 42.2946C10.3057 41.7016 9.80937 41.5801 9.31307 41.4251C8.69548 41.2358 8.25011 40.9063 8.44455 40.0071C8.62048 39.1821 8.70103 38.3366 8.82603 37.5014C8.84085 37.3761 8.87603 37.2555 8.92048 37.0569Z" fill="#5E3B97"/>
<path fill-rule="evenodd" clip-rule="evenodd" d="M14.3019 24.0452C14.3223 24.6948 14.6547 25.0493 15.025 25.3861C15.5889 25.8984 15.6556 26.3207 15.2787 26.9638C14.8047 27.7749 14.3528 28.6008 13.9056 29.5492C13.813 28.8996 13.3899 28.5962 12.9973 28.25C12.3343 27.6616 12.3056 27.3907 12.7352 26.613C13.2028 25.7676 13.6945 24.937 14.3019 24.0452Z" fill="#5E3B97"/>
<path fill-rule="evenodd" clip-rule="evenodd" d="M17.1465 67.8609C17.7946 67.9815 18.2465 67.7449 18.6863 67.4544C19.2159 67.1045 19.7112 67.1584 20.1464 67.6047C20.8195 68.2943 21.5242 68.9494 22.2399 69.6371C21.6973 69.5703 21.3195 69.8422 20.9436 70.1466C20.7808 70.2808 20.5942 70.3831 20.3936 70.4482C20.101 70.541 19.789 70.6013 19.5261 70.3489C18.6904 69.5615 17.8961 68.731 17.1465 67.8609V67.8609Z" fill="#5E3B97"/>
<path fill-rule="evenodd" clip-rule="evenodd" d="M80.0861 41.7826C79.6509 41.2833 79.1425 41.2212 78.6249 41.1738C77.9962 41.1163 77.6509 40.7841 77.5648 40.1614C77.4324 39.2027 77.2916 38.245 77.0703 37.1787C77.5203 37.6576 78.0166 37.6771 78.5249 37.6659C78.6791 37.667 78.8325 37.6895 78.9805 37.7327C79.3851 37.8395 79.6694 38.039 79.736 38.5132C79.8814 39.5647 80.0166 40.6161 80.0861 41.7826Z" fill="#5E3B97"/>
<path fill-rule="evenodd" clip-rule="evenodd" d="M16.0761 25.6155C16.0622 25.0337 15.6788 24.6987 15.3353 24.3247C14.7686 23.6992 14.7659 23.3438 15.2677 22.6635C15.8427 21.8858 16.4409 21.1276 17.1622 20.324C17.1112 20.9894 17.4233 21.3921 17.7594 21.7902C18.1955 22.3072 18.1964 22.7684 17.7835 23.2955C17.2029 24.0453 16.6455 24.8156 16.0761 25.6155Z" fill="#5E3B97"/>
<path fill-rule="evenodd" clip-rule="evenodd" d="M74.3042 29.0046C74.7165 29.15 75.1656 29.152 75.5792 29.0102C75.7807 28.9486 75.9908 28.9204 76.2014 28.9266C76.5995 28.9378 76.9134 29.0686 77.0865 29.4936C77.4319 30.3381 77.7902 31.178 78.0912 32.0401C78.1356 32.1682 78.2189 32.2916 78.168 32.4856C77.6615 32.1506 77.1273 32.2666 76.594 32.3584C76.3538 32.4044 76.1051 32.3646 75.8911 32.246C75.6771 32.1273 75.5114 31.9372 75.4227 31.7088C75.0412 30.8189 74.6486 29.9345 74.2598 29.0473L74.3042 29.0046Z" fill="#5E3B97"/>
<path fill-rule="evenodd" clip-rule="evenodd" d="M74.5088 58.6604C74.6097 59.2302 74.8431 59.5559 75.2181 59.8047C75.416 59.9395 75.5884 60.1085 75.7273 60.3039C75.9551 60.6232 76.0532 60.9535 75.8199 61.3526C75.2949 62.2658 74.7671 63.1762 74.1208 64.1645C74.0643 63.3905 73.5421 63.0388 73.1356 62.5952C72.8264 62.2583 72.8227 61.7702 73.0653 61.36C73.5662 60.5164 74.0319 59.6571 74.5088 58.6604Z" fill="#5E3B97"/>
<path fill-rule="evenodd" clip-rule="evenodd" d="M67.9387 71.2202C68.0378 70.553 67.7536 70.0917 67.4647 69.6277C67.1758 69.1637 67.2276 68.6561 67.6239 68.2682C68.3239 67.5824 68.9887 66.8632 69.735 66.0205C69.6424 66.6636 69.8786 67.058 70.1906 67.4302C70.357 67.6229 70.4737 67.8536 70.5304 68.1021C70.5813 68.3387 70.623 68.5967 70.448 68.7897C69.6579 69.6466 68.8201 70.458 67.9387 71.2202Z" fill="#5E3B97"/>
<path fill-rule="evenodd" clip-rule="evenodd" d="M58.8457 13.7647C59.3772 13.6719 59.6744 13.31 59.9568 12.9211C60.0729 12.7626 60.2143 12.6243 60.3753 12.5119C60.6901 12.2947 61.0169 12.2205 61.3882 12.4348C62.3141 12.9657 63.2354 13.4918 64.2021 14.1535C63.4938 14.1953 63.1243 14.624 62.7354 15.0361C62.3651 15.4314 61.8734 15.4815 61.4086 15.204C60.5818 14.7066 59.7281 14.2538 58.8457 13.7647Z" fill="#5E3B97"/>
<path fill-rule="evenodd" clip-rule="evenodd" d="M74.0476 24.0175C73.4411 23.9358 72.905 24.1437 72.3615 24.3822C71.8921 24.5882 71.4522 24.4286 71.1495 24.0221C70.5578 23.224 69.9254 22.4584 69.2051 21.6334C69.7764 21.793 70.1828 21.6473 70.5773 21.3958C70.7678 21.2768 70.9764 21.1897 71.1949 21.1378C71.5828 21.045 71.9272 21.0961 72.1976 21.4589C72.8263 22.3044 73.5041 23.1127 74.042 24.0231L74.0476 24.0175Z" fill="#5E3B97"/>
<path fill-rule="evenodd" clip-rule="evenodd" d="M20.4362 17.0852C20.3631 17.6504 20.6214 18.0847 20.8918 18.5162C21.2538 19.086 21.2038 19.5426 20.726 20.0113C20.0464 20.6794 19.402 21.3819 18.6742 22.2144C18.777 21.5703 18.5334 21.1806 18.2205 20.8075C18.0876 20.6421 17.9868 20.4532 17.9233 20.2507C17.8307 19.9723 17.7575 19.6688 17.9844 19.4155C18.7424 18.5784 19.562 17.7994 20.4362 17.0852V17.0852Z" fill="#5E3B97"/>
<path fill-rule="evenodd" clip-rule="evenodd" d="M33.151 12.2529C33.3584 11.8418 33.4538 11.4177 33.3362 10.9536C33.2953 10.7599 33.2928 10.56 33.3288 10.3653C33.3908 9.95788 33.5529 9.64885 34.0158 9.52171C34.9621 9.26279 35.9102 9.01687 36.8676 8.80528C36.9689 8.79191 37.071 8.78478 37.1731 8.78394C36.7528 9.24795 36.7676 9.76857 36.7824 10.292C36.8009 10.9852 36.5315 11.3128 35.8778 11.4919C35.0815 11.7109 34.2927 11.9559 33.5001 12.1916C33.3843 12.226 33.276 12.3169 33.1445 12.2445L33.151 12.2529Z" fill="#5E3B97"/>
<path fill-rule="evenodd" clip-rule="evenodd" d="M76.154 54.7322C76.3392 55.1962 76.68 55.4644 77.0901 55.6769C77.265 55.7687 77.4234 55.8891 77.5587 56.0333C77.83 56.321 77.9744 56.6346 77.8022 57.0541C77.4003 58.0406 77.0031 59.028 76.4716 60.0692C76.3272 59.4011 75.8883 59.0846 75.4448 58.77C74.9605 58.4229 74.8364 57.9617 75.0744 57.4179C75.4624 56.5446 75.7772 55.6435 76.154 54.7322Z" fill="#5E3B97"/>
<path fill-rule="evenodd" clip-rule="evenodd" d="M80.0955 46.4939C79.7492 45.9371 79.2511 45.8072 78.7409 45.6976C78.1214 45.5649 77.8224 45.1891 77.8242 44.5636C77.8242 43.6077 77.8242 42.6528 77.8242 41.6765C78.1566 42.1405 78.7187 42.1303 79.2446 42.238C79.8103 42.353 80.24 42.6509 80.2029 43.4444C80.1576 44.4235 80.2076 45.41 80.0955 46.4939Z" fill="#5E3B97"/>
<path fill-rule="evenodd" clip-rule="evenodd" d="M25.7232 72.2774C25.1881 72.3163 24.8473 72.6439 24.5122 72.9919C24.383 73.1211 24.2346 73.2294 24.0724 73.313C23.7187 73.4987 23.3835 73.546 23.0224 73.2657C22.1844 72.6161 21.3382 71.973 20.4688 71.199C21.1484 71.2556 21.5585 70.9206 21.9659 70.5763C22.4483 70.168 22.9344 70.1671 23.4326 70.5652C24.1668 71.1517 24.9353 71.6918 25.7232 72.2774Z" fill="#5E3B97"/>
<path fill-rule="evenodd" clip-rule="evenodd" d="M72.3506 62.519C72.3654 63.1195 72.6154 63.4907 72.9793 63.809C73.1151 63.9314 73.2296 64.0757 73.3182 64.2359C73.5283 64.6071 73.6043 64.9625 73.2978 65.3579C72.6552 66.1931 72.0191 67.0283 71.2682 67.8746C71.2793 67.2325 70.9524 66.8121 70.6043 66.3898C70.2154 65.9258 70.2256 65.42 70.6043 64.9467C71.1959 64.2025 71.7469 63.4239 72.3506 62.519Z" fill="#5E3B97"/>
<path fill-rule="evenodd" clip-rule="evenodd" d="M10.1285 32.4956C10.3516 33.1452 10.8164 33.4032 11.2905 33.6566C11.8405 33.9489 12.0313 34.3786 11.8544 34.9771C11.584 35.9052 11.3914 36.8517 11.159 37.8939C10.9238 37.3306 10.522 37.0995 10.0581 36.939C9.89944 36.8808 9.75146 36.7968 9.62015 36.6903C9.28404 36.423 9.09052 36.1223 9.21644 35.6388C9.48126 34.6189 9.76366 33.6037 10.1285 32.4956Z" fill="#5E3B97"/>
<path fill-rule="evenodd" clip-rule="evenodd" d="M55.7771 9.9932C55.1512 10.1844 54.9003 10.6428 54.6586 11.1003C54.3401 11.7072 53.9373 11.8734 53.2864 11.7035C52.3688 11.465 51.4457 11.247 50.4355 10.9973C51.017 10.7635 51.1865 10.2697 51.4105 9.80295C51.7633 9.06796 52.0976 8.92133 52.892 9.12735C53.8346 9.37328 54.7818 9.61735 55.7771 9.9932Z" fill="#5E3B97"/>
<path fill-rule="evenodd" clip-rule="evenodd" d="M11.9303 28.1721C12.085 28.8421 12.547 29.1586 13.0044 29.4881C13.4396 29.8027 13.5442 30.2806 13.3424 30.7873C12.9822 31.694 12.6248 32.6081 12.2415 33.5936C12.0952 33.0544 11.747 32.764 11.3155 32.5477C11.1524 32.465 11.0045 32.3548 10.8785 32.222C10.5803 31.913 10.4303 31.5826 10.6239 31.1251C11.0285 30.159 11.4128 29.1827 11.9303 28.1721Z" fill="#5E3B97"/>
<path fill-rule="evenodd" clip-rule="evenodd" d="M25.2954 16.2173C25.4649 15.7264 25.3232 15.3097 25.1306 14.8921C25.0594 14.7241 25.0075 14.5485 24.976 14.3687C24.8834 13.9371 25.0528 13.5743 25.4343 13.3423C26.3325 12.7975 27.2454 12.2797 28.3047 11.7646C27.9593 12.4235 28.1964 12.9711 28.3408 13.5279C28.4704 14.0318 28.2639 14.4559 27.8056 14.712C26.9621 15.1928 26.1454 15.7013 25.2954 16.2173Z" fill="#5E3B97"/>
<path fill-rule="evenodd" clip-rule="evenodd" d="M71.9922 25.2212C72.5922 25.314 73.1348 25.1052 73.6912 24.9224C74.281 24.7284 74.6421 24.889 74.956 25.4152C75.4791 26.2921 75.9838 27.1784 76.4652 28.1899C75.8569 27.8874 75.3412 28.0442 74.8199 28.2113C74.5778 28.2987 74.3121 28.2942 74.0732 28.1984C73.8343 28.1026 73.6387 27.9223 73.5236 27.6916C73.0533 26.8443 72.5375 26.0212 72.0033 25.2166L71.9922 25.2212Z" fill="#5E3B97"/>
<path fill-rule="evenodd" clip-rule="evenodd" d="M10.2596 55.7705C10.7226 56.0127 11.1994 55.9895 11.6902 55.8884C12.3226 55.7584 12.7837 56.0062 13.0161 56.5964C13.3244 57.3806 13.6698 58.1481 14.0346 58.9072C14.0855 59.0139 14.1966 59.1123 14.1272 59.2552L14.1328 59.2478C13.5976 58.9694 13.0726 59.1773 12.5429 59.2738C11.8402 59.4019 11.5328 59.2376 11.2624 58.5982C10.8744 57.685 10.4716 56.7765 10.2031 55.8141C10.2236 55.8019 10.2426 55.7872 10.2596 55.7705Z" fill="#5E3B97"/>
<path fill-rule="evenodd" clip-rule="evenodd" d="M64.194 74.0859C64.3958 73.4465 64.194 72.9834 63.9782 72.5222C63.694 71.9023 63.8032 71.4819 64.3486 71.0708C65.0995 70.5038 65.8301 69.9052 66.6403 69.1897C66.4273 69.9395 66.8606 70.4073 67.081 70.9474C67.3125 71.5135 67.2125 71.8559 66.7384 72.2327C65.923 72.8944 65.0737 73.513 64.194 74.0859V74.0859Z" fill="#5E3B97"/>
<path fill-rule="evenodd" clip-rule="evenodd" d="M71.2822 20.4008C70.6517 20.1985 70.2387 20.4537 69.8304 20.7061C69.1137 21.1488 68.7286 21.1126 68.1378 20.5121C67.5082 19.8737 66.8629 19.2519 66.0879 18.5782C66.7203 18.632 67.1064 18.3675 67.4842 18.0705C67.6754 17.9025 67.9077 17.7885 68.1573 17.7402C68.4777 17.6937 68.7415 17.7337 68.9906 17.9879C69.748 18.7433 70.5137 19.4867 71.2822 20.4008Z" fill="#5E3B97"/>
<path fill-rule="evenodd" clip-rule="evenodd" d="M60.1253 11.7899C59.4956 11.9087 59.1799 12.3133 58.8799 12.7411C58.4781 13.3137 58.0373 13.4371 57.3985 13.1596C56.5272 12.7791 55.6393 12.4525 54.6504 12.1156C55.2226 11.9551 55.5143 11.5969 55.7383 11.1542C55.8323 10.9803 55.9547 10.8235 56.1004 10.6902C56.3929 10.4118 56.7124 10.2939 57.1318 10.4656C58.1207 10.8674 59.1021 11.2795 60.1253 11.7899Z" fill="#5E3B97"/>
<path fill-rule="evenodd" clip-rule="evenodd" d="M62.5742 15.9215C63.1094 15.8825 63.4603 15.7192 63.7446 15.3842C63.9031 15.2043 64.0909 15.0527 64.3001 14.9359C64.6612 14.7253 65.0195 14.6872 65.3908 14.9731C66.2241 15.6152 67.0658 16.2426 67.9028 17.0147C67.2306 16.9961 66.8112 17.3516 66.3815 17.6996C65.9519 18.0476 65.4556 18.0439 65.0158 17.6996C64.2575 17.0917 63.4631 16.5386 62.5742 15.9215Z" fill="#5E3B97"/>
<path fill-rule="evenodd" clip-rule="evenodd" d="M14.2949 64.1228C14.9431 64.3576 15.4236 64.1135 15.9078 63.8982C16.4763 63.6449 16.9263 63.7637 17.2967 64.2592C17.8661 65.0221 18.4717 65.757 19.1855 66.5728C18.5633 66.4326 18.1485 66.6656 17.7134 66.8957C16.9115 67.3133 16.5939 67.228 16.031 66.5245C15.4118 65.7542 14.8323 64.9526 14.2949 64.1228V64.1228Z" fill="#5E3B97"/>
<path fill-rule="evenodd" clip-rule="evenodd" d="M8.31573 41.7639C8.6574 42.2985 9.16573 42.4135 9.66943 42.5388C10.3491 42.7059 10.5954 43.0205 10.5954 43.7221C10.587 44.6649 10.6055 45.6069 10.6574 46.6082C10.2444 46.0133 9.58888 46.121 9.03054 45.9586C8.43702 45.7851 8.22591 45.5224 8.23054 44.9109C8.23919 43.9971 8.25122 43.0823 8.26665 42.1667C8.2762 42.0317 8.29258 41.8973 8.31573 41.7639Z" fill="#5E3B97"/>
<path fill-rule="evenodd" clip-rule="evenodd" d="M24.2105 14.1406C24.0003 14.7847 24.2336 15.2774 24.4586 15.7758C24.6836 16.2741 24.5586 16.7873 24.129 17.1056C23.354 17.681 22.6198 18.3065 21.7781 19.0192C21.9457 18.3696 21.6549 17.9576 21.4309 17.5121C21.0522 16.7567 21.1401 16.4152 21.8012 15.8909C22.5559 15.2904 23.3281 14.7123 24.2105 14.1406Z" fill="#5E3B97"/>
<path fill-rule="evenodd" clip-rule="evenodd" d="M32.6285 9.98486C32.2896 10.5547 32.3507 11.0521 32.4433 11.5514C32.5591 12.1713 32.3183 12.6102 31.7341 12.8432C30.847 13.1958 29.9804 13.5921 28.9961 14.0876C29.3859 13.4436 29.1526 12.9091 29.0516 12.3652C28.9304 11.7156 29.1146 11.3676 29.7211 11.1022C30.6692 10.6769 31.6398 10.3039 32.6285 9.98486V9.98486Z" fill="#5E3B97"/>
<path fill-rule="evenodd" clip-rule="evenodd" d="M78.276 55.7018C78.0306 55.0717 77.5677 54.8156 77.0945 54.565C76.5732 54.2866 76.4056 53.8449 76.5491 53.2723C76.764 52.4148 76.9584 51.5517 77.163 50.6915C77.1806 50.6144 77.2038 50.5383 77.2556 50.3518C77.5038 50.9374 77.939 51.1415 78.4028 51.3179C78.5607 51.3779 78.707 51.4648 78.8353 51.5749C79.1316 51.8339 79.3186 52.1215 79.1991 52.5651C78.9269 53.5813 78.6667 54.6003 78.276 55.7018Z" fill="#5E3B97"/>
<path fill-rule="evenodd" clip-rule="evenodd" d="M8.96484 51.1323C9.44633 51.5815 9.9454 51.549 10.438 51.5388C11.1574 51.5249 11.4889 51.7662 11.6667 52.4585C11.8658 53.2352 12.088 54.0045 12.3482 54.7637C12.3926 54.8908 12.4195 55.0244 12.4852 55.2722C11.9898 54.8871 11.5278 54.901 11.05 54.9938C10.8835 55.0244 10.7128 55.0244 10.5463 54.9938C10.1435 54.9224 9.82225 54.7692 9.6991 54.3034C9.45744 53.393 9.21207 52.4835 9.01114 51.5629C8.98799 51.4618 8.98707 51.3504 8.96484 51.1323Z" fill="#5E3B97"/>
<path fill-rule="evenodd" clip-rule="evenodd" d="M15.4028 29.2292C15.9704 29.9902 16.363 30.8152 16.3491 31.7906C16.3389 32.5274 16.0991 32.8745 15.412 33.1149C14.6907 33.3654 14.0333 33.7422 13.375 34.1134C13.7519 32.7112 14.3315 31.3878 14.9491 30.0812C15.088 29.7907 15.2509 29.5132 15.4028 29.2292Z" fill="#A5CD39"/>
<path fill-rule="evenodd" clip-rule="evenodd" d="M44.618 74.3774C44.6365 74.0498 44.6698 73.7222 44.6698 73.3955C44.6698 73.1561 44.7698 73.0754 44.9967 73.0698C45.2235 73.0642 45.4189 73.0104 45.4661 73.3231C45.5226 73.687 45.6602 74.0334 45.8689 74.3365C46.0319 74.576 46.0272 74.7671 45.8439 74.9769C44.6985 76.2891 44.4244 76.3281 43.2605 74.9537C43.0902 74.7523 43.0865 74.575 43.242 74.3514C43.4445 74.0615 43.5796 73.7298 43.6374 73.3807C43.6846 73.0902 43.8355 73.0503 44.1004 73.0614C44.3976 73.0744 44.4522 73.2211 44.4504 73.4586C44.4504 73.764 44.4504 74.0683 44.4504 74.3737L44.618 74.3774Z" fill="#5E3B97"/>
<path fill-rule="evenodd" clip-rule="evenodd" d="M32.4692 61.0231C31.2183 61.0185 30.1934 60.0125 30.1934 58.7885C30.1934 57.5273 31.2054 56.5371 32.4924 56.539C32.7883 56.5357 33.0818 56.5917 33.3558 56.7037C33.6298 56.8157 33.8787 56.9815 34.0879 57.1912C34.2971 57.4009 34.4625 57.6503 34.5742 57.925C34.6859 58.1996 34.7418 58.4938 34.7386 58.7903C34.7325 59.3879 34.4901 59.9586 34.0647 60.3772C33.6392 60.7958 33.0654 61.0281 32.4692 61.0231V61.0231ZM32.4859 60.6176C32.7282 60.6202 32.9685 60.5745 33.193 60.4831C33.4175 60.3917 33.6216 60.2565 33.7935 60.0854C33.9654 59.9142 34.1016 59.7105 34.1943 59.4861C34.2869 59.2617 34.3341 59.0211 34.3331 58.7783C34.3331 57.7667 33.4951 56.8897 32.5183 56.874C31.4915 56.8582 30.6119 57.7277 30.5998 58.769C30.5878 59.8102 31.4211 60.6157 32.4859 60.6176Z" fill="#18181D"/>
<path fill-rule="evenodd" clip-rule="evenodd" d="M44.5557 72.0312C45.1888 72.0138 45.8215 72.0762 46.439 72.2168C46.5788 72.2511 46.7872 72.2715 46.7816 72.4655C46.777 72.6288 46.5835 72.6511 46.4548 72.6826C45.2135 72.949 43.9302 72.9509 42.6882 72.6882C42.5502 72.6594 42.3336 72.6353 42.3484 72.4385C42.3632 72.2418 42.5715 72.2446 42.7141 72.2103C43.3185 72.076 43.9369 72.0159 44.5557 72.0312V72.0312ZM46.2853 72.4673C45.4409 72.2195 43.34 72.2418 42.7669 72.5017C43.9807 72.6446 45.1298 72.6622 46.2807 72.4673H46.2853Z" fill="#5E3B97"/>
<path fill-rule="evenodd" clip-rule="evenodd" d="M41.753 73.7574C42.2159 73.7824 42.5067 73.581 42.6557 73.1829C42.8289 72.7189 43.1585 73.014 43.3919 73.0511C43.6696 73.0966 43.4585 73.3295 43.4298 73.4567C43.3567 73.7724 43.2047 74.0642 42.9882 74.3049C42.7669 74.5499 42.5011 74.6761 42.1632 74.5981C41.9966 74.5653 41.8426 74.4863 41.7185 74.3702C41.5944 74.2541 41.5053 74.1054 41.4613 73.9411C41.3372 73.5346 41.665 73.8093 41.753 73.7574Z" fill="#5E3B97"/>
<path fill-rule="evenodd" clip-rule="evenodd" d="M46.1848 72.9649C46.3302 72.9232 46.3904 72.9974 46.4441 73.1413C46.6145 73.5932 46.9432 73.8113 47.4302 73.7287C47.6922 73.6841 47.7237 73.7649 47.6321 73.9913C47.3543 74.6827 46.5432 74.8163 46.0793 74.2372C45.9305 74.0503 45.8138 73.8399 45.7339 73.6145C45.5293 73.0596 45.5867 72.9724 46.1848 72.9649Z" fill="#5E3B97"/>
<path fill-rule="evenodd" clip-rule="evenodd" d="M44.05 77.8704L44.2546 77.5252C44.1056 77.4054 43.9306 77.4388 43.7713 77.4045C43.6787 77.3859 43.5519 77.4259 43.5167 77.3117C43.488 77.2189 43.5537 77.1261 43.6195 77.0472C43.8046 76.8375 44.4269 76.9312 44.5565 77.1836C44.6204 77.3089 44.4926 77.3516 44.4528 77.4314C44.3945 77.4491 44.2843 77.4602 44.3121 77.5242C44.3565 77.617 44.4445 77.5409 44.5111 77.5103C44.7084 77.4305 44.8232 77.2003 45.0667 77.2059L45.0611 77.1966C44.9815 77.3108 45.0121 77.3702 45.1491 77.3748L45.1417 77.3674C45.1796 77.5335 45.0889 77.8314 45.4528 77.6606C45.5297 77.6254 45.6519 77.5446 45.7139 77.6523C45.7759 77.7599 45.725 77.8991 45.6472 78.0049C45.6208 78.0387 45.5861 78.065 45.5465 78.0812C45.5069 78.0975 45.4638 78.1032 45.4213 78.0977C45.0278 78.0764 44.638 77.9799 44.2389 78.0597C44.1093 78.0857 44.088 77.9669 44.0537 77.8741L44.05 77.8704Z" fill="#5E3B97"/>
<path fill-rule="evenodd" clip-rule="evenodd" d="M43.9823 78.7819L43.8851 78.6334L43.8786 78.6399C44.2277 78.3689 44.599 78.407 44.9786 78.5592L44.9712 78.5517C45.0416 78.6325 45.0934 78.7726 45.2342 78.638L45.2249 78.6306C45.1184 78.7364 45.236 78.8468 45.187 78.9823C45.5036 78.8283 45.7721 78.7967 45.9786 79.0965C46.0157 79.1512 46.0981 79.2134 46.0138 79.27C45.7481 79.4491 45.4647 79.4296 45.1703 79.3368C44.9444 79.2663 45.1518 79.1382 45.1407 79.1039C44.5703 78.8255 44.2416 79.4844 43.6953 79.4027C43.7833 79.1967 43.8601 79.0157 43.9379 78.8348C43.9714 78.8686 44.0156 78.8897 44.0629 78.8945C44.1102 78.8992 44.1577 78.8873 44.1972 78.8608C44.1416 78.7828 44.0573 78.7986 43.9823 78.7819Z" fill="#5E3B97"/>
<path fill-rule="evenodd" clip-rule="evenodd" d="M46.6663 77.7963C47.0367 77.864 46.9061 78.1378 46.8765 78.3466C46.8089 78.8106 46.483 78.4097 46.2524 78.5164C46.496 78.7141 46.821 78.7856 46.9126 79.0733C46.4172 79.5865 46.2256 78.9869 45.8598 78.8134C46.0126 78.7206 46.1228 78.6464 46.3432 78.5044C45.895 78.5656 45.5774 78.896 45.2265 78.6269L45.2358 78.6343C45.1691 78.5415 45.095 78.4691 44.9728 78.548L44.9802 78.5554C44.9228 78.4255 44.8876 78.3253 45.0895 78.277C45.3524 78.212 45.62 78.1517 45.8608 78.277C46.1987 78.4552 46.3237 78.3318 46.3561 77.9986C46.3698 77.9502 46.3907 77.9042 46.4182 77.8622L46.4089 77.8677C46.5284 77.9355 46.6071 77.8798 46.6719 77.7805L46.6663 77.7963Z" fill="#5E3B97"/>
<path fill-rule="evenodd" clip-rule="evenodd" d="M37.6507 70.4844C37.7042 70.5018 37.75 70.5374 37.7803 70.5849C37.8105 70.6325 37.8233 70.6891 37.8164 70.7451C37.8164 71.2091 37.8303 71.6732 37.9776 72.1279C37.6729 72.1353 37.41 72.1418 37.3887 71.766C37.3421 71.0908 37.3445 70.4131 37.3961 69.7382C37.4063 69.6213 37.4044 69.4802 37.547 69.4171L37.5414 69.4106C37.9331 69.7874 37.9785 70.0148 37.7359 70.3971C37.6507 70.3359 37.5377 70.2115 37.4655 70.3303C37.4053 70.4305 37.5674 70.4528 37.6507 70.4844ZM37.9007 71.3771C37.6877 71.2518 37.585 71.1563 37.4377 71.2723C37.5442 71.3957 37.6581 71.3966 37.9007 71.3743V71.3771Z" fill="#5E3B97"/>
<path fill-rule="evenodd" clip-rule="evenodd" d="M45.9041 63.7311C45.6476 64.132 45.3124 64.0392 44.905 63.9965C44.4976 63.9538 44.0717 63.939 43.6643 64.067C43.5011 64.1056 43.3351 64.1313 43.168 64.1441C43.2495 63.6244 43.3948 63.4944 43.8282 63.5576C44.1606 63.604 43.8078 63.8629 44.0069 64.0216C44.0846 63.5047 44.4596 63.4007 44.8346 63.5436C45.1893 63.6782 45.6059 63.3729 45.8985 63.7404L45.9041 63.7311ZM44.9337 63.9167C44.967 63.8434 44.9957 63.784 45.0198 63.7237C45.0233 63.7146 45.0244 63.7047 45.0229 63.695C45.0214 63.6854 45.0174 63.6763 45.0113 63.6687C45.0053 63.6611 44.9973 63.6552 44.9882 63.6517C44.9791 63.6481 44.9693 63.647 44.9596 63.6485C44.9239 63.6654 44.8942 63.6929 44.8745 63.7272C44.8548 63.7616 44.846 63.8011 44.8495 63.8406C44.8495 63.8638 44.8948 63.8851 44.9337 63.9185V63.9167Z" fill="#5E3B97"/>
<path fill-rule="evenodd" clip-rule="evenodd" d="M49.7398 78.5273C49.7382 78.7894 49.6328 79.0401 49.4467 79.2244C49.2607 79.4086 49.0092 79.5112 48.7477 79.5096C48.4862 79.508 48.236 79.4023 48.0522 79.2158C47.8684 79.0293 47.766 78.7773 47.7676 78.5152C47.7676 77.9519 48.1852 77.5371 48.7593 77.5361C48.8895 77.5332 49.0191 77.5568 49.1399 77.6057C49.2608 77.6546 49.3704 77.7276 49.4622 77.8204C49.5539 77.9131 49.6259 78.0236 49.6736 78.1452C49.7214 78.2667 49.7439 78.3967 49.7398 78.5273V78.5273ZM49.55 78.4911C49.5477 78.3855 49.5247 78.2815 49.4823 78.1848C49.4399 78.0882 49.3789 78.0009 49.3028 77.9279C49.2267 77.8549 49.137 77.7976 49.0388 77.7594C48.9406 77.7212 48.8359 77.7027 48.7306 77.705C48.5184 77.7086 48.3163 77.7965 48.1688 77.9494C48.0213 78.1023 47.9404 78.3076 47.944 78.5203C47.9475 78.733 48.0352 78.9355 48.1878 79.0833C48.3403 79.2312 48.5452 79.3122 48.7574 79.3087C48.9702 79.3048 49.1727 79.2165 49.3207 79.0633C49.4688 78.9101 49.5502 78.7043 49.5472 78.4911H49.55Z" fill="#5E3B97"/>
<path fill-rule="evenodd" clip-rule="evenodd" d="M51.2104 72.9816C51.5252 73.3872 51.2104 73.6313 50.9743 73.8902L50.9799 73.8976C50.9613 73.7417 50.9076 73.6192 50.7188 73.6396L50.7262 73.6443C50.8289 73.0986 51.1891 72.6234 51.1336 72.0332C51.6049 72.2132 51.7289 72.616 51.453 72.9445C51.3984 73.0095 51.3308 72.9278 51.2678 72.9037C51.2234 72.8814 51.1752 72.822 51.1373 72.9037C51.1345 72.912 51.1863 72.9519 51.2104 72.9816Z" fill="#5E3B97"/>
<path fill-rule="evenodd" clip-rule="evenodd" d="M42.609 77.9633C42.6646 78.1304 42.8637 78.2111 42.8674 78.4134C42.8674 78.5536 43.1081 78.651 43.0174 78.7716C42.8961 78.9322 42.6813 78.8561 42.5016 78.8283C42.4646 78.7828 42.4322 78.6798 42.372 78.7271C42.2915 78.7902 42.372 78.8589 42.4276 78.9127C42.5813 79.2839 42.3081 79.2236 42.1044 79.2338C42.0766 79.0408 41.8896 79.102 41.7637 79.0222C41.885 78.8366 41.9924 78.6427 42.2507 78.6352C42.4359 78.6297 42.3516 78.5044 42.3433 78.4329C42.3008 78.2555 42.3023 78.0704 42.3479 77.8937C42.4007 77.7239 42.4702 77.9095 42.5285 77.8826L42.5239 77.8761C42.5192 77.942 42.5303 77.9903 42.6164 77.9689L42.609 77.9633Z" fill="#5E3B97"/>
<path fill-rule="evenodd" clip-rule="evenodd" d="M51.2937 70.2922C51.802 70.2755 51.8196 70.5622 51.8103 70.9038C51.8001 71.2982 51.489 70.939 51.3742 71.1163C51.6418 71.2416 51.8371 71.417 51.7316 71.752C51.6992 71.8531 51.7316 72.0304 51.614 72.0304C51.5363 72.0285 51.4606 72.0052 51.3952 71.9629C51.3299 71.9207 51.2774 71.8612 51.2437 71.7909C51.2256 71.7381 51.2218 71.6815 51.2326 71.6267C51.2659 71.4012 51.3594 71.1692 51.3252 70.9557C51.2909 70.7423 51.3252 70.5149 51.2937 70.2922Z" fill="#5E3B97"/>
<path fill-rule="evenodd" clip-rule="evenodd" d="M45.0661 77.2013C45.2232 77.0045 45.4517 76.8782 45.7016 76.8498C45.9515 76.8215 46.2024 76.8935 46.3994 77.0501C46.3253 77.2357 45.9929 77.0863 45.9901 77.3656L45.9966 77.36C45.9318 77.3212 45.8566 77.3034 45.7813 77.3092C45.706 77.3151 45.6344 77.3442 45.5763 77.3925C45.4087 77.5326 45.2809 77.4361 45.1411 77.3628L45.1485 77.3702C45.1563 77.3349 45.1518 77.298 45.1358 77.2656C45.1198 77.2332 45.0933 77.2073 45.0605 77.1921L45.0661 77.2013Z" fill="#5E3B97"/>
<path fill-rule="evenodd" clip-rule="evenodd" d="M46.4173 77.8705L45.834 78.0134C45.8932 77.7731 45.9451 77.5661 45.996 77.3638L45.9905 77.3694C46.2683 77.4139 46.4609 77.1597 46.7312 77.1597C46.8238 77.3805 46.6507 77.581 46.6692 77.8L46.6747 77.7935C46.5386 77.6766 46.4794 77.7935 46.4118 77.8807L46.4173 77.8705Z" fill="#5E3B97"/>
<path fill-rule="evenodd" clip-rule="evenodd" d="M42.528 77.8787C42.5215 77.3033 42.6789 77.1159 43.3159 76.9507C43.3057 77.1474 43.2956 77.3414 43.2854 77.5353L43.2928 77.5279C43.2581 77.517 43.2217 77.5131 43.1855 77.5166C43.1493 77.5201 43.1143 77.5308 43.0823 77.5481C43.0504 77.5654 43.0222 77.5889 42.9995 77.6174C42.9768 77.6458 42.96 77.6785 42.9502 77.7135C42.8983 77.913 42.7465 77.9121 42.6085 77.9604H42.6141V77.8676H42.5215L42.528 77.8787Z" fill="#5E3B97"/>
<path fill-rule="evenodd" clip-rule="evenodd" d="M51.3629 68.3415C50.836 68.5095 50.7323 68.1188 50.6055 67.7597C51.1073 67.5694 51.1351 67.5917 51.3629 68.3415Z" fill="#5E3B97"/>
<path fill-rule="evenodd" clip-rule="evenodd" d="M46.9389 77.5922C46.8019 77.0437 47.2167 76.9546 47.5787 76.8154C47.7176 77.3574 47.7121 77.3648 46.9389 77.5922Z" fill="#5E3B97"/>
<path fill-rule="evenodd" clip-rule="evenodd" d="M51.1523 69.3903C51.8459 69.3133 51.7144 69.7931 51.7625 70.1624C51.1172 70.2283 51.2607 69.7244 51.1523 69.3903Z" fill="#5E3B97"/>
<path fill-rule="evenodd" clip-rule="evenodd" d="M50.9735 73.8902C50.9663 74.0639 50.9197 74.2337 50.8374 74.3867C50.6522 74.6846 50.6606 74.6911 50.3809 74.5723L50.3856 74.5779C50.4309 74.4721 50.4032 74.4387 50.293 74.4851L50.3013 74.4925C50.3689 74.1733 50.4689 73.8698 50.7235 73.6443L50.7161 73.6396C50.7217 73.8076 50.7976 73.906 50.9773 73.8976L50.9735 73.8902Z" fill="#5E3B97"/>
<path fill-rule="evenodd" clip-rule="evenodd" d="M50.9336 68.5346C51.2827 68.4464 51.4975 68.5346 51.566 68.9188C51.6234 69.2361 51.6383 69.2621 51.542 69.2482C51.3651 69.2213 51.1299 69.289 51.0642 69.0181C51.0243 68.8566 50.978 68.696 50.9336 68.5346Z" fill="#5E3B97"/>
<path fill-rule="evenodd" clip-rule="evenodd" d="M37.498 72.2734C38.0045 72.3171 38.0045 72.3171 38.1879 72.9797C37.6527 73.0446 37.6397 73.0316 37.498 72.2734Z" fill="#5E3B97"/>
<path fill-rule="evenodd" clip-rule="evenodd" d="M43.0369 63.7004C43.1453 64.3157 42.6666 64.2647 42.3342 64.3788C42.3323 63.8007 42.3323 63.8007 43.0369 63.7004Z" fill="#5E3B97"/>
<path fill-rule="evenodd" clip-rule="evenodd" d="M38.5193 73.7751C37.9953 73.9329 37.9638 73.9069 37.7656 73.1821C38.3064 73.0123 38.386 73.416 38.5193 73.7751Z" fill="#5E3B97"/>
<path fill-rule="evenodd" clip-rule="evenodd" d="M37.7955 68.4733C37.7955 68.1485 37.8344 67.8385 38.1335 67.6381L38.1289 67.6316C38.1548 67.73 38.1742 67.8395 38.3067 67.7188L38.2983 67.7105C38.1354 67.8747 38.4122 67.9341 38.3826 68.0956C38.3168 68.4668 38.1224 68.6079 37.7891 68.4668L37.7955 68.4733Z" fill="#5E3B97"/>
<path fill-rule="evenodd" clip-rule="evenodd" d="M48.9395 65.5203C49.5469 65.4879 49.5469 65.4879 49.908 65.8915C49.4728 66.1699 49.1561 66.0493 48.9469 65.5203H48.9395Z" fill="#5E3B97"/>
<path fill-rule="evenodd" clip-rule="evenodd" d="M40.8329 76.5246C40.8644 76.5404 40.9014 76.5766 40.9255 76.5701C41.1616 76.5051 41.3107 76.6814 41.4811 76.7752C41.8116 76.9608 41.2727 77.0341 41.419 77.203L41.4246 77.1965C41.2562 77.1718 41.0921 77.1231 40.9375 77.0517C40.7061 76.9469 40.632 76.8281 40.7523 76.6016L40.7459 76.6072C40.8523 76.6527 40.8848 76.6248 40.8385 76.5144L40.8329 76.5246Z" fill="#5E3B97"/>
<path fill-rule="evenodd" clip-rule="evenodd" d="M49.781 75.1567C49.9661 75.6003 49.7939 75.9084 49.4004 76.1247C49.1523 75.6532 49.2523 75.4017 49.7884 75.1642L49.781 75.1567Z" fill="#5E3B97"/>
<path fill-rule="evenodd" clip-rule="evenodd" d="M40.1674 76.0041C39.5683 76.0793 39.5683 76.0793 39.2285 75.6329C39.6563 75.3461 39.9544 75.4658 40.16 76.0041H40.1674Z" fill="#5E3B97"/>
<path fill-rule="evenodd" clip-rule="evenodd" d="M48.4618 76.6834C48.4553 76.856 47.9989 77.2458 47.8942 77.179C47.7535 77.0908 47.747 76.9006 47.7933 76.7725C47.8739 76.5479 48.1183 76.4449 48.3118 76.3957C48.5053 76.3466 48.3655 76.6222 48.4618 76.6834Z" fill="#5E3B97"/>
<path fill-rule="evenodd" clip-rule="evenodd" d="M49.7898 75.1644C49.8981 74.8916 49.975 74.5928 50.3037 74.4925L50.2953 74.4851C50.2953 74.5464 50.3018 74.6002 50.3879 74.5779L50.3833 74.5723C50.5944 74.9714 50.2907 75.1885 50.0888 75.4484C49.9176 75.4141 49.9713 75.1598 49.7852 75.1598L49.7898 75.1644Z" fill="#5E3B97"/>
<path fill-rule="evenodd" clip-rule="evenodd" d="M39.4626 66.3498C39.2237 66.0863 39.1524 65.8515 39.4626 65.6009C39.6923 65.4153 39.7404 65.3745 39.7728 65.4682C39.8321 65.6232 39.996 65.781 39.8293 65.9638C39.7061 66.0965 39.5802 66.2236 39.4626 66.3498Z" fill="#5E3B97"/>
<path fill-rule="evenodd" clip-rule="evenodd" d="M38.1355 67.6342C38.1722 67.3417 38.2951 67.0668 38.4883 66.8445C38.9225 67.0941 38.7475 67.3911 38.5651 67.7066C38.4559 67.8922 38.3873 67.7159 38.2994 67.7066L38.3086 67.715C38.2725 67.6379 38.2466 67.5414 38.1309 67.6277L38.1355 67.6342Z" fill="#5E3B97"/>
<path fill-rule="evenodd" clip-rule="evenodd" d="M41.2728 64.3501C41.5256 64.8744 41.0876 64.9737 40.7839 65.1593C40.5738 64.6489 40.6099 64.5867 41.2728 64.3501Z" fill="#5E3B97"/>
<path fill-rule="evenodd" clip-rule="evenodd" d="M45.8996 63.7356C46.1922 63.717 46.482 63.7114 46.7459 63.8692C46.5496 64.2729 46.319 64.349 45.9357 64.155C45.6736 64.0232 46.1135 63.8562 45.9051 63.7309L45.8996 63.7356Z" fill="#5E3B97"/>
<path fill-rule="evenodd" clip-rule="evenodd" d="M40.1596 76.0144C40.4439 76.1072 40.7393 76.1851 40.8309 76.5285L40.8384 76.5201C40.7735 76.5201 40.7245 76.5266 40.7458 76.6129L40.7522 76.6074C40.605 76.5712 40.5004 76.7521 40.3217 76.6584C39.9365 76.4552 39.8865 76.3067 40.1643 76.0088L40.1596 76.0144Z" fill="#5E3B97"/>
<path fill-rule="evenodd" clip-rule="evenodd" d="M48.947 65.5139C48.8664 65.5005 48.7879 65.4765 48.7136 65.4425C48.5636 65.3497 48.4257 65.2327 48.2812 65.126C48.6729 64.7242 48.7285 64.7335 49.222 65.2624C49.1609 65.3831 48.9572 65.3552 48.9396 65.5195L48.947 65.5139Z" fill="#5E3B97"/>
<path fill-rule="evenodd" clip-rule="evenodd" d="M47.6019 64.4921C47.2797 64.5376 46.9611 64.5636 46.6973 64.3121C46.9973 63.8805 47.313 63.8861 47.675 64.3278L47.6806 64.3232C47.5806 64.3473 47.4741 64.3687 47.5945 64.5014L47.6019 64.4921Z" fill="#5E3B97"/>
<path fill-rule="evenodd" clip-rule="evenodd" d="M38.6582 74.6649C38.4841 74.6649 38.1406 74.2659 38.1527 74.1081C38.1582 74.0357 38.2008 74.0153 38.2601 74.0153C38.3934 74.0153 38.5452 73.9169 38.6545 74.0441C38.7715 74.1631 38.8629 74.3049 38.923 74.4608C39.0073 74.7494 38.7221 74.5777 38.6582 74.6649Z" fill="#5E3B97"/>
<path fill-rule="evenodd" clip-rule="evenodd" d="M50.1348 66.9542C50.482 66.7965 50.7283 66.8271 50.8477 67.1705C50.8838 67.2735 51.0634 67.4015 50.9134 67.4823C50.7634 67.563 50.5588 67.6261 50.4218 67.4294C50.3199 67.2846 50.2366 67.1259 50.1348 66.9542Z" fill="#5E3B97"/>
<path fill-rule="evenodd" clip-rule="evenodd" d="M41.4219 77.2031C41.6691 77.1317 41.8719 76.7976 42.1802 77.0769C42.2534 77.1428 42.458 77.1085 42.4071 77.2467C42.3561 77.385 42.2441 77.5864 42.0506 77.5409C41.8209 77.4871 41.5543 77.4565 41.4274 77.1966L41.4219 77.2031Z" fill="#5E3B97"/>
<path fill-rule="evenodd" clip-rule="evenodd" d="M47.6767 64.3276C48.0276 64.3666 48.0896 64.3954 48.485 64.6933C48.2193 65.0747 47.9294 64.9513 47.6109 64.7536C47.4368 64.645 47.5859 64.5782 47.6035 64.4919L47.5961 64.5012C47.672 64.465 47.7683 64.439 47.6822 64.323L47.6767 64.3276Z" fill="#5E3B97"/>
<path fill-rule="evenodd" clip-rule="evenodd" d="M41.5643 64.687C41.393 64.1998 41.4106 64.1766 42.1282 63.9446C42.1921 64.4782 42.1921 64.4782 41.5643 64.687Z" fill="#5E3B97"/>
<path fill-rule="evenodd" clip-rule="evenodd" d="M44.0557 77.8648C43.8251 78.1173 43.6048 78.1089 43.0918 77.8287C43.0918 77.683 43.277 77.6672 43.2918 77.5308L43.2844 77.5382C43.477 77.5558 43.6687 77.5855 43.8603 77.5883C44.0788 77.5883 44.0335 77.7479 44.0455 77.8741L44.0557 77.8648Z" fill="#5E3B97"/>
<path fill-rule="evenodd" clip-rule="evenodd" d="M49.6152 66.2422C50.1189 65.8895 50.2819 66.3146 50.4986 66.6292C49.9912 66.8463 49.9912 66.8463 49.6152 66.2422Z" fill="#5E3B97"/>
<path fill-rule="evenodd" clip-rule="evenodd" d="M40.4458 64.8308C40.8115 65.3598 40.3245 65.4804 40.0708 65.7226C39.8393 65.1835 39.8393 65.1835 40.4458 64.8308Z" fill="#5E3B97"/>
<path fill-rule="evenodd" clip-rule="evenodd" d="M38.6406 74.8693C39.161 74.526 39.2888 75.002 39.5425 75.2777C38.974 75.4911 38.9591 75.4846 38.6406 74.8693Z" fill="#5E3B97"/>
<path fill-rule="evenodd" clip-rule="evenodd" d="M48.6594 76.7177C48.3464 76.2194 48.7409 76.0375 49.0557 75.8157C49.2844 76.3298 49.2844 76.3298 48.6594 76.7177Z" fill="#5E3B97"/>
<path fill-rule="evenodd" clip-rule="evenodd" d="M38.9288 67.0468C38.5982 66.7889 38.5843 66.5429 38.8602 66.2979C38.9343 66.232 38.9723 66 39.1223 66.1587C39.2149 66.2617 39.3806 66.4065 39.2556 66.5968C39.1565 66.7471 39.0445 66.8881 38.9288 67.0468Z" fill="#5E3B97"/>
<path fill-rule="evenodd" clip-rule="evenodd" d="M37.5466 69.4169C37.5512 69.0819 37.479 68.7255 37.7956 68.4731L37.7892 68.4675C37.9984 68.7812 38.1966 69.0967 37.8929 69.4884C37.7873 69.5181 37.6994 69.2601 37.541 69.4132L37.5466 69.4169Z" fill="#5E3B97"/>
<path fill-rule="evenodd" clip-rule="evenodd" d="M42.7383 79.0341C42.9235 78.9858 43.0994 78.971 43.2559 78.8772C43.3201 78.8509 43.3905 78.8432 43.459 78.855C43.5274 78.8668 43.5911 78.8977 43.6429 78.9441C43.6744 78.9728 43.6374 79.1074 43.6003 79.1761C43.529 79.306 43.4198 79.3951 43.2549 79.3459C43.0735 79.2902 42.8799 79.2438 42.7383 79.0341Z" fill="#5E3B97"/>
<path fill-rule="evenodd" clip-rule="evenodd" d="M43.8854 78.6332C43.6289 78.5859 43.3298 78.7613 43.1187 78.4913C43.003 78.3446 42.9576 78.2129 43.2261 78.2045C43.4946 78.1962 43.7548 78.1878 44.0002 78.3047C44.0928 78.4681 43.7872 78.4801 43.8789 78.6397L43.8854 78.6332Z" fill="#5E3B97"/>
<path fill-rule="evenodd" clip-rule="evenodd" d="M46.998 79.6578C47.0953 79.6958 47.1545 79.8861 47.3008 79.7302C47.4008 79.6244 47.5175 79.6921 47.524 79.7821C47.5397 79.9677 47.3629 80.0605 47.2462 80.1626C47.1582 80.2387 47.0906 80.1283 47.0721 80.0531C47.0416 79.9204 47.1036 79.7747 47.0092 79.6494L46.998 79.6578Z" fill="#5E3B97"/>
<path fill-rule="evenodd" clip-rule="evenodd" d="M42.1035 79.2263C42.0804 79.3905 42.0869 79.5975 41.8813 79.63C41.71 79.6559 41.598 79.4694 41.5674 79.3516C41.5304 79.2022 41.7119 79.2476 41.8109 79.2244C41.91 79.2012 42.0054 79.3673 42.1072 79.2337L42.1035 79.2263Z" fill="#5E3B97"/>
<path fill-rule="evenodd" clip-rule="evenodd" d="M47.0086 79.6495C46.8595 79.7423 46.7308 79.7423 46.6308 79.5762C46.5688 79.4722 46.6308 79.4277 46.7067 79.3803C46.8345 79.2987 46.9845 79.268 47.0956 79.3655C47.2632 79.5093 46.9947 79.5455 47.003 79.6578L47.0086 79.6495Z" fill="#5E3B97"/>
<path fill-rule="evenodd" clip-rule="evenodd" d="M41.2946 79.5679C41.3718 79.5901 41.4418 79.6324 41.4976 79.6904C41.5533 79.7484 41.5928 79.8201 41.6122 79.8982C41.627 79.9753 41.5538 80.0941 41.476 80.0644C41.401 80.0293 41.334 79.9793 41.2789 79.9174C41.2238 79.8555 41.1819 79.783 41.1557 79.7043C41.1279 79.6449 41.2149 79.5939 41.2946 79.5679Z" fill="#5E3B97"/>
<path fill-rule="evenodd" clip-rule="evenodd" d="M61.2743 71.519L61.2521 71.5701C61.2521 71.5627 61.2474 71.5515 61.2521 71.5478C61.2621 71.539 61.2729 71.5313 61.2845 71.5246L61.2743 71.519Z" fill="#01A4E2"/>
<path fill-rule="evenodd" clip-rule="evenodd" d="M74.0371 24.0229L74.0788 24.0739H74.0427C74.0427 24.0544 74.0427 24.0358 74.0427 24.0164L74.0371 24.0229Z" fill="#5E3B97"/>
<path fill-rule="evenodd" clip-rule="evenodd" d="M10.209 55.8178C10.209 55.7844 10.209 55.751 10.209 55.7185L10.2571 55.7705C10.2429 55.788 10.2267 55.8039 10.209 55.8178V55.8178Z" fill="#5E3B97"/>
<path fill-rule="evenodd" clip-rule="evenodd" d="M75.9844 33.0803L75.9316 33.0488C75.9826 33.0163 75.9909 33.0386 75.9779 33.0859L75.9844 33.0803Z" fill="#5E3B97"/>
<path fill-rule="evenodd" clip-rule="evenodd" d="M33.1426 12.2473V12.303H33.1074L33.1528 12.2566L33.1426 12.2473Z" fill="#5E3B97"/>
<path fill-rule="evenodd" clip-rule="evenodd" d="M14.1328 59.2551H14.1689L14.1384 59.2495L14.1328 59.2551Z" fill="#5E3B97"/>
<path fill-rule="evenodd" clip-rule="evenodd" d="M74.2594 29.0511C74.2251 29.0214 74.1973 28.9879 74.2501 28.9536C74.2557 28.9536 74.2862 28.9861 74.3047 29.0047L74.2594 29.0511Z" fill="#5E3B97"/>
<path fill-rule="evenodd" clip-rule="evenodd" d="M71.9993 25.2164C71.994 25.2053 71.9897 25.1938 71.9863 25.182C71.9863 25.1774 71.9928 25.1718 71.9956 25.1663C71.9956 25.1848 71.9956 25.2025 71.9956 25.221L71.9993 25.2164Z" fill="#5E3B97"/>
<path fill-rule="evenodd" clip-rule="evenodd" d="M60.7208 26.4079C61.4005 27.7758 61.9245 29.192 62.1606 30.7121C62.2486 31.2256 62.3003 31.7447 62.3152 32.2656C62.3032 33.7225 62.181 35.1656 61.7051 36.5549C60.5014 40.0702 58.1996 42.3587 54.4664 43.0324C54.096 43.0993 53.7071 43.1791 53.3368 43.1457C52.509 43.0714 51.9386 43.4241 51.4803 44.0737C51.1368 44.5581 50.6729 44.8708 50.0554 44.83C49.5603 44.8107 49.0777 44.6689 48.6508 44.417C47.9443 43.9744 47.2036 43.9113 46.424 44.1238C45.2379 44.4458 44.5722 44.5442 43.7435 42.8394C43.3231 41.9764 42.725 41.478 41.7991 41.1968C38.8251 40.2874 37.0992 38.1566 36.3751 35.2102C35.5631 31.9083 36.2927 28.8189 37.8982 25.8947C38.2722 25.2327 38.6894 24.5962 39.1473 23.9895C39.2778 23.8113 39.376 23.7306 39.6158 23.8716C40.5537 24.4284 40.9991 24.4015 41.8037 23.6582C42.6384 22.8815 43.6094 22.2663 44.6675 21.8439C45.6944 21.43 45.8805 21.0328 45.7999 19.7763C48.1536 19.1341 50.4961 19.2195 52.8247 19.9034C53.7642 20.1927 54.6707 20.5803 55.5293 21.0597C55.4691 21.2889 55.396 21.5163 55.3524 21.7492C55.2034 22.5678 55.4811 23.1171 56.2385 23.4512C57.2365 23.8874 58.1043 24.5759 58.757 25.4493C59.2681 26.1314 59.8625 26.5063 60.7208 26.4079ZM57.408 36.3878C57.4242 36.0214 57.39 35.6544 57.3061 35.2974C56.9894 33.9314 56.3256 32.8149 55.0099 32.1987C54.0284 31.7394 53.1331 31.9565 52.4433 32.7852C51.9322 33.3987 51.6155 34.1179 51.3322 34.8538C51.2951 34.9306 51.2807 35.0165 51.2909 35.1012C51.3011 35.1859 51.3353 35.266 51.3896 35.3317C51.8192 35.8292 52.0488 36.4389 52.2979 37.0337C52.5692 37.6833 52.8192 38.3385 53.2321 38.9148C53.6451 39.4911 54.1858 39.8503 54.9154 39.7454C55.9784 39.5913 56.7672 39.0568 57.1487 38.0026C57.3388 37.4863 57.4269 36.9378 57.408 36.3878V36.3878ZM46.5193 34.1773C46.4314 33.0692 46.2527 32.1496 45.6444 31.3728C45.4647 31.1278 45.2283 30.9302 44.9556 30.797C44.6828 30.6638 44.3819 30.599 44.0787 30.6081C43.3194 30.6137 42.7 30.9468 42.112 31.3737C40.5297 32.5208 39.8047 34.3267 40.2454 36.0138C40.6158 37.4328 41.8676 38.2633 43.1157 37.9061C43.7537 37.7205 44.1935 37.2639 44.6046 36.7739C45.1379 36.1373 45.5481 35.4004 46.1638 34.8343C46.4073 34.606 46.5573 34.3657 46.5193 34.1773V34.1773ZM46.8277 40.3505C46.4091 40.3653 45.9369 40.3171 45.5073 40.5444C45.2295 40.691 45.0379 40.9036 45.0499 41.2432C45.062 41.5829 45.2694 41.8112 45.5712 41.9467C45.6888 41.9928 45.8107 42.027 45.9351 42.0487C46.5999 42.1972 47.1239 42.5415 47.4573 43.1475C47.5952 43.399 47.748 43.4157 47.9508 43.2153C48.436 42.7373 49.0452 42.5508 49.7035 42.4784C49.8431 42.4658 49.9805 42.4346 50.1118 42.3856C50.5628 42.2065 50.7063 41.7666 50.4591 41.3472C50.2924 41.082 50.0323 40.8895 49.7304 40.808C48.7932 40.5018 47.8133 40.3474 46.8277 40.3505V40.3505Z" fill="#FDFDFD"/>
<path fill-rule="evenodd" clip-rule="evenodd" d="M32.2276 22.4045C33.6692 21.4951 35.1951 20.787 36.8719 20.4344C37.0358 20.4 37.2016 20.3712 37.3654 20.3416C37.4576 21.1852 37.7838 21.986 38.3071 22.6532C38.5052 22.902 38.4284 22.9966 38.2025 23.1553C36.372 24.4369 34.8109 25.9811 33.6785 27.9281C32.4063 30.1155 31.8952 32.5014 31.8869 35.007C31.8822 36.4585 31.9433 37.9127 31.7109 39.353C31.4489 40.9724 31.7785 42.5184 32.2498 44.0497C32.2686 44.0877 32.2826 44.1279 32.2915 44.1694C32.2915 44.3123 32.4767 44.4682 32.3007 44.5935C32.1248 44.7188 31.9832 44.574 31.8461 44.4812C29.6777 43.0094 28.2008 40.9788 27.2685 38.5651C25.6518 34.3778 25.8064 30.3057 28.2545 26.4386C29.1619 25.0076 30.3591 23.8402 31.7202 22.8379C31.8989 22.7061 32.1146 22.6143 32.2276 22.4045Z" fill="#FDFDFD"/>
<path fill-rule="evenodd" clip-rule="evenodd" d="M49.8018 45.3673C49.5667 45.9788 49.1296 46.2953 48.5833 46.4419C48.1495 46.5647 47.6946 46.5934 47.2489 46.5262C46.8031 46.459 46.3768 46.2974 45.9982 46.0522C45.7953 45.9243 45.6179 45.7597 45.4751 45.5668C45.3103 45.3487 45.1158 45.0703 45.2214 44.8467C45.2927 44.6963 45.6241 44.8708 45.8371 44.9107C47.1343 45.1529 48.4361 45.3561 49.8018 45.3673Z" fill="#FDFDFD"/>
<path fill-rule="evenodd" clip-rule="evenodd" d="M60.7211 26.4079C59.8628 26.5063 59.2684 26.1295 58.7573 25.4492C58.1046 24.5759 57.2368 23.8874 56.2388 23.4512C55.4796 23.1162 55.2036 22.5677 55.3573 21.7483C55.4009 21.5154 55.474 21.2843 55.5342 21.0588C55.8888 20.3869 56.2333 19.7039 56.8082 19.1879C58.3406 17.8107 60.5619 17.8979 62.097 19.3874C62.5626 19.8375 62.9506 20.3618 63.2451 20.9391C64.1284 23.0048 63.1072 25.4158 60.9813 26.2835C60.8924 26.3197 60.8082 26.3652 60.7211 26.4079Z" fill="#18181D"/>
<path fill-rule="evenodd" clip-rule="evenodd" d="M40.742 69.6499C40.7754 69.8355 40.5809 70.0796 41.0198 70.2067C40.68 70.2457 40.4254 70.1826 40.3717 70.5288C40.3448 70.2596 40.2263 70.1288 39.918 70.1C40.1457 69.9432 40.3467 69.8216 40.1532 69.5432C40.367 69.6787 40.5346 69.8105 40.7439 69.6546L40.742 69.6499Z" fill="#FDFDFD"/>
<path fill-rule="evenodd" clip-rule="evenodd" d="M40.7468 69.6564L40.7764 69.637L40.7422 69.6499L40.7468 69.6564Z" fill="#FDFDFD"/>
<path fill-rule="evenodd" clip-rule="evenodd" d="M48.3558 69.6648C48.5604 69.7576 48.7484 69.7576 48.9178 69.5442C48.8789 69.7855 48.9271 69.9655 49.165 70.0815C48.9086 70.1168 48.7882 70.2476 48.7743 70.5696C48.6354 70.2912 48.5021 70.1511 48.2363 70.2476C48.3144 70.1737 48.3682 70.0778 48.3905 69.9725C48.4128 69.8672 48.4027 69.7577 48.3613 69.6583L48.3558 69.6648Z" fill="#FDFDFD"/>
<path fill-rule="evenodd" clip-rule="evenodd" d="M48.3602 69.6583L48.3223 69.6462L48.3547 69.6648L48.3602 69.6583Z" fill="#FDFDFD"/>
<path fill-rule="evenodd" clip-rule="evenodd" d="M32.4859 60.6176C31.421 60.6176 30.5877 59.7991 30.5997 58.769C30.6118 57.7389 31.4914 56.8582 32.5183 56.874C33.4951 56.8898 34.3303 57.7667 34.3331 58.7783C34.3341 59.0211 34.2869 59.2617 34.1943 59.4861C34.1016 59.7105 33.9654 59.9142 33.7935 60.0854C33.6216 60.2566 33.4175 60.3917 33.193 60.4831C32.9685 60.5745 32.7281 60.6202 32.4859 60.6176ZM32.609 59.9467C32.8784 59.9745 33.1497 59.7824 33.3349 59.4474C33.3923 59.3425 33.5025 59.1978 33.3794 59.1152C33.2562 59.0326 33.1479 59.1226 33.0544 59.2692C32.7951 59.6775 32.3571 59.7072 32.0359 59.3685C31.8854 59.1989 31.8047 58.9784 31.8102 58.7515C31.8157 58.5247 31.9069 58.3083 32.0655 58.1463C32.3701 57.8586 32.7192 57.8995 33.071 58.2966C33.1775 58.4173 33.2942 58.4479 33.3988 58.3894C33.5368 58.3143 33.4136 58.189 33.3775 58.1027C33.3345 58.0062 33.2716 57.9199 33.1929 57.8495C33.1142 57.7792 33.0216 57.7263 32.921 57.6944C32.7165 57.6148 32.493 57.5978 32.2788 57.6453C32.0646 57.6929 31.8692 57.8029 31.7173 57.9616C31.3747 58.3449 31.3192 58.7968 31.5007 59.2609C31.6692 59.6933 32.0155 59.9105 32.609 59.9467Z" fill="#FDFDFD"/>
<path fill-rule="evenodd" clip-rule="evenodd" d="M46.2802 72.4675C45.1293 72.6624 43.9802 72.6447 42.7617 72.5018C43.3349 72.242 45.4358 72.2197 46.2802 72.4675Z" fill="#FDFDFD"/>
<path fill-rule="evenodd" clip-rule="evenodd" d="M44.5101 77.5056C44.4434 77.5363 44.3555 77.6133 44.3111 77.5196C44.2833 77.4592 44.3934 77.4481 44.4518 77.4268L44.5101 77.5056Z" fill="#FDFDFD"/>
<path fill-rule="evenodd" clip-rule="evenodd" d="M45.0609 77.1919C45.0936 77.2071 45.1202 77.2331 45.1362 77.2655C45.1522 77.2979 45.1567 77.3348 45.1489 77.3701C45.0118 77.3654 44.9813 77.306 45.0609 77.1919Z" fill="#FDFDFD"/>
<path fill-rule="evenodd" clip-rule="evenodd" d="M44.9727 78.5516C45.0949 78.4727 45.169 78.5433 45.2356 78.6379C45.0949 78.7725 45.043 78.6324 44.9727 78.5516Z" fill="#FDFDFD"/>
<path fill-rule="evenodd" clip-rule="evenodd" d="M43.9839 78.7817C44.0589 78.7966 44.1432 78.7817 44.1987 78.8606C44.1592 78.8872 44.1118 78.8991 44.0644 78.8943C44.0171 78.8896 43.9729 78.8685 43.9395 78.8346L43.9839 78.7817Z" fill="#FDFDFD"/>
<path fill-rule="evenodd" clip-rule="evenodd" d="M46.4062 77.8768C46.4738 77.784 46.5331 77.6726 46.6692 77.7895C46.6062 77.8888 46.5275 77.9445 46.4062 77.8768Z" fill="#FDFDFD"/>
<path fill-rule="evenodd" clip-rule="evenodd" d="M37.9005 71.3744C37.6579 71.3939 37.544 71.3929 37.4375 71.2695C37.5847 71.1563 37.6875 71.2519 37.9005 71.3744Z" fill="#FDFDFD"/>
<path fill-rule="evenodd" clip-rule="evenodd" d="M37.6514 70.4843C37.5681 70.4527 37.406 70.4304 37.4662 70.3302C37.5384 70.2105 37.6514 70.3358 37.7366 70.397L37.6514 70.4843Z" fill="#FDFDFD"/>
<path fill-rule="evenodd" clip-rule="evenodd" d="M44.9365 63.9185C44.8976 63.8851 44.8523 63.8637 44.8523 63.8424C44.8489 63.8029 44.8576 63.7634 44.8773 63.729C44.897 63.6947 44.9267 63.6672 44.9625 63.6503C44.9721 63.6488 44.9819 63.6499 44.991 63.6535C45.0001 63.657 45.0081 63.6629 45.0142 63.6705C45.0203 63.6781 45.0242 63.6872 45.0257 63.6968C45.0272 63.7065 45.0261 63.7164 45.0226 63.7255C44.9986 63.7858 44.9699 63.8452 44.9365 63.9185Z" fill="#FDFDFD"/>
<path fill-rule="evenodd" clip-rule="evenodd" d="M49.5475 78.4913C49.5505 78.705 49.4687 78.9112 49.32 79.0645C49.1714 79.2178 48.9682 79.3057 48.7549 79.3089C48.5428 79.3125 48.3379 79.2314 48.1853 79.0836C48.0328 78.9357 47.9451 78.7332 47.9415 78.5205C47.938 78.3079 48.0188 78.1025 48.1663 77.9496C48.3138 77.7967 48.5159 77.7088 48.7281 77.7053C48.8334 77.7029 48.9381 77.7214 49.0363 77.7597C49.1345 77.7979 49.2242 77.8551 49.3003 77.9281C49.3764 78.0011 49.4374 78.0884 49.4798 78.1851C49.5222 78.2817 49.5452 78.3858 49.5475 78.4913V78.4913ZM49.1577 78.9748C49.0021 78.7604 48.9068 78.611 49.1003 78.4013C49.2012 78.2927 49.1262 78.0811 48.929 78.0579C48.7697 78.0384 48.5114 77.9113 48.466 78.1424C48.3928 78.4205 48.4041 78.7143 48.4985 78.986C48.7123 78.9034 48.5197 78.676 48.6772 78.598C48.8725 78.6593 48.8299 78.9702 49.1577 78.9748V78.9748Z" fill="#FDFDFD"/>
<path fill-rule="evenodd" clip-rule="evenodd" d="M50.9799 73.8975C50.8002 73.9059 50.7243 73.8047 50.7188 73.6395C50.9076 73.6228 50.9613 73.7416 50.9799 73.8975Z" fill="#FDFDFD"/>
<path fill-rule="evenodd" clip-rule="evenodd" d="M51.2087 72.9814C51.1846 72.9536 51.1327 72.9118 51.1392 72.8997C51.18 72.8218 51.2253 72.8812 51.2698 72.8997L51.2087 72.9814Z" fill="#FDFDFD"/>
<path fill-rule="evenodd" clip-rule="evenodd" d="M42.4243 78.9053C42.365 78.8552 42.2882 78.7865 42.3687 78.7197C42.4289 78.6723 42.4613 78.7754 42.4984 78.8208L42.4243 78.9053Z" fill="#FDFDFD"/>
<path fill-rule="evenodd" clip-rule="evenodd" d="M42.5226 77.8704H42.6152V77.9632C42.5291 77.9864 42.5171 77.9381 42.5226 77.8704Z" fill="#FDFDFD"/>
<path fill-rule="evenodd" clip-rule="evenodd" d="M50.3875 74.575C50.3033 74.6 50.2949 74.5462 50.2949 74.4822C50.4032 74.4367 50.431 74.4692 50.3875 74.575Z" fill="#FDFDFD"/>
<path fill-rule="evenodd" clip-rule="evenodd" d="M38.1309 67.6277C38.2466 67.5414 38.2725 67.6379 38.3086 67.7149C38.1762 67.8356 38.1568 67.7261 38.1309 67.6277Z" fill="#FDFDFD"/>
<path fill-rule="evenodd" clip-rule="evenodd" d="M40.7504 76.6072C40.7263 76.5228 40.7754 76.5144 40.8429 76.5144C40.8892 76.6248 40.8568 76.6527 40.7504 76.6072Z" fill="#FDFDFD"/>
<path fill-rule="evenodd" clip-rule="evenodd" d="M47.6806 64.3215C47.7668 64.4375 47.6705 64.4635 47.5945 64.4997C47.4742 64.3689 47.5806 64.3475 47.6806 64.3215Z" fill="#FDFDFD"/>
<path fill-rule="evenodd" clip-rule="evenodd" d="M57.4063 36.3878C57.4249 36.9379 57.3365 37.4863 57.1461 38.0025C56.7674 39.0568 55.9758 39.5913 54.9128 39.7454C54.1832 39.8502 53.6434 39.492 53.2296 38.9148C52.8157 38.3376 52.5666 37.6814 52.2953 37.0337C52.0462 36.4388 51.8166 35.8273 51.387 35.3317C51.3328 35.2659 51.2985 35.1859 51.2883 35.1012C51.2782 35.0164 51.2925 34.9306 51.3296 34.8538C51.6074 34.1178 51.9268 33.3986 52.4407 32.7852C53.1305 31.9565 54.0258 31.7393 55.0073 32.1987C56.323 32.8149 56.9869 33.9313 57.3035 35.2974C57.3877 35.6544 57.4223 36.0213 57.4063 36.3878V36.3878Z" fill="#18181D"/>
<path fill-rule="evenodd" clip-rule="evenodd" d="M46.5171 34.1773C46.5551 34.3629 46.4079 34.606 46.1588 34.8352C45.5431 35.4013 45.1329 36.1345 44.5996 36.7748C44.1885 37.2648 43.7487 37.7242 43.1107 37.907C41.8654 38.2643 40.6108 37.4337 40.2404 36.0147C39.7997 34.3267 40.5247 32.5207 42.107 31.3746C42.695 30.9478 43.3107 30.6146 44.0737 30.609C44.3776 30.5997 44.6793 30.6647 44.9525 30.7985C45.2258 30.9322 45.4625 31.1306 45.6421 31.3765C46.2505 32.1495 46.4292 33.0692 46.5171 34.1773Z" fill="#18181D"/>
<path fill-rule="evenodd" clip-rule="evenodd" d="M46.8263 40.3506C47.8121 40.3482 48.792 40.5032 49.729 40.81C50.0309 40.8915 50.2911 41.084 50.4577 41.3492C50.7049 41.7686 50.5614 42.2085 50.1105 42.3876C49.9791 42.4366 49.8418 42.4679 49.7022 42.4804C49.0439 42.5528 48.4346 42.7393 47.9495 43.2173C47.7467 43.4177 47.5939 43.4029 47.4559 43.1495C47.1226 42.5435 46.5986 42.1992 45.9338 42.0507C45.8102 42.0283 45.6893 41.9935 45.5727 41.9468C45.2708 41.8113 45.0643 41.596 45.0514 41.2434C45.0384 40.8907 45.2366 40.6912 45.5088 40.5446C45.9356 40.3172 46.406 40.3655 46.8263 40.3506Z" fill="#18181D"/>
<path fill-rule="evenodd" clip-rule="evenodd" d="M32.6108 59.9466C32.0173 59.9104 31.671 59.6933 31.4997 59.2608C31.3145 58.7968 31.3738 58.3458 31.7163 57.9616C31.8682 57.8029 32.0636 57.6928 32.2778 57.6453C32.492 57.5977 32.7155 57.6148 32.9201 57.6943C33.0206 57.7262 33.1132 57.7791 33.1919 57.8495C33.2706 57.9199 33.3335 58.0061 33.3765 58.1026C33.4126 58.1889 33.5358 58.3142 33.3978 58.3894C33.2932 58.4469 33.1765 58.4163 33.0701 58.2966C32.7182 57.8994 32.3691 57.8586 32.0645 58.1462C31.906 58.3083 31.8147 58.5246 31.8092 58.7515C31.8037 58.9784 31.8844 59.1989 32.0349 59.3685C32.3589 59.7072 32.7969 59.6775 33.0534 59.2692C33.146 59.1225 33.2543 59.0325 33.3784 59.1151C33.5025 59.1977 33.3913 59.3425 33.3339 59.4473C33.1515 59.7823 32.8802 59.9744 32.6108 59.9466Z" fill="#18181D"/>
<path fill-rule="evenodd" clip-rule="evenodd" d="M49.1582 78.9749C48.8304 78.9749 48.873 78.6594 48.6749 78.5981C48.5175 78.6761 48.7101 78.9034 48.4962 78.986C48.4018 78.7143 48.3905 78.4206 48.4638 78.1425C48.5119 77.9114 48.7702 78.0385 48.9267 78.058C49.1239 78.0812 49.1989 78.2928 49.098 78.4014C48.9073 78.613 48.9999 78.7605 49.1582 78.9749Z" fill="#5E3B97"/>
</g>
<defs>
<clipPath id="clip0">
<rect width="80" height="80" fill="white" transform="translate(4 4)"/>
</clipPath>
</defs>
</svg>
