<svg width="88" height="88" viewBox="0 0 88 88" fill="none" xmlns="http://www.w3.org/2000/svg">
<path d="M44.0414 -4.15566e-05C35.3373 -0.00822984 26.8263 2.56536 19.5851 7.39516C12.3438 12.225 6.69782 19.094 3.36121 27.1332C0.0246089 35.1724 -0.852646 44.0206 0.840427 52.5585C2.5335 61.0964 6.72082 68.9403 12.8727 75.098C19.0245 81.2556 26.8645 85.4503 35.4008 87.1515C43.9371 88.8526 52.7862 87.9836 60.8285 84.6546C68.8709 81.3256 75.7452 75.686 80.5818 68.4493C85.4184 61.2127 88 52.7041 88 44C87.9891 32.341 83.3555 21.162 75.1153 12.914C66.875 4.66592 55.7004 0.0218687 44.0414 -4.15566e-05ZM44.0414 84.8541C35.9583 84.8562 28.0561 82.461 21.3344 77.9715C14.6127 73.4821 9.37336 67.1 6.27914 59.6326C3.18492 52.1651 2.37479 43.9478 3.95123 36.0199C5.52766 28.092 9.41984 20.8097 15.1355 15.094C20.8511 9.37839 28.1334 5.48621 36.0613 3.90977C43.9892 2.33334 52.2066 3.14346 59.674 6.23768C67.1415 9.33191 73.5235 14.5712 78.013 21.2929C82.5025 28.0147 84.8976 35.9168 84.8956 44C84.8819 54.831 80.5732 65.2144 72.9146 72.8731C65.2559 80.5318 54.8724 84.8404 44.0414 84.8541Z" fill="#222D65"/>
<path d="M51.2631 14.0526H51.0872C45.9443 12.8444 40.577 12.9809 35.5022 14.449C30.4274 15.9171 25.8161 18.6672 22.1126 22.4345C21.9849 22.5296 21.8701 22.6409 21.7711 22.7656C17.0956 27.6775 14.1721 33.9953 13.4543 40.7386C12.7365 47.4819 14.2646 54.2736 17.8013 60.0596C21.3381 65.8457 26.6858 70.3025 33.0145 72.7386C39.3433 75.1746 46.2991 75.4536 52.8026 73.5322C59.3061 71.6108 64.9936 67.5965 68.9823 62.1123C72.9711 56.6281 75.0382 49.9806 74.8627 43.2015C74.6872 36.4224 72.2791 29.8907 68.0119 24.6202C63.7448 19.3496 57.8573 15.6349 51.2631 14.0526ZM38.1418 23.0347L39.1041 27.0497L34.7993 30.0817L32.6573 29.5126L31.0844 26.5737C30.9417 26.3086 30.7263 26.0896 30.4635 25.9425L25.693 23.3037C30.6942 18.8498 37.1467 16.3704 43.8436 16.3291L42.5707 16.7741C42.2863 16.8767 42.0357 17.0558 41.8464 17.2915L38.4315 21.7308C38.2855 21.9149 38.1834 22.13 38.1332 22.3595C38.083 22.5891 38.0859 22.8271 38.1418 23.0554V23.0347ZM44.0402 71.6913C38.7017 71.6995 33.4748 70.1626 28.9904 67.2662C24.5059 64.3697 20.9555 60.2374 18.7674 55.3679C16.5794 50.4984 15.8472 45.0997 16.6593 39.8233C17.4714 34.5469 19.793 29.6183 23.344 25.6321L28.5181 28.4778L30.1944 31.5822C30.2964 31.769 30.4351 31.9332 30.6023 32.0648C30.7695 32.1964 30.9617 32.2927 31.1672 32.3479L34.6752 33.2896C34.8089 33.3098 34.945 33.3098 35.0787 33.2896C35.4003 33.2907 35.7145 33.1932 35.979 33.0102L41.7843 28.9745C42.0399 28.7933 42.2355 28.5398 42.3462 28.2467C42.4568 27.9535 42.4773 27.634 42.4052 27.3291L41.3704 23.014L44.0505 19.5577L50.8906 17.157C57.4162 18.832 63.1069 22.8294 66.8961 28.4C70.6854 33.9705 72.313 40.7317 71.4739 47.4164C70.6348 54.1011 67.3867 60.2503 62.3382 64.7115C57.2898 69.1727 50.7876 71.6397 44.0505 71.6499" fill="#222D65"/>
<path d="M49.039 36.7253H58.9628C59.3309 36.665 59.6657 36.4758 59.9072 36.1915C60.1488 35.9071 60.2814 35.5462 60.2814 35.1731C60.2814 34.8 60.1488 34.4391 59.9072 34.1548C59.6657 33.8705 59.3309 33.6812 58.9628 33.6209H49.039C48.7009 33.6196 48.3701 33.5232 48.0842 33.3427C47.7984 33.1621 47.5692 32.9048 47.4228 32.6C47.2764 32.2953 47.2188 31.9555 47.2565 31.6196C47.2942 31.2836 47.4257 30.9651 47.636 30.7004C47.8462 30.4357 48.1268 30.2355 48.4455 30.1228C48.7642 30.0101 49.1082 29.9894 49.4382 30.0631C49.7681 30.1367 50.0706 30.3018 50.3112 30.5394C50.5517 30.7769 50.7204 31.0774 50.7982 31.4064C50.897 31.8112 51.1525 32.1602 51.5086 32.3766C51.8647 32.593 52.2922 32.659 52.697 32.5602C53.1018 32.4614 53.4508 32.2059 53.6672 31.8498C53.8836 31.4937 53.9496 31.0662 53.8508 30.6614C53.6388 29.7579 53.1763 28.9325 52.5165 28.2799C51.8567 27.6273 51.0263 27.1739 50.1206 26.9718C49.2149 26.7697 48.2705 26.8269 47.3959 27.1371C46.5212 27.4472 45.7517 27.9976 45.1756 28.7252C44.5995 29.4527 44.2402 30.3279 44.1389 31.2504C44.0376 32.1729 44.1983 33.1052 44.6028 33.9404C45.0072 34.7757 45.6389 35.48 46.4254 35.9726C47.2119 36.4652 48.1213 36.7261 49.0493 36.7253" fill="#222D65"/>
<path d="M35.1006 56.428H27.681C27.3437 56.4305 27.0124 56.3387 26.7244 56.163C26.4365 55.9873 26.2033 55.7346 26.0513 55.4335C25.8992 55.1324 25.8342 54.7948 25.8637 54.4588C25.8932 54.1228 26.016 53.8016 26.2182 53.5316C26.4204 53.2616 26.694 53.0535 27.0082 52.9306C27.3223 52.8077 27.6646 52.7751 27.9963 52.8363C28.328 52.8975 28.6361 53.0501 28.8857 53.277C29.1353 53.5039 29.3166 53.796 29.4092 54.1204C29.5244 54.5197 29.7936 54.8569 30.1575 55.0577C30.5213 55.2586 30.9501 55.3067 31.3494 55.1914C31.7487 55.0761 32.0859 54.807 32.2868 54.4431C32.4876 54.0792 32.5357 53.6505 32.4204 53.2511C32.1648 52.3705 31.6688 51.5786 30.9883 50.964C30.3077 50.3495 29.4694 49.9366 28.5674 49.7718C27.6654 49.607 26.7352 49.6967 25.8813 50.0309C25.0274 50.365 24.2835 50.9305 23.7329 51.6638C23.1823 52.397 22.8469 53.2692 22.7642 54.1824C22.6816 55.0957 22.8549 56.0139 23.2649 56.8341C23.6748 57.6544 24.3051 58.3442 25.0851 58.8263C25.8652 59.3084 26.7641 59.5636 27.681 59.5635H35.1006C35.4688 59.5032 35.8035 59.3139 36.045 59.0296C36.2866 58.7453 36.4192 58.3843 36.4192 58.0113C36.4192 57.6382 36.2866 57.2773 36.045 56.9929C35.8035 56.7086 35.4688 56.5194 35.1006 56.4591" fill="#222D65"/>
<path d="M62.2527 40.3573C62.0156 40.3514 61.7801 40.3985 61.5635 40.4952C61.3469 40.5919 61.1546 40.7357 61.0006 40.9161L57.2857 45.4072L56.3647 44.3724L57.3995 41.3922C57.4838 41.1482 57.5065 40.8872 57.4653 40.6325C57.4242 40.3777 57.3206 40.137 57.1638 39.9321C57.007 39.7271 56.8018 39.5641 56.5667 39.4578C56.3315 39.3514 56.0737 39.305 55.8162 39.3225L45.5716 39.9848C45.3213 39.9995 45.0782 40.075 44.8637 40.2049C44.6491 40.3347 44.4694 40.5149 44.3402 40.7299L41.2358 45.9039L38.6074 48.5323C38.3993 48.741 38.2541 49.004 38.1882 49.2912C38.1224 49.5785 38.1385 49.8785 38.2349 50.157L40.3045 56.014C40.4243 56.3516 40.6558 56.6382 40.9606 56.8263C41.2654 57.0145 41.6254 57.093 41.9809 57.0488L48.376 56.252L49.6695 56.9764L50.7043 60.9086C50.7693 61.1643 50.8985 61.3992 51.0795 61.5912C51.2606 61.7831 51.4876 61.9257 51.7391 62.0055L57.3684 63.8371C57.524 63.8947 57.6889 63.9228 57.8548 63.9199C58.2787 63.9155 58.6838 63.7445 58.9827 63.4439C59.8209 62.5643 67.1474 54.7826 66.4023 49.2153C66.128 46.2698 65.156 43.432 63.5669 40.9368C63.4108 40.7415 63.2097 40.5868 62.9809 40.4859C62.7521 40.3851 62.5023 40.3409 62.2527 40.3573ZM57.2857 60.5671L53.4155 59.3047L52.4531 55.5587C52.4009 55.3547 52.3079 55.1634 52.1799 54.9962C52.0519 54.8291 51.8914 54.6895 51.708 54.5859L49.3797 53.2821C49.0877 53.117 48.7499 53.0516 48.4174 53.0958L42.7673 53.8098L41.4324 50.0431L43.502 47.9735C43.5921 47.889 43.6689 47.7913 43.7297 47.6838L46.6064 43.0789L53.6949 42.6236L53.1361 44.2689C53.0447 44.5366 53.0273 44.8241 53.0856 45.1009C53.1438 45.3777 53.2757 45.6337 53.4672 45.8418L56.2302 48.8221C56.3796 48.9875 56.5638 49.1179 56.7695 49.2038C56.9753 49.2896 57.1975 49.3289 57.4202 49.3188C57.6418 49.3126 57.8597 49.2596 58.0594 49.1633C58.2592 49.067 58.4363 48.9296 58.5792 48.76L61.9423 44.7035C62.5687 46.2975 62.9794 47.9679 63.1634 49.6706C63.5462 52.506 59.9762 57.5765 57.2546 60.5982" fill="#222D65"/>
<path d="M52.4857 64.158L51.3888 64.8203C51.0929 64.9951 50.8629 65.2626 50.7344 65.5814C50.6059 65.9001 50.5861 66.2524 50.678 66.5835C50.7699 66.9147 50.9685 67.2063 51.2429 67.4132C51.5173 67.6201 51.8523 67.7308 52.196 67.7281C52.4776 67.728 52.7536 67.6491 52.9928 67.5005L54.1 66.8382C54.276 66.7322 54.4294 66.5926 54.5514 66.4273C54.6734 66.262 54.7617 66.0743 54.8112 65.8749C54.8607 65.6755 54.8704 65.4684 54.8398 65.2652C54.8092 65.0621 54.7389 64.8669 54.6329 64.6909C54.5269 64.515 54.3873 64.3616 54.222 64.2396C54.0568 64.1175 53.8691 64.0293 53.6697 63.9798C53.4703 63.9303 53.2631 63.9206 53.06 63.9511C52.8568 63.9817 52.6617 64.052 52.4857 64.158Z" fill="#222D65"/>
<circle cx="76" cy="12" r="11" fill="#6FCF97"/>
<path fill-rule="evenodd" clip-rule="evenodd" d="M82.6866 7.27299C83.0881 7.6522 83.1062 8.28511 82.727 8.68663L75.1715 16.6866C74.9826 16.8866 74.7196 17 74.4444 17C74.1693 17 73.9063 16.8866 73.7174 16.6866L69.273 11.9807C68.8938 11.5792 68.9119 10.9463 69.3134 10.5671C69.7149 10.1879 70.3478 10.206 70.727 10.6075L74.4444 14.5436L81.273 7.31338C81.6522 6.91186 82.2851 6.89378 82.6866 7.27299Z" fill="white"/>
</svg>
