<svg width="96" height="66" viewBox="0 0 96 66" fill="none" xmlns="http://www.w3.org/2000/svg">
<g filter="url(#filter0_d)">
<rect x="8" y="4" width="80" height="50" fill="#758487"/>
<path fill-rule="evenodd" clip-rule="evenodd" d="M41.5452 30.3985C41.0109 30.2204 40.4765 30.0423 39.8531 29.7752C40.7437 29.5971 41.4562 29.7752 41.9905 29.9533C42.8811 29.5971 43.5936 29.241 44.3951 28.9739C44.7513 28.8849 45.1966 28.9739 45.6419 29.0629C44.8404 29.5081 43.8608 29.6862 43.1483 30.4875C43.3264 30.6656 43.5936 30.8436 43.7717 30.9327C45.1076 32.0011 45.9981 33.4257 45.82 35.2954C45.6419 37.3432 43.8608 38.7678 41.8124 38.3226C41.0109 38.1445 40.2984 37.8774 39.4969 37.6103C38.9626 38.6787 38.4282 39.7471 37.8048 40.9936C38.072 41.2607 38.3392 41.6169 38.6063 41.884C39.0516 42.2401 39.4078 42.6853 39.8531 43.0414C40.9218 44.0208 42.2577 44.2879 43.6826 44.0208C43.7717 44.0208 43.8608 44.0208 44.0389 44.0208C43.6826 44.555 42.9702 44.9112 42.1687 45.0002C40.2984 45.0002 38.6954 44.2879 37.5376 42.8634C37.3595 42.6853 37.1814 42.5072 37.0033 42.2401C35.7565 44.0208 34.1534 45.0002 32.016 45.0002C31.2145 45.0002 30.502 44.7331 29.8786 44.1099C33.0847 44.7331 34.5987 42.9524 36.2018 40.9936C35.6674 39.9252 35.1331 38.8568 34.5987 37.7884C33.8862 38.0555 33.1738 38.3226 32.5504 38.4116C30.3239 38.8568 28.4537 37.3432 28.3646 35.0283C28.2756 33.3366 29.0771 32.1792 30.3239 31.1107C30.502 30.9327 30.6802 30.7546 30.9473 30.5765C30.3239 29.6862 29.3443 29.5971 28.6318 29.152C29.9677 28.8849 31.0364 29.4191 31.927 30.0423C32.8176 29.9533 33.53 29.8642 34.3315 29.6862C34.3315 29.7752 34.3315 29.7752 34.3315 29.8642C33.7081 30.1313 33.1738 30.3094 32.6394 30.4875C33.6191 32.2682 34.5987 33.8708 35.5784 35.6515C36.2908 35.2954 36.647 34.405 37.3595 33.6928C37.6267 34.0489 37.8939 34.405 38.161 34.7612C38.4282 35.0283 38.6954 35.3844 38.9626 35.6515C39.586 33.8708 40.5656 32.1792 41.5452 30.3985ZM39.8531 36.2748C40.5656 36.72 41.189 36.9871 41.8124 36.9871C43.3264 36.898 44.6623 36.0077 44.5732 34.1379C44.4842 33.1585 44.1279 32.3572 43.5045 31.6449C43.2373 31.3778 42.9702 31.1107 42.703 30.8436C41.3671 32.6243 40.5656 34.4941 39.8531 36.2748ZM33.9753 36.4528C33.1738 34.5831 32.5504 32.7134 31.3036 31.1107C30.2349 31.823 29.7005 32.8024 29.4333 33.9599C29.1662 35.2064 29.7896 36.2748 30.8583 36.809C31.927 37.1651 32.9066 36.9871 33.9753 36.4528ZM35.4893 36.72C35.9346 37.6993 36.2018 38.5897 36.9142 39.5691C37.4486 38.5007 37.8939 37.6103 38.3392 36.6309C37.8048 36.0967 37.4486 35.6515 36.9142 35.1173C36.4689 35.6515 36.0236 36.1857 35.4893 36.72Z" fill="white"/>
<path fill-rule="evenodd" clip-rule="evenodd" d="M24 17.1321C24.3562 16.954 24.6234 16.6869 24.9796 16.5088C27.2061 15.2623 29.5216 14.5501 32.1043 14.1049C35.9338 13.4816 39.7633 13.9268 43.4147 15.1733C46.4426 16.1527 49.2925 17.6663 51.608 19.9812C53.4782 21.8509 54.8141 24.0768 55.2594 26.7479C55.4375 27.7273 55.3485 29.1518 55.0813 29.9531C54.9922 29.7751 54.8141 29.686 54.8141 29.508C54.0126 27.2821 52.7658 25.2343 51.0737 23.4536C49.6487 22.029 48.1348 20.7825 46.3536 19.8031C42.8803 17.8444 39.2289 16.6869 35.3104 16.3308C33.0839 16.0637 30.7684 16.0637 28.542 16.4198C27.2061 16.5979 25.8702 17.043 24.6234 17.3992C24.4453 17.3992 24.3562 17.4882 24.1781 17.4882C24.0891 17.2211 24.0891 17.1321 24 17.1321Z" fill="white"/>
<path fill-rule="evenodd" clip-rule="evenodd" d="M57.0413 44.8218C57.4866 44.0205 57.8428 43.3972 58.199 42.774C60.4255 38.9455 62.4738 35.0279 63.9878 30.8433C64.7003 28.9735 65.2346 27.0148 65.1455 24.8779C65.1455 24.1656 65.0565 23.4534 64.9674 22.8301C64.7003 21.3165 65.3237 19.981 66.2142 18.8235C67.1048 17.7551 68.2626 17.0428 69.5985 16.5977C69.6875 16.5977 69.7766 16.5977 69.8656 16.5977C69.5094 16.9538 69.2422 17.2209 68.975 17.488C67.9064 18.3784 67.8173 19.5358 67.9954 20.7823C68.1735 21.6727 68.3516 22.563 68.5298 23.4534C68.975 25.5012 68.5298 27.4599 67.8173 29.4187C66.8377 31.9117 65.4127 34.1376 63.8097 36.2744C61.7613 39.1236 59.5349 41.7946 57.3084 44.5547C57.3084 44.6437 57.2194 44.6437 57.0413 44.8218Z" fill="white"/>
<path fill-rule="evenodd" clip-rule="evenodd" d="M71.1992 15.6184C70.7539 15.4403 70.3086 15.1732 69.8634 14.9951C69.5962 14.9061 69.329 14.728 69.0618 14.8171C68.1713 15.0842 67.2807 14.8171 66.3901 14.728C64.4308 14.639 62.9168 15.3513 61.4919 16.5978C60.3341 17.5771 59.1764 18.6456 58.0186 19.625C57.128 20.2482 56.1484 20.7824 55.1688 21.3166C54.9906 21.4057 54.7235 21.4947 54.4563 21.4057C54.6344 21.2276 54.7235 21.0495 54.9016 20.9605C55.9703 19.8921 56.9499 18.7346 57.7514 17.5771C58.642 16.2416 59.7998 15.0842 61.1357 14.1938C63.0059 13.0364 64.8761 12.6802 67.0135 13.3035C67.4588 13.4815 67.9931 13.4815 68.5275 13.4815C69.9524 13.4815 70.9321 14.2828 71.1992 15.6184Z" fill="white"/>
<path fill-rule="evenodd" clip-rule="evenodd" d="M40.832 25.6793C40.7429 25.5903 40.5648 25.5903 40.4757 25.5013C40.5648 25.3232 40.5648 25.1451 40.6538 24.878C40.832 24.878 40.921 24.878 41.1882 24.878C41.2772 24.789 41.3663 24.6109 41.4554 24.3438C41.7225 24.4328 41.9007 24.6109 42.0788 24.7C41.7225 25.7684 41.3663 26.7478 40.921 27.9943C40.6538 28.0833 40.2086 28.3504 39.7633 28.4394C37.893 28.7065 36.1119 28.7065 34.2417 28.4394C33.7964 28.3504 33.3511 28.1723 33.0839 28.0833C32.6386 26.9258 32.2824 25.8574 31.9261 24.789C32.1043 24.7 32.2824 24.6109 32.5496 24.4328C32.6386 24.7 32.7277 24.878 32.7277 25.0561C32.9058 25.0561 32.9948 24.9671 33.262 24.9671C33.3511 25.1451 33.4401 25.3232 33.5292 25.5903C33.3511 25.6793 33.262 25.7684 33.0839 25.8574C33.262 26.2136 34.0635 26.0355 34.5088 25.5903C34.3307 25.0561 34.0635 25.5903 33.7964 25.5013C33.7964 25.4122 33.7073 25.3232 33.7073 25.2342C33.8854 24.7 34.1526 24.2548 34.4198 23.6315C34.5979 23.8096 34.6869 23.8986 34.776 23.9877C34.8651 24.0767 34.8651 24.2548 34.9541 24.3438C35.2213 24.5219 35.7556 24.5219 35.6666 25.0561C35.4885 25.1451 35.3104 25.2342 35.1322 25.3232C35.2213 25.4122 35.3104 25.5903 35.3994 25.5903C35.9338 25.7684 36.29 25.5903 36.5572 25.0561C36.3791 24.9671 36.1119 24.878 35.8447 24.789C35.8447 24.6109 35.8447 24.3438 35.8447 24.0767C36.0228 23.9877 36.2009 23.9877 36.3791 23.8986C36.3791 23.7206 36.4681 23.5425 36.4681 23.2754C36.8243 23.2754 37.1806 23.2754 37.5368 23.2754C37.5368 23.4535 37.5368 23.6315 37.4478 23.8986C37.6259 23.8986 37.804 23.8986 37.9821 23.9877C37.9821 24.2548 37.9821 24.5219 37.9821 24.789C37.804 24.878 37.5368 24.9671 37.3587 25.0561C37.7149 25.7684 38.0712 25.8574 38.7836 25.4122C38.6055 25.1451 38.5164 25.1451 38.4274 25.0561C38.3383 24.9671 38.2493 24.9671 38.1602 24.878C38.1602 24.3438 38.5164 24.3438 38.8727 24.2548C39.0508 23.9877 39.1399 23.7206 39.2289 23.5425C39.7633 23.6315 39.5851 24.0767 39.6742 24.4328C39.9414 24.6109 40.3867 24.789 39.9414 25.3232C39.7633 25.2342 39.5851 25.1451 39.407 25.1451C39.407 25.3232 39.318 25.4122 39.407 25.5013C39.7633 25.8574 40.2086 25.9464 40.832 25.6793ZM33.6182 27.1039C34.3307 27.0149 35.0432 26.9258 35.8447 26.9258C36.5572 26.9258 37.3587 26.9258 38.0712 26.9258C38.7836 26.9258 39.4961 27.1039 40.2086 27.1039C37.9821 26.3916 35.7556 26.3916 33.6182 27.1039ZM40.1195 27.7271C39.5851 27.1039 37.5368 26.8368 35.5775 27.1039C34.9541 27.1929 34.1526 27.1039 33.7073 27.7271C34.6869 27.1929 35.8447 27.282 36.9134 27.371C37.893 27.371 39.0508 27.1929 40.1195 27.7271ZM34.2417 25.9464C34.776 26.3916 34.8651 26.3916 35.3104 25.6793C34.9541 25.7684 34.6869 25.8574 34.2417 25.9464ZM39.407 26.0355C39.0508 25.7684 38.8727 25.5903 38.5164 25.9464C38.7836 26.3026 38.9617 26.3916 39.407 26.0355ZM37.2696 25.7684C37.0025 25.7684 36.7353 25.7684 36.4681 25.7684C36.7353 26.2136 37.0025 26.2136 37.2696 25.7684ZM32.6386 26.1245C32.8167 26.5697 32.9948 26.6587 33.173 26.3026C32.9948 26.3026 32.9058 26.2136 32.6386 26.1245ZM40.921 26.6587C41.0101 26.4807 41.0101 26.3916 41.0101 26.3026C41.0101 26.3026 40.921 26.2136 40.832 26.2136C40.7429 26.2136 40.6538 26.3026 40.6538 26.3916C40.7429 26.4807 40.832 26.4807 40.921 26.6587Z" fill="white"/>
</g>
<defs>
<filter id="filter0_d" x="0" y="0" width="96" height="66" filterUnits="userSpaceOnUse" color-interpolation-filters="sRGB">
<feFlood flood-opacity="0" result="BackgroundImageFix"/>
<feColorMatrix in="SourceAlpha" type="matrix" values="0 0 0 0 0 0 0 0 0 0 0 0 0 0 0 0 0 0 127 0"/>
<feOffset dy="4"/>
<feGaussianBlur stdDeviation="4"/>
<feColorMatrix type="matrix" values="0 0 0 0 0 0 0 0 0 0 0 0 0 0 0 0 0 0 0.05 0"/>
<feBlend mode="normal" in2="BackgroundImageFix" result="effect1_dropShadow"/>
<feBlend mode="normal" in="SourceGraphic" in2="effect1_dropShadow" result="shape"/>
</filter>
</defs>
</svg>
