<svg width="85" height="85" viewBox="0 0 85 85" fill="none" xmlns="http://www.w3.org/2000/svg" class='icon--oas'>
<g clip-path="url(#clip0)">
<path d="M42.5 0C34.0943 0 25.8774 2.49258 18.8883 7.16254C11.8992 11.8325 6.45186 18.4701 3.23514 26.236C0.0184145 34.0018 -0.823227 42.5471 0.816645 50.7913C2.45652 59.0355 6.50425 66.6083 12.448 72.552C18.3917 78.4958 25.9645 82.5435 34.2087 84.1834C42.4529 85.8232 50.9982 84.9816 58.7641 81.7649C66.5299 78.5482 73.1675 73.1008 77.8375 66.1117C82.5074 59.1226 85 50.9057 85 42.5C84.9868 31.2324 80.5049 20.43 72.5374 12.4626C64.57 4.49515 53.7677 0.0132327 42.5 0V0ZM42.5 82C34.6933 81.996 27.063 79.6777 20.5736 75.3381C14.0842 70.9985 9.0271 64.8323 6.04143 57.6191C3.05576 50.4059 2.27562 42.4694 3.7996 34.8129C5.32358 27.1564 9.08328 20.1236 14.6034 14.6034C20.1236 9.08326 27.1564 5.32356 34.813 3.79958C42.4695 2.2756 50.4059 3.05575 57.6191 6.04141C64.8323 9.02708 70.9985 14.0842 75.3381 20.5736C79.6777 27.063 81.9961 34.6933 82 42.5C81.9947 52.9744 77.8314 63.0183 70.4249 70.4249C63.0183 77.8314 52.9744 81.9947 42.5 82Z" fill="#4798D0"/>
<path d="M57.7499 57.18C56.803 57.18 55.895 56.8039 55.2255 56.1344C54.556 55.4649 54.1799 54.5568 54.1799 53.61C54.1216 53.2542 53.9387 52.9307 53.6639 52.6973C53.3892 52.4639 53.0404 52.3358 52.6799 52.3358C52.3193 52.3358 51.9705 52.4639 51.6958 52.6973C51.421 52.9307 51.2382 53.2542 51.1799 53.61C51.2055 54.0941 51.1323 54.5783 50.9647 55.0331C50.7972 55.4879 50.5387 55.9039 50.2051 56.2556C49.8716 56.6073 49.4699 56.8874 49.0246 57.0788C48.5792 57.2702 48.0996 57.3689 47.6149 57.3689C47.1301 57.3689 46.6505 57.2702 46.2052 57.0788C45.7598 56.8874 45.3581 56.6073 45.0246 56.2556C44.691 55.9039 44.4326 55.4879 44.265 55.0331C44.0974 54.5783 44.0242 54.0941 44.0499 53.61C44.0345 53.2075 43.865 52.8264 43.5766 52.5453C43.2881 52.2643 42.9026 52.1048 42.4999 52.1C42.1345 52.0984 41.7803 52.2259 41.4999 52.46C41.3395 52.6051 41.212 52.7827 41.1257 52.981C41.0395 53.1794 40.9966 53.3938 40.9999 53.61C40.9976 54.2327 40.832 54.8439 40.5197 55.3826C40.2073 55.9213 39.7591 56.3687 39.2199 56.68C38.679 57.0045 38.0606 57.1772 37.4299 57.18C36.483 57.18 35.575 56.8039 34.9055 56.1344C34.236 55.4649 33.8599 54.5568 33.8599 53.61C33.8843 53.3985 33.8638 53.1842 33.7996 52.9811C33.7353 52.7781 33.6289 52.591 33.4873 52.432C33.3456 52.273 33.1719 52.1458 32.9776 52.0587C32.7833 51.9715 32.5728 51.9265 32.3599 51.9265C32.1469 51.9265 31.9364 51.9715 31.7421 52.0587C31.5478 52.1458 31.3741 52.273 31.2325 52.432C31.0908 52.591 30.9844 52.7781 30.9202 52.9811C30.8559 53.1842 30.8354 53.3985 30.8599 53.61C30.8572 54.556 30.4803 55.4625 29.8113 56.1315C29.1424 56.8004 28.2359 57.1774 27.2899 57.18C26.9341 57.2383 26.6106 57.4212 26.3772 57.6959C26.1438 57.9707 26.0156 58.3195 26.0156 58.68C26.0156 59.0405 26.1438 59.3893 26.3772 59.6641C26.6106 59.9389 26.9341 60.1217 27.2899 60.18C28.261 60.1784 29.2199 59.9624 30.098 59.5476C30.9761 59.1327 31.7518 58.5292 32.3699 57.78C32.9879 58.5292 33.7636 59.1327 34.6417 59.5476C35.5198 59.9624 36.4787 60.1784 37.4499 60.18C38.42 60.1782 39.3779 59.9632 40.2558 59.5502C41.1336 59.1372 41.91 58.5363 42.5299 57.79C42.8966 58.2119 43.3129 58.588 43.7699 58.91C44.8829 59.7297 46.2276 60.1744 47.6099 60.18C48.581 60.1784 49.5399 59.9624 50.418 59.5476C51.2961 59.1327 52.0718 58.5292 52.6899 57.78C53.3079 58.5292 54.0836 59.1327 54.9617 59.5476C55.8398 59.9624 56.7987 60.1784 57.7699 60.18C58.1256 60.1217 58.4491 59.9389 58.6825 59.6641C58.9159 59.3893 59.0441 59.0405 59.0441 58.68C59.0441 58.3195 58.9159 57.9707 58.6825 57.6959C58.4491 57.4212 58.1256 57.2383 57.7699 57.18H57.7499Z" fill="#4798D0"/>
<path d="M27.2601 32.56C28.2313 32.5584 29.1901 32.3424 30.0682 31.9276C30.9463 31.5127 31.7221 30.9092 32.3401 30.16C32.9581 30.9092 33.7339 31.5127 34.612 31.9276C35.4901 32.3424 36.4489 32.5584 37.4201 32.56C38.3913 32.5584 39.3501 32.3424 40.2282 31.9276C41.1063 31.5127 41.8821 30.9092 42.5001 30.16C42.8666 30.585 43.283 30.9644 43.7401 31.29C44.8553 32.1054 46.1986 32.5497 47.5801 32.56C48.5513 32.5584 49.5101 32.3424 50.3882 31.9276C51.2663 31.5127 52.0421 30.9092 52.6601 30.16C53.2781 30.9092 54.0539 31.5127 54.932 31.9276C55.8101 32.3424 56.7689 32.5584 57.7401 32.56C58.0959 32.5017 58.4194 32.3189 58.6528 32.0441C58.8862 31.7693 59.0143 31.4205 59.0143 31.06C59.0143 30.6995 58.8862 30.3507 58.6528 30.0759C58.4194 29.8012 58.0959 29.6183 57.7401 29.56C56.7967 29.5574 55.8928 29.1815 55.2257 28.5144C54.5587 27.8473 54.1827 26.9434 54.1801 26C54.1218 25.6442 53.9389 25.3208 53.6642 25.0873C53.3894 24.8539 53.0406 24.7258 52.6801 24.7258C52.3196 24.7258 51.9708 24.8539 51.696 25.0873C51.4212 25.3208 51.2384 25.6442 51.1801 26C51.1801 26.9521 50.8019 27.8653 50.1286 28.5385C49.4554 29.2118 48.5422 29.59 47.5901 29.59C46.638 29.59 45.7248 29.2118 45.0516 28.5385C44.3783 27.8653 44.0001 26.9521 44.0001 26C43.9979 25.7861 43.9494 25.5752 43.8579 25.3819C43.7664 25.1885 43.6341 25.0173 43.4701 24.88C43.1995 24.626 42.8412 24.4863 42.4701 24.49C42.1048 24.4884 41.7506 24.6159 41.4701 24.85C41.3147 24.9974 41.1924 25.1762 41.1113 25.3744C41.0303 25.5727 40.9924 25.786 41.0001 26C40.9847 26.6118 40.8119 27.2092 40.4984 27.7347C40.1848 28.2602 39.7411 28.696 39.2101 29C38.6692 29.3245 38.0508 29.4972 37.4201 29.5C36.4853 29.5002 35.5877 29.1337 34.9202 28.4793C34.2526 27.8248 33.8684 26.9347 33.8501 26C33.8746 25.7885 33.854 25.5742 33.7898 25.3712C33.7256 25.1681 33.6192 24.981 33.4775 24.822C33.3358 24.663 33.1622 24.5358 32.9679 24.4487C32.7736 24.3616 32.563 24.3165 32.3501 24.3165C32.1372 24.3165 31.9266 24.3616 31.7323 24.4487C31.538 24.5358 31.3643 24.663 31.2227 24.822C31.081 24.981 30.9746 25.1681 30.9104 25.3712C30.8462 25.5742 30.8256 25.7885 30.8501 26C30.8475 26.946 30.4705 27.8525 29.8016 28.5215C29.1326 29.1904 28.2261 29.5674 27.2801 29.57C26.9243 29.6283 26.6008 29.8112 26.3674 30.0859C26.134 30.3607 26.0059 30.7095 26.0059 31.07C26.0059 31.4305 26.134 31.7793 26.3674 32.0541C26.6008 32.3289 26.9243 32.5117 27.2801 32.57L27.2601 32.56Z" fill="#4798D0"/>
<path d="M68.06 37.8C67.6603 37.8026 67.2778 37.9626 66.9952 38.2452C66.7125 38.5278 66.5526 38.9104 66.55 39.31C66.5798 39.9688 66.4759 40.6268 66.2443 41.2442C66.0128 41.8617 65.6585 42.4258 65.2029 42.9026C64.7473 43.3793 64.1998 43.7587 63.5934 44.018C62.987 44.2772 62.3344 44.4109 61.675 44.4109C61.0156 44.4109 60.363 44.2772 59.7566 44.018C59.1502 43.7587 58.6027 43.3793 58.1471 42.9026C57.6915 42.4258 57.3372 41.8617 57.1057 41.2442C56.8741 40.6268 56.7702 39.9688 56.8 39.31C56.8245 39.0985 56.8039 38.8842 56.7397 38.6812C56.6755 38.4781 56.5691 38.291 56.4274 38.132C56.2857 37.973 56.1121 37.8458 55.9178 37.7587C55.7235 37.6716 55.5129 37.6265 55.3 37.6265C55.0871 37.6265 54.8765 37.6716 54.6822 37.7587C54.4879 37.8458 54.3143 37.973 54.1726 38.132C54.0309 38.291 53.9245 38.4781 53.8603 38.6812C53.7961 38.8842 53.7755 39.0985 53.8 39.31C53.7431 40.5674 53.2036 41.7544 52.2937 42.624C51.3838 43.4936 50.1736 43.9789 48.915 43.9789C47.6564 43.9789 46.4462 43.4936 45.5363 42.624C44.6264 41.7544 44.0869 40.5674 44.03 39.31C44.0314 39.1096 43.9926 38.911 43.9159 38.7259C43.8393 38.5408 43.7263 38.3729 43.5837 38.2321C43.4411 38.0913 43.2717 37.9806 43.0856 37.9064C42.8994 37.8322 42.7003 37.796 42.5 37.8C42.1021 37.8052 41.7221 37.9663 41.4416 38.2487C41.1611 38.531 41.0026 38.9121 41 39.31C41.0298 39.9688 40.9259 40.6268 40.6943 41.2442C40.4628 41.8617 40.1085 42.4258 39.6529 42.9026C39.1973 43.3793 38.6498 43.7587 38.0434 44.018C37.4371 44.2772 36.7844 44.4109 36.125 44.4109C35.4656 44.4109 34.8129 44.2772 34.2066 44.018C33.6002 43.7587 33.0527 43.3793 32.5971 42.9026C32.1415 42.4258 31.7872 41.8617 31.5557 41.2442C31.3241 40.6268 31.2202 39.9688 31.25 39.31C31.2745 39.0985 31.2539 38.8842 31.1897 38.6812C31.1255 38.4781 31.0191 38.291 30.8774 38.132C30.7357 37.973 30.5621 37.8458 30.3678 37.7587C30.1735 37.6716 29.9629 37.6265 29.75 37.6265C29.5371 37.6265 29.3265 37.6716 29.1322 37.7587C28.9379 37.8458 28.7643 37.973 28.6226 38.132C28.4809 38.291 28.3745 38.4781 28.3103 38.6812C28.2461 38.8842 28.2255 39.0985 28.25 39.31C28.2798 39.9688 28.1759 40.6268 27.9443 41.2442C27.7128 41.8617 27.3585 42.4258 26.9029 42.9026C26.4473 43.3793 25.8998 43.7587 25.2934 44.018C24.687 44.2772 24.0344 44.4109 23.375 44.4109C22.7156 44.4109 22.063 44.2772 21.4566 44.018C20.8502 43.7587 20.3027 43.3793 19.8471 42.9026C19.3915 42.4258 19.0372 41.8617 18.8057 41.2442C18.5741 40.6268 18.4702 39.9688 18.5 39.31C18.4417 38.9542 18.2589 38.6308 17.9841 38.3973C17.7093 38.1639 17.3605 38.0358 17 38.0358C16.6395 38.0358 16.2907 38.1639 16.0159 38.3973C15.7411 38.6308 15.5583 38.9542 15.5 39.31C15.5003 40.9795 16.0295 42.606 17.0116 43.956C17.9937 45.306 19.3782 46.3102 20.9665 46.8245C22.5548 47.3387 24.2652 47.3366 25.8522 46.8184C27.4392 46.3002 28.8213 45.2925 29.8 43.94C30.0902 44.3467 30.4257 44.7191 30.8 45.05C30.917 45.1737 31.0441 45.2874 31.18 45.39C31.7649 45.8847 32.4226 46.2861 33.13 46.58C33.34 46.66 33.54 46.74 33.76 46.8C33.9413 46.8731 34.1287 46.93 34.32 46.97C34.5786 47.0445 34.8428 47.098 35.11 47.13C35.4705 47.1869 35.8351 47.2136 36.2 47.21C37.4463 47.2083 38.6743 46.911 39.7834 46.3426C40.8925 45.7741 41.8509 44.9508 42.58 43.94C43.3143 44.9525 44.278 45.7767 45.3922 46.345C46.5063 46.9134 47.7393 47.2098 48.99 47.21C49.3282 47.2095 49.6659 47.1828 50 47.13C50.267 47.0969 50.5311 47.0434 50.79 46.97C51.0014 46.9233 51.2087 46.8598 51.41 46.78C51.5798 46.7395 51.7443 46.6791 51.9 46.6C52.1184 46.5188 52.3321 46.4253 52.54 46.32C53.0408 46.07 53.5078 45.7575 53.93 45.39C54.0082 45.3289 54.0817 45.2621 54.15 45.19C54.3433 45.0419 54.5208 44.8743 54.68 44.69C54.8998 44.4512 55.1068 44.2008 55.3 43.94C56.278 45.2904 57.6588 46.2962 59.244 46.8131C60.8292 47.33 62.5374 47.3315 64.1235 46.8172C65.7095 46.3029 67.0919 45.2995 68.0722 43.9507C69.0525 42.602 69.5804 40.9774 69.58 39.31C69.5813 39.1105 69.5429 38.9127 69.4668 38.7283C69.3908 38.5438 69.2787 38.3763 69.1372 38.2357C68.9956 38.0951 68.8275 37.9841 68.6425 37.9093C68.4575 37.8345 68.2595 37.7974 68.06 37.8Z" fill="#4798D0"/>
</g>
<defs>
<clipPath id="clip0">
<path d="M0 0H85V85H0V0Z" fill="white"/>
</clipPath>
</defs>
</svg>
