<svg width="85" height="85" viewBox="0 0 85 85" fill="none" xmlns="http://www.w3.org/2000/svg" class='icon--oas'>
<g clip-path="url(#clip0)">
<path d="M47.0502 42.5C47.0482 41.6005 46.7797 40.7218 46.2785 39.9749C45.7774 39.228 45.0661 38.6463 44.2345 38.3035C43.4029 37.9606 42.4884 37.872 41.6064 38.0486C40.7245 38.2253 39.9147 38.6595 39.2793 39.2962C38.644 39.9329 38.2116 40.7437 38.0369 41.626C37.8621 42.5083 37.9528 43.4227 38.2975 44.2535C38.6422 45.0843 39.2254 45.7943 39.9734 46.2939C40.7214 46.7934 41.6007 47.06 42.5002 47.06C43.0985 47.06 43.691 46.942 44.2437 46.7127C44.7964 46.4834 45.2984 46.1474 45.7211 45.7238C46.1437 45.3002 46.4786 44.7975 46.7067 44.2443C46.9348 43.6911 47.0515 43.0983 47.0502 42.5V42.5ZM41.0002 42.5C40.9943 42.1949 41.0797 41.895 41.2455 41.6389C41.4113 41.3827 41.6499 41.182 41.9307 41.0625C42.2115 40.943 42.5215 40.9102 42.8211 40.9682C43.1207 41.0263 43.396 41.1726 43.6118 41.3884C43.8275 41.6042 43.9739 41.8795 44.0319 42.1791C44.09 42.4786 44.0572 42.7887 43.9377 43.0695C43.8182 43.3502 43.6175 43.5889 43.3613 43.7547C43.1051 43.9205 42.8053 44.0059 42.5002 44C42.1056 43.9899 41.7299 43.8286 41.4507 43.5494C41.1716 43.2703 41.0103 42.8946 41.0002 42.5V42.5Z" fill="#222D64"/>
<path d="M48.5101 36.31L43.9301 22.83C43.8288 22.5312 43.6363 22.2716 43.3798 22.0877C43.1233 21.9039 42.8157 21.805 42.5001 21.805C42.1845 21.805 41.8769 21.9039 41.6204 22.0877C41.3639 22.2716 41.1715 22.5312 41.0701 22.83L36.4901 36.31C35.6609 37.1136 35.0016 38.0757 34.5514 39.139C34.1011 40.2023 33.8691 41.3453 33.8691 42.5C33.8691 43.6547 34.1011 44.7977 34.5514 45.861C35.0016 46.9244 35.6609 47.8864 36.4901 48.69L41.0701 62.17C41.1715 62.4689 41.3639 62.7285 41.6204 62.9123C41.8769 63.0962 42.1845 63.1951 42.5001 63.1951C42.8157 63.1951 43.1233 63.0962 43.3798 62.9123C43.6363 62.7285 43.8288 62.4689 43.9301 62.17L48.5101 48.69C49.3393 47.8864 49.9986 46.9244 50.4488 45.861C50.8991 44.7977 51.1311 43.6547 51.1311 42.5C51.1311 41.3453 50.8991 40.2023 50.4488 39.139C49.9986 38.0757 49.3393 37.1136 48.5101 36.31V36.31ZM36.9001 42.5C36.9021 41.3929 37.2322 40.3112 37.8487 39.3916C38.4653 38.472 39.3406 37.7557 40.364 37.3334C41.3874 36.9111 42.5131 36.8016 43.5987 37.0188C44.6844 37.2361 45.6813 37.7702 46.4634 38.5538C47.2456 39.3373 47.778 40.3352 47.9932 41.4212C48.2085 42.5072 48.097 43.6327 47.6729 44.6554C47.2487 45.678 46.531 46.552 45.6103 47.1669C44.6896 47.7818 43.6073 48.11 42.5001 48.11C41.7639 48.11 41.0349 47.9648 40.3548 47.6828C39.6747 47.4007 39.0569 46.9874 38.5368 46.4663C38.0166 45.9452 37.6044 45.3267 37.3235 44.6461C37.0427 43.9655 36.8988 43.2363 36.9001 42.5V42.5ZM42.5001 28L44.5701 34.09C43.8925 33.9246 43.1976 33.8406 42.5001 33.84C41.8027 33.8419 41.1079 33.9258 40.4301 34.09L42.5001 28ZM42.5001 57L40.4301 50.9C41.1079 51.0643 41.8027 51.1482 42.5001 51.15C43.1976 51.1494 43.8925 51.0655 44.5701 50.9L42.5001 57Z" fill="#222D64"/>
<path d="M42.5001 17.09C37.4721 17.09 32.557 18.5811 28.3765 21.3747C24.1959 24.1684 20.9378 28.139 19.0141 32.7845C17.0904 37.43 16.5876 42.5416 17.5693 47.4729C18.5509 52.4041 20.9729 56.9335 24.529 60.4882C28.085 64.0428 32.6154 66.4631 37.547 67.4428C42.4787 68.4225 47.5901 67.9177 52.2349 65.9921C56.8796 64.0666 60.849 60.8069 63.6409 56.6253C66.4329 52.4437 67.9221 47.528 67.9201 42.5C67.9122 35.7616 65.2311 29.3015 60.4654 24.5377C55.6996 19.7738 49.2386 17.0953 42.5001 17.09V17.09ZM42.5001 64.89C38.0722 64.888 33.7443 63.5732 30.0636 61.1117C26.3829 58.6503 23.5147 55.1528 21.8216 51.0614C20.1284 46.9699 19.6865 42.4684 20.5515 38.1258C21.4166 33.7832 23.5498 29.7946 26.6815 26.6643C29.8132 23.534 33.8027 21.4026 38.1457 20.5395C42.4887 19.6764 46.99 20.1204 51.0807 21.8153C55.1714 23.5102 58.6676 26.38 61.1274 30.0618C63.5872 33.7436 64.9001 38.0721 64.9001 42.5C64.8922 48.4375 62.5293 54.1294 58.3299 58.3269C54.1305 62.5244 48.4376 64.8847 42.5001 64.89V64.89Z" fill="#222D64"/>
<path d="M42.5002 12.75C36.6138 12.75 30.8597 14.4956 25.9654 17.7662C21.0712 21.0367 17.2568 25.6851 15.0046 31.1237C12.7525 36.5622 12.1637 42.5464 13.3128 48.3196C14.4619 54.0927 17.2973 59.3954 21.4603 63.557C25.6233 67.7187 30.927 70.5522 36.7005 71.6994C42.474 72.8466 48.4581 72.2558 53.8958 70.0018C59.3336 67.7478 63.9808 63.9318 67.2496 59.0365C70.5185 54.1412 72.2622 48.3864 72.2602 42.5C72.2523 34.6105 69.114 27.0466 63.5344 21.4688C57.9547 15.891 50.3897 12.7553 42.5002 12.75ZM42.5002 69.23C37.2136 69.23 32.0456 67.6623 27.6499 64.7252C23.2541 61.7881 19.8281 57.6134 17.8049 52.7291C15.7818 47.8449 15.2525 42.4704 16.2839 37.2852C17.3152 32.1001 19.861 27.3373 23.5993 23.599C27.3375 19.8608 32.1004 17.315 37.2855 16.2836C42.4706 15.2522 47.8451 15.7816 52.7294 17.8047C57.6136 19.8278 61.7883 23.2539 64.7254 27.6496C67.6626 32.0453 69.2302 37.2133 69.2302 42.5C69.2223 49.5868 66.4036 56.3811 61.3924 61.3922C56.3813 66.4033 49.587 69.2221 42.5002 69.23Z" fill="#222D64"/>
<path d="M42.5 0C34.0943 0 25.8774 2.49258 18.8883 7.16254C11.8992 11.8325 6.45186 18.4701 3.23514 26.236C0.0184145 34.0018 -0.823227 42.5472 0.816645 50.7913C2.45652 59.0355 6.50425 66.6083 12.448 72.552C18.3917 78.4958 25.9645 82.5435 34.2087 84.1834C42.4529 85.8233 50.9982 84.9816 58.7641 81.7649C66.5299 78.5482 73.1675 73.1008 77.8375 66.1117C82.5074 59.1227 85 50.9057 85 42.5C84.9868 31.2324 80.5049 20.43 72.5374 12.4626C64.57 4.49515 53.7677 0.0132327 42.5 0V0ZM42.5 82C34.6933 81.9961 27.063 79.6777 20.5736 75.3381C14.0842 70.9985 9.0271 64.8323 6.04143 57.6191C3.05576 50.4059 2.27562 42.4694 3.7996 34.8129C5.32358 27.1564 9.08328 20.1236 14.6034 14.6034C20.1236 9.08326 27.1564 5.32356 34.813 3.79958C42.4695 2.2756 50.4059 3.05575 57.6191 6.04141C64.8323 9.02708 70.9985 14.0842 75.3381 20.5736C79.6778 27.063 81.9961 34.6933 82 42.5C81.9947 52.9744 77.8314 63.0183 70.4249 70.4249C63.0184 77.8314 52.9744 81.9947 42.5 82V82Z" fill="#222D64"/>
</g>
<defs>
<clipPath id="clip0">
<path d="M0 0H85V85H0V0Z" fill="white"/>
</clipPath>
</defs>
</svg>
