<svg width="85" height="85" viewBox="0 0 85 85" fill="none" xmlns="http://www.w3.org/2000/svg" class='icon--oas'>
<g clip-path="url(#clip0)">
<path d="M42.5005 1.17632e-06C34.092 -0.00197637 25.8717 2.48947 18.8794 7.15922C11.8872 11.829 6.437 18.4672 3.21828 26.2344C-0.000438213 34.0016 -0.843121 42.5488 0.796818 50.7949C2.43676 59.041 6.48565 66.6155 12.4314 72.5606C18.3771 78.5056 25.9526 82.554 34.1996 84.1938C42.4467 85.8335 50.9949 84.9909 58.763 81.7726C66.5311 78.5542 73.1701 73.1047 77.8404 66.1133C82.5107 59.1218 85.0025 50.9026 85.0005 42.495C84.9873 31.2287 80.5053 20.4276 72.5379 12.4611C64.5705 4.49462 53.7681 0.0132323 42.5005 1.17632e-06V1.17632e-06ZM42.5005 81.9904C34.6938 81.9864 27.0635 79.6684 20.5741 75.3292C14.0847 70.9901 9.02757 64.8247 6.0419 57.6123C3.05623 50.4 2.27608 42.4644 3.80007 34.8088C5.32405 27.1532 9.08374 20.1212 14.6039 14.6017C20.1241 9.08219 27.1569 5.32294 34.8134 3.79913C42.4699 2.27533 50.4064 3.05539 57.6196 6.04071C64.8328 9.02602 70.9989 14.0826 75.3386 20.5712C79.6782 27.0598 81.9965 34.6892 82.0005 42.495C81.9952 52.9682 77.8319 63.0109 70.4254 70.4166C63.0188 77.8223 52.9749 81.9851 42.5005 81.9904V81.9904Z" fill="#222D64"/>
<path d="M60.51 50.774C60.4664 50.5802 60.3848 50.3969 60.2702 50.2346C60.1555 50.0723 60.0099 49.9343 59.8417 49.8284C59.6736 49.7225 59.4862 49.6508 59.2902 49.6175C59.0943 49.5842 58.8938 49.5898 58.7001 49.6342L42.2401 53.3737L25.7801 49.6342C25.3822 49.5453 24.9654 49.6182 24.6213 49.8366C24.2772 50.0551 24.0339 50.4013 23.9451 50.799C23.8562 51.1968 23.929 51.6136 24.1475 51.9577C24.366 52.3018 24.7122 52.545 25.1101 52.6338L35.4101 54.9735L25.1101 57.3133C24.723 57.3698 24.373 57.5744 24.1337 57.8838C23.8944 58.1933 23.7846 58.5835 23.8274 58.9723C23.8702 59.3611 24.0622 59.7181 24.363 59.9682C24.6638 60.2183 25.0499 60.3418 25.4401 60.3129C25.5529 60.3276 25.6672 60.3276 25.7801 60.3129L42.2401 56.5734L58.7001 60.2129C58.8096 60.2276 58.9205 60.2276 59.03 60.2129C59.4229 60.2483 59.8141 60.1286 60.1198 59.8794C60.4256 59.6301 60.6216 59.2711 60.666 58.8792C60.7104 58.4873 60.5997 58.0936 60.3575 57.7822C60.1153 57.4709 59.7609 57.2667 59.37 57.2133L49.0701 54.8736L59.37 52.5338C59.7497 52.443 60.0799 52.2096 60.2921 51.882C60.5044 51.5543 60.5824 51.1576 60.51 50.774V50.774Z" fill="#222D64"/>
<path d="M31.7201 49.5742C34.046 50.7183 36.6081 51.3005 39.2001 51.274C39.7301 51.274 40.0501 51.274 40.0801 51.274C40.4022 51.2461 40.7069 51.1163 40.9501 50.9034C41.1934 50.6905 41.3624 50.4056 41.4326 50.0901C41.5028 49.7746 41.4707 49.4449 41.3407 49.149C41.2108 48.853 40.9899 48.6062 40.7101 48.4443C39.2384 47.5405 38.1658 46.1105 37.7101 44.4448C37.4395 43.1323 37.5755 41.7685 38.1001 40.5352C38.5332 41.2766 39.1101 41.9239 39.7971 42.4391C40.484 42.9542 41.267 43.3268 42.1001 43.5349C42.3283 43.5747 42.5627 43.5611 42.7847 43.4952C43.0068 43.4293 43.2106 43.3128 43.3801 43.1549C43.5504 42.9951 43.6822 42.7986 43.7653 42.5803C43.8485 42.3621 43.8809 42.1277 43.8601 41.8951C43.6609 40.0754 43.8379 38.2342 44.3801 36.4857C44.8612 37.2504 45.47 37.9269 46.1801 38.4855C47.2348 39.2451 47.9521 40.3856 48.1801 41.6651C48.7601 45.1947 45.1201 48.9743 45.0501 49.0542C44.8082 49.2651 44.6397 49.5476 44.5692 49.8607C44.4987 50.1737 44.5298 50.5011 44.6579 50.7953C44.7861 51.0896 45.0047 51.3353 45.282 51.4969C45.5593 51.6584 45.8809 51.7275 46.2001 51.6939C46.3529 51.6951 46.5049 51.6715 46.6501 51.6239L48.1701 51.194C52.6401 49.9841 59.4001 48.1943 58.8501 38.5055C58.2901 28.4467 43.7901 16.988 43.1701 16.5081C42.9269 16.3179 42.6312 16.2068 42.3229 16.1898C42.0146 16.1729 41.7085 16.2508 41.4458 16.4132C41.1832 16.5755 40.9767 16.8145 40.8541 17.0978C40.7314 17.3812 40.6987 17.6953 40.7601 17.9979C41.4801 21.6275 38.9601 23.7372 34.7601 26.8669C30.5601 29.9965 26.1201 33.3461 26.1201 39.6553C26.1501 45.4047 29.1801 48.2243 31.7201 49.5742ZM36.6101 29.2766C39.7301 26.9268 42.9401 24.5271 43.7301 20.9475C47.7301 24.5471 55.4701 32.2362 55.8401 38.6755C56.1601 44.4448 53.3301 46.3746 49.9501 47.5244C51.0522 45.6237 51.5083 43.417 51.2501 41.2352C50.9147 39.2507 49.8435 37.4655 48.2501 36.2358C47.1501 35.2359 46.8101 34.8859 46.9501 33.796C46.9805 33.56 46.9547 33.3201 46.8748 33.096C46.7948 32.8718 46.663 32.6697 46.4901 32.5062C46.3179 32.3423 46.1098 32.2209 45.8824 32.1514C45.655 32.082 45.4145 32.0665 45.1801 32.1062C41.9101 32.6962 41.0401 36.3257 40.8601 39.1054C40.3582 38.3615 39.9988 37.5308 39.8001 36.6557C39.7283 36.3738 39.577 36.1184 39.3643 35.9199C39.1516 35.7214 38.8864 35.5881 38.6001 35.5358C38.3121 35.4874 38.0163 35.5219 37.7472 35.6352C37.4781 35.7485 37.2467 35.936 37.0801 36.1758C34.9401 39.3354 34.1801 42.355 34.8401 45.1747C35.0701 46.1435 35.4623 47.0664 36.0001 47.9044C35.0093 47.7014 34.0506 47.365 33.1501 46.9045C30.4801 45.4947 29.1501 43.1149 29.1501 39.6553C29.1801 34.8459 32.7901 32.1362 36.6101 29.2766V29.2766Z" fill="#222D64"/>
</g>
<defs>
<clipPath id="clip0">
<path d="M0 0H85V85H0V0Z" fill="white"/>
</clipPath>
</defs>
</svg>
