<svg width="300" height="207" viewBox="0 0 300 207" fill="none" xmlns="http://www.w3.org/2000/svg">
<path d="M223.544 128.522C223.361 128.569 223.178 128.627 223.021 128.69C222.692 128.774 222.39 128.942 222.145 129.177C221.899 129.411 221.718 129.706 221.619 130.031C221.489 130.721 221.554 131.434 221.808 132.089C221.933 132.026 222.059 131.927 222.163 131.875C222.456 131.733 222.759 131.613 223.068 131.513C223.444 131.426 223.773 131.2 223.989 130.879C224.365 130.151 224.03 129.198 223.544 128.522Z" fill="#421818"/>
<path d="M0 126.92C0 82.2717 18.4983 73.5191 38.3199 73.5191C58.1414 73.5191 73.9515 97.1368 103.213 97.1368C132.475 97.1368 120.582 51.6823 174.1 51.6823C227.618 51.6823 245.316 76.2167 245.316 104.648C245.316 133.079 301.502 120.592 299.969 159.08C298.63 192.299 263.632 210.165 233.256 201.565C213.21 195.897 195.904 167.089 174.1 167.089C152.296 167.089 153.703 202.241 91.8746 202.241C30.0461 202.241 0 153.701 0 126.92Z" fill="#FFF2E6"/>
<path d="M103.213 86.5668C117.747 85.823 133.96 49.3777 119.175 48.702C104.39 48.0263 47.0697 52.6723 63.4969 68.5589C79.9242 84.4454 87.4972 87.3734 103.213 86.5668Z" fill="#FFF2E6"/>
<path d="M172.615 175.26C181.072 174.611 214.24 199.58 199.376 205.038C184.513 210.496 145.225 204.048 153.965 192.137C162.704 180.226 166.171 175.758 172.615 175.26Z" fill="#FFF2E6"/>
<path d="M164.958 163.098C164.597 163.098 163.713 163.098 162.662 163.098C163.476 163.313 164.206 163.772 164.754 164.412C165.575 165.46 165.575 166.958 165.246 168.419C164.346 168.027 163.41 167.634 162.427 167.22C153.238 163.422 147.563 161.788 143.871 161.259C144.401 158.862 145.418 156.6 146.857 154.612C149.116 151.522 152.61 148.898 153.478 149.553C154.216 150.113 152.825 152.968 153.154 153.099C153.484 153.23 154.315 150.736 156.433 148.584C158.332 146.645 161.548 144.66 163.054 145.645C164.189 146.399 163.959 148.615 163.943 148.788C163.661 151.187 161.763 153.271 159.676 154.848C160.31 154.684 160.958 154.578 161.611 154.534C161.778 154.534 165.204 154.319 165.58 155.487C165.811 156.226 164.744 157.195 164.414 157.472C163.78 158.023 163.062 158.467 162.286 158.787C163.366 158.817 164.435 159.022 165.45 159.395C167.515 160.165 169.451 161.778 169.205 162.537C169.058 162.951 168.352 163.082 164.958 163.098Z" fill="#E07C38"/>
<path d="M215.098 185.678C215.05 186.37 201.981 187.716 187.222 183.84C171.694 179.733 161.825 174.412 161.81 174.412C157.824 172.248 154.529 170.064 149.315 169.697C146.266 169.467 142.516 169.86 135.377 172.982C121.952 178.843 122.825 182.85 114.259 185.511C113.935 185.605 113.95 185.589 91.111 186.527C85.107 186.773 80.2379 187.019 74.7099 189.612C72.6179 190.565 70.4161 191.896 69.8931 191.896C69.8408 191.896 69.8094 191.896 69.7937 191.864C69.5479 191.487 73.0572 188.397 75.9442 186.527C76.5528 186.129 77.1812 185.762 77.8269 185.427C83.7629 182.284 89.0086 182.913 97.4549 181.813C105.044 180.812 114.881 179.513 123.688 173.605C131.967 168.037 131.068 163.946 137.427 161.699C138.709 161.254 140.429 160.809 143.871 161.285C147.563 161.809 153.232 163.422 162.432 167.23C163.415 167.644 164.351 168.037 165.251 168.43C176.976 173.505 181.338 176.774 188.174 179.581C190.476 180.523 192.83 181.334 195.224 182.012C197.797 182.75 200.208 183.326 202.404 183.751C210.082 185.27 215.098 185.254 215.098 185.678Z" fill="#D1BD9D"/>
<path d="M208.408 179.718C206.497 181.186 204.489 182.524 202.399 183.725C200.203 183.3 197.792 182.724 195.219 181.986C192.825 181.308 190.471 180.497 188.169 179.555C188.17 178.775 188.291 177.999 188.529 177.256C189.497 174.202 192.4 172.018 193.106 172.479C193.812 172.94 192.316 176.58 192.499 176.669C192.682 176.758 193.022 174.93 194.267 173.448C195.036 172.434 196.113 171.699 197.337 171.353C198.153 171.154 199.664 171.038 200.009 171.698C200.485 172.599 198.44 174.574 198.498 174.637C198.555 174.7 200.333 171.992 203.205 170.53C205.124 169.546 207.797 168.959 208.388 169.844C208.979 170.729 207.289 172.882 207.091 173.128C205.616 174.983 203.681 175.821 203.681 175.936C203.681 176.051 206.819 173.883 210.239 174.364C210.893 174.443 212.106 174.626 212.331 175.318C212.509 175.632 212.54 176.549 208.408 179.718Z" fill="#E07C38"/>
<path d="M127.182 116.166C126.975 116.394 126.75 116.605 126.507 116.795C126.279 116.961 126.038 117.108 125.786 117.235C121.377 112.919 117.998 109.666 115.571 107.55C115.294 107.304 114.902 106.974 114.457 106.502C113.648 105.704 112.944 104.805 112.365 103.826C110.711 104.169 108.992 104.003 107.434 103.349C106.863 103.111 106.323 102.803 105.828 102.432C105.853 102.402 105.874 102.369 105.891 102.333C106.121 101.903 106.137 101.332 106.105 96.5711C106.105 94.8426 105.974 90.9194 103.987 78.5056C103.741 76.8819 103.516 75.5672 103.38 74.7605C103.286 74.5143 103.171 74.2053 103.004 73.8229C102.773 73.2943 102.511 72.7801 102.219 72.283C102.537 71.6566 102.946 71.0811 103.433 70.5754C105.676 68.2236 108.893 68.0927 110.483 68.2079C112.052 69.6379 113.098 69.9678 114.301 72.0001C115.009 73.2681 115.537 74.6292 115.87 76.0438C116.694 79.1626 117.021 82.3924 116.837 85.6134C116.722 88.6724 117.02 93.0198 118.887 98.7868C119.693 99.7244 120.456 100.672 121.267 101.61C123.526 104.302 125.793 106.979 128.066 109.64C128.15 109.915 128.22 110.195 128.275 110.478C128.72 112.72 128.38 114.789 127.182 116.166Z" fill="#F95623"/>
<path d="M203.848 181.708C203.038 182.195 202.155 182.548 201.233 182.756C200.86 182.845 200.48 182.906 200.098 182.939C195.051 169.179 190.721 159.368 189.262 156.927C187.096 153.261 186.605 152.622 186.605 152.606C185.852 151.606 185.391 151.161 185.067 150.26C184.627 148.931 184.592 147.501 184.968 146.153C185.161 145.299 185.574 141.161 186.411 132.901C186.443 132.508 186.49 132.063 186.526 131.555C186.427 131.854 186.359 132.131 186.296 132.393C184.936 138.223 182.489 143.791 180.69 149.076C180.82 150.82 180.915 152.559 180.998 154.314C181.568 166.159 181.273 178.03 180.114 189.832L177.18 189.78C176.621 189.78 176.082 189.78 175.538 189.748C175.528 183.208 175.162 176.674 174.44 170.174C173.917 165.266 173.08 160.107 172.803 158.415C172.327 155.393 171.867 152.816 171.506 150.846C171.229 142.309 170.983 132.157 172.667 121.881C173.049 119.628 173.457 117.444 173.901 115.344C173.948 115.066 174.016 114.82 174.079 114.537C177.885 115.852 181.928 116.334 185.935 115.951C187.426 115.805 186.95 115.721 191.657 114.474C192.771 114.176 194.167 113.835 195.935 113.39C197.263 113.06 198.33 112.814 199.151 112.583C199.463 113.275 199.72 113.989 199.92 114.72C200.512 116.822 200.69 119.019 200.443 121.189C199.942 125.431 199.021 129.612 197.692 133.671C195.983 138.747 194.695 143.955 193.843 149.243C194.767 150.491 195.61 151.796 196.369 153.151C198.336 156.629 199.533 159.96 200.762 164.742C202.191 170.317 203.222 175.987 203.848 181.708Z" fill="#992525"/>
<path d="M144.76 0H139.839V168.728H144.76V0Z" fill="#D1BD9D"/>
<path d="M163.352 6.68878L118.061 9.45963L112.219 15.8237L120.519 20.3388L162.024 17.4631L163.352 6.68878Z" fill="#AD8971"/>
<path d="M128.103 31.5269C129.149 31.836 164.074 33.6797 164.074 33.6797L168.682 37.5819L164.498 41.6884L129.332 40.3318L128.103 31.5269Z" fill="#AD8971"/>
<path d="M154.336 52.9761C153.724 52.9761 124.311 56.056 124.311 56.056L117.036 63.3419L126.042 67.4484L154.43 63.7505L154.336 52.9761Z" fill="#AD8971"/>
<path d="M108.652 66.2961C106.225 66.2499 103.86 67.0727 101.984 68.6165C101.466 69.0572 101.004 69.5603 100.609 70.1145C99.9782 69.4137 99.2772 68.7801 98.5167 68.2236C97.0806 67.1195 95.4343 66.3209 93.679 65.8771C94.2373 65.3638 94.7615 64.8144 95.2479 64.2324C95.5664 64.6453 95.9539 64.9997 96.3933 65.2799C98.0355 66.2647 99.8712 65.8352 101.445 65.6047C103.682 65.3263 105.946 65.3828 108.166 65.7723C108.359 65.9347 108.49 66.118 108.652 66.2961Z" fill="#F95623"/>
<path d="M110.457 68.2341C108.888 68.1189 105.651 68.2341 103.407 70.6017C102.92 71.1073 102.511 71.6828 102.193 72.3092C102.026 72.0264 101.848 71.7488 101.671 71.4554C101.35 70.9858 101 70.5363 100.625 70.1093C101.015 69.5579 101.472 69.0565 101.984 68.6165C103.862 67.0734 106.229 66.2524 108.658 66.3014C108.723 66.3935 108.795 66.481 108.872 66.5632C109.368 67.1505 109.897 67.7084 110.457 68.2341Z" fill="#171D1E"/>
<path style="mix-blend-mode:multiply" opacity="0.72" d="M112.339 103.836C112.177 103.574 112.031 103.312 111.884 103.029C111.327 101.945 110.914 100.791 110.655 99.5987C107.915 88.3843 107.622 88.4315 107.094 84.5554C106.817 82.4602 106.524 79.7942 106.409 76.6095C106.409 76.6095 106.205 83.974 106.278 85.5454C106.351 87.1167 109.013 103.82 109.013 103.82C109.013 103.82 110.122 104.218 112.339 103.82" fill="url(#paint0_linear)"/>
<path d="M133.395 115.003C132.872 117.779 132.574 119.157 131.659 119.55C130.916 119.864 130.09 119.586 129.363 119.204C129.036 119.03 128.719 118.84 128.411 118.633C127.669 118.143 127.023 117.52 126.507 116.795C126.75 116.605 126.975 116.394 127.182 116.166C128.38 114.789 128.72 112.72 128.228 110.52C128.495 110.52 128.788 110.52 129.133 110.52C129.295 110.52 129.457 110.52 129.656 110.52C130.211 110.524 130.765 110.567 131.314 110.651C131.534 110.697 131.748 110.769 131.952 110.865C132.567 111.178 133.067 111.679 133.38 112.295C133.672 112.934 133.672 113.589 133.395 115.003Z" fill="#FFA57D"/>
<path d="M102.978 73.8544C101.634 75.7922 99.6656 77.2073 97.4025 77.8614C96.443 78.1254 95.4441 78.2158 94.4528 78.1285C93.9248 78.0647 93.401 77.9703 92.8839 77.8457C91.4708 77.4218 90.09 76.8966 88.7522 76.2743C86.8694 75.4729 83.9459 74.2053 82.5861 72.6078C82.3384 72.3284 82.145 72.0051 82.016 71.6545C81.8837 71.3602 81.8211 71.0394 81.833 70.7169C81.9166 68.7789 84.5892 67.3856 85.7868 66.7623C86.4991 66.3954 87.2522 66.1141 88.0305 65.9242C87.3851 66.2881 86.7711 66.705 86.1947 67.1708C85.2743 67.9251 84.7199 68.4018 84.6885 69.0617C84.6885 69.2555 84.6885 69.8998 86.5399 71.2774C88.2772 72.6158 90.2767 73.5724 92.4079 74.0849C93.1275 74.2699 93.863 74.3857 94.6045 74.4306C97.6745 74.5458 100.232 72.7387 101.654 71.4921C101.853 71.7854 102.031 72.063 102.177 72.3459C102.474 72.8324 102.741 73.3361 102.978 73.8544Z" fill="#39565B"/>
<path d="M92.8789 77.8404C92.4516 80.266 92.167 82.7145 92.0264 85.1735C91.88 87.8501 91.221 89.4267 90.2901 90.7728C89.1395 92.3966 87.6751 93.1351 85.3687 92.9203C84.3073 92.8125 83.2893 92.4426 82.4057 91.8439C81.5222 91.2451 80.8007 90.4362 80.3061 89.4895C79.6471 88.2115 79.7308 86.8706 79.9452 84.2516C80.2381 80.4437 81.1377 77.3533 82.0372 74.2996C82.2307 73.6292 82.4138 73.0216 82.5602 72.5449C83.92 74.1687 86.8435 75.4362 88.7263 76.2115C90.0693 76.8544 91.4572 77.3988 92.8789 77.8404Z" fill="#5D7E82"/>
<path d="M101.649 71.4554C100.227 72.702 97.6694 74.5091 94.5995 74.3939C93.8579 74.349 93.1224 74.2333 92.4029 74.0482C90.2712 73.5341 88.2717 72.5757 86.5349 71.2354C84.6992 69.8579 84.6835 69.2136 84.6835 69.0198C84.7149 68.3598 85.2692 67.8832 86.1897 67.1289C86.766 66.6631 87.38 66.2461 88.0254 65.8823C89.0966 65.6121 90.2007 65.4957 91.3046 65.5366C92.1072 65.5628 92.9048 65.6734 93.6842 65.8666C95.4396 66.3104 97.0859 67.109 98.5219 68.2132C99.2824 68.7696 99.9835 69.4033 100.614 70.104C100.986 70.533 101.332 70.9843 101.649 71.4554Z" fill="#171D1E"/>
<path d="M114.457 106.513C113.586 106.56 112.713 106.56 111.842 106.513C110.144 106.418 108.457 106.187 106.796 105.821C105.604 105.565 104.431 105.225 103.286 104.805C104.338 104.278 105.215 103.458 105.812 102.443C106.307 102.814 106.847 103.122 107.418 103.36C108.976 104.013 110.695 104.18 112.35 103.836C112.933 104.816 113.642 105.716 114.457 106.513Z" fill="#171D1E"/>
<path d="M102.24 105.313C100.732 105.907 99.1474 106.283 97.5334 106.429C96.7884 106.954 96.1657 107.635 95.7081 108.425C95.5146 108.749 93.5115 112.232 95.5146 114.778C96.094 115.509 96.8939 116.033 97.7949 116.271H97.8419C99.0637 116.613 100.363 116.556 101.55 116.109C101.936 115.951 102.304 115.753 102.648 115.517C103.756 114.737 104.566 113.603 104.944 112.301C105.603 109.896 104.552 107.12 102.24 105.313ZM100.671 112.919C100.312 112.877 99.9719 112.733 99.6925 112.502C99.4131 112.272 99.2061 111.966 99.0965 111.62C98.9868 111.275 98.9792 110.905 99.0745 110.555C99.1698 110.206 99.364 109.891 99.6336 109.649C99.9033 109.408 100.237 109.249 100.594 109.193C100.952 109.137 101.318 109.185 101.649 109.332C101.979 109.48 102.261 109.72 102.458 110.023C102.656 110.327 102.762 110.681 102.763 111.043C102.73 111.572 102.489 112.066 102.093 112.417C101.697 112.769 101.178 112.949 100.65 112.919H100.671Z" fill="#D1BD9D"/>
<path style="mix-blend-mode:multiply" opacity="0.72" d="M102.24 105.313C100.732 105.907 99.1474 106.283 97.5334 106.429C96.7884 106.954 96.1657 107.635 95.7081 108.425C95.5146 108.749 93.5115 112.232 95.5146 114.778C96.094 115.509 96.8939 116.033 97.7949 116.271H97.8419C99.0637 116.613 100.363 116.556 101.55 116.109C101.936 115.951 102.304 115.753 102.648 115.517C103.756 114.737 104.566 113.603 104.944 112.301C105.603 109.896 104.552 107.12 102.24 105.313ZM100.671 112.919C100.312 112.877 99.9719 112.733 99.6925 112.502C99.4131 112.272 99.2061 111.966 99.0965 111.62C98.9868 111.275 98.9792 110.905 99.0745 110.555C99.1698 110.206 99.364 109.891 99.6336 109.649C99.9033 109.408 100.237 109.249 100.594 109.193C100.952 109.137 101.318 109.185 101.649 109.332C101.979 109.48 102.261 109.72 102.458 110.023C102.656 110.327 102.762 110.681 102.763 111.043C102.73 111.572 102.489 112.066 102.093 112.417C101.697 112.769 101.178 112.949 100.65 112.919H100.671Z" fill="url(#paint1_linear)"/>
<path d="M97.8 116.25L85.337 115.234L82.5965 115.003C81.8718 114.874 81.1811 114.598 80.5669 114.192C79.9526 113.785 79.4277 113.258 79.0244 112.641C77.7274 110.457 78.5799 107.597 80.2378 106.02C81.1557 105.175 82.323 104.651 83.564 104.528C85.3232 105.557 87.2876 106.185 89.317 106.366C89.3987 106.374 89.481 106.374 89.5628 106.366C89.5657 106.369 89.5693 106.372 89.5734 106.374C89.5775 106.376 89.5819 106.377 89.5863 106.377C89.5908 106.377 89.5952 106.376 89.5992 106.374C89.6033 106.372 89.6069 106.369 89.6098 106.366C89.6147 106.371 89.6213 106.374 89.6282 106.374C89.635 106.374 89.6416 106.371 89.6465 106.366C89.6465 106.366 89.6465 106.366 89.6778 106.366C89.7211 106.374 89.7653 106.374 89.8086 106.366C92.369 106.643 94.9519 106.643 97.5123 106.366C96.768 106.912 96.1521 107.615 95.708 108.425C95.5145 108.749 93.5114 112.232 95.5145 114.778C96.0984 115.502 96.8999 116.018 97.8 116.25Z" fill="#D1BD9D"/>
<path d="M113.145 156.943C112.824 157.179 112.426 157.284 112.031 157.237C111.11 157.189 109.536 156.797 106.079 156.22C104.719 155.99 103.699 155.843 102.941 155.744C100.875 155.45 100.467 155.398 99.9234 154.89C98.3178 153.345 99.5782 151.391 99.7247 144.116C99.8083 140.224 99.4632 139.8 99.4161 131.492V128.873C99.0819 128.862 98.7485 128.835 98.4172 128.789C96.4664 139.862 96.0062 146.446 96.1369 150.663C96.184 151.978 96.367 155.791 94.3012 157.022C93.8791 157.228 93.4098 157.319 92.9414 157.284C92.3818 157.284 91.6601 157.284 90.7082 157.231C87.1676 157.069 85.609 156.985 84.8088 156.854C84.462 156.824 84.1287 156.705 83.8413 156.508C82.3298 155.461 81.8382 153.408 81.6918 150.453C81.2629 141.963 84.3068 140.501 84.7722 132.079C84.9867 127.71 84.2963 125.542 84.971 118.544C85.086 117.25 85.2325 116.129 85.3475 115.229L97.8 116.25H97.8471C99.0689 116.592 100.368 116.535 101.555 116.088C101.941 115.93 102.31 115.732 102.653 115.496C103.176 115.595 103.736 115.679 104.29 115.742C106.86 116.016 109.455 115.928 111.999 115.48C112.078 116.004 112.161 116.418 112.209 116.695C113.176 121.771 113.16 123.248 113.343 131.786C113.506 138.899 113.291 147.384 113.343 147.798C114.044 152.805 114.719 155.791 113.145 156.943Z" fill="#AD8971"/>
<path style="mix-blend-mode:multiply" opacity="0.72" d="M93.2552 127.805C93.1245 126.757 95.4204 128.412 96.7488 128.627C97.2974 128.723 97.8509 128.787 98.4067 128.821L97.3869 135.012C96.2462 134.154 95.2916 133.073 94.5813 131.834C93.871 130.595 93.4199 129.224 93.2552 127.805Z" fill="url(#paint2_linear)"/>
<path d="M105.865 102.343C105.848 102.379 105.827 102.413 105.802 102.443C105.205 103.458 104.328 104.278 103.276 104.805C102.951 105.007 102.609 105.182 102.256 105.329C100.748 105.923 99.1631 106.299 97.5491 106.445C94.9886 106.722 92.4058 106.722 89.8453 106.445C90.8711 106.46 91.8919 106.299 92.863 105.968C94.4507 105.481 95.8485 104.513 96.8639 103.197C99.1756 100.054 97.8158 96.2621 95.9435 86.5773C95.5512 84.4821 95.0125 81.6327 94.4686 78.1547C95.4599 78.242 96.4588 78.1516 97.4183 77.8876C99.6794 77.2235 101.643 75.7991 102.978 73.8544C103.145 74.2368 103.26 74.5458 103.354 74.792C103.49 75.5986 103.715 76.9133 103.961 78.5371C105.948 90.9509 106.053 94.8741 106.079 96.6026C106.11 101.343 106.095 101.914 105.865 102.343Z" fill="#171D1E"/>
<path d="M111.999 115.496C109.455 115.944 106.86 116.032 104.29 115.758C103.736 115.695 103.176 115.611 102.653 115.511C103.761 114.732 104.571 113.598 104.949 112.295C105.603 109.896 104.552 107.12 102.24 105.313C102.594 105.166 102.935 104.991 103.26 104.789C104.405 105.21 105.577 105.549 106.769 105.806C108.43 106.171 110.118 106.402 111.816 106.497C111.717 107.236 111.623 108.105 111.586 109.116C111.505 111.251 111.643 113.389 111.999 115.496Z" fill="#39565B"/>
<path d="M112.031 157.237C111.947 159.306 111.832 161.39 111.701 163.522C111.095 173.327 110.132 182.719 108.851 191.634C108.646 191.685 108.438 191.723 108.229 191.749C107.168 191.842 106.101 191.826 105.044 191.702C104.138 191.614 103.239 191.46 102.356 191.241C102.01 181.698 101.702 174.328 101.357 169.483C101.017 165.871 101.261 162.227 102.078 158.693C102.31 157.699 102.595 156.718 102.931 155.754C103.7 155.854 104.719 156 106.069 156.231C109.536 156.797 111.11 157.189 112.031 157.237Z" fill="#FFA57D"/>
<path d="M117.031 197.029C116.293 197.862 114.939 197.815 114.416 197.783C112.402 197.705 108.605 197.568 103.595 197.338C103.317 197.32 103.056 197.199 102.863 196.998C102.669 196.798 102.557 196.532 102.549 196.254C102.486 194.509 102.423 192.839 102.366 191.23C103.249 191.45 104.148 191.604 105.054 191.691C106.111 191.815 107.179 191.831 108.239 191.739C108.449 191.713 108.656 191.674 108.861 191.623C109.123 191.576 109.337 191.524 109.515 191.477C109.662 192.823 110.153 193.43 110.53 193.745C111.727 194.693 113.27 193.86 116.074 194.792C116.68 195.007 117.318 195.285 117.449 195.84C117.472 196.057 117.446 196.276 117.374 196.482C117.302 196.687 117.184 196.874 117.031 197.029Z" fill="#992525"/>
<path d="M92.8472 193.839C92.1098 194.677 90.7553 194.63 90.2323 194.614C88.1926 194.52 84.3329 194.389 79.2494 194.143C79.0989 194.138 78.951 194.102 78.8151 194.037C78.6792 193.972 78.5583 193.879 78.4599 193.765C78.3616 193.651 78.288 193.518 78.2439 193.373C78.1997 193.229 78.1859 193.077 78.2034 192.928L78.7944 188.213L79.3174 188.313C79.7881 188.392 80.3006 188.475 80.8393 188.522C81.8946 188.65 82.9602 188.667 84.0191 188.575C84.3015 188.543 84.5421 188.491 84.7931 188.444L85.3161 188.313C85.4626 189.659 85.9542 190.267 86.3307 190.576C87.5284 191.529 89.0712 190.707 91.8745 191.66C92.4811 191.859 93.1192 192.137 93.25 192.681C93.272 192.892 93.2473 193.105 93.1777 193.305C93.1081 193.505 92.9952 193.688 92.8472 193.839Z" fill="#992525"/>
<path d="M92.931 157.305C91.6654 160.898 90.452 164.711 89.3381 168.718C87.4959 175.205 85.986 181.782 84.8141 188.423C84.584 188.47 84.3225 188.523 84.0401 188.554C82.9812 188.646 81.9156 188.629 80.8603 188.502C80.3373 188.454 79.8143 188.371 79.3384 188.292C79.6156 185.055 80.0235 180.247 80.5831 174.186C81.1061 168.718 81.4356 165.282 83.0412 160.919C83.5524 159.54 84.139 158.19 84.7985 156.875C85.5986 157.006 87.1572 157.09 90.6978 157.252C91.6497 157.289 92.3714 157.32 92.931 157.305Z" fill="#FFA57D"/>
<path d="M131.298 110.651C130.749 110.567 130.195 110.524 129.64 110.52C129.457 110.52 129.295 110.52 129.117 110.52C129.065 110.19 129.002 109.813 128.934 109.404C128.003 103.82 127.166 101.998 128.05 101.259C128.673 100.735 129.954 100.945 130.508 101.537C130.785 101.862 130.932 102.278 130.921 102.705C131 104.067 131.131 106.89 131.298 110.651Z" fill="#B26632"/>
<path d="M131.659 119.55L131.559 123.148L130.461 198.275H129.363V119.183C130.085 119.587 130.916 119.864 131.659 119.55Z" fill="#B26632"/>
<path d="M178.368 70.9107C177.748 71.4836 177.219 72.1477 176.799 72.8802C176.683 73.0949 176.589 73.2939 176.49 73.5087C175.642 72.6712 174.693 71.9428 173.666 71.3402C173.081 70.9904 172.467 70.6925 171.83 70.4498C173.084 70.1395 174.292 69.6658 175.423 69.0408C175.637 69.1403 175.847 69.2346 176.077 69.3498C176.901 69.7745 177.67 70.2987 178.368 70.9107Z" fill="#171D1E"/>
<path d="M179.419 102.139C179.382 102.767 179.277 103.388 179.105 103.993C178.022 107.723 174.827 109.645 173.289 110.368C173.253 110.022 173.221 109.676 173.19 109.32C173.106 108.383 173.038 107.466 173.007 106.56C171.766 112.241 169.748 117.723 167.008 122.85C166.927 122.861 166.844 122.861 166.762 122.85C165.836 122.85 164.929 122.587 164.147 122.09C163.893 121.937 163.661 121.75 163.457 121.535C163.41 121.535 163.379 121.467 163.326 121.42C164.97 116.221 165.993 110.847 166.375 105.407C167.081 94.5703 166.475 88.9867 166.475 88.9867C166.182 86.263 165.476 81.4493 167.081 76.0491C168.002 72.9954 168.954 72.0735 169.346 71.7435C170.073 71.1411 170.914 70.6937 171.82 70.4288C172.456 70.6715 173.071 70.9694 173.655 71.3192C174.683 71.9218 175.632 72.6503 176.48 73.4877C175.874 75.0188 175.666 76.6783 175.873 78.3118C176.48 87.9024 176.773 90.8566 176.888 92.0561C177.51 98.2997 177.363 99.8396 178.938 101.6C179.089 101.799 179.257 101.966 179.419 102.139Z" fill="#39565B"/>
<path d="M178.927 70.4498C178.744 70.6017 178.551 70.7483 178.368 70.9107C177.665 70.2936 176.888 69.7658 176.056 69.3393C175.826 69.2241 175.617 69.1298 175.402 69.0303C175.751 68.8287 176.084 68.6029 176.401 68.3546C176.469 68.3075 176.516 68.2603 176.584 68.2079C177.205 69.0522 177.963 69.7854 178.828 70.3764L178.927 70.4498Z" fill="#39565B"/>
<path d="M173.697 79.2547C173.875 80.8784 174.089 83.1779 174.22 85.9225C174.367 89.0653 174.68 95.8221 173.697 102.652C173.535 103.805 173.321 105.098 173.007 106.56" stroke="#171D1E" stroke-width="0.11" stroke-linecap="round" stroke-linejoin="round"/>
<path d="M166.762 122.871C166.333 124.339 165.462 125.64 164.268 126.595C164.053 126.762 162.139 128.255 161.349 127.695C160.56 127.134 161.187 124.51 162.395 122.74C162.635 122.378 162.916 122.046 163.232 121.75C163.311 121.687 163.379 121.619 163.441 121.572C163.645 121.787 163.878 121.974 164.132 122.127C164.92 122.621 165.833 122.879 166.762 122.871Z" fill="#FFA57D"/>
<path d="M201.029 95.3979C200.945 96.7911 201.144 98.3049 200.438 99.6668C199.816 100.044 199.225 100.39 198.649 100.714C196.275 101.994 193.745 102.96 191.124 103.59C190.3 103.824 189.441 103.912 188.587 103.852C188.26 103.807 187.94 103.719 187.635 103.59C185.684 102.768 184.91 100.568 183.974 96.6131C180.486 82.146 181.6 84.8697 179.973 78.139C179.602 76.8292 179.602 75.4418 179.973 74.132C180.115 73.6909 180.302 73.266 180.533 72.8644C181.244 73.1591 181.89 73.5896 182.437 74.132C183.094 74.8315 183.581 75.6741 183.859 76.5938C183.995 76.9395 185.862 82.0779 188.174 84.393C189.372 85.6082 192.143 87.6458 194.209 86.8549C197.734 85.5401 197.588 76.84 196.782 71.9792C196.52 70.4117 196.13 68.8683 195.616 67.3646C197.091 68.6951 197.373 70.7954 197.488 71.7802C199.01 82.7588 201.604 86.6453 201.029 95.3979Z" fill="#CF8456"/>
<path d="M194.194 86.8391C192.128 87.6301 189.356 85.5925 188.158 84.3773C185.847 82.0622 183.974 76.9238 183.843 76.5781C183.566 75.6584 183.079 74.8158 182.421 74.1163C181.875 73.5739 181.228 73.1434 180.517 72.8487C180.787 72.3978 181.1 71.9749 181.453 71.5864C184.733 72.4716 187.897 71.225 188.775 70.8635C190.302 70.2717 192.829 69.2922 193.566 67.0346C193.637 66.8113 193.686 66.5815 193.712 66.3485C194.247 66.4852 194.752 66.7177 195.203 67.0346C195.335 67.1308 195.461 67.2358 195.579 67.3489C196.094 68.8526 196.484 70.396 196.746 71.9635C197.572 76.8243 197.719 85.5244 194.194 86.8391Z" fill="#B26632"/>
<path d="M184.565 104.36C183.598 108.105 181.04 111.043 177.766 111.997C176.366 112.388 174.89 112.422 173.472 112.096C173.404 111.536 173.342 110.949 173.295 110.357C174.832 109.634 178.028 107.712 179.11 103.983C179.282 103.378 179.387 102.756 179.424 102.129C180.702 103.267 182.276 104.018 183.964 104.297C184.162 104.332 184.363 104.353 184.565 104.36Z" fill="#171D1E"/>
<path d="M188.587 103.836C187.304 104.319 185.928 104.498 184.565 104.36C184.362 104.353 184.159 104.332 183.958 104.297C182.271 104.018 180.697 103.267 179.419 102.129C179.257 101.966 179.089 101.799 178.927 101.605C177.358 99.8448 177.499 98.3049 176.877 92.0613C176.762 90.8618 176.469 87.9077 175.862 78.3171C175.655 76.6835 175.864 75.024 176.469 73.493C176.568 73.2782 176.663 73.0792 176.778 72.8644C177.198 72.132 177.727 71.4679 178.347 70.895C178.53 70.7326 178.723 70.5859 178.906 70.434C179.674 70.9599 180.53 71.3448 181.432 71.5707C181.079 71.9592 180.766 72.3821 180.496 72.833C180.265 73.2346 180.078 73.6594 179.937 74.1006C179.565 75.4103 179.565 76.7978 179.937 78.1076C181.563 84.8383 180.46 82.1146 183.937 96.5816C184.889 100.536 185.663 102.736 187.598 103.559C187.914 103.696 188.246 103.789 188.587 103.836Z" fill="#3B3743"/>
<path d="M201.928 110.965C201.667 111.735 200.914 112.128 199.162 112.62C198.341 112.851 197.274 113.097 195.945 113.427C194.178 113.872 192.781 114.212 191.667 114.511C186.96 115.758 187.436 115.841 185.946 115.988C181.938 116.371 177.895 115.888 174.089 114.574C173.984 114.543 173.881 114.504 173.781 114.459C173.666 113.704 173.566 112.919 173.467 112.096C174.884 112.422 176.36 112.388 177.761 111.997C181.04 111.043 183.597 108.105 184.56 104.36C185.923 104.498 187.299 104.319 188.582 103.836C189.436 103.896 190.294 103.808 191.118 103.574C193.74 102.945 196.27 101.978 198.644 100.699C198.644 100.945 198.613 101.222 198.613 101.505C198.626 102.128 198.692 102.748 198.811 103.359C199.601 107.628 202.535 109.158 201.928 110.965Z" fill="#39565B"/>
<path style="mix-blend-mode:multiply" opacity="0.66" d="M189.272 123.787C188.833 126.003 187.274 129.125 186.537 131.571L185.883 138.317C185.883 138.317 186.756 138.05 188.362 133.734C189.968 129.418 189.272 123.787 189.272 123.787Z" fill="url(#paint3_linear)"/>
<path d="M204.669 186.993L199.669 189.193C199.669 189.193 194.685 190.361 193.681 189.261C193.435 188.962 193.832 188.062 194.094 187.784C194.617 187.26 196.997 186.977 196.997 186.977C197.504 186.835 197.97 186.573 198.355 186.213C198.74 185.853 199.033 185.406 199.209 184.908L199.899 182.955C199.962 182.955 200.03 182.955 200.108 182.955C200.491 182.921 200.87 182.86 201.243 182.771C202.165 182.564 203.048 182.21 203.858 181.724C203.941 181.689 204.018 181.643 204.088 181.587L205.354 185.547C205.438 185.831 205.414 186.135 205.287 186.401C205.161 186.668 204.941 186.879 204.669 186.993Z" fill="#171D1E"/>
<path d="M180.648 193.692C180.652 193.842 180.626 193.99 180.572 194.13C180.518 194.269 180.437 194.396 180.333 194.503C180.229 194.611 180.105 194.696 179.968 194.755C179.831 194.813 179.683 194.844 179.534 194.845L167.505 194.714C167.505 194.714 167.599 193.315 167.913 193.001C168.405 192.53 170.585 192.414 170.585 192.414C171.885 192.122 173.1 191.538 174.142 190.707L175.261 189.785H175.57C176.093 189.785 176.652 189.785 177.212 189.816L180.146 189.869C180.292 189.876 180.439 189.876 180.585 189.869L180.648 193.692Z" fill="#171D1E"/>
<path d="M77.827 185.422C77.1813 185.756 76.5529 186.123 75.9442 186.522C73.0572 188.392 69.5479 191.482 69.7937 191.859C69.7937 191.89 69.8408 191.89 69.8931 191.89C68.3628 192.762 66.6327 193.22 64.8724 193.221C62.6758 193.221 59.7941 192.451 59.7575 191.513C59.7575 191.183 60.0713 190.859 60.61 190.544C57.6132 190.675 54.9878 190.068 54.7733 189.052C54.4648 187.59 58.8893 185.076 62.9739 184.06C63.7612 183.865 64.5593 183.716 65.364 183.615C64.0408 183.269 62.5607 182.729 62.545 182.069C62.545 181.252 64.956 180.33 67.2049 180.283C68.7836 180.29 70.3424 180.637 71.7759 181.299C70.2377 180.464 68.9434 179.242 68.0208 177.753C67.6808 177.146 67.0899 176.13 67.3984 175.784C68.1725 174.946 74.1032 177.785 76.8123 182.96C77.2385 183.741 77.5787 184.567 77.827 185.422Z" fill="#E07C38"/>
<path d="M102.418 54.998C101.968 54.9561 101.498 54.9508 101.048 54.888L100.452 55.1289C99.4602 55.4027 98.4442 55.5781 97.4183 55.6527C97.8472 57.8945 97.5595 64.1276 97.7583 64.5571C98.2813 65.7304 105.028 65.3114 105.19 64.8976C105.305 64.6043 105.791 54.8565 105.713 54.0028C105.698 53.9447 105.668 53.892 105.624 53.8509C104.704 54.4742 103.553 55.0765 102.418 54.998Z" fill="#FF9A6B"/>
<path d="M110.781 52.1485C110.807 52.798 110.216 53.1961 109.63 53.4318C109.672 53.6413 109.719 53.8561 109.761 54.0709C109.803 54.2856 109.845 54.4532 109.892 54.6523C109.981 55.0189 110.075 55.4065 110.158 55.7994C110.389 56.6609 110.363 57.5711 110.085 58.4183C109.52 60.1049 105.415 60.7596 102.68 60.482C101.037 60.3144 98.4956 60.1259 98.0092 58.8583C96.7279 55.6108 97.3241 51.7138 98.5322 48.5396C99.2225 46.7378 100.514 45.5802 102.078 44.5012C102.842 43.9774 104.17 43.1603 105.153 43.5689C105.183 43.5462 105.22 43.535 105.258 43.5374C106.947 43.5741 107.543 46.015 107.988 47.2825C108.213 47.9268 108.187 48.6601 108.375 49.3148C108.892 49.9738 109.474 50.5792 110.111 51.1219C110.404 51.4205 110.76 51.7138 110.781 52.1485Z" fill="#FF9A6B"/>
<path d="M108.579 42.9508C108.42 42.863 108.243 42.8131 108.062 42.8049C107.88 42.7967 107.699 42.8305 107.533 42.9037C107.899 42.2594 108.056 41.5313 107.397 40.9552C106.461 40.1328 105.138 40.6356 104.259 41.2799C103.874 41.4873 103.454 41.6222 103.02 41.678C102.489 41.6533 101.977 41.471 101.55 41.1542C101.242 40.9948 100.905 40.8983 100.56 40.8704C100.214 40.8425 99.8662 40.8838 99.5366 40.9918C98.8594 41.2138 98.2746 41.6539 97.8735 42.2437C97.6015 42.6418 97.4551 43.1917 97.0471 43.4903C96.6392 43.7889 95.8861 43.7155 95.3369 43.7574C93.883 43.8831 93.0881 45.2188 92.7743 46.5754C92.6592 46.7116 92.5441 46.8478 92.4343 46.9945C91.9125 47.7107 91.5977 48.557 91.5243 49.4406C91.5103 49.805 91.606 50.1652 91.7991 50.4744C91.9921 50.7836 92.2736 51.0274 92.6069 51.1743C92.6702 51.196 92.7348 51.2135 92.8004 51.2267C92.8595 51.3078 92.9087 51.3957 92.9468 51.4886C93.156 52.049 93.0724 52.5938 93.4175 53.1228C93.6876 53.4868 93.9962 53.8205 94.338 54.118L94.4374 54.207C94.474 54.2699 94.5106 54.3432 94.5524 54.4113C94.7041 54.647 94.8505 54.8827 94.9865 55.1132C95.8812 56.6294 96.6727 58.2044 97.3557 59.8273C97.3461 59.8546 97.3466 59.8844 97.3572 59.9114C97.3678 59.9383 97.3877 59.9605 97.4132 59.974C97.4917 60.1363 97.5387 60.2254 97.5649 60.2149C97.591 60.2044 97.9258 60.1416 97.9519 60.1363C97.9646 60.1437 97.9791 60.1476 97.9938 60.1476C98.0084 60.1476 98.0229 60.1437 98.0356 60.1363C98.1105 60.113 98.1838 60.085 98.2552 60.0525H98.3076C99.1496 59.7383 99.8765 58.5754 100.148 57.9155C100.398 57.2685 100.507 56.5756 100.468 55.8832C100.426 55.0713 100.248 54.3118 100.645 53.6885C100.759 53.5022 100.906 53.3388 101.079 53.2066C101.602 52.7771 102.293 52.489 102.648 51.8709C102.765 51.6391 102.834 51.386 102.851 51.1268C102.869 50.8676 102.833 50.6077 102.748 50.3624C102.64 49.9526 102.601 49.5278 102.633 49.1053C102.748 48.6401 103.001 48.2206 103.358 47.9019C103.716 47.5832 104.161 47.3801 104.636 47.3192C104.837 47.3118 105.035 47.2612 105.215 47.1708C105.396 47.0805 105.555 46.9525 105.682 46.7954C105.805 46.5779 105.964 46.3831 106.152 46.2192C106.316 46.109 106.491 46.0176 106.675 45.9469C107.104 45.9283 107.53 45.881 107.952 45.8054C108.307 45.7059 108.757 45.5174 108.809 45.1036C108.834 44.8942 108.78 44.6831 108.658 44.5117C108.81 44.3341 108.921 44.1248 108.982 43.8989C109.03 43.7185 109.016 43.5273 108.943 43.3555C108.87 43.1838 108.742 43.0413 108.579 42.9508Z" fill="#BD704F"/>
<path d="M102.559 52.3109C101.775 52.3528 101.043 51.939 100.467 52.688C100.294 52.9671 100.188 53.2822 100.155 53.609C100.122 53.9358 100.165 54.2658 100.279 54.5737C100.446 55.0975 100.896 55.9827 101.534 56.0927C101.947 56.166 102.188 55.8989 102.345 55.5689C102.389 55.5557 102.427 55.5277 102.453 55.4895C102.479 55.4512 102.491 55.4053 102.486 55.3594V55.2494L102.533 55.0922C102.536 55.0609 102.536 55.0293 102.533 54.998C102.586 54.98 102.629 54.9433 102.656 54.895C102.683 54.8467 102.692 54.7901 102.68 54.7361C102.665 54.6287 102.639 54.5233 102.601 54.4218C102.649 53.8043 102.518 53.1861 102.225 52.6409C102.345 52.6539 102.466 52.6539 102.586 52.6409C102.629 52.6374 102.67 52.6167 102.698 52.5833C102.727 52.5499 102.741 52.5066 102.737 52.4628C102.734 52.4191 102.713 52.3785 102.68 52.35C102.646 52.3215 102.603 52.3074 102.559 52.3109Z" fill="#FF9A6B"/>
<path d="M106.367 63.5881C106.367 63.5881 97.999 62.2472 95.1591 62.6924C93.1195 63.5881 93.4071 64.5519 93.4071 64.5519L94.5891 71.9792C94.5891 71.9792 104.599 65.6204 106.367 65.6309C108.135 65.6414 108.459 66.3223 108.459 66.3223C108.459 66.3223 108.788 65.238 108.459 64.6147C108.129 63.9914 106.367 63.5881 106.367 63.5881Z" fill="#9E1B32"/>
<path d="M185.245 66.1861L184.476 56.6636C184.418 56.3074 183.362 57.7531 183.095 58.0202C181.925 59.2257 180.423 60.0553 178.781 60.4035C178.731 60.4198 178.683 60.4427 178.639 60.4715C178.505 60.4923 178.384 60.5646 178.302 60.6731C178.22 60.7816 178.184 60.9179 178.2 61.0529C178.55 63.1481 179.021 67.2232 179.832 69.2188C180.041 69.7426 180.031 68.9046 180.632 69.0565C181.136 68.9859 181.645 68.9474 182.154 68.9412C182.677 68.8993 182.619 68.8522 183.163 68.8103C183.707 68.7684 184.962 68.9255 185.376 68.3703C185.789 67.8151 185.334 66.7413 185.245 66.1861Z" fill="#F79884"/>
<path d="M172.107 56.7893C172.147 56.3402 172.302 55.909 172.557 55.5375C172.855 54.9299 173.122 54.3118 173.362 53.678C173.545 51.5728 173.925 49.4894 174.497 47.4554C178.561 46.7797 183.278 47.4554 187.572 47.4554H187.781C189.701 49.6763 189.282 51.4257 188.545 54.7256C187.651 58.7012 185.234 61.5349 181.746 63.5881C179.785 64.73 176.275 64.5467 174.319 62.8286C173.472 62.0849 173.153 60.1259 173.137 57.8264C172.62 57.6169 172.149 57.3288 172.107 56.7893Z" fill="#F79884"/>
<path d="M177.73 66.9823C177.73 66.9823 187.933 65.348 191.401 65.8928C193.89 66.9823 193.54 68.1608 193.54 68.1608L185.867 76.5414C185.867 76.5414 179.325 70.4602 177.295 69.3812C175.936 68.6636 175.13 69.1874 175.13 69.1874C175.13 69.1874 174.775 68.9989 175.172 68.2341C175.57 67.4694 177.73 66.9823 177.73 66.9823Z" fill="#9E1B32"/>
<path d="M197.237 78.139C196.803 75.321 195.501 72.9011 194.742 70.1721C193.865 67.3382 193.135 64.4605 192.556 61.5506C191.819 57.1926 191.139 52.7195 189.701 48.5344C188.733 45.7216 187.828 44.6217 184.277 43.0451C182.306 42.1703 176.03 42.4008 173.676 46.1878C172.803 48.592 172.698 51.3419 174.325 53.458C175.099 54.4584 176.113 55.2494 176.94 56.2184C177.743 57.1672 178.359 58.2604 178.755 59.4397C179.659 62.132 179.513 65.0233 180.454 67.726C180.853 68.8427 181.327 69.9311 181.872 70.984C182.729 72.1468 183.89 72.4873 185.292 72.4244C186.089 72.3093 186.896 72.2882 187.698 72.3616C188.744 72.5659 189.319 73.3411 189.79 74.2001C190.501 75.4624 191.076 76.7038 192.201 77.6728C193.325 78.6418 195.48 78.8775 196.981 79.0766C197.593 79.1394 197.242 78.6052 197.237 78.139Z" fill="#1F2144"/>
<path d="M106.885 50.8076C106.974 51.3314 106.885 51.7452 106.639 51.7871C106.393 51.829 106.152 51.4571 106.064 50.9595C105.975 50.4619 106.064 50.022 106.309 49.9801C106.555 49.9382 106.791 50.2839 106.885 50.8076Z" fill="#2E1F44"/>
<path d="M106.78 48.1468C105.947 48.1517 105.137 48.4274 104.474 48.9325C104.217 49.1525 103.757 49.7601 104.4 49.8439C104.761 49.891 105.237 49.5715 105.577 49.4772C106.043 49.4243 106.5 49.3044 106.932 49.121C107.293 48.8906 107.308 48.1206 106.78 48.1468Z" fill="#BD704F"/>
<path d="M108.213 55.3541C108.184 55.3568 108.157 55.3668 108.134 55.3831C108.11 55.3994 108.091 55.4215 108.078 55.4473C108.066 55.473 108.06 55.5016 108.062 55.5302C108.063 55.5588 108.072 55.5866 108.087 55.6108C108.399 55.9213 108.82 56.0963 109.259 56.0979C109.574 56.1416 109.894 56.1504 110.211 56.1241C110.148 55.7627 110.075 55.4013 110.007 55.0765C109.416 55.2111 108.817 55.3039 108.213 55.3541Z" fill="#DD6B4B"/>
<path d="M175.203 53.7985C175.203 54.3484 174.963 54.7884 174.712 54.7779C174.461 54.7675 174.278 54.3118 174.299 53.7618C174.32 53.2118 174.539 52.7771 174.785 52.7823C175.031 52.7875 175.203 53.2485 175.203 53.7985Z" fill="#2E1F44"/>
<path d="M175.073 59.0626C174.446 59.1264 173.815 59.1474 173.185 59.1254C173.227 59.5654 173.247 59.953 173.305 60.3092C173.564 60.262 173.819 60.1973 174.069 60.1154C174.557 60.0191 174.988 59.7328 175.266 59.3192C175.28 59.2892 175.285 59.2562 175.281 59.2235C175.278 59.1908 175.265 59.1597 175.245 59.1335C175.226 59.1072 175.199 59.0868 175.169 59.0743C175.138 59.0618 175.105 59.0578 175.073 59.0626Z" fill="white"/>
<path d="M175.408 51.7243C174.871 51.6775 174.33 51.72 173.807 51.85C173.859 51.3262 173.88 50.8967 173.927 50.7134C174.437 50.5953 174.969 50.6207 175.465 50.7867C175.737 50.8653 176.359 51.0224 176.312 51.4624C176.265 51.9024 175.669 51.7348 175.408 51.7243Z" fill="#2E1F44"/>
<defs>
<linearGradient id="paint0_linear" x1="106.262" y1="90.3066" x2="112.339" y2="90.3066" gradientUnits="userSpaceOnUse">
<stop stop-color="#F0C3A8"/>
<stop offset="1" stop-color="white"/>
</linearGradient>
<linearGradient id="paint1_linear" x1="94.636" y1="110.902" x2="105.138" y2="110.902" gradientUnits="userSpaceOnUse">
<stop stop-color="white"/>
<stop offset="1" stop-color="#F0C3A8"/>
</linearGradient>
<linearGradient id="paint2_linear" x1="973.887" y1="2116.93" x2="1169.73" y2="1968.22" gradientUnits="userSpaceOnUse">
<stop stop-color="white"/>
<stop offset="1" stop-color="#F0C3A8"/>
</linearGradient>
<linearGradient id="paint3_linear" x1="185.883" y1="131.052" x2="189.424" y2="131.052" gradientUnits="userSpaceOnUse">
<stop stop-color="#A9C8D4"/>
<stop offset="1" stop-color="white"/>
</linearGradient>
</defs>
</svg>
