<svg width="96" height="66" viewBox="0 0 96 66" fill="none" xmlns="http://www.w3.org/2000/svg">
<g filter="url(#filter0_d)">
<rect x="8" y="4" width="80" height="50" fill="#76A340"/>
<path d="M31.5883 20.021H26.8841C26.8841 20.021 23.0101 22.9607 22.0877 23.6956C21.9955 23.6956 21.9032 23.7875 21.811 23.8793C20.9809 24.4305 20.4274 24.798 20.243 25.6248C19.9662 26.3597 16.0922 38.9453 16.0922 39.0371L16 39.2209H24.3014L32.5106 31.596L32.4184 31.5042C32.4184 31.5042 31.9572 30.6774 30.7581 30.4018C30.6659 30.4018 30.4814 30.4018 30.3892 30.4018C29.2823 30.4018 28.2677 31.2286 27.7142 31.7798C27.4375 31.9635 27.0686 32.2391 26.7919 32.2391C26.4229 32.2391 26.1462 31.9635 25.8695 31.4123C25.1316 29.9425 24.9471 29.2994 24.7626 28.9319C24.5781 28.5645 24.4859 28.1051 24.5781 27.7377C24.6704 27.4621 25.5928 26.6353 26.1462 26.176C26.3307 25.9922 26.4229 25.9004 26.5152 25.8085C26.7919 25.5329 28.3599 23.9712 28.5444 23.7875L30.1124 23.3281C30.4814 23.2363 30.9426 23.3281 31.5883 23.7875L31.6805 23.6956C32.2339 24.0631 32.7873 24.3387 33.3408 24.3387C33.433 24.3387 33.5253 24.3387 33.6175 24.3387C34.3554 24.2468 34.8166 23.6037 34.9088 23.0526V22.9607L31.5883 20.021Z" fill="white"/>
<path d="M45.4242 39.129C45.4242 39.129 45.0553 36.8324 44.5941 34.5358C44.4096 33.6171 44.2251 32.4229 44.0406 31.3205C43.7639 29.7588 43.4872 28.1971 43.395 27.7377C43.3027 27.0947 42.3804 25.8086 41.6425 24.798L41.5502 24.7062C41.3657 24.3387 40.5356 23.3282 39.9822 22.5933C39.7055 22.2258 39.4287 21.8583 39.3365 21.7665C39.2443 21.5827 38.8753 21.3072 38.7831 21.2153L33.71 18L33.6177 18.0919C33.0643 18.4593 32.6031 19.1942 33.341 20.6641C33.9867 21.9502 35.7392 23.2363 36.0159 23.4201C37.1228 25.9923 38.4141 28.1052 38.5986 28.3808C38.7831 30.7693 38.4141 32.4229 37.584 33.3415C37.215 33.709 36.8461 33.8927 36.4771 33.8927C36.1082 33.8927 35.7392 33.709 35.4625 33.5252C35.3703 33.4334 35.278 33.4334 35.1858 33.3415C34.7246 32.9741 33.9867 32.4229 32.8798 32.4229C31.4963 32.4229 30.8506 33.709 30.8506 33.709V33.8008L35.647 39.2209H45.6087L45.4242 39.129ZM35.647 35.1788C35.8314 35.2707 36.0159 35.3626 36.2926 35.3626C36.4771 35.3626 36.7538 35.2707 37.0305 35.1788C36.9383 35.4544 36.8461 35.9137 36.6616 36.0056C36.5694 36.0975 36.4771 36.0975 36.3849 36.0975C35.9237 36.0975 35.7392 35.8219 35.647 35.1788Z" fill="white"/>
<path d="M50.9587 28.197H48.2838C48.1916 28.197 48.0994 28.1052 48.0994 28.0133V22.777C48.0994 22.6851 48.1916 22.5933 48.2838 22.5933H49.2062C49.2985 22.5933 49.3907 22.6851 49.3907 22.777V27.3703H51.051C51.1432 27.3703 51.2355 27.4621 51.2355 27.554V28.1052C51.1432 28.197 51.051 28.197 50.9587 28.197Z" fill="white"/>
<path d="M54.5565 28.1051C54.372 28.197 53.8186 28.3807 53.2652 28.3807C52.3428 28.3807 51.4204 28.1051 51.4204 27.2783C51.4204 26.176 52.7117 25.9004 53.7264 25.7166V25.1654C53.7264 24.798 53.5419 24.6142 53.2652 24.6142C52.8962 24.6142 52.7117 24.8898 52.6195 25.0736C52.5273 25.3492 52.3428 25.441 52.0661 25.441C51.7894 25.441 51.5126 25.2573 51.5126 24.9817C51.5126 24.6142 51.9738 23.9712 53.2652 23.9712C54.0953 23.9712 54.741 24.3387 54.741 25.2573V27.4621C54.9255 27.7377 54.8332 27.9214 54.5565 28.1051ZM53.8186 26.176C53.1729 26.2678 52.6195 26.4516 52.6195 27.0946C52.6195 27.4621 52.8962 27.7377 53.2652 27.7377C53.5419 27.7377 53.8186 27.6458 53.8186 27.3702V26.176Z" fill="white"/>
<path d="M59.1684 28.197H58.3383C58.246 28.197 58.1538 28.1051 58.1538 28.0133V25.2573C58.1538 24.8898 57.9693 24.6142 57.5081 24.6142C56.9547 24.6142 56.9547 24.8898 56.9547 25.0736V28.1051C56.9547 28.197 56.8625 28.2889 56.7702 28.2889H55.9401C55.8479 28.2889 55.7556 28.197 55.7556 28.1051V24.798C55.7556 24.5224 55.8479 24.4305 56.1246 24.2468C56.4013 24.1549 56.9547 23.9712 57.6004 23.9712C58.615 23.9712 59.4451 24.3387 59.4451 25.1654V28.1051C59.2607 28.197 59.2607 28.197 59.1684 28.197Z" fill="white"/>
<path d="M63.3196 28.0131C63.1351 28.1968 62.4894 28.2887 62.0282 28.2887C60.5524 28.2887 59.9067 27.37 59.9067 26.2677C59.9067 25.0734 60.5524 24.0629 61.7515 24.0629C62.1205 24.0629 62.3972 24.1548 62.4894 24.2466V22.4093C62.4894 22.3175 62.5816 22.2256 62.6739 22.2256H63.504C63.5963 22.2256 63.6885 22.3175 63.6885 22.4093V27.5538C63.6885 27.7375 63.5963 27.9212 63.3196 28.0131ZM62.4894 24.7978C62.3972 24.706 62.2127 24.6141 62.0282 24.6141C61.4748 24.6141 61.1058 25.1653 61.1058 26.0839C61.1058 27.0945 61.567 27.5538 62.0282 27.5538C62.3049 27.5538 62.4894 27.4619 62.4894 27.1863V24.7978Z" fill="white"/>
<path d="M66.1785 28.2888C65.1639 28.2888 64.3337 27.6457 64.3337 26.1759C64.3337 24.7979 65.0716 24.063 66.1785 24.063C67.1931 24.063 67.7466 24.706 67.7466 25.0735C67.7466 25.3491 67.5621 25.5328 67.2854 25.5328C67.0086 25.5328 66.9164 25.3491 66.7319 25.0735C66.6397 24.8898 66.5475 24.6142 66.1785 24.6142C65.8096 24.6142 65.4406 25.0735 65.4406 25.8084C65.4406 26.6352 65.8096 27.3701 66.4552 27.3701C66.9164 27.3701 67.1009 27.0945 67.2854 26.8189C67.3776 26.7271 67.4698 26.6352 67.5621 26.6352C67.7466 26.6352 67.8388 26.7271 67.8388 26.9108C67.7466 27.5539 67.1009 28.2888 66.1785 28.2888Z" fill="white"/>
<path d="M71.2506 28.1051C71.0661 28.197 70.5127 28.3807 69.9593 28.3807C69.0369 28.3807 68.1145 28.1051 68.1145 27.2783C68.1145 26.176 69.4058 25.9004 70.4205 25.7166V25.1654C70.4205 24.798 70.236 24.6142 69.9593 24.6142C69.5903 24.6142 69.4058 24.8898 69.3136 25.0736C69.2214 25.3492 69.0369 25.441 68.7602 25.441C68.4835 25.441 68.299 25.2573 68.299 24.9817C68.299 24.6142 68.7602 23.9712 70.0515 23.9712C70.8816 23.9712 71.5273 24.3387 71.5273 25.2573V27.4621C71.5273 27.7377 71.4351 27.9214 71.2506 28.1051ZM70.4205 26.176C69.7748 26.2678 69.2214 26.4516 69.2214 27.0946C69.2214 27.4621 69.4981 27.7377 69.867 27.7377C70.1437 27.7377 70.4205 27.6458 70.4205 27.3702V26.176Z" fill="white"/>
<path d="M74.7559 25.1654C74.2024 25.1654 74.3869 24.6142 73.9257 24.6142C73.649 24.6142 73.5568 24.7061 73.5568 24.9817V28.1051C73.5568 28.197 73.4645 28.2889 73.3723 28.2889H72.5421C72.4499 28.2889 72.3577 28.197 72.3577 28.1051V24.798C72.3577 24.5224 72.4499 24.4305 72.7266 24.2468C73.0033 24.1549 73.4645 23.9712 74.1102 23.9712C74.9403 23.9712 75.3093 24.2468 75.3093 24.6142C75.2171 24.9817 75.0326 25.1654 74.7559 25.1654Z" fill="white"/>
<path d="M77.3398 28.2889C76.233 28.2889 75.4028 27.6458 75.4028 26.0841C75.4028 24.6142 76.3252 23.9712 77.3398 23.9712C78.3545 23.9712 79.0001 24.7061 79.0001 25.5329C79.0001 25.7166 78.9079 25.8085 78.7234 25.9004L76.5097 26.2678C76.6019 26.9109 76.8786 27.3702 77.6165 27.3702C78.0777 27.3702 78.3545 27.0946 78.5389 26.819C78.6312 26.7272 78.6312 26.6353 78.8156 26.6353C78.9079 26.6353 79.0001 26.7272 79.0001 26.9109C79.0001 27.5539 78.3545 28.2889 77.3398 28.2889ZM77.2476 24.6142C76.6942 24.6142 76.5097 25.1654 76.4175 25.7166L77.8933 25.441C77.8933 25.0736 77.7088 24.6142 77.2476 24.6142Z" fill="white"/>
<path d="M52.3426 36.0974H51.8814C51.7891 36.0974 51.7891 36.0974 51.6969 36.0055L51.0512 34.1682H48.9298L48.2841 36.0055C48.2841 36.0974 48.1919 36.0974 48.0996 36.0974H47.7307C47.6384 36.0974 47.6384 36.0055 47.6384 36.0055V35.9136L49.6677 30.6773C49.6677 30.5854 49.7599 30.5854 49.8521 30.5854H50.3133C50.4056 30.5854 50.4056 30.6773 50.4978 30.6773L52.527 35.9136C52.527 36.0055 52.527 36.0055 52.527 36.0055C52.4348 36.0974 52.4348 36.0974 52.3426 36.0974ZM50.3133 31.9634C50.2211 31.596 50.1289 31.2285 50.0366 31.0448C50.0366 31.2285 49.9444 31.596 49.7599 31.9634L49.1142 33.8007H50.8668L50.3133 31.9634Z" fill="white"/>
<path d="M55.8467 36.0058C55.6623 36.0977 55.2011 36.2814 54.5554 36.2814C54.0942 36.2814 53.0796 36.1895 53.0796 35.0872V32.2393C53.0796 32.1475 53.0796 32.1475 53.1718 32.1475H53.633C53.7253 32.1475 53.7253 32.1475 53.7253 32.2393V35.0872C53.7253 35.6383 54.0942 35.9139 54.5554 35.9139C55.2933 35.9139 55.3855 35.6383 55.3855 35.3627V32.2393C55.3855 32.1475 55.3855 32.1475 55.4778 32.1475H55.939C56.0312 32.1475 56.0312 32.1475 56.0312 32.2393V35.4546C56.1235 35.7302 56.0312 35.9139 55.8467 36.0058Z" fill="white"/>
<path d="M58.3372 36.1892C57.3226 36.1892 56.9536 35.5461 56.9536 35.1787C56.9536 34.9949 57.1381 34.9031 57.2303 34.9031C57.4148 34.9031 57.507 34.9949 57.5993 35.1787C57.7838 35.5461 57.9682 35.8217 58.4294 35.8217C58.7984 35.8217 59.1673 35.5461 59.1673 35.0868C59.1673 34.0763 57.1381 34.26 57.1381 33.0658C57.1381 32.3308 57.6915 31.9634 58.4294 31.9634C59.3518 31.9634 59.7208 32.5146 59.7208 32.7902C59.7208 32.9739 59.6285 33.0658 59.444 33.0658C59.2596 33.0658 59.1673 32.9739 59.1673 32.882C59.0751 32.6064 58.8906 32.3308 58.4294 32.3308C57.9682 32.3308 57.7838 32.6064 57.7838 32.9739C57.7838 33.9844 59.9052 33.7088 59.9052 35.0868C59.7208 35.7299 59.1673 36.1892 58.3372 36.1892Z" fill="white"/>
<path d="M61.6557 36.1895C61.2868 36.1895 60.7334 36.0977 60.7334 35.0871V32.3312H60.2722C60.1799 32.3312 60.1799 32.3312 60.1799 32.2393V32.0556C60.1799 31.9637 60.1799 31.9637 60.2722 31.9637H60.7334V31.3207C60.7334 31.2288 60.7334 31.2288 60.8256 31.1369L61.1946 30.8613H61.2868C61.379 30.8613 61.379 30.8613 61.379 30.9532V31.9637H62.1169C62.2092 31.9637 62.2092 31.9637 62.2092 32.0556V32.2393C62.2092 32.3312 62.2092 32.3312 62.1169 32.3312H61.379V35.0871C61.379 35.6383 61.6557 35.7302 61.9325 35.7302C62.0247 35.7302 62.0247 35.7302 62.1169 35.7302C62.2092 35.7302 62.3014 35.8221 62.3014 35.8221C62.3014 36.0977 62.0247 36.1895 61.6557 36.1895Z" fill="white"/>
<path d="M64.9797 32.6983C64.6107 32.6983 64.703 32.3308 64.2418 32.3308C63.8728 32.3308 63.6883 32.5146 63.6883 32.7902V36.0055C63.6883 36.0973 63.6883 36.0973 63.5961 36.0973H63.0427C62.9504 36.0973 62.9504 36.0973 62.9504 36.0055V32.6064C62.9504 32.3308 63.0427 32.239 63.2272 32.1471C63.4116 32.0552 63.8728 31.9634 64.334 31.9634C64.9797 31.9634 65.2564 32.1471 65.2564 32.4227C65.2564 32.6064 65.1642 32.6983 64.9797 32.6983Z" fill="white"/>
<path d="M68.4821 35.3623C68.4821 35.7298 68.3899 35.8217 68.2054 36.0054C68.0209 36.0973 67.5598 36.281 67.0986 36.281C66.1762 36.281 65.5305 35.9135 65.5305 35.1786C65.5305 34.1681 66.8219 33.8006 67.8365 33.6169V33.0657C67.8365 32.6064 67.5598 32.3308 67.1908 32.3308C66.6374 32.3308 66.4529 32.6982 66.3607 33.0657C66.3607 33.1576 66.2684 33.3413 66.0839 33.3413C65.8995 33.3413 65.8072 33.2494 65.8072 33.0657C65.8072 32.7901 66.2684 32.0552 67.3753 32.0552C68.0209 32.0552 68.5744 32.4226 68.5744 33.1576V35.3623H68.4821ZM67.8365 33.8925C67.0063 34.0762 66.1762 34.2599 66.1762 35.0867C66.1762 35.4542 66.4529 35.8217 67.0986 35.8217C67.4675 35.8217 67.8365 35.7298 67.8365 35.3623V33.8925Z" fill="white"/>
<path d="M70.1447 36.0058C70.1447 36.0977 70.1447 36.0977 70.0524 36.0977H69.5913C69.499 36.0977 69.499 36.0977 69.499 36.0058V30.2183C69.499 30.1265 69.499 30.1265 69.5913 30.1265H70.0524C70.1447 30.1265 70.1447 30.1265 70.1447 30.2183V36.0058Z" fill="white"/>
<path d="M71.7112 31.2286C71.4345 31.2286 71.3423 31.0448 71.3423 30.8611C71.3423 30.6774 71.5268 30.4937 71.7112 30.4937C71.988 30.4937 72.0802 30.6774 72.0802 30.8611C72.0802 31.0448 71.8957 31.2286 71.7112 31.2286ZM71.988 36.0056C71.988 36.0974 71.9879 36.0974 71.8957 36.0974H71.4345C71.3423 36.0974 71.3423 36.0974 71.3423 36.0056V32.1472C71.3423 32.0554 71.3423 32.0554 71.4345 32.0554H71.8957C71.9879 32.0554 71.988 32.0554 71.988 32.1472V36.0056Z" fill="white"/>
<path d="M75.7717 35.3623C75.7717 35.7298 75.6795 35.8217 75.495 36.0054C75.3105 36.0973 74.8493 36.281 74.3881 36.281C73.4657 36.281 72.8201 35.9135 72.8201 35.1786C72.8201 34.1681 74.1114 33.8006 75.126 33.6169V33.0657C75.126 32.6064 74.8493 32.3308 74.4804 32.3308C73.9269 32.3308 73.7425 32.6982 73.6502 33.0657C73.6502 33.1576 73.558 33.3413 73.3735 33.3413C73.189 33.3413 73.0968 33.2494 73.0968 33.0657C73.0968 32.7901 73.558 32.0552 74.6648 32.0552C75.3105 32.0552 75.8639 32.4226 75.8639 33.1576V35.3623H75.7717ZM75.126 33.8925C74.2959 34.0762 73.4657 34.2599 73.4657 35.0867C73.4657 35.4542 73.7425 35.8217 74.3881 35.8217C74.7571 35.8217 75.126 35.7298 75.126 35.3623V33.8925Z" fill="white"/>
</g>
<defs>
<filter id="filter0_d" x="0" y="0" width="96" height="66" filterUnits="userSpaceOnUse" color-interpolation-filters="sRGB">
<feFlood flood-opacity="0" result="BackgroundImageFix"/>
<feColorMatrix in="SourceAlpha" type="matrix" values="0 0 0 0 0 0 0 0 0 0 0 0 0 0 0 0 0 0 127 0"/>
<feOffset dy="4"/>
<feGaussianBlur stdDeviation="4"/>
<feColorMatrix type="matrix" values="0 0 0 0 0 0 0 0 0 0 0 0 0 0 0 0 0 0 0.05 0"/>
<feBlend mode="normal" in2="BackgroundImageFix" result="effect1_dropShadow"/>
<feBlend mode="normal" in="SourceGraphic" in2="effect1_dropShadow" result="shape"/>
</filter>
</defs>
</svg>
