<svg width="80" height="49" viewBox="0 0 80 49" fill="none" xmlns="http://www.w3.org/2000/svg">
<g clip-path="url(#clip0)">
<path d="M80 0H0V48.0056H80V0Z" fill="#ED1C24"/>
<path d="M11.7498 19.5482L12.6905 19.4824C12.853 19.4894 13.015 19.4607 13.1651 19.3982C13.3153 19.3357 13.4499 19.2409 13.5593 19.1207C13.6688 19.0004 13.7506 18.8576 13.7987 18.7022C13.8469 18.5469 13.8604 18.3829 13.8382 18.2218V11.7119H15.4939V18.2124C15.516 18.5526 15.4709 18.8939 15.3612 19.2167C15.2514 19.5396 15.0791 19.8376 14.8542 20.0939C14.344 20.5701 13.6706 20.8327 12.9727 20.8276L11.9191 20.8935L11.7498 19.5482Z" fill="white"/>
<path d="M17.4036 11.7119H23.5183V13.0195H19.031V15.5125H23.2173V16.8107H19.031V19.4636H23.5183V20.7712H17.4036V11.7119Z" fill="white"/>
<path d="M28.4573 11.7117H32.4178C33.2371 11.6638 34.0451 11.922 34.6849 12.4361C34.9592 12.6977 35.1735 13.0157 35.3132 13.3681C35.4529 13.7205 35.5145 14.0989 35.494 14.4775C35.5145 14.856 35.4529 15.2344 35.3132 15.5868C35.1735 15.9392 34.9592 16.2572 34.6849 16.5188C34.0482 17.0396 33.2388 17.3015 32.4178 17.2526H30.1036V20.771H28.4573V11.7117ZM32.2202 15.9732C33.3585 15.9732 33.9323 15.484 33.9323 14.4869C33.9501 14.2805 33.9213 14.0727 33.8481 13.879C33.7748 13.6852 33.6589 13.5104 33.509 13.3674C33.1371 13.095 32.6799 12.9648 32.2202 13.0005H30.1036V15.992L32.2202 15.9732Z" fill="white"/>
<path d="M41.9943 18.6545H37.6293L36.6886 20.7712H35.0046L39.0968 11.7119H40.4515L44.5531 20.7712H42.9068L41.9943 18.6545ZM41.4393 17.3657L39.7836 13.5087L38.1279 17.3657H41.4393Z" fill="white"/>
<path d="M53.1044 20.7712H51.3076L49.7554 17.8737C49.6378 17.6279 49.4473 17.4242 49.2098 17.2905C48.9582 17.1681 48.6803 17.1099 48.4007 17.1211H47.1496V20.7618H45.5127V11.7119H49.5202C50.3585 11.6488 51.1911 11.8929 51.8626 12.3987C52.1394 12.6468 52.3567 12.9541 52.4984 13.2977C52.6401 13.6414 52.7025 14.0125 52.6811 14.3836C52.7051 15.0068 52.4973 15.6168 52.0978 16.0957C51.663 16.5708 51.0788 16.8828 50.4421 16.98C50.6958 17.0582 50.93 17.1891 51.1294 17.3642C51.3288 17.5393 51.4889 17.7546 51.5992 17.996L53.1044 20.7712ZM50.6679 15.5125C50.8195 15.3764 50.9375 15.2071 51.0126 15.0177C51.0877 14.8284 51.1178 14.6242 51.1007 14.4212C51.1193 14.2195 51.0898 14.0163 51.0146 13.8282C50.9394 13.6401 50.8205 13.4726 50.6679 13.3394C50.2585 13.0817 49.7768 12.9629 49.2944 13.0007H47.1308V15.8229H49.2944C49.774 15.874 50.257 15.7649 50.6679 15.5125Z" fill="white"/>
<path d="M54.4402 11.7119H56.1053V19.4071H60.3292V20.7712H54.4402V11.7119Z" fill="white"/>
<path d="M61.5803 11.7119H67.6386V13.0195H63.1984V15.5125H67.3846V16.8107H63.1984V19.4636H67.6386V20.7712H61.5803V11.7119Z" fill="white"/>
<path d="M8.41016 27.1309H14.3462V28.4573H10.047V30.922H14.111V32.2484H10.0658V36.1901H8.41016V27.1309Z" fill="white"/>
<path d="M23.2833 36.1901H21.477L19.9248 33.302C19.8107 33.0568 19.6234 32.8531 19.3886 32.7188C19.1341 32.6063 18.8578 32.5517 18.5796 32.5588H17.319V36.1901H15.6821V27.1308H19.6991C20.5365 27.0753 21.3665 27.3187 22.0415 27.8175C22.3154 28.067 22.5295 28.3751 22.668 28.7187C22.8064 29.0624 22.8656 29.4328 22.8411 29.8025C22.8684 30.429 22.6604 31.0431 22.2579 31.524C21.8274 31.998 21.2453 32.3074 20.6116 32.3989C20.8652 32.4771 21.0994 32.608 21.2988 32.7831C21.4982 32.9582 21.6584 33.1735 21.7687 33.4149L23.2833 36.1901ZM20.8373 30.9314C20.9901 30.7958 21.1094 30.6268 21.1861 30.4375C21.2628 30.2482 21.2948 30.0438 21.2795 29.8401C21.2963 29.6377 21.2649 29.4342 21.1881 29.2462C21.1113 29.0582 20.9911 28.891 20.8373 28.7583C20.4279 28.5005 19.9462 28.3818 19.4639 28.4196H17.3096V31.2418H19.4639C19.9434 31.2929 20.4264 31.1838 20.8373 30.9314Z" fill="white"/>
<path d="M30.5268 34.0735H26.1241L25.1834 36.1901H23.5183L27.6199 27.1309H28.9652L33.0668 36.1901H31.4393L30.5268 34.0735ZM29.9717 32.7847L28.3161 28.9277L26.6604 32.7847H29.9717Z" fill="white"/>
<path d="M41.6933 27.1309V36.1901H40.4516L35.588 29.8684V36.1901H34.0452V27.1309H35.2869L40.1411 33.4432V27.1309H41.6933Z" fill="white"/>
<path d="M49.5956 35.9833C49.0753 36.1717 48.5301 36.2827 47.9775 36.3125V36.6888H48.1939C48.462 36.6739 48.7263 36.7576 48.9371 36.924C49.0319 37.0023 49.1069 37.1019 49.1559 37.2147C49.205 37.3275 49.2267 37.4503 49.2193 37.5731C49.2216 37.7312 49.184 37.8874 49.1101 38.0271C49.0361 38.1669 48.928 38.2858 48.7959 38.3727C48.4369 38.5995 48.0158 38.7081 47.5918 38.6832C47.3868 38.6818 47.1822 38.6629 46.9803 38.6267C46.7835 38.5869 46.5912 38.527 46.4065 38.448L46.5664 37.7801C46.887 37.893 47.2237 37.9534 47.5636 37.9588C47.7227 37.967 47.8813 37.9346 48.0245 37.8647C48.0779 37.8376 48.1222 37.7956 48.1523 37.7439C48.1823 37.6922 48.1968 37.6328 48.1939 37.5731C48.194 37.5319 48.1838 37.4913 48.164 37.4551C48.1443 37.4189 48.1157 37.3883 48.081 37.3661C47.9876 37.3101 47.8793 37.2838 47.7705 37.2909C47.5946 37.2987 47.4206 37.3303 47.2531 37.3849L47.0368 37.1592L47.1403 36.2184C46.4317 36.1656 45.7484 35.9324 45.1553 35.5411C44.5887 35.1347 44.1433 34.5819 43.8665 33.9419C43.5548 33.2207 43.4009 32.4413 43.415 31.6559C43.3956 30.8094 43.5795 29.9707 43.9512 29.21C44.2846 28.5295 44.8158 27.9655 45.4752 27.5919C46.1876 27.1956 46.9932 26.9975 47.8082 27.0181C48.3939 27.0138 48.976 27.1093 49.5297 27.3003C50.0359 27.4672 50.5009 27.7398 50.8938 28.0999L50.3388 29.304C49.9715 29.0025 49.5587 28.7611 49.1158 28.5891C48.7066 28.4365 48.2731 28.36 47.8364 28.3633C47.457 28.3409 47.0776 28.4056 46.727 28.5523C46.3765 28.6991 46.0641 28.924 45.8138 29.21C45.2932 29.9148 45.0398 30.7816 45.0989 31.6559C45.0375 32.5333 45.291 33.4039 45.8138 34.1112C46.0641 34.3971 46.3765 34.6221 46.727 34.7688C47.0776 34.9156 47.457 34.9802 47.8364 34.9579C48.2731 34.9612 48.7066 34.8846 49.1158 34.7321C49.5587 34.56 49.9715 34.3187 50.3388 34.0171L50.8938 35.2307C50.5145 35.5641 50.0734 35.8198 49.5956 35.9833Z" fill="white"/>
<path d="M58.2126 34.0735H53.8005L52.8598 36.1901H51.2229L55.3151 27.1309H56.6698L60.7619 36.1901H59.1251L58.2126 34.0735ZM57.6575 32.7847L56.0018 28.9277L54.3367 32.7847H57.6575Z" fill="white"/>
<path d="M61.731 27.1309H63.3866V36.1901H61.731V27.1309Z" fill="white"/>
<path d="M66.4629 36.0205C65.899 35.8606 65.3717 35.5921 64.9106 35.2303L65.4563 34.0167C65.8706 34.3406 66.3387 34.589 66.8392 34.7505C67.3502 34.9121 67.8836 34.9915 68.4196 34.9857C68.9208 35.0133 69.4196 34.8992 69.8589 34.6564C70.0212 34.5607 70.1543 34.4225 70.2438 34.2568C70.3333 34.091 70.3759 33.9039 70.3669 33.7157C70.3711 33.5542 70.3291 33.3949 70.2458 33.2566C70.1624 33.1182 70.0412 33.0066 69.8965 32.9349C69.4014 32.6935 68.8762 32.5195 68.3349 32.4175C67.6889 32.2993 67.0579 32.11 66.4534 31.853C66.0536 31.675 65.7068 31.3962 65.4469 31.044C65.1921 30.6707 65.0636 30.2257 65.08 29.774C65.075 29.263 65.2295 28.7631 65.5221 28.3441C65.8472 27.9072 66.2867 27.5686 66.7921 27.3657C67.3873 27.1169 68.0288 26.9983 68.6736 27.0177C69.2908 27.0127 69.9045 27.1113 70.4892 27.3093C71.0113 27.4673 71.4928 27.737 71.9003 28.0995L71.3547 29.3037C70.5964 28.6899 69.6491 28.3575 68.6736 28.3629C68.1909 28.3356 67.7115 28.4571 67.3001 28.711C67.1381 28.8185 67.0064 28.9658 66.9174 29.1387C66.8285 29.3116 66.7854 29.5044 66.7921 29.6988C66.7902 29.8602 66.8298 30.0195 66.9073 30.1612C66.9847 30.3029 67.0973 30.4222 67.2343 30.5078C67.6874 30.7513 68.1716 30.9317 68.6736 31.044C69.3189 31.1696 69.9495 31.3619 70.555 31.6179C70.9831 31.7833 71.3596 32.0592 71.6463 32.4175C71.9113 32.7724 72.0473 33.2072 72.032 33.6499C72.0436 34.1575 71.8919 34.6554 71.5993 35.0704C71.286 35.4984 70.8543 35.8254 70.3575 36.0111C69.756 36.236 69.1181 36.3477 68.476 36.3404C67.792 36.3445 67.1119 36.2365 66.4629 36.0205Z" fill="white"/>
</g>
<defs>
<clipPath id="clip0">
<rect width="80" height="48.0056" fill="white"/>
</clipPath>
</defs>
</svg>
