<svg width="270" height="210" viewBox="0 0 270 210" fill="none" xmlns="http://www.w3.org/2000/svg">
<path d="M118.823 51.5632C118.823 51.5632 116.423 52.303 115.628 54.1178C114.834 55.9326 113.602 57.4814 113.486 63.2718C113.449 64.9216 114.286 66.0552 115.091 66.1882C115.686 66.284 117.197 66.1297 117.276 67.1515C117.354 68.1734 117.249 70.9621 117.249 70.9621C117.249 70.9621 118.586 73.9691 119.544 74.3842C120.502 74.7993 123.196 73.5753 123.438 73.0697C123.68 72.5641 122.88 67.8008 123.438 66.2468C123.996 64.6927 125.449 58.4659 125.196 56.9066C124.943 55.3472 123.575 52.2019 122.807 51.7655C122.038 51.3291 118.823 51.5632 118.823 51.5632Z" fill="#FFBD9E"/>
<path d="M189.718 164.87L190.187 171.836L192.292 173.864L193.819 171.836L194.166 164.87H189.718Z" fill="#FF913B"/>
<path d="M208.675 164.593L210.165 171.405L212.549 173.093L213.754 170.857L213.07 163.923L208.675 164.593Z" fill="#FF913B"/>
<path d="M214.464 159.803C214.222 157.201 213.475 154.604 213.022 152.076C212.159 147.249 212.685 142.225 212.733 137.445C212.796 130.878 212.806 125.04 212.296 118.494C212.126 116.01 211.802 113.539 211.328 111.096C211.154 110.239 211.101 109.063 210.57 108.344C210.406 108.121 210.166 107.968 209.896 107.913C209.37 107.78 208.801 107.642 208.27 107.562C207.596 107.456 206.896 107.519 206.212 107.434C205.782 107.36 205.342 107.36 204.912 107.434C203.933 107.647 202.949 107.844 201.976 108.057C201.293 108.278 200.627 108.546 199.981 108.861C199.37 109.084 198.755 109.276 198.16 109.531C197.813 109.675 197.46 109.829 197.107 110.01C196.441 109.441 195.724 108.935 194.965 108.499C193.787 107.778 192.508 107.239 191.171 106.902C189.82 106.622 188.438 106.521 187.061 106.604C186.455 106.604 185.882 106.7 185.287 106.641C184.877 106.604 184.029 106.753 183.708 106.466C183.66 106.425 183.601 106.399 183.539 106.39C183.477 106.38 183.414 106.388 183.356 106.412C183.318 106.414 183.281 106.427 183.252 106.451C183.223 106.475 183.202 106.508 183.192 106.546C183.163 106.59 183.147 106.643 183.147 106.697C183.147 106.751 183.163 106.804 183.192 106.849C183.129 107.621 182.903 108.445 182.787 109.196C182.219 112.921 183.098 116.514 183.603 120.207C183.998 123.092 183.777 126.03 183.887 128.941C184.087 134.018 184.887 139.053 184.992 144.119C185.154 148.306 185.536 152.48 186.134 156.626C186.555 159.947 186.903 168.734 191.876 168.5C192.254 168.435 192.613 168.288 192.929 168.068C193.285 167.947 193.628 167.786 193.95 167.589C195.755 166.158 196.113 163.832 196.186 161.65C196.229 158.948 196.627 156.263 197.371 153.667C197.922 151.545 198.151 149.35 198.049 147.158C197.903 143.937 198 140.71 198.339 137.504C198.376 137.696 198.418 137.892 198.476 138.095C199.155 140.436 199.997 142.315 200.17 144.79C200.504 149.288 201.368 153.73 202.744 158.02C203.844 161.506 206.065 168.936 210.928 168.026C211.972 167.781 212.92 167.225 213.649 166.429C214.775 164.976 214.643 161.528 214.464 159.803Z" fill="#30686E"/>
<path d="M192.581 58.8173L193.029 62.415L199.602 61.6753L198.992 57.3804L192.581 58.8173Z" fill="#FF913B"/>
<path d="M188.435 53.5912C187.629 53.5912 186.997 52.6864 186.997 51.5316C186.997 50.3767 187.629 49.4719 188.435 49.4719C189.24 49.4719 189.877 50.3767 189.877 51.5316C189.877 52.6864 189.245 53.5912 188.435 53.5912ZM188.435 49.9988C187.94 49.9988 187.524 50.7013 187.524 51.5316C187.524 52.3618 187.94 53.0643 188.435 53.0643C188.929 53.0643 189.35 52.3618 189.35 51.5316C189.35 50.7013 188.935 49.9988 188.435 49.9988Z" fill="#2E1811"/>
<path d="M188.808 47.1143C188.808 47.1143 188.14 47.6145 187.85 49.2005C187.561 50.7865 188.24 55.4912 188.555 56.9015C188.871 58.3119 189.834 58.727 190.818 59.0303C191.802 59.3337 195.639 58.6418 195.639 58.6418C195.639 58.6418 194.681 50.6268 194.681 50.5523C194.681 50.4778 188.808 47.1143 188.808 47.1143Z" fill="#FF913B"/>
<path d="M190.177 51.3611H187.387V51.8883H190.177V51.3611Z" fill="#2E1811"/>
<path d="M204.128 50.8077C204.002 50.2116 203.844 49.6262 203.775 49.0461C203.633 47.8167 204.191 46.566 203.891 45.3526C203.73 44.749 203.442 44.1873 203.048 43.7054C202.654 43.2234 202.163 42.8324 201.607 42.5585C200.923 42.3018 200.204 42.1493 199.476 42.1061C199.088 42.0943 198.702 42.0605 198.318 42.005C197.534 41.8028 197.028 41.0151 196.213 40.7756C195.302 40.4936 194.576 40.7437 193.729 41.0683C192.792 41.4302 191.908 41.1748 190.939 41.1695C190.374 41.1323 189.815 41.3015 189.363 41.6463C188.911 41.9911 188.596 42.4885 188.476 43.0481C188.413 43.2664 188.371 43.4846 188.297 43.6921C188.224 43.8997 188.119 44.1019 188.034 44.3095C187.689 45.1953 187.689 46.1805 188.034 47.0663C188.345 47.9551 189.161 48.2372 188.997 49.2537C188.747 50.4553 188.889 51.7067 189.403 52.8194C189.761 53.49 190.255 54.0808 190.618 54.7407C190.975 55.4872 191.398 56.1996 191.881 56.8695C192.729 57.902 193.655 58.1628 194.897 58.3544C195.201 58.4451 195.496 58.5608 195.781 58.7003C196.136 58.798 196.505 58.8269 196.871 58.7855C197.94 58.71 198.986 58.4339 199.955 57.9712C200.549 57.7051 201.044 57.2474 201.633 56.976C204.112 55.8424 204.717 53.5007 204.128 50.8077Z" fill="#7D3A14"/>
<path d="M168.283 158.393L169.862 172.709L171.898 174.428L173.64 172.411L174.63 158.829L168.283 158.393Z" fill="#FF913B"/>
<path d="M174.73 165.099C174.723 165.558 174.753 166.017 174.819 166.472C174.86 167.29 174.804 168.11 174.651 168.915C174.551 169.772 174.683 170.666 174.572 171.501C174.426 172.246 174.117 172.948 173.667 173.556C172.992 173.986 172.288 174.37 171.562 174.705L169.483 173.146C169.257 172.975 169.125 172.252 169.057 171.98C168.936 171.322 168.92 170.648 169.009 169.984C169.114 168.51 168.483 167.217 168.346 165.753C168.299 165.179 167.893 164.396 168.072 163.843C168.251 163.289 174.283 163.172 174.761 163.603C174.967 163.779 174.94 164.056 174.867 164.343C174.795 164.589 174.749 164.843 174.73 165.099Z" fill="#FFEBD9"/>
<path d="M174.84 176.057C174.84 176.589 174.84 177.068 174.777 177.457C174.771 177.715 174.721 177.971 174.63 178.212C174.335 178.654 173.988 178.622 171.056 178.681C168.125 178.739 166.288 178.798 165.941 178.681C165.594 178.564 164.952 177.18 165.678 176.446C165.994 176.132 166.283 175.828 166.551 175.551C168.509 173.524 169.399 172.523 170.53 172.395C171.883 172.236 174.083 172.252 174.514 172.816C174.755 173.498 174.862 174.221 174.83 174.945C174.84 175.301 174.846 175.695 174.84 176.057Z" fill="#FCB415"/>
<path d="M151.052 158.393L152.631 172.709L154.663 174.428L156.41 172.411L157.394 158.829L151.052 158.393Z" fill="#FF913B"/>
<path d="M163.257 131.66C163.257 131.66 165.362 158.271 165.646 159.122C166.057 160.383 169.73 159.899 170.641 159.846C172.025 159.766 175.693 159.777 176.367 158.185C176.893 156.951 176.514 129.233 176.514 129.233L163.257 131.66Z" fill="#12403A"/>
<path d="M146.668 129.68C146.668 129.68 148.247 157.648 148.368 158.419C148.489 159.191 149.71 159.447 151.879 159.67C154.047 159.894 153.936 160 155.81 160.202C157.684 160.405 159.22 159.819 159.526 159.09C159.831 158.361 160.531 130.729 160.531 130.729L146.668 129.68Z" fill="#12403A"/>
<path d="M137.716 85.5606C137.716 85.5606 134.701 84.0651 135.238 83.139C135.774 82.213 138.09 78.4237 139.658 77.4551C141.227 76.4864 144.626 74.8526 145.147 74.8526C145.668 74.8526 147.574 74.0862 147.458 74.8526C147.342 75.619 140.79 86.0289 140.442 86.1779C140.095 86.3269 137.716 85.5606 137.716 85.5606Z" fill="#CE6D68"/>
<path d="M151.226 47.3057C151.226 47.3057 151.384 55.3473 153.263 56.582C153.834 56.9607 154.503 57.1625 155.186 57.1625C155.87 57.1625 156.538 56.9607 157.11 56.582C157.141 56.4543 156.584 48.4766 156.584 48.2903C156.324 47.1742 156 46.0743 155.615 44.9959C155.521 44.964 151.226 47.3057 151.226 47.3057Z" fill="#FF913B"/>
<path d="M155.231 56.4809C155.231 56.7364 156.015 59.5198 156.015 59.5198L162.025 58.003C162.025 58.003 161.462 54.0115 161.367 53.9795C161.273 53.9476 155.357 53.6655 155.357 53.6655L155.231 56.4809Z" fill="#FF913B"/>
<path d="M157.368 40.2593C157.31 39.8601 156.789 39.7909 156.478 39.7271C155.952 39.6579 155.552 39.3119 154.968 39.3918C154.552 39.445 154.173 39.61 153.747 39.6366C153.321 39.6632 152.794 39.6366 152.321 39.6366C151.479 39.6366 150.542 39.759 150.026 40.4296C149.81 40.7848 149.618 41.1547 149.452 41.5366C149.063 42.2071 148.4 42.6861 148.084 43.3993C147.983 43.6814 147.946 43.983 147.976 44.2815C148.006 44.5801 148.103 44.8679 148.258 45.1236C148.521 45.741 148.479 46.4435 148.737 47.0608C149.031 47.6198 149.411 48.1281 149.863 48.567C150.088 48.8629 150.399 49.0805 150.752 49.1897C150.945 49.2126 151.137 49.2463 151.326 49.2908C151.663 49.4079 151.91 49.6367 152.273 49.4664C152.426 49.381 152.555 49.2574 152.647 49.1074C152.739 48.9574 152.792 48.786 152.8 48.6096L152.915 48.4605C152.998 48.3596 153.098 48.2748 153.21 48.2104C153.224 47.9516 153.224 47.6922 153.21 47.4334C153.137 46.7354 153.182 46.0301 153.342 45.3471C153.551 44.7239 153.727 44.0897 153.868 43.4472C153.927 43.0888 154.05 42.7443 154.231 42.4307C154.41 42.1592 154.663 41.9676 154.836 41.6856C154.91 41.57 154.957 41.439 154.973 41.3024C155.473 41.2806 155.968 41.1966 156.447 41.0522C156.784 40.9352 157.441 40.7702 157.368 40.2593Z" fill="#2E1811"/>
<path d="M164.609 54.102C164.603 53.9255 164.558 53.7527 164.476 53.5969C164.393 53.441 164.277 53.3061 164.136 53.2026C163.799 53.0398 163.422 52.9806 163.052 53.0322C162.505 53.0545 161.96 53.1113 161.42 53.2026C160.436 53.3675 159.457 53.5485 158.489 53.7827C157.873 53.937 157.384 54.2244 156.731 54.07C156.547 54.0039 156.346 54.0039 156.163 54.07C156.163 54.0168 156.126 53.9476 156.073 53.9583C156.021 53.9689 156.031 54.07 156.01 54.1339C155.989 54.1978 155.805 54.2137 155.747 54.2989L155.494 54.0807C154.663 53.3462 153.852 52.5958 153.094 51.7922C152.858 51.5421 152.615 51.2919 152.394 51.0258C152.28 50.6376 152.117 50.2656 151.91 49.9188L151.768 49.5676C151.705 49.36 151.652 49.1578 151.61 48.9555C151.604 48.9222 151.59 48.8907 151.571 48.8628C151.552 48.8349 151.527 48.8113 151.498 48.7933C151.47 48.7754 151.438 48.7635 151.405 48.7585C151.371 48.7534 151.338 48.7553 151.305 48.764C151.266 48.6582 151.203 48.563 151.122 48.4855C151.041 48.408 150.943 48.3503 150.837 48.3169C150.774 48.3005 150.708 48.3063 150.65 48.3335C150.591 48.3606 150.544 48.4074 150.516 48.4659C150.464 48.4586 150.411 48.4656 150.363 48.4862C150.315 48.5069 150.273 48.5403 150.242 48.583C150.268 48.1807 150.268 47.7772 150.242 47.3749C150.242 47.3438 150.23 47.3141 150.208 47.2921C150.186 47.2701 150.157 47.2578 150.126 47.2578C150.095 47.2578 150.066 47.2701 150.044 47.2921C150.023 47.3141 150.01 47.3438 150.01 47.3749C149.86 48.0556 149.814 48.7556 149.874 49.4505C149.936 49.7925 150.111 50.1035 150.368 50.334C150.668 50.5681 150.968 50.648 151.179 51.0152C151.331 51.324 151.454 51.6465 151.547 51.9785C151.73 52.456 151.979 52.9041 152.289 53.309C152.543 53.7696 152.824 54.2139 153.131 54.6395C153.438 54.9348 153.795 55.1726 154.184 55.342C154.531 55.5421 154.902 55.6942 155.289 55.7944C155.531 55.8423 155.815 55.7199 156.047 55.7944C156.278 55.8689 156.473 56.2414 156.705 56.4384C157.231 56.9014 157.836 56.6672 158.436 56.912C158.752 57.0451 158.999 57.3059 159.305 57.4442C160.152 57.8753 160.994 57.375 161.71 56.912C162.188 56.7123 162.681 56.5486 163.183 56.4224C163.687 56.1037 164.096 55.6532 164.367 55.1185C164.552 54.8138 164.637 54.4581 164.609 54.102Z" fill="#2E1811"/>
<path d="M154.994 40.4085C152.889 41.0684 151.958 41.5155 151.515 44.235C151.041 46.8798 151.448 49.6092 152.673 51.9946C154.178 54.6556 157.215 55.6029 159.752 55.571C160.827 55.6061 161.89 55.3258 162.812 54.764C163.733 54.2021 164.475 53.3826 164.946 52.4044C165.999 50.4725 168.862 47.6145 169.014 45.9115C169.167 44.2084 167.436 42.4628 166.857 41.6538C166.278 40.8449 166.451 37.3962 163.004 38.0455C161.473 38.3276 157.099 39.7432 154.994 40.4085Z" fill="#D58128"/>
<path d="M160.836 53.128C159.68 53.1454 158.539 52.8545 157.529 52.2846C156.52 51.7147 155.676 50.8859 155.084 49.8815C152.379 45.6239 154.9 40.9085 154.921 40.834C154.932 40.8137 154.946 40.7958 154.964 40.7813C154.982 40.7668 155.003 40.756 155.025 40.7496C155.047 40.7431 155.07 40.7412 155.093 40.7438C155.115 40.7464 155.137 40.7536 155.157 40.7648C155.198 40.7874 155.228 40.8249 155.242 40.8696C155.256 40.9142 155.252 40.9625 155.231 41.0043C155.231 41.0522 152.784 45.6132 155.378 49.6633C158.441 54.4532 163.431 52.3243 163.641 52.2339C163.662 52.2222 163.685 52.2151 163.709 52.2129C163.733 52.2108 163.757 52.2136 163.78 52.2213C163.802 52.229 163.823 52.2414 163.841 52.2576C163.859 52.2739 163.873 52.2937 163.883 52.3158C163.893 52.3379 163.898 52.3618 163.898 52.386C163.899 52.4103 163.894 52.4343 163.884 52.4566C163.875 52.4789 163.861 52.499 163.844 52.5156C163.826 52.5322 163.806 52.545 163.783 52.5532C162.845 52.9281 161.845 53.123 160.836 53.128Z" fill="#C27019"/>
<path d="M145.6 64.5119C147.54 62.8774 149.642 61.4506 151.873 60.2542C155.363 58.4341 159.768 57.5081 163.204 57.2366C166.641 56.9652 172.562 57.5719 172.562 57.5719C172.562 57.5719 175.235 64.2671 175.719 70.0841C176.203 75.9011 177.756 104.065 178.393 108.589C179.03 113.113 179.498 126.546 179.209 128.132C178.919 129.718 174.151 131.07 170.609 131.953C167.067 132.836 158.405 132.948 154.452 132.246C150.5 131.543 144.4 130.01 143.874 128.84C143.348 127.669 144.863 88.3494 145.153 83.469C145.442 78.5887 145.6 64.5119 145.6 64.5119Z" fill="#CE6D68"/>
<path d="M130.054 166.6L130.538 172.14L132.18 173.481L133.586 171.97L133.712 166.451L130.054 166.6Z" fill="#FF913B"/>
<path d="M130.464 174.546C130.464 174.546 130.301 171.241 130.317 171.006C130.333 170.772 131.759 170.522 132.686 170.581C133.612 170.639 133.886 170.788 133.896 171.065C133.907 171.342 133.938 174.258 133.938 174.258L130.464 174.546Z" fill="#FFEBD9"/>
<path d="M114.87 166.52L115.134 172.076L116.713 173.486L118.187 172.033L118.534 166.52H114.87Z" fill="#FF913B"/>
<path d="M115.902 72.9794C116.224 72.1648 116.768 71.4598 117.472 70.947C118.176 70.4342 119.009 70.1349 119.875 70.0842C120.799 70.0455 121.72 70.2005 122.581 70.5394C123.443 70.8783 124.225 71.3937 124.88 72.0533L115.902 72.9794Z" fill="white"/>
<path d="M122.991 125.332C122.991 125.332 121.307 150.718 121.191 153.539C121.075 156.36 121.512 164.88 119.428 166.791C118.07 168.042 114.607 168.068 113.565 166.482C112.523 164.896 111.055 147.025 111.05 146.961C111.044 146.897 109.865 118.754 109.95 118.041C110.034 117.328 109.802 110.936 111.371 110.702C112.939 110.468 123.475 116.285 123.475 116.285L122.991 125.332Z" fill="#74999C"/>
<path d="M134.469 107.429C134.469 107.429 136.153 116.519 136.269 123.039C136.385 129.558 136.758 138.201 136.616 142.491C136.506 145.881 135.564 162.885 135.516 164.939C135.469 166.993 133.311 167.818 131.743 167.877C130.175 167.935 127.849 166.882 126.975 164.061C126.101 161.24 124.996 149.415 124.707 145.721C124.417 142.028 122.844 130.447 122.438 128.036C122.033 125.625 121.912 115.87 121.912 115.87L134.469 107.429Z" fill="#74999C"/>
<path d="M129.006 113.049C129.096 113.257 131.99 119.478 133.832 119.191C135.674 118.903 135.722 108.637 135.722 108.637C135.151 108.675 134.577 108.675 134.006 108.637C133.764 108.536 129.006 113.049 129.006 113.049Z" fill="white"/>
<path d="M116.655 113.049C116.57 113.257 113.671 119.478 111.834 119.191C109.997 118.903 109.944 108.637 109.944 108.637C110.516 108.675 111.089 108.675 111.66 108.637C111.902 108.536 116.655 113.049 116.655 113.049Z" fill="white"/>
<path d="M88.8884 172.145H88.6463C88.0349 172.077 87.4409 171.896 86.8934 171.613C86.6237 171.462 86.4037 171.234 86.2606 170.958C86.1175 170.682 86.0575 170.369 86.088 170.059C86.1353 169.889 86.3143 169.527 86.9776 169.527C88.2778 169.527 88.8095 171.869 88.8358 171.97L88.8884 172.145ZM86.9565 169.841C86.6565 169.841 86.4775 169.942 86.4301 170.134C86.4158 170.368 86.4682 170.601 86.5811 170.805C86.694 171.01 86.8627 171.178 87.0671 171.288C87.4969 171.514 87.9585 171.672 88.4357 171.757C88.2304 171.06 87.7303 169.851 86.9829 169.841H86.9565Z" fill="#F2C79E"/>
<path d="M85.6564 173.274C85.6188 173.273 85.5825 173.26 85.5524 173.237C85.5223 173.214 85.4998 173.183 85.488 173.147C85.4749 173.102 85.4797 173.054 85.5014 173.013C85.5231 172.972 85.5599 172.942 85.6038 172.928L87.5142 172.332C87.0346 172.292 86.5531 172.281 86.0722 172.3C85.6268 172.317 85.1851 172.389 84.7565 172.513C84.7347 172.521 84.7117 172.524 84.6886 172.523C84.6656 172.521 84.6431 172.515 84.6223 172.505C84.6015 172.495 84.583 172.481 84.5676 172.463C84.5522 172.446 84.5404 172.426 84.5328 172.404C84.5252 172.382 84.522 172.358 84.5233 172.335C84.5246 172.312 84.5304 172.289 84.5404 172.268C84.5505 172.247 84.5645 172.228 84.5817 172.213C84.5989 172.197 84.6189 172.185 84.6407 172.177C85.1005 172.049 85.5743 171.979 86.0512 171.97C86.8441 171.951 87.6373 171.991 88.4247 172.087L89.2352 172.188L85.7091 173.285L85.6564 173.274Z" fill="#F2C79E"/>
<path d="M88.4878 165.296L89.0142 171.597L90.9724 174.152L92.4148 171.597L92.9359 165.296H88.4878Z" fill="#FF913B"/>
<path d="M105.797 165.418L106.54 171.698L108.587 174.183L109.94 171.581L110.245 165.264L105.797 165.418Z" fill="#FF913B"/>
<path d="M82.4303 120.25C82.4303 120.25 83.3618 148.898 83.5355 152.48C83.7092 156.062 83.6513 163.944 84.2302 164.822C84.8091 165.7 88.1247 166.419 89.9246 166.419C91.7245 166.419 93.9928 165.833 94.1664 165.54C94.3401 165.248 96.6084 141.916 96.6084 141.916C96.6084 141.916 88.2984 123.406 88.2405 123.23C88.1826 123.054 82.4303 120.25 82.4303 120.25Z" fill="#2E1811"/>
<path d="M112.186 127.509C112.186 127.509 113.055 164.471 112.765 165.056C112.476 165.642 109.276 166.349 107.592 166.408C105.908 166.466 102.713 166.115 102.482 165.876C102.25 165.636 99.9503 142.368 99.9503 142.368L112.186 127.509Z" fill="#2E1811"/>
<path d="M105.613 57.7742C105.613 54.7992 104.976 51.276 103.329 49.1099C101.082 46.1562 95.8821 45.9486 93.5875 48.9609C92.4413 50.4721 91.7146 52.2652 91.4824 54.1552C91.3297 55.3899 91.114 57.2633 92.2876 57.9339C95.2874 59.6476 98.4083 60.8131 101.84 60.8131C102.383 60.8425 102.928 60.8014 103.461 60.6907C103.413 60.7759 103.503 60.9089 103.608 60.845C103.707 60.7866 103.785 60.6969 103.829 60.5896C104.243 60.5427 104.646 60.422 105.018 60.233C105.172 60.1532 105.302 60.0331 105.395 59.8852C105.488 59.7373 105.539 59.5671 105.545 59.3921C105.581 58.8812 105.608 58.3384 105.613 57.7742Z" fill="#C24112"/>
<path d="M134.848 108.573C133.895 109.913 132.82 111.16 131.638 112.299C130.805 113.114 130.015 113.972 129.27 114.869C127.691 116.924 124.328 118.334 121.017 117.983C118.265 117.69 113.955 114.114 112.139 112.469C111.765 112.134 111.502 111.884 111.371 111.751C111.175 111.325 111.059 110.867 111.029 110.399C110.96 109.946 110.892 109.398 110.829 108.802C110.744 108.036 110.66 107.158 110.586 106.21C110.523 105.487 110.465 104.715 110.413 103.932C110.371 103.31 110.334 102.682 110.292 102.048C110.25 101.415 110.223 100.83 110.192 100.234C110.144 99.3981 110.108 98.5785 110.071 97.8068C110.013 96.4337 109.976 95.1937 109.96 94.2197C109.924 93.5206 109.939 92.8196 110.008 92.1229C110.068 91.7457 110.108 91.3655 110.129 90.9839C110.129 90.8349 110.155 90.6806 110.165 90.5156C110.239 89.531 110.318 88.1792 110.397 86.6624C110.397 86.3325 110.434 85.9918 110.45 85.6406C110.513 84.4485 110.576 83.1871 110.629 81.9152C110.655 81.3829 110.681 80.888 110.702 80.3877C110.776 78.8284 110.839 77.3541 110.892 76.1301C110.892 76.0502 110.892 75.9757 110.892 75.8959C110.971 74.145 111.018 72.9901 111.018 72.9901C111.018 72.9901 113.165 72.6335 116.028 72.1439C119.712 71.5159 124.58 70.675 127.575 70.0949C128.401 69.9219 129.242 69.8292 130.085 69.8181C131.701 69.8181 132.538 70.3503 133.006 71.1114C133.169 71.3871 133.293 71.6844 133.375 71.9948C133.511 72.4927 133.613 72.9995 133.68 73.5116C133.738 73.9001 133.811 74.576 133.89 75.4701C133.89 75.5393 133.89 75.6085 133.89 75.683C133.99 76.7474 134.106 78.1205 134.222 79.6107C134.274 80.2866 134.327 80.9838 134.374 81.6969C134.432 82.5112 134.49 83.3415 134.543 84.1717L134.622 85.3958L134.685 86.5081C134.759 87.8492 134.822 89.1265 134.864 90.2335C134.864 90.8456 134.901 91.415 134.911 91.9259C134.911 92.7349 134.911 93.3948 134.911 93.8472V93.9324C134.869 94.5976 134.859 95.4172 134.869 96.322C134.869 97.4449 134.943 98.7009 135.011 99.9463C135.048 100.654 135.095 101.362 135.138 102.043C135.174 102.602 135.217 103.14 135.253 103.64C135.332 104.736 135.411 105.689 135.469 106.338C135.469 106.471 135.469 106.594 135.495 106.7C135.484 107.378 135.257 108.035 134.848 108.573Z" fill="#384A8C"/>
<path d="M134.848 108.573C133.895 109.913 132.82 111.16 131.638 112.299C130.805 113.114 130.015 113.972 129.27 114.869C127.691 116.924 124.328 118.334 121.017 117.983C118.265 117.69 113.955 114.114 112.139 112.469C111.765 112.134 111.502 111.884 111.371 111.751C111.175 111.325 111.059 110.867 111.029 110.399C110.96 109.946 110.892 109.398 110.829 108.802C110.744 108.036 110.66 107.158 110.586 106.21C110.523 105.487 110.465 104.715 110.413 103.932C110.371 103.31 110.334 102.682 110.292 102.048C110.25 101.415 110.223 100.83 110.192 100.234C110.144 99.3981 110.108 98.5785 110.071 97.8068C110.013 96.4337 109.976 95.1937 109.96 94.2197C109.924 93.5206 109.939 92.8196 110.008 92.1229C110.068 91.7457 110.108 91.3655 110.129 90.9839C110.129 90.8349 110.155 90.6806 110.165 90.5156C110.239 89.531 110.318 88.1792 110.397 86.6624C110.397 86.3325 110.434 85.9918 110.45 85.6406C110.513 84.4485 110.576 83.1871 110.629 81.9152C110.655 81.3829 110.681 80.888 110.702 80.3877C110.776 78.8284 110.839 77.3541 110.892 76.1301C110.892 76.0502 110.892 75.9757 110.892 75.8959C110.971 74.145 111.018 72.9901 111.018 72.9901C111.018 72.9901 113.165 72.6335 116.028 72.1439C119.712 71.5159 124.58 70.675 127.575 70.0949C128.401 69.9219 129.242 69.8292 130.085 69.8181C131.701 69.8181 132.538 70.3503 133.006 71.1114C133.169 71.3871 133.293 71.6844 133.375 71.9948C133.511 72.4927 133.613 72.9995 133.68 73.5116C133.738 73.9001 133.811 74.576 133.89 75.4701C133.89 75.5393 133.89 75.6085 133.89 75.683C133.99 76.7474 134.106 78.1205 134.222 79.6107C134.274 80.2866 134.327 80.9838 134.374 81.6969C134.432 82.5112 134.49 83.3415 134.543 84.1717L134.622 85.3958L134.685 86.5081C134.759 87.8492 134.822 89.1265 134.864 90.2335C134.864 90.8456 134.901 91.415 134.911 91.9259C134.911 92.7349 134.911 93.3948 134.911 93.8472V93.9324C134.869 94.5976 134.859 95.4172 134.869 96.322C134.869 97.4449 134.943 98.7009 135.011 99.9463C135.048 100.654 135.095 101.362 135.138 102.043C135.174 102.602 135.217 103.14 135.253 103.64C135.332 104.736 135.411 105.689 135.469 106.338C135.469 106.471 135.469 106.594 135.495 106.7C135.484 107.378 135.257 108.035 134.848 108.573Z" fill="#293B7D"/>
<path d="M158.462 66.9068C158.481 67.4375 158.399 67.9667 158.22 68.4662C157.626 69.7062 154.236 70.3768 152.031 71.835C151.768 72.0076 151.517 72.1979 151.279 72.4045C150.174 73.3997 148.747 74.5812 147.395 75.5977C146.412 76.3639 145.354 77.0256 144.237 77.5722C142.076 78.5512 140.125 79.9488 138.495 81.6862C138.316 81.8831 138.069 82.1864 137.78 82.5483C137.095 83.3945 136.201 84.5601 135.553 85.4116C135.027 86.0715 134.696 86.5452 134.696 86.5452L134.385 85.4329L134.101 84.427L133.348 81.766L132.943 80.3237L131.89 76.5983L131.664 75.7893L130.727 72.4524L130.627 72.0958L130.022 69.9351L130.08 69.8978C130.522 69.6317 133.464 67.934 135.964 67.769C136.908 67.6772 137.836 67.4644 138.727 67.1357C139.032 67.0345 139.337 66.9228 139.637 66.8004C141.34 66.1343 142.986 65.3279 144.558 64.3895C145.392 63.9631 146.265 63.6174 147.163 63.357C149 62.7503 151.179 62.0797 151.973 61.457C152.791 60.8244 153.769 60.4387 154.794 60.3447C155.437 60.2734 156.087 60.3744 156.678 60.6374C157.241 60.9035 157.705 61.9733 158.01 63.2612C158.296 64.4819 158.441 65.7321 158.441 66.9866L158.462 66.9068Z" fill="#293B7D"/>
<path d="M68.0891 162.603L68.5576 169.569L70.6632 171.597L72.1898 169.569L72.5372 162.603H68.0891Z" fill="#7D3A14"/>
<path d="M44.6432 161.31L43.9274 168.25L45.6589 170.613L47.5062 168.878L49.0218 162.076L44.6432 161.31Z" fill="#7D3A14"/>
<path d="M46.4273 97.5938C46.4273 97.5938 45.7905 101.623 45.6168 103.033C45.4432 104.443 43.6696 126.86 43.438 130.505C43.2064 134.151 41.8118 154.987 41.8118 156.477C41.9004 157.721 42.1462 158.948 42.5433 160.128L50.8533 161.884C51.6898 161.095 52.3516 160.135 52.7953 159.069C53.6637 157.126 57.9055 131.501 58.316 129.739C58.7265 127.977 61.279 114.459 61.279 114.459C61.279 114.459 61.9158 106.476 62.3316 105.944C62.7473 105.412 62.3316 101.527 62.3316 101.527L46.4273 97.5938Z" fill="#293B7D"/>
<path d="M78.2464 102.299C78.2464 102.299 78.2464 110.644 77.5464 120.159C77.0728 126.801 76.1518 157.536 75.8623 158.654C75.5729 159.771 74.0045 161.416 74.0045 161.416L65.984 161.65C65.984 161.65 64.4735 158.303 64.4735 156.477C64.4735 154.652 61.2001 125.46 61.0738 124.401C60.9474 123.342 59.4949 115.519 59.4949 115.519C59.4949 115.519 59.6107 100.707 60.0212 100.707C60.4317 100.707 78.2464 102.299 78.2464 102.299Z" fill="#293B7D"/>
<path d="M36.8595 45.672C36.4332 45.8157 36.2595 46.5714 36.0806 46.9226C35.8016 47.4549 35.7332 48.1148 35.4701 48.6789C35.3648 48.9025 35.1438 49.2484 34.8491 49.2111C34.6543 49.2111 34.5596 49.0036 34.4491 48.8758C34.3386 48.7481 34.1544 48.5565 34.0175 48.3809C33.7018 47.9604 33.407 47.54 33.1281 47.0983C33.0123 46.912 32.8808 46.7257 32.7808 46.5288C32.6808 46.3319 32.5229 46.1137 32.4071 45.8902C32.2124 45.5283 32.0913 45.1451 31.8808 44.8258C31.6861 44.4402 31.4419 44.0823 31.1546 43.7613C30.9177 43.5431 30.5335 43.1919 30.1757 43.2877C30.1207 43.3004 30.0691 43.3251 30.0245 43.36C29.9799 43.3949 29.9433 43.4392 29.9172 43.4898C29.8912 43.5405 29.8764 43.5962 29.8737 43.6532C29.8711 43.7102 29.8807 43.767 29.902 43.8199C30.0441 44.1978 30.2336 44.5543 30.3651 44.9535C30.5388 45.4857 30.7598 45.9594 30.9546 46.4649C31.0493 46.7098 31.1756 46.9493 31.2861 47.1887C31.3495 47.3117 31.4023 47.4399 31.444 47.5719C31.4966 47.7795 31.244 47.7103 31.1282 47.6837C30.88 47.5986 30.6657 47.4342 30.5177 47.2154C29.6494 46.1829 28.6863 45.3047 27.7706 44.3468C27.4916 44.0487 27.2443 43.5751 26.8022 43.5644C26.7173 43.5579 26.6323 43.5748 26.5562 43.6135C26.4801 43.6521 26.4159 43.711 26.3705 43.7838C26.325 43.8566 26.3 43.9405 26.2982 44.0266C26.2964 44.1126 26.3178 44.1976 26.3601 44.2723C26.6903 44.995 27.1447 45.6527 27.7021 46.2148C28.2202 46.9048 28.6847 47.6344 29.0915 48.3969L28.9915 48.349C28.7242 48.238 28.464 48.11 28.2126 47.9658C28.0126 47.8487 27.8074 47.7689 27.6127 47.6358C27.4179 47.5027 27.3285 47.4176 27.1759 47.3271C26.7932 47.0841 26.396 46.8655 25.9865 46.6725C25.6338 46.4916 25.2286 46.4383 25.0391 46.9014C24.8497 47.3644 25.397 47.5932 25.6338 47.8274C26.3623 48.5593 27.1282 49.2521 27.9284 49.903C28.1232 50.0627 28.3126 50.2223 28.4916 50.3926C28.5586 50.4467 28.6289 50.4965 28.7021 50.5416C28.5398 50.5042 28.3738 50.4863 28.2074 50.4884L27.6337 50.4033C27.1706 50.3288 26.7127 50.2489 26.2549 50.1531C26.1471 50.1322 26.0363 50.1322 25.9286 50.1531C25.7338 50.1957 25.6602 50.4086 25.6496 50.5895C25.6417 50.6941 25.6617 50.7988 25.7075 50.8929C25.9022 51.2388 26.6127 51.2867 26.9443 51.3559C27.3758 51.4464 27.7969 51.5794 28.2284 51.6806C28.4829 51.7205 28.7331 51.7847 28.9757 51.8722C29.137 51.9521 29.2919 52.0446 29.4389 52.1489C29.8757 52.4363 30.2493 52.8514 30.6598 53.1761C31.0703 53.5007 31.4282 53.7615 31.8282 54.0382C32.2607 54.4137 32.6012 54.8855 32.8229 55.4166C32.9426 55.4852 33.0834 55.5061 33.2176 55.4752C33.4562 55.3841 33.7006 55.3095 33.9491 55.2517C34.5543 55.1186 36.8963 54.315 36.8963 54.315C36.8963 54.315 36.3384 53.2506 36.2174 52.9366C36.1564 52.7412 36.0808 52.5508 35.9911 52.3671C36.2642 51.9934 36.5104 51.6003 36.7279 51.1909C36.9193 50.707 37.0313 50.1946 37.0594 49.6741C37.1016 49.094 37.0594 48.5139 37.1384 47.9392C37.157 47.6725 37.2029 47.4086 37.2752 47.1515C37.3705 46.8708 37.4168 46.5754 37.4121 46.2787C37.4068 45.9381 37.2805 45.5336 36.8595 45.672Z" fill="#7D3A14"/>
<path d="M37.0595 53.8518C37.0595 53.8518 36.5805 52.649 36.2963 52.5053C36.0121 52.3616 33.8807 52.9257 32.9387 53.5431C31.9966 54.1604 31.5651 54.5543 31.4598 55.0386C31.3686 55.4417 31.4227 55.8644 31.6124 56.2307C31.7177 56.3212 35.4911 55.7677 35.749 55.3952C36.0069 55.0226 37.0595 53.8518 37.0595 53.8518Z" fill="#FFEBD9"/>
<path d="M66.7997 48.0243L65.5787 51.5528L71.7941 54.5757L74.0624 51.2867C74.0624 51.2867 72.9256 47.8859 72.7678 47.7954C72.6099 47.705 71.1889 46.6725 71.0679 46.6459C70.9468 46.6193 66.7997 48.0243 66.7997 48.0243Z" fill="#7D3A14"/>
<path d="M80.162 40.6477L80.7883 43.4099C80.7883 43.4099 79.42 49.3759 77.678 51.9251C77.3014 52.4569 76.7968 52.8826 76.2119 53.162C75.6271 53.4414 74.9814 53.5653 74.3361 53.5218C70.9626 53.5218 71.5205 50.1103 71.5205 50.1103C71.5205 50.1103 71.4047 45.1182 71.5205 44.9692C71.6363 44.8202 76.0518 41.7387 76.1412 41.7387C76.2307 41.7387 80.162 40.6477 80.162 40.6477Z" fill="#7D3A14"/>
<path d="M82.483 40.771C82.3065 40.3642 82.0915 39.9756 81.8409 39.6108C81.5387 39.0116 81.3732 38.3514 81.3567 37.6789C81.2676 37.1077 81.0806 36.5566 80.8041 36.0503C80.5355 35.5373 80.1426 35.1015 79.6621 34.7837C79.2243 34.4581 78.7151 34.2445 78.178 34.161C77.9098 34.1202 77.638 34.1095 77.3675 34.1291C77.1359 34.1291 76.7991 34.326 76.5833 34.2728C76.5222 34.2532 76.4651 34.2226 76.4149 34.1823C75.7803 33.6926 75.108 33.2548 74.4045 32.8731C73.3151 32.3941 72.0941 31.8406 70.8732 32.0428C69.7391 32.25 68.7272 32.8902 68.047 33.831C67.7768 34.1882 67.5306 34.5634 67.3102 34.954C67.126 35.0445 66.9418 35.135 66.7839 35.2414C66.1851 35.5916 65.6287 36.0113 65.1261 36.4921C64.6538 36.9435 64.2761 37.4865 64.0157 38.0887C63.8361 38.6018 63.7401 39.141 63.7315 39.6853C63.7856 40.4017 63.8911 41.1132 64.0473 41.8141C64.2736 43.6822 64.1209 47.2852 65.5945 49.0149C67.4207 51.1437 69.2785 49.9569 71.6942 48.6051C72.2469 48.3424 72.7183 47.932 73.0572 47.4183C73.8046 46.1942 74.0572 44.4432 75.2992 43.5864C75.5771 43.3508 75.9315 43.2276 76.2939 43.2404C76.8886 43.3416 76.8202 43.7194 76.8202 44.1718C76.8202 44.6242 77.178 44.9914 77.6149 44.704C78.1411 44.3368 78.3674 43.4267 79.0937 43.6662C79.3718 43.7514 79.6609 43.7944 79.9515 43.7939C80.4805 43.8112 81.002 43.6645 81.4462 43.3735C81.6251 43.2511 81.8304 43.1446 81.9725 43.0116C82.1486 42.8242 82.2895 42.606 82.3882 42.3676C82.5251 42.1271 82.6049 41.8576 82.6214 41.5806C82.6378 41.3035 82.5904 41.0264 82.483 40.771Z" fill="#2E1811"/>
<path d="M54.6531 56.5183C54.6531 56.5183 53.6637 56.9866 51.6901 63.8627C49.7165 70.7388 47.7956 82.4313 46.4589 84.9593C45.1221 87.4873 43.1433 94.6561 44.0169 97.0617C44.8905 99.4672 49.2482 100.255 52.2111 101.591C55.1741 102.927 56.9477 103.469 61.7421 103.001C66.4254 102.538 71.1481 102.686 75.7939 103.443C80.162 104.177 82.7198 103.821 83.4145 96.9446C84.1092 90.0685 84.2302 68.3279 84.2302 68.3279L80.6041 55.2144C80.6041 55.2144 67.2734 55.6933 66.8313 55.6933C66.3892 55.6933 54.6531 56.5183 54.6531 56.5183Z" fill="#12403A"/>
<path d="M54.7119 56.7525C54.7119 56.7525 50.8174 57.3964 48.3175 59.8073C45.8177 62.2182 44.3651 62.8036 43.581 62.4683C42.7968 62.1331 39.897 57.6785 38.5813 55.5923C37.2656 53.506 37.4182 53.1814 34.8657 53.8892C32.3133 54.597 28.7345 57.9872 28.9661 59.6317C29.1977 61.2762 33.1764 69.7436 35.9393 73.0912C38.7023 76.4387 41.6127 77.1466 44.123 76.7315C46.1361 76.3112 48.1059 75.7018 50.0069 74.9113L57.7327 67.3913L54.7119 56.7525Z" fill="#12403A"/>
<path d="M80.6041 55.2143C78.7353 53.7771 76.71 52.5611 74.5676 51.5899C71.1205 50.0519 61.4106 47.1886 58.1844 47.4068C54.9583 47.625 54.6531 48.5723 54.3373 49.0779C54.0215 49.5835 52.8427 50.3339 53.0953 51.739C53.3479 53.144 54.0742 53.1972 54.3163 53.9849C54.5583 54.7725 53.411 55.8476 54.0058 56.896C54.6005 57.9445 57.3213 59.1419 63.7894 58.2053C70.2574 57.2686 80.6041 55.2143 80.6041 55.2143Z" fill="#FFEBD9"/>
<path d="M52.2638 160.666C51.7638 159.947 42.5065 159.069 42.5065 159.069C42.3063 159.057 42.1082 159.115 41.9452 159.233C41.7823 159.351 41.6646 159.523 41.6118 159.718C41.4013 160.431 41.1645 161.794 41.4487 162.134C42.0223 162.821 50.1639 163.848 51.1796 163.784C52.1954 163.72 52.7585 161.384 52.2638 160.666Z" fill="#384A8C"/>
<path d="M75.5939 159.904C74.9729 159.292 65.7156 160.165 65.7156 160.165C65.5166 160.192 65.3326 160.286 65.1946 160.434C65.0566 160.581 64.9729 160.772 64.9577 160.974C64.8788 161.714 64.8946 163.103 65.2419 163.38C65.9313 163.949 74.115 163.422 75.0992 163.172C76.0833 162.922 76.2149 160.517 75.5939 159.904Z" fill="#384A8C"/>
<path d="M77.9359 178.755C77.7727 178.925 68.0312 178.909 67.4102 178.755C66.7892 178.601 66.9944 177.691 66.9944 177.691C66.7989 176.573 66.7705 175.432 66.9102 174.306C67.1892 172.975 67.6312 172.102 67.6839 171.176C67.7365 170.25 67.6839 170.027 67.7523 169.324C67.8207 168.622 68.6154 167.323 70.8205 167.281C73.0256 167.238 73.8414 170.474 73.8414 170.474C73.8414 170.474 74.2308 171.033 74.6887 171.677C74.8308 171.884 74.9834 172.097 75.1308 172.305C75.4255 172.72 75.7044 173.103 75.8728 173.327L75.9939 173.476C76.0631 173.553 76.1389 173.624 76.2202 173.688C76.9913 174.238 77.5671 175.023 77.8622 175.929C78.3937 177.574 78.099 178.59 77.9359 178.755Z" fill="#6DA0A5"/>
<path d="M77.5201 178.148L67.5207 178.1C67.4747 178.1 67.4305 178.082 67.3979 178.049C67.3653 178.016 67.347 177.971 67.347 177.925C67.347 177.878 67.3653 177.834 67.3979 177.801C67.4305 177.768 67.4747 177.749 67.5207 177.749L77.5201 177.797C77.5662 177.797 77.6103 177.816 77.6429 177.848C77.6755 177.881 77.6938 177.926 77.6938 177.972C77.6938 178.019 77.6755 178.064 77.6429 178.096C77.6103 178.129 77.5662 178.148 77.5201 178.148Z" fill="white"/>
<path d="M74.8938 173.96C74.8481 173.951 74.8076 173.924 74.7811 173.885C74.7545 173.847 74.744 173.799 74.7517 173.752C74.8772 173.047 74.8611 172.323 74.7044 171.624C74.4518 170.964 74.1782 170.847 74.1782 170.847C74.1414 170.826 74.1131 170.792 74.0985 170.752C74.0839 170.712 74.0839 170.667 74.0984 170.627C74.1129 170.587 74.141 170.553 74.1778 170.532C74.2146 170.511 74.2576 170.504 74.2992 170.511C74.336 170.511 74.7096 170.671 75.0306 171.491C75.2111 172.242 75.2326 173.024 75.0938 173.784C75.0941 173.81 75.0889 173.835 75.0785 173.858C75.0682 173.882 75.053 173.902 75.034 173.919C75.015 173.936 74.9926 173.948 74.9684 173.955C74.9442 173.962 74.9187 173.964 74.8938 173.96Z" fill="white"/>
<path d="M76.2779 175.306H76.2516C76.2063 175.299 76.1659 175.273 76.1392 175.235C76.1126 175.197 76.1019 175.15 76.1095 175.104C76.237 174.399 76.2209 173.674 76.0622 172.975C75.8096 172.321 75.536 172.198 75.536 172.198C75.4938 172.182 75.4597 172.149 75.441 172.107C75.4223 172.065 75.4205 172.018 75.436 171.975C75.4431 171.953 75.4544 171.934 75.4691 171.917C75.4838 171.9 75.5018 171.886 75.5218 171.876C75.5419 171.866 75.5637 171.86 75.5861 171.859C75.6084 171.858 75.6307 171.861 75.6518 171.868C75.6939 171.868 76.0622 172.028 76.3832 172.848C76.5637 173.599 76.5852 174.381 76.4463 175.141C76.4437 175.185 76.425 175.226 76.3938 175.257C76.3626 175.288 76.3213 175.305 76.2779 175.306Z" fill="white"/>
<path d="M41.2276 169.591L41.8697 168.957C42.9486 167.893 44.5274 166.882 46.1221 167.456C49.0798 168.521 48.4114 170.304 48.5009 171.07C48.7445 173.08 48.7657 175.112 48.564 177.127C48.6324 177.35 48.8166 177.989 48.5956 178.218C48.2167 178.606 32.8071 178.489 32.6018 178.191C32.3966 177.893 32.765 174.795 33.8754 173.779C34.9859 172.762 36.8279 172.464 37.5594 172.182C38.9346 171.563 40.1798 170.683 41.2276 169.591Z" fill="#6DA0A5"/>
<path d="M33.2229 177.585C33.2003 177.585 33.1778 177.582 33.1568 177.573C33.1357 177.565 33.1166 177.553 33.1004 177.537C33.0842 177.521 33.0713 177.502 33.0625 177.481C33.0537 177.46 33.0492 177.437 33.0492 177.414C33.0492 177.367 33.0673 177.322 33.0997 177.288C33.1321 177.254 33.1763 177.235 33.2229 177.233L47.9588 177.073C48.0044 177.075 48.0478 177.094 48.0801 177.126C48.1124 177.159 48.1311 177.203 48.1325 177.249C48.1325 177.296 48.1142 177.341 48.0816 177.374C48.049 177.406 48.0048 177.425 47.9588 177.425L33.2229 177.585Z" fill="white"/>
<path d="M38.8906 173.933C38.8634 173.932 38.8368 173.926 38.8123 173.914C38.7878 173.902 38.7661 173.885 38.7485 173.864L36.77 171.24C36.7556 171.222 36.745 171.202 36.7388 171.179C36.7326 171.157 36.7309 171.134 36.7338 171.111C36.7368 171.088 36.7443 171.066 36.756 171.046C36.7676 171.026 36.7831 171.009 36.8016 170.996C36.8193 170.981 36.8398 170.97 36.8617 170.964C36.8837 170.958 36.9067 170.956 36.9294 170.959C36.952 170.962 36.9738 170.97 36.9935 170.981C37.0131 170.993 37.0302 171.009 37.0436 171.027L39.0274 173.651C39.055 173.688 39.0672 173.734 39.0613 173.78C39.0554 173.826 39.0319 173.868 38.9958 173.896C38.9662 173.921 38.9289 173.934 38.8906 173.933Z" fill="white"/>
<path d="M41.1378 172.763C41.1111 172.764 41.0845 172.758 41.0606 172.746C41.0366 172.734 41.0161 172.716 41.001 172.693L39.0172 170.07C38.9896 170.033 38.9774 169.986 38.9833 169.941C38.9892 169.895 39.0127 169.853 39.0488 169.825C39.086 169.797 39.1327 169.784 39.1789 169.79C39.225 169.796 39.2671 169.82 39.2961 169.857L41.2746 172.502C41.289 172.52 41.2996 172.54 41.3058 172.563C41.3121 172.585 41.3137 172.608 41.3108 172.631C41.3078 172.654 41.3003 172.676 41.2887 172.696C41.277 172.716 41.2615 172.733 41.2431 172.747C41.2107 172.764 41.1737 172.769 41.1378 172.763Z" fill="white"/>
<path d="M48.1588 103.315C48.4482 103.081 55.0583 103.975 55.3215 104.183C55.5846 104.39 54.5373 110.527 54.3636 110.851C54.19 111.176 50.4955 112.911 50.206 112.852C49.9165 112.794 47.7377 110.649 47.6483 110.191C47.5588 109.734 47.9693 103.501 48.1588 103.315Z" fill="#384A8C"/>
<path d="M74.9624 105.524C74.7203 105.236 68.0522 104.933 67.7575 105.087C67.4628 105.242 67.4049 111.474 67.5154 111.804C67.626 112.134 70.9521 114.529 71.2468 114.529C71.5415 114.529 74.0677 112.81 74.2413 112.363C74.415 111.916 75.115 105.747 74.9624 105.524Z" fill="#384A8C"/>
<path d="M130.896 100.09C130.896 100.09 134.701 103.996 134.874 104.347C135.048 104.699 135.064 105.614 134.559 106.673C134.397 107.04 134.164 107.37 133.873 107.644C133.583 107.918 133.242 108.131 132.869 108.27C132.59 108.27 127.606 105.545 127.606 105.545L130.896 100.09Z" fill="white"/>
<path d="M112.65 129.329C111.892 132.618 108.523 140.506 105.092 143.081C101.661 145.657 97.3084 147.137 94.1086 143.725C90.9087 140.314 87.0669 132.443 86.1722 129.739C85.2775 127.035 81.8514 122.336 81.6146 119.223C81.4567 117.12 82.7303 108.701 83.5566 102.581C83.6197 102.128 83.6829 101.681 83.7355 101.255C83.7881 100.83 83.8302 100.505 83.8776 100.148C83.9337 99.6694 83.9864 99.2223 84.0355 98.8072C84.1565 97.7428 84.225 96.9498 84.2302 96.4495C84.2355 96.4 84.2355 96.35 84.2302 96.3005C84.2302 96.0131 84.2039 95.5288 84.1723 94.8795C83.8776 89.1583 82.6251 71.0899 82.6251 71.0899C83.9286 70.4888 85.2618 69.9559 86.6195 69.4933C86.9616 69.3816 87.3142 69.2698 87.6721 69.1687C88.1563 69.0303 88.6405 68.9079 89.1089 68.8121C93.6612 67.8754 102.634 68.7642 106.939 69.2272C107.334 69.2698 107.687 69.3124 107.992 69.3656C108.346 69.4255 108.69 69.5366 109.013 69.6956C109.013 69.6956 110.065 84.129 110.297 87.1838C110.423 88.9667 110.402 92.921 110.602 97.0562C110.602 97.498 110.644 97.9397 110.671 98.3814C110.723 99.2596 110.792 100.132 110.871 100.984C110.913 101.415 110.955 101.846 111.008 102.267C111.06 102.687 111.123 103.214 111.192 103.666C111.26 104.119 111.318 104.486 111.392 104.88C111.429 105.077 111.465 105.268 111.507 105.46C112.707 111.298 113.418 126.035 112.65 129.329Z" fill="#CF8F56"/>
<path d="M93.5612 99.9622L92.5666 100.282C92.5666 100.191 89.8088 91.3511 88.1931 83.6608C87.2476 78.9994 86.7192 74.2613 86.6143 69.5041C86.9564 69.3923 87.309 69.2806 87.6669 69.1794C87.7605 73.9709 88.289 78.7435 89.2457 83.4372C90.8193 91.0744 93.5349 99.8771 93.5612 99.9622Z" fill="#2E1811"/>
<path d="M107.971 69.3763C107.855 71.8032 108.318 77.4871 107.024 83.6607C105.413 91.3511 102.682 100.191 102.655 100.281L101.655 99.9622C101.655 99.877 104.403 91.085 106.003 83.4638C107.297 77.237 106.829 71.5477 106.929 69.2539C107.324 69.2805 107.676 69.3231 107.971 69.3763Z" fill="#2E1811"/>
<path d="M65.6735 68.7535L64.8419 66.4757C64.8523 66.4465 64.8646 66.418 64.8788 66.3905C64.993 66.2011 65.0815 65.9971 65.1419 65.7838C65.2261 65.2693 65.2261 64.7443 65.1419 64.2298C65.0893 63.7402 64.963 63.2665 64.9051 62.7769C64.8472 62.2872 64.8577 61.7125 64.8367 61.1324C64.8367 60.9035 64.7419 60.4618 64.4577 60.4139C64.1736 60.366 64.042 60.7119 63.963 60.9035C63.8266 61.3454 63.7783 61.8103 63.8209 62.2713C63.8209 62.5799 63.9683 63.3357 63.7104 63.5752C62.7631 64.4054 61.1053 59.4825 60.9211 58.929C60.8422 58.6895 60.7369 58.152 60.3948 58.1414C60.3536 58.1448 60.3135 58.157 60.2772 58.1772C60.241 58.1974 60.2093 58.2251 60.1843 58.2584C60.0761 58.4248 60.0079 58.6144 59.9851 58.8121C59.9622 59.0099 59.9854 59.2103 60.0528 59.3974C60.1896 60.0679 60.2843 60.1957 60.4422 60.8609C60.5211 61.2015 60.8369 62.3617 60.9106 62.6012C60.6159 62.3085 60.2264 62.101 59.9422 61.7657C59.658 61.4304 59.2739 61.0259 58.9581 60.648C58.62 60.2504 58.3205 59.8209 58.0634 59.3654C57.8897 59.0461 57.6161 58.6789 57.2003 58.8332C57.0742 58.8894 56.9749 58.9933 56.9237 59.1226C56.8726 59.252 56.8736 59.3965 56.9266 59.5251C56.9797 59.6331 57.047 59.7333 57.1266 59.8231C56.6372 60.3553 57.1266 61.308 57.4161 61.8295C57.5424 62.085 57.7055 62.3032 57.8213 62.5693C57.8897 62.7236 57.9529 62.8886 58.0371 63.0376C58.2166 63.3262 58.38 63.6247 58.5265 63.9318C58.2621 63.8698 58.0232 63.7266 57.8424 63.522C57.5582 63.2399 57.3529 62.713 56.9477 62.5799C56.5424 62.4469 56.3898 63.0004 56.5477 63.2452C57.0753 64.0717 57.6971 64.8326 58.4002 65.5124C58.892 65.917 59.4206 66.2734 59.9791 66.5768C60.2212 66.7311 60.4685 66.8748 60.7159 67.0239C60.9391 67.181 61.147 67.3592 61.3369 67.5561L62.3684 69.7009C62.6999 69.7926 63.0407 69.8462 63.3841 69.8605C64.0849 69.7339 64.7561 69.4758 65.363 69.0995C65.4682 69.0516 65.5577 69.0196 65.605 68.9185C65.6629 68.8919 65.6735 68.7535 65.6735 68.7535Z" fill="#FF913B"/>
<path d="M69.0048 74.6451C69.0048 74.6451 66.2734 68.1894 65.7682 68.051C65.263 67.9127 61.5579 69.5944 61.5106 69.9138C61.4632 70.2331 64.563 79.4615 64.563 79.4615L69.0048 74.6451Z" fill="white"/>
<path d="M82.6251 71.0901C81.5636 71.5654 80.6037 72.245 79.7989 73.0912C78.1569 74.6878 76.6991 76.9656 76.1149 77.2743C75.5308 77.583 75.5887 77.3648 74.5361 77.2743C73.4835 77.1838 73.0993 75.5553 71.9047 74.6772C71.4491 74.2966 70.8957 74.0554 70.3093 73.9819C69.723 73.9084 69.128 74.0056 68.5944 74.262C65.7472 75.4276 61.7053 83.4053 62.279 85.0765C62.8526 86.7476 64.9104 88.3708 68.1207 90.308C69.3838 91.0744 71.2152 92.1814 72.6731 92.3996C73.9624 92.6003 75.2805 92.3386 76.3991 91.6598C78.3569 90.5582 85.9407 85.9599 86.1564 85.6512C86.3722 85.3426 82.6251 71.0901 82.6251 71.0901Z" fill="#CF8F56"/>
<path d="M88.8299 171.246C89.1211 170.996 89.4656 170.818 89.8364 170.726C90.2071 170.633 90.594 170.629 90.9666 170.714C91.9823 170.894 92.5034 171.219 92.7507 171.911C92.9981 172.603 93.1402 177.531 92.8823 178.031C92.6244 178.532 91.4297 178.707 89.8035 178.713C87.7984 178.713 80.5936 178.856 80.2462 178.324C79.8989 177.792 79.8936 176.004 80.9725 175.594C82.0514 175.184 85.3459 173.859 86.488 173.257C87.63 172.656 88.2773 171.661 88.8299 171.246Z" fill="#7D3A14"/>
<path d="M106.113 171.97C106.475 171.469 107.003 171.117 107.601 170.979C108.198 170.842 108.825 170.927 109.365 171.219C111.107 172.044 110.592 173.348 111.544 174.508C111.955 175.024 112.223 175.64 112.321 176.295C112.418 176.95 112.34 177.619 112.097 178.234C111.892 178.766 109.571 179 108.413 179C107.255 179 106.076 178.91 105.981 178.351C105.887 177.792 105.797 172.433 106.113 171.97Z" fill="#7D3A14"/>
<path d="M110.986 102.277L105.234 107.2L104.103 106.716L110.85 100.995C110.892 101.426 110.934 101.857 110.986 102.277Z" fill="#2E1811"/>
<path d="M91.3614 106.327L90.6141 107.067L83.8776 100.148C83.9338 99.6693 83.9864 99.2222 84.0355 98.8071L91.3614 106.327Z" fill="#2E1811"/>
<path d="M91.135 92.6976C90.0825 93.6715 88.8246 105.428 89.0615 106.801C89.2983 108.174 94.2243 110.526 98.1346 110.287C102.045 110.047 105.729 108.259 106.029 107.791C107.234 106.083 104.818 94.1398 104.024 92.6976C103.229 91.2553 92.1981 91.7289 91.135 92.6976Z" fill="#2E1811"/>
<path d="M114.96 174.476C114.96 174.476 114.928 171.171 114.96 170.937C114.991 170.703 116.413 170.511 117.344 170.607C118.276 170.703 118.534 170.862 118.534 171.139C118.534 171.416 118.445 174.332 118.445 174.332L114.96 174.476Z" fill="#FFEBD9"/>
<path d="M114.791 173.566C115.455 172.555 118.254 172.683 118.665 173.369C118.875 173.731 119.591 177.254 119.396 177.93C119.296 178.26 118.112 178.681 116.807 178.681C115.502 178.681 114.176 178.212 114.107 177.866C113.981 177.1 114.47 174.061 114.791 173.566Z" fill="#2E1811"/>
<path d="M210.043 60.4407C210.043 60.4407 213.576 64.0544 214.055 64.9804C214.534 65.9064 214.376 68.4451 214.376 68.4451C214.376 68.4451 211.028 66.6143 211.038 66.5504C211.049 66.4865 210.043 60.4407 210.043 60.4407Z" fill="#FF913B"/>
<path d="M131.885 172.933C132.726 172.738 133.605 172.799 134.411 173.108C135.369 173.55 138.511 175.769 139.322 176.105C139.621 176.244 139.872 176.47 140.042 176.755C140.213 177.039 140.296 177.369 140.279 177.701C140.279 178.143 140.079 178.67 139.932 178.67C139.785 178.67 130.554 178.67 130.317 178.345C130.08 178.021 130.033 173.694 130.317 173.465C130.787 173.157 131.326 172.974 131.885 172.933Z" fill="#2E1811"/>
<path d="M160.315 93.2031C160.092 92.4506 159.735 91.7455 159.262 91.1222C159.199 91.0157 159.152 90.9199 159.041 90.8827C159.01 90.8241 158.862 90.8295 158.862 90.8295L156.515 92.0056L156.42 91.9737C156.204 91.8716 155.976 91.7983 155.742 91.7555C155.181 91.7109 154.617 91.7631 154.073 91.9098C153.547 92.0216 153.063 92.2185 152.547 92.3356C152.031 92.4527 151.384 92.5166 150.795 92.6017C150.547 92.639 150.089 92.788 150.068 93.102C150.047 93.416 150.437 93.5278 150.652 93.5863C151.14 93.6874 151.643 93.6874 152.131 93.5863C152.463 93.5384 153.263 93.2989 153.542 93.5863C154.536 94.5283 149.463 96.9126 148.889 97.1787C148.642 97.2958 148.079 97.4714 148.11 97.8386C148.118 97.8836 148.135 97.9265 148.16 97.9642C148.186 98.0018 148.219 98.0335 148.258 98.0568C148.448 98.1554 148.659 98.2068 148.874 98.2068C149.088 98.2068 149.299 98.1554 149.489 98.0568C150.195 97.8333 150.321 97.7109 151.016 97.4608C151.337 97.3437 152.347 96.9285 152.726 96.7902L152.626 96.8487C152.368 97.0137 152.1 97.1468 151.826 97.3064C151.337 97.6044 150.816 97.8865 150.31 98.1633C150.026 98.3229 149.784 98.5145 149.479 98.6955C149.283 98.7989 149.118 98.9532 149 99.1425C148.863 99.4033 148.758 99.9462 149.147 100.01C149.537 100.074 150.2 99.696 150.552 99.4778C151.079 99.1532 151.605 98.8285 152.131 98.5305L152.237 98.4666L151.11 99.3501C150.879 99.5364 150.51 99.8078 150.458 100.132C150.405 100.457 150.6 100.548 150.873 100.548C151.293 100.502 151.696 100.36 152.052 100.132C152.514 99.8859 152.951 99.5954 153.358 99.2649C153.773 98.9403 154.205 98.6529 154.626 98.3442V98.3761C154.515 98.4773 154.394 98.5731 154.3 98.6635L153.773 99.1532C153.479 99.4299 153.126 99.6854 153.063 100.116C153.052 100.164 153.053 100.214 153.064 100.262C153.076 100.31 153.098 100.354 153.129 100.392C153.16 100.43 153.199 100.46 153.243 100.481C153.287 100.501 153.335 100.511 153.384 100.51C153.752 100.564 154.057 100.244 154.31 100.021C155.021 99.3927 155.715 98.7434 156.373 98.0621C156.728 97.7335 157.057 97.3776 157.357 96.9977C157.468 96.838 157.569 96.6709 157.657 96.4975C157.747 96.3378 157.773 96.0611 157.873 95.9227L157.999 95.7524L160.231 94.4006C160.303 94.0058 160.331 93.6042 160.315 93.2031Z" fill="#FF913B"/>
<path d="M157.499 165.099C157.49 165.558 157.519 166.018 157.589 166.472C157.627 167.29 157.571 168.11 157.42 168.915C157.315 169.772 157.42 170.666 157.336 171.501C157.195 172.247 156.885 172.95 156.431 173.556C155.756 173.987 155.053 174.371 154.326 174.705L152.252 173.146C152.026 172.975 151.889 172.252 151.826 171.98C151.703 171.322 151.685 170.648 151.773 169.984C151.884 168.51 151.247 167.217 151.11 165.753C151.068 165.179 150.663 164.396 150.837 163.843C151.01 163.289 157.047 163.172 157.531 163.603C157.731 163.779 157.71 164.056 157.636 164.343C157.565 164.589 157.519 164.843 157.499 165.099Z" fill="#FFEBD9"/>
<path d="M157.541 177.467C157.538 177.726 157.488 177.982 157.394 178.223C157.105 178.665 156.757 178.633 153.821 178.691C150.884 178.75 144 178.808 143.653 178.691C143.305 178.574 143.184 177.691 143.421 177.095C143.69 176.456 144.103 175.89 144.626 175.441C145.15 174.991 145.77 174.672 146.437 174.508C146.921 174.364 147.305 174.269 147.663 174.178C148.33 174.017 148.985 173.812 149.626 173.566C150.801 173.026 152.039 172.638 153.31 172.411C154.663 172.252 156.863 172.268 157.289 172.832C157.485 173.314 157.581 173.832 157.573 174.354V174.439V174.705C157.573 174.785 157.573 174.865 157.573 174.945C157.612 175.785 157.602 176.628 157.541 177.467Z" fill="#FCB415"/>
<path d="M157.541 177.467C157.538 177.726 157.488 177.982 157.394 178.223C157.105 178.665 156.757 178.633 153.821 178.691C150.884 178.75 144 178.808 143.653 178.691C143.305 178.574 143.184 177.691 143.421 177.095C143.69 176.456 144.103 175.89 144.626 175.441C145.15 174.991 145.77 174.672 146.437 174.508C146.921 174.364 147.305 174.269 147.663 174.178C147.387 174.839 147.163 175.52 146.995 176.217C146.789 177.217 146.705 177.536 146.995 177.654C147.284 177.771 157.541 177.467 157.541 177.467Z" fill="#FFEBD9"/>
<path d="M174.777 177.457C174.771 177.715 174.721 177.971 174.63 178.212C174.335 178.654 173.988 178.622 171.056 178.681C168.125 178.739 166.288 178.798 165.941 178.681C165.594 178.564 164.952 177.18 165.678 176.445C165.994 176.131 166.283 175.828 166.551 175.551C166.551 175.604 166.551 175.658 166.551 175.706C166.52 176.359 166.56 177.014 166.672 177.659C166.704 177.765 172.362 177.552 174.777 177.457Z" fill="#FFEBD9"/>
<path d="M180.04 69.8286C180.04 69.8286 174.219 75.9969 173.414 77.7691C172.609 79.5413 168.214 82.5589 166.83 84.0757C165.13 85.9225 158.936 85.8373 158.61 88.8337C158.283 91.83 159.515 95.3851 163.02 95.6459C166.525 95.9067 175.835 91.17 177.861 90.1109C179.887 89.0519 187.387 83.3998 188.203 81.3349C189.018 79.2699 190.587 66.7524 190.587 66.7524L180.04 69.8286Z" fill="#182149"/>
<path d="M182.592 110.335C182.592 110.335 193.613 120.952 198.407 121.57C203.202 122.187 211.217 110.335 211.217 110.335C211.217 110.335 193.223 108.525 192.392 108.616C191.56 108.706 182.592 110.335 182.592 110.335Z" fill="white"/>
<path d="M159.094 89.8396C159.094 89.8396 156.526 91.4841 156.494 91.7183C156.684 92.6779 157.027 93.6 157.51 94.4485C157.978 95.1244 158.589 95.7737 158.962 95.8322C159.336 95.8908 161.783 94.7146 161.783 94.7146L159.094 89.8396Z" fill="#182149"/>
<path d="M212.312 109.584C211.67 111.288 205.512 112.645 196.071 112.639C187.808 112.639 182.356 111.314 181.714 110.202C181.072 109.09 181.398 100.005 181.187 97.7695C181.145 97.3757 181.103 96.7743 181.056 96.0505C181.019 95.4172 180.977 94.6934 180.935 93.9217C180.893 93.15 180.845 92.2186 180.808 91.3831C180.772 90.6327 180.74 89.9089 180.714 89.2542C180.65 87.8333 180.608 86.8167 180.608 86.8167C180.608 86.8167 184.329 75.4754 184.503 75.1082C184.677 74.741 190.634 66.7047 190.634 66.7047H210.422C211.022 65.1932 212.154 72.7293 211.717 87.3596C211.717 87.961 211.685 88.5517 211.68 89.1318C211.68 89.8414 211.68 90.551 211.68 91.2607C211.68 92.1281 211.68 92.969 211.717 93.7833C211.717 94.5071 211.754 95.2149 211.78 95.9121C212.022 103.315 212.785 108.323 212.312 109.584Z" fill="#182149"/>
<path d="M235.81 74.3259C235.138 73.9347 234.542 73.4224 234.053 72.8144C233.964 72.7476 233.9 72.6516 233.874 72.543C233.831 72.4951 233.874 72.3514 233.874 72.3514L235.516 70.3183C235.516 70.3183 235.516 70.2492 235.516 70.2172C235.469 69.979 235.451 69.736 235.463 69.4934C235.549 68.9352 235.727 68.3955 235.989 67.8968C236.221 67.4178 236.515 66.9708 236.758 66.4918C237 66.0128 237.2 65.3901 237.421 64.8313C237.51 64.5971 237.763 64.182 238.068 64.2352C238.373 64.2885 238.389 64.6929 238.4 64.9218C238.379 65.4245 238.261 65.9182 238.052 66.3747C237.926 66.6887 237.526 67.4391 237.694 67.7531C238.368 68.9506 241.847 64.5173 242.236 64.0277C242.405 63.8095 242.705 63.2986 243.052 63.4156C243.093 63.4332 243.129 63.4594 243.159 63.4924C243.189 63.5255 243.212 63.5646 243.226 63.6072C243.277 63.8183 243.279 64.0386 243.23 64.2503C243.182 64.462 243.085 64.6593 242.947 64.826C242.568 65.4646 242.42 65.5604 242.02 66.1831C241.836 66.4758 241.215 67.3806 240.968 67.7105L241.042 67.6254C241.263 67.4125 241.457 67.1677 241.673 66.9495C242.078 66.5344 242.468 66.0873 242.852 65.6562C243.068 65.4114 243.32 65.1932 243.547 64.9644C243.685 64.7946 243.867 64.6674 244.073 64.5971C244.357 64.5226 244.904 64.5439 244.878 64.9431C244.852 65.3422 244.352 65.8851 244.026 66.1938C243.589 66.6355 243.157 67.0825 242.741 67.5456L242.657 67.636L243.768 66.7313C244.005 66.545 244.352 66.247 244.673 66.2683C244.994 66.2896 245.041 66.5078 244.973 66.8005C244.836 67.2034 244.607 67.5681 244.304 67.8649C243.959 68.2544 243.578 68.6107 243.168 68.9293C242.757 69.2646 242.378 69.6265 241.984 69.9937H242.015C242.136 69.9086 242.257 69.8074 242.368 69.7382C242.568 69.6105 242.762 69.4775 242.957 69.3444C243.257 69.0637 243.644 68.8964 244.052 68.8708C244.1 68.8725 244.148 68.8851 244.191 68.9078C244.234 68.9305 244.272 68.9627 244.301 69.002C244.33 69.0413 244.351 69.0867 244.36 69.1349C244.37 69.1831 244.369 69.2328 244.357 69.2806C244.315 69.6531 243.941 69.8766 243.668 70.0735C242.899 70.6057 242.115 71.1379 241.305 71.6702C240.903 71.9404 240.483 72.1805 240.047 72.3886C239.866 72.4601 239.682 72.5205 239.494 72.5696C239.321 72.6175 239.047 72.5696 238.894 72.6441L238.694 72.7292L236.879 74.6132C236.514 74.5556 236.155 74.4593 235.81 74.3259Z" fill="#FF913B"/>
<path d="M209.696 64.2563C209.696 64.2563 213.064 67.1515 215.738 69.7381C218.411 72.3246 220.969 75.736 221.843 76.2629C222.716 76.7898 222.653 76.2629 224.4 76.9069C226.148 77.5508 226.2 75.2624 228.116 74.4428C230.032 73.6232 231.142 70.8078 233.289 71.4305C235.437 72.0532 238.926 74.6237 237.5 78.8814C236.073 83.139 228.727 88.2216 225.064 89.5734C221.401 90.9252 214.896 87.8597 212.512 86.5079C210.128 85.1561 207.823 84.1821 207.417 83.5382C207.012 82.8942 203.623 71.5369 203.796 71.1218C203.97 70.7067 209.696 64.2563 209.696 64.2563Z" fill="#182149"/>
<path d="M236.842 76.0128C236.842 76.0128 238.731 73.9585 238.731 73.405C238.731 72.8515 237.573 71.6275 236.926 71.1325C236.279 70.6376 235.495 70.2118 235.116 70.2757C234.737 70.3395 232.784 72.2235 232.784 72.2235L236.842 76.0128Z" fill="#182149"/>
<path d="M172.562 57.5933C172.562 57.5933 181.193 59.0515 189.213 59.6423C197.234 60.233 209.812 57.9286 210.043 58.1627C210.275 58.3969 210.875 58.8546 211.264 62.5534C211.412 64.0753 211.297 65.6115 210.922 67.0931C210.801 67.6839 194.608 71.3135 190.608 71.5477C186.608 71.7819 171.167 71.8404 171.167 71.8404L172.562 57.5933Z" fill="#CE6D68"/>
<path d="M194.702 178.297C194.56 178.532 183.371 178.691 183.05 178.633C182.924 178.633 182.892 178.191 182.992 177.648C183.145 176.823 183.598 175.7 184.477 175.227C185.188 174.854 185.919 174.522 186.666 174.231L186.987 174.093C187.36 173.934 187.713 173.733 188.04 173.492L188.34 173.257L188.624 173.039L190.176 171.836C190.176 171.836 191.818 170.463 193.123 170.878C194.429 171.294 194.313 172.406 194.376 173.316C194.413 173.955 194.629 176.041 194.702 177.302C194.744 177.633 194.744 177.967 194.702 178.297Z" fill="#C24112"/>
<path d="M194.702 178.298C194.56 178.533 183.371 178.692 183.05 178.634C182.924 178.634 182.892 178.192 182.992 177.648L194.713 177.302C194.751 177.633 194.747 177.968 194.702 178.298Z" fill="#FFEBD9"/>
<path d="M187.397 175.547C187.375 175.552 187.351 175.552 187.329 175.547C187.295 175.547 187.261 175.536 187.233 175.516C187.204 175.496 187.183 175.468 187.171 175.435L186.645 174.216L186.966 174.077L187.492 175.302C187.503 175.324 187.51 175.348 187.511 175.373C187.512 175.398 187.508 175.423 187.499 175.446C187.49 175.469 187.477 175.49 187.459 175.508C187.441 175.525 187.42 175.538 187.397 175.547Z" fill="#FFEBD9"/>
<path d="M189.203 174.865C189.18 174.87 189.157 174.87 189.134 174.865C189.1 174.865 189.066 174.854 189.038 174.834C189.01 174.814 188.988 174.786 188.976 174.753L188.35 173.242L188.634 173.023L189.297 174.62C189.308 174.642 189.315 174.666 189.316 174.691C189.317 174.716 189.313 174.741 189.304 174.764C189.295 174.787 189.282 174.808 189.264 174.825C189.247 174.843 189.226 174.856 189.203 174.865Z" fill="#FFEBD9"/>
<path d="M214.585 177.074C214.459 177.372 213.212 177.813 211.496 177.813C209.78 177.813 205.57 177.457 205.223 177.137C205.119 176.983 205.049 176.809 205.017 176.625C204.986 176.442 204.993 176.253 205.039 176.073C205.063 175.881 205.098 175.691 205.144 175.504C205.412 174.365 206.565 173.848 207.433 173.21L207.549 173.119L207.786 172.938L208.675 172.214L209.022 171.927C209.238 171.746 209.454 171.565 209.665 171.395C209.665 171.395 210.033 170.128 211.843 170.016C213.654 169.905 214.112 170.426 214.259 171.278C214.37 171.911 214.564 174.647 214.606 176.137C214.63 176.449 214.623 176.763 214.585 177.074Z" fill="#C24112"/>
<path d="M214.585 177.073C214.459 177.371 213.212 177.813 211.496 177.813C209.78 177.813 205.57 177.456 205.223 177.137C205.119 176.983 205.049 176.808 205.017 176.625C204.986 176.441 204.993 176.253 205.039 176.073C206.616 176.364 208.211 176.556 209.812 176.648C211.428 176.723 213.045 176.543 214.606 176.115C214.632 176.435 214.625 176.756 214.585 177.073Z" fill="#FFEBD9"/>
<path d="M207.786 172.933V173.907C207.786 173.954 207.767 173.999 207.735 174.032C207.702 174.065 207.658 174.083 207.612 174.083H207.544C207.511 174.07 207.484 174.047 207.464 174.017C207.444 173.988 207.434 173.954 207.433 173.918V173.215L207.549 173.125L207.786 172.933Z" fill="#FFEBD9"/>
<path d="M209.022 171.922V173.264C209.022 173.31 209.004 173.355 208.972 173.388C208.939 173.421 208.895 173.44 208.849 173.44C208.826 173.445 208.803 173.445 208.78 173.44C208.749 173.426 208.723 173.404 208.704 173.375C208.686 173.347 208.675 173.314 208.675 173.28V172.215L209.022 171.922Z" fill="#FFEBD9"/>
<path d="M127.185 78.0407C127.067 77.9033 126.937 77.7769 126.796 77.6628C126.877 77.2606 126.931 76.8535 126.959 76.4441C126.934 75.9808 126.836 75.5246 126.67 75.0923C126.491 74.6133 126.259 74.1556 126.101 73.6659C126.017 73.4441 125.955 73.2141 125.917 72.9794C125.894 72.7189 125.824 72.4647 125.712 72.229C125.58 71.9576 125.333 71.6968 125.043 71.9522C124.754 72.2077 124.891 72.8942 124.875 73.2455C124.849 73.7777 125.033 74.3099 125.022 74.8847C125.022 75.1082 124.97 75.4701 124.728 75.5659C124.486 75.6617 124.422 75.5074 124.28 75.4488C123.859 75.2572 123.459 74.9752 123.028 74.7836C122.596 74.592 122.054 74.3472 121.554 74.1609C121.061 74.0014 120.582 73.8002 120.123 73.5595C119.875 73.4211 119.633 73.2827 119.375 73.1603C118.954 72.8887 118.459 72.755 117.96 72.7772C117.846 72.8039 117.746 72.8743 117.683 72.9735C117.619 73.0728 117.596 73.1931 117.618 73.3094C117.649 73.4637 117.807 73.5435 117.923 73.6234C118.039 73.7032 118.249 73.8522 118.423 73.9587C118.775 74.1769 119.144 74.3738 119.475 74.6026C119.807 74.8315 120.212 74.9858 120.481 75.1348C120.749 75.2838 121.054 75.4808 121.354 75.6298C121.29 75.6824 121.211 75.7139 121.128 75.7203C120.897 75.7461 120.663 75.6937 120.465 75.5712C119.412 75.0816 118.297 74.7463 117.218 74.3046C116.886 74.1662 116.528 73.8682 116.165 74.0332C116.095 74.0596 116.032 74.1049 115.985 74.1642C115.938 74.2236 115.908 74.2947 115.898 74.3701C115.887 74.4455 115.897 74.5223 115.927 74.5923C115.956 74.6623 116.004 74.7229 116.065 74.7676C116.169 74.8641 116.278 74.9547 116.391 75.039C116.36 75.039 116.27 75.4275 116.27 75.4701C116.282 75.6292 116.337 75.782 116.428 75.9118C116.756 76.251 117.108 76.5658 117.481 76.8538C117.437 76.9257 117.407 77.0057 117.394 77.0891C117.381 77.1726 117.384 77.2579 117.404 77.3401C117.423 77.4222 117.459 77.4997 117.508 77.5679C117.557 77.6361 117.62 77.6936 117.691 77.7373C117.902 77.8863 118.16 77.9715 118.375 78.1152C118.822 78.4203 119.296 78.6822 119.791 78.8975C120.544 79.2222 121.238 79.6532 121.981 80.0098C122.641 80.293 123.337 80.4828 124.049 80.574C124.543 80.7215 124.996 80.986 125.37 81.3457C125.492 81.3532 125.613 81.3175 125.712 81.2445C125.875 81.0751 126.051 80.9186 126.238 80.7762C126.675 80.4409 128.27 78.9188 128.27 78.9188C128.27 78.9188 127.385 78.2216 127.185 78.0407Z" fill="#FF913B"/>
<path d="M146.295 84.757C146.295 84.757 141.474 94.5549 138.216 94.9593C134.959 95.3638 123.344 87.8384 122.675 87.3116C122.007 86.7847 123.728 83.022 124.212 81.9629C124.696 80.9038 127.064 77.4551 127.706 77.3966C128.349 77.338 137.395 83.8469 137.706 83.6659C139.485 82.6707 145.547 76.8484 145.547 76.8484L146.295 84.757Z" fill="#CE6D68"/>
<path d="M134.627 104.715C134.627 104.715 135.311 105.13 135.901 105.444C136.49 105.758 136.985 105.779 137.38 106.077C137.774 106.375 137.758 107.791 137.658 108.206C137.558 108.621 137.69 109.686 136.906 110.133C136.122 110.58 135.527 110.665 135.127 110.489C134.727 110.314 134.174 108.813 133.764 108.515C133.353 108.217 132.759 107.653 132.759 107.653L134.627 104.715Z" fill="#FF913B"/>
<path d="M108.992 69.7063C108.992 69.7063 112.339 71.0421 114.855 76.0289C117.24 80.7973 119.905 85.4179 122.833 89.8662C124.575 92.4474 130.954 96.2527 131.538 97.5619C132.122 98.8712 131.769 102.65 129.617 105.071C127.464 107.493 127.175 108.611 124.796 108.201C123.623 107.998 122.607 106.897 121.823 106.072C120.707 104.912 117.539 102.032 116.602 100.723C113.518 96.423 112.076 94.7945 108.829 90.6113L107.971 70.3183L108.992 69.7063Z" fill="#CF8F56"/>
<path d="M110.26 80.6963C110.184 78.6976 109.719 76.7336 108.892 74.9166C107.608 71.7978 106.508 68.4609 106.297 65.0335C106.297 64.7302 106.297 64.5918 106.255 64.2725C106.255 64.3789 106.255 64.4853 106.224 64.5918C105.657 64.6871 105.096 64.8169 104.545 64.9803C103.913 65.1027 103.292 65.257 102.661 65.3848C101.289 65.663 99.9024 65.862 98.5082 65.9808C97.2504 66.0766 95.9926 65.9808 94.7348 65.9808C94.0822 65.9808 93.4349 65.9808 92.7823 65.9808C92.2192 65.9808 91.6613 66.0873 91.0982 66.1032C91.0619 66.1032 91.0271 66.1178 91.0014 66.1438C90.9758 66.1697 90.9613 66.2049 90.9613 66.2416C90.9613 66.2783 90.9758 66.3135 91.0014 66.3395C91.0271 66.3654 91.0619 66.38 91.0982 66.38C91.291 66.3907 91.4843 66.3907 91.6771 66.38C91.5631 66.6606 91.433 66.9342 91.2876 67.1996C91.1508 67.5083 91.0034 67.8063 90.8824 68.1203C89.6351 71.3135 86.2722 73.9746 86.2143 77.6042C86.1655 78.3135 86.176 79.0256 86.2458 79.733C86.2985 80.079 86.4248 80.4089 86.509 80.7495C86.5896 81.1018 86.7115 81.443 86.8721 81.7661C87.2854 82.4608 87.7783 83.1039 88.3405 83.682C88.6299 84.0013 89.2562 84.3685 89.3457 84.7996C89.4049 85.1518 89.4435 85.5072 89.4614 85.864C89.4947 86.1616 89.5546 86.4555 89.6404 86.7422C89.896 87.6728 90.4016 88.5136 91.1012 89.1713C91.8007 89.8289 92.6668 90.2776 93.6033 90.4676C94.1296 90.5581 94.5032 90.5315 94.7453 91.0371C95.145 91.5992 95.6551 92.0717 96.2438 92.4252C96.8324 92.7787 97.4869 93.0055 98.1662 93.0914C98.904 93.1837 99.6529 93.0811 100.34 92.7934C100.507 92.7086 100.669 92.6125 100.824 92.506C102.28 92.7278 103.764 92.6791 105.203 92.3623C105.828 92.2091 106.416 91.9286 106.931 91.5379C107.446 91.1472 107.877 90.6544 108.197 90.0898C108.525 89.5107 108.723 88.8656 108.776 88.2004C108.834 87.45 108.555 86.657 108.739 85.9173C108.923 85.1775 109.497 84.4909 109.76 83.7565C110.102 82.7737 110.271 81.7381 110.26 80.6963Z" fill="#C24112"/>
<path d="M80.6041 55.2144C80.6041 55.2144 89.693 55.5177 93.0665 56.6939C95.7127 57.6331 98.556 57.8552 101.313 57.3379C103.634 56.9866 109.155 58.3384 108.808 62.1596C108.46 65.9809 107.592 67.0346 97.1926 68.1895C86.7932 69.3444 84.2302 68.3066 84.2302 68.3066L79.5831 59.2591L80.6041 55.2144Z" fill="#12403A"/>
<path d="M211.738 95.9333C209.191 96.1409 205.696 96.3644 201.533 96.4655C200.349 96.5028 199.091 96.5187 197.807 96.5187C192.766 96.5187 187.24 96.2899 183.645 96.1409L181.014 96.0344C180.977 95.4011 180.935 94.6773 180.893 93.9056L183.719 94.0174C188.197 94.2036 195.702 94.5123 201.455 94.342C205.638 94.2196 209.133 93.9961 211.659 93.8098C211.691 94.5389 211.712 95.2468 211.738 95.9333Z" fill="#FCB415"/>
<path d="M211.654 89.1689C211.654 89.8786 211.654 90.5882 211.654 91.2978C209.117 91.5 205.66 91.7182 201.549 91.83C200.365 91.8672 199.107 91.8832 197.823 91.8832C192.781 91.8832 187.255 91.649 183.661 91.5L180.782 91.3936C180.745 90.6432 180.714 89.9194 180.687 89.2647L183.735 89.3818C188.213 89.5681 195.718 89.8821 201.47 89.7118C205.644 89.6 209.128 89.3765 211.654 89.1689Z" fill="#FCB415"/>
<path d="M174.841 176.057C174.801 175.625 174.635 175.216 174.362 174.881C174.179 174.695 173.958 174.551 173.714 174.459C173.471 174.368 173.211 174.33 172.952 174.349C172.703 174.337 172.455 174.382 172.225 174.48C171.996 174.577 171.791 174.725 171.625 174.913C170.746 175.924 170.993 177.946 170.999 177.968L170.651 178.015C170.651 177.925 170.383 175.812 171.362 174.684C171.558 174.458 171.801 174.279 172.075 174.16C172.348 174.041 172.644 173.986 172.941 173.997C173.25 173.977 173.56 174.026 173.849 174.141C174.137 174.256 174.397 174.434 174.61 174.663C174.689 174.751 174.76 174.847 174.82 174.95C174.841 175.301 174.847 175.695 174.841 176.057Z" fill="#FFEBD9"/>
<path d="M157.595 174.939L157.563 174.902C157.365 174.702 157.128 174.546 156.867 174.445C156.606 174.343 156.327 174.297 156.047 174.311C155.837 174.308 155.628 174.347 155.433 174.427C155.237 174.506 155.06 174.624 154.91 174.774C153.973 175.722 153.968 177.765 153.968 177.787C153.967 177.833 153.948 177.878 153.916 177.911C153.884 177.945 153.84 177.965 153.794 177.968C153.748 177.968 153.704 177.949 153.671 177.916C153.639 177.883 153.621 177.838 153.621 177.792C153.621 177.701 153.621 175.573 154.673 174.524C154.852 174.342 155.066 174.198 155.301 174.101C155.536 174.004 155.788 173.956 156.042 173.96C156.59 173.942 157.129 174.109 157.574 174.434V174.7C157.59 174.78 157.595 174.859 157.595 174.939Z" fill="#FFEBD9"/>
<path style="mix-blend-mode:multiply" opacity="0.72" d="M137.153 83.4211C137.153 83.4211 136.885 89.3925 137.706 89.8076C138.527 90.2227 139.537 90.5474 138.805 87.3541C138.074 84.1609 137.153 83.4211 137.153 83.4211Z" fill="url(#paint0_linear)"/>
<path style="mix-blend-mode:multiply" opacity="0.72" d="M172.888 57.6519C172.888 57.6519 175.878 68.8282 175.804 71.6489C176.139 67.1191 176.068 62.568 175.594 58.051L172.888 57.6519Z" fill="url(#paint1_linear)"/>
<path style="mix-blend-mode:multiply" opacity="0.66" d="M198.318 137.499C198.318 137.499 198.381 131.33 198.949 130.165C199.518 128.999 206.523 123.246 206.523 123.246L199.081 140.223L198.318 137.499Z" fill="url(#paint2_linear)"/>
<path d="M119.733 69.4456C121.754 69.5041 128.933 67.4179 131.433 68.3067C133.432 69.6957 132.711 73.0965 132.711 73.0965L129.996 81.1328C129.996 81.1328 120.633 71.915 118.707 71.9948C116.965 72.0694 116.286 72.0906 116.286 72.0906C116.286 72.0906 116.165 70.8719 116.639 70.2386C116.902 69.8767 117.691 69.6638 118.307 69.5467C118.778 69.4616 119.256 69.4277 119.733 69.4456Z" fill="#FCB415"/>
<path d="M119.786 48.9769C120.054 48.8332 125.222 47.3803 127.154 49.4559C129.085 51.5315 130.49 55.225 130.701 56.1138C130.912 57.0025 136.227 58.2852 136.774 60.3448C137.322 62.4044 135.364 63.8148 135.364 63.8148C135.364 63.8148 136.911 66.4439 135.674 68.5567C134.438 70.6696 131.369 70.7813 131.369 70.7813C131.369 70.7813 129.975 72.9953 127.912 73.4424C125.849 73.8894 124.017 71.9149 124.017 71.9149C124.017 71.9149 122.844 72.4471 121.16 71.6009C119.475 70.7547 119.054 68.4077 119.054 68.4077C119.054 68.4077 118.465 57.5454 117.733 56.5395C117.002 55.5337 115.391 55.539 115.102 53.9849C114.813 52.4309 116.218 50.8981 119.786 48.9769Z" fill="#FFDEC4"/>
<path d="M125.886 50.6958C125.886 50.6958 124.307 48.2583 124.965 46.7894C125.622 45.3205 127.317 45.4695 128.596 45.9112C129.098 46.0926 129.537 46.4184 129.859 46.8486C130.18 47.2788 130.371 47.7946 130.406 48.3328C130.42 48.9868 130.178 49.62 129.733 50.0944C128.022 51.6218 125.886 50.6958 125.886 50.6958Z" fill="#FFDEC4"/>
<path d="M118.065 57.6731C118.555 57.8634 118.975 58.2039 119.265 58.647C119.468 59.0011 119.583 59.4005 119.597 59.8099C119.612 60.2193 119.527 60.626 119.349 60.9941C119.154 61.4551 118.909 61.8925 118.617 62.298C118.617 62.298 117.218 58.7375 117.249 58.4341C117.281 58.1308 118.065 57.6731 118.065 57.6731Z" fill="#FFBD9E"/>
<path d="M154.057 57.6518C154.057 57.6518 162.478 56.2414 165.336 56.7098C167.393 57.6518 167.099 58.6683 167.099 58.6683L165.909 66.4758C165.909 66.4758 155.852 59.7913 154.057 59.8019C152.263 59.8125 151.952 60.531 151.952 60.531C151.952 60.531 151.621 59.3921 151.952 58.7322C152.284 58.0722 154.057 57.6518 154.057 57.6518Z" fill="#FCB415"/>
<path d="M166.515 60.9249C166.809 60.7652 168.93 59.5039 167.936 59.0143C167.746 58.9238 167.594 59.0143 167.446 59.1526C166.902 59.6065 166.317 60.0074 165.699 60.3501C165.35 60.5501 164.979 60.709 164.594 60.8238H164.504C164.697 60.7431 164.875 60.6297 165.031 60.4885C165.357 60.265 165.72 60.0467 166.036 59.7913C166.351 59.5358 166.72 59.1793 167.088 58.8865C167.457 58.5938 168.104 58.2266 167.715 57.7529C167.399 57.3698 166.93 57.7529 166.662 58.0031C166.063 58.6165 165.347 59.1 164.557 59.4241C164.353 59.4737 164.158 59.5544 163.978 59.6636C164.631 59.1314 166.451 57.7636 165.936 57.2101C165.488 56.7364 164.752 57.7423 164.546 57.9179C163.761 58.7408 162.784 59.3504 161.704 59.6902C161.578 59.7327 161.441 59.8285 161.304 59.7594C161.368 59.6421 161.44 59.53 161.52 59.4241C161.746 59.1473 161.957 58.8919 162.168 58.5832C162.378 58.2745 162.604 57.5507 161.999 57.5667C161.657 57.5667 161.41 58.0031 161.194 58.2106C160.978 58.4182 160.883 58.4874 160.726 58.6204C160.671 58.6585 160.62 58.7012 160.573 58.7482L160.047 59.1739C159.273 59.8126 159.31 60.5257 159.347 61.4464C159.215 61.5367 159.092 61.6382 158.978 61.7498C158.789 61.8935 157.994 62.4204 157.994 62.4204C157.994 62.4204 159.278 63.868 159.636 64.198C159.782 64.3366 159.917 64.486 160.041 64.645C160.121 64.7177 160.224 64.7575 160.331 64.7568C160.557 64.7568 160.952 64.347 161.189 64.2671C162.722 63.7922 164.223 63.218 165.683 62.5481C166.05 62.3989 166.38 62.1679 166.646 61.8722C166.708 61.806 166.753 61.7247 166.775 61.6361C166.797 61.5476 166.796 61.4548 166.773 61.3666C166.758 61.3161 166.731 61.2702 166.694 61.233C166.657 61.1958 166.612 61.1685 166.562 61.1537C166.146 61.0845 165.615 61.4411 165.262 61.6114C164.909 61.7817 164.709 61.9201 164.42 62.0478C164.636 61.9254 164.836 61.7924 164.983 61.7179L166.515 60.9249Z" fill="#FFBD9E"/>
<path d="M157.352 61.3292C157.83 60.9807 158.381 60.7493 158.963 60.6533C159.631 60.6533 161.068 64.2564 160.91 64.7141C160.489 65.821 158.41 66.4757 158.41 66.4757L157.352 61.3292Z" fill="white"/>
<path style="mix-blend-mode:multiply" opacity="0.72" d="M74.3312 77.1838C74.3312 77.1838 71.2465 85.7949 73.5205 87.2425C73.9996 87.466 75.0629 88.1366 75.5051 84.2728C75.7722 81.9947 75.8339 79.6968 75.6893 77.4074L74.3312 77.1838Z" fill="url(#paint3_linear)"/>
<path style="mix-blend-mode:multiply" opacity="0.67" d="M60.2685 119.808L55.2741 115.055L57.695 132.953L60.2685 119.808Z" fill="url(#paint4_linear)"/>
<path style="mix-blend-mode:multiply" opacity="0.66" d="M54.0058 56.896C51.9753 60.5781 50.632 64.6065 50.0429 68.7801L49.2113 75.3635L47.6904 75.8585C47.6904 75.8585 48.743 64.8205 51.3744 60.366C52.0972 59.0976 52.9819 57.9309 54.0058 56.896Z" fill="url(#paint5_linear)"/>
<path style="mix-blend-mode:multiply" opacity="0.72" d="M55.2741 54.1232C55.2741 54.1232 65.5472 50.93 80.6041 55.1876C72.5309 54.1232 61.8105 54.5436 57.2529 55.1344C55.6425 55.3845 55.3478 55.9061 55.2741 54.1232Z" fill="url(#paint6_linear)"/>
<path style="mix-blend-mode:multiply" opacity="0.87" d="M80.7883 55.6826C80.7883 55.6826 73.9466 65.5284 84.2775 68.1096C80.462 63.9318 80.7883 55.6826 80.7883 55.6826Z" fill="url(#paint7_linear)"/>
<path style="mix-blend-mode:multiply" opacity="0.66" d="M122.759 130.021L126.213 126.232L123.712 137.669L122.759 130.021Z" fill="url(#paint8_linear)"/>
<defs>
<linearGradient id="paint0_linear" x1="137.111" y1="86.7421" x2="139.058" y2="86.7421" gradientUnits="userSpaceOnUse">
<stop stop-color="#F0C3A8"/>
<stop offset="1" stop-color="white"/>
</linearGradient>
<linearGradient id="paint1_linear" x1="1050.5" y1="916.368" x2="1069.09" y2="916.368" gradientUnits="userSpaceOnUse">
<stop stop-color="#F0C3A8"/>
<stop offset="1" stop-color="white"/>
</linearGradient>
<linearGradient id="paint2_linear" x1="198.318" y1="131.751" x2="206.523" y2="131.751" gradientUnits="userSpaceOnUse">
<stop stop-color="#A9C8D4"/>
<stop offset="1" stop-color="white"/>
</linearGradient>
<linearGradient id="paint3_linear" x1="351.828" y1="1045.87" x2="369.852" y2="1045.87" gradientUnits="userSpaceOnUse">
<stop stop-color="#F0C3A8"/>
<stop offset="1" stop-color="white"/>
</linearGradient>
<linearGradient id="paint4_linear" x1="54.4636" y1="123.108" x2="65.4654" y2="127.876" gradientUnits="userSpaceOnUse">
<stop stop-color="white"/>
<stop offset="1" stop-color="#182149"/>
</linearGradient>
<linearGradient id="paint5_linear" x1="319.947" y1="1281.87" x2="395.732" y2="1281.87" gradientUnits="userSpaceOnUse">
<stop stop-color="#A9C8D4"/>
<stop offset="1" stop-color="white"/>
</linearGradient>
<linearGradient id="paint6_linear" x1="55.2741" y1="54.1977" x2="80.6041" y2="54.1977" gradientUnits="userSpaceOnUse">
<stop stop-color="white"/>
<stop offset="1" stop-color="#F0C3A8"/>
</linearGradient>
<linearGradient id="paint7_linear" x1="78.5727" y1="61.8988" x2="84.2775" y2="61.8988" gradientUnits="userSpaceOnUse">
<stop stop-color="white"/>
<stop offset="1" stop-color="#A9C8D4"/>
</linearGradient>
<linearGradient id="paint8_linear" x1="700.479" y1="2274.12" x2="843.441" y2="2274.12" gradientUnits="userSpaceOnUse">
<stop stop-color="#A9C8D4"/>
<stop offset="1" stop-color="white"/>
</linearGradient>
</defs>
</svg>
