<svg width="88" height="88" viewBox="0 0 88 88" fill="none" xmlns="http://www.w3.org/2000/svg">
<g clip-path="url(#clip0)">
<path d="M49.9916 38.524C50.3256 38.5219 50.6527 38.619 50.9315 38.803C51.2102 38.987 51.428 39.2496 51.5573 39.5574C51.6865 39.8652 51.7214 40.2045 51.6575 40.5322C51.5936 40.8599 51.4338 41.1612 51.1983 41.398C50.9628 41.6348 50.6623 41.7964 50.3348 41.8623C50.0073 41.9281 49.6677 41.8954 49.3589 41.7681C49.05 41.6408 48.786 41.4248 48.6002 41.1473C48.4144 40.8699 48.3152 40.5436 48.3152 40.2097C48.3138 39.9888 48.3562 39.7698 48.4398 39.5654C48.5235 39.3609 48.6467 39.175 48.8025 39.0183C48.9583 38.8617 49.1436 38.7373 49.3477 38.6525C49.5517 38.5676 49.7706 38.524 49.9916 38.524ZM49.9916 45.0498C50.9507 45.0559 51.8901 44.7773 52.6906 44.2492C53.491 43.7211 54.1166 42.9674 54.4879 42.0835C54.8592 41.1997 54.9596 40.2255 54.7762 39.2846C54.5929 38.3437 54.1341 37.4784 53.4581 36.7984C52.782 36.1184 51.9192 35.6543 50.9789 35.465C50.0386 35.2758 49.0633 35.3698 48.1766 35.7352C47.2898 36.1006 46.5316 36.7209 45.9981 37.5175C45.4646 38.3141 45.1798 39.2511 45.1797 40.2097C45.177 40.8435 45.2994 41.4715 45.5399 42.058C45.7803 42.6444 46.1342 43.1777 46.5811 43.6272C47.0281 44.0768 47.5594 44.4339 48.1446 44.678C48.7298 44.9221 49.3575 45.0484 49.9916 45.0498Z" fill="#7FBC42"/>
<path d="M56.3244 30.3435L59.0252 28.0682V30.3435H56.3244ZM50.6329 64.3583H49.3498L48.315 49.8795C49.4239 49.4524 50.652 49.4524 51.7609 49.8795L50.6329 64.3583ZM61.2087 23.2178C60.9366 23.0922 60.6342 23.0469 60.3373 23.0872C60.0403 23.1275 59.761 23.2518 59.5323 23.4454L51.0469 30.6848C50.8028 30.8958 50.6286 31.1758 50.5473 31.4879C50.466 31.8 50.4815 32.1294 50.5915 32.4326C50.7015 32.7343 50.9012 32.9952 51.1639 33.1801C51.4266 33.365 51.7397 33.465 52.061 33.4668H59.0252V48.8143L53.9547 47.3974C52.7087 46.6941 51.2982 46.3341 49.8673 46.354C48.4365 46.374 47.0366 46.7733 45.8107 47.5112C45.5628 47.6657 45.3622 47.8854 45.2308 48.1463C45.0994 48.4071 45.0423 48.699 45.0657 48.9901L46.3281 66.0544C46.3568 66.4495 46.5337 66.8192 46.8234 67.0896C47.1131 67.3599 47.4943 67.511 47.8907 67.5126H52.0299C52.4263 67.511 52.8075 67.3599 53.0972 67.0896C53.3869 66.8192 53.5638 66.4495 53.5925 66.0544L54.7204 50.9033L59.0252 52.103V65.9406C58.9999 66.1594 59.0212 66.381 59.0876 66.591C59.1541 66.8009 59.2642 66.9945 59.4108 67.1589C59.5574 67.3233 59.7371 67.4549 59.9382 67.545C60.1392 67.6351 60.3571 67.6817 60.5774 67.6817C60.7978 67.6817 61.0156 67.6351 61.2167 67.545C61.4178 67.4549 61.5975 67.3233 61.7441 67.1589C61.8907 66.9945 62.0008 66.8009 62.0672 66.591C62.1337 66.381 62.155 66.1594 62.1296 65.9406V24.6554C62.1315 24.3551 62.0479 24.0604 61.8885 23.8059C61.7291 23.5513 61.5005 23.3474 61.2294 23.2178" fill="#7FBC42"/>
<path d="M39.9742 40.3337C39.9324 40.5089 39.823 40.6605 39.6699 40.7554C39.5167 40.8503 39.3323 40.8809 39.1567 40.8405H39.0843C38.813 40.7383 38.5182 40.7151 38.2343 40.7737C37.9504 40.8323 37.6889 40.9702 37.4803 41.1714C37.188 41.45 36.8307 41.6511 36.4408 41.7564C36.0509 41.8617 35.6408 41.8679 35.2479 41.7744C34.8551 41.6808 34.4918 41.4906 34.1913 41.2209C33.8908 40.9512 33.6625 40.6107 33.5273 40.2303C33.4514 40.0201 33.3307 39.8289 33.1734 39.6699C33.0162 39.511 32.8262 39.3881 32.6167 39.3099C32.4388 39.2399 32.2491 39.2048 32.0579 39.2065C31.8023 39.2041 31.55 39.2645 31.3232 39.3823C29.7583 40.2123 27.9434 40.4404 26.2216 40.0235C24.3418 39.5515 22.7247 38.3563 21.7226 36.6981C20.7205 35.04 20.4147 33.0533 20.8716 31.1707C21.2288 29.5548 22.1292 28.11 23.4227 27.0769C24.7163 26.0438 26.3249 25.4848 27.9808 25.493C28.5629 25.4948 29.1428 25.5642 29.7089 25.6998C30.6374 25.9286 31.5113 26.3388 32.2804 26.9068C33.0494 27.4748 33.6983 28.1894 34.1896 29.0093C35.1997 30.6702 35.5087 32.6641 35.0485 34.5526C35.0485 34.6663 35.0485 34.7801 34.9657 34.8939C34.9026 35.1082 34.886 35.3336 34.917 35.5549C34.9479 35.7762 35.0257 35.9884 35.1452 36.1773C35.2647 36.3661 35.4231 36.5274 35.6098 36.6503C35.7965 36.7732 36.0074 36.8548 36.2282 36.8899H36.4248C36.8097 36.9836 37.1657 37.1703 37.4615 37.4335C37.7574 37.6968 37.9842 38.0286 38.1219 38.3998C38.2217 38.6762 38.3966 38.9193 38.6268 39.102C38.8571 39.2846 39.1338 39.3996 39.4257 39.434H39.5189C39.6052 39.4553 39.6863 39.4938 39.7574 39.5471C39.8285 39.6004 39.8882 39.6674 39.9328 39.7443C39.9822 39.8198 40.0152 39.9049 40.0294 39.994C40.0437 40.0831 40.039 40.1742 40.0156 40.2614L39.9742 40.3337ZM40.6779 36.4969C40.1246 35.5259 39.2917 34.7439 38.2875 34.2527C38.6279 31.8553 38.127 29.4141 36.8698 27.3442C35.8144 25.5621 34.248 24.1376 32.3734 23.2553C30.4988 22.373 28.4023 22.0734 26.3554 22.3955C24.3086 22.7175 22.4055 23.6462 20.8928 25.0614C19.38 26.4766 18.3272 28.3131 17.8707 30.333C17.2166 33.0273 17.6544 35.8707 19.0888 38.2437C20.5231 40.6167 22.8377 42.327 25.5283 43.002C27.4822 43.4732 29.5307 43.369 31.4267 42.7021C32.192 43.7285 33.2887 44.4592 34.5311 44.7705C34.9603 44.8817 35.402 44.9373 35.8453 44.9359C36.956 44.9314 38.0389 44.5887 38.9497 43.9534H39.3119C40.1703 43.9528 41.0032 43.6623 41.6756 43.1292C42.3481 42.5961 42.8206 41.8515 43.0165 41.0163C43.2567 40.0268 43.0968 38.9826 42.5716 38.1102C42.126 37.3729 41.444 36.808 40.6365 36.5072" fill="#7FBC42"/>
<path d="M27.9819 34.8939C28.3973 34.8911 28.7947 34.7243 29.0874 34.4298C29.3802 34.1353 29.5445 33.737 29.5445 33.3219V28.306C29.5698 28.0872 29.5485 27.8656 29.4821 27.6556C29.4156 27.4457 29.3055 27.2521 29.1589 27.0877C29.0123 26.9233 28.8326 26.7917 28.6315 26.7016C28.4305 26.6115 28.2126 26.5649 27.9922 26.5649C27.7719 26.5649 27.554 26.6115 27.353 26.7016C27.1519 26.7917 26.9722 26.9233 26.8256 27.0877C26.679 27.2521 26.5689 27.4457 26.5024 27.6556C26.436 27.8656 26.4147 28.0872 26.44 28.306V33.3219C26.4373 33.7343 26.5978 34.131 26.8867 34.4255C27.1756 34.7201 27.5693 34.8884 27.9819 34.8939Z" fill="#7FBC42"/>
<path d="M27.9809 36.0522C27.6653 36.0501 27.3562 36.1418 27.0927 36.3155C26.8293 36.4893 26.6235 36.7373 26.5013 37.0281C26.379 37.319 26.346 37.6395 26.4063 37.9491C26.4666 38.2588 26.6176 38.5435 26.84 38.7673C27.0625 38.9911 27.3464 39.1438 27.6558 39.2061C27.9652 39.2684 28.2862 39.2375 28.578 39.1172C28.8698 38.997 29.1193 38.7929 29.2949 38.5307C29.4704 38.2686 29.5642 37.9603 29.5642 37.6448C29.5642 37.2242 29.3977 36.8207 29.1011 36.5223C28.8044 36.2239 28.4018 36.0549 27.9809 36.0522Z" fill="#7FBC42"/>
<path d="M44.0414 3.15431C52.1195 3.15431 60.0163 5.54835 66.733 10.0337C73.4497 14.519 78.6848 20.8942 81.7762 28.3531C84.8675 35.8119 85.6764 44.0194 84.1004 51.9377C82.5245 59.856 78.6344 67.1294 72.9223 72.8381C67.2102 78.5469 59.9325 82.4346 52.0096 84.0096C44.0867 85.5847 35.8744 84.7763 28.4111 81.6868C20.9479 78.5972 14.5689 73.3652 10.081 66.6524C5.59299 59.9396 3.19754 52.0475 3.19754 43.9741C3.21123 33.1522 7.51881 22.7775 15.1755 15.1253C22.8323 7.47303 33.2131 3.16799 44.0414 3.15431ZM44.0414 0.0517099C35.335 0.0435304 26.822 2.61692 19.5796 7.44617C12.3373 12.2754 6.69133 19.1434 3.35625 27.181C0.0211676 35.2185 -0.853062 44.0642 0.844208 52.5984C2.54148 61.1327 6.73395 68.9719 12.891 75.1239C19.048 81.2759 26.8928 85.464 35.4325 87.1583C43.9722 88.8526 52.8229 87.9768 60.8644 84.6418C68.9058 81.3067 75.7766 75.6624 80.6069 68.4232C85.4373 61.184 88.0102 52.6754 88 43.9741C88 32.3186 83.37 21.1399 75.1273 12.8943C66.8847 4.64878 55.7037 0.0109647 44.0414 0V0.0517099Z" fill="#7FBC42"/>
<circle cx="76" cy="12" r="11" fill="#6FCF97"/>
<path fill-rule="evenodd" clip-rule="evenodd" d="M82.6866 7.27299C83.0881 7.6522 83.1062 8.28511 82.727 8.68663L75.1715 16.6866C74.9826 16.8866 74.7196 17 74.4444 17C74.1693 17 73.9063 16.8866 73.7174 16.6866L69.273 11.9807C68.8938 11.5792 68.9119 10.9463 69.3134 10.5671C69.7149 10.1879 70.3478 10.206 70.727 10.6075L74.4444 14.5436L81.273 7.31338C81.6522 6.91186 82.2851 6.89378 82.6866 7.27299Z" fill="white"/>
</g>
<defs>
<clipPath id="clip0">
<path d="M0 0H88V88H0V0Z" fill="white"/>
</clipPath>
</defs>
</svg>
