<svg width="94" height="95" viewBox="0 0 94 95" fill="none" xmlns="http://www.w3.org/2000/svg">
<g filter="url(#filter0_d)">
<circle cx="47" cy="44" r="38.5" fill="white"/>
<g clip-path="url(#clip0)">
<path d="M57.5267 44.0578C57.4324 44.0392 57.3098 44.0485 57.225 44.0949C56.9609 44.2156 56.7063 44.364 56.4516 44.5032C56.3668 44.5497 56.2913 44.5961 56.197 44.6239C55.6312 44.9116 55.3671 45.2086 55.32 45.2642C55.32 45.2735 55.3105 45.2735 55.3105 45.2735C55.2445 45.3663 55.1974 45.4406 55.1313 45.5241C54.7918 45.9696 54.6504 46.48 54.5372 47.0182C54.4806 47.2874 54.4523 47.5565 54.3957 47.8256C54.3486 48.0484 54.292 48.0855 54.0845 47.9741C53.8959 47.872 53.7073 47.7607 53.5281 47.6493C53.5093 47.64 53.4998 47.6215 53.4904 47.6029C53.3678 47.5751 53.1415 47.5565 52.7548 47.64C52.7265 47.705 52.6793 47.77 52.5945 47.8164C52.4813 47.872 52.387 47.9556 52.2833 48.0391C52.0946 48.1876 51.8872 48.3082 51.6608 48.3917C51.5005 48.4474 51.3308 48.5031 51.1799 48.5774C50.8969 48.7073 50.614 48.8558 50.3405 49.0043C50.2651 49.0507 50.1802 49.0971 50.1802 49.227C50.2368 49.2548 50.3028 49.292 50.3688 49.3105C50.7555 49.3848 51.1516 49.459 51.5382 49.5147C51.7834 49.5518 52.0381 49.5332 52.2833 49.5889C52.6605 49.6724 52.9434 49.5425 53.2075 49.3012C53.2735 49.2363 53.3489 49.1806 53.4338 49.1063C53.5375 49.2177 53.6224 49.3291 53.7167 49.4126C53.8676 49.5425 53.9525 49.6817 53.8959 49.8952C53.8488 50.0901 53.8488 50.1365 53.6413 50.1736C53.4055 50.22 53.1697 50.2293 52.9245 50.2571C52.8208 50.2664 52.7171 50.2664 52.6133 50.285C52.1607 50.3778 51.8023 50.6283 51.4628 50.916C51.1327 51.1944 50.8969 51.5564 50.6329 51.8812C50.5669 51.9647 50.4348 52.0575 50.5103 52.1596C50.5574 52.2338 50.7083 52.2617 50.8121 52.271C51.6231 52.3266 52.3493 52.0482 53.0189 51.6306C53.1132 51.5657 53.198 51.4636 53.3395 51.4914C53.3961 51.6677 53.3489 51.8162 53.2829 51.9647C52.8963 52.902 52.3493 53.7373 51.5665 54.4055C51.3685 54.5818 51.2364 54.5818 51.0195 54.4333C50.9535 54.3869 50.9064 54.3405 50.8404 54.3034C50.4537 54.0714 50.0387 53.9322 49.5766 53.96C49.2937 53.9786 49.0108 54.0064 48.7279 54.0528C48.3224 54.1271 47.9263 54.0621 47.5396 54.0157C47.219 53.9786 46.9077 53.8858 46.5871 53.8394C46.3796 53.8115 46.1627 53.7744 45.9458 53.9322C45.993 53.9878 46.0213 54.0435 46.0684 54.0714C46.2665 54.2106 46.4645 54.3405 46.6625 54.4704C47.0021 54.6932 47.3793 54.8324 47.7659 54.9808C48.1526 55.1293 48.5487 55.2221 48.9636 55.2593C49.1051 55.2685 49.2466 55.3057 49.388 55.2964C49.6709 55.2685 49.9539 55.2129 50.2368 55.185C50.3028 55.1757 50.3783 55.185 50.4914 55.185C50.4443 55.2407 50.4254 55.2685 50.4065 55.2778C49.935 55.5655 49.4635 55.8532 48.9825 56.1409C48.7562 56.2801 48.5015 56.3543 48.2375 56.3822C47.832 56.4379 47.4264 56.4472 47.0209 56.3915C46.5399 56.3172 46.0967 56.1687 45.7195 55.8718C45.38 55.6026 44.9839 55.4356 44.5595 55.3521C44.1257 55.2593 43.6824 55.2129 43.2392 55.1665C42.862 55.1201 42.4753 55.0922 42.0981 55.0829C41.6925 55.0829 41.3059 55.0365 40.9192 54.8973C40.8438 54.8695 40.7683 54.8602 40.6929 54.8416C40.6835 54.8602 40.674 54.888 40.6646 54.9066C42.0509 56.2801 43.7956 56.8648 45.71 57.1153C45.6817 57.236 45.5686 57.2546 45.4837 57.2731C44.3709 57.5701 43.2486 57.8671 42.1264 58.164C42.0886 58.1733 42.0321 58.1733 41.9943 58.164C41.6454 58.1084 41.3719 57.9135 41.1361 57.6629C40.9098 57.4216 40.7589 57.1339 40.5986 56.8462C40.5231 56.7163 40.4194 56.5864 40.3062 56.4843C39.995 56.2059 39.6084 56.1131 39.2028 56.0945C38.769 56.0759 38.3258 56.1131 37.892 56.0852C37.5053 56.0667 37.1281 55.9924 36.7508 55.9275C36.6471 55.9089 36.5434 55.8532 36.4019 55.7975C36.5434 56.0295 36.6565 56.2151 36.8169 56.3729C37.3073 56.8648 37.9297 57.1617 38.5521 57.4309C39.3349 57.765 40.1459 57.997 40.9758 58.1919C41.0324 58.2012 41.0796 58.2383 41.1739 58.2847C41.0607 58.3311 40.9947 58.3775 40.9192 58.396C40.7023 58.4424 40.476 58.4981 40.2591 58.526C39.382 58.6466 38.4955 58.7394 37.609 58.758C37.543 58.758 37.477 58.7765 37.411 58.7858C37.1658 58.8229 36.9489 58.758 36.7791 58.5724C36.6377 58.4239 36.5528 58.2383 36.5151 58.0434C36.4396 57.6907 36.251 57.4309 35.9115 57.2917C35.7135 57.2174 35.5154 57.1432 35.3079 57.1153C34.9213 57.0504 34.5441 56.9761 34.1857 56.8091C33.5538 56.5214 32.9786 56.178 32.4882 55.6954C32.3561 55.5655 32.2147 55.4449 32.0638 55.3242C31.9883 55.2593 31.894 55.1943 31.7526 55.2407C31.762 55.3057 31.7714 55.3706 31.7903 55.4356C32.0166 56.0481 32.3373 56.6049 32.7711 57.0968C33.2332 57.6165 33.799 58.0063 34.4309 58.3032C34.7232 58.4424 35.0345 58.5631 35.3362 58.693C35.3928 58.7209 35.4777 58.7116 35.4683 58.8322C35.3551 58.8508 35.2419 58.8786 35.1193 58.8786C34.6949 58.8693 34.2611 58.8508 33.8368 58.8415C33.4124 58.8322 32.9786 58.8137 32.5542 58.7951C32.1864 58.7858 31.8186 58.758 31.4508 58.758C31.281 58.758 31.1584 58.6837 31.1113 58.526C31.0641 58.3404 31.017 58.1548 30.9981 57.9691C30.9698 57.7464 30.9792 57.5144 30.9509 57.2824C30.8661 56.7441 30.6869 56.243 30.338 55.8161C30.0833 55.5098 29.791 55.2221 29.4986 54.9437C28.9611 54.4426 28.5084 53.8858 28.2632 53.1897C28.2255 53.0876 28.1783 52.9856 28.1406 52.902C28.1123 53.1804 28.0934 53.4589 28.0651 53.7373C28.0369 54.0342 27.9708 54.3405 27.9614 54.6375C27.952 55.0644 28.0369 55.4913 28.1406 55.9089C28.3575 56.7813 28.8385 57.4494 29.6306 57.9042C29.9513 58.0898 30.2531 58.3218 30.5643 58.5353C30.6209 58.5724 30.6775 58.6002 30.6586 58.693C30.3474 58.758 30.0645 58.6652 29.7721 58.5817C28.8856 58.3218 28.018 57.9877 27.1692 57.635C27.1315 57.6165 27.0938 57.5794 27.0278 57.533C27.1126 57.5144 27.1598 57.4958 27.2069 57.4866C27.3107 57.4773 27.4144 57.4773 27.5276 57.468C27.7162 57.4494 27.886 57.2824 27.8954 57.1246C27.9048 56.9761 27.7822 56.7998 27.6219 56.7534C27.405 56.6884 27.2824 56.7441 27.1598 56.9297C27.1315 56.9761 27.0655 57.0318 27.0089 57.0411C26.7448 57.0689 26.4808 57.0411 26.2356 56.939C26.0941 56.8833 26.0564 56.7348 26.1413 56.6049C26.1884 56.54 26.2544 56.4843 26.311 56.4286C26.4714 56.2523 26.6411 56.0759 26.7731 55.881C27.1881 55.2593 27.3673 54.5632 27.4239 53.8301C27.4521 53.3939 27.405 52.9577 27.3201 52.5308C27.2069 51.9833 27.2164 51.445 27.3578 50.8975C27.3767 50.8139 27.3956 50.7304 27.4144 50.6098C27.2164 50.7583 27.0561 50.8789 26.8957 51.0088C26.5374 51.2872 26.2073 51.5935 25.981 51.9833C25.4623 52.8742 25.4151 53.8394 25.5754 54.8231C25.6509 55.2407 25.7169 55.6676 25.7923 56.0852C25.8112 56.178 25.7923 56.2615 25.6697 56.3079C25.6132 56.243 25.5471 56.178 25.5 56.1038C25.3208 55.8254 25.1982 55.5284 25.1133 55.2129C24.9436 54.6004 24.9341 53.9878 24.9436 53.3568C24.953 52.8185 25.0756 52.3174 25.2925 51.8255C25.6226 51.0831 26.0847 50.4334 26.6883 49.8673C26.6128 49.8859 26.5374 49.9045 26.4619 49.9416C25.7169 50.285 25.2265 50.8789 24.8681 51.5749C24.5758 52.141 24.4343 52.7628 24.3872 53.3846C24.3306 54.0342 24.3872 54.6746 24.6418 55.2871C24.6984 55.4356 24.7361 55.5841 24.7738 55.7326C24.7833 55.779 24.7738 55.8254 24.7644 55.9182C24.6512 55.8532 24.5569 55.8068 24.472 55.7418C24.0382 55.4263 23.6044 55.1015 23.18 54.7767C23.0952 54.7117 23.0008 54.6468 22.916 54.5632C22.8122 54.4611 22.8405 54.3498 22.9726 54.3034C23.0574 54.2755 23.1423 54.2663 23.2366 54.2384C23.2838 54.2199 23.3404 54.2013 23.4252 54.1642C23.2178 54.1178 23.0291 54.1549 22.8877 53.9786C22.9631 53.9229 23.0197 53.8486 23.0952 53.8208C23.3686 53.6909 23.6421 53.7466 23.9251 53.8486C23.8779 53.7744 23.8213 53.7094 23.7553 53.6723C23.529 53.5795 23.3026 53.5145 23.048 53.5702C22.8594 53.6073 22.6708 53.663 22.4822 53.7094C22.4161 53.728 22.3596 53.728 22.237 53.7466C22.2841 53.6445 22.2841 53.5609 22.3313 53.5238C22.4444 53.431 22.5576 53.3289 22.6991 53.2732C22.9443 53.1619 23.2083 53.1062 23.4912 53.134C23.6327 53.1433 23.7647 53.1248 23.9062 53.1248C23.9156 53.1062 23.9156 53.0969 23.9251 53.0784C23.8496 53.0227 23.7836 52.9484 23.7081 52.902C23.4252 52.7071 23.1046 52.6051 22.7745 52.7535C22.5859 52.8371 22.4161 52.9577 22.237 53.0691C22.1898 53.0969 22.1426 53.1248 22.0861 53.1619C22.0766 53.1155 22.0578 53.0876 22.0672 53.0691C22.1709 52.5401 22.5765 52.1596 23.1046 52.0761C23.1517 52.0668 23.2083 52.0761 23.2649 52.0668C23.3592 52.0575 23.4535 52.0297 23.5101 51.9369C23.2555 51.8162 22.7839 51.7791 22.5104 51.8626C22.303 51.9276 22.1144 52.0297 21.954 52.1874C21.7277 52.4102 21.624 52.6793 21.5296 52.967C21.5108 53.032 21.5014 53.0969 21.4071 53.1062C21.3882 53.0876 21.3693 53.0691 21.3505 53.0412C21.1807 52.7721 21.1901 52.4844 21.2939 52.206C21.3693 52.0111 21.4919 51.8441 21.5957 51.6585C21.6711 51.5285 21.7937 51.4543 21.9257 51.4079C22.1049 51.3429 22.2935 51.3429 22.4822 51.38C22.5293 51.3893 22.5859 51.38 22.6519 51.38C22.633 51.3429 22.6236 51.3244 22.6142 51.3151C22.0578 51.0367 21.5202 51.1944 21.143 51.6028C20.8978 51.8719 20.7563 52.1967 20.6715 52.5494C20.6243 52.7443 20.5583 52.7628 20.4074 52.6236C20.3697 52.5958 20.3414 52.5587 20.3037 52.5308C20.2471 52.4937 20.1811 52.4287 20.0962 52.4844C20.0207 52.6793 20.2093 52.7628 20.3225 52.9113C20.2376 52.9577 20.1716 52.9948 20.0962 53.0227C19.8321 53.1155 19.6435 53.2918 19.5398 53.5331C19.3229 54.0157 19.3606 54.4983 19.5209 54.9808C19.5492 55.0551 19.6058 55.1293 19.6529 55.1943C19.6718 55.1943 19.6907 55.185 19.7095 55.185C19.7284 55.0737 19.7567 54.9623 19.7755 54.8416C19.8133 54.6282 19.8227 54.3962 19.8793 54.1827C19.9453 53.9136 20.0396 53.663 20.3508 53.5517C20.5677 53.4774 20.7941 53.5053 20.9355 53.663C20.6337 53.8858 20.398 54.1642 20.3225 54.5354C20.2376 54.9344 20.3697 55.3706 20.6243 55.5191C20.6432 55.3985 20.6715 55.2871 20.6903 55.1757C20.728 54.9159 20.7752 54.6468 20.9261 54.4147C21.0393 54.2384 21.2184 54.1549 21.4071 54.2013C21.5391 54.2291 21.5768 54.2941 21.5391 54.424C21.5202 54.4704 21.5108 54.5261 21.4919 54.5725C21.3788 54.9159 21.5108 55.2129 21.6617 55.5098C21.7183 55.0551 21.8503 54.7674 22.1144 54.6932C22.237 54.7674 22.2181 54.8973 22.2181 55.0087C22.2181 55.1479 22.2275 55.2778 22.3596 55.417C22.3878 55.2036 22.3407 55.0087 22.4727 54.8416C22.5293 54.8695 22.5859 54.888 22.633 54.9252C23.1329 55.3057 23.6327 55.6862 24.1231 56.0759C24.1608 56.1038 24.1891 56.1595 24.2174 56.2059C24.208 56.2151 24.1985 56.2337 24.1891 56.243C24.1325 56.2337 24.0759 56.2337 24.0194 56.2244C23.661 56.178 23.3121 56.1223 22.9537 56.0945C22.4916 56.0574 22.0389 56.1131 21.5862 56.1873C20.8223 56.3172 20.1056 56.5678 19.436 56.9669C19.0022 57.2267 18.6156 57.5422 18.2855 57.9227C18.2006 58.0155 18.144 58.1455 18.078 58.2568C18.1629 58.2661 18.2195 58.2568 18.2666 58.229C18.5401 58.062 18.8136 57.8949 19.0965 57.7371C19.5492 57.4866 19.983 57.1989 20.464 57.0133C21.0204 56.7905 21.6051 56.6606 22.1992 56.642C22.6613 56.6235 23.1329 56.6142 23.595 56.6699C24.0099 56.7163 24.4155 56.772 24.8115 56.9019C24.9624 56.9483 25.1228 56.9947 25.2171 57.1617C25.1699 57.1896 25.1416 57.2267 25.1039 57.236C24.7361 57.3102 24.3683 57.3288 24.0099 57.2638C23.4347 57.1525 22.8594 57.0597 22.2652 57.1339C21.6145 57.2081 21.0298 57.4402 20.5489 57.8856C20.4168 58.0155 20.2565 58.1176 20.0962 58.2104C19.7001 58.4332 19.2757 58.6095 18.823 58.7116C18.7947 58.7209 18.7664 58.7394 18.7099 58.7765C18.7759 58.7858 18.8042 58.8044 18.8325 58.7951C19.0494 58.7765 19.2474 58.8415 19.4549 58.8972C20.2376 59.1292 21.0298 59.2777 21.8503 59.157C22.2841 59.0921 22.7085 59.0086 23.1234 58.8601C23.7176 58.6466 24.274 58.3496 24.7738 57.9599C24.9813 57.7928 25.1793 57.6072 25.3868 57.4402C25.5 57.3474 25.5471 57.3566 25.6226 57.468C25.7169 57.6165 25.8112 57.7743 25.8961 57.932C25.9432 58.0155 25.9621 58.0991 25.8678 58.164C25.698 58.2847 25.7358 58.4517 25.7829 58.6095C25.8395 58.7765 25.9715 58.8601 26.1413 58.8786C26.4336 58.925 26.6222 58.7116 26.5562 58.4332C26.5185 58.2847 26.4619 58.1362 26.4053 57.997C26.3865 57.932 26.3582 57.8671 26.3205 57.7464C26.4431 57.7928 26.5091 57.8114 26.5845 57.8392C26.858 57.9506 27.1221 58.0712 27.3956 58.1733C27.9425 58.3682 28.4895 58.5631 29.0271 58.7487C29.0931 58.7673 29.1497 58.8137 29.2157 58.8508C29.2157 58.8693 29.2063 58.8879 29.2063 58.9065C29.112 58.9343 29.0271 58.9714 28.9422 58.9807C28.5084 59.0178 28.0746 59.0828 27.6502 59.1756C26.99 59.3148 26.3582 59.5283 25.7452 59.7974C24.8964 60.1686 24.1608 60.6976 23.4912 61.3287C23.4252 61.3936 23.3592 61.4771 23.3026 61.5514C23.2838 61.5792 23.2838 61.6256 23.2649 61.6999C23.3592 61.6535 23.4158 61.6164 23.4724 61.5885C23.9345 61.3379 24.4249 61.1802 24.9624 61.1987C25.2076 61.208 25.4528 61.1802 25.7075 61.1523C26.2544 61.0874 26.792 60.976 27.3107 60.7997C27.6691 60.679 28.018 60.512 28.2726 60.2336C28.5461 59.9366 28.8479 59.6953 29.1874 59.4911C29.5929 59.2498 30.0362 59.157 30.5077 59.2034C30.8755 59.2313 31.2433 59.2777 31.6017 59.287C32.5353 59.3055 33.469 59.3055 34.4026 59.3055C34.478 59.3055 34.5535 59.2962 34.6289 59.3055C34.7893 59.3241 34.9496 59.3519 35.1099 59.3705C35.091 59.4169 35.091 59.4355 35.0816 59.4447C35.0533 59.4633 35.0156 59.4819 34.9873 59.5004C34.6384 59.6489 34.3366 59.8716 34.0631 60.1315C33.6104 60.5491 33.1766 60.9946 32.7994 61.4957C32.441 61.969 32.1015 62.4609 31.7526 62.9435C31.7243 62.9899 31.7054 63.0363 31.6677 63.1105C31.7337 63.1012 31.762 63.1012 31.7903 63.1012C32.2241 62.962 32.6673 62.8414 33.0917 62.665C33.9311 62.3124 34.7421 61.904 35.44 61.3101C36.0341 60.809 36.5151 60.2336 36.7886 59.5097C36.8357 59.389 36.9017 59.3334 37.0338 59.3241C37.3167 59.3055 37.5996 59.287 37.8825 59.2591C38.0806 59.2406 38.2692 59.222 38.4672 59.2034C38.7219 59.1756 38.9765 59.1478 39.2311 59.1292C39.4292 59.1106 39.6178 59.1014 39.8158 59.0828C40.1553 59.055 40.4854 59.0086 40.8249 58.9807C40.8626 58.9807 40.9098 58.9993 40.9852 59.0271C40.9287 59.1014 40.9004 59.1756 40.8532 59.2127C40.6457 59.3612 40.4477 59.5283 40.2119 59.6211C39.8347 59.7788 39.4292 59.8902 39.0331 60.0016C38.4955 60.1593 37.958 60.2707 37.4393 60.4841C37.2035 60.5769 37.0055 60.7069 36.8074 60.8739C36.4585 61.1802 36.2604 61.5792 36.0813 61.9876C35.9115 62.3773 35.7606 62.7671 35.6003 63.1569C35.5909 63.1755 35.6097 63.194 35.6192 63.2311C35.6663 63.2126 35.704 63.194 35.7418 63.1755C36.0341 62.9899 36.3548 62.8599 36.6943 62.7671C37.5053 62.5166 38.2503 62.1361 38.9482 61.6535C39.2783 61.4215 39.5989 61.1709 39.9007 60.911C40.2308 60.6233 40.5514 60.3357 40.8438 60.0201C41.1927 59.6396 41.5228 59.2498 41.7963 58.8137C41.8529 58.7301 41.9283 58.6745 42.0321 58.6559C42.4753 58.5445 42.9185 58.4146 43.3618 58.3032C44.1728 58.0898 44.9839 57.8763 45.8043 57.6629C45.8609 57.6443 45.9175 57.6443 45.9835 57.6443C46.0024 57.7835 45.9364 57.8763 45.8704 57.9506C45.5874 58.2847 45.2951 58.6188 45.0027 58.9436C44.8141 59.1478 44.6066 59.3426 44.3992 59.5468C44.1162 59.8159 43.8333 60.0758 43.5504 60.3449C43.3429 60.5491 43.1355 60.7533 42.9185 60.9482C43.0883 60.9203 43.2486 60.8739 43.3995 60.809C44.0785 60.5398 44.7387 60.2521 45.38 59.8902C46.0213 59.5283 46.6343 59.1292 47.1624 58.6188C47.6245 58.1733 48.03 57.6907 48.1998 57.0597C48.228 56.9669 48.2846 56.9019 48.3978 56.8741C48.6807 56.8091 48.9448 56.707 49.1805 56.5492C49.454 56.3636 49.7181 56.1687 49.9916 55.9831C50.067 55.9367 50.1425 55.8811 50.2274 55.8532C50.3688 55.8161 50.4348 55.8903 50.3971 56.0295C50.3783 56.1038 50.35 56.1873 50.3122 56.2523C50.1331 56.5492 49.9633 56.8555 49.7653 57.1432C49.5201 57.4866 49.2654 57.8299 48.9825 58.1455C48.709 58.461 48.3978 58.7394 48.096 59.0271C48.0866 59.0364 48.0866 59.0642 48.0583 59.1199C48.3884 59.0086 48.6902 58.925 48.9825 58.8137C49.6521 58.5631 50.2368 58.1919 50.6989 57.6536C51.3402 56.9112 51.6891 56.0481 51.708 55.0737C51.708 54.9808 51.7268 54.9066 51.8023 54.8324C52.0286 54.5818 52.2455 54.3127 52.4813 54.0621C52.5945 53.9414 52.7171 53.8394 52.8585 53.7558C52.9906 53.6816 53.066 53.7466 53.0283 53.8858C52.9057 54.4055 52.9057 54.9252 52.8963 55.4541C52.8963 55.7233 52.8774 55.9924 52.8491 56.2523C52.8208 56.5214 52.7737 56.7813 52.6416 57.0225C52.6133 57.0782 52.6039 57.1339 52.5756 57.2174C52.8963 57.0782 53.1132 56.8833 53.3018 56.642C53.7167 56.0852 53.8488 55.4542 53.8393 54.7767C53.8393 54.6653 53.811 54.5539 53.7922 54.4519C53.745 54.0992 53.6979 53.7373 53.5375 53.4217C53.4055 53.1712 53.4055 52.9299 53.4998 52.6793C53.6413 52.3081 53.7733 51.9462 53.9242 51.5749C53.9808 51.4357 54.0562 51.3151 54.1317 51.1852C54.1788 51.1016 54.2448 51.0459 54.3674 51.0924C54.3863 51.1944 54.4146 51.2965 54.4335 51.4079C54.4995 51.9647 54.6315 52.503 54.8013 53.0227C54.8673 53.2083 54.9522 53.3939 55.037 53.5702C55.0559 53.6073 55.103 53.6352 55.1408 53.6816C55.1596 53.2454 55.1974 52.8371 55.1974 52.4195C55.1974 51.8441 55.1974 51.2687 55.3294 50.7026C55.3482 50.6283 55.3671 50.5541 55.386 50.4798C55.386 50.1922 55.3482 49.9601 55.32 49.8117C55.32 49.8024 55.32 49.7931 55.3105 49.7838C55.3105 49.7745 55.3105 49.7653 55.3011 49.756C55.2917 49.7188 55.2822 49.691 55.2822 49.6539C55.2822 49.6539 55.2822 49.6539 55.2822 49.6446C55.1974 49.3198 55.0936 48.995 54.8861 48.7258C54.7447 48.5402 54.7164 48.3546 54.773 48.1412C54.8484 47.7978 54.9239 47.4451 55.0087 47.1018C55.103 46.7398 55.2162 46.3779 55.32 46.016C55.3954 45.7747 55.5463 45.5891 55.7538 45.4406C55.7726 45.4313 55.7821 45.422 55.7915 45.4127C55.7915 45.4127 55.8009 45.4035 55.8198 45.3942C55.9047 45.3292 56.1687 45.1529 56.4045 45.023C56.4233 45.0137 56.4422 45.0044 56.4611 44.9858C56.7157 44.8559 56.9798 44.7445 57.225 44.6053C57.3664 44.5218 57.4985 44.4012 57.6116 44.2712C57.7154 44.1784 57.6682 44.0764 57.5267 44.0578ZM54.0751 49.0321C53.7827 48.8001 53.6696 48.5774 54.0279 48.3825C54.1223 48.5959 54.1317 48.7908 54.0751 49.0321Z" fill="#009D4E"/>
<path d="M55.9987 44.4569C55.763 44.6518 55.348 45.0044 55.1783 45.1807C54.9614 45.1343 54.7633 45.2086 54.5653 45.2735C54.0749 45.4499 53.7542 45.7654 53.6033 46.248C53.5373 46.4707 53.4902 46.6842 53.4713 46.9162C53.4619 47.0275 53.443 47.1389 53.443 47.2503L52.7546 47.241C52.6886 46.6934 52.83 46.183 53.0941 45.7004C53.3487 45.2457 53.7354 44.9394 54.2729 44.8466C54.4615 44.8095 54.6502 44.7817 54.8482 44.8281C55.018 44.8652 55.1783 44.8002 55.3009 44.6796C55.3763 44.6054 55.4423 44.5218 55.5084 44.4476C55.6027 44.3362 55.6215 44.262 55.5084 44.1785C55.2632 43.9928 55.2066 43.7423 55.1783 43.4639C55.1688 43.3432 55.15 43.2318 55.1311 43.1112C54.9897 42.378 54.5841 41.8305 53.9051 41.4871C53.2638 41.1623 52.6037 41.1159 51.9152 41.2366C51.3117 41.3386 50.7647 41.5799 50.2554 41.9047C49.6802 42.276 49.1237 42.6565 48.5485 43.0277C48.0486 43.3525 47.5394 43.6495 46.9735 43.8258C46.0776 44.0949 45.21 44.0578 44.3612 43.6495C43.8614 43.4175 43.4653 43.0648 43.1164 42.6565C42.692 42.1553 42.3431 41.6078 42.0413 41.0231C41.4943 39.9651 40.9662 38.8886 40.4098 37.8306C40.0797 37.1903 39.7213 36.5685 39.2781 35.9931C38.9763 35.5941 38.6368 35.2228 38.269 34.8887C37.6088 34.2948 36.911 33.7473 36.1754 33.2461C35.4115 32.7357 34.6476 32.2253 33.8931 31.6963C33.1858 31.1951 32.4785 30.694 31.8089 30.1557C31.1394 29.6175 30.5264 29.005 30.0642 28.2811C29.8568 27.9563 29.6776 27.5943 29.5361 27.2324C29.2909 26.6199 29.1306 25.9795 29.0269 25.3299C28.9609 24.9401 28.9043 24.5596 28.9043 24.1698C28.9043 23.8914 28.876 23.613 28.876 23.3253C28.876 23.1954 28.9043 23.0655 28.9231 22.917C29.0457 22.9912 29.0269 23.084 29.0363 23.1676C29.0457 23.4274 29.0552 23.6873 29.074 23.9471C29.1023 24.374 29.1872 24.7916 29.3004 25.2093C29.4984 25.9146 29.8002 26.5735 30.2246 27.1674C30.4603 27.5108 30.7338 27.8263 31.0262 28.1233C31.658 28.7637 32.3653 29.3112 33.1009 29.8216C33.9026 30.3692 34.7136 30.9074 35.5058 31.4643C36.1565 31.9097 36.7978 32.3737 37.3825 32.912C37.7974 33.2925 38.2124 33.6637 38.5991 34.0721C39.08 34.5825 39.495 35.1486 39.8439 35.7518C40.2494 36.4479 40.6455 37.1624 41.0228 37.877C41.4754 38.7401 41.9092 39.6218 42.3619 40.4941C42.6731 41.1066 43.0315 41.7006 43.4747 42.2388C43.852 42.6936 44.2858 43.0834 44.8705 43.2875C45.0308 43.3432 45.2006 43.3896 45.3703 43.4082C45.9739 43.4639 46.5586 43.3711 47.1056 43.1205C47.7752 42.8142 48.3976 42.4244 49.02 42.0347C49.6613 41.6356 50.3026 41.2644 51.0288 41.0324C51.3966 40.9117 51.7738 40.8375 52.1699 40.8004C52.8772 40.7354 53.5373 40.8746 54.1503 41.1716C54.9048 41.5521 55.4235 42.146 55.6404 42.972C55.7253 43.2782 55.7724 43.5938 55.7535 43.9093C55.7441 44.0392 55.7818 44.1506 55.8667 44.2527C55.9139 44.3084 55.9516 44.3826 55.9987 44.4569Z" fill="#622599"/>
<path d="M23.0571 30.9356C22.9534 30.6758 22.8496 30.453 22.7836 30.221C22.6799 29.8776 22.6044 29.525 22.5196 29.1723C22.4441 28.8568 22.4535 28.5413 22.529 28.2257C22.595 27.9659 22.6422 27.6967 22.8685 27.4926C23.142 27.242 23.4626 27.1678 23.8021 27.2327C24.3586 27.3441 24.8395 27.6225 25.2639 27.9752C25.3865 28.0772 25.5091 28.1793 25.6317 28.2721C25.6411 28.2628 25.66 28.2536 25.6694 28.235C25.6128 28.1329 25.5563 28.0401 25.5091 27.938C25.0564 27.1399 24.7169 26.2954 24.4246 25.4323C24.2077 24.8012 24.0473 24.1609 23.9436 23.502C23.8493 22.8802 23.8682 22.2677 24.0945 21.6645C24.3303 21.052 24.9244 20.6251 25.6034 20.6251C25.8015 20.6251 25.9995 20.6158 26.1881 20.6529C26.6597 20.7364 27.0369 21.0056 27.3292 21.3582C27.7348 21.8408 28.0648 22.3791 28.3006 22.973C28.376 23.1586 28.4138 23.3535 28.4609 23.5484C28.4704 23.5855 28.4515 23.6319 28.4515 23.6969C28.2912 23.6319 28.2252 23.5205 28.1686 23.3813C28.0648 23.0936 27.9517 22.8152 27.8291 22.5368C27.6782 22.2213 27.4707 21.9429 27.2161 21.6923C26.6408 21.0891 25.8203 21.2932 25.3959 21.8686C25.1602 22.1934 25.047 22.5739 24.9904 22.9637C24.9527 23.27 24.9433 23.5855 24.9433 23.8918C24.9433 24.4207 25.0281 24.9312 25.1319 25.4416C25.3205 26.3604 25.6317 27.2327 26.0278 28.0865C26.3484 28.7733 26.7257 29.4229 27.1878 30.0354C27.5273 30.4901 27.9045 30.9078 28.3289 31.2883C28.8193 31.7244 29.3286 32.1328 29.8189 32.569C30.1019 32.8195 30.3754 33.0794 30.6489 33.3485C30.8563 33.5434 31.0638 33.7383 31.243 33.9517C31.5448 34.323 31.7334 34.7591 31.8937 35.2046C32.1012 35.7893 32.2144 36.4018 32.337 37.005C32.3558 37.0978 32.3747 37.1906 32.3935 37.3113C32.2049 36.9215 32.0257 36.5503 31.856 36.1791C31.5919 35.6315 31.2524 35.1396 30.7809 34.7406C30.5074 34.4993 30.2245 34.2766 29.9415 34.0353C29.7246 33.8497 29.5077 33.6733 29.3003 33.4784C29.0268 33.2186 28.7533 32.968 28.4986 32.6896C27.8479 31.9936 27.2349 31.2604 26.7445 30.4437C26.3107 29.692 25.7732 29.0053 25.1036 28.4113C24.8018 28.1515 24.4717 27.938 24.1039 27.771C23.9153 27.6875 23.7267 27.6782 23.5287 27.706C23.3306 27.7339 23.2174 27.8823 23.1326 28.0494C22.9722 28.3556 22.9628 28.6712 23.0665 28.996C23.1891 29.4229 23.4438 29.7663 23.7361 30.0818C23.7833 30.1282 23.8304 30.1839 23.8776 30.221C24.0662 30.3695 24.1322 30.5458 24.1228 30.7871C24.1134 31.0099 24.1511 31.2419 24.1605 31.4739C24.1605 31.6316 24.1322 31.7987 24.1228 31.9565C23.9625 31.9657 23.8776 31.8822 23.8021 31.7987C23.7456 31.7337 23.689 31.6595 23.6418 31.5852C23.4249 31.2975 23.2174 31.2975 22.9345 31.4368C22.529 31.6409 22.397 32.1328 22.4441 32.4762C22.5101 32.9216 22.7082 33.3114 23.0005 33.6455C23.2835 33.9703 23.5947 34.2766 23.8965 34.5828C24.0002 34.6849 24.0473 34.7963 24.0756 34.9262C24.1322 35.2417 24.1888 35.5665 24.236 35.8821C24.2548 36.0027 24.2454 36.1326 24.2454 36.2626C24.2454 36.3461 24.1888 36.3739 24.1039 36.3647C24.0285 36.3554 23.953 36.3461 23.887 36.309C23.623 36.1976 23.3778 36.3832 23.2646 36.5781C23.1137 36.8565 23.1043 37.1442 23.2269 37.4319C23.3872 37.8031 23.6418 38.1001 23.9436 38.36C24.3397 38.7033 24.7735 39.0003 25.2262 39.2602C25.4054 39.3622 25.594 39.455 25.7732 39.5664C25.8298 39.5942 25.8769 39.6499 25.9146 39.7056C26.0655 39.9469 26.2164 40.1882 26.3579 40.4295C26.4427 40.578 26.5276 40.7265 26.5088 40.9121C26.4993 41.0327 26.4616 41.0698 26.3579 41.042C26.1693 40.9863 25.9806 40.9399 25.8109 40.8378C25.3394 40.578 24.9055 40.2532 24.5 39.9098C24.0473 39.5293 23.6513 39.1117 23.3117 38.6476C22.9439 38.1372 22.6987 37.5804 22.6422 36.9493C22.6139 36.6616 22.6987 36.3925 22.9062 36.1698C23.0288 36.0491 23.1609 35.947 23.2929 35.8357C23.3212 35.8078 23.3589 35.78 23.4061 35.7336C23.3023 35.5944 23.1986 35.4737 23.1137 35.3438C22.8779 34.9819 22.6139 34.6385 22.4158 34.258C22.0575 33.5712 21.85 32.8474 21.8971 32.0585C21.9254 31.6316 22.2649 31.2047 22.727 31.047C22.8402 31.0099 22.9345 30.982 23.0571 30.9356Z" fill="#622599"/>
<path d="M58.7156 56.7999C58.4987 57.0041 58.2912 57.199 58.1026 57.4032C57.9705 57.5424 57.8479 57.6909 57.7159 57.8301C57.5084 58.0528 57.3198 58.2941 57.1029 58.5075C56.8106 58.7952 56.4993 59.0551 56.141 59.2685C55.6129 59.5748 55.0564 59.7975 54.4717 59.9831C53.9436 60.1502 53.4061 60.2708 52.8497 60.3543C52.4724 60.41 52.0858 60.4193 51.7085 60.4471C51.5388 60.4564 51.369 60.475 51.1993 60.4843C51.105 60.4935 51.0201 60.4935 50.9258 60.4843C50.7466 60.475 50.5674 60.4564 50.3882 60.4471C49.9827 60.4193 49.5772 60.4007 49.1811 60.3636C48.5209 60.3079 47.8702 60.243 47.2101 60.1687C46.9837 60.1409 46.7574 60.1038 46.5122 60.0481C46.5877 60.0295 46.6725 59.9924 46.748 59.9831C47.2006 59.9182 47.6533 59.8625 48.106 59.8068C48.7096 59.7326 49.3131 59.6583 49.9073 59.5841C50.3788 59.5284 50.8409 59.4727 51.303 59.4077C52.1612 59.2964 53.0288 59.2128 53.8682 58.9994C54.5943 58.8138 55.2828 58.5632 55.9429 58.2106C56.5654 57.8765 57.1406 57.4774 57.6593 57.0041C57.8857 56.8092 58.0931 56.5958 58.3195 56.4009C58.4421 56.2895 58.5835 56.1781 58.7061 56.0575C58.8476 55.9183 58.9702 55.7698 59.1022 55.6306C59.2343 55.4914 59.3757 55.4357 59.5643 55.5007C59.6209 55.5192 59.6964 55.51 59.7529 55.4821C59.8944 55.4171 60.0264 55.3336 60.1679 55.2501C60.3942 55.1202 60.63 55.0088 60.9035 54.981C61.4127 54.9253 61.6862 55.0923 61.9314 55.5749C62.1012 55.909 62.1483 56.2709 62.1578 56.6329C62.1672 57.0598 62.0918 57.4774 61.8371 57.8393C61.6579 58.0992 61.3939 58.2477 61.0638 58.257C60.5734 58.2755 60.1679 58.0806 59.7812 57.8022C59.4512 57.5609 59.1871 57.264 58.9042 56.9763C58.857 56.9206 58.791 56.8742 58.7156 56.7999ZM60.8469 57.0041C60.9223 56.6514 60.7054 56.141 60.4131 56.0111C60.2811 55.9554 60.1207 55.9647 59.9698 55.9554C59.9133 55.9554 59.8567 56.0018 59.7718 56.0297C60.0076 56.5122 60.3282 56.8371 60.8469 57.0041Z" fill="#622599"/>
<path d="M33.9024 40.6709C34.2608 40.9586 34.6286 41.1999 34.9398 41.5061C35.5717 42.1372 35.798 42.8796 35.4962 43.7427C35.4114 43.9933 35.3171 44.2439 35.1945 44.4851C34.921 45.0513 34.6946 45.6174 34.6003 46.2484C34.4117 46.2484 34.2325 46.2484 34.025 46.2484C34.0156 46.1742 33.9968 46.0999 34.0062 46.035C34.0628 45.7102 34.0628 45.3853 34.0062 45.0698C33.9968 45.0141 33.9968 44.9492 33.9968 44.8935C33.9968 44.578 34.0062 44.2531 33.9968 43.9376C33.9873 43.5107 33.9685 43.0838 33.9496 42.6569C33.9496 42.6198 33.9307 42.5919 33.9119 42.5177C33.8742 42.5827 33.8553 42.6105 33.8364 42.6476C33.827 42.6569 33.8364 42.6755 33.8364 42.694C33.8176 43.2416 33.8081 43.7891 33.7893 44.3367C33.7798 44.68 33.7516 45.0327 33.7516 45.3761C33.7516 45.571 33.7704 45.7566 33.7798 45.9515C33.7798 46.0443 33.7798 46.1463 33.7798 46.2391C33.5912 46.3134 33.4026 46.267 33.2046 46.2763C33.1763 46.1185 33.148 45.9793 33.1197 45.8401C33.0254 45.4132 32.8368 45.0141 32.6576 44.6151C32.4784 44.2067 32.2898 43.8077 32.2143 43.3622C32.1295 42.9168 32.2238 42.5084 32.4218 42.1186C32.601 41.766 32.8839 41.4876 33.2046 41.2463C33.4498 41.0514 33.6761 40.8565 33.9024 40.6709Z" fill="#622599"/>
<path d="M20.7189 33.1533C20.7472 33.1812 20.8038 33.209 20.8227 33.2554C20.8793 33.3761 20.9453 33.4967 20.9641 33.6266C21.0113 33.9236 21.0302 34.2298 21.0584 34.5268C21.0867 34.8424 21.1339 35.1579 21.1433 35.4734C21.1622 36.0024 21.2659 36.5128 21.3791 37.0233C21.53 37.6636 21.7375 38.2854 22.0015 38.8886C22.1901 39.3155 22.407 39.7331 22.6145 40.1508C22.9446 40.7818 23.3501 41.3758 23.7745 41.9419C24.114 42.3966 24.5101 42.805 24.925 43.1855C25.0854 43.3339 25.274 43.4639 25.4437 43.6031C25.5003 43.6495 25.5663 43.7237 25.5758 43.7887C25.6512 44.1228 25.7078 44.4569 25.7738 44.7817C25.7927 44.8838 25.821 44.9859 25.8304 45.0879C25.8493 45.2364 25.7832 45.2921 25.6323 45.255C25.3777 45.1808 25.1514 45.0415 24.9533 44.8652C24.7553 44.6982 24.5667 44.5311 24.3875 44.3548C23.9725 43.9465 23.6142 43.4917 23.2652 43.0277C22.756 42.3409 22.3316 41.5985 21.9638 40.8282C21.5771 40.0023 21.2848 39.1392 21.0962 38.2483C21.0019 37.8121 20.9264 37.3666 20.8887 36.9212C20.8415 36.4015 20.8604 35.8725 20.8415 35.3435C20.8227 34.7867 20.8132 34.2206 20.6624 33.673C20.6341 33.5802 20.6246 33.4874 20.6152 33.3946C20.6058 33.3018 20.6058 33.209 20.7189 33.1533Z" fill="#622599"/>
<path d="M32.9884 46.2854C32.7432 46.3225 32.5357 46.3504 32.3188 46.3875C32.2905 46.3133 32.2717 46.2483 32.2434 46.1926C32.1396 46.0256 32.0548 45.84 31.9322 45.6822C31.7247 45.4316 31.3946 45.4131 31.1494 45.4966C30.8853 45.5801 30.7062 45.8492 30.7062 46.1276C30.7062 46.2297 30.7062 46.3318 30.7062 46.4525C30.3478 46.4989 30.0649 46.3689 29.8197 46.174C29.1784 45.6451 29.1029 44.7263 29.6311 44.0674C29.9234 43.6962 30.3195 43.5198 30.7627 43.4827C30.9514 43.4642 31.1494 43.5291 31.3286 43.5848C31.7624 43.7333 32.083 44.0303 32.3377 44.4015C32.6772 44.8934 32.8941 45.4316 32.9978 46.007C32.9978 46.0905 32.9884 46.1833 32.9884 46.2854ZM30.1875 44.3087C30.1875 44.4479 30.1875 44.5407 30.1875 44.6335C30.1026 44.6892 30.0271 44.7356 29.9328 44.8005C30.0554 44.8377 30.1403 44.8655 30.2158 44.9026C30.2441 44.9862 30.2818 45.0697 30.3195 45.1903C30.3949 45.079 30.4421 45.0047 30.4893 44.9398C30.593 44.9212 30.6967 44.9862 30.7816 44.9026C30.7156 44.8284 30.659 44.7634 30.6118 44.6892C30.6401 44.5964 30.6779 44.5129 30.7156 44.3922C30.5836 44.4386 30.4987 44.4757 30.4138 44.5036C30.3478 44.4479 30.2912 44.3922 30.1875 44.3087Z" fill="#622599"/>
<path d="M35.4866 46.3779C35.4018 46.3686 35.2886 46.3593 35.1754 46.3407C35.0623 46.3222 34.9585 46.3036 34.8453 46.2943C34.7793 46.1644 34.8359 46.0438 34.8548 45.9231C34.9585 45.3663 35.166 44.8559 35.4961 44.3918C35.7413 44.0392 36.0619 43.7608 36.4674 43.5937C36.9673 43.3895 37.4388 43.4638 37.8726 43.7608C38.6554 44.2898 38.8345 45.4962 37.9763 46.2108C37.75 46.3964 37.4294 46.4892 37.1181 46.4521C37.1181 46.3593 37.1087 46.2479 37.1181 46.1551C37.137 45.821 36.873 45.5705 36.6466 45.4962C36.3826 45.4127 35.9959 45.524 35.8356 45.7561C35.713 45.9417 35.6092 46.1551 35.4866 46.3779ZM37.8915 44.8002C37.7877 44.7352 37.7123 44.6795 37.6368 44.6238C37.6368 44.5218 37.6368 44.4382 37.6368 44.3083C37.5331 44.3826 37.4671 44.4382 37.4011 44.4939C37.3162 44.4568 37.2313 44.429 37.1087 44.3826C37.1464 44.5032 37.2125 44.5867 37.1936 44.661C37.1842 44.7352 37.0993 44.8002 37.0521 44.8744C37.0427 44.8837 37.0616 44.9023 37.0616 44.9208C37.1464 44.9208 37.2313 44.9208 37.3351 44.9208C37.3822 44.9951 37.4388 45.0693 37.5048 45.1714C37.5425 45.06 37.5708 44.9672 37.6085 44.8837C37.6557 44.8744 37.6934 44.8744 37.7406 44.8651C37.7783 44.8559 37.816 44.8373 37.8915 44.8002Z" fill="#622599"/>
<path d="M33.2238 47.3066C33.403 47.3252 33.5633 47.3345 33.7519 47.353C33.7708 47.4458 33.7896 47.5387 33.7991 47.6407C33.8179 47.947 33.8274 48.244 33.8462 48.5502C33.8462 48.5781 33.8745 48.6059 33.9028 48.6894C34.0537 48.2254 33.95 47.7892 34.0443 47.3623C34.2329 47.3438 34.4026 47.3345 34.5818 47.3159C34.6007 47.353 34.629 47.3902 34.6384 47.4366C34.7138 47.8171 34.8553 48.1697 35.0628 48.5038C35.1288 48.6059 35.1288 48.6709 35.0628 48.7822C34.8176 49.1999 34.4498 49.4875 34.0348 49.7288C33.95 49.7752 33.8745 49.7938 33.7802 49.7474C33.337 49.5061 32.9692 49.1999 32.7051 48.7637C32.658 48.6894 32.6485 48.6337 32.6957 48.5595C32.9314 48.2068 33.0918 47.8263 33.1672 47.418C33.1955 47.3623 33.2144 47.3345 33.2238 47.3066Z" fill="#622599"/>
<path d="M33.9124 46.4434C34.4122 46.4434 34.912 46.4712 35.4024 46.5918C35.4967 46.6104 35.5911 46.6382 35.6759 46.6846C35.7231 46.7032 35.7797 46.7682 35.7797 46.8053C35.7797 46.8424 35.7231 46.9074 35.6759 46.9259C35.4967 46.9816 35.3176 47.0373 35.1289 47.0559C34.5914 47.1301 34.0538 47.1858 33.5163 47.1394C33.0919 47.1023 32.677 47.028 32.2526 46.9631C32.1583 46.9445 32.0357 46.9352 32.0262 46.8146C32.0168 46.6754 32.1488 46.6568 32.2431 46.6382C32.4883 46.5826 32.7335 46.5269 32.9882 46.499C33.2994 46.4619 33.6106 46.4619 33.9124 46.4434ZM35.4967 46.7775C34.4405 46.6197 33.3748 46.6197 32.3186 46.7682C32.6864 46.9631 33.0919 46.8981 33.4786 46.9259C34.1481 46.9723 34.8272 46.9445 35.4967 46.7775Z" fill="#622599"/>
<path d="M31.2338 47.8631C31.3658 47.8817 31.479 47.9003 31.5921 47.9003C31.9316 47.9095 32.158 47.7425 32.29 47.4362C32.3089 47.3991 32.3183 47.3527 32.3372 47.3063C32.356 47.2228 32.4126 47.1949 32.4881 47.2135C32.6484 47.2413 32.8087 47.2692 32.9973 47.3063C32.9784 47.3991 32.9784 47.4826 32.9502 47.5662C32.8653 47.8724 32.7333 48.1601 32.4881 48.3921C32.1768 48.6798 31.8373 48.6705 31.5261 48.4014C31.3658 48.2529 31.2432 48.0951 31.2338 47.8631Z" fill="#622599"/>
<path d="M34.8175 47.306C34.9967 47.2689 35.1664 47.241 35.3362 47.2132C35.4022 47.2039 35.4588 47.2225 35.4777 47.2874C35.4965 47.3431 35.5154 47.3988 35.5437 47.4545C35.6851 47.7793 36.0246 47.9556 36.3641 47.8814C36.4302 47.8721 36.4962 47.8535 36.5622 47.8442C36.5528 48.2247 36.2321 48.5403 35.8737 48.5681C35.6191 48.5867 35.4211 48.5032 35.2607 48.3083C35.0155 48.0299 34.8647 47.6958 34.8175 47.306Z" fill="#622599"/>
<path d="M53.9247 42.2207C54.1039 42.2207 54.2359 42.3692 54.2454 42.5548C54.2548 42.7497 54.0473 42.9724 53.8681 42.9631C53.6889 42.9539 53.5192 42.7311 53.5098 42.5455C53.5098 42.3321 53.6795 42.2485 53.9247 42.2207Z" fill="#622599"/>
<path d="M33.5256 51.4548C33.5351 51.3806 33.5539 51.3063 33.5634 51.2321C33.5822 51.1207 33.6765 51.1486 33.752 51.1207C33.8557 51.0743 33.9594 51.0001 34.0538 50.9444C34.1103 50.9073 34.1764 50.8609 34.2424 50.8145C34.3178 50.9165 34.3744 51.0093 34.4404 51.1021C34.2518 51.4084 33.9217 51.5476 33.5256 51.4548Z" fill="#622599"/>
<path d="M35.4678 50.7027C35.3358 50.7491 35.2132 50.7955 35.0906 50.842C34.9397 50.8884 34.7794 50.9348 34.5813 50.9904C34.5059 50.9533 34.421 50.8605 34.3833 50.7306C34.7322 50.4336 35.2792 50.4151 35.4678 50.7027Z" fill="#622599"/>
<path d="M33.3931 52.0206C33.4968 51.9464 33.5911 51.8814 33.6854 51.8164C33.7137 51.7979 33.7609 51.7793 33.7892 51.7886C34.0249 51.8536 34.2607 51.9185 34.4493 52.1134C34.4022 52.2526 34.2796 52.299 34.1852 52.364C33.9212 52.2619 33.676 52.1505 33.3931 52.0206Z" fill="#622599"/>
<path d="M32.8366 50.582C32.8178 50.7212 32.8083 50.8419 32.7989 50.9533C32.7989 50.9718 32.7895 50.9997 32.7706 51.0089C32.6669 51.1203 32.5537 51.2317 32.4405 51.3338C32.4217 51.3523 32.3745 51.3616 32.3368 51.3523C32.2142 51.3152 32.1199 51.0646 32.2048 50.9625C32.3651 50.7769 32.5537 50.6284 32.8366 50.582Z" fill="#622599"/>
<path d="M32.0543 51.3242C32.1486 51.4077 32.2335 51.4727 32.3183 51.5469C32.3466 51.5748 32.3749 51.6119 32.3938 51.649C32.4598 51.7975 32.5258 51.9367 32.5918 52.0945C32.3466 52.2615 32.1674 52.2059 32.0637 51.9274C31.9977 51.7233 31.9411 51.5284 32.0543 51.3242Z" fill="#622599"/>
<path d="M35.7512 50.749C35.7512 50.8697 35.77 50.9439 35.7512 51.0089C35.7323 51.0831 35.6946 51.1759 35.6286 51.2038C35.4494 51.3058 35.2513 51.3801 35.0344 51.4822C35.0439 51.4079 35.0533 51.3708 35.0533 51.3337C35.0156 51.0553 35.1947 50.9532 35.4117 50.8789C35.506 50.8325 35.6097 50.7954 35.7512 50.749Z" fill="#622599"/>
<path d="M33.026 50.8975C33.1109 50.5913 33.1486 50.5634 33.4221 50.5727C33.6296 50.582 33.8088 50.6377 33.9219 50.8326C33.8088 50.9532 33.6956 51.046 33.4975 50.9811C33.3561 50.9254 33.1958 50.9254 33.026 50.8975Z" fill="#622599"/>
<path d="M34.2134 51.7795C34.534 51.5754 35.0904 51.6218 35.2885 51.8352C35.1753 51.9002 35.0621 51.9559 34.949 52.0208C34.8358 52.0858 34.7226 52.0394 34.6283 52.0115C34.4869 51.9651 34.3548 51.8723 34.2134 51.7795Z" fill="#622599"/>
<path d="M35.1569 52.4569C34.9777 52.6518 34.6005 52.6704 34.3458 52.4848C34.4496 52.3827 34.5533 52.2806 34.6476 52.1785C34.8834 52.16 35.072 52.2342 35.1569 52.4569Z" fill="#622599"/>
<path d="M33.5067 39.6959C33.5161 39.631 33.5161 39.5939 33.5256 39.5567C33.5822 39.3062 33.6199 39.2783 33.8745 39.2783C33.9877 39.2783 34.1103 39.2783 34.2423 39.2783C34.1857 39.399 34.1574 39.5011 34.1103 39.5846C34.082 39.631 34.016 39.6774 33.9594 39.6867C33.8085 39.7052 33.667 39.6959 33.5067 39.6959Z" fill="#622599"/>
<path d="M32.6478 51.3155C32.761 51.1299 32.893 51.0279 33.1099 51.0835C33.2231 51.1114 33.3363 51.1299 33.4589 51.1485C33.4306 51.2599 33.4117 51.3619 33.3834 51.4826C33.1099 51.5104 32.8836 51.4084 32.6478 51.3155Z" fill="#622599"/>
<path d="M35.9021 52.3639C35.7701 52.4195 35.6475 52.4752 35.5154 52.5402C35.4494 52.4659 35.3834 52.3917 35.308 52.3175C35.242 52.2525 35.1665 52.1968 35.0911 52.1411C35.2608 51.8813 35.7324 51.9833 35.9021 52.3639Z" fill="#622599"/>
<path d="M39.6935 44.9678C39.769 44.9863 39.8255 44.9863 39.8821 45.0049C40.0613 45.0606 40.0802 45.0884 40.0802 45.274C40.0802 45.404 40.0802 45.5339 40.0802 45.6731C39.6841 45.5339 39.6275 45.571 39.6935 44.9678Z" fill="#622599"/>
<path d="M27.7345 45.0879C27.7628 45.0786 27.7723 45.0693 27.7723 45.0693C28.1778 45.2457 28.1778 45.2457 28.1306 45.7654C28.0363 45.7468 27.942 45.7375 27.8571 45.7004C27.8006 45.6726 27.744 45.5983 27.7345 45.5334C27.7251 45.3942 27.7345 45.2364 27.7345 45.0879Z" fill="#622599"/>
<path d="M35.0161 39.3994C34.8274 39.7799 34.6671 39.8263 34.2616 39.6685C34.2805 39.6314 34.2993 39.5943 34.3088 39.5479C34.3842 39.3159 34.3842 39.3159 34.6671 39.3344C34.7803 39.3437 34.884 39.3716 35.0161 39.3994Z" fill="#622599"/>
<path d="M28.2161 46.508C28.1501 46.508 28.0841 46.5173 28.0181 46.508C27.9049 46.4987 27.8295 46.4245 27.8106 46.3131C27.7918 46.1739 27.7729 46.0347 27.754 45.9048C27.7823 45.8862 27.8012 45.877 27.8106 45.877C28.1973 45.9512 28.2444 46.0347 28.2161 46.508Z" fill="#622599"/>
<path d="M35.4022 51.7697C35.3456 51.4449 35.572 51.3613 35.8077 51.3057C35.9586 51.5377 35.9492 51.6954 35.7511 51.9275C35.638 51.8718 35.5154 51.8254 35.4022 51.7697Z" fill="#622599"/>
<path d="M36.5051 50.4619C36.5146 50.5176 36.5146 50.5547 36.5146 50.5826C36.5617 50.8517 36.5523 50.861 36.2882 50.9631C36.1751 51.0095 36.0713 51.0466 35.9487 51.1023C35.9487 51.0002 35.9487 50.9259 35.9487 50.8424C35.9582 50.731 36.0053 50.6475 36.1185 50.6104C36.2505 50.5733 36.3731 50.5176 36.5051 50.4619Z" fill="#622599"/>
<path d="M27.8392 44.3086C27.9241 44.3457 27.9995 44.3736 28.075 44.4014C28.1504 44.4292 28.1881 44.4942 28.1881 44.5777C28.1787 44.7169 28.1598 44.8654 28.1504 45.0139C28.0844 45.0046 28.0467 45.0046 28.0089 44.9861C27.792 44.9211 27.7449 44.8654 27.7732 44.6334C27.792 44.5313 27.8203 44.4292 27.8392 44.3086Z" fill="#622599"/>
<path d="M32.7334 39.8073C32.7523 39.6866 32.7523 39.5938 32.7806 39.5196C32.7994 39.4639 32.856 39.3989 32.9126 39.3897C33.0635 39.3525 33.2144 39.3433 33.3653 39.334C33.3747 39.3711 33.3936 39.3804 33.3841 39.3897C33.2804 39.8166 33.3464 39.7052 32.922 39.7794C32.8843 39.7887 32.8277 39.7887 32.7334 39.8073Z" fill="#622599"/>
<path d="M29.6021 49.1623C29.1306 49.3294 29.1306 49.3294 28.876 48.856C28.8854 48.8468 28.8854 48.8282 28.8948 48.8189C29.2061 48.7076 29.1589 48.624 29.4418 48.9767C29.489 49.0324 29.5456 49.0881 29.6021 49.1623Z" fill="#622599"/>
<path d="M38.9856 41.933C38.9479 41.9423 38.9196 41.9423 38.8913 41.9423C38.5801 42.0165 38.5801 42.0165 38.3821 41.7567C38.3349 41.701 38.2878 41.6453 38.2406 41.5896C38.2595 41.571 38.2689 41.5618 38.2783 41.5525C38.6556 41.4411 38.6556 41.4411 38.8913 41.7845C38.9196 41.8402 38.9479 41.8866 38.9856 41.933Z" fill="#622599"/>
<path d="M31.3003 50.8514C31.3286 50.805 31.3569 50.7679 31.3852 50.74C31.5172 50.573 31.5644 50.5637 31.7624 50.6472C31.819 50.6658 31.8756 50.6936 31.9322 50.7122C31.9793 50.7308 32.0265 50.7493 32.0736 50.7586C32.0736 50.7772 32.0736 50.7957 32.0642 50.805C31.9793 50.8885 31.8944 50.9813 31.8001 51.0649C31.6209 51.0277 31.4606 50.9628 31.3003 50.8514Z" fill="#622599"/>
<path d="M29.3097 49.459C29.4606 49.3941 29.5643 49.3477 29.6869 49.292C29.8284 49.4126 29.9604 49.5333 30.1019 49.6446C30.0924 49.6632 30.0924 49.6818 30.083 49.6911C29.7152 49.9231 29.8001 49.9231 29.4983 49.6261C29.4417 49.5704 29.3851 49.524 29.3097 49.459Z" fill="#622599"/>
<path d="M38.0432 49.8582C37.9961 49.7468 37.9489 49.6447 37.8923 49.5241C38.0149 49.3849 38.1375 49.2457 38.2601 49.1064C38.279 49.1157 38.2884 49.1157 38.2884 49.125C38.5148 49.4313 38.5148 49.4313 38.2413 49.7004C38.1847 49.7561 38.1375 49.8025 38.0809 49.8489C38.0715 49.8582 38.0621 49.8582 38.0432 49.8582Z" fill="#622599"/>
<path d="M30.3848 40.3926C30.4225 40.4947 30.4602 40.5782 30.4791 40.6617C30.4979 40.7452 30.4885 40.8195 30.3942 40.8659C30.281 40.9401 30.1867 41.0236 30.0641 41.1257C30.0453 41.0886 30.0358 41.0515 30.017 41.0236C29.9038 40.7545 29.9038 40.7545 30.1301 40.5689C30.215 40.5132 30.281 40.4668 30.3848 40.3926Z" fill="#622599"/>
<path d="M29.5359 41.6267C29.4794 41.5246 29.4133 41.4318 29.3379 41.3112C29.4794 41.172 29.6114 41.0328 29.7528 40.8936C29.9603 41.2462 29.9603 41.2462 29.7151 41.4875C29.6774 41.5246 29.6302 41.571 29.5831 41.6082C29.5737 41.6174 29.5548 41.6267 29.5359 41.6267Z" fill="#622599"/>
<path d="M37.6938 41.0885C37.8164 41.0049 37.9108 40.94 38.0145 40.875C38.2125 40.9678 38.3446 41.107 38.4483 41.2741C38.4294 41.2926 38.42 41.3019 38.4106 41.3112C38.2408 41.4411 38.0899 41.4597 37.9296 41.2833C37.8636 41.2184 37.7882 41.172 37.6938 41.0885Z" fill="#622599"/>
<path d="M35.7509 39.9651C35.7697 39.9279 35.798 39.8908 35.8169 39.8537C35.9489 39.6681 35.9866 39.6495 36.2035 39.733C36.2978 39.7702 36.3921 39.8166 36.4865 39.8537C36.4959 39.863 36.5053 39.8723 36.5147 39.8815C36.5147 39.8908 36.5147 39.9094 36.5053 39.9187C36.2224 40.2156 36.2224 40.2156 35.7509 39.9651Z" fill="#622599"/>
<path d="M31.838 39.6406C31.8286 39.7334 31.8191 39.7891 31.8286 39.8355C31.8569 40.0397 31.8474 40.049 31.6682 40.1418C31.5551 40.1975 31.4419 40.2439 31.3099 40.3088C31.3004 40.1975 31.3004 40.1232 31.291 40.0397C31.2722 39.9469 31.3099 39.8819 31.3948 39.8448C31.5362 39.7798 31.6777 39.7149 31.838 39.6406Z" fill="#622599"/>
<path d="M39.4572 47.9656C39.1365 47.6501 39.1742 47.6593 39.344 47.3531C39.3723 47.2974 39.4006 47.2324 39.4194 47.1768C39.4383 47.1768 39.4572 47.1768 39.4666 47.186C39.8061 47.5109 39.7495 47.3902 39.5515 47.7985C39.5326 47.845 39.4949 47.8914 39.4572 47.9656Z" fill="#622599"/>
<path d="M39.5709 44.2248C39.6369 44.2248 39.703 44.2155 39.7595 44.2248C39.901 44.2434 39.9764 44.2991 40.0047 44.4383C40.033 44.5775 40.0425 44.726 40.0613 44.8652C40.033 44.8744 40.033 44.8744 40.0236 44.8744C39.5521 44.7538 39.6747 44.7816 39.5992 44.3548C39.5898 44.3176 39.5804 44.2805 39.5709 44.2248Z" fill="#622599"/>
<path d="M28.3384 42.7959C28.6308 43.0465 28.6308 43.0465 28.4893 43.4084C28.4799 43.4362 28.4705 43.4641 28.461 43.4919C28.4516 43.5198 28.4327 43.5476 28.4233 43.5662C28.4045 43.5569 28.395 43.5569 28.3856 43.5476C28.3007 43.4548 28.1498 43.3713 28.1498 43.2785C28.1404 43.1114 28.2347 42.9444 28.3384 42.7959Z" fill="#622599"/>
<path d="M37.7414 49.6357C37.7602 49.645 37.7697 49.6543 37.7791 49.6636C37.9394 50.0626 37.9677 49.942 37.5999 50.239C37.5527 50.2761 37.5056 50.3039 37.4301 50.3411C37.4019 50.2575 37.3736 50.1926 37.3547 50.1276C37.317 50.0162 37.3453 49.9327 37.449 49.8585C37.5433 49.7935 37.6376 49.71 37.7414 49.6357Z" fill="#622599"/>
<path d="M39.0891 42.8142C39.4758 42.7677 39.4852 42.7677 39.6267 43.0833C39.6644 43.1575 39.6832 43.2318 39.7115 43.3153C39.6455 43.3246 39.5889 43.3246 39.5324 43.3339C39.372 43.3617 39.3154 43.3339 39.24 43.2039C39.1928 43.0833 39.1457 42.9626 39.0891 42.8142Z" fill="#622599"/>
<path d="M28.7247 47.9187C28.3474 47.9837 28.3474 47.9837 28.1965 47.6681C28.1777 47.6217 28.1494 47.5753 28.14 47.5289C28.1305 47.5011 28.1305 47.4732 28.1211 47.4268C28.1871 47.4268 28.2437 47.4268 28.3003 47.4268C28.4983 47.4083 28.5172 47.4176 28.5926 47.5753C28.6398 47.6867 28.6775 47.7981 28.7247 47.9187Z" fill="#622599"/>
<path d="M31.3843 50.4897C31.3371 50.5268 31.2994 50.5547 31.2711 50.5918C31.1108 50.7867 31.0919 50.7867 30.8844 50.6753C30.7807 50.6196 30.6864 50.5547 30.5921 50.499C30.5921 50.4804 30.5827 50.4711 30.5921 50.4711C30.9127 50.1649 30.8279 50.202 31.1674 50.3783C31.2334 50.4062 31.2994 50.4433 31.3843 50.4897Z" fill="#622599"/>
<path d="M38.7029 42.1924C38.816 42.1553 38.9292 42.1182 39.0424 42.0811C39.2121 42.211 39.2876 42.3966 39.3913 42.5822C39.3253 42.6008 39.2687 42.6286 39.2121 42.6379C39.0518 42.6564 38.9669 42.6657 38.8821 42.4894C38.8538 42.4337 38.8255 42.3873 38.7878 42.3409C38.7595 42.2945 38.7406 42.2481 38.7029 42.1924Z" fill="#622599"/>
<path d="M39.108 48.6428C39.0797 48.6336 39.0702 48.6336 39.0608 48.6243C38.8439 48.3644 38.8439 48.3644 39.0042 48.0767C39.0419 48.0118 39.0797 47.9561 39.1457 47.8262C39.174 47.8911 39.1834 47.9283 39.2117 47.9561C39.4098 48.1324 39.4192 48.1695 39.2871 48.3923C39.2211 48.4758 39.1551 48.5593 39.108 48.6428Z" fill="#622599"/>
<path d="M39.9852 46.4431C39.6835 46.3503 39.542 46.3317 39.7023 45.7285C39.7306 45.7378 39.7589 45.7378 39.7872 45.7471C40.0607 45.8492 40.0984 45.9234 40.0418 46.2111C40.023 46.2853 40.0041 46.3503 39.9852 46.4431Z" fill="#622599"/>
<path d="M36.4583 40.2528C36.7223 39.9558 36.7223 39.9558 37.043 40.1414C37.109 40.1785 37.1656 40.2249 37.241 40.2713C37.2033 40.2992 37.175 40.327 37.1467 40.3456C36.9298 40.5312 36.8921 40.5312 36.6657 40.3827C36.5997 40.3456 36.5337 40.2992 36.4583 40.2528Z" fill="#622599"/>
<path d="M30.7248 50.1279C30.6588 50.1743 30.621 50.2021 30.5833 50.23C30.423 50.3599 30.3947 50.3599 30.2344 50.2485C30.1589 50.1929 30.0835 50.1372 30.008 50.0722C29.9892 50.0536 29.9703 50.0258 29.942 49.998C29.9609 49.9794 29.9703 49.9701 29.9797 49.9608C30.3475 49.7381 30.2249 49.7567 30.5833 50.0165C30.621 50.0536 30.6682 50.0815 30.7248 50.1279Z" fill="#622599"/>
<path d="M37.8909 40.7354C37.5608 40.9581 37.5608 40.9581 37.259 40.7447C37.2025 40.7076 37.1553 40.6704 37.1082 40.6333C37.1176 40.6148 37.1176 40.6055 37.1176 40.6055C37.4099 40.3735 37.4099 40.3735 37.7212 40.6148C37.7777 40.6519 37.8343 40.689 37.8909 40.7354Z" fill="#622599"/>
<path d="M31.083 39.9746C31.1113 40.1324 31.1302 40.2623 31.1396 40.3829C30.9793 40.4758 30.8378 40.5593 30.6775 40.6428C30.6492 40.5871 30.6303 40.5314 30.6115 40.485C30.536 40.318 30.5549 40.2716 30.7058 40.1695C30.7246 40.1602 30.7435 40.1509 30.7624 40.1417C30.8661 40.0953 30.951 40.0489 31.083 39.9746Z" fill="#622599"/>
<path d="M37.128 50.1094C37.3072 50.4806 37.2883 50.462 36.9299 50.6755C36.8828 50.7033 36.8262 50.7219 36.7696 50.7404C36.7508 50.7219 36.7319 50.7219 36.7319 50.7126C36.647 50.3692 36.6093 50.3971 36.9582 50.2022C37.0148 50.1743 37.062 50.1465 37.128 50.1094Z" fill="#622599"/>
<path d="M28.716 42.0996C28.7443 42.1182 28.7537 42.1182 28.7632 42.1275C28.9989 42.4151 28.9989 42.4523 28.782 42.7678C28.7632 42.7956 28.7349 42.8235 28.716 42.8513C28.6971 42.8513 28.6783 42.8513 28.6688 42.842C28.4236 42.6472 28.3671 42.6379 28.5745 42.3316C28.6217 42.2574 28.6688 42.1831 28.716 42.0996Z" fill="#622599"/>
<path d="M29.2059 41.46C29.4323 41.7755 29.4323 41.7755 29.2059 42.0725C29.1776 42.1096 29.1493 42.156 29.1116 42.1931C29.1022 42.2024 29.0927 42.2117 29.0739 42.2117C29.0645 42.2117 29.055 42.2024 29.055 42.2024C28.8098 41.8961 28.8098 41.8961 29.0739 41.5992C29.121 41.562 29.1588 41.5064 29.2059 41.46Z" fill="#622599"/>
<path d="M29.1116 48.5314C29.0645 48.5593 29.0456 48.5685 29.0173 48.5871C28.7627 48.6892 28.7344 48.6799 28.5929 48.4479C28.5364 48.3644 28.4892 48.2716 28.4326 48.1695C28.5081 48.1509 28.5646 48.1324 28.6212 48.1231C28.8004 48.0767 28.8381 48.0952 28.9324 48.2437C28.989 48.3272 29.0456 48.42 29.1116 48.5314Z" fill="#622599"/>
<path d="M28.4423 47.2227C28.0651 47.2598 28.0651 47.2598 27.9425 46.8978C27.9331 46.8514 27.9142 46.8143 27.9048 46.7679C27.9048 46.7493 27.9048 46.7215 27.9142 46.6844C27.9802 46.6844 28.0368 46.6751 28.1028 46.6658C28.2349 46.6565 28.3009 46.7308 28.3292 46.8329C28.3669 46.9628 28.4046 47.0927 28.4423 47.2227Z" fill="#622599"/>
<path d="M39.3914 43.5472C39.4196 43.5287 39.4196 43.5287 39.4291 43.5287C39.7874 43.4823 39.7969 43.4915 39.8817 43.8442C39.9006 43.9092 39.91 43.9834 39.9289 44.0762C39.8252 44.0762 39.7403 44.0855 39.6648 44.0762C39.6177 44.0669 39.5517 44.0298 39.5328 43.9834C39.4668 43.8349 39.4291 43.6864 39.3914 43.5472Z" fill="#622599"/>
<path d="M39.797 47.1946C39.7592 47.1853 39.7498 47.1853 39.7309 47.1853C39.448 47.0275 39.448 47.0275 39.5235 46.7213C39.5423 46.647 39.5612 46.5635 39.5895 46.4521C39.6649 46.4893 39.7404 46.5171 39.8064 46.5542C39.9007 46.6006 39.9384 46.6842 39.9196 46.777C39.8818 46.9162 39.8347 47.0554 39.797 47.1946Z" fill="#622599"/>
<path d="M35.0154 39.7893C35.0437 39.7244 35.072 39.678 35.0908 39.6316C35.1851 39.4645 35.2229 39.4552 35.4115 39.5016C35.5341 39.5295 35.6567 39.5666 35.7698 39.5944C35.7698 39.6223 35.7793 39.6408 35.7698 39.6501C35.5341 39.9285 35.5341 39.9285 35.1568 39.8357C35.1191 39.8172 35.0814 39.8079 35.0154 39.7893Z" fill="#622599"/>
<path d="M32.5819 39.4551C32.5914 39.5293 32.5914 39.5664 32.5914 39.6128C32.5914 39.8077 32.5819 39.8263 32.4027 39.882C32.2801 39.9191 32.1575 39.9469 32.0349 39.9841C32.0349 39.9562 32.0255 39.9377 32.0255 39.9191C32.0349 39.5757 32.0349 39.5757 32.3839 39.4922C32.4405 39.4829 32.497 39.4736 32.5819 39.4551Z" fill="#622599"/>
<path d="M28.2443 44.2812C28.1783 44.2534 28.1217 44.2348 28.0651 44.207C27.9048 44.1235 27.886 44.0956 27.9331 43.91C27.9614 43.7894 27.9897 43.6687 28.0274 43.5481C28.0557 43.5481 28.0746 43.5388 28.084 43.5481C28.3952 43.7522 28.3763 43.7058 28.3103 44.0307C28.282 44.1142 28.2632 44.1884 28.2443 44.2812Z" fill="#622599"/>
<path d="M38.7407 48.5215C39.0047 48.8092 39.0047 48.8092 38.769 49.1062C38.7218 49.1618 38.6746 49.2175 38.6369 49.2732C38.6086 49.2639 38.5898 49.2639 38.5803 49.2546C38.354 48.902 38.3823 48.9762 38.6086 48.67C38.6558 48.6236 38.6935 48.5772 38.7407 48.5215Z" fill="#622599"/>
<path d="M33.4683 51.7236C33.3552 51.8257 33.2703 51.9 33.1854 51.9742C32.9685 51.9278 32.6762 52.0392 32.6007 51.6772C32.8836 51.5752 33.1477 51.6401 33.4683 51.7236Z" fill="#622599"/>
<path d="M33.1106 52.2154C33.1106 52.5217 32.9314 52.6423 32.6673 52.5217C32.5919 52.4845 32.5259 52.4474 32.4504 52.4103C32.4221 52.3917 32.4033 52.3825 32.3844 52.3453C32.639 52.3453 32.8276 52.1133 33.1106 52.2154Z" fill="#622599"/>
<path d="M33.1946 52.6056C33.2606 52.4757 33.3643 52.355 33.2983 52.1602C33.4869 52.2158 33.6567 52.253 33.8359 52.2994C33.7038 52.5314 33.4492 52.6427 33.1946 52.6056Z" fill="#622599"/>
<path d="M32.1298 52.336C32.0638 52.3917 32.0072 52.4381 31.96 52.4845C31.828 52.4196 31.696 52.3546 31.5734 52.2896C31.6299 52.1504 31.7337 52.0391 31.9129 52.002C31.9789 52.0948 32.0449 52.2061 32.1298 52.336Z" fill="#622599"/>
<path d="M34.2892 51.4361C34.4589 51.2969 34.6287 51.1577 34.8645 51.1299C34.921 51.4269 34.8456 51.5289 34.5721 51.5289C34.4778 51.5289 34.3835 51.5104 34.2892 51.5011C34.2986 51.4733 34.2986 51.4547 34.2892 51.4361Z" fill="#622599"/>
<path d="M31.6394 52.8277C31.5168 52.7256 31.4225 52.6514 31.3187 52.5771C31.5168 52.4287 31.6394 52.4472 31.7997 52.6607C31.7525 52.7163 31.696 52.772 31.6394 52.8277Z" fill="#622599"/>
<path d="M36.1283 52.6614C36.034 52.7449 35.9397 52.8191 35.8171 52.9119C35.751 52.847 35.7039 52.8006 35.6567 52.7542C35.7982 52.5221 35.9019 52.5036 36.1283 52.6614Z" fill="#622599"/>
<path d="M36.3172 52.8652C36.3644 52.8931 36.4021 52.9116 36.4775 52.9488C36.3738 53.0694 36.2889 53.1808 36.1758 53.3014C36.1192 53.2272 36.0815 53.1808 36.0343 53.1251C36.1286 53.0323 36.2135 52.958 36.3172 52.8652Z" fill="#622599"/>
<path d="M30.9883 52.8746C31.0449 52.8281 31.0826 52.8003 31.1203 52.7539C31.1863 52.8189 31.2523 52.8653 31.3089 52.9302C31.4127 53.0416 31.4127 53.0416 31.2806 53.1994C31.1863 53.0973 31.092 52.9952 30.9883 52.8746Z" fill="#622599"/>
<path d="M31.2621 52.707C31.3375 52.772 31.413 52.8462 31.4884 52.9112C31.3753 52.8834 31.3187 52.7998 31.2621 52.707Z" fill="#622599"/>
<path d="M36.1939 52.8276C36.1185 52.8926 36.0525 52.9483 35.977 53.0133C35.9676 53.004 35.9582 52.9947 35.9487 52.9854C35.977 52.9576 36.0147 52.9297 36.043 52.9019C36.0808 52.8648 36.1185 52.8369 36.1562 52.7998C36.1751 52.8184 36.1845 52.8276 36.1939 52.8276Z" fill="#622599"/>
<path d="M53.5091 47.5939C53.3865 47.566 53.1602 47.5475 52.7735 47.631C52.8018 47.566 52.8018 47.4918 52.7829 47.4083C52.7735 47.3526 52.7641 47.2969 52.7546 47.2412L53.4431 47.2505C53.4431 47.3433 53.4525 47.4361 53.4808 47.5289C53.4902 47.5475 53.4997 47.5753 53.5091 47.5939Z" fill="#622599"/>
<path d="M56.2063 44.6153C55.6404 44.903 55.3764 45.2 55.3292 45.2556C55.3386 45.2464 55.3386 45.2371 55.3481 45.2278C55.2915 45.2 55.2349 45.1814 55.1877 45.1721C55.3575 44.9958 55.7725 44.6524 56.0082 44.4482C56.0459 44.5039 56.0742 44.5596 56.112 44.6246C56.1308 44.6246 56.1685 44.6246 56.2063 44.6153Z" fill="#622599"/>
<path d="M56.4044 45.2735C56.3949 45.255 56.3949 45.2457 56.3855 45.2271C56.3478 45.1065 56.3384 45.0786 56.4138 45.0322C56.178 45.1622 55.9234 45.3385 55.8291 45.4035C55.9234 45.3478 55.9423 45.357 56.0837 45.4499C56.0932 45.4499 56.1026 45.4591 56.1026 45.4591C56.1969 45.5241 56.2912 45.5983 56.4232 45.5705C56.4893 45.4591 56.4421 45.3663 56.4044 45.2735Z" fill="#622599"/>
<path d="M79.8776 48.6329C79.8021 48.503 79.6795 48.3916 79.5569 48.2988C79.1986 48.0204 78.7742 47.8719 78.3404 47.742C78.2649 47.7234 78.1801 47.7234 78.1329 47.6213C78.2744 47.5564 78.4064 47.4914 78.5479 47.4357C78.9911 47.2594 79.3778 47.0088 79.6795 46.6562C79.8399 46.4706 79.9153 46.2571 79.8776 45.9973C79.8399 45.7189 79.6607 45.5333 79.4532 45.3662C79.1797 45.1528 78.8685 45.0043 78.5384 44.8929C78.4818 44.8743 78.397 44.8743 78.3875 44.7815C78.4347 44.763 78.4724 44.7444 78.5101 44.7259C79.0005 44.531 79.3966 44.2154 79.5947 43.7236C79.6607 43.5658 79.7173 43.3802 79.7078 43.2131C79.6795 42.8419 79.4909 42.5264 79.208 42.2758C78.8874 41.9881 78.5101 41.784 78.114 41.6169C77.3313 41.3014 76.5108 41.1343 75.6621 41.1065C74.851 41.0786 74.04 41.1343 73.2478 41.2921C72.1444 41.5148 71.0882 41.8675 70.0696 42.3408C69.4755 42.6192 68.9002 42.944 68.3155 43.2595C67.5328 43.6864 66.7972 44.1783 66.0616 44.6887C65.2317 45.2641 64.4112 45.8673 63.5907 46.4613C62.6005 47.1852 61.6197 47.909 60.5729 48.5494C59.7619 49.0505 58.9131 49.5146 57.9983 49.8208C57.5928 49.96 57.1778 50.0714 56.7534 50.0992C56.4894 50.1178 56.2253 50.1178 55.9707 50.0992C55.8198 50.0899 55.6689 50.0621 55.5275 50.025C55.4049 49.9971 55.3577 49.96 55.3388 49.8301C55.3671 49.9786 55.4049 50.2199 55.4049 50.4983C55.4049 50.4797 55.4143 50.4704 55.4143 50.4519C55.4614 50.4519 55.4897 50.4426 55.5086 50.4519C55.6501 50.4983 55.7915 50.5447 55.9424 50.5725C56.2913 50.656 56.6403 50.7117 57.0081 50.7396C57.5079 50.7767 57.9983 50.7581 58.4887 50.6653C59.0545 50.554 59.6015 50.3684 60.1296 50.1456C60.8464 49.8394 61.5254 49.4496 62.1855 49.032C63.3267 48.3081 64.4112 47.5007 65.5052 46.7026C66.5897 45.9137 67.6837 45.1249 68.8248 44.4196C69.2775 44.1412 69.7396 43.8721 70.2017 43.6215C70.5789 43.4173 70.9656 43.241 71.3522 43.0554C72.0972 42.6842 72.8894 42.415 73.691 42.2109C74.1343 42.0995 74.587 42.016 75.0302 41.9417C75.3791 41.886 75.7281 41.8582 76.077 41.8489C76.5014 41.8396 76.9163 41.8675 77.3407 41.886C77.7651 41.9046 78.1706 42.0252 78.5384 42.2387C78.8402 42.415 79.0571 42.6656 79.1703 42.9904C79.2929 43.3523 79.1891 43.6864 78.9911 44.002C78.7648 44.3639 78.4158 44.5588 78.048 44.7259C78.0103 44.7444 77.9443 44.7351 77.8971 44.7259C77.6331 44.6795 77.369 44.6145 77.105 44.5774C76.7372 44.531 76.3599 44.4938 75.9827 44.466C75.6149 44.4382 75.2471 44.3918 74.8793 44.3918C74.4455 44.3918 74.0117 44.4382 73.5779 44.466C72.9932 44.4938 72.4179 44.6052 71.852 44.7444C70.8995 44.9764 69.9753 45.2827 69.0888 45.691C68.6645 45.8859 68.2495 46.1272 67.8345 46.3499C67.1178 46.7397 66.4482 47.2037 65.7881 47.677C65.1939 48.1039 64.6092 48.5401 64.0151 48.967C63.5719 49.2825 63.1192 49.5888 62.6759 49.9136C62.4213 50.0992 62.1478 50.2477 61.846 50.3591C61.7423 50.3962 61.6291 50.4148 61.4782 50.4519C61.516 50.3776 61.5254 50.3498 61.5348 50.3312C61.78 50.0528 62.0252 49.7744 62.261 49.4867C62.3836 49.3382 62.5345 49.2083 62.5911 48.9577C62.5062 49.0134 62.459 49.0413 62.4119 49.0784C62.0818 49.3197 61.7612 49.5795 61.4217 49.8022C61.0161 50.0621 60.6012 50.2941 60.1768 50.5261C59.3658 50.9716 58.5076 51.3521 57.6588 51.7233C57.4702 51.8068 57.2816 51.8996 57.0741 52.0017C57.6682 52.2708 58.2624 52.3451 58.8565 52.3822C58.9791 52.3915 59.1111 52.3636 59.2337 52.3451C59.677 52.2894 60.1202 52.2616 60.5446 52.1688C61.5631 51.946 62.5156 51.547 63.421 51.0365C64.1849 50.6004 64.9205 50.0992 65.6372 49.5888C66.3162 49.1062 66.9952 48.6144 67.6837 48.1411C68.6173 47.51 69.5792 46.916 70.5695 46.3685C71.1353 46.0622 71.7106 45.8117 72.333 45.6539C73.1063 45.4497 73.8891 45.2734 74.6813 45.162C75.1528 45.0971 75.6338 45.0414 76.1147 45.0228C76.5674 45.0135 77.0295 45.0507 77.4822 45.0878C77.8406 45.1249 78.1895 45.2456 78.4913 45.4497C78.6987 45.5889 78.8025 45.8117 78.7742 46.0437C78.7553 46.22 78.6799 46.4056 78.5856 46.5541C78.3592 46.9068 78.0386 47.1573 77.6614 47.3429C77.435 47.4543 77.1898 47.4636 76.9352 47.4079C76.4637 47.2965 75.9921 47.1944 75.5112 47.1109C75.3508 47.0831 75.1811 46.9996 74.9925 47.0831C75.0019 47.1388 75.0019 47.1852 75.0113 47.2408C75.0585 47.5842 75.266 47.8719 75.4357 48.1596C75.5017 48.2803 75.5866 48.3452 75.7281 48.3731C76.2939 48.4844 76.8598 48.6051 77.4162 48.7257C77.6708 48.7814 77.9349 48.8371 78.1706 48.9299C78.4441 49.032 78.5573 49.2733 78.4818 49.5424C78.4441 49.663 78.3687 49.7837 78.2838 49.8858C78.0386 50.192 77.6802 50.3127 77.3219 50.4333C77.0389 50.5261 76.7466 50.5632 76.4542 50.5076C76.1619 50.4519 75.8695 50.3776 75.5772 50.3312C75.1905 50.2755 74.8227 50.3684 74.4266 50.3591C74.4455 50.4519 74.4361 50.5354 74.4738 50.5911C74.653 50.9345 74.8322 51.2686 75.0302 51.6026C75.1245 51.7604 75.266 51.8439 75.464 51.8254C75.6243 51.8068 75.7752 51.7883 75.9355 51.7883C76.1336 51.7883 76.3222 51.8068 76.5203 51.8254C76.756 51.8439 76.9824 51.8718 77.2087 51.9089C77.3879 51.946 77.5671 52.0203 77.7085 52.1502C78.048 52.4379 78.0009 52.9298 77.6142 53.1339C77.4728 53.2082 77.3124 53.2731 77.1615 53.3195C76.7749 53.4402 76.3694 53.4309 75.9733 53.3938C75.5772 53.3567 75.1999 53.2453 74.9547 52.8741C74.7284 52.5307 74.3795 52.3544 73.9174 52.2244C73.974 52.4379 74.0022 52.6049 74.0683 52.772C74.1909 53.0782 74.3229 53.3845 74.4549 53.6907C74.4832 53.7464 74.5398 53.7928 74.587 53.83C74.7661 53.9413 74.9453 54.0434 75.1245 54.1548C75.2943 54.2661 75.3791 54.4239 75.3791 54.6188C75.3886 55.0457 75.1811 55.3334 74.8227 55.5376C74.2097 55.8995 73.5401 56.0294 72.8423 56.0573C72.1915 56.0851 71.5408 56.0573 70.8901 55.9273C70.494 55.8438 70.0979 55.751 69.7113 55.6304C69.2963 55.5004 68.9002 55.3148 68.4853 55.1756C67.7968 54.9529 67.1084 54.7394 66.4199 54.5631C65.6278 54.3589 64.8356 54.1733 64.0434 54.0063C63.5719 53.9042 63.0909 53.83 62.6099 53.7557C62.327 53.7093 62.0441 53.6722 61.7612 53.6722C61.1199 53.6629 60.4692 53.6258 59.8279 53.7557C59.3752 53.8392 58.9225 53.9042 58.4887 54.0248C57.2627 54.3589 56.1499 54.9529 55.1408 55.7139C55.0465 55.7881 54.971 55.8716 54.9427 55.9923C55.0748 56.048 55.1785 56.0016 55.2634 55.918C55.3388 55.8438 55.4143 55.7696 55.4992 55.7046C55.9518 55.3891 56.4422 55.1478 56.9609 54.9622C57.8568 54.6374 58.7999 54.4517 59.743 54.4053C60.1768 54.3868 60.6012 54.3404 61.0444 54.3775C61.5065 54.4146 61.9781 54.4053 62.4402 54.4703C62.9494 54.5353 63.4681 54.5817 63.9774 54.6838C64.6658 54.8137 65.3543 54.9807 66.0333 55.1478C66.7312 55.3241 67.4196 55.5376 68.0892 55.7974C68.5136 55.9645 68.9379 56.1408 69.3529 56.3171C70.0791 56.6141 70.7486 57.0131 71.3522 57.505C71.456 57.5885 71.5691 57.6813 71.6163 57.8577C71.522 57.8205 71.4465 57.7834 71.3805 57.7556C70.8335 57.4864 70.2677 57.3194 69.6735 57.1987C69.2586 57.1152 68.8531 57.041 68.4287 57.0224C68.0232 57.0039 67.6176 56.976 67.2121 56.9667C66.9764 56.9575 66.7312 56.9853 66.4954 56.9946C66.4388 56.9946 66.3917 56.9946 66.3351 56.9946C65.9295 57.0503 65.5146 57.0967 65.1185 57.1616C64.6941 57.2359 64.2792 57.3101 63.8642 57.4215C63.0343 57.6442 62.2138 57.9133 61.4311 58.2753C61.101 58.4238 60.7709 58.6001 60.4409 58.7486C60.224 58.8507 60.0071 58.962 59.7807 59.0456C59.6204 59.1012 59.5261 58.9992 59.5732 58.8507C59.5921 58.7764 59.6298 58.6929 59.6675 58.6279C59.7713 58.4423 59.8845 58.266 60.0165 58.034C59.9127 58.099 59.8467 58.1268 59.7901 58.1732C59.4223 58.4516 59.0545 58.73 58.6962 59.0177C58.1492 59.4632 57.6116 59.8994 56.9609 60.2056C56.8855 60.2427 56.8195 60.2799 56.7346 60.3355C57.2156 60.4191 57.6494 60.5026 58.0926 60.5768C58.6585 60.6789 59.2054 60.6325 59.7241 60.3912C59.9976 60.2706 60.2617 60.1221 60.5257 59.9922C61.1953 59.6581 61.8838 59.3611 62.5911 59.1105C63.2135 58.8785 63.8454 58.6651 64.4866 58.4702C65.0808 58.2938 65.6843 58.1361 66.2879 57.9969C66.6746 57.9041 67.0707 57.8484 67.4573 57.802C67.8345 57.7463 68.2118 57.6999 68.589 57.6906C69.0983 57.6721 69.6075 57.6906 70.1168 57.7649C70.7298 57.8484 71.2956 58.0433 71.8238 58.3495C71.8426 58.3588 71.8426 58.3866 71.8803 58.4238C71.786 58.498 71.7011 58.5723 71.5974 58.6279C71.3522 58.7579 71.0787 58.8135 70.8147 58.795C70.3337 58.7671 69.8622 58.7022 69.3812 58.6558C69.2303 58.6372 69.0794 58.6094 68.8719 58.5815C69.0888 58.7764 69.2869 58.8785 69.5038 58.962C70.013 59.1476 70.5317 59.2776 71.0693 59.3332C71.4842 59.3797 71.8992 59.3796 72.3047 59.3147C72.465 59.2961 72.6159 59.2219 72.7668 59.1569C72.9083 59.092 72.9743 58.9713 72.9649 58.8135C72.9554 58.5815 72.88 58.3681 72.7197 58.2103C72.3896 57.8577 72.0312 57.5236 71.6917 57.1895C71.5974 57.0967 71.5125 57.0039 71.4182 56.9111C71.5314 56.8832 71.6351 56.8832 71.72 56.9018C72.1821 57.0131 72.6537 57.0039 73.1252 57.0503C73.2667 57.0595 73.4081 57.0317 73.5496 57.0131C73.8231 56.9853 74.106 56.976 74.37 56.9203C74.7756 56.8275 75.1811 56.7162 75.53 56.4563C75.8978 56.1779 76.1336 55.8345 76.0864 55.3612C76.0581 55.1385 75.9921 54.9158 75.9261 54.693C75.8507 54.4332 75.7469 54.1733 75.6621 53.9135C75.6432 53.8578 75.6621 53.7928 75.6621 53.7186C75.9167 53.7371 76.1525 53.7836 76.3788 53.7743C76.7655 53.7557 77.1615 53.7279 77.5388 53.6629C77.8594 53.6072 78.1612 53.4773 78.4158 53.2731C78.8213 52.9483 78.9345 52.3544 78.6139 51.8254C78.4253 51.5098 78.1423 51.2686 77.8688 51.0273C77.7934 50.9623 77.718 50.8881 77.6142 50.7953C77.8311 50.7117 78.0103 50.6375 78.1801 50.5725C78.6705 50.3776 79.142 50.1735 79.5758 49.8579C80.0096 49.5981 80.1134 49.0227 79.8776 48.6329Z" fill="#622599"/>
</g>
</g>
<defs>
<filter id="filter0_d" x="-5" y="-4" width="104" height="104" filterUnits="userSpaceOnUse" color-interpolation-filters="sRGB">
<feFlood flood-opacity="0" result="BackgroundImageFix"/>
<feColorMatrix in="SourceAlpha" type="matrix" values="0 0 0 0 0 0 0 0 0 0 0 0 0 0 0 0 0 0 127 0"/>
<feOffset dy="4"/>
<feGaussianBlur stdDeviation="4"/>
<feColorMatrix type="matrix" values="0 0 0 0 0 0 0 0 0 0 0 0 0 0 0 0 0 0 0.05 0"/>
<feBlend mode="normal" in2="BackgroundImageFix" result="effect1_dropShadow"/>
<feBlend mode="normal" in="SourceGraphic" in2="effect1_dropShadow" result="shape"/>
</filter>
<clipPath id="clip0">
<rect width="61.875" height="42.625" fill="white" transform="translate(18.125 20.625)"/>
</clipPath>
</defs>
</svg>
