<svg width="88" height="88" viewBox="0 0 88 88" fill="none" xmlns="http://www.w3.org/2000/svg">
<g clip-path="url(#clip0)">
<g opacity="0.6">
<path d="M44 87.9586C52.7042 87.9586 61.2127 85.377 68.4494 80.5404C75.686 75.7038 81.3256 68.8295 84.6546 60.7871C87.9837 52.7448 88.8526 43.8957 87.1515 35.3594C85.4504 26.8231 81.2557 18.9832 75.098 12.8313C68.9404 6.67944 61.0965 2.49212 52.5586 0.799045C44.0207 -0.894027 35.1725 -0.016773 27.1332 3.31983C19.094 6.65643 12.225 12.3025 7.39523 19.5437C2.56542 26.7849 -0.0081688 35.2959 1.94785e-05 44C0.0273854 55.6573 4.67319 66.8287 12.92 75.0678C21.1669 83.3069 32.3427 87.9422 44 87.9586ZM44 3.10445C52.0796 3.11059 59.976 5.51169 66.6914 10.0043C73.4068 14.4969 78.6397 20.8794 81.7288 28.3451C84.8179 35.8109 85.6245 44.0248 84.0468 51.9489C82.469 59.8729 78.5777 67.1514 72.8645 72.8646C67.1514 78.5777 59.8729 82.469 51.9488 84.0468C44.0248 85.6245 35.8109 84.8179 28.3451 81.7288C20.8794 78.6397 14.4969 73.4068 10.0043 66.6914C5.51168 59.9761 3.11058 52.0796 3.10444 44C3.10718 33.1547 7.41669 22.7543 15.0855 15.0855C22.7543 7.4167 33.1547 3.10719 44 3.10445Z" fill="#7FBC42"/>
<path d="M64.6447 57.1731H62.8235L53.0445 43.1101C52.8971 42.8978 52.6992 42.7254 52.4688 42.6083C52.2383 42.4913 51.9824 42.4332 51.724 42.4394C51.4655 42.4455 51.2127 42.5157 50.988 42.6436C50.7634 42.7715 50.574 42.9531 50.4368 43.1722L48.7604 45.842L40.72 34.2728C40.5713 34.0606 40.3725 33.8883 40.1412 33.7714C39.91 33.6545 39.6534 33.5965 39.3943 33.6027C39.1352 33.6088 38.8817 33.6789 38.6562 33.8066C38.4308 33.9344 38.2403 34.1159 38.1019 34.3349L23.8009 57.1731H22.0624C21.8435 57.1478 21.6217 57.1691 21.4117 57.2355C21.2016 57.302 21.0079 57.4121 20.8434 57.5587C20.6789 57.7053 20.5472 57.885 20.4571 58.0861C20.3669 58.2871 20.3203 58.505 20.3203 58.7253C20.3203 58.9457 20.3669 59.1635 20.4571 59.3646C20.5472 59.5657 20.6789 59.7454 20.8434 59.892C21.0079 60.0386 21.2016 60.1487 21.4117 60.2152C21.6217 60.2816 21.8435 60.3029 22.0624 60.2776H64.6447C65.0255 60.2335 65.3768 60.051 65.6318 59.7648C65.8868 59.4786 66.0278 59.1087 66.0278 58.7253C66.0278 58.342 65.8868 57.9721 65.6318 57.6859C65.3768 57.3997 65.0255 57.2172 64.6447 57.1731ZM41.6823 57.1731H27.5158L33.4142 47.746L35.1113 45.0141L39.4989 38.0085L42.9138 42.9238L44.735 45.5315L46.9599 48.7291L41.6823 57.1731ZM45.3766 57.1731L50.1574 49.5363L51.8338 46.8561L59.005 57.2042L45.3766 57.1731Z" fill="#7FBC42"/>
<path d="M54.9164 40.6679C56.654 40.6679 58.3526 40.1526 59.7973 39.1873C61.2421 38.2219 62.3682 36.8498 63.0331 35.2445C63.6981 33.6391 63.8721 31.8726 63.5331 30.1684C63.1941 28.4642 62.3573 26.8988 61.1287 25.6701C59.9 24.4414 58.3346 23.6047 56.6303 23.2657C54.9261 22.9267 53.1596 23.1007 51.5543 23.7656C49.949 24.4306 48.5768 25.5566 47.6115 27.0014C46.6461 28.4462 46.1309 30.1448 46.1309 31.8824C46.1336 34.2116 47.0601 36.4446 48.7071 38.0917C50.3541 39.7387 52.5871 40.6652 54.9164 40.6679ZM54.9164 26.2323C56.0363 26.2323 57.1311 26.5646 58.0622 27.187C58.9933 27.8094 59.7188 28.6941 60.1469 29.729C60.575 30.7639 60.6865 31.9025 60.4672 33.0008C60.248 34.0991 59.7079 35.1077 58.9152 35.8989C58.1225 36.6901 57.113 37.2284 56.0143 37.4456C54.9156 37.6629 53.7772 37.5493 52.7431 37.1193C51.7089 36.6893 50.8256 35.9622 50.2049 35.0299C49.5842 34.0977 49.2539 33.0023 49.256 31.8824C49.2587 30.3829 49.8563 28.9459 50.9175 27.8866C51.9788 26.8273 53.4169 26.2323 54.9164 26.2323Z" fill="#7FBC42"/>
<path d="M26.3773 32.969H36.3115C36.6923 32.9249 37.0436 32.7424 37.2986 32.4562C37.5536 32.17 37.6945 31.8001 37.6945 31.4167C37.6945 31.0334 37.5536 30.6635 37.2986 30.3773C37.0436 30.0911 36.6923 29.9086 36.3115 29.8645H26.3773C26.0368 29.8653 25.7029 29.7699 25.4141 29.5895C25.1253 29.409 24.8931 29.1508 24.7444 28.8445C24.5957 28.5381 24.5364 28.196 24.5733 27.8574C24.6102 27.5189 24.7418 27.1976 24.953 26.9304C25.1643 26.6633 25.4465 26.4611 25.7675 26.3471C26.0884 26.2332 26.4349 26.212 26.7673 26.2861C27.0998 26.3601 27.4045 26.5264 27.6467 26.7658C27.8889 27.0053 28.0587 27.3082 28.1365 27.6397C28.1848 27.8401 28.272 28.0291 28.3933 28.1958C28.5146 28.3626 28.6675 28.5038 28.8433 28.6114C29.0192 28.719 29.2145 28.7909 29.4181 28.8231C29.6218 28.8552 29.8298 28.8469 30.0302 28.7987C30.2306 28.7504 30.4196 28.6632 30.5863 28.5419C30.7531 28.4206 30.8943 28.2677 31.0019 28.0919C31.1095 27.916 31.1814 27.7207 31.2136 27.5171C31.2457 27.3134 31.2374 27.1054 31.1892 26.905C30.979 26.001 30.5183 25.1745 29.8598 24.5204C29.2013 23.8664 28.3717 23.4113 27.4663 23.2073C26.5608 23.0033 25.6162 23.0587 24.7409 23.3671C23.8655 23.6756 23.0948 24.2246 22.5173 24.9512C21.9398 25.6777 21.5788 26.5524 21.4758 27.4748C21.3728 28.3972 21.5319 29.3299 21.935 30.166C22.338 31.002 22.9686 31.7075 23.7543 32.2015C24.5401 32.6954 25.4492 32.9579 26.3773 32.9586" fill="#7FBC42"/>
<path d="M21.431 44.0413H28.8506C29.2188 43.981 29.5535 43.7918 29.795 43.5075C30.0366 43.2231 30.1692 42.8622 30.1692 42.4891C30.1692 42.1161 30.0366 41.7551 29.795 41.4708C29.5535 41.1865 29.2188 40.9972 28.8506 40.9369H21.431C21.0968 40.9368 20.7692 40.8437 20.4848 40.668C20.2005 40.4923 19.9707 40.2409 19.8212 39.942C19.6716 39.6431 19.6082 39.3084 19.6381 38.9755C19.668 38.6426 19.7899 38.3246 19.9902 38.057C20.1906 37.7895 20.4615 37.583 20.7725 37.4607C21.0836 37.3384 21.4225 37.305 21.7514 37.3644C22.0804 37.4238 22.3863 37.5736 22.6349 37.797C22.8835 38.0204 23.065 38.3086 23.1592 38.6293C23.2744 39.0286 23.5436 39.3658 23.9075 39.5666C24.2713 39.7675 24.7001 39.8156 25.0994 39.7003C25.4987 39.5851 25.8359 39.3159 26.0368 38.952C26.2376 38.5881 26.2857 38.1594 26.1704 37.7601C25.9148 36.8794 25.4188 36.0875 24.7383 35.4729C24.0577 34.8584 23.2194 34.4455 22.3174 34.2807C21.4154 34.1159 20.4852 34.2056 19.6313 34.5398C18.7774 34.8739 18.0335 35.4394 17.4829 36.1727C16.9323 36.906 16.5969 37.7781 16.5142 38.6913C16.4316 39.6046 16.6049 40.5228 17.0149 41.343C17.4248 42.1633 18.0551 42.8531 18.8351 43.3352C19.6152 43.8173 20.5141 44.0725 21.431 44.0724" fill="#7FBC42"/>
</g>
</g>
<defs>
<clipPath id="clip0">
<path d="M0 0H88V88H0V0Z" fill="white"/>
</clipPath>
</defs>
</svg>
