<svg width="88" height="88" viewBox="0 0 88 88" fill="none" xmlns="http://www.w3.org/2000/svg">
<g clip-path="url(#clip0)">
<g opacity="0.6">
<path d="M44.0414 3.15431C52.1195 3.15431 60.0163 5.54835 66.733 10.0337C73.4497 14.519 78.6848 20.8942 81.7762 28.3531C84.8675 35.8119 85.6764 44.0194 84.1004 51.9377C82.5245 59.856 78.6344 67.1294 72.9223 72.8381C67.2102 78.5469 59.9325 82.4346 52.0096 84.0096C44.0867 85.5847 35.8744 84.7763 28.4111 81.6868C20.9479 78.5972 14.5689 73.3652 10.081 66.6524C5.59299 59.9396 3.19754 52.0475 3.19754 43.9741C3.21123 33.1522 7.51881 22.7775 15.1755 15.1253C22.8323 7.47303 33.2131 3.16799 44.0414 3.15431ZM44.0414 0.0517099C35.335 0.0435304 26.822 2.61692 19.5796 7.44617C12.3373 12.2754 6.69133 19.1434 3.35625 27.181C0.0211676 35.2185 -0.853062 44.0642 0.844208 52.5984C2.54148 61.1327 6.73395 68.9719 12.891 75.1239C19.048 81.2759 26.8928 85.464 35.4325 87.1583C43.9722 88.8526 52.8229 87.9768 60.8644 84.6418C68.9058 81.3067 75.7766 75.6624 80.6069 68.4232C85.4373 61.184 88.0102 52.6754 88 43.9741C88 32.3186 83.37 21.1399 75.1273 12.8943C66.8847 4.64878 55.7037 0.0109647 44.0414 0V0.0517099Z" fill="#7FBC42"/>
<path d="M32.3696 59.3319H28.7995L27.0197 35.4523C28.1386 34.9417 29.3497 34.6637 30.5794 34.6353C31.8111 34.6655 33.0246 34.9397 34.1495 35.4419L32.3696 59.3319ZM36.5916 33.1564C34.7589 32.105 32.692 31.529 30.5794 31.481C28.4674 31.5334 26.4016 32.1091 24.5672 33.1564C24.3223 33.3102 24.1249 33.5289 23.997 33.7882C23.8691 34.0474 23.8157 34.3371 23.8428 34.6249L25.7882 61.0177C25.8144 61.4119 25.9891 61.7815 26.2772 62.0521C26.5652 62.3227 26.9451 62.4742 27.3405 62.4759H33.8287C34.224 62.4742 34.604 62.3227 34.892 62.0521C35.18 61.7815 35.3547 61.4119 35.3809 61.0177L37.347 34.6146C37.3674 34.3242 37.3078 34.0337 37.1746 33.7748C37.0415 33.5159 36.8398 33.2984 36.5916 33.146" fill="#7FBC42"/>
<path d="M30.5789 23.6521C30.9133 23.648 31.2414 23.7433 31.5215 23.926C31.8016 24.1088 32.021 24.3706 32.1519 24.6782C32.2827 24.9859 32.3191 25.3255 32.2564 25.6538C32.1936 25.9822 32.0346 26.2845 31.7996 26.5223C31.5645 26.7601 31.2641 26.9227 30.9363 26.9895C30.6086 27.0562 30.2684 27.0241 29.9589 26.8971C29.6495 26.7701 29.3849 26.5541 29.1986 26.2765C29.0123 25.9988 28.9128 25.6721 28.9128 25.3378C28.9115 25.1178 28.9535 24.8997 29.0365 24.6959C29.1194 24.4921 29.2418 24.3066 29.3965 24.1501C29.5512 23.9935 29.7352 23.869 29.9381 23.7835C30.141 23.6981 30.3587 23.6534 30.5789 23.6521ZM30.5789 30.1779C31.5384 30.186 32.4788 29.9092 33.2806 29.3823C34.0824 28.8555 34.7096 28.1025 35.0825 27.2189C35.4554 26.3352 35.5572 25.3608 35.3751 24.4192C35.1929 23.4776 34.735 22.6113 34.0594 21.9303C33.3837 21.2492 32.5209 20.7841 31.5804 20.594C30.6398 20.4039 29.664 20.4973 28.7766 20.8624C27.8893 21.2274 27.1305 21.8477 26.5965 22.6446C26.0625 23.4414 25.7774 24.3788 25.7774 25.3378C25.7746 26.6152 26.2783 27.8416 27.1781 28.7487C28.078 29.6558 29.3008 30.1697 30.5789 30.1779Z" fill="#7FBC42"/>
<path d="M72.4777 30.571L68.0281 26.0722C67.7251 25.7886 67.3256 25.6309 66.9105 25.6309C66.4954 25.6309 66.0959 25.7886 65.7929 26.0722L61.2915 30.571C61.1302 30.7142 60.9999 30.8889 60.9086 31.0843C60.8174 31.2796 60.767 31.4916 60.7606 31.7072C60.7543 31.9227 60.7921 32.1373 60.8717 32.3377C60.9513 32.5381 61.0711 32.7201 61.2237 32.8726C61.3763 33.0251 61.5584 33.1448 61.7589 33.2243C61.9594 33.3039 62.1741 33.3417 62.3898 33.3354C62.6055 33.329 62.8176 33.2787 63.0131 33.1874C63.2086 33.0962 63.3833 32.966 63.5267 32.8048L65.3272 31.026V39.403H54.0685C53.8611 39.4017 53.6554 39.4413 53.4634 39.5197C53.2714 39.5981 53.0968 39.7137 52.9496 39.8598C52.8025 40.0059 52.6857 40.1796 52.606 40.371C52.5263 40.5624 52.4853 40.7677 52.4853 40.975V52.2064H41.2266C41.0191 52.205 40.8135 52.2447 40.6215 52.3231C40.4294 52.4015 40.2548 52.517 40.1077 52.6632C39.9605 52.8093 39.8437 52.983 39.764 53.1744C39.6843 53.3658 39.6433 53.5711 39.6433 53.7784V65.0408H21.1824C20.9526 64.9947 20.7154 65.0001 20.488 65.0566C20.2605 65.1132 20.0485 65.2195 19.8672 65.368C19.6859 65.5164 19.5398 65.7032 19.4395 65.9149C19.3391 66.1266 19.2871 66.3579 19.2871 66.5921C19.2871 66.8264 19.3391 67.0577 19.4395 67.2694C19.5398 67.4811 19.6859 67.6679 19.8672 67.8163C20.0485 67.9647 20.2605 68.071 20.488 68.1276C20.7154 68.1842 20.9526 68.1896 21.1824 68.1434H41.2266C41.434 68.1434 41.6394 68.1024 41.8309 68.0228C42.0224 67.9431 42.1963 67.8264 42.3425 67.6793C42.4886 67.5323 42.6043 67.3577 42.6827 67.1658C42.7612 66.9739 42.8008 66.7684 42.7995 66.5611V55.3607H54.0685C54.4866 55.358 54.8867 55.1901 55.1814 54.8936C55.4761 54.5972 55.6414 54.1963 55.6414 53.7784V42.516H66.9105C67.3276 42.516 67.7277 42.3503 68.0227 42.0555C68.3177 41.7607 68.4834 41.3609 68.4834 40.944V31.026L70.2943 32.8359C70.4411 32.982 70.6155 33.0974 70.8074 33.1756C70.9992 33.2537 71.2047 33.2929 71.4119 33.2909C71.6129 33.2843 71.8106 33.238 71.9935 33.1545C72.1765 33.0711 72.341 32.9522 72.4777 32.8048C72.6254 32.6587 72.7426 32.4847 72.8227 32.293C72.9027 32.1013 72.9438 31.8956 72.9438 31.6879C72.9438 31.4802 72.9027 31.2745 72.8227 31.0828C72.7426 30.8911 72.6254 30.7171 72.4777 30.571Z" fill="#7FBC42"/>
</g>
</g>
<defs>
<clipPath id="clip0">
<path d="M0 0H88V88H0V0Z" fill="white"/>
</clipPath>
</defs>
</svg>
