<svg width="88" height="88" viewBox="0 0 88 88" fill="none" xmlns="http://www.w3.org/2000/svg">
<g clip-path="url(#clip0)">
<path d="M37.6257 52.4339V47.2629H55.7037V62.9827L37.6257 52.4339ZM31.3237 50.5103C31.0563 50.5773 30.7963 50.6708 30.5476 50.7895V42.6193C30.5279 42.3486 30.5643 42.0767 30.6545 41.8207C30.7447 41.5647 30.8867 41.3299 31.0717 41.1312C31.2566 40.9324 31.4806 40.7739 31.7296 40.6655C31.9786 40.5571 32.2473 40.5012 32.5189 40.5012C32.7905 40.5012 33.0592 40.5571 33.3082 40.6655C33.5572 40.7739 33.7811 40.9324 33.9661 41.1312C34.1511 41.3299 34.2931 41.5647 34.3833 41.8207C34.4734 42.0767 34.5098 42.3486 34.4902 42.6193V50.6757C33.4814 50.2766 32.3705 50.2149 31.3237 50.4999V50.5103ZM37.6257 23.9624C37.6257 23.4412 37.8328 22.9414 38.2015 22.5729C38.5702 22.2044 39.0703 21.9974 39.5918 21.9974C40.1132 21.9974 40.6133 22.2044 40.9821 22.5729C41.3508 22.9414 41.5579 23.4412 41.5579 23.9624V44.0776H37.6257V23.9727V23.9624ZM44.6934 19.3292C44.6737 19.0584 44.7101 18.7866 44.8003 18.5305C44.8905 18.2745 45.0325 18.0398 45.2175 17.841C45.4024 17.6423 45.6264 17.4837 45.8754 17.3754C46.1244 17.267 46.3931 17.211 46.6647 17.211C46.9363 17.211 47.205 17.267 47.454 17.3754C47.703 17.4837 47.927 17.6423 48.1119 17.841C48.2969 18.0398 48.4389 18.2745 48.5291 18.5305C48.6192 18.7866 48.6556 19.0584 48.636 19.3292V44.0776H44.6934V19.3395V19.3292ZM53.7376 21.9767C53.9972 21.9781 54.2539 22.0305 54.4932 22.131C54.7325 22.2316 54.9496 22.3782 55.1322 22.5626C55.3147 22.747 55.4592 22.9655 55.5573 23.2057C55.6553 23.4458 55.7051 23.703 55.7037 23.9624V44.0776H51.7818V23.9727C51.7818 23.4479 51.9897 22.9444 52.3601 22.5723C52.7304 22.2002 53.2332 21.9898 53.7583 21.9871L53.7376 21.9767ZM53.7583 18.8328C53.079 18.8327 52.4067 18.9699 51.7818 19.2361C51.7227 17.9249 51.1599 16.6871 50.2106 15.7801C49.2613 14.8732 47.9987 14.3671 46.6854 14.3671C45.3721 14.3671 44.1095 14.8732 43.1602 15.7801C42.2109 16.6871 41.6481 17.9249 41.589 19.2361C40.9638 18.9707 40.2917 18.8335 39.6125 18.8328C38.2528 18.8518 36.9553 19.405 36.0006 20.3727C35.0459 21.3404 34.5108 22.6448 34.5109 24.0038V37.8724C33.8853 37.6094 33.213 37.4758 32.5344 37.4794C31.1748 37.4984 29.8773 38.0516 28.9225 39.0193C27.9678 39.987 27.4327 41.2914 27.4328 42.6504V67.7917C27.3959 68.0167 27.4084 68.2469 27.4695 68.4666C27.5305 68.6862 27.6386 68.8899 27.7863 69.0636C27.9339 69.2374 28.1176 69.3769 28.3246 69.4726C28.5316 69.5683 28.7569 69.6179 28.985 69.6179C29.2131 69.6179 29.4384 69.5683 29.6454 69.4726C29.8524 69.3769 30.0361 69.2374 30.1838 69.0636C30.3314 68.8899 30.4395 68.6862 30.5006 68.4666C30.5616 68.2469 30.5741 68.0167 30.5372 67.7917V60.1904L40.1402 65.7854C40.3177 65.8906 40.5144 65.9594 40.7189 65.9878C40.9233 66.0161 41.1313 66.0034 41.3308 65.9505C41.5302 65.8975 41.7171 65.8053 41.8805 65.6793C42.0439 65.5533 42.1805 65.396 42.2823 65.2166C42.4808 64.8567 42.5323 64.434 42.4263 64.037C42.3202 63.64 42.0647 63.2993 41.7131 63.0861L31.6548 57.1912C31.2015 56.9257 30.8719 56.4915 30.738 55.9837C30.6042 55.4759 30.6771 54.9358 30.9408 54.4816C31.0664 54.254 31.2367 54.054 31.4414 53.8937C31.646 53.7333 31.881 53.6158 32.1321 53.5483C32.3833 53.4807 32.6455 53.4644 32.9031 53.5004C33.1606 53.5364 33.4083 53.6239 33.6313 53.7577L54.5034 65.9302H54.5965L54.8448 66.075C55.1105 66.2591 55.3274 66.505 55.477 66.7914C55.6266 67.0778 55.7044 67.3963 55.7037 67.7193C55.6669 67.9443 55.6794 68.1745 55.7404 68.3942C55.8014 68.6138 55.9095 68.8175 56.0572 68.9912C56.2048 69.165 56.3885 69.3045 56.5955 69.4002C56.8025 69.4959 57.0279 69.5455 57.2559 69.5455C57.484 69.5455 57.7094 69.4959 57.9164 69.4002C58.1234 69.3045 58.307 69.165 58.4547 68.9912C58.6024 68.8175 58.7105 68.6138 58.7715 68.3942C58.8325 68.1745 58.845 67.9443 58.8082 67.7193V23.9727C58.8083 22.6137 58.2731 21.3093 57.3184 20.3416C56.3637 19.3739 55.0662 18.8208 53.7066 18.8017" fill="#7FBC42"/>
<path d="M44.0414 3.15431C52.1195 3.15431 60.0163 5.54835 66.733 10.0337C73.4497 14.519 78.6848 20.8942 81.7762 28.3531C84.8675 35.8119 85.6764 44.0194 84.1004 51.9377C82.5245 59.856 78.6344 67.1294 72.9223 72.8381C67.2102 78.5469 59.9325 82.4346 52.0096 84.0096C44.0867 85.5847 35.8744 84.7763 28.4111 81.6868C20.9479 78.5972 14.5689 73.3652 10.081 66.6524C5.59299 59.9396 3.19754 52.0475 3.19754 43.9741C3.21123 33.1522 7.51881 22.7775 15.1755 15.1253C22.8323 7.47303 33.2131 3.16799 44.0414 3.15431ZM44.0414 0.0517099C35.335 0.0435304 26.822 2.61692 19.5796 7.44617C12.3373 12.2754 6.69133 19.1434 3.35625 27.181C0.0211676 35.2185 -0.853062 44.0642 0.844208 52.5984C2.54148 61.1327 6.73395 68.9719 12.891 75.1239C19.048 81.2759 26.8928 85.464 35.4325 87.1583C43.9722 88.8526 52.8229 87.9768 60.8644 84.6418C68.9058 81.3067 75.7766 75.6624 80.6069 68.4232C85.4373 61.184 88.0102 52.6754 88 43.9741C88 32.3186 83.37 21.1399 75.1273 12.8943C66.8847 4.64878 55.7037 0.0109647 44.0414 0V0.0517099Z" fill="#7FBC42"/>
<circle cx="76" cy="12" r="11" fill="#6FCF97"/>
<path fill-rule="evenodd" clip-rule="evenodd" d="M82.6866 7.27299C83.0881 7.6522 83.1062 8.28511 82.727 8.68663L75.1715 16.6866C74.9826 16.8866 74.7196 17 74.4444 17C74.1693 17 73.9063 16.8866 73.7174 16.6866L69.273 11.9807C68.8938 11.5792 68.9119 10.9463 69.3134 10.5671C69.7149 10.1879 70.3478 10.206 70.727 10.6075L74.4444 14.5436L81.273 7.31338C81.6522 6.91186 82.2851 6.89378 82.6866 7.27299Z" fill="white"/>
</g>
<defs>
<clipPath id="clip0">
<path d="M0 0H88V88H0V0Z" fill="white"/>
</clipPath>
</defs>
</svg>
