<svg width="96" height="66" viewBox="0 0 96 66" fill="none" xmlns="http://www.w3.org/2000/svg">
<g filter="url(#filter0_d)">
<rect x="8" y="4" width="80" height="50" fill="#595B69"/>
<path d="M83 9H13V49H83V9Z" fill="#595B69"/>
<path d="M62.9905 29V29.0802C63.0714 30.3628 62.6673 33.3288 60.4854 35.5734C59.5965 36.4552 57.657 37.1767 56.2024 37.1767C56.2024 37.6577 56.1216 38.2188 56.0408 38.6196C55.7983 39.5015 55.3134 40.7841 54.5861 41.5055C52.4042 43.67 49.3334 44.0708 48.1212 43.9906C48.1212 43.9906 48.1212 43.9906 48.0404 43.9906H47.9596C46.6666 44.0708 43.6766 43.67 41.4947 41.5055C40.7674 40.7841 40.2825 39.5816 40.0401 38.6196C39.9593 38.2188 39.8784 37.7379 39.8784 37.1767C39.3128 37.1767 38.8279 37.0965 38.4238 37.0164C37.5349 36.7759 36.2419 36.2949 35.5146 35.5734C33.3327 33.409 32.9286 30.4429 33.0095 29.1603C33.0095 29.1603 33.0095 29.1603 33.0095 29.0802C33.0095 29.0802 33.0095 29.0802 33.0095 29V28.9198C33.0095 28.9198 33.0095 28.9198 33.0095 28.8397C32.9286 27.5571 33.3327 24.591 35.5146 22.4266C36.4035 21.5448 38.343 20.8233 39.7976 20.8233C39.7976 20.3423 39.8784 19.7812 39.9592 19.3804C40.2017 18.4985 40.6866 17.2159 41.4139 16.4945C43.5958 14.33 46.5858 13.9292 47.8788 14.0094C47.8788 14.0094 47.8788 14.0094 47.9596 14.0094H48.0404C49.3334 13.9292 52.3234 14.33 54.5861 16.4945C55.3134 17.2159 55.7983 18.4184 56.0408 19.3804C56.1216 19.7812 56.2024 20.2622 56.2024 20.8233C57.7378 20.8233 59.5965 21.6249 60.4854 22.4266C62.6673 24.591 63.0714 27.5571 62.9905 28.8397C62.9905 28.9198 62.9905 28.9198 62.9905 29C62.9905 28.9198 62.9905 29 62.9905 29ZM61.4551 29C61.4551 28.6793 61.5359 25.7133 59.354 23.5489C58.4651 22.6671 56.1216 22.1059 55.6367 22.4266L51.1921 26.8356C51.2729 26.9959 51.2729 27.2364 51.2729 27.3967L55.1518 25.9538C55.5559 25.7935 55.9599 26.0339 56.1216 26.4348C56.2832 26.8356 56.0408 27.2364 55.6367 27.3967L51.5961 28.9198C51.5961 29 51.5961 29 51.5961 29C51.5961 29.5611 51.4345 29.962 51.2729 30.2025C51.3537 30.4429 51.2729 30.8438 51.1921 31.1644L55.6367 35.5734C56.0408 35.8941 58.4651 35.3329 59.354 34.4511C61.5359 32.2867 61.4551 29.3207 61.4551 29C61.4551 29 61.4551 29.0802 61.4551 29ZM54.5053 21.3043C54.8286 20.9035 54.2629 18.4985 53.374 17.6167C51.1921 15.4523 48.202 15.5325 47.8788 15.5325C47.8788 15.5325 47.8788 15.5325 47.798 15.5325C47.4747 15.5325 44.4847 15.4523 42.3028 17.6167C41.4139 18.4985 40.8482 20.9035 41.1714 21.3043L45.6161 25.7133C45.6969 25.7133 45.7777 25.6331 45.8585 25.6331L45.4544 24.3505C45.2928 23.9497 45.5352 23.5489 45.9393 23.3885C46.3434 23.2282 46.7474 23.4687 46.909 23.8695L47.3131 25.3125C47.4747 25.3125 47.5555 25.3125 47.7172 25.3125C47.798 25.3125 47.798 25.3125 47.8788 25.3125L49.091 22.4266C49.2526 22.0258 49.7374 21.8654 50.0607 22.0258C50.4648 22.1861 50.6264 22.6671 50.4648 22.9877L49.4142 25.6331C49.5758 25.6331 49.7374 25.7133 49.8991 25.7133L54.5053 21.3043ZM53.374 40.3833C54.2629 39.5015 54.8286 37.0965 54.5053 36.6957L50.0607 32.2867C49.8991 32.3669 49.6566 32.447 49.4142 32.447C49.3334 32.447 49.1718 32.447 49.091 32.447C48.8485 32.6074 48.4445 32.7677 47.8788 32.7677C47.3131 32.7677 46.909 32.6074 46.6666 32.447C46.5858 32.447 46.4242 32.447 46.3434 32.447C46.1009 32.447 45.9393 32.3669 45.6969 32.2867L41.2522 36.6957C40.929 37.1767 41.4947 39.5015 42.3836 40.3833C44.5655 42.5477 47.5555 42.4675 47.8788 42.4675C47.8788 42.4675 47.8788 42.4675 47.9596 42.4675C47.9596 42.4675 47.9596 42.4675 48.0404 42.4675C48.2828 42.4675 51.1921 42.5477 53.374 40.3833ZM44.5655 27.0761C44.5655 26.9959 44.5655 26.9157 44.6463 26.8356L40.2017 22.4266C39.7976 22.1059 37.3733 22.6671 36.4844 23.5489C34.3024 25.7133 34.3833 28.6793 34.3833 29C34.3833 29 34.3833 29 34.3833 29.0802C34.3833 29.1603 34.3833 29.0802 34.3833 29.1603C34.3833 29.481 34.3024 32.447 36.4844 34.6115C37.3733 35.4933 39.7976 36.0544 40.2017 35.7338L44.6463 31.3247C44.4847 31.0041 44.4847 30.6033 44.5655 30.3628C44.4039 30.1223 44.2423 29.7215 44.2423 29.1603C44.2423 29 44.2423 28.8397 44.2423 28.7595L40.1209 26.9959C39.7168 26.8356 39.5552 26.3546 39.7168 26.0339C39.8784 25.6331 40.3633 25.4728 40.6866 25.6331L44.5655 27.0761Z" fill="black"/>
<path d="M59.3524 23.5488C61.5343 25.7132 61.4535 28.6792 61.4535 28.9999C61.4535 28.9999 61.4535 28.9999 61.4535 29.0801C61.4535 29.1602 61.4535 29.0801 61.4535 29.1602C61.4535 29.4809 61.5343 32.4469 59.3524 34.6114C58.4635 35.4932 56.0391 36.0543 55.6351 35.7336L51.1904 31.3246C51.3521 31.004 51.3521 30.6032 51.2712 30.3627C51.4329 30.1222 51.5945 29.7214 51.5945 29.1602C51.5945 29.0801 51.5945 29.0801 51.5945 29.0801L55.6351 27.5569C56.0391 27.3966 56.2007 26.9958 56.1199 26.595C55.9583 26.1942 55.5543 26.0338 55.1502 26.114L51.2712 27.5569C51.2712 27.3966 51.1904 27.1561 51.1904 26.9958L55.6351 22.5868C56.0391 22.1058 58.4635 22.667 59.3524 23.5488ZM57.9786 29.6412C57.9786 29.2404 57.6554 28.9197 57.1705 28.9197H54.3421C53.938 28.9197 53.534 29.2404 53.534 29.6412C53.534 30.042 53.8572 30.4428 54.3421 30.4428H57.2513C57.6554 30.3627 57.9786 30.042 57.9786 29.6412ZM56.1199 33.1684C56.3624 32.8477 56.2816 32.3668 55.9583 32.1263L54.8269 31.3246C54.5037 31.0841 54.0188 31.1643 53.7764 31.485C53.534 31.8056 53.6148 32.2866 53.938 32.5271L55.0694 33.3287C55.231 33.4089 55.3926 33.4891 55.4734 33.4891C55.7967 33.4891 56.0391 33.3287 56.1199 33.1684Z" fill="#ED1C24"/>
<path d="M57.2527 28.8398C57.6568 28.8398 58.0608 29.1605 58.0608 29.5613C58.0608 29.9621 57.7376 30.363 57.2527 30.363H54.4243C54.0203 30.363 53.6162 30.0423 53.6162 29.5613C53.6162 29.1605 53.9395 28.8398 54.4243 28.8398H57.2527Z" fill="black"/>
<path d="M55.9596 32.0465C56.2828 32.2869 56.3636 32.7679 56.1212 33.0886C55.9596 33.3291 55.7172 33.4092 55.4747 33.4092C55.3131 33.4092 55.1515 33.3291 55.0707 33.2489L53.9393 32.4473C53.6161 32.2068 53.5352 31.7258 53.7777 31.4051C54.0201 31.0845 54.505 31.0043 54.8282 31.2448L55.9596 32.0465Z" fill="black"/>
<path d="M53.3726 17.6169C54.2615 18.4987 54.8272 20.9036 54.5039 21.3044L50.0593 25.7134C49.8977 25.6332 49.736 25.6332 49.5744 25.6332L50.625 22.9878C50.7866 22.587 50.625 22.1862 50.2209 22.0259C49.8169 21.8655 49.4128 22.0259 49.2512 22.4267L48.039 25.3126C47.9582 25.3126 47.9582 25.3126 47.8774 25.3126C47.7158 25.3126 47.6349 25.3126 47.4733 25.3126L47.0693 23.8696C46.9076 23.4688 46.5036 23.2283 46.0995 23.3887C45.6955 23.4688 45.453 23.9498 45.6147 24.3506L46.0187 25.6332C45.9379 25.6332 45.8571 25.7134 45.7763 25.7134L41.3316 21.3044C41.0084 20.8234 41.5741 18.4987 42.463 17.6169C44.6449 15.4524 47.6349 15.5326 47.9582 15.5326C47.9582 15.5326 47.9582 15.5326 48.039 15.5326C48.2814 15.5326 51.1907 15.4524 53.3726 17.6169Z" fill="#ED1C24"/>
<path d="M54.5076 36.6956C54.8308 37.1766 54.2652 39.5014 53.3762 40.3832C51.1943 42.5476 48.2043 42.4674 47.881 42.4674C47.881 42.4674 47.881 42.4674 47.8002 42.4674C47.8002 42.4674 47.8002 42.4674 47.7194 42.4674C47.3962 42.4674 44.4061 42.5476 42.2242 40.3832C41.3353 39.5014 40.7696 37.0964 41.0929 36.6956L45.5375 32.2866C45.6991 32.3668 45.9416 32.4469 46.184 32.4469C46.3456 32.4469 46.4264 32.4469 46.5072 32.4469C46.7497 32.6073 47.1537 32.7676 47.7194 32.7676C48.2851 32.7676 48.6892 32.6073 48.9316 32.4469C49.0124 32.4469 49.0932 32.4469 49.2548 32.4469C49.4973 32.4469 49.7397 32.3668 49.9013 32.2866L54.5076 36.6956ZM48.9316 39.5815V36.1345C48.9316 35.7337 48.6083 35.413 48.1235 35.413C47.7194 35.413 47.3154 35.7337 47.3154 36.1345V39.5815C47.3154 39.9823 47.6386 40.3832 48.1235 40.3832C48.6083 40.303 48.9316 39.9823 48.9316 39.5815ZM46.9921 33.7296C47.1537 33.3287 46.9921 32.9279 46.5881 32.6874C46.184 32.5271 45.7799 32.6874 45.5375 33.0883L44.6486 35.0924C44.487 35.4932 44.6486 35.894 45.0526 36.1345C45.1334 36.2146 45.2951 36.2146 45.3759 36.2146C45.6991 36.2146 45.9416 36.0543 46.1032 35.8138L46.9921 33.7296Z" fill="#ED1C24"/>
<path d="M48.9292 36.1346V39.5817C48.9292 39.9825 48.606 40.3833 48.1211 40.3833C47.717 40.3833 47.313 40.0626 47.313 39.5817V36.1346C47.313 35.7338 47.6362 35.4131 48.1211 35.4131C48.606 35.333 48.9292 35.7338 48.9292 36.1346Z" fill="black"/>
<path d="M46.6674 32.7676C47.0715 32.9279 47.2331 33.4089 47.0715 33.8097L46.1826 35.8138C46.0209 36.1345 45.7785 36.2147 45.4553 36.2147C45.3744 36.2147 45.2128 36.2147 45.132 36.1345C44.728 35.9742 44.5663 35.4932 44.728 35.0924L45.6169 33.0883C45.7785 32.7676 46.2634 32.5271 46.6674 32.7676Z" fill="black"/>
<path d="M44.6463 26.8354C44.6463 26.9155 44.5655 26.9957 44.5655 27.0759L40.6865 25.3924C40.2824 25.2321 39.8784 25.3924 39.7168 25.7933C39.5551 26.1941 39.7168 26.6751 40.1208 26.7552L44.2422 28.5188C44.2422 28.6791 44.2422 28.7593 44.2422 28.9196C44.2422 29.4808 44.4038 29.8816 44.5655 30.1221C44.4846 30.3626 44.5655 30.7634 44.6463 31.0841L40.2016 35.4931C39.7168 35.8137 37.3732 35.2526 36.4843 34.3708C34.3024 32.2064 34.3832 29.2403 34.3832 28.9196C34.3832 28.9196 34.3832 28.9196 34.3832 28.8395C34.3832 28.7593 34.3832 28.8395 34.3832 28.7593C34.3832 28.4387 34.3024 25.4726 36.4843 23.3082C37.3732 22.4264 39.7976 21.8652 40.2016 22.1859L44.6463 26.8354ZM42.4644 30.9237C42.8684 30.8436 43.1108 30.3626 42.9492 29.9618C42.8684 29.5609 42.3835 29.3205 41.9795 29.4006L40.1208 29.9618C39.7168 30.0419 39.4743 30.5229 39.5551 30.9237C39.6359 31.2444 39.9592 31.4849 40.2824 31.4849C40.3633 31.4849 40.4441 31.4849 40.5249 31.4849L42.4644 30.9237Z" fill="#ED1C24"/>
<path d="M43.0304 30.0423C43.1112 30.4431 42.9496 30.844 42.5455 31.0043L40.6868 31.5654C40.606 31.5654 40.5252 31.5654 40.4444 31.5654C40.1212 31.5654 39.7979 31.3249 39.7171 31.0043C39.6363 30.6035 39.7979 30.2027 40.2828 30.0423L42.1415 29.4812C42.4647 29.401 42.8688 29.6415 43.0304 30.0423Z" fill="black"/>
</g>
<defs>
<filter id="filter0_d" x="0" y="0" width="96" height="66" filterUnits="userSpaceOnUse" color-interpolation-filters="sRGB">
<feFlood flood-opacity="0" result="BackgroundImageFix"/>
<feColorMatrix in="SourceAlpha" type="matrix" values="0 0 0 0 0 0 0 0 0 0 0 0 0 0 0 0 0 0 127 0"/>
<feOffset dy="4"/>
<feGaussianBlur stdDeviation="4"/>
<feColorMatrix type="matrix" values="0 0 0 0 0 0 0 0 0 0 0 0 0 0 0 0 0 0 0.05 0"/>
<feBlend mode="normal" in2="BackgroundImageFix" result="effect1_dropShadow"/>
<feBlend mode="normal" in="SourceGraphic" in2="effect1_dropShadow" result="shape"/>
</filter>
</defs>
</svg>
