<svg width="160" height="59" viewBox="0 0 160 59" fill="none" xmlns="http://www.w3.org/2000/svg">
<path d="M15.2205 24.5608C13.6898 24.1796 12.24 23.5264 10.9402 22.6323L12.9094 18.1736C14.073 18.8989 15.3286 19.4647 16.6427 19.8558C17.9489 20.2385 19.3022 20.4364 20.6633 20.444C21.7424 20.5038 22.8203 20.3069 23.8086 19.8695C24.1197 19.7528 24.3892 19.5465 24.5833 19.2768C24.7773 19.007 24.8871 18.6858 24.8988 18.3537C24.9105 18.0215 24.8236 17.6934 24.649 17.4106C24.4745 17.1279 24.2201 16.9031 23.918 16.7648C22.7355 16.198 21.4785 15.8019 20.1846 15.5886C18.3456 15.2484 16.5579 14.6738 14.865 13.8789C13.7467 13.3796 12.7969 12.5673 12.1299 11.5401C11.5814 10.5303 11.3123 9.39243 11.3504 8.24389C11.3391 6.80916 11.7792 5.4072 12.6086 4.23646C13.516 3.01706 14.7413 2.07074 16.1504 1.50102C17.8045 0.79512 19.5901 0.45008 21.388 0.488911C23.1017 0.485861 24.8066 0.734706 26.4479 1.22748C27.8408 1.59267 29.144 2.23971 30.2769 3.12861L28.3624 7.60106C26.3381 6.14228 23.9104 5.34887 21.4154 5.33064C20.4319 5.28333 19.4552 5.5157 18.5983 6.00083C18.2788 6.17236 18.0112 6.42661 17.8235 6.737C17.6359 7.04738 17.5351 7.40249 17.5316 7.76519C17.5221 7.95947 17.551 8.15372 17.6167 8.33679C17.6824 8.51987 17.7836 8.68816 17.9145 8.83201C18.3078 9.19527 18.774 9.47038 19.2821 9.63896C20.2769 9.98411 21.2963 10.2539 22.3316 10.4459C24.1333 10.7913 25.8809 11.3755 27.5282 12.1829C28.6385 12.7011 29.5848 13.515 30.2633 14.5354C30.8052 15.5131 31.0744 16.6185 31.0428 17.7359C31.0844 18.8198 30.8563 19.897 30.3789 20.871C29.9015 21.845 29.1899 22.6852 28.3077 23.3162C26.0047 24.7871 23.2952 25.4909 20.5675 25.3267C18.7591 25.3094 16.9611 25.0518 15.2205 24.5608Z" fill="white"/>
<path d="M39.0153 23.7401C37.1876 22.7379 35.6944 21.2207 34.7213 19.3771C33.701 17.3561 33.1893 15.1166 33.2307 12.853C33.182 10.5931 33.6942 8.35626 34.7213 6.34268C35.6913 4.50021 37.1856 2.98666 39.0153 1.99332C41.0389 0.92183 43.3042 0.389562 45.5931 0.447795C47.1526 0.441432 48.7033 0.681461 50.188 1.15901C51.5068 1.56739 52.7364 2.22173 53.8119 3.0875L51.8563 7.55995C50.0883 6.23739 47.9509 5.50093 45.7435 5.45366C44.8974 5.40033 44.0503 5.54007 43.2661 5.86231C42.4819 6.18456 41.7812 6.68088 41.217 7.31376C40.0645 8.92048 39.5128 10.881 39.6581 12.853C39.5312 14.8019 40.082 16.7347 41.217 18.3239C41.7773 18.9634 42.4766 19.466 43.2612 19.7932C44.0459 20.1203 44.895 20.2634 45.7435 20.2114C47.9496 20.169 50.087 19.4373 51.8563 18.1188L53.8119 22.5775C52.7431 23.4534 51.5114 24.1089 50.188 24.506C48.7041 24.9882 47.1533 25.2329 45.5931 25.2309C43.3096 25.2999 41.046 24.7869 39.0153 23.7401V23.7401Z" fill="white"/>
<path d="M61.1418 23.7538C59.3428 22.7595 57.8775 21.2559 56.9298 19.4318C55.957 17.3727 55.4524 15.1236 55.4524 12.8462C55.4524 10.5688 55.957 8.31974 56.9298 6.26066C57.8777 4.44013 59.3433 2.94103 61.1418 1.95234C63.1446 0.962289 65.3487 0.447266 67.5828 0.447266C69.8169 0.447266 72.021 0.962289 74.0238 1.95234C75.8173 2.93869 77.2746 4.43913 78.2084 6.26066C79.2223 8.30735 79.7245 10.5696 79.6717 12.8531C79.7252 15.1338 79.218 17.3929 78.1948 19.4318C77.2471 21.2559 75.7818 22.7595 73.9828 23.7538C71.9924 24.761 69.793 25.2858 67.5623 25.2858C65.3316 25.2858 63.1322 24.761 61.1418 23.7538V23.7538ZM71.8768 18.5018C73.0101 16.8452 73.5543 14.8559 73.4221 12.8531C73.5664 10.8493 73.0105 8.85748 71.8495 7.21807C71.3107 6.61587 70.6511 6.13413 69.9135 5.80431C69.1759 5.47449 68.3771 5.30402 67.5691 5.30402C66.7612 5.30402 65.9624 5.47449 65.2248 5.80431C64.4872 6.13413 63.8275 6.61587 63.2888 7.21807C62.1405 8.87284 61.595 10.8717 61.7435 12.8804C61.5995 14.8887 62.1446 16.8861 63.2888 18.5428C63.8265 19.1514 64.4874 19.6388 65.2277 19.9727C65.968 20.3065 66.7707 20.4791 67.5828 20.4791C68.3949 20.4791 69.1977 20.3065 69.938 19.9727C70.6783 19.6388 71.3391 19.1514 71.8768 18.5428V18.5018Z" fill="white"/>
<path d="M85.5522 22.605C84.5885 21.5525 83.8491 20.315 83.3789 18.9677C82.9087 17.6204 82.7176 16.1915 82.8171 14.7679V0.748779H88.9983V15.0141C88.9042 16.4491 89.3154 17.8718 90.1607 19.0352C90.601 19.4822 91.1257 19.8372 91.7044 20.0795C92.2832 20.3218 92.9043 20.4466 93.5317 20.4466C94.159 20.4466 94.7802 20.3218 95.3589 20.0795C95.9376 19.8372 96.4623 19.4822 96.9026 19.0352C97.7479 17.8718 98.1591 16.4491 98.065 15.0141V0.748779H104.287V14.7406C104.39 16.1623 104.2 17.5899 103.73 18.9354C103.259 20.281 102.518 21.5158 101.552 22.5639C100.468 23.5262 99.2044 24.2635 97.8334 24.7331C96.4624 25.2027 95.0118 25.3952 93.5658 25.2994C92.1182 25.4044 90.6641 25.2202 89.2883 24.7577C87.9124 24.2951 86.6424 23.5633 85.5522 22.605Z" fill="white"/>
<path d="M113.956 5.87773H106.667V0.748779H127.59V5.87773H120.342V25.0258H113.956V5.87773Z" fill="white"/>
<path d="M133.224 24.5607C131.687 24.1839 130.232 23.5304 128.93 22.6323L130.885 18.1735C132.055 18.8965 133.315 19.4621 134.632 19.8558C135.938 20.2404 137.292 20.4384 138.653 20.4439C139.732 20.5037 140.81 20.3069 141.798 19.8695C142.109 19.7513 142.377 19.5438 142.57 19.2733C142.763 19.0027 142.871 18.6811 142.881 18.349C142.892 18.017 142.803 17.6893 142.628 17.4074C142.452 17.1254 142.197 16.9018 141.894 16.7647C140.717 16.1951 139.465 15.7989 138.174 15.5885C136.335 15.2503 134.547 14.6756 132.855 13.8788C131.741 13.373 130.792 12.5622 130.12 11.54C129.583 10.5264 129.319 9.39043 129.354 8.24383C129.334 6.80784 129.775 5.40331 130.612 4.23641C131.517 3.02046 132.737 2.07467 134.14 1.50097C135.795 0.796269 137.58 0.45128 139.378 0.488855C141.096 0.48486 142.805 0.73371 144.451 1.22742C145.844 1.59262 147.147 2.23966 148.28 3.12855L146.325 7.55997C144.332 6.12018 141.945 5.32761 139.487 5.28955C138.504 5.23996 137.526 5.47248 136.67 5.95974C136.351 6.13128 136.083 6.38553 135.895 6.69591C135.708 7.00629 135.607 7.36141 135.603 7.7241C135.594 7.91838 135.623 8.11263 135.689 8.2957C135.754 8.47878 135.855 8.64707 135.986 8.79092C136.377 9.15698 136.844 9.43247 137.354 9.59787C138.348 9.94475 139.368 10.2145 140.403 10.4048C142.205 10.7524 143.952 11.3365 145.6 12.1418C146.714 12.6539 147.662 13.4691 148.335 14.4943C148.888 15.4681 149.163 16.5754 149.128 17.6948C149.172 18.7791 148.945 19.8572 148.468 20.8316C147.99 21.806 147.277 22.6458 146.393 23.2751C144.096 24.7467 141.39 25.4507 138.667 25.2856C136.828 25.2902 134.997 25.0464 133.224 24.5607Z" fill="white"/>
<path d="M7.24786 39.893H0V34.7777H20.8821V39.893H13.6752V59.0411H7.24786V39.893Z" fill="white"/>
<path d="M24.4104 34.7777H41.6138V39.6468H30.5642V44.256H40.9301V49.0978H30.5642V54.1173H41.6138V59.0001H24.4104V34.7777Z" fill="white"/>
<path d="M68.7316 59.0001H61.7983L57.6 51.2588C57.349 50.8226 56.9826 50.4642 56.5411 50.2229C56.0995 49.9816 55.6 49.8667 55.0974 49.891H53.1692V58.9727H46.947V34.7777H58.4889C60.8448 34.5832 63.1926 35.2381 65.1077 36.6242C65.862 37.3127 66.4526 38.1615 66.8359 39.1082C67.2193 40.055 67.3858 41.0755 67.3231 42.095C67.3732 43.7787 66.8366 45.4274 65.8051 46.759C64.7375 48.1159 63.2275 49.0549 61.5385 49.4123C62.2625 49.5887 62.9374 49.9263 63.5128 50.4C64.0882 50.8736 64.5492 51.4711 64.8616 52.1478L68.7316 59.0001ZM60.5265 44.5296C60.8448 44.2784 61.0954 43.9517 61.2554 43.5791C61.4154 43.2064 61.4798 42.7998 61.4427 42.3959C61.4794 41.9862 61.415 41.5737 61.2553 41.1945C61.0956 40.8154 60.8453 40.4812 60.5265 40.2213C59.6207 39.6957 58.575 39.4617 57.5316 39.5511H53.1009V45.1861H57.5043C58.5458 45.2718 59.589 45.0431 60.4992 44.5296H60.5265Z" fill="white"/>
<path d="M94.4819 59.0001H87.5212L83.4186 51.2588C83.1677 50.8226 82.8012 50.4642 82.3597 50.2229C81.9182 49.9816 81.4186 49.8667 80.9161 49.891H78.9195V58.9727H72.6973V34.7777H84.2392C86.5951 34.5832 88.9428 35.2381 90.858 36.6242C91.6123 37.3127 92.2028 38.1615 92.5862 39.1082C92.9696 40.055 93.136 41.0755 93.0733 42.095C93.1656 43.8028 92.6522 45.4884 91.6238 46.8547C90.5443 48.1733 89.0414 49.0771 87.3708 49.4123C88.0948 49.5887 88.7697 49.9263 89.3451 50.4C89.9205 50.8736 90.3815 51.4711 90.6939 52.1478L94.4819 59.0001ZM86.2768 44.5296C86.5951 44.2784 86.8456 43.9517 87.0056 43.5791C87.1656 43.2064 87.23 42.7998 87.193 42.3959C87.2296 41.9862 87.1653 41.5737 87.0055 41.1945C86.8458 40.8154 86.5956 40.4812 86.2768 40.2213C85.3667 39.6938 84.3161 39.4597 83.2682 39.5511H78.8511V45.1861H83.2409C84.2868 45.2737 85.335 45.045 86.2494 44.5296H86.2768Z" fill="white"/>
<path d="M115.296 53.9805H104.574L102.414 59.0001H96.0547L107.364 34.7777H112.383L123.72 59.0001H117.456L115.296 53.9805ZM113.272 49.2345L109.935 41.4795L106.667 49.2345H113.272Z" fill="white"/>
<path d="M126.359 34.7777H132.649V59.0001H126.359V34.7777Z" fill="white"/>
<path d="M160 34.7777V59.0001H155.323L144.26 45.145V59.0001H138.393V34.7777H142.988L154.092 48.619V34.7777H160Z" fill="white"/>
</svg>
