<svg width="230" height="28" viewBox="0 0 230 28" fill="none" xmlns="http://www.w3.org/2000/svg">
<g clip-path="url(#clip0)">
<path d="M12.1803 27.349C6.02471 27.349 1.02332 22.27 1.02332 16.0188V0.651367H23.3372V16.0839C23.3372 22.27 18.3358 27.349 12.1803 27.349Z" fill="url(#paint0_linear)"/>
<path d="M23.3372 0.651367V16.0839C23.3372 17.9072 22.8884 19.6002 22.1831 21.163C21.2854 22.9862 19.9388 24.4839 18.2717 25.5909C16.5405 26.763 14.4245 27.4142 12.1803 27.4142C6.02471 27.349 1.02332 22.27 1.02332 16.0188V0.651367H23.3372Z" fill="url(#paint1_linear)"/>
<path d="M21.8625 21.6188C19.9388 25.07 16.3481 27.349 12.1803 27.349C6.02471 27.349 1.02332 22.3351 1.02332 16.0839V12.5025L6.60179 6.12114C6.85827 5.79556 7.30712 5.79556 7.62772 6.12114L21.8625 21.6188Z" fill="url(#paint2_linear)"/>
<path d="M20.9648 20.8371C19.0412 24.2882 15.4505 26.6324 11.2826 26.6324C10.8338 26.6324 10.385 26.6324 10.0002 26.5673L7.0507 6.18589C6.98658 5.92543 7.30718 5.79519 7.49954 5.99054L20.9648 20.8371Z" fill="url(#paint3_linear)"/>
<path d="M23.2732 13.8693V16.0833C23.2732 21.2275 19.8748 25.5903 15.194 26.9577L9.55139 20.3809L14.6169 12.8926C14.681 12.8275 14.681 12.7623 14.6169 12.6972L13.078 11.9809C13.0139 11.8507 13.078 11.7205 13.2063 11.7205L15.5787 10.1577C15.6428 10.1577 15.707 10.0275 15.707 9.96234L14.4245 4.16699H14.4887L23.2732 13.8693Z" fill="url(#paint4_linear)"/>
<path d="M15.5787 10.0932L13.2062 11.7211C13.078 11.7863 13.078 11.9165 13.1421 11.9816L14.681 12.6979C14.7451 12.763 14.7451 12.8281 14.681 12.8932L7.05063 24.4188C4.87054 22.9863 3.20341 20.7723 2.43396 18.2328L14.4245 4.10254L15.7069 9.89789C15.771 10.0281 15.7069 10.0932 15.5787 10.0932Z" fill="url(#paint5_linear)"/>
<path d="M22.119 21.0979C21.2213 22.9212 19.8747 24.4188 18.2076 25.5258L12.4368 16.2142L14.681 12.8281L22.119 21.0979Z" fill="url(#paint6_linear)"/>
<path d="M15.0657 6.83789L15.7069 9.89835L21.093 15.5635L20.1312 12.4379L15.0657 6.83789Z" fill="url(#paint7_linear)"/>
<path d="M23.2731 17.1899C23.1449 18.948 22.5678 20.576 21.6701 22.0736H21.606C5.25525 25.5899 6.85827 13.0225 6.85827 13.0225C8.33304 23.0504 22.9525 17.3201 22.9525 17.3201L23.2731 17.1899Z" fill="url(#paint8_linear)"/>
<path d="M2.17744 21.0975C1.0874 16.9301 6.85824 12.958 6.85824 12.958C6.85824 12.958 5.25522 25.5906 21.6059 22.0743H21.6701C19.6823 25.3301 16.1557 27.5441 12.1161 27.4789C7.75592 27.4138 4.03694 24.8092 2.17744 21.0975Z" fill="#B2E0E1"/>
<path d="M19.3618 6.25191C20.2471 6.25191 20.9648 5.52307 20.9648 4.624C20.9648 3.72493 20.2471 2.99609 19.3618 2.99609C18.4765 2.99609 17.7588 3.72493 17.7588 4.624C17.7588 5.52307 18.4765 6.25191 19.3618 6.25191Z" fill="url(#paint9_linear)"/>
<path d="M12.1802 28C5.63996 28 0.38208 22.6605 0.38208 16.0186V0H23.9143V16.0186C23.9143 17.907 23.5296 19.6651 22.696 21.3581C21.7342 23.2465 20.3235 24.8744 18.5923 26.0465C16.6687 27.3488 14.4245 28 12.1802 28ZM1.66449 1.30233V16.0837C1.66449 21.9442 6.34528 26.6977 12.1802 26.6977C14.2321 26.6977 16.2198 26.1116 17.887 25.0047C19.49 23.9628 20.7083 22.5302 21.6059 20.8372C22.3113 19.3395 22.696 17.7767 22.696 16.0837V1.30233H1.66449Z" fill="#FFF9EF"/>
<path d="M35.4791 21.0652C34.4532 20.8048 33.5555 20.4141 32.9143 19.8931L34.0685 17.1582C34.7738 17.6141 35.5432 17.9396 36.3127 18.2001C37.0821 18.4606 37.9157 18.5257 38.6851 18.5257C39.5187 18.5257 40.1599 18.3955 40.5446 18.2001C40.9935 17.9396 41.1858 17.6792 41.1858 17.2234C41.1858 16.8327 40.9935 16.5722 40.6088 16.3117C40.224 16.0513 39.4546 15.8559 38.3645 15.5955C37.018 15.335 35.928 14.9443 35.1585 14.5536C34.3891 14.1629 33.8761 13.7071 33.5555 13.121C33.2349 12.535 33.1067 11.8838 33.1067 11.1024C33.1067 10.1908 33.3631 9.40941 33.8761 8.69313C34.3891 7.97685 35.0944 7.39081 35.9921 7.00011C36.8898 6.60941 37.9157 6.41406 39.134 6.41406C40.1599 6.41406 41.1858 6.54429 42.1476 6.86988C43.1095 7.19546 43.8789 7.58616 44.456 8.04197L43.3018 10.7769C42.0194 9.86523 40.6088 9.40941 39.134 9.40941C38.4287 9.40941 37.8516 9.53964 37.4669 9.80011C37.0821 10.0606 36.8257 10.4513 36.8257 10.842C36.8257 11.1024 36.8898 11.2978 37.0821 11.4931C37.2104 11.6885 37.531 11.8187 37.9157 12.0141C38.3004 12.1443 38.9416 12.3396 39.7111 12.535C40.9935 12.7955 42.0835 13.1862 42.7889 13.5769C43.5583 13.9676 44.0713 14.4885 44.3919 15.0094C44.7125 15.5303 44.8407 16.1815 44.8407 16.9629C44.8407 18.3955 44.2636 19.5676 43.1736 20.3489C42.0835 21.1303 40.5446 21.5862 38.5569 21.5862C37.5951 21.521 36.505 21.3257 35.4791 21.0652Z" fill="white"/>
<path d="M49.7138 20.5443C48.6238 19.8931 47.7261 19.0466 47.149 17.8745C46.5719 16.7676 46.2513 15.4001 46.2513 13.9024C46.2513 12.4048 46.5719 11.1024 47.149 9.93034C47.7261 8.82336 48.6238 7.91174 49.7138 7.32569C50.8039 6.73964 52.1504 6.41406 53.6252 6.41406C54.587 6.41406 55.4847 6.54429 56.3824 6.86988C57.2801 7.13034 57.9854 7.52104 58.5625 8.04197L57.3442 10.7769C56.1259 9.93034 54.9076 9.47453 53.6893 9.47453C52.5351 9.47453 51.6375 9.86523 50.9963 10.5815C50.355 11.3629 50.0344 12.4699 50.0344 13.9676C50.0344 15.4652 50.355 16.5722 50.9963 17.3536C51.6375 18.135 52.5351 18.4606 53.6893 18.4606C54.9076 18.4606 56.1259 18.0048 57.3442 17.1582L58.4983 19.8931C57.9213 20.3489 57.2159 20.7396 56.3182 21.0652C55.4206 21.3257 54.5229 21.521 53.5611 21.521C52.0863 21.521 50.8039 21.1955 49.7138 20.5443Z" fill="white"/>
<path d="M62.9227 20.5436C61.8326 19.9576 60.9991 19.046 60.422 17.939C59.8449 16.832 59.5243 15.4646 59.5243 13.9669C59.5243 12.4692 59.8449 11.1018 60.422 9.9948C60.9991 8.88782 61.8326 7.97619 62.9227 7.39014C64.0127 6.8041 65.2951 6.47852 66.7699 6.47852C68.2447 6.47852 69.5271 6.8041 70.6171 7.39014C71.7072 7.97619 72.5407 8.88782 73.1178 9.9948C73.6949 11.1018 74.0155 12.4692 74.0155 13.9669C74.0155 15.4646 73.6949 16.832 73.1178 17.939C72.5407 19.046 71.7072 19.9576 70.6171 20.5436C69.5271 21.1297 68.2447 21.4553 66.7699 21.4553C65.2951 21.5204 64.0127 21.1948 62.9227 20.5436ZM69.3347 17.3529C69.9759 16.5715 70.2324 15.3994 70.2324 13.9018C70.2324 12.4041 69.9118 11.232 69.2706 10.5157C68.6294 9.73433 67.7958 9.34363 66.7058 9.34363C65.6157 9.34363 64.7822 9.73433 64.141 10.5157C63.4998 11.2971 63.2433 12.4041 63.2433 13.9669C63.2433 15.5297 63.5639 16.6367 64.141 17.4181C64.7822 18.1994 65.6157 18.5901 66.7058 18.5901C67.86 18.5901 68.6935 18.1994 69.3347 17.3529Z" fill="white"/>
<path d="M77.478 19.8931C76.388 18.7861 75.875 17.2233 75.875 15.1396V6.60938H79.594V15.2698C79.594 16.3117 79.8505 17.1582 80.2993 17.6791C80.7482 18.2652 81.4535 18.5257 82.2871 18.5257C83.1206 18.5257 83.8259 18.2652 84.2748 17.6791C84.7236 17.0931 84.9801 16.3117 84.9801 15.2698V6.60938H88.6991V15.1396C88.6991 17.2233 88.122 18.7861 87.032 19.8931C85.9419 21.0001 84.3389 21.521 82.2871 21.521C80.1711 21.521 78.5681 20.935 77.478 19.8931Z" fill="white"/>
<path d="M94.4699 9.73496H90.1097V6.60938H102.613V9.73496H98.253V21.3257H94.4058V9.73496H94.4699Z" fill="white"/>
<path d="M105.948 21.0652C104.922 20.8048 104.024 20.4141 103.383 19.8931L104.537 17.1582C105.242 17.6141 106.012 17.9396 106.781 18.2001C107.551 18.4606 108.384 18.5257 109.154 18.5257C109.987 18.5257 110.628 18.3955 111.013 18.2001C111.398 18.0048 111.654 17.6792 111.654 17.2234C111.654 16.8327 111.462 16.5722 111.077 16.3117C110.692 16.0513 109.923 15.8559 108.833 15.5955C107.486 15.335 106.396 14.9443 105.627 14.5536C104.857 14.1629 104.344 13.7071 104.024 13.121C103.703 12.535 103.575 11.8838 103.575 11.1024C103.575 10.1908 103.832 9.40941 104.344 8.69313C104.857 7.97685 105.563 7.39081 106.46 7.00011C107.358 6.60941 108.384 6.41406 109.602 6.41406C110.628 6.41406 111.654 6.54429 112.616 6.86988C113.578 7.19546 114.347 7.58616 114.924 8.04197L113.77 10.7769C112.488 9.86523 111.077 9.40941 109.602 9.40941C108.897 9.40941 108.32 9.53964 107.935 9.80011C107.551 10.0606 107.294 10.4513 107.294 10.842C107.294 11.1024 107.358 11.2978 107.551 11.4931C107.679 11.6885 107.999 11.8187 108.384 12.0141C108.769 12.1443 109.41 12.3396 110.179 12.535C111.462 12.7955 112.552 13.1862 113.257 13.5769C114.027 13.9676 114.54 14.4885 114.86 15.0094C115.181 15.5303 115.309 16.1815 115.309 16.9629C115.309 18.3955 114.732 19.5676 113.642 20.3489C112.552 21.1303 111.013 21.5862 109.025 21.5862C108.063 21.521 107.038 21.3257 105.948 21.0652Z" fill="white"/>
<path d="M125.912 3.45117H124.309V24.5488H125.912V3.45117Z" fill="#98B4D4"/>
<path d="M139.208 9.76718H134.912V6.6416H147.416V9.76718H143.055V21.3579H139.208V9.76718Z" fill="white"/>
<path d="M148.954 6.6416H159.214V9.57183H152.609V12.3718H158.829V15.3672H152.609V18.4276H159.214V21.3579H148.954V6.6416Z" fill="white"/>
<path d="M175.308 21.3579H171.14L168.639 16.6695C168.319 16.1486 167.806 15.8881 167.165 15.8881H166.01V21.3579H162.292V6.6416H169.217C170.948 6.6416 172.294 7.0323 173.192 7.81369C174.09 8.59509 174.538 9.70207 174.538 11.1346C174.538 12.2416 174.218 13.2183 173.641 13.9346C173.064 14.716 172.166 15.237 171.076 15.4974C171.91 15.6928 172.551 16.2137 173.064 17.1253L175.308 21.3579ZM170.435 12.5672C170.82 12.3067 170.948 11.8509 170.948 11.2649C170.948 10.6788 170.755 10.223 170.435 9.96253C170.05 9.70207 169.473 9.57183 168.639 9.57183H166.01V12.9579H168.639C169.473 12.9579 170.05 12.8276 170.435 12.5672Z" fill="white"/>
<path d="M190.633 21.3579H186.465L183.964 16.6695C183.644 16.1486 183.131 15.8881 182.489 15.8881H181.335V21.3579H177.616V6.6416H184.541C186.273 6.6416 187.619 7.0323 188.517 7.81369C189.414 8.59509 189.863 9.70207 189.863 11.1346C189.863 12.2416 189.543 13.2183 188.966 13.9346C188.389 14.716 187.491 15.237 186.401 15.4974C187.234 15.6928 187.876 16.2137 188.389 17.1253L190.633 21.3579ZM185.696 12.5672C186.08 12.3067 186.208 11.8509 186.208 11.2649C186.208 10.6788 186.016 10.223 185.696 9.96253C185.375 9.70207 184.734 9.57183 183.9 9.57183H181.271V12.9579H183.9C184.734 12.9579 185.375 12.8276 185.696 12.5672Z" fill="white"/>
<path d="M202.623 18.2974H196.211L194.929 21.3579H191.146L197.878 6.6416H200.892L207.689 21.3579H203.97L202.623 18.2974ZM201.405 15.4323L199.417 10.7439L197.43 15.4323H201.405Z" fill="white"/>
<path d="M209.548 6.6416H213.331V21.3579H209.548V6.6416Z" fill="white"/>
<path d="M229.618 6.6416V21.3579H226.797L220.192 12.9579V21.3579H216.666V6.6416H219.423L226.027 15.0416V6.6416H229.618Z" fill="white"/>
</g>
<defs>
<linearGradient id="paint0_linear" x1="6.28388" y1="25.4878" x2="16.8921" y2="-2.74952" gradientUnits="userSpaceOnUse">
<stop offset="0.4915" stop-color="#EFD4B7"/>
<stop offset="1" stop-color="#FFF9EF"/>
</linearGradient>
<linearGradient id="paint1_linear" x1="6.28375" y1="25.4879" x2="16.892" y2="-2.74952" gradientUnits="userSpaceOnUse">
<stop offset="0.4915" stop-color="#EFD4B7"/>
<stop offset="1" stop-color="#FFF9EF"/>
</linearGradient>
<linearGradient id="paint2_linear" x1="9.06177" y1="30.5976" x2="12.8183" y2="9.82364" gradientUnits="userSpaceOnUse">
<stop offset="0.4111" stop-color="#7BC577"/>
<stop offset="1" stop-color="#A6D38B"/>
</linearGradient>
<linearGradient id="paint3_linear" x1="13.4259" y1="18.7102" x2="7.93049" y2="5.71119" gradientUnits="userSpaceOnUse">
<stop offset="0.2359" stop-color="#3D7370"/>
<stop offset="0.365" stop-color="#437771"/>
<stop offset="0.5301" stop-color="#528376"/>
<stop offset="0.715" stop-color="#6B997D"/>
<stop offset="0.9127" stop-color="#90BB85"/>
<stop offset="1" stop-color="#A6D38B"/>
</linearGradient>
<linearGradient id="paint4_linear" x1="13.2219" y1="2.6296" x2="18.3013" y2="24.8133" gradientUnits="userSpaceOnUse">
<stop stop-color="#64AB82"/>
<stop offset="0.9531" stop-color="#1D304A"/>
</linearGradient>
<linearGradient id="paint5_linear" x1="6.22668" y1="21.613" x2="14.8435" y2="-0.188973" gradientUnits="userSpaceOnUse">
<stop offset="0.064685" stop-color="#165344"/>
<stop offset="0.7031" stop-color="#A6D38B"/>
</linearGradient>
<linearGradient id="paint6_linear" x1="17.2944" y1="17.0721" x2="17.1081" y2="-1.79342" gradientUnits="userSpaceOnUse">
<stop stop-color="#A6D38B" stop-opacity="0"/>
<stop offset="0.9353" stop-color="#165344"/>
</linearGradient>
<linearGradient id="paint7_linear" x1="12.4458" y1="-1.03282" x2="18.8972" y2="12.8983" gradientUnits="userSpaceOnUse">
<stop stop-color="#165344"/>
<stop offset="1" stop-color="#A6D38B" stop-opacity="0"/>
</linearGradient>
<linearGradient id="paint8_linear" x1="-15.2694" y1="14.9307" x2="19.1396" y2="18.5541" gradientUnits="userSpaceOnUse">
<stop offset="0.2342" stop-color="#3D5D93"/>
<stop offset="1" stop-color="#9FD4D8"/>
</linearGradient>
<linearGradient id="paint9_linear" x1="18.583" y1="4.39818" x2="22.9441" y2="5.55557" gradientUnits="userSpaceOnUse">
<stop stop-color="#F9C692"/>
<stop offset="1" stop-color="#F89E6A"/>
</linearGradient>
<clipPath id="clip0">
<rect width="229.236" height="28" fill="white" transform="translate(0.38208)"/>
</clipPath>
</defs>
</svg>
