<svg width="93" height="120" viewBox="0 0 93 120" fill="none" xmlns="http://www.w3.org/2000/svg">
<g clip-path="url(#clip0)">
<path d="M90.9438 37.5717C82.6975 33.193 69.1073 33.1528 69.2313 23.8323C69.2668 21.3391 67.8754 20.3427 66.0675 20.9146C65.5786 21.0806 65.1159 21.3169 64.6939 21.6161C63.1499 22.7116 61.6949 23.9293 60.3425 25.2576C59.224 26.3281 58.162 27.4571 57.161 28.64C54.1744 32.2144 50.5143 38.023 49.5971 43.483C49.5484 43.7779 49.504 44.0773 49.473 44.3766C49.3573 45.4253 49.3144 46.4809 49.3445 47.5356C49.3643 48.3108 49.4339 49.0839 49.5528 49.8501C49.7558 51.2296 50.148 52.5739 50.7182 53.8446C51.1924 54.8917 51.7969 55.8736 52.5172 56.7667C53.7215 58.2407 55.1864 59.477 56.8375 60.4127C57.2806 60.6629 57.7237 60.8908 58.1447 61.1008C61.4813 62.7271 64.685 63.1516 67.5785 62.5663C68.8704 62.3041 70.1141 61.8414 71.2652 61.1946C71.3671 61.1365 71.4735 61.0829 71.5754 61.0203C77.6017 57.4458 76.2857 50.623 83.3223 45.6903C85.749 43.9452 88.4352 42.5999 91.2805 41.7047C93.6379 40.9496 93.6246 38.997 90.9438 37.5717Z" fill="#7FBC42"/>
<path d="M66.0726 20.9149C65.6539 17.6572 65.0068 14.4336 64.1362 11.2682C62.6075 5.54903 60.5515 -0.0316342 56.7185 -0.000357428C52.5267 0.0353874 50.4485 5.05754 47.9272 11.2503C45.3616 17.5683 43.8684 20.2893 41.5775 21.527C38.4048 23.2204 32.5824 20.8076 30.4244 23.4706C29.4496 24.6725 29.2369 26.5983 29.5382 28.8324C29.8163 30.6156 30.3057 32.3587 30.996 34.0243C31.6604 35.6738 32.4748 37.2578 33.4287 38.756C35.5689 42.0982 38.3029 44.6584 41.7104 46.1329C42.5094 46.4817 43.3347 46.7656 44.1785 46.9818L44.3779 47.031C45.6529 47.3424 46.957 47.5162 48.2684 47.5493H48.8268H49.3762C50.5563 47.4898 51.7253 47.2904 52.8591 46.955L53.1294 46.8746L53.4661 46.7629C53.9979 46.5842 54.534 46.3831 55.0702 46.1418L55.7127 45.8335C59.7334 43.7871 62.8718 40.3269 64.535 36.1064C65.24 34.3832 65.7469 32.5842 66.046 30.7447C66.511 27.4855 66.52 24.1766 66.0726 20.9149Z" fill="#FFC62F"/>
<path d="M60.3292 25.2577C60.1091 22.0638 59.4882 18.911 58.4814 15.8747C57.6882 13.4306 56.4653 11.5182 54.7726 11.5182C52.2469 11.5182 50.5497 14.4449 48.8438 17.5725C46.7213 21.4687 45.0463 23.953 40.8279 25.0521C38.249 25.7268 36.5563 26.6741 35.9537 28.8545C35.8045 29.3978 35.7226 29.9576 35.71 30.5211C35.7181 32.4801 36.1729 34.4109 37.0393 36.1643C37.7113 37.664 38.6499 39.0269 39.8087 40.1856C40.8971 41.2038 42.1538 42.0219 43.522 42.6029C44.9191 43.1904 46.4131 43.5086 47.9265 43.5412H48.2766C48.7211 43.5383 49.165 43.5085 49.6059 43.4518C54.8258 42.7593 58.5567 38.0901 59.7354 32.9741C60.2983 30.4438 60.4982 27.8452 60.3292 25.2577Z" fill="#FBAA19"/>
<path d="M62.0358 71.5828C62.0358 71.1807 61.9915 70.7339 61.9383 70.2424C61.7148 68.2716 61.1792 66.3497 60.3519 64.55C58.7588 61.0873 55.9848 58.3171 52.5355 56.7442C52.3139 56.6415 52.0924 56.5387 51.8664 56.4449C51.4233 56.2572 50.9801 56.0874 50.506 55.9444C49.6022 55.6585 48.6709 55.4698 47.7277 55.3815C47.1525 55.3368 46.5748 55.3368 45.9996 55.3815C42.5743 55.6183 39.2554 57.5306 36.8405 62.0345C36.402 62.8354 35.9105 63.6057 35.3693 64.34C32.7461 67.9502 28.4081 72.2754 25.7361 74.1699C24.0833 75.3405 22.5546 75.9928 22.6343 76.8239C22.7495 78.4012 28.6606 75.9928 35.972 79.6299C42.9731 83.115 45.1665 87.8691 49.2653 90.2729C53.3641 92.6768 56.8868 90.8002 58.8897 86.6984C61.145 81.994 62.2251 76.8047 62.0358 71.5828Z" fill="#DE8C28"/>
<path d="M56.6386 63.755C54.8955 63.1204 53.3667 62.0002 52.2297 60.5246C51.8035 59.9745 51.4449 59.3744 51.1618 58.7373C50.7736 57.8665 50.5511 56.9298 50.506 55.9761C49.6022 55.6901 48.6709 55.5014 47.7277 55.4131C47.1525 55.3684 46.5748 55.3684 45.9996 55.4131C45.0055 57.0387 43.7781 58.5068 42.3572 59.7695L42.0249 60.0688C40.5848 61.4093 39.8492 63.0759 38.48 65.1089C37.5852 66.4384 36.5577 67.6721 35.4137 68.7906C32.6708 71.4714 34.5762 73.4374 35.4757 74.3132C38.8788 77.624 47.4707 82.0117 52.0259 79.7419C54.7111 78.4015 57.6312 76.2881 58.0654 69.8227C58.0654 69.7378 58.0654 69.6529 58.0654 69.5636C58.1255 67.5323 57.632 65.5232 56.6386 63.755Z" fill="#BB6228"/>
<path d="M76.5832 65.1359C74.5936 63.9429 72.8699 62.8482 71.2659 61.1905C70.0119 59.8499 68.9554 58.3346 68.1286 56.6911C67.9115 56.28 67.6855 55.8466 67.4861 55.3864C65.5187 51.1462 63.6975 45.8559 57.4364 45.8559C56.8172 45.8549 56.199 45.9072 55.5886 46.0123C55.4025 46.0436 55.2208 46.0793 55.0391 46.124C54.4925 46.2461 53.9584 46.4196 53.444 46.6423L53.1293 46.7853L52.828 46.9372C51.5157 47.6203 50.391 48.6194 49.5534 49.8459C48.4575 51.4981 47.8265 53.4191 47.7278 55.4043C47.6724 56.261 47.6962 57.1211 47.7987 57.9735C47.7987 58.0941 47.7987 58.2103 47.8386 58.3309C48.5077 63.085 51.9329 68.4378 58.0567 69.7961C58.3448 69.8631 58.6416 69.9212 58.943 69.9659C59.9299 70.1151 60.9238 70.2135 61.9207 70.2608C66.9822 70.448 72.023 69.5162 76.6895 67.5308C77.2745 67.2761 77.9701 66.9097 77.9701 66.4182C77.9879 66.0295 77.4827 65.681 76.5832 65.1359Z" fill="#A42036"/>
<path d="M47.9268 43.5635C46.8102 37.7058 42.8266 33.1975 35.7014 30.5211C33.6932 29.7807 31.627 29.2113 29.5245 28.8188C27.5429 28.443 25.5432 28.1715 23.5336 28.0056C15.6507 27.3443 9.49144 27.9162 5.16669 29.5113C1.90983 30.7088 0.350079 32.8266 0.0620575 34.7524C-0.32788 37.3439 1.13882 39.6226 3.92598 41.6914C9.64653 45.9316 17.6624 47.2899 20.3521 52.9823C21.3934 55.1851 21.513 57.5621 21.0079 60.243C20.5027 62.9238 19.7716 65.1579 21.3314 66.5385C22.8911 67.9192 25.8998 67.879 30.8449 66.1677C32.3877 65.6497 33.8984 65.0395 35.3691 64.3402C37.7614 63.2083 39.996 61.7647 42.0157 60.0464C42.1221 59.9436 42.2329 59.8453 42.3481 59.747C43.769 58.4843 44.9964 57.0162 45.9904 55.3906C47.4237 53.0253 48.2025 50.3161 48.2459 47.5446C48.2459 47.4284 48.2459 47.3123 48.2459 47.1961C48.2549 45.9777 48.148 44.7613 47.9268 43.5635Z" fill="#EA6952"/>
<path d="M44.3466 47.4825C44.3466 47.3305 44.3466 47.1742 44.3466 47.0357C44.3674 45.5289 44.0809 44.0339 43.5047 42.6435C43.2494 41.998 42.9255 41.3823 42.5387 40.8071C41.1031 38.8359 39.2166 37.2433 37.0397 36.1647C35.1173 35.1956 33.0825 34.4722 30.9824 34.0111C27.923 33.3495 24.8059 32.9963 21.6771 32.9566C15.8502 32.8047 11.7426 33.7832 10.8874 36.2139C10.2537 38.1754 10.8874 40.0028 13.9448 41.866C21.9607 46.7363 23.1527 49.0776 25.0492 54.0372C26.9102 58.9074 33.4018 60.7706 39.0603 56.8208C40.9816 55.5144 42.4953 53.6844 43.425 51.544C43.6111 52.5941 43.7075 53.6585 43.713 54.7253V55.2034H45.5873V54.7253C45.5982 52.2563 45.1783 49.8047 44.3466 47.4825Z" fill="#ED1C24"/>
<path d="M44.3642 47.0176C44.385 45.5109 44.0984 44.0159 43.5223 42.6255C44.9194 43.213 46.4134 43.5312 47.9268 43.5638C46.8102 37.7061 42.8266 33.1978 35.7014 30.5214C33.6931 29.781 31.6269 29.2116 29.5244 28.819C29.8025 30.6023 30.292 32.3454 30.9823 34.011C31.6467 35.6605 32.461 37.2445 33.4149 38.7427C35.5552 42.0848 38.2892 44.6451 41.6967 46.1195C42.5135 47.8405 43.0949 49.6652 43.4248 51.5438C43.611 52.594 43.7073 53.6583 43.7128 54.7251V55.2032H45.5872V54.7251C45.6024 52.257 45.1869 49.8054 44.3598 47.4823C44.3554 47.3304 44.3598 47.174 44.3642 47.0176Z" fill="#EB8350"/>
<path d="M35.7017 30.5214C35.7098 32.4803 36.1646 34.4112 37.031 36.1646C37.703 37.6642 38.6416 39.0271 39.8004 40.1859C40.8888 41.204 42.1455 42.0221 43.5137 42.6031C44.9108 43.1906 46.4048 43.5089 47.9182 43.5414C46.8104 37.7061 42.8269 33.1978 35.7017 30.5214Z" fill="#DE6940"/>
<path d="M44.3462 47.4823C44.3462 47.3304 44.3462 47.174 44.3462 47.0355C44.3669 45.5288 44.0804 44.0338 43.5042 42.6434C43.2489 41.9979 42.925 41.3822 42.5383 40.807C41.1026 38.8357 39.2161 37.2432 37.0393 36.1646C35.1168 35.1955 33.082 34.4721 30.9819 34.011C31.6463 35.6605 32.4607 37.2445 33.4146 38.7427C35.5548 42.0849 38.2888 44.6451 41.6963 46.1196C42.5132 47.8405 43.0945 49.6652 43.4245 51.5438C43.6106 52.594 43.707 53.6583 43.7125 54.7251V55.2032H45.5869V54.7251C45.5977 52.2562 45.1778 49.8045 44.3462 47.4823Z" fill="#D9292C"/>
<path d="M39.8092 40.2124C40.8976 41.2305 42.1543 42.0486 43.5225 42.6297C43.2607 41.988 42.9309 41.3768 42.5388 40.8067C41.1031 38.8354 39.2167 37.2429 37.0398 36.1643C37.709 37.6735 38.6477 39.0457 39.8092 40.2124Z" fill="#C1272A"/>
<path d="M64.5209 36.0884C61.73 36.4017 59.0889 37.5238 56.9172 39.3189C55.4505 40.561 54.0192 42.9648 53.5673 45.7485C53.421 46.0836 53.2837 46.4321 53.1242 46.7851C53.112 46.808 53.1016 46.8319 53.0931 46.8566C52.5347 48.3168 52.1379 49.8347 51.91 51.3827C51.7433 52.4918 51.6603 53.6121 51.6619 54.7338V55.2074H53.5362V54.7338C53.5497 53.4275 53.6982 52.1262 53.9794 50.851C54.0857 50.3417 54.2098 49.8368 54.3516 49.3364C55.1538 48.9475 56.0362 48.7561 56.926 48.7778C61.53 48.9164 63.2005 52.3791 63.874 55.0332C64.1226 56.034 64.4394 57.0164 64.8223 57.9732C66.0099 57.7861 67.1469 57.3558 68.1633 56.7087C69.2724 56.0221 70.1808 55.0506 70.7954 53.8938C72.1912 51.1325 73.6357 48.2506 76.445 46.3829C79.5911 44.2874 81.43 44.2472 81.43 42.3616C81.4123 39.7344 72.6963 35.0295 64.5209 36.0884Z" fill="#2F9E49"/>
<path d="M66.0719 20.9148C65.5814 21.0804 65.1172 21.3167 64.6938 21.6163C63.1499 22.7118 61.6949 23.9295 60.3425 25.2578C59.2239 26.3283 58.162 27.4573 57.161 28.6401C54.1744 32.2146 50.5143 38.0232 49.5971 43.4832C49.5484 43.7781 49.504 44.0775 49.473 44.3768C49.3573 45.4255 49.3144 46.4811 49.3445 47.5358C50.5246 47.4763 51.6936 47.2769 52.8274 46.9415L53.1287 46.7896C53.1165 46.8126 53.1061 46.8365 53.0977 46.8611C52.538 48.3197 52.1398 49.8361 51.9101 51.3828C51.7434 52.4919 51.6604 53.6121 51.662 54.7339V55.2075H53.5363V54.7339C53.5498 53.4276 53.6983 52.1263 53.9794 50.8511C54.0858 50.3417 54.2099 49.8368 54.3517 49.3364C54.6805 48.1966 55.106 47.0874 55.6234 46.0211C55.6544 45.9585 55.681 45.8915 55.712 45.829C59.7327 43.7826 62.8711 40.3224 64.5343 36.1019C65.2392 34.3786 65.7462 32.5797 66.0453 30.7402C66.5099 27.4824 66.5188 24.175 66.0719 20.9148Z" fill="#9FC13F"/>
<path d="M57.1606 28.6404C54.174 32.2148 50.5139 38.0234 49.5967 43.4834C54.8165 42.7909 58.5475 38.1217 59.7262 33.0057C60.289 30.4648 60.486 27.8555 60.3111 25.258C59.2031 26.3293 58.1515 27.4583 57.1606 28.6404Z" fill="#AD9D42"/>
<path d="M56.9172 39.3191C55.4505 40.5612 54.0192 42.9651 53.5673 45.7487C53.421 46.0838 53.2837 46.4323 53.1242 46.7853C53.112 46.8083 53.1016 46.8322 53.0931 46.8568C52.5347 48.317 52.1379 49.8349 51.91 51.383C51.7433 52.4921 51.6603 53.6123 51.6619 54.7341V55.2077H53.5362V54.7341C53.5497 53.4278 53.6982 52.1265 53.9794 50.8513C54.0857 50.3419 54.2098 49.837 54.3516 49.3366C54.6805 48.1968 55.1059 47.0876 55.6233 46.0213C55.6543 45.9587 55.6809 45.8917 55.7119 45.8291C59.7327 43.7827 62.871 40.3225 64.5342 36.1021C61.7401 36.4089 59.0942 37.5264 56.9172 39.3191Z" fill="#008D51"/>
<path d="M56.6387 63.7551C57.6297 65.5132 58.126 67.5107 58.0743 69.5323C58.0743 69.6217 58.0743 69.7066 58.0743 69.7915C58.3624 69.8585 58.6592 69.9166 58.9606 69.9613C59.9475 70.1105 60.9414 70.2089 61.9382 70.2562C61.7147 68.2854 61.1792 66.3635 60.3519 64.5638C59.0834 64.4661 57.8341 64.194 56.6387 63.7551Z" fill="#923938"/>
<path d="M56.6388 63.7553C54.8957 63.1206 53.3669 62.0005 52.2298 60.5249C51.8036 59.9748 51.445 59.3747 51.1619 58.7376C50.7737 57.8667 50.5513 56.93 50.5061 55.9763C49.6023 55.6904 48.671 55.5017 47.7278 55.4133C47.6724 56.2701 47.6962 57.1302 47.7987 57.9825C47.7987 58.1031 47.7987 58.2193 47.8386 58.34C48.5077 63.094 51.9329 68.4468 58.0567 69.8051C58.0567 69.7202 58.0567 69.6354 58.0567 69.546C58.1163 67.5215 57.6259 65.5192 56.6388 63.7553Z" fill="#803039"/>
<path d="M67.9238 62.9193C67.8086 62.8076 67.7067 62.6825 67.596 62.5618C66.3992 61.2073 65.4536 59.647 64.8044 57.9552C64.4216 56.9984 64.1047 56.016 63.8561 55.0152C63.1826 52.3701 61.5121 48.9073 56.9082 48.7598C56.0183 48.7381 55.136 48.9295 54.3337 49.3184C54.0982 49.4346 53.8702 49.5659 53.6513 49.7116C52.9756 50.1507 52.3854 50.711 51.9099 51.3648C50.938 52.6918 50.4455 54.3142 50.5141 55.9624C50.5593 56.9162 50.7817 57.8528 51.1699 58.7237C51.453 59.3607 51.8116 59.9609 52.2378 60.511C53.3749 61.9866 54.9037 63.1067 56.6467 63.7414C57.8365 64.1788 59.0797 64.4508 60.3423 64.5501C62.6362 64.7003 64.9398 64.5319 67.1883 64.0497C68.6018 63.7995 68.655 63.661 67.9238 62.9193Z" fill="#79242F"/>
<path d="M64.8049 57.9558C65.4542 59.6476 66.3998 61.2079 67.5965 62.5624C68.8884 62.3003 70.1321 61.8375 71.2832 61.1907C70.0292 59.8501 68.9727 58.3348 68.146 56.6913C67.1296 57.3383 65.9925 57.7687 64.8049 57.9558Z" fill="#9F4040"/>
<path d="M57.4535 45.8559C56.8343 45.8549 56.2161 45.9072 55.6057 46.0123C55.0884 47.0786 54.6629 48.1878 54.334 49.3276C55.1363 48.9388 56.0186 48.7474 56.9085 48.7691C61.5124 48.9076 63.1829 52.3704 63.8565 55.0245C64.1051 56.0254 64.4219 57.0077 64.8047 57.9645C65.9923 57.7774 67.1294 57.3471 68.1458 56.7001C67.9286 56.289 67.7027 55.8556 67.5033 55.3954C65.5358 51.1462 63.7147 45.8559 57.4535 45.8559Z" fill="#4F5B3B"/>
<path d="M44.1644 57.705C44.0581 60.0865 42.2502 64.8539 39.2902 64.8539C37.1323 64.8539 35.4573 62.9505 35.3022 60.8729C37.9299 61.4671 40.5619 60.8505 40.9164 57.7899C40.9164 57.7899 40.9164 57.7452 40.9164 57.7184L44.1644 57.705ZM45.0994 57.705C44.8434 60.3076 43.9379 62.8024 42.4673 64.9567C43.5707 67.3829 46.0122 69.818 48.6177 71.3461C51.2409 69.818 53.6647 67.3829 54.7681 64.9567C53.297 62.803 52.3928 60.3077 52.1404 57.705H45.0994ZM56.3101 57.7765C56.3101 57.7765 56.3101 57.7318 56.3101 57.705H53.0798C53.1861 60.0865 54.994 64.8539 57.954 64.8539C60.1075 64.8539 61.7825 62.9505 61.942 60.8729C59.3011 61.4537 56.6646 60.8371 56.3101 57.7765ZM64.0689 39.0104C57.0855 39.0104 53.0621 48.1432 53.0621 54.7426H52.136C52.136 45.7036 57.183 42.5581 57.183 36.5038C57.183 33.5861 55.6498 30.2485 52.4284 27.8044C51.0764 26.8052 49.8024 25.7028 48.6177 24.507C47.433 25.7028 46.159 26.8052 44.8069 27.8044C41.5855 30.2395 40.0524 33.5861 40.0524 36.5038C40.0524 42.5581 45.0994 45.7036 45.0994 54.7426H44.1733C44.1733 48.1432 40.1498 39.0194 33.1664 39.0104C28.1903 39.0104 24.7473 43.7913 25.7842 48.5409C26.471 51.7222 29.3291 54.5103 32.7632 54.0322C32.1827 51.8294 33.2063 49.3496 35.5858 49.0011C38.3552 48.599 40.0169 51.4586 40.5575 54.7426H40.5088C40.2385 54.7426 39.9792 54.8509 39.7881 55.0436C39.597 55.2363 39.4896 55.4977 39.4896 55.7703C39.4896 56.0428 39.597 56.3042 39.7881 56.497C39.9792 56.6897 40.2385 56.798 40.5088 56.798H56.7177C56.988 56.798 57.2473 56.6897 57.4384 56.497C57.6295 56.3042 57.7369 56.0428 57.7369 55.7703C57.7369 55.4977 57.6295 55.2363 57.4384 55.0436C57.2473 54.8509 56.988 54.7426 56.7177 54.7426H56.669C57.1874 51.4586 58.8845 48.599 61.6407 49.0011C64.0379 49.3496 65.0438 51.8294 64.4633 54.0322C67.8797 54.5103 70.7555 51.7222 71.4423 48.5409C72.4792 43.7868 69.0451 38.9881 64.0689 38.9926V39.0104Z" fill="white"/>
<path d="M27.5926 99.6385C26.2888 99.3084 24.949 99.1448 23.6047 99.1515C21.4201 99.1515 20.7909 99.576 20.7909 100.59C20.7909 101.524 21.2119 101.864 23.7509 102.136C27.0875 102.516 28.5763 103.807 28.5763 106.604C28.5763 110.241 26.6444 111.408 22.0936 111.408C20.4868 111.426 18.887 111.191 17.3524 110.71L18.0436 107.788C19.3481 108.115 20.6875 108.279 22.0316 108.275C24.2161 108.275 24.9074 107.958 24.9074 106.837C24.9074 105.907 24.5086 105.46 21.7613 105.166C18.633 104.826 17.1663 103.789 17.1663 101.059C17.1663 97.4 19.2622 96.006 23.6047 96.006C25.1915 95.9826 26.7716 96.218 28.2839 96.703L27.5926 99.6385ZM38.6172 110.809C37.4569 111.22 36.2357 111.428 35.0059 111.425C31.5718 111.425 29.2809 110 29.2809 105.242C29.2809 100.483 31.5851 99.1917 35.0059 99.1917C36.23 99.1803 37.4494 99.3474 38.6261 99.6877L37.9038 102.632C37.0673 102.33 36.1868 102.17 35.2983 102.159C33.6145 102.159 32.7593 102.453 32.7593 105.286C32.7593 108.003 33.6145 108.414 35.2983 108.414C36.1916 108.406 37.0755 108.228 37.9038 107.891L38.6172 110.809ZM38.8787 105.215C38.8787 100.532 40.7885 99.1917 44.4486 99.1917C48.1795 99.1917 50.0716 100.532 50.0716 105.242C50.0716 109.951 48.2106 111.425 44.4574 111.425C40.7043 111.425 38.8787 110 38.8787 105.242V105.215ZM42.3615 105.286C42.3615 108.204 42.8312 108.682 44.4486 108.682C46.0659 108.682 46.5622 108.204 46.5622 105.286C46.5622 102.248 46.0881 101.886 44.4486 101.886C42.809 101.886 42.3615 102.275 42.3615 105.313V105.286ZM58.1938 99.4777H61.5925V110.407C59.7186 111.057 57.7557 111.408 55.7745 111.448C52.5841 111.448 51.0553 110.107 51.0553 105.943V99.5134H54.5027V105.675C54.5027 107.757 54.8616 108.356 56.5455 108.356C57.1061 108.343 57.6635 108.267 58.2071 108.128L58.1938 99.4777ZM66.2939 102.467V106.792C66.2939 107.972 66.6307 108.445 67.8448 108.445C68.4711 108.445 69.0928 108.338 69.6837 108.128L70.2464 110.809C69.1386 111.212 67.968 111.412 66.7902 111.399C64.2512 111.399 62.8332 110.63 62.8332 107.163V97.467L66.2939 96.0641V99.5134H69.8875V102.503L66.2939 102.467ZM79.1441 102.377C78.0377 102.069 76.8975 101.901 75.7499 101.877C74.6731 101.877 74.1325 101.966 74.1325 102.873C74.1325 103.486 74.4471 103.646 76.224 103.87C78.8827 104.209 80.0835 105.027 80.0835 107.404C80.0835 110.532 77.8413 111.39 74.9434 111.39C73.5567 111.381 72.1787 111.167 70.8535 110.755L71.527 108.128C72.5876 108.429 73.6823 108.589 74.7839 108.606C76.1132 108.606 76.7602 108.49 76.7602 107.587C76.7602 106.953 76.3791 106.694 74.4693 106.519C72.0676 106.296 70.787 105.59 70.787 103.124C70.787 99.996 73.0026 99.1605 75.8872 99.1605C77.2215 99.1718 78.5465 99.3857 79.8176 99.7949L79.1441 102.377Z" fill="white"/>
<path d="M32.0898 118.623H29.8743C29.728 119.07 29.5995 119.517 29.4843 119.897H28.4829C28.9526 118.373 29.6926 116.322 30.3085 114.794H31.8107C32.3291 116.434 33.0691 118.534 33.6363 119.897H32.5728C32.431 119.53 32.2538 119.088 32.0898 118.623ZM30.9112 115.612C30.6586 116.273 30.3883 117.028 30.1268 117.792H31.8107C31.5492 117.042 31.3055 116.273 31.1106 115.612H30.9112ZM38.1073 118.351C38.1073 119.691 37.3052 119.999 35.9803 119.999C34.6554 119.999 33.8534 119.691 33.8534 118.351V114.776H34.8194V118.185C34.8194 118.869 35.1163 119.079 35.9803 119.079C36.8444 119.079 37.1501 118.891 37.1501 118.185V114.776H38.1073V118.351ZM42.1529 115.723C41.721 115.597 41.2731 115.535 40.8235 115.54C40.0215 115.54 39.6847 115.706 39.6847 116.206C39.6847 116.59 39.8753 116.769 40.7969 116.854C41.9712 116.979 42.4941 117.421 42.4941 118.386C42.4941 119.588 41.7673 119.991 40.3095 119.991C39.7768 119.994 39.2465 119.918 38.7365 119.763L38.9447 118.927C39.3776 119.049 39.8248 119.11 40.2741 119.11C41.0805 119.11 41.4439 118.963 41.4439 118.436C41.4439 118.056 41.2622 117.815 40.2874 117.725C39.1707 117.618 38.6479 117.278 38.6479 116.322C38.6479 115.12 39.3878 114.66 40.8014 114.66C41.3252 114.659 41.8463 114.736 42.3478 114.888L42.1529 115.723ZM44.5501 119.888V115.621H42.8441V114.785H47.222V115.621H45.5161V119.888H44.5501ZM52.2159 119.888H51.0328C50.2396 118.489 49.7699 117.94 49.442 117.94H48.7685V119.888H47.8069V114.794H50.4656C51.5335 114.794 51.8747 115.46 51.8747 116.278C51.8969 116.462 51.8783 116.648 51.8202 116.824C51.7622 117 51.666 117.161 51.5388 117.295C51.4116 117.428 51.2565 117.532 51.0847 117.598C50.9128 117.664 50.7286 117.691 50.5454 117.676C50.8733 117.801 51.3297 118.404 52.2159 119.897V119.888ZM48.7685 117.14H50.1953C50.5675 117.14 50.7846 116.894 50.7846 116.394C50.7846 115.893 50.5764 115.603 50.2175 115.603H48.7685V117.14ZM56.0576 118.614H53.8421C53.6959 119.061 53.5674 119.508 53.4522 119.888H52.4507C52.9204 118.364 53.6604 116.313 54.2763 114.785H55.7829C56.2969 116.425 57.0369 118.525 57.6041 119.888H56.5451C56.3988 119.53 56.2216 119.088 56.0576 118.623V118.614ZM54.879 115.603C54.6264 116.264 54.3561 117.019 54.0991 117.783H55.7829C55.5215 117.033 55.2733 116.264 55.0784 115.603H54.879ZM59.1373 114.785V119.043H61.5256V119.888H58.1757V114.794L59.1373 114.785ZM63.2094 114.785V119.888H62.2523V114.794L63.2094 114.785ZM67.2816 118.614H65.0661C64.9243 119.061 64.7913 119.508 64.6761 119.888H63.6747C64.1444 118.364 64.8888 116.313 65.5048 114.785H67.0069C67.5209 116.425 68.2609 118.525 68.8281 119.888H67.769C67.6228 119.53 67.45 119.088 67.2816 118.623V118.614ZM66.1074 115.603C65.8504 116.264 65.5845 117.019 65.3231 117.783H67.0069C66.7455 117.033 66.4973 116.264 66.3024 115.603H66.1074Z" fill="white"/>
</g>
<defs>
<clipPath id="clip0">
<rect width="93" height="120" fill="white"/>
</clipPath>
</defs>
</svg>
