<svg width="80" height="94" fill="none" xmlns="http://www.w3.org/2000/svg"><g clip-path="url(#clip0)"><path d="M1.727 1.727h76.546v52.086a38.273 38.273 0 11-76.546 0V1.727z" fill="url(#paint0_linear)"/><path d="M78.273 1.727v52.086a38.273 38.273 0 11-76.546 0V1.727h76.546z" fill="url(#paint1_linear)"/><path d="M73.318 72.673A38.291 38.291 0 011.727 53.882V41.796l19.188-21.698a2.301 2.301 0 013.413-.046l48.99 52.621z" fill="url(#paint2_linear)"/><path d="M70.285 70.083a38.263 38.263 0 01-37.802 19.258L22.365 20.478a.869.869 0 011.497-.72l46.423 50.325z" fill="url(#paint3_linear)"/><path d="M78.222 46.469v7.574A38.29 38.29 0 0150.52 90.837L31.2 68.552l17.41-25.358a.575.575 0 00-.046-.714l-5.255-2.44a.576.576 0 01.26-.903l8.23-5.37a.575.575 0 00.39-.68l-4.471-19.62h.196L78.222 46.47z" fill="url(#paint4_linear)"/><path d="M51.839 33.767l-8.282 5.318a.577.577 0 00-.26.932l5.296 2.463a.575.575 0 01.046.714l-26.274 39.01A38.348 38.348 0 016.521 61.21L47.77 13.467l4.483 19.62a.575.575 0 01-.414.68z" fill="url(#paint5_linear)"/><path d="M74.245 70.895a38.348 38.348 0 01-13.416 15.022L41.11 54.445l7.712-11.465 25.422 27.914z" fill="url(#paint6_linear)"/><path d="M49.916 22.688l2.343 10.25 18.308 19.275-3.212-10.682-17.439-18.843z" fill="url(#paint7_linear)"/><path d="M78.164 57.583a37.928 37.928 0 01-5.41 16.403l-.259.086c-56.07 11.89-50.578-30.71-50.578-30.71 5.059 33.956 55.251 14.612 55.251 14.612l.996-.391z" fill="url(#paint8_linear)"/><path d="M5.755 70.791C1.911 56.76 21.928 43.166 21.928 43.166s-5.485 42.59 50.584 30.71l.248-.063a38.25 38.25 0 01-32.806 18.365 38.263 38.263 0 01-34.13-21.197l-.069-.19z" fill="#B0E1E2"/><path d="M64.765 20.639a5.473 5.473 0 100-10.947 5.473 5.473 0 000 10.947z" fill="url(#paint9_linear)"/><path d="M40 93.813a40.046 40.046 0 01-40-40V0h80v53.813a39.54 39.54 0 01-4.201 17.842A40 40 0 0140 93.813zM3.453 3.453v50.36a36.552 36.552 0 0069.26 16.31 36.121 36.121 0 003.834-16.31V3.453H3.453z" fill="#FFF9EF"/></g><defs><linearGradient id="paint0_linear" x1="19.833" y1="85.732" x2="55.281" y2="-10.089" gradientUnits="userSpaceOnUse"><stop offset=".49" stop-color="#EFD3B7"/><stop offset="1" stop-color="#FFF9EF"/></linearGradient><linearGradient id="paint1_linear" x1="2639.53" y1="13461.7" x2="8911.95" y2="-901.961" gradientUnits="userSpaceOnUse"><stop offset=".49" stop-color="#EFD3B7"/><stop offset="1" stop-color="#FFF9EF"/></linearGradient><linearGradient id="paint2_linear" x1="29.37" y1="103.01" x2="41.888" y2="32.714" gradientUnits="userSpaceOnUse"><stop offset=".41" stop-color="#7AC577"/><stop offset="1" stop-color="#A5D88C"/></linearGradient><linearGradient id="paint3_linear" x1="44.351" y1="62.82" x2="25.974" y2="18.676" gradientUnits="userSpaceOnUse"><stop offset=".24" stop-color="#3C726F"/><stop offset=".36" stop-color="#427771"/><stop offset=".53" stop-color="#528775"/><stop offset=".71" stop-color="#6CA07C"/><stop offset=".9" stop-color="#90C486"/><stop offset="1" stop-color="#A5D88C"/></linearGradient><linearGradient id="paint4_linear" x1="43.649" y1="8.46" x2="60.587" y2="83.568" gradientUnits="userSpaceOnUse"><stop stop-color="#64AB81"/><stop offset=".95" stop-color="#1B2F4A"/></linearGradient><linearGradient id="paint5_linear" x1="19.637" y1="72.633" x2="48.437" y2="-1.376" gradientUnits="userSpaceOnUse"><stop offset=".06" stop-color="#135243"/><stop offset=".7" stop-color="#A5D88C"/></linearGradient><linearGradient id="paint6_linear" x1="57.635" y1="57.283" x2="57.013" y2="-6.498" gradientUnits="userSpaceOnUse"><stop stop-color="#A5D88C" stop-opacity="0"/><stop offset=".94" stop-color="#135243"/></linearGradient><linearGradient id="paint7_linear" x1="41.082" y1="-3.93" x2="62.678" y2="43.42" gradientUnits="userSpaceOnUse"><stop stop-color="#135243"/><stop offset="1" stop-color="#A5D88C" stop-opacity="0"/></linearGradient><linearGradient id="paint8_linear" x1="-54.162" y1="50.043" x2="63.924" y2="62.674" gradientUnits="userSpaceOnUse"><stop offset=".23" stop-color="#3D5C92"/><stop offset="1" stop-color="#A0D5D9"/></linearGradient><linearGradient id="paint9_linear" x1="62.055" y1="14.435" x2="76.996" y2="18.463" gradientUnits="userSpaceOnUse"><stop stop-color="#F9C591"/><stop offset="1" stop-color="#F89D69"/></linearGradient><clipPath id="clip0"><path fill="#fff" d="M0 0h80v93.813H0z"/></clipPath></defs></svg>