<svg width="88" height="88" viewBox="0 0 88 88" fill="none" xmlns="http://www.w3.org/2000/svg">
<g clip-path="url(#clip0)">
<g opacity="0.6">
<path d="M43.9984 -4.15566e-05C35.2943 -0.00822983 26.7833 2.56536 19.5421 7.39516C12.3009 12.225 6.65485 19.094 3.31824 27.1332C-0.0183599 35.1724 -0.895614 44.0206 0.797458 52.5585C2.49053 61.0964 6.67786 68.9403 12.8297 75.098C18.9816 81.2556 26.8215 85.4503 35.3578 87.1515C43.8941 88.8526 52.7432 87.9836 60.7855 84.6546C68.8279 81.3256 75.7022 75.686 80.5388 68.4493C85.3754 61.2127 87.957 52.7041 87.957 44C87.9461 32.341 83.3126 21.162 75.0723 12.914C66.832 4.66592 55.6574 0.0218687 43.9984 -4.15566e-05ZM43.9984 84.8541C35.9153 84.8562 28.0132 82.461 21.2914 77.9715C14.5697 73.4821 9.33039 67.1 6.23617 59.6326C3.14195 52.1651 2.33182 43.9478 3.90826 36.0199C5.48469 28.092 9.37687 20.8097 15.0925 15.094C20.8081 9.37839 28.0904 5.48621 36.0184 3.90977C43.9463 2.33334 52.1636 3.14346 59.6311 6.23768C67.0985 9.33191 73.4806 14.5712 77.97 21.2929C82.4595 28.0147 84.8547 35.9168 84.8526 44C84.8389 54.831 80.5303 65.2144 72.8716 72.8731C65.2129 80.5318 54.8294 84.8404 43.9984 84.8541Z" fill="#222D65"/>
<path d="M51.2201 14.0526H51.0442C45.9014 12.8444 40.534 12.9809 35.4592 14.449C30.3844 15.9171 25.7732 18.6672 22.0696 22.4345C21.9419 22.5296 21.8271 22.6409 21.7281 22.7656C17.0526 27.6775 14.1291 33.9953 13.4113 40.7386C12.6935 47.4819 14.2216 54.2736 17.7584 60.0596C21.2951 65.8457 26.6428 70.3025 32.9716 72.7386C39.3003 75.1746 46.2561 75.4536 52.7596 73.5322C59.2631 71.6108 64.9506 67.5965 68.9394 62.1123C72.9282 56.6281 74.9952 49.9806 74.8197 43.2015C74.6443 36.4224 72.2361 29.8907 67.969 24.6202C63.7018 19.3496 57.8143 15.6349 51.2201 14.0526ZM38.0988 23.0347L39.0612 27.0497L34.7564 30.0817L32.6143 29.5126L31.0414 26.5737C30.8987 26.3086 30.6833 26.0896 30.4205 25.9425L25.6501 23.3037C30.6513 18.8498 37.1037 16.3704 43.8006 16.3291L42.5278 16.7741C42.2434 16.8767 41.9927 17.0558 41.8034 17.2915L38.3885 21.7308C38.2425 21.9149 38.1405 22.13 38.0903 22.3595C38.04 22.5891 38.043 22.8271 38.0988 23.0554V23.0347ZM43.9972 71.6913C38.6587 71.6995 33.4319 70.1626 28.9474 67.2662C24.463 64.3697 20.9125 60.2374 18.7244 55.3679C16.5364 50.4984 15.8042 45.0997 16.6163 39.8233C17.4284 34.5469 19.75 29.6183 23.3011 25.6321L28.4751 28.4778L30.1515 31.5822C30.2534 31.769 30.3921 31.9332 30.5593 32.0648C30.7265 32.1964 30.9187 32.2927 31.1242 32.3479L34.6322 33.2896C34.766 33.3098 34.902 33.3098 35.0358 33.2896C35.3574 33.2907 35.6716 33.1932 35.936 33.0102L41.7413 28.9745C41.9969 28.7933 42.1926 28.5398 42.3032 28.2467C42.4138 27.9535 42.4344 27.634 42.3622 27.3291L41.3274 23.014L44.0075 19.5577L50.8476 17.157C57.3732 18.832 63.0639 22.8294 66.8532 28.4C70.6424 33.9705 72.27 40.7317 71.4309 47.4164C70.5918 54.1011 67.3437 60.2503 62.2952 64.7115C57.2468 69.1727 50.7447 71.6397 44.0075 71.6499" fill="#222D65"/>
<path d="M48.996 36.7253H58.9198C59.288 36.665 59.6227 36.4758 59.8643 36.1915C60.1058 35.9071 60.2384 35.5462 60.2384 35.1731C60.2384 34.8 60.1058 34.4391 59.8643 34.1548C59.6227 33.8705 59.288 33.6812 58.9198 33.6209H48.996C48.658 33.6196 48.3271 33.5232 48.0413 33.3427C47.7555 33.1621 47.5262 32.9048 47.3798 32.6C47.2335 32.2953 47.1758 31.9555 47.2135 31.6196C47.2512 31.2836 47.3827 30.9651 47.593 30.7004C47.8033 30.4357 48.0838 30.2355 48.4025 30.1228C48.7213 30.0101 49.0653 29.9894 49.3952 30.0631C49.7251 30.1367 50.0277 30.3018 50.2682 30.5394C50.5087 30.7769 50.6775 31.0774 50.7552 31.4064C50.854 31.8112 51.1096 32.1602 51.4657 32.3766C51.8218 32.593 52.2492 32.659 52.6541 32.5602C53.0589 32.4614 53.4078 32.2059 53.6242 31.8498C53.8406 31.4937 53.9067 31.0662 53.8079 30.6614C53.5958 29.7579 53.1334 28.9325 52.4736 28.2799C51.8138 27.6273 50.9834 27.1739 50.0776 26.9718C49.1719 26.7697 48.2276 26.8269 47.3529 27.1371C46.4782 27.4472 45.7087 27.9976 45.1326 28.7252C44.5566 29.4527 44.1972 30.3279 44.0959 31.2504C43.9946 32.1729 44.1554 33.1052 44.5598 33.9404C44.9642 34.7757 45.5959 35.48 46.3824 35.9726C47.1689 36.4652 48.0784 36.7261 49.0064 36.7253" fill="#222D65"/>
<path d="M35.0576 56.428H27.6381C27.3007 56.4305 26.9694 56.3387 26.6815 56.163C26.3935 55.9873 26.1604 55.7346 26.0083 55.4335C25.8562 55.1324 25.7913 54.7948 25.8208 54.4588C25.8503 54.1228 25.973 53.8016 26.1752 53.5316C26.3774 53.2616 26.651 53.0535 26.9652 52.9306C27.2794 52.8077 27.6216 52.7751 27.9533 52.8363C28.285 52.8975 28.5931 53.0501 28.8427 53.277C29.0924 53.5039 29.2737 53.796 29.3662 54.1204C29.4815 54.5197 29.7506 54.8569 30.1145 55.0577C30.4784 55.2586 30.9071 55.3067 31.3064 55.1914C31.7058 55.0761 32.0429 54.807 32.2438 54.4431C32.4447 54.0792 32.4927 53.6505 32.3775 53.2511C32.1218 52.3705 31.6259 51.5786 30.9453 50.964C30.2648 50.3495 29.4265 49.9366 28.5244 49.7718C27.6224 49.607 26.6923 49.6967 25.8384 50.0309C24.9844 50.365 24.2405 50.9305 23.6899 51.6638C23.1394 52.397 22.8039 53.2692 22.7213 54.1824C22.6386 55.0957 22.812 56.0139 23.2219 56.8341C23.6318 57.6544 24.2622 58.3442 25.0422 58.8263C25.8222 59.3084 26.7211 59.5636 27.6381 59.5635H35.0576C35.4258 59.5032 35.7605 59.3139 36.0021 59.0296C36.2436 58.7453 36.3762 58.3843 36.3762 58.0113C36.3762 57.6382 36.2436 57.2773 36.0021 56.9929C35.7605 56.7086 35.4258 56.5194 35.0576 56.4591" fill="#222D65"/>
<path d="M62.2098 40.3573C61.9726 40.3514 61.7372 40.3985 61.5205 40.4952C61.3039 40.5919 61.1116 40.7357 60.9576 40.9161L57.2427 45.4072L56.3217 44.3724L57.3565 41.3922C57.4409 41.1482 57.4635 40.8872 57.4224 40.6325C57.3812 40.3777 57.2776 40.137 57.1208 39.9321C56.964 39.7271 56.7589 39.5641 56.5237 39.4578C56.2886 39.3514 56.0307 39.305 55.7733 39.3225L45.5287 39.9848C45.2783 39.9995 45.0353 40.075 44.8207 40.2049C44.6061 40.3347 44.4264 40.5149 44.2972 40.7299L41.1928 45.9039L38.5644 48.5323C38.3564 48.741 38.2111 49.004 38.1453 49.2912C38.0794 49.5785 38.0955 49.8785 38.1919 50.157L40.2615 56.014C40.3813 56.3516 40.6128 56.6382 40.9176 56.8263C41.2225 57.0145 41.5824 57.093 41.9379 57.0488L48.333 56.252L49.6265 56.9764L50.6613 60.9086C50.7263 61.1643 50.8555 61.3992 51.0366 61.5912C51.2176 61.7831 51.4446 61.9257 51.6961 62.0055L57.3255 63.8371C57.481 63.8947 57.646 63.9228 57.8118 63.9199C58.2357 63.9155 58.6409 63.7445 58.9398 63.4439C59.778 62.5643 67.1044 54.7826 66.3593 49.2153C66.085 46.2698 65.1131 43.432 63.524 40.9368C63.3678 40.7415 63.1667 40.5868 62.9379 40.4859C62.7091 40.3851 62.4593 40.3409 62.2098 40.3573ZM57.2427 60.5671L53.3725 59.3047L52.4101 55.5587C52.3579 55.3547 52.265 55.1634 52.1369 54.9962C52.0089 54.8291 51.8484 54.6895 51.6651 54.5859L49.3368 53.2821C49.0448 53.117 48.7069 53.0516 48.3744 53.0958L42.7243 53.8098L41.3894 50.0431L43.4591 47.9735C43.5492 47.889 43.6259 47.7913 43.6867 47.6838L46.5635 43.0789L53.6519 42.6236L53.0931 44.2689C53.0018 44.5366 52.9843 44.8241 53.0426 45.1009C53.1009 45.3777 53.2327 45.6337 53.4242 45.8418L56.1872 48.8221C56.3366 48.9875 56.5208 49.1179 56.7265 49.2038C56.9323 49.2896 57.1545 49.3289 57.3772 49.3188C57.5989 49.3126 57.8167 49.2596 58.0165 49.1633C58.2162 49.067 58.3933 48.9296 58.5362 48.76L61.8993 44.7035C62.5257 46.2975 62.9364 47.9679 63.1204 49.6706C63.5033 52.506 59.9332 57.5765 57.2116 60.5982" fill="#222D65"/>
<path d="M52.4427 64.158L51.3458 64.8203C51.05 64.9951 50.8199 65.2626 50.6915 65.5814C50.563 65.9001 50.5431 66.2524 50.6351 66.5835C50.727 66.9147 50.9255 67.2063 51.1999 67.4132C51.4743 67.6201 51.8093 67.7308 52.153 67.7281C52.4346 67.728 52.7106 67.6491 52.9498 67.5005L54.057 66.8382C54.233 66.7322 54.3864 66.5926 54.5084 66.4273C54.6305 66.262 54.7187 66.0743 54.7682 65.8749C54.8177 65.6755 54.8274 65.4684 54.7968 65.2652C54.7663 65.0621 54.696 64.8669 54.59 64.6909C54.484 64.515 54.3444 64.3616 54.1791 64.2396C54.0138 64.1175 53.8261 64.0293 53.6267 63.9798C53.4273 63.9303 53.2202 63.9206 53.017 63.9511C52.8139 63.9817 52.6187 64.052 52.4427 64.158Z" fill="#222D65"/>
</g>
</g>
<defs>
<clipPath id="clip0">
<path d="M0 0H88V88H0V0Z" fill="white"/>
</clipPath>
</defs>
</svg>
