<svg width="88" height="88" viewBox="0 0 88 88" fill="none" xmlns="http://www.w3.org/2000/svg">
<g clip-path="url(#clip0)">
<g opacity="0.6">
<path d="M55.92 37.6138C56.6254 37.6076 57.3166 37.8111 57.9061 38.1982C58.4956 38.5854 58.9566 39.1388 59.2308 39.7883C59.505 40.4379 59.58 41.1541 59.4461 41.8463C59.3123 42.5384 58.9758 43.1752 58.4792 43.6759C57.9826 44.1765 57.3484 44.5185 56.657 44.6583C55.9657 44.7981 55.2484 44.7295 54.5961 44.4611C53.9438 44.1928 53.386 43.7369 52.9935 43.1511C52.6009 42.5654 52.3914 41.8764 52.3913 41.1714C52.3886 40.7061 52.4778 40.2448 52.6538 39.8139C52.8298 39.3831 53.0891 38.9912 53.4169 38.6607C53.7447 38.3302 54.1345 38.0676 54.5641 37.888C54.9936 37.7083 55.4544 37.6151 55.92 37.6138ZM55.92 47.873C57.2509 47.8833 58.5548 47.4981 59.6662 46.7664C60.7777 46.0347 61.6465 44.9894 62.1625 43.7633C62.6784 42.5372 62.8182 41.1855 62.5641 39.8798C62.31 38.5742 61.6735 37.3734 60.7353 36.4299C59.7971 35.4865 58.5996 34.8429 57.2948 34.5809C55.9899 34.3188 54.6366 34.4502 53.4066 34.9582C52.1766 35.4663 51.1254 36.3281 50.3863 37.4343C49.6473 38.5406 49.2539 39.8413 49.2559 41.1714C49.2531 42.9425 49.953 44.6424 51.2022 45.8986C52.4514 47.1548 54.1479 47.8648 55.92 47.873Z" fill="#7FBC42"/>
<path d="M31.882 45.3806C31.6439 45.519 31.4456 45.7164 31.306 45.9537C31.1665 46.191 31.0904 46.4602 31.0851 46.7354V52.32C31.0483 52.545 31.0608 52.7752 31.1218 52.9949C31.1828 53.2145 31.2909 53.4182 31.4386 53.592C31.5863 53.7657 31.77 53.9052 31.9769 54.0009C32.1839 54.0966 32.4093 54.1462 32.6374 54.1462C32.8654 54.1462 33.0908 54.0966 33.2978 54.0009C33.5048 53.9052 33.6885 53.7657 33.8361 53.592C33.9838 53.4182 34.0919 53.2145 34.1529 52.9949C34.2139 52.7752 34.2264 52.545 34.1896 52.32V47.6868C36.2459 46.6595 38.5037 46.0981 40.802 46.0425C42.7345 46.0799 44.6419 46.4872 46.421 47.2421C46.6134 47.3258 46.8207 47.3697 47.0305 47.3711C47.2403 47.3724 47.4482 47.3313 47.6417 47.2501C47.8351 47.1689 48.0101 47.0493 48.156 46.8986C48.3019 46.748 48.4157 46.5693 48.4906 46.3734C48.5717 46.1814 48.6138 45.9752 48.6144 45.7669C48.615 45.5585 48.5742 45.352 48.4943 45.1596C48.4143 44.9671 48.2969 44.7924 48.1489 44.6457C48.0008 44.499 47.825 44.3832 47.6317 44.305C45.4773 43.4002 43.1696 42.9157 40.833 42.8778C37.6765 42.9601 34.5886 43.816 31.8406 45.3702" fill="#7FBC42"/>
<path d="M40.8743 31.3569C41.5797 31.3507 42.2709 31.5541 42.8604 31.9413C43.4499 32.3285 43.9109 32.8819 44.1851 33.5314C44.4593 34.1809 44.5343 34.8972 44.4004 35.5894C44.2666 36.2815 43.9301 36.9183 43.4335 37.419C42.9369 37.9196 42.3027 38.2616 41.6113 38.4014C40.92 38.5412 40.2026 38.4725 39.5504 38.2042C38.8981 37.9359 38.3403 37.4799 37.9478 36.8942C37.5552 36.3085 37.3456 35.6195 37.3456 34.9145C37.3429 33.9755 37.7128 33.0737 38.3742 32.4068C39.0357 31.7399 39.9348 31.3623 40.8743 31.3569ZM40.8743 41.6265C42.2039 41.6326 43.5054 41.2442 44.6139 40.5104C45.7224 39.7766 46.588 38.7305 47.1011 37.5046C47.6142 36.2787 47.7516 34.9282 47.496 33.6242C47.2404 32.3202 46.6032 31.1213 45.6652 30.1795C44.7272 29.2377 43.5306 28.5954 42.227 28.3339C40.9234 28.0724 39.5715 28.2035 38.3425 28.7106C37.1135 29.2177 36.0628 30.0779 35.3235 31.1824C34.5842 32.2868 34.1895 33.5857 34.1895 34.9145C34.1867 36.6848 34.8848 38.3842 36.1315 39.6418C37.3782 40.8993 39.072 41.6128 40.8433 41.6265" fill="#7FBC42"/>
<path d="M17.7267 47.3663C17.9332 47.3649 18.1375 47.3229 18.3278 47.2427C18.5181 47.1624 18.6907 47.0455 18.8358 46.8986C18.9809 46.7516 19.0957 46.5776 19.1735 46.3863C19.2512 46.1951 19.2906 45.9904 19.2892 45.784V41.1611C21.352 40.1412 23.6114 39.5802 25.912 39.5167C27.8445 39.5542 29.7519 39.9615 31.531 40.7164C31.7237 40.7972 31.9306 40.8387 32.1396 40.8386C32.3486 40.8386 32.5555 40.7969 32.7482 40.716C32.9408 40.6351 33.1155 40.5167 33.2618 40.3676C33.4082 40.2185 33.5234 40.0417 33.6006 39.8477C33.7586 39.4593 33.7571 39.0244 33.5963 38.6371C33.4355 38.2499 33.1285 37.9417 32.7417 37.7793C30.5762 36.8766 28.2581 36.3957 25.912 36.3624C22.7586 36.4439 19.6738 37.2998 16.9299 38.8548C16.6969 38.9964 16.5042 39.1952 16.3702 39.4324C16.2361 39.6696 16.1651 39.9372 16.1641 40.2096V45.784C16.1627 45.9913 16.2024 46.1968 16.2808 46.3887C16.3593 46.5806 16.4749 46.7552 16.6211 46.9022C16.7673 47.0493 16.9412 47.166 17.1327 47.2457C17.3242 47.3253 17.5296 47.3663 17.737 47.3663" fill="#7FBC42"/>
<path d="M25.9117 24.8209C26.6174 24.8127 27.3097 25.0143 27.9005 25.4002C28.4913 25.7861 28.954 26.3388 29.2298 26.9881C29.5056 27.6375 29.582 28.354 29.4494 29.0469C29.3167 29.7397 28.981 30.3775 28.4848 30.8791C27.9887 31.3808 27.3545 31.7238 26.6629 31.8645C25.9713 32.0051 25.2534 31.9371 24.6005 31.6691C23.9477 31.4011 23.3892 30.9452 22.9962 30.3593C22.6032 29.7733 22.3934 29.0839 22.3933 28.3785C22.3905 27.4413 22.759 26.541 23.4183 25.8744C24.0775 25.2078 24.9739 24.8291 25.9117 24.8209ZM25.9117 35.0801C27.243 35.0924 28.5479 34.709 29.6607 33.9785C30.7734 33.2481 31.6439 32.2035 32.1614 30.9776C32.679 29.7517 32.8203 28.3997 32.5673 27.0934C32.3144 25.787 31.6787 24.5853 30.741 23.6408C29.8032 22.6963 28.6057 22.0517 27.3006 21.7888C25.9955 21.5259 24.6417 21.6566 23.411 22.1644C22.1804 22.6721 21.1286 23.5339 20.3891 24.6404C19.6496 25.7468 19.2559 27.0479 19.2578 28.3785C19.2523 30.1496 19.9496 31.8506 21.1969 33.1087C22.4441 34.3669 24.1396 35.0795 25.9117 35.0905" fill="#7FBC42"/>
<path d="M61.8808 64.9994H50.0219L49.3907 53.9128C51.4245 52.9083 53.6525 52.3578 55.9203 52.2994C58.1972 52.364 60.4341 52.9141 62.481 53.9128L61.8808 64.9994ZM46.9589 51.6376C46.7147 51.7891 46.5158 52.0035 46.3829 52.2582C46.25 52.5129 46.188 52.7986 46.2035 53.0854L46.9692 66.6748C46.9905 67.0772 47.1655 67.4561 47.4582 67.7333C47.7509 68.0104 48.1389 68.1646 48.5422 68.1641H63.3606C63.762 68.162 64.1474 68.0066 64.4379 67.7297C64.7284 67.4528 64.902 67.0754 64.9231 66.6748L65.6889 53.0854C65.7089 52.7979 65.649 52.5105 65.5156 52.255C65.3823 51.9994 65.1808 51.7857 64.9335 51.6376C62.1803 50.0777 59.0842 49.2215 55.9203 49.1451C52.7635 49.2253 49.6751 50.0813 46.9279 51.6376" fill="#7FBC42"/>
<path d="M44.0414 3.15431C52.1195 3.15431 60.0163 5.54835 66.733 10.0337C73.4497 14.519 78.6848 20.8942 81.7762 28.3531C84.8675 35.8119 85.6764 44.0194 84.1004 51.9377C82.5245 59.856 78.6344 67.1294 72.9223 72.8381C67.2102 78.5469 59.9325 82.4346 52.0096 84.0096C44.0867 85.5847 35.8744 84.7763 28.4111 81.6868C20.9479 78.5972 14.5689 73.3652 10.081 66.6524C5.59299 59.9396 3.19754 52.0475 3.19754 43.9741C3.21123 33.1522 7.51881 22.7775 15.1755 15.1253C22.8323 7.47303 33.2131 3.16799 44.0414 3.15431ZM44.0414 0.0517099C35.335 0.0435304 26.822 2.61692 19.5796 7.44617C12.3373 12.2754 6.69133 19.1434 3.35625 27.181C0.0211676 35.2185 -0.853062 44.0642 0.844208 52.5984C2.54148 61.1327 6.73395 68.9719 12.891 75.1239C19.048 81.2759 26.8928 85.464 35.4325 87.1583C43.9722 88.8526 52.8229 87.9768 60.8644 84.6418C68.9058 81.3067 75.7766 75.6624 80.6069 68.4232C85.4373 61.184 88.0102 52.6754 88 43.9741C88 32.3186 83.37 21.1399 75.1273 12.8943C66.8847 4.64878 55.7037 0.0109647 44.0414 0V0.0517099Z" fill="#7FBC42"/>
</g>
</g>
<defs>
<clipPath id="clip0">
<path d="M0 0H88V88H0V0Z" fill="white"/>
</clipPath>
</defs>
</svg>
