<svg width="88" height="88" viewBox="0 0 88 88" fill="none" xmlns="http://www.w3.org/2000/svg">
<g clip-path="url(#clip0)">
<path d="M43.9984 1.94785e-05C35.2943 -0.0081688 26.7833 2.56542 19.5421 7.39523C12.3009 12.225 6.65485 19.094 3.31824 27.1332C-0.0183599 35.1725 -0.895614 44.0207 0.797458 52.5586C2.49053 61.0965 6.67786 68.9404 12.8297 75.098C18.9816 81.2557 26.8215 85.4504 35.3578 87.1515C43.8941 88.8526 52.7432 87.9837 60.7855 84.6547C68.8279 81.3256 75.7022 75.6861 80.5388 68.4494C85.3754 61.2127 87.957 52.7042 87.957 44C87.9434 32.3419 83.309 21.1645 75.0693 12.917C66.8296 4.66959 55.6566 0.0246588 43.9984 1.94785e-05ZM43.9984 84.8542C35.9153 84.8562 28.0132 82.4611 21.2914 77.9716C14.5697 73.4821 9.33039 67.1001 6.23617 59.6326C3.14195 52.1652 2.33182 43.9478 3.90826 36.0199C5.48469 28.092 9.37687 20.8097 15.0925 15.0941C20.8081 9.37845 28.0904 5.48627 36.0184 3.90983C43.9463 2.3334 52.1636 3.14352 59.6311 6.23775C67.0985 9.33197 73.4806 14.5713 77.97 21.293C82.4595 28.0147 84.8547 35.9169 84.8526 44C84.8389 54.831 80.5303 65.2145 72.8716 72.8732C65.2129 80.5318 54.8294 84.8405 43.9984 84.8542Z" fill="#E02826"/>
<path d="M51.0975 52.1128H50.9837C51.6109 49.4688 52.6368 46.9355 54.026 44.6001C55.7542 41.2473 57.5444 37.7911 57.5444 34.1071C57.5444 30.5146 56.1172 27.0692 53.577 24.5289C51.0367 21.9886 47.5913 20.5615 43.9987 20.5615C40.4062 20.5615 36.9608 21.9886 34.4205 24.5289C31.8802 27.0692 30.4531 30.5146 30.4531 34.1071C30.4531 37.8842 32.3158 41.5888 34.1163 45.1692C35.3538 47.357 36.3166 49.6892 36.9828 52.1128H36.9C36.4846 52.1128 36.0861 52.2771 35.7914 52.5698C35.4967 52.8626 35.3298 53.26 35.3271 53.6754V63.268C35.3271 63.6852 35.4928 64.0853 35.7878 64.3802C36.0827 64.6752 36.4828 64.8409 36.9 64.8409H37.3346C37.6915 66.34 38.5434 67.6749 39.7526 68.6301C40.9618 69.5852 42.4578 70.1047 43.9987 70.1047C45.5397 70.1047 47.0357 69.5852 48.2449 68.6301C49.4541 67.6749 50.306 66.34 50.6629 64.8409H51.0975C51.5147 64.8409 51.9148 64.6752 52.2097 64.3802C52.5047 64.0853 52.6704 63.6852 52.6704 63.268V53.6754C52.6677 53.26 52.5008 52.8626 52.2061 52.5698C51.9114 52.2771 51.5129 52.1128 51.0975 52.1128ZM38.4625 61.7055V60.6707H41.8981C42.1232 60.7075 42.3536 60.695 42.5733 60.634C42.7931 60.5729 42.9969 60.4649 43.1707 60.3172C43.3446 60.1695 43.4842 59.9859 43.58 59.7789C43.6757 59.5719 43.7253 59.3465 43.7253 59.1184C43.7253 58.8904 43.6757 58.665 43.58 58.458C43.4842 58.251 43.3446 58.0673 43.1707 57.9197C42.9969 57.772 42.7931 57.6639 42.5733 57.6029C42.3536 57.5419 42.1232 57.5294 41.8981 57.5662H38.4625V55.2483H49.535V61.7055H38.4625ZM36.9207 43.7619C35.2753 40.5023 33.5886 37.1391 33.5886 34.1071C33.5886 32.7401 33.8579 31.3864 34.381 30.1234C34.9042 28.8603 35.671 27.7127 36.6377 26.7461C37.6043 25.7794 38.7519 25.0126 40.015 24.4894C41.278 23.9663 42.6317 23.697 43.9987 23.697C45.3658 23.697 46.7195 23.9663 47.9825 24.4894C49.2456 25.0126 50.3932 25.7794 51.3598 26.7461C52.3265 27.7127 53.0933 28.8603 53.6165 30.1234C54.1396 31.3864 54.4089 32.7401 54.4089 34.1071C54.4089 37.0253 52.867 40.0055 51.2424 43.1617C49.7523 46.0385 48.2208 48.998 47.8172 52.1128H40.1596C39.756 49.3913 38.3694 46.6387 36.9207 43.7619ZM43.9987 66.983C43.2938 66.9831 42.6035 66.7814 42.0094 66.4019C41.4153 66.0223 40.9422 65.4807 40.646 64.8409H47.3619C47.0608 65.4792 46.5852 66.0191 45.99 66.3982C45.3948 66.7773 44.7044 66.98 43.9987 66.983Z" fill="#E02826"/>
<path d="M48.8512 37.6463H50.7863C51.0052 37.6716 51.227 37.6504 51.4371 37.5839C51.6472 37.5175 51.8408 37.4073 52.0053 37.2608C52.1699 37.1142 52.3015 36.9344 52.3917 36.7334C52.4818 36.5323 52.5284 36.3145 52.5284 36.0941C52.5284 35.8738 52.4818 35.6559 52.3917 35.4548C52.3015 35.2538 52.1699 35.0741 52.0053 34.9275C51.8408 34.7809 51.6472 34.6707 51.4371 34.6043C51.227 34.5378 51.0052 34.5166 50.7863 34.5419H48.013C47.7527 34.5404 47.4961 34.604 47.2666 34.7269C47.0371 34.8498 46.8419 35.0281 46.6988 35.2456L45.4571 37.1289L43.1598 31.0442C43.043 30.7761 42.8533 30.5462 42.6123 30.3805C42.3712 30.2149 42.0886 30.1202 41.7964 30.1072C41.5042 30.0943 41.2143 30.1636 40.9595 30.3073C40.7048 30.451 40.4955 30.6633 40.3555 30.9201L38.1824 34.9972H37.2511C37.026 34.9603 36.7956 34.9728 36.5758 35.0339C36.3561 35.0949 36.1522 35.203 35.9784 35.3507C35.8046 35.4983 35.6649 35.682 35.5692 35.889C35.4734 36.096 35.4238 36.3214 35.4238 36.5494C35.4238 36.7775 35.4734 37.0028 35.5692 37.2098C35.6649 37.4168 35.8046 37.6005 35.9784 37.7482C36.1522 37.8958 36.3561 38.0039 36.5758 38.065C36.7956 38.126 37.026 38.1385 37.2511 38.1016H39.1758C39.4549 38.0914 39.7264 38.0076 39.9627 37.8585C40.199 37.7095 40.3916 37.5006 40.521 37.2531L41.4731 35.4215L43.6151 41.0405C43.711 41.3175 43.8834 41.5617 44.1123 41.7449C44.3412 41.928 44.6173 42.0426 44.9086 42.0753H45.0742C45.3325 42.0781 45.5875 42.0173 45.8167 41.8982C46.0459 41.7791 46.2423 41.6053 46.3884 41.3923L48.8512 37.6463Z" fill="#E02826"/>
<path d="M43.9973 19.3096C44.4081 19.3014 44.7992 19.1318 45.0858 18.8374C45.3725 18.543 45.5316 18.1475 45.5288 17.7366V14.7667C45.5542 14.5479 45.5329 14.3261 45.4664 14.116C45.4 13.9059 45.2899 13.7122 45.1433 13.5477C44.9967 13.3832 44.817 13.2516 44.6159 13.1614C44.4148 13.0713 44.197 13.0247 43.9766 13.0247C43.7563 13.0247 43.5384 13.0713 43.3374 13.1614C43.1363 13.2516 42.9566 13.3832 42.81 13.5477C42.6634 13.7122 42.5533 13.9059 42.4868 14.116C42.4204 14.3261 42.3991 14.5479 42.4244 14.7667V17.7366C42.423 17.9427 42.4625 18.147 42.5404 18.3378C42.6183 18.5286 42.7332 18.702 42.8784 18.8482C43.0236 18.9944 43.1963 19.1105 43.3866 19.1896C43.5769 19.2688 43.7809 19.3096 43.987 19.3096" fill="#E02826"/>
<path d="M55.2978 24.432C55.5325 24.5712 55.8011 24.6428 56.0739 24.6389C56.3479 24.6388 56.6171 24.5672 56.8548 24.431C57.0926 24.2949 57.2907 24.099 57.4295 23.8628L60.0165 19.4649C60.2251 19.1053 60.2823 18.6777 60.1756 18.276C60.0688 17.8743 59.8069 17.5314 59.4474 17.3228C59.0878 17.1142 58.6602 17.057 58.2585 17.1638C57.8568 17.2705 57.5139 17.5324 57.3053 17.892L54.7597 22.2899C54.5535 22.651 54.4987 23.0791 54.6073 23.4805C54.7159 23.8819 54.9791 24.224 55.3392 24.432" fill="#E02826"/>
<path d="M58.983 35.3387C59.1213 35.5762 59.319 35.7736 59.5566 35.9115C59.7943 36.0494 60.0638 36.123 60.3386 36.1252C60.6119 36.1224 60.8796 36.0474 61.1147 35.9079L70.0865 30.7339C70.446 30.5253 70.7079 30.1824 70.8147 29.7807C70.9214 29.379 70.8642 28.9513 70.6556 28.5918C70.447 28.2323 70.1042 27.9703 69.7025 27.8636C69.3007 27.7569 68.8731 27.8141 68.5136 28.0227L59.5521 33.1967C59.1937 33.4063 58.9328 33.7492 58.8262 34.1504C58.7196 34.5517 58.7759 34.9789 58.983 35.3387Z" fill="#E02826"/>
<path d="M55.9297 44C55.9352 44.4099 56.1025 44.801 56.3953 45.0879C56.688 45.3748 57.0824 45.5343 57.4923 45.5315H73.2317C73.4506 45.5568 73.6724 45.5356 73.8824 45.4691C74.0925 45.4027 74.2862 45.2925 74.4507 45.146C74.6152 44.9994 74.7469 44.8196 74.837 44.6186C74.9272 44.4175 74.9738 44.1997 74.9738 43.9793C74.9738 43.759 74.9272 43.5411 74.837 43.34C74.7469 43.139 74.6152 42.9592 74.4507 42.8127C74.2862 42.6661 74.0925 42.5559 73.8824 42.4895C73.6724 42.423 73.4506 42.4018 73.2317 42.4271H57.4923C57.2867 42.4257 57.0829 42.4652 56.8927 42.5432C56.7025 42.6213 56.5297 42.7363 56.3843 42.8817C56.2389 43.0271 56.1239 43.1999 56.0459 43.3901C55.9678 43.5803 55.9283 43.7841 55.9297 43.9897" fill="#E02826"/>
<path d="M70.107 57.2662L56.2716 49.2775C56.0936 49.1743 55.897 49.1071 55.693 49.0798C55.489 49.0525 55.2816 49.0656 55.0827 49.1185C54.8838 49.1713 54.6973 49.2628 54.5337 49.3878C54.3702 49.5127 54.2329 49.6687 54.1296 49.8467C54.0263 50.0247 53.9591 50.2213 53.9318 50.4253C53.9045 50.6293 53.9177 50.8367 53.9705 51.0356C54.0234 51.2345 54.1149 51.421 54.2398 51.5846C54.3648 51.7481 54.5207 51.8854 54.6987 51.9887L68.5341 60.0188C68.775 60.1521 69.0453 60.2233 69.3206 60.2258C69.6657 60.2279 70.0019 60.1156 70.2765 59.9065C70.5512 59.6973 70.7488 59.4032 70.8386 59.0699C70.9285 58.7366 70.9054 58.3829 70.773 58.0641C70.6407 57.7453 70.4065 57.4793 70.107 57.3076" fill="#E02826"/>
<path d="M56.9657 63.3198C56.7562 62.967 56.4171 62.71 56.0208 62.6037C55.6244 62.4973 55.2023 62.5501 54.8443 62.7507C54.6662 62.8525 54.51 62.9886 54.3848 63.1512C54.2597 63.3138 54.168 63.4996 54.115 63.6978C54.0621 63.896 54.049 64.1028 54.0765 64.3061C54.104 64.5094 54.1715 64.7053 54.2752 64.8824L57.2864 70.0564C57.4231 70.2952 57.6205 70.4938 57.8585 70.6319C58.0966 70.77 58.3668 70.8427 58.642 70.8429C58.9147 70.8452 59.1829 70.7736 59.4181 70.6359C59.7728 70.4336 60.0342 70.1005 60.1464 69.7079C60.2585 69.3153 60.2126 68.8944 60.0183 68.5352L56.9657 63.3198Z" fill="#E02826"/>
<path d="M43.9973 71.3086C43.7913 71.3073 43.5869 71.3467 43.3962 71.4246C43.2054 71.5025 43.0319 71.6174 42.8857 71.7626C42.7395 71.9078 42.6235 72.0806 42.5443 72.2708C42.4652 72.4611 42.4244 72.6651 42.4244 72.8712V73.2334C42.3991 73.4523 42.4204 73.674 42.4868 73.8841C42.5533 74.0942 42.6634 74.2879 42.81 74.4524C42.9566 74.6169 43.1363 74.7486 43.3374 74.8387C43.5384 74.9289 43.7563 74.9755 43.9766 74.9755C44.197 74.9755 44.4148 74.9289 44.6159 74.8387C44.817 74.7486 44.9967 74.6169 45.1433 74.4524C45.2899 74.2879 45.4 74.0942 45.4664 73.8841C45.5329 73.674 45.5542 73.4523 45.5288 73.2334V72.8712C45.5288 72.4568 45.3642 72.0593 45.0712 71.7663C44.7781 71.4733 44.3807 71.3086 43.9663 71.3086" fill="#E02826"/>
<path d="M30.5658 23.8626C30.7038 24.0995 30.9017 24.2959 31.1397 24.4322C31.3776 24.5684 31.6472 24.6396 31.9214 24.6387C32.1941 24.641 32.4622 24.5695 32.6975 24.4317C33.0577 24.2238 33.3208 23.8817 33.4294 23.4803C33.538 23.0789 33.4832 22.6508 33.277 22.2897L30.7314 17.8917C30.6281 17.7137 30.4908 17.5578 30.3273 17.4328C30.1637 17.3079 29.9772 17.2164 29.7783 17.1635C29.5793 17.1107 29.372 17.0975 29.168 17.1248C28.964 17.1521 28.7674 17.2193 28.5894 17.3226C28.4113 17.4259 28.2554 17.5632 28.1305 17.7267C28.0055 17.8903 27.914 18.0768 27.8611 18.2757C27.8083 18.4746 27.7951 18.682 27.8224 18.886C27.8497 19.09 27.9169 19.2866 28.0202 19.4646L30.5658 23.8626Z" fill="#E02826"/>
<path d="M17.8901 30.7339L26.8619 35.9079C27.0964 36.0488 27.3645 36.1239 27.638 36.1252C27.9822 36.1227 28.3161 36.0075 28.5884 35.797C28.8608 35.5866 29.0566 35.2927 29.1459 34.9603C29.2352 34.6279 29.2129 34.2754 29.0826 33.9568C28.9523 33.6383 28.7211 33.3712 28.4245 33.1967L19.463 28.0227C19.1035 27.8141 18.6759 27.7569 18.2741 27.8636C17.8724 27.9703 17.5296 28.2323 17.321 28.5918C17.1124 28.9513 17.0552 29.379 17.1619 29.7807C17.2687 30.1824 17.5306 30.5253 17.8901 30.7339Z" fill="#E02826"/>
<path d="M32.0778 44C32.0806 43.7927 32.0418 43.5869 31.9638 43.3948C31.8857 43.2027 31.77 43.0282 31.6234 42.8816C31.4767 42.735 31.3022 42.6192 31.1101 42.5412C30.9181 42.4631 30.7123 42.4243 30.5049 42.4271H14.7655C14.5466 42.4018 14.3249 42.423 14.1148 42.4895C13.9047 42.5559 13.711 42.6661 13.5465 42.8127C13.382 42.9592 13.2503 43.139 13.1602 43.34C13.07 43.5411 13.0234 43.759 13.0234 43.9793C13.0234 44.1997 13.07 44.4175 13.1602 44.6186C13.2503 44.8196 13.382 44.9994 13.5465 45.146C13.711 45.2925 13.9047 45.4027 14.1148 45.4691C14.3249 45.5356 14.5466 45.5568 14.7655 45.5315H30.5049C30.7088 45.5343 30.9112 45.4968 31.1005 45.4213C31.2899 45.3458 31.4626 45.2338 31.6086 45.0916C31.7547 44.9493 31.8713 44.7798 31.9518 44.5925C32.0323 44.4052 32.0751 44.2039 32.0778 44Z" fill="#E02826"/>
<path d="M31.7263 49.2776L17.8909 57.2663C17.5915 57.438 17.3573 57.704 17.2249 58.0228C17.0925 58.3416 17.0695 58.6953 17.1593 59.0286C17.2491 59.3619 17.4468 59.656 17.7214 59.8652C17.9961 60.0743 18.3322 60.1866 18.6774 60.1845C18.9527 60.182 19.223 60.1108 19.4638 59.9775L33.2889 51.9888C33.4669 51.8862 33.623 51.7496 33.7482 51.5867C33.8734 51.4237 33.9653 51.2378 34.0186 51.0393C34.0719 50.8409 34.0856 50.6339 34.059 50.4302C34.0323 50.2265 33.9658 50.03 33.8632 49.8519C33.7606 49.6739 33.6239 49.5179 33.461 49.3927C33.2981 49.2674 33.1121 49.1756 32.9137 49.1222C32.7153 49.0689 32.5083 49.0552 32.3045 49.0818C32.1008 49.1085 31.9043 49.175 31.7263 49.2776Z" fill="#E02826"/>
<path d="M33.1736 62.7507C32.8137 62.5436 32.3865 62.4873 31.9853 62.5939C31.584 62.7005 31.2411 62.9614 31.0315 63.3198L28.0202 68.4939C27.9169 68.6719 27.8497 68.8685 27.8224 69.0725C27.7951 69.2765 27.8083 69.4839 27.8611 69.6828C27.914 69.8817 28.0055 70.0682 28.1305 70.2318C28.2554 70.3953 28.4113 70.5326 28.5894 70.6359C28.7674 70.7392 28.964 70.8064 29.168 70.8337C29.372 70.861 29.5793 70.8478 29.7783 70.795C30.18 70.6882 30.5228 70.4263 30.7314 70.0668L33.7427 64.8927C33.8463 64.7157 33.9139 64.5198 33.9414 64.3165C33.9688 64.1131 33.9557 63.9064 33.9028 63.7082C33.8499 63.5099 33.7582 63.3241 33.633 63.1616C33.5078 62.999 33.3517 62.8629 33.1736 62.761" fill="#E02826"/>
<circle cx="76" cy="12" r="10.5" fill="#6FCF97"/>
<path fill-rule="evenodd" clip-rule="evenodd" d="M82.6866 7.27299C83.0881 7.6522 83.1062 8.28511 82.727 8.68663L75.1715 16.6866C74.9826 16.8867 74.7196 17 74.4444 17C74.1693 17 73.9063 16.8867 73.7174 16.6866L69.273 11.9807C68.8938 11.5792 68.9119 10.9463 69.3134 10.5671C69.7149 10.1879 70.3478 10.206 70.727 10.6075L74.4444 14.5436L81.273 7.31338C81.6522 6.91186 82.2851 6.89378 82.6866 7.27299Z" fill="white"/>
</g>
<defs>
<clipPath id="clip0">
<path d="M0 0H88V88H0V0Z" fill="white"/>
</clipPath>
</defs>
</svg>
