<svg width="85" height="85" viewBox="0 0 85 85" fill="none" xmlns="http://www.w3.org/2000/svg" class='icon--oas'>
<g clip-path="url(#clip0)">
<path d="M42.5 0C34.0943 0 25.8774 2.49258 18.8883 7.16254C11.8992 11.8325 6.45186 18.4701 3.23514 26.236C0.0184145 34.0018 -0.823227 42.5471 0.816645 50.7913C2.45652 59.0355 6.50425 66.6083 12.448 72.552C18.3917 78.4958 25.9645 82.5435 34.2087 84.1834C42.4529 85.8232 50.9982 84.9816 58.7641 81.7649C66.5299 78.5482 73.1675 73.1008 77.8375 66.1117C82.5074 59.1226 85 50.9057 85 42.5C84.9868 31.2324 80.5049 20.43 72.5374 12.4626C64.57 4.49515 53.7677 0.0132327 42.5 0V0ZM42.5 82C34.6933 81.996 27.063 79.6777 20.5736 75.3381C14.0842 70.9985 9.0271 64.8323 6.04143 57.6191C3.05576 50.4059 2.27562 42.4694 3.7996 34.8129C5.32358 27.1564 9.08328 20.1236 14.6034 14.6034C20.1236 9.08326 27.1564 5.32356 34.813 3.79958C42.4695 2.2756 50.4059 3.05575 57.6191 6.04141C64.8323 9.02708 70.9985 14.0842 75.3381 20.5736C79.6777 27.063 81.9961 34.6933 82 42.5C81.9947 52.9744 77.8314 63.0183 70.4249 70.4249C63.0183 77.8314 52.9744 81.9947 42.5 82Z" fill="#4798D0"/>
<path d="M61.6701 52.23C61.471 52.23 61.2738 52.2694 61.0899 52.3459C60.9061 52.4224 60.7392 52.5345 60.5988 52.6758C60.4585 52.8171 60.3475 52.9847 60.2722 53.1691C60.1969 53.3535 60.1588 53.5509 60.1601 53.75C60.1601 55.0443 59.646 56.2855 58.7308 57.2007C57.8156 58.1159 56.5744 58.63 55.2801 58.63C53.9859 58.63 52.7446 58.1159 51.8294 57.2007C50.9143 56.2855 50.4001 55.0443 50.4001 53.75C50.4246 53.5385 50.404 53.3242 50.3398 53.1212C50.2756 52.9181 50.1692 52.731 50.0275 52.572C49.8859 52.413 49.7122 52.2858 49.5179 52.1987C49.3236 52.1116 49.1131 52.0665 48.9001 52.0665C48.6872 52.0665 48.4767 52.1116 48.2824 52.1987C48.0881 52.2858 47.9144 52.413 47.7727 52.572C47.6311 52.731 47.5246 52.9181 47.4604 53.1212C47.3962 53.3242 47.3757 53.5385 47.4001 53.75C47.4001 55.0443 46.886 56.2855 45.9708 57.2007C45.0556 58.1159 43.8144 58.63 42.5201 58.63C41.2259 58.63 39.9846 58.1159 39.0694 57.2007C38.1543 56.2855 37.6401 55.0443 37.6401 53.75C37.6646 53.5385 37.644 53.3242 37.5798 53.1212C37.5156 52.9181 37.4092 52.731 37.2675 52.572C37.1259 52.413 36.9522 52.2858 36.7579 52.1987C36.5636 52.1116 36.3531 52.0665 36.1401 52.0665C35.9272 52.0665 35.7167 52.1116 35.5224 52.1987C35.328 52.2858 35.1544 52.413 35.0127 52.572C34.8711 52.731 34.7646 52.9181 34.7004 53.1212C34.6362 53.3242 34.6157 53.5385 34.6401 53.75C34.6401 55.0443 34.126 56.2855 33.2108 57.2007C32.2956 58.1159 31.0544 58.63 29.7601 58.63C28.4659 58.63 27.2246 58.1159 26.3094 57.2007C25.3943 56.2855 24.8801 55.0443 24.8801 53.75C24.9046 53.5385 24.884 53.3242 24.8198 53.1212C24.7556 52.9181 24.6492 52.731 24.5075 52.572C24.3659 52.413 24.1922 52.2858 23.9979 52.1987C23.8036 52.1116 23.5931 52.0665 23.3801 52.0665C23.1672 52.0665 22.9567 52.1116 22.7623 52.1987C22.568 52.2858 22.3944 52.413 22.2527 52.572C22.1111 52.731 22.0046 52.9181 21.9404 53.1212C21.8762 53.3242 21.8557 53.5385 21.8801 53.75C21.8812 55.4177 22.41 57.0423 23.3909 58.3911C24.3717 59.7398 25.7542 60.7436 27.3404 61.2586C28.9265 61.7737 30.635 61.7735 32.2211 61.2583C33.8072 60.743 35.1895 59.739 36.1701 58.39C36.9016 59.4 37.8622 60.2222 38.9729 60.7892C40.0837 61.3562 41.313 61.6518 42.5601 61.6518C43.8072 61.6518 45.0366 61.3562 46.1473 60.7892C47.2581 60.2222 48.2186 59.4 48.9501 58.39C49.9307 59.739 51.3131 60.743 52.8991 61.2583C54.4852 61.7735 56.1937 61.7737 57.7799 61.2586C59.3661 60.7436 60.7485 59.7398 61.7294 58.3911C62.7102 57.0423 63.239 55.4177 63.2401 53.75C63.2402 53.5461 63.1993 53.3443 63.1198 53.1566C63.0403 52.9688 62.9239 52.799 62.7774 52.6572C62.6309 52.5153 62.4574 52.4044 62.2672 52.3311C62.0769 52.2577 61.8739 52.2233 61.6701 52.23Z" fill="#4798D0"/>
<path d="M28.5899 49.3L46.9399 43.45L54.8199 40.94C54.9099 43.65 54.6999 47.74 53.2199 49.61C53.0959 49.7651 53.0039 49.9433 52.9493 50.1343C52.8947 50.3252 52.8786 50.5251 52.9019 50.7223C52.9251 50.9195 52.9873 51.1101 53.0848 51.2831C53.1823 51.4561 53.3132 51.608 53.4699 51.73C53.6258 51.8543 53.8048 51.9464 53.9965 52.0012C54.1882 52.0559 54.3889 52.0721 54.5869 52.0488C54.785 52.0256 54.9764 51.9634 55.1503 51.8657C55.3241 51.7681 55.4769 51.637 55.5999 51.48C58.5999 47.71 57.7999 39.65 57.6999 38.75C57.6797 38.5276 57.6089 38.3128 57.4927 38.1221C57.3766 37.9314 57.2182 37.7699 57.0299 37.65C56.8416 37.5263 56.6282 37.446 56.4051 37.4149C56.182 37.3837 55.9548 37.4026 55.7399 37.47L47.3299 40.15L45.8199 36.69L38.2599 19.34C38.131 19.0424 37.9097 18.7941 37.6287 18.632C37.3478 18.4699 37.0221 18.4026 36.6999 18.44C36.3779 18.4787 36.0765 18.6187 35.8393 18.8397C35.602 19.0608 35.4411 19.3516 35.3799 19.67L31.4899 40.74C31.4381 41.0028 31.4572 41.2746 31.5451 41.5275C31.633 41.7805 31.7866 42.0055 31.9901 42.1795C32.1937 42.3535 32.4398 42.4703 32.7034 42.5178C32.9669 42.5654 33.2383 42.542 33.4899 42.45L43.6299 39.15L44.4699 41.08L27.6699 46.42C27.2879 46.542 26.9701 46.8107 26.7864 47.1671C26.6026 47.5234 26.5679 47.9381 26.6899 48.32C26.8119 48.7019 27.0806 49.0197 27.4369 49.2035C27.7932 49.3873 28.2079 49.422 28.5899 49.3ZM34.9299 38.79L37.4599 25.08L42.3799 36.36L34.9299 38.79Z" fill="#4798D0"/>
<path d="M48.05 34.88C47.9913 35.1687 48.0166 35.4682 48.123 35.7429C48.2293 36.0176 48.4123 36.2561 48.65 36.43C48.9072 36.6126 49.2147 36.7107 49.53 36.7107C49.8454 36.7107 50.1529 36.6126 50.41 36.43C51.83 35.43 54.41 33.94 55.54 33.82C55.7025 34.1137 55.9576 34.3454 56.2656 34.4789C56.5735 34.6124 56.917 34.6402 57.2424 34.558C57.5679 34.4758 57.8569 34.2882 58.0645 34.0244C58.2721 33.7607 58.3866 33.4356 58.39 33.1C58.3903 32.9079 58.3529 32.7177 58.28 32.54C58.1928 32.2669 58.0611 32.0101 57.89 31.78C56.14 28.61 51.64 21.57 46 21.57C45.6147 21.5731 45.2302 21.6065 44.85 21.67C44.6189 21.7102 44.4003 21.8034 44.2112 21.9421C44.0221 22.0809 43.8677 22.2616 43.76 22.47C43.6589 22.6807 43.6064 22.9113 43.6064 23.145C43.6064 23.3787 43.6589 23.6093 43.76 23.82C45.79 28.22 48 33.66 48.05 34.88ZM54 31.11C52.8427 31.511 51.7328 32.0374 50.69 32.68C50.36 31.6 49.81 30.1 48.92 27.99C48.46 26.89 47.99 25.82 47.58 24.92C49.83 25.8 52.16 28.39 54 31.11Z" fill="#4798D0"/>
</g>
<defs>
<clipPath id="clip0">
<path d="M0 0H85V85H0V0Z" fill="white"/>
</clipPath>
</defs>
</svg>
