<svg width="85" height="85" viewBox="0 0 85 85" fill="none" xmlns="http://www.w3.org/2000/svg" class='icon--oas'>
<g clip-path="url(#clip0)">
<path d="M42.5 0C34.0943 0 25.8774 2.49258 18.8883 7.16254C11.8992 11.8325 6.45186 18.4701 3.23514 26.236C0.0184145 34.0018 -0.823227 42.5472 0.816645 50.7913C2.45652 59.0355 6.50425 66.6083 12.448 72.552C18.3917 78.4958 25.9645 82.5435 34.2087 84.1834C42.4529 85.8233 50.9982 84.9816 58.7641 81.7649C66.5299 78.5482 73.1675 73.1008 77.8375 66.1117C82.5074 59.1227 85 50.9057 85 42.5C84.9868 31.2324 80.5049 20.43 72.5374 12.4626C64.57 4.49515 53.7677 0.0132327 42.5 0V0ZM42.5 82C34.6933 81.9961 27.063 79.6777 20.5736 75.3381C14.0842 70.9985 9.0271 64.8323 6.04143 57.6191C3.05576 50.4059 2.27562 42.4694 3.7996 34.8129C5.32358 27.1564 9.08328 20.1236 14.6034 14.6034C20.1236 9.08326 27.1564 5.32356 34.813 3.79958C42.4695 2.2756 50.4059 3.05575 57.6191 6.04141C64.8323 9.02708 70.9985 14.0842 75.3381 20.5736C79.6778 27.063 81.9961 34.6933 82 42.5C81.9947 52.9744 77.8314 63.0183 70.4249 70.4249C63.0184 77.8314 52.9744 81.9947 42.5 82V82Z" fill="#0F6851"/>
<path d="M68.2698 27.62C68.0692 27.2744 67.7396 27.0224 67.3535 26.9193C66.9674 26.8162 66.5561 26.8704 66.2098 27.07L65.0498 27.74L64.9198 26.68C64.8694 26.2822 64.6631 25.9207 64.3462 25.675C64.0292 25.4293 63.6277 25.3196 63.2298 25.37C62.832 25.4204 62.4705 25.6268 62.2248 25.9437C61.9792 26.2606 61.8694 26.6622 61.9198 27.06L62.2098 29.37L60.4298 30.37L59.6098 23.84C59.5594 23.4422 59.3531 23.0807 59.0361 22.835C58.7192 22.5893 58.3177 22.4796 57.9198 22.53C57.522 22.5804 57.1605 22.7868 56.9148 23.1037C56.6692 23.4206 56.5594 23.8222 56.6098 24.22L57.6098 32.01L55.3598 33.31L54.2598 24.56C54.2286 24.3284 54.1448 24.1071 54.0148 23.913C53.8848 23.7188 53.7121 23.557 53.5098 23.44C53.3086 23.3226 53.0829 23.2534 52.8504 23.2378C52.6179 23.2222 52.385 23.2606 52.1698 23.35L43.9998 26.8V24.2L51.2298 21.2C51.5998 21.0435 51.8925 20.7465 52.0434 20.3742C52.1944 20.002 52.1913 19.585 52.0348 19.215C51.8784 18.845 51.5813 18.5524 51.2091 18.4014C50.8368 18.2504 50.4198 18.2535 50.0498 18.41L43.9998 20.91V18.86L46.1498 18C46.335 17.9245 46.5035 17.8132 46.6457 17.6726C46.7878 17.532 46.9009 17.3648 46.9784 17.1804C47.056 16.9961 47.0965 16.7983 47.0976 16.5984C47.0987 16.3984 47.0604 16.2002 46.9848 16.015C46.9093 15.8298 46.7981 15.6614 46.6575 15.5192C46.5168 15.377 46.3496 15.2639 46.1653 15.1864C45.981 15.1089 45.7832 15.0684 45.5832 15.0673C45.3832 15.0662 45.185 15.1045 44.9998 15.18L43.9998 15.58V14.26C44.0243 14.0485 44.0038 13.8342 43.9395 13.6311C43.8753 13.4281 43.7689 13.241 43.6272 13.082C43.4856 12.923 43.3119 12.7958 43.1176 12.7087C42.9233 12.6215 42.7128 12.5765 42.4998 12.5765C42.2869 12.5765 42.0764 12.6215 41.8821 12.7087C41.6878 12.7958 41.5141 12.923 41.3724 13.082C41.2308 13.241 41.1244 13.4281 41.0601 13.6311C40.9959 13.8342 40.9754 14.0485 40.9998 14.26V15.59L39.9998 15.18C39.8147 15.1038 39.6163 15.0649 39.4161 15.0654C39.2159 15.0659 39.0177 15.1058 38.8329 15.1829C38.6482 15.2599 38.4804 15.3726 38.3391 15.5146C38.1979 15.6565 38.086 15.8248 38.0098 16.01C37.9337 16.1952 37.8947 16.3935 37.8952 16.5937C37.8957 16.794 37.9356 16.9921 38.0127 17.1769C38.0898 17.3617 38.2025 17.5295 38.3444 17.6707C38.4863 17.8119 38.6547 17.9238 38.8398 18L40.9898 18.9V20.95L34.9198 18.4C34.7366 18.3232 34.5401 18.2832 34.3415 18.2823C34.1428 18.2814 33.9459 18.3197 33.7621 18.3949C33.5782 18.4701 33.411 18.5808 33.2699 18.7207C33.1288 18.8605 33.0167 19.0268 32.9398 19.21C32.863 19.3932 32.823 19.5897 32.8222 19.7884C32.8213 19.987 32.8596 20.1839 32.9348 20.3678C33.01 20.5516 33.1207 20.7189 33.2605 20.8599C33.4004 21.001 33.5666 21.1132 33.7498 21.19L40.9898 24.19V26.79L32.8498 23.37C32.6347 23.2803 32.4018 23.2416 32.1692 23.2569C31.9367 23.2723 31.7108 23.3413 31.5093 23.4584C31.3079 23.5756 31.1363 23.7379 31.008 23.9325C30.8797 24.127 30.7982 24.3487 30.7698 24.58L29.6598 33.33L27.3998 32L28.3998 24.23C28.4502 23.8322 28.3405 23.4306 28.0949 23.1137C27.8492 22.7968 27.4877 22.5904 27.0898 22.54C26.692 22.4896 26.2905 22.5993 25.9735 22.845C25.6566 23.0907 25.4502 23.4522 25.3998 23.85L24.5698 30.36L22.7998 29.36L23.0898 27.06C23.0986 26.684 22.9676 26.318 22.7222 26.033C22.4768 25.7479 22.1344 25.564 21.7613 25.5167C21.3881 25.4694 21.0107 25.5622 20.7019 25.7771C20.3932 25.9919 20.1751 26.3137 20.0898 26.68L19.9598 27.68L18.8098 27.02C18.4624 26.8198 18.0497 26.7657 17.6624 26.8698C17.2751 26.9739 16.9451 27.2276 16.7448 27.575C16.5446 27.9224 16.4906 28.3352 16.5947 28.7224C16.6987 29.1097 16.9524 29.4398 17.2998 29.64L18.4598 30.31L17.6098 30.95C17.4502 31.0691 17.3158 31.2187 17.2146 31.3903C17.1134 31.5619 17.0473 31.7519 17.0203 31.9492C16.9934 32.1465 17.0059 32.3473 17.0574 32.5397C17.1088 32.7322 17.198 32.9124 17.3198 33.07C17.4606 33.2552 17.642 33.4055 17.8501 33.5096C18.0581 33.6136 18.2872 33.6685 18.5198 33.67C18.8526 33.673 19.1768 33.5638 19.4398 33.36L21.2798 32L23.0598 33L17.8098 37C17.5545 37.1906 17.366 37.4571 17.2713 37.7614C17.1766 38.0656 17.1805 38.3921 17.2826 38.6939C17.3847 38.9958 17.5797 39.2576 17.8397 39.4419C18.0996 39.6262 18.4112 39.7235 18.7298 39.72C19.0593 39.7216 19.3798 39.6124 19.6398 39.41L25.8998 34.66L28.1398 36L21.1398 41.34C20.9535 41.4797 20.8023 41.6609 20.6982 41.8692C20.5941 42.0775 20.5398 42.3071 20.5398 42.54C20.5398 42.7729 20.5941 43.0025 20.6982 43.2108C20.8023 43.4191 20.9535 43.6003 21.1398 43.74L28.1398 49.08L25.8898 50.38L19.6498 45.6C19.3295 45.4117 18.9513 45.3473 18.5866 45.419C18.222 45.4906 17.8963 45.6933 17.671 45.9888C17.4457 46.2843 17.3364 46.6521 17.3638 47.0226C17.3913 47.3932 17.5535 47.7409 17.8198 48L23.0498 52L21.2698 53L19.4298 51.6C19.273 51.4714 19.0919 51.3757 18.8973 51.3186C18.7027 51.2615 18.4986 51.2442 18.2972 51.2677C18.0957 51.2912 17.9011 51.355 17.7248 51.4554C17.5486 51.5558 17.3944 51.6906 17.2714 51.8519C17.1485 52.0132 17.0592 52.1976 17.0091 52.3941C16.9589 52.5906 16.9489 52.7952 16.9795 52.9957C17.0102 53.1962 17.0809 53.3884 17.1875 53.561C17.2941 53.7335 17.4343 53.8828 17.5998 54L18.4298 54.63L17.2798 55.29C16.9335 55.4926 16.6813 55.8239 16.5783 56.2117C16.4753 56.5995 16.5298 57.0122 16.7298 57.36C16.8624 57.5897 17.0535 57.78 17.2836 57.9118C17.5137 58.0435 17.7747 58.1119 18.0398 58.11C18.3035 58.1138 18.5631 58.0445 18.7898 57.91L19.9998 57.27L20.1298 58.27C20.1759 58.6359 20.3535 58.9726 20.6295 59.2173C20.9055 59.462 21.261 59.598 21.6298 59.6H21.8198C22.2187 59.5477 22.5806 59.3394 22.8261 59.0207C23.0717 58.702 23.1809 58.299 23.1298 57.9L22.8398 55.59L24.6198 54.59L25.4398 61.12C25.4861 61.485 25.6641 61.8205 25.9403 62.0636C26.2165 62.3066 26.5719 62.4405 26.9398 62.44H27.1298C27.3275 62.4166 27.5185 62.3541 27.6917 62.2561C27.8649 62.1581 28.0169 62.0267 28.1388 61.8694C28.2607 61.7121 28.3502 61.5321 28.4018 61.34C28.4535 61.1478 28.4664 60.9472 28.4398 60.75L27.4398 52.96L29.6898 51.66L30.7998 60.41C30.8418 60.7777 31.0181 61.1169 31.295 61.3624C31.5719 61.6079 31.9298 61.7424 32.2998 61.74C32.4994 61.7409 32.697 61.7 32.8798 61.62L40.9998 58.2V60.81L33.7698 63.81C33.5866 63.8875 33.4205 64.0003 33.2809 64.142C33.1413 64.2837 33.031 64.4515 32.9562 64.6358C32.8815 64.8201 32.8438 65.0174 32.8452 65.2163C32.8467 65.4152 32.8874 65.6118 32.9648 65.795C33.0423 65.9782 33.1551 66.1443 33.2968 66.2839C33.4385 66.4235 33.6063 66.5339 33.7906 66.6086C33.9749 66.6834 34.1722 66.7211 34.3711 66.7196C34.57 66.7181 34.7666 66.6775 34.9498 66.6L40.9998 64.09V66.09L38.8598 66.99C38.5393 67.126 38.2756 67.3687 38.1134 67.6769C37.9513 67.9851 37.9006 68.3398 37.9701 68.681C38.0395 69.0223 38.2247 69.329 38.4944 69.5494C38.7641 69.7697 39.1016 69.89 39.4498 69.89C39.6486 69.8924 39.8458 69.855 40.0298 69.78L41.0298 69.37V70.7C41.0724 71.068 41.2487 71.4075 41.5253 71.6539C41.8019 71.9003 42.1594 72.0365 42.5298 72.0365C42.9003 72.0365 43.2578 71.9003 43.5344 71.6539C43.8109 71.4075 43.9873 71.068 44.0298 70.7V69.41L45.0298 69.83C45.2174 69.905 45.4179 69.9424 45.6198 69.94C45.9681 69.94 46.3056 69.8197 46.5753 69.5994C46.845 69.379 47.0302 69.0723 47.0996 68.731C47.169 68.3898 47.1184 68.0351 46.9562 67.7269C46.7941 67.4187 46.5304 67.1761 46.2098 67.04L43.9998 66.13V64.13L50.0698 66.68C50.253 66.7568 50.4496 66.7968 50.6482 66.7977C50.8469 66.7986 51.0437 66.7603 51.2276 66.6851C51.4115 66.6099 51.5787 66.4992 51.7198 66.3593C51.8609 66.2195 51.973 66.0532 52.0498 65.87C52.1267 65.6868 52.1667 65.4903 52.1675 65.2916C52.1684 65.093 52.1301 64.8961 52.0549 64.7122C51.9797 64.5284 51.869 64.3611 51.7292 64.2201C51.5893 64.079 51.423 63.9668 51.2398 63.89L43.9998 60.8V58.2L52.1398 61.62C52.3234 61.6979 52.5205 61.7387 52.7198 61.74C52.9862 61.7402 53.2481 61.6713 53.4798 61.54C53.6814 61.4197 53.8534 61.2557 53.9832 61.0602C54.1129 60.8646 54.1972 60.6424 54.2298 60.41L55.3298 51.66L57.5998 53L56.5998 60.78C56.5516 61.1774 56.6622 61.5779 56.9074 61.8943C57.1527 62.2107 57.5129 62.4176 57.9098 62.47H58.1098C58.4772 62.4684 58.8315 62.3338 59.1072 62.0911C59.383 61.8484 59.5615 61.5141 59.6098 61.15L60.4298 54.64L62.2098 55.64L61.9098 57.94C61.8618 58.339 61.9737 58.7408 62.221 59.0575C62.4684 59.3742 62.8311 59.58 63.2298 59.63H63.4198C63.7872 59.6284 64.1415 59.4938 64.4172 59.2511C64.693 59.0084 64.8715 58.6741 64.9198 58.31L65.0498 57.31L66.1998 57.97C66.4266 58.1045 66.6862 58.1738 66.9498 58.17C67.215 58.1719 67.4759 58.1035 67.7061 57.9718C67.9362 57.8401 68.1273 57.6496 68.2598 57.42C68.4599 57.0722 68.5144 56.6594 68.4114 56.2717C68.3083 55.8839 68.0562 55.5526 67.7098 55.35L66.5498 54.69L67.3998 54.04C67.5595 53.9209 67.6939 53.7713 67.7951 53.5997C67.8963 53.4281 67.9623 53.2382 67.9893 53.0408C68.0163 52.8435 68.0038 52.6427 67.9523 52.4503C67.9009 52.2578 67.8117 52.0776 67.6898 51.92C67.4461 51.602 67.0865 51.3931 66.6895 51.3388C66.2925 51.2845 65.8901 51.3891 65.5698 51.63L63.7198 53L61.9998 52L67.2398 48C67.3981 47.8798 67.5311 47.7297 67.6313 47.5581C67.7315 47.3866 67.797 47.1969 67.8239 47.0001C67.8508 46.8032 67.8387 46.603 67.7883 46.4108C67.7378 46.2186 67.65 46.0382 67.5298 45.88C67.4097 45.7218 67.2595 45.5887 67.088 45.4885C66.9164 45.3883 66.7268 45.3229 66.5299 45.2959C66.333 45.269 66.1328 45.2811 65.9406 45.3316C65.7484 45.382 65.5681 45.4698 65.4098 45.59L59.0998 50.34L56.8598 49L63.8598 43.66C64.0461 43.5203 64.1973 43.3391 64.3015 43.1308C64.4056 42.9225 64.4598 42.6929 64.4598 42.46C64.4598 42.2271 64.4056 41.9975 64.3015 41.7892C64.1973 41.5809 64.0461 41.3997 63.8598 41.26L56.8598 35.92L59.1098 34.62L65.3498 39.36C65.613 39.5566 65.9314 39.665 66.2598 39.67C66.5662 39.6607 66.8625 39.5584 67.1093 39.3767C67.3561 39.1949 67.5418 38.9424 67.6416 38.6526C67.7415 38.3628 67.7508 38.0495 67.6683 37.7543C67.5858 37.4592 67.4154 37.1961 67.1798 37L61.9998 33L63.7798 32L65.6198 33.4C65.8844 33.6011 66.2075 33.71 66.5398 33.71C66.8508 33.6986 67.1507 33.5914 67.3985 33.4031C67.6462 33.2147 67.8297 32.9544 67.9239 32.6578C68.018 32.3611 68.0182 32.0426 67.9244 31.7459C67.8306 31.4491 67.6474 31.1886 67.3998 31L66.5698 30.37L67.7198 29.71C67.894 29.6097 68.0465 29.4758 68.1686 29.3161C68.2907 29.1564 68.3798 28.9741 68.431 28.7798C68.4821 28.5854 68.4942 28.3828 68.4666 28.1838C68.4389 27.9847 68.372 27.7931 68.2698 27.62V27.62ZM51.4798 26.94L52.4798 34.94L43.9998 39.88V30.08L51.4798 26.94ZM33.4798 26.94L40.9998 30.08V39.88L32.4998 35L33.4798 26.94ZM24.4798 42.5L30.9998 37.6L39.4798 42.5L30.9998 47.4L24.4798 42.5ZM33.4798 58.06L32.4798 50.06L40.9998 45.12V54.92L33.4798 58.06ZM51.4798 58.06L43.9998 54.92V45.12L52.4998 50L51.4798 58.06ZM60.4798 42.5L53.9998 47.4L45.5098 42.5L53.9998 37.6L60.4798 42.5Z" fill="#0F6851"/>
</g>
<defs>
<clipPath id="clip0">
<path d="M0 0H85V85H0V0Z" fill="white"/>
</clipPath>
</defs>
</svg>
