<svg width="85" height="85" viewBox="0 0 85 85" fill="none" xmlns="http://www.w3.org/2000/svg" class='icon--oas'>
<g clip-path="url(#clip0)">
<path d="M42.5 0C34.0943 0 25.8774 2.49258 18.8883 7.16254C11.8992 11.8325 6.45186 18.4701 3.23514 26.236C0.0184145 34.0018 -0.823227 42.5471 0.816645 50.7913C2.45652 59.0355 6.50425 66.6083 12.448 72.552C18.3917 78.4958 25.9645 82.5435 34.2087 84.1834C42.4529 85.8232 50.9982 84.9816 58.7641 81.7649C66.5299 78.5482 73.1675 73.1008 77.8375 66.1117C82.5074 59.1226 85 50.9057 85 42.5C84.9868 31.2324 80.5049 20.43 72.5374 12.4626C64.57 4.49515 53.7677 0.0132327 42.5 0V0ZM42.5 82C34.6933 81.996 27.063 79.6777 20.5736 75.3381C14.0842 70.9985 9.0271 64.8323 6.04143 57.6191C3.05576 50.4059 2.27562 42.4694 3.7996 34.8129C5.32358 27.1564 9.08328 20.1236 14.6034 14.6034C20.1236 9.08326 27.1564 5.32356 34.813 3.79958C42.4695 2.2756 50.4059 3.05575 57.6191 6.04141C64.8323 9.02708 70.9985 14.0842 75.3381 20.5736C79.6777 27.063 81.9961 34.6933 82 42.5C81.9947 52.9744 77.8314 63.0183 70.4249 70.4249C63.0183 77.8314 52.9744 81.9947 42.5 82Z" fill="#4798D0"/>
<path d="M53.1196 39.18C52.2796 38.1 50.8396 37.55 48.8196 37.55C48.3617 37.5481 47.9042 37.5749 47.4496 37.63L44.4496 33.63L51.1996 24.86L51.8096 25.33C52.1199 25.4675 52.4673 25.4972 52.7964 25.4143C53.1256 25.3315 53.4175 25.1408 53.6257 24.8728C53.8339 24.6048 53.9464 24.2748 53.9453 23.9354C53.9442 23.596 53.8296 23.2667 53.6196 23L51.8196 21.61L49.9996 20.2C49.6793 19.9917 49.2923 19.9117 48.9156 19.9758C48.539 20.04 48.2003 20.2436 47.967 20.5463C47.7337 20.8489 47.623 21.2282 47.6568 21.6088C47.6907 21.9894 47.8666 22.3433 48.1496 22.6L48.7596 23.07L42.4996 31.2L36.2296 23.07L36.8396 22.6C37.1133 22.3418 37.2816 21.9912 37.3118 21.6162C37.3419 21.2411 37.2319 20.8681 37.0029 20.5695C36.774 20.2708 36.4424 20.0677 36.0723 19.9995C35.7022 19.9312 35.32 20.0027 34.9996 20.2L33.1996 21.59L31.3796 23C31.2037 23.1144 31.0534 23.264 30.9381 23.4394C30.8228 23.6148 30.7451 23.8121 30.7099 24.019C30.6747 24.2259 30.6826 24.4378 30.7333 24.6414C30.784 24.8451 30.8763 25.036 31.0045 25.2022C31.1326 25.3684 31.2937 25.5063 31.4778 25.6071C31.6618 25.708 31.8647 25.7697 32.0737 25.7883C32.2827 25.8068 32.4934 25.7819 32.6923 25.7151C32.8912 25.6483 33.0742 25.541 33.2296 25.4L33.8396 24.93L40.5896 33.7L37.5896 37.7C37.135 37.6449 36.6775 37.6181 36.2196 37.62C34.2196 37.62 32.7596 38.17 31.9196 39.25L25.9196 47.06C25.1918 48.1265 24.8992 49.4308 25.1017 50.7059C25.3042 51.9811 25.9865 53.1306 27.0089 53.9191C28.0312 54.7076 29.3164 55.0754 30.6011 54.9473C31.8859 54.8192 33.073 54.2049 33.9196 53.23L39.9196 45.4C41.1396 43.82 40.4696 41.11 39.9196 39.58L42.4996 36.23L45.0796 39.58C44.5496 41.11 43.8796 43.82 45.0796 45.4L51.0796 53.23C51.5453 53.851 52.1492 54.355 52.8435 54.7022C53.5378 55.0493 54.3034 55.23 55.0796 55.23C56.0227 55.2273 56.9464 54.961 57.7462 54.4613C58.5461 53.9615 59.1903 53.2481 59.6063 52.4016C60.0223 51.5552 60.1934 50.6093 60.1003 49.6707C60.0072 48.7322 59.6537 47.8383 59.0796 47.09L53.1196 39.18ZM37.5096 43.48L31.5096 51.31C31.3223 51.5566 31.0802 51.7563 30.8026 51.8934C30.5249 52.0304 30.2192 52.1012 29.9096 52.1C29.4608 52.1031 29.0241 51.9552 28.6696 51.68C28.456 51.5199 28.2766 51.3187 28.142 51.0883C28.0074 50.8578 27.9203 50.6027 27.8859 50.338C27.8514 50.0734 27.8702 49.8045 27.9413 49.5472C28.0123 49.2899 28.1342 49.0495 28.2996 48.84L34.2996 41.03C34.4596 40.82 35.0596 40.57 36.1996 40.57C36.506 40.5534 36.8131 40.5534 37.1196 40.57C37.4975 41.4904 37.6318 42.4926 37.5096 43.48ZM57.1396 50.34C57.1065 50.6033 57.0215 50.8573 56.8893 51.0874C56.7571 51.3175 56.5804 51.5189 56.3696 51.68C56.0178 51.9531 55.5849 52.1009 55.1396 52.1C54.8299 52.1012 54.5243 52.0304 54.2466 51.8934C53.969 51.7563 53.7269 51.5566 53.5396 51.31L47.5396 43.49C47.4113 42.5157 47.546 41.5248 47.9296 40.62C48.236 40.6034 48.5431 40.6034 48.8496 40.62C49.9896 40.62 50.5896 40.87 50.7496 41.08L56.7496 48.89C57.063 49.3044 57.2028 49.8244 57.1396 50.34Z" fill="#4798D0"/>
<path d="M52.66 58.32C51.714 58.3174 50.8075 57.9404 50.1386 57.2715C49.4696 56.6025 49.0927 55.696 49.09 54.75C49.0475 54.382 48.8711 54.0425 48.5945 53.7961C48.318 53.5497 47.9605 53.4135 47.59 53.4135C47.2196 53.4135 46.8621 53.5497 46.5855 53.7961C46.3089 54.0425 46.1326 54.382 46.09 54.75C46.09 55.6968 45.7139 56.6049 45.0444 57.2744C44.3749 57.9439 43.4668 58.32 42.52 58.32C41.5732 58.32 40.6652 57.9439 39.9956 57.2744C39.3261 56.6049 38.95 55.6968 38.95 54.75C38.9745 54.5385 38.9539 54.3242 38.8897 54.1212C38.8255 53.9181 38.7191 53.731 38.5774 53.572C38.4358 53.413 38.2621 53.2858 38.0678 53.1987C37.8735 53.1116 37.663 53.0665 37.45 53.0665C37.2371 53.0665 37.0266 53.1116 36.8323 53.1987C36.638 53.2858 36.4643 53.413 36.3226 53.572C36.181 53.731 36.0745 53.9181 36.0103 54.1212C35.9461 54.3242 35.9256 54.5385 35.95 54.75C35.9474 55.696 35.5704 56.6025 34.9015 57.2715C34.2325 57.9404 33.326 58.3174 32.38 58.32C32.1625 58.2844 31.9399 58.2965 31.7275 58.3555C31.5151 58.4144 31.3181 58.5189 31.1502 58.6616C30.9822 58.8043 30.8473 58.9818 30.7547 59.1818C30.6622 59.3819 30.6143 59.5996 30.6143 59.82C30.6143 60.0404 30.6622 60.2582 30.7547 60.4582C30.8473 60.6583 30.9822 60.8358 31.1502 60.9785C31.3181 61.1212 31.5151 61.2256 31.7275 61.2846C31.9399 61.3436 32.1625 61.3557 32.38 61.32C33.3382 61.3223 34.2853 61.116 35.1556 60.7154C36.026 60.3147 36.7987 59.7294 37.42 59C38.0373 59.7499 38.813 60.3537 39.6913 60.7683C40.5696 61.1829 41.5288 61.3979 42.5 61.3979C43.4713 61.3979 44.4305 61.1829 45.3088 60.7683C46.1871 60.3537 46.9627 59.7499 47.58 59C48.198 59.7492 48.9738 60.3527 49.8519 60.7676C50.73 61.1824 51.6888 61.3984 52.66 61.4C52.8775 61.4357 53.1002 61.4236 53.3125 61.3646C53.5249 61.3056 53.7219 61.2012 53.8899 61.0585C54.0578 60.9158 54.1928 60.7383 54.2853 60.5382C54.3779 60.3382 54.4258 60.1204 54.4258 59.9C54.4258 59.6796 54.3779 59.4619 54.2853 59.2618C54.1928 59.0618 54.0578 58.8843 53.8899 58.7416C53.7219 58.5989 53.5249 58.4944 53.3125 58.4355C53.1002 58.3765 52.8775 58.3644 52.66 58.4V58.32Z" fill="#4798D0"/>
</g>
<defs>
<clipPath id="clip0">
<path d="M0 0H85V85H0V0Z" fill="white"/>
</clipPath>
</defs>
</svg>
