<svg width="88" height="88" viewBox="0 0 88 88" fill="none" xmlns="http://www.w3.org/2000/svg">
<path d="M88 18H0V70H88V18Z" fill="#5B2C93"/>
<path d="M58.2341 55.7019C56.598 58.7284 54.1689 61.2577 51.2046 63.0213C48.2403 64.7848 44.8514 65.7169 41.3976 65.7186C39.0668 65.7228 36.7556 65.2939 34.583 64.454C31.0063 63.1248 27.9245 60.7376 25.752 57.6136C26.2558 56.6591 26.9814 55.8382 27.8684 55.219C30.1357 58.7894 33.735 61.3178 37.8752 62.2486C38.6799 62.4308 39.4982 62.5473 40.3219 62.5971C40.6721 62.6269 41.0224 62.6369 41.3726 62.6369C43.5148 62.6451 45.6366 62.2234 47.6113 61.3971C49.586 60.5708 51.373 59.3568 52.8654 57.8277C53.9235 57.7151 54.958 57.4414 55.9325 57.0162C56.751 56.6737 57.524 56.2323 58.2341 55.7019V55.7019Z" fill="white"/>
<path d="M47.7467 32.7413C45.578 31.8959 43.25 31.5315 40.9252 31.6736C38.6004 31.8156 36.3348 32.4606 34.2863 33.5637C32.2378 34.6667 30.4559 36.2011 29.0648 38.06C27.6737 39.9188 26.707 42.0573 26.232 44.3261C25.8918 44.58 25.5616 44.824 25.2313 45.1277C24.3658 45.8446 23.5452 46.5515 22.8047 47.2634C22.8964 42.2771 24.9504 37.5256 28.5253 34.03C32.1002 30.5344 36.9106 28.5737 41.9227 28.5693C42.4707 28.5665 43.0184 28.5914 43.5638 28.644L47.7467 32.7413Z" fill="white"/>
<path d="M53.6222 56.1051L53.4121 41.0503C53.4076 40.9959 53.3925 40.943 53.3674 40.8945C53.3424 40.846 53.3079 40.803 53.2661 40.7678C53.2242 40.7326 53.1758 40.7061 53.1235 40.6896C53.0713 40.6731 53.0163 40.6671 52.9617 40.6719C52.9286 40.6668 52.8948 40.6668 52.8617 40.6719L45.0313 43.3901C44.9746 43.4094 44.9229 43.4407 44.8796 43.482C44.8364 43.5233 44.8028 43.5735 44.7812 43.6291L42.5296 49.1353C42.4854 49.2371 42.4027 49.3175 42.2995 49.3593L40.9386 49.9169C40.8756 49.9418 40.8075 49.9512 40.7402 49.9443C40.6728 49.9373 40.6081 49.9143 40.5516 49.8772C40.4951 49.84 40.4484 49.7898 40.4156 49.7308C40.3828 49.6719 40.3648 49.6059 40.3632 49.5385L40.2731 43.0665C40.27 42.717 40.132 42.3819 39.8878 42.1306L35.3848 37.4508C35.3083 37.372 35.2656 37.2667 35.2656 37.1571C35.2656 37.0475 35.3083 36.9422 35.3848 36.8634C35.422 36.8268 35.4662 36.798 35.5149 36.7787L36.8758 36.2212C36.98 36.1788 37.0968 36.1788 37.201 36.2212L42.7048 38.5809C42.7586 38.6069 42.8176 38.6204 42.8774 38.6204C42.9372 38.6204 42.9962 38.6069 43.05 38.5809L50.5351 35.0114C50.5845 34.988 50.6287 34.955 50.6652 34.9146C50.7018 34.8741 50.7299 34.8268 50.7481 34.7754C50.7662 34.7241 50.774 34.6697 50.7709 34.6153C50.7678 34.561 50.754 34.5078 50.7302 34.4588C50.7148 34.4288 50.6964 34.4004 50.6752 34.3741L39.5726 23.5211C39.479 23.4073 39.4344 23.2613 39.4484 23.1149C39.4625 22.9685 39.5341 22.8336 39.6477 22.7395C39.6894 22.7038 39.7367 22.6752 39.7878 22.6549L41.4639 21.9828C41.9043 21.804 42.3832 21.7404 42.8553 21.7979C43.3273 21.8554 43.7768 22.0322 44.1607 22.3113L58.2954 31.1481C58.4871 31.2892 58.7123 31.3786 58.9491 31.4073C59.1858 31.4361 59.426 31.4034 59.6463 31.3124L69.448 27.5138C69.8205 27.3615 70.2196 27.2837 70.6224 27.2848C71.0252 27.2859 71.4238 27.366 71.7955 27.5204C72.5461 27.8322 73.1415 28.428 73.4507 29.1766C73.6038 29.5473 73.682 29.9444 73.6809 30.3452C73.6798 30.7459 73.5993 31.1426 73.4441 31.5124C73.289 31.8822 73.0621 32.218 72.7765 32.5006C72.4909 32.7832 72.1521 33.0071 71.7796 33.1594L61.9729 36.9629C61.7537 37.0539 61.5614 37.1991 61.4144 37.3847C61.2673 37.5702 61.1702 37.7901 61.1323 38.0234L57.745 53.7752C57.6667 54.2432 57.4686 54.6832 57.1697 55.053C56.8709 55.4227 56.4814 55.7096 56.0388 55.8861L54.3627 56.5681C54.2958 56.5965 54.2239 56.6112 54.1511 56.6115C54.0784 56.6118 54.0063 56.5976 53.9392 56.5698C53.8721 56.542 53.8112 56.501 53.7602 56.4495C53.7092 56.3979 53.6691 56.3367 53.6422 56.2694C53.6213 56.2185 53.6078 56.1648 53.6022 56.1101L53.6222 56.1051Z" fill="white"/>
<path d="M34.7781 40.1592L38.5256 43.5097V49.0507C38.5256 49.0507 23.8256 54.2134 23.8256 59.4706C23.8256 64.7279 31.701 64.8225 31.701 64.8225C31.701 64.8225 18.9273 68.9347 17.1911 59.5652C15.8502 50.6787 34.7781 40.1592 34.7781 40.1592Z" fill="white"/>
<path fill-rule="evenodd" clip-rule="evenodd" d="M44.0307 50.2555H43.9906L43.8405 50.3202C43.824 50.3279 43.8098 50.3398 43.7992 50.3546C43.7887 50.3694 43.7823 50.3868 43.7805 50.4048V50.7235L43.6604 50.8778C43.6515 50.8866 43.6444 50.8971 43.6396 50.9086C43.6347 50.9201 43.6322 50.9325 43.6322 50.945C43.6322 50.9575 43.6347 50.9699 43.6396 50.9814C43.6444 50.9929 43.6515 51.0034 43.6604 51.0122C43.6701 51.0156 43.6807 51.0156 43.6904 51.0122L43.5303 51.3557C43.523 51.375 43.523 51.3962 43.5303 51.4155L43.5904 51.7689L43.2601 52.5356L43.03 52.5157L42.8499 52.3166C42.8404 52.3056 42.8284 52.297 42.8148 52.2917L42.0894 51.9681L41.7541 51.6743L41.9443 51.3308C41.9505 51.3176 41.9537 51.3031 41.9537 51.2885C41.9537 51.2739 41.9505 51.2594 41.9443 51.2462C41.9699 51.2462 41.9947 51.2364 42.0133 51.2188C42.0319 51.2012 42.043 51.1771 42.0443 51.1516V51.0371L42.1694 50.9475C42.1863 50.9291 42.1956 50.9052 42.1956 50.8803C42.1956 50.8554 42.1863 50.8314 42.1694 50.8131L42.0543 50.6538C42.0455 50.6449 42.035 50.6378 42.0234 50.633C42.0118 50.6282 41.9993 50.6257 41.9868 50.6257C41.9742 50.6257 41.9618 50.6282 41.9502 50.633C41.9386 50.6378 41.9281 50.6449 41.9192 50.6538L41.8392 50.7235C41.8258 50.7176 41.8113 50.7145 41.7967 50.7145C41.782 50.7145 41.7675 50.7176 41.7541 50.7235L41.574 50.7683L41.4339 50.6637C41.4181 50.654 41.3999 50.6489 41.3814 50.6489C41.3628 50.6489 41.3446 50.654 41.3288 50.6637L41.2188 50.7185V50.6737C41.2117 50.6499 41.1961 50.6296 41.1748 50.6167C41.1535 50.6038 41.1281 50.5992 41.1037 50.604H40.9786L40.5233 50.4198C40.5023 50.4119 40.4794 50.4113 40.458 50.418C40.4367 50.4246 40.4182 50.4382 40.4056 50.4565C40.3929 50.4749 40.3868 50.4969 40.3881 50.5191C40.3895 50.5413 40.3984 50.5624 40.4132 50.5791L40.5783 50.7483L40.2581 50.7832H40.103L39.9679 50.838C39.9509 50.8427 39.9357 50.8523 39.9241 50.8656C39.9125 50.8788 39.9051 50.8952 39.9029 50.9126C39.89 50.912 39.8771 50.9139 39.8649 50.9184C39.8528 50.9228 39.8417 50.9297 39.8324 50.9385C39.823 50.9474 39.8156 50.958 39.8105 50.9698C39.8054 50.9817 39.8028 50.9944 39.8028 51.0072L39.8378 51.1616L39.7027 51.2064C39.6817 51.2157 39.6643 51.2314 39.6527 51.2512L39.5176 51.4852C39.5059 51.5079 39.503 51.5342 39.5094 51.559C39.5159 51.5838 39.5313 51.6053 39.5526 51.6196L39.6777 51.6992L39.6527 51.7341L39.3475 51.6196H39.3275H39.2674L39.0773 51.3557C39.0609 51.3513 39.0436 51.3513 39.0273 51.3557H38.7971C38.776 51.3489 38.7532 51.3489 38.7321 51.3557L38.627 51.4354H38.5519C38.5358 51.4395 38.5209 51.4476 38.5086 51.4589C38.4964 51.4702 38.4872 51.4843 38.4819 51.5001V51.525C38.4614 51.514 38.4377 51.5105 38.4148 51.515C38.392 51.5196 38.3715 51.5319 38.3568 51.5499L38.1867 51.754C38.1759 51.7703 38.1702 51.7893 38.1702 51.8088C38.1702 51.8282 38.1759 51.8473 38.1867 51.8635H38.1517C38.1309 51.8706 38.1132 51.8847 38.1016 51.9033L37.9715 52.1025C37.9593 52.12 37.9527 52.1409 37.9527 52.1622C37.9527 52.1836 37.9593 52.2044 37.9715 52.222V52.222L37.8314 52.1573C37.8197 52.1515 37.8069 52.1483 37.7938 52.1477C37.7807 52.1471 37.7677 52.1492 37.7555 52.1539C37.7433 52.1586 37.7322 52.1657 37.7229 52.1749C37.7135 52.184 37.7062 52.1949 37.7014 52.207C37.6962 52.2249 37.6962 52.2439 37.7014 52.2618V52.3464C37.6856 52.3367 37.6674 52.3316 37.6488 52.3316C37.6303 52.3316 37.6121 52.3367 37.5963 52.3464L37.3411 52.6003C37.3327 52.6138 37.3282 52.6293 37.3282 52.6451C37.3282 52.661 37.3327 52.6765 37.3411 52.6899L37.4012 52.9389L37.0259 53.3471L36.4405 53.6259L35.9402 53.9395H35.8101C35.7859 53.9303 35.7592 53.9303 35.735 53.9395L35.1346 54.4075C35.1175 54.4195 35.1051 54.4372 35.0996 54.4573V54.532C35.0827 54.5202 35.0626 54.5139 35.042 54.5139C35.0215 54.5139 35.0014 54.5202 34.9845 54.532L34.8894 54.6017C34.8773 54.6112 34.8674 54.6233 34.8605 54.637C34.8536 54.6508 34.8498 54.6659 34.8494 54.6813V55.443C34.8471 55.4579 34.8471 55.473 34.8494 55.4878L35.0896 55.9857L35.0245 56.0853C35.0127 56.102 35.0063 56.122 35.0063 56.1425C35.0063 56.163 35.0127 56.183 35.0245 56.1998L35.4498 56.6976L35.68 57.2303L35.775 57.5589C35.775 57.5589 35.775 57.5589 35.775 57.5887L36.0502 57.9771L36.1053 58.221L35.9502 58.3056C35.9365 58.3133 35.9249 58.3241 35.9162 58.3371C35.9075 58.35 35.902 58.3648 35.9001 58.3803V58.6193C35.8981 58.6407 35.9028 58.6623 35.9135 58.681C35.9243 58.6997 35.9406 58.7147 35.9602 58.7238L36.5606 58.9628H36.6156L36.9258 58.913C36.9389 58.9115 36.9516 58.9072 36.9628 58.9003C36.974 58.8934 36.9836 58.8842 36.9909 58.8732L37.3711 58.3753L38.3318 58.3505C38.3521 58.3494 38.3717 58.3421 38.3878 58.3296C38.4039 58.3172 38.4158 58.3001 38.4218 58.2808L38.5519 57.8725L39.0523 57.6784L40.4082 57.3996L41.1637 57.6933C41.1591 57.7127 41.1604 57.7331 41.1676 57.7517C41.1747 57.7703 41.1873 57.7864 41.2037 57.7978L41.3589 57.8924L41.549 58.3903C41.5595 58.409 41.573 58.4258 41.589 58.4401L41.7241 58.5147C41.7351 58.5218 41.7475 58.5265 41.7604 58.5285C41.7734 58.5306 41.7866 58.53 41.7993 58.5267C41.812 58.5234 41.8239 58.5176 41.8342 58.5095C41.8445 58.5015 41.853 58.4914 41.8592 58.4799C41.8614 58.4701 41.8614 58.4599 41.8592 58.45V58.3405L42.2044 57.9721V58.0418L42.0743 58.226C42.0714 58.2425 42.0714 58.2593 42.0743 58.2758V58.3753L42.0193 58.4152C42.001 58.4338 41.9907 58.4588 41.9907 58.4849C41.9907 58.5109 42.001 58.536 42.0193 58.5546C42.0273 58.5655 42.0379 58.5744 42.0501 58.5805C42.0622 58.5866 42.0757 58.5896 42.0894 58.5894H42.2845C42.3056 58.5966 42.3284 58.5966 42.3495 58.5894V58.6193C42.3439 58.6418 42.3463 58.6655 42.3563 58.6864C42.3664 58.7073 42.3834 58.7241 42.4046 58.7338L42.6647 58.8533L42.6948 59.1918C42.6899 59.2097 42.6899 59.2286 42.6948 59.2466L42.9599 59.5652C42.9707 59.5804 42.9868 59.591 43.005 59.5951L43.8005 59.8838C43.8152 59.8913 43.8315 59.8951 43.848 59.8951C43.8646 59.8951 43.8809 59.8913 43.8956 59.8838L44.1808 59.6449L44.3909 59.9336C44.409 59.949 44.4321 59.9575 44.456 59.9575C44.4798 59.9575 44.5029 59.949 44.521 59.9336L44.9063 59.6946L45.0013 59.615L45.5467 59.5602C45.566 59.5576 45.5841 59.5497 45.5992 59.5374C45.6142 59.525 45.6255 59.5088 45.6318 59.4905L45.8319 58.8234L46.1071 58.3256L46.6374 57.8277C46.6502 57.8177 46.659 57.8036 46.6625 57.7879L47.0727 56.7424C47.0755 56.7259 47.0755 56.7091 47.0727 56.6926L47.0077 56.1948L47.0727 55.6969C47.0779 55.679 47.0779 55.6601 47.0727 55.6422L46.6975 54.8954C46.6921 54.8805 46.6814 54.8681 46.6675 54.8606L46.5224 54.761L46.3473 54.3279C46.3381 54.3083 46.323 54.2921 46.3042 54.2814C46.2854 54.2707 46.2637 54.2661 46.2422 54.2681H46.1771L46.032 53.6657C46.0264 53.643 46.012 53.6233 45.992 53.611L45.2465 53.1131L45.1614 52.4908C45.1642 52.4727 45.1642 52.4542 45.1614 52.436L45.0163 52.2867V51.8337C45.0186 51.8201 45.0175 51.8062 45.0131 51.7932C45.0087 51.7802 45.0013 51.7685 44.9913 51.759L44.7362 51.4901C44.7241 51.4778 44.7089 51.4689 44.6921 51.4645C44.6754 51.4601 44.6577 51.4604 44.6411 51.4652L44.491 51.5001L44.451 51.067C44.451 51.067 44.451 51.067 44.451 51.0371L44.1357 50.3202C44.1298 50.2981 44.1157 50.2791 44.0961 50.2671C44.0766 50.255 44.0532 50.2509 44.0307 50.2555Z" fill="white"/>
<path fill-rule="evenodd" clip-rule="evenodd" d="M44.0303 60.3418C44.0088 60.3415 43.9879 60.3489 43.9714 60.3626C43.9549 60.3763 43.9438 60.3954 43.9402 60.4165L43.8902 60.6654C43.883 60.6864 43.883 60.7092 43.8902 60.7301L44.0003 60.9243C43.9801 60.9384 43.9656 60.959 43.9592 60.9827C43.9528 61.0063 43.9549 61.0315 43.9653 61.0537L44.0653 61.2429L44.1254 61.3773C44.1351 61.3967 44.1509 61.4125 44.1704 61.4221L44.3905 61.5317C44.402 61.5375 44.4145 61.541 44.4273 61.5419C44.4402 61.5429 44.4531 61.5412 44.4652 61.537C44.4774 61.5328 44.4886 61.5262 44.4981 61.5176C44.5076 61.509 44.5153 61.4985 44.5206 61.4869L44.5707 61.3375L44.6357 61.3972C44.6442 61.4068 44.6546 61.4144 44.6662 61.4196C44.6778 61.4249 44.6905 61.4276 44.7033 61.4276C44.716 61.4276 44.7287 61.4249 44.7403 61.4196C44.752 61.4144 44.7624 61.4068 44.7708 61.3972C44.7732 61.3841 44.7732 61.3706 44.7708 61.3574L44.8959 60.989V60.5808C44.8966 60.5679 44.8946 60.5551 44.8901 60.543C44.8857 60.531 44.8788 60.52 44.8699 60.5106C44.861 60.5013 44.8503 60.4939 44.8384 60.4888C44.8265 60.4838 44.8137 60.4812 44.8008 60.4812H44.7658L44.4005 60.5907L43.9853 60.3966C43.974 60.3924 43.9615 60.3924 43.9502 60.3966L44.0303 60.3418Z" fill="white"/>
</svg>
