<svg width="290" height="238" viewBox="0 0 290 238" fill="none" xmlns="http://www.w3.org/2000/svg">
<path d="M257.633 217.834C267.152 215.443 290 210.662 290 206.081L0 207.151C0 207.151 -1.56252e-06 220.498 24.3551 220.498C39.2647 220.498 53.0847 220.498 53.0847 224.291C53.0847 229.271 35.6192 225.993 35.6192 230.973C35.6192 235.953 49.5458 237.945 72.0986 237.945C94.6514 237.945 197.438 237.746 224.357 237.945C251.276 238.144 263.056 229.778 253.545 227.155C244.034 224.532 248.114 220.224 257.633 217.834Z" fill="#EFF8FC"/>
<path d="M115.988 43.7767C106.796 42.9482 102.408 39.0777 100.453 36.9701C98.105 34.104 96.8586 30.4931 96.9388 26.7888C97.019 23.0846 98.4205 19.531 100.89 16.7692C108.121 8.19971 125.413 8.63714 133.366 15.7883C141.319 22.9395 140.523 30.9589 138.403 35.3066C135.513 41.3576 126.897 44.7642 115.988 43.7767Z" fill="#FFF2E6"/>
<path d="M70.3571 43.8429C77.1769 43.2266 80.4311 40.3568 81.8825 38.7993C83.6227 36.6725 84.5461 33.9942 84.4866 31.2469C84.4271 28.4995 83.3884 25.8637 81.5578 23.8143C76.196 17.4518 63.3584 17.7766 57.4399 23.0853C51.5215 28.394 52.1378 34.3522 53.7086 37.56C55.8692 42.0468 62.2648 44.572 70.3571 43.8429Z" fill="#FFF2E6"/>
<path d="M172.826 33.59C167.074 33.0731 164.336 30.654 163.11 29.3351C161.653 27.5459 160.879 25.2962 160.929 22.9889C160.979 20.6816 161.849 18.4674 163.382 16.7427C167.902 11.381 178.718 11.6527 183.709 16.1263C188.699 20.6 188.163 25.6038 186.857 28.3211C185.034 32.0723 179.646 34.2064 172.826 33.59Z" fill="#FFE8D3"/>
<path d="M36.3377 83.5422C30.5915 83.0187 27.8477 80.6062 26.6282 79.2873C25.1626 77.494 24.3847 75.2367 24.4345 72.9211C24.4843 70.6056 25.3585 68.3838 26.9 66.6551C31.42 61.3 42.2362 61.5718 47.2268 66.0454C52.2174 70.519 51.6805 75.5229 50.3683 78.2402C48.5324 82.0113 43.1442 84.1387 36.3377 83.5422Z" fill="#E3FCE6"/>
<path d="M207.714 66.2707C200.165 65.608 196.566 62.4135 194.963 60.6837C193.038 58.3322 192.017 55.3708 192.083 52.3331C192.148 49.2954 193.297 46.3809 195.32 44.1147C201.285 37.0828 215.455 37.4407 222.003 43.3061C228.551 49.1715 227.849 55.7527 226.132 59.325C223.74 64.2825 216.668 67.0793 207.714 66.2707Z" fill="#E3FCE6"/>
<path d="M251.847 55.3418C247.208 54.9243 245.008 52.9758 244.02 51.9153C242.839 50.4721 242.213 48.6545 242.255 46.7904C242.296 44.9262 243.002 43.1381 244.245 41.7486C247.884 37.434 256.593 37.6528 260.609 41.2515C264.625 44.8503 264.201 48.8865 263.147 51.0803C261.676 54.1223 257.342 55.8389 251.847 55.3418Z" fill="#E3FCE6"/>
<path d="M208.655 49.0787L206.952 49.6156L202.472 38.4746C202.922 38.0543 203.46 37.7398 204.047 37.554C204.634 37.3683 205.255 37.316 205.865 37.4009L208.655 49.0787ZM206.667 35.9627C205.638 35.7129 204.561 35.7495 203.551 36.0684C202.542 36.3874 201.639 36.9765 200.941 37.772C200.846 37.8828 200.784 38.0173 200.76 38.1611C200.737 38.3048 200.753 38.4522 200.808 38.5872L205.739 50.8682C205.813 51.0524 205.954 51.2021 206.133 51.2879C206.312 51.3738 206.517 51.3895 206.707 51.3321L209.789 50.3512C209.977 50.2914 210.136 50.1624 210.233 49.9902C210.33 49.8181 210.358 49.6156 210.312 49.4234L207.27 36.5459C207.236 36.4044 207.164 36.2749 207.061 36.172C206.958 36.0691 206.828 35.9966 206.687 35.9627" fill="#7FBC42"/>
<path d="M202.392 32.3374C202.606 32.2698 202.837 32.2897 203.036 32.3929C203.235 32.496 203.385 32.674 203.452 32.8875C203.52 33.1011 203.5 33.3328 203.397 33.5317C203.294 33.7305 203.116 33.8803 202.902 33.9479C202.689 34.0156 202.457 33.9957 202.258 33.8925C202.059 33.7894 201.91 33.6114 201.842 33.3979C201.774 33.1843 201.794 32.9526 201.897 32.7537C202.001 32.5549 202.179 32.4051 202.392 32.3374ZM203.38 35.4524C203.839 35.3115 204.247 35.0372 204.55 34.6642C204.854 34.2913 205.04 33.8365 205.084 33.3577C205.129 32.8789 205.03 32.3977 204.8 31.9752C204.571 31.5526 204.221 31.2079 203.795 30.9846C203.369 30.7614 202.887 30.6698 202.408 30.7215C201.93 30.7731 201.478 30.9657 201.11 31.2747C200.742 31.5838 200.473 31.9953 200.339 32.4572C200.205 32.919 200.212 33.4102 200.357 33.8684C200.551 34.4712 200.973 34.9743 201.533 35.2702C202.093 35.5662 202.746 35.6316 203.353 35.4524" fill="#7FBC42"/>
<path d="M223.408 29.3219L220.585 27.8704C220.399 27.778 220.186 27.761 219.988 27.8227C219.79 27.8845 219.624 28.0203 219.524 28.2018L218.06 31.0251C217.98 31.2087 217.972 31.4158 218.039 31.6045C218.106 31.7932 218.243 31.9494 218.421 32.0413C218.598 32.1332 218.805 32.154 218.997 32.0994C219.19 32.0449 219.355 31.9191 219.458 31.7476L220.048 30.6209L221.307 34.5974L215.945 36.2875C215.846 36.3184 215.754 36.3687 215.674 36.4355C215.594 36.5023 215.528 36.5843 215.48 36.6768C215.432 36.7692 215.402 36.8702 215.394 36.9741C215.385 37.0779 215.397 37.1824 215.428 37.2816L217.125 42.6433L211.763 44.34C211.564 44.4025 211.398 44.5416 211.301 44.7268C211.204 44.9119 211.184 45.128 211.246 45.3275L212.943 50.6959L204.155 53.4728C203.955 53.5361 203.789 53.676 203.693 53.8619C203.597 54.0477 203.578 54.2641 203.641 54.4636C203.705 54.6632 203.845 54.8294 204.03 54.9257C204.216 55.022 204.433 55.0406 204.632 54.9773L214.169 51.9551C214.268 51.9249 214.361 51.8753 214.441 51.8091C214.52 51.7429 214.586 51.6615 214.635 51.5696C214.683 51.4777 214.712 51.3771 214.721 51.2738C214.73 51.1704 214.718 51.0663 214.686 50.9676L212.99 45.6059L218.351 43.9092C218.551 43.8467 218.717 43.7076 218.814 43.5224C218.911 43.3373 218.93 43.1212 218.868 42.9217L217.172 37.5533L222.533 35.8567C222.732 35.7927 222.897 35.6533 222.994 35.4686C223.09 35.2839 223.111 35.0687 223.05 34.8692L221.546 30.1304L222.679 30.7203C222.865 30.8138 223.08 30.8309 223.278 30.7677C223.477 30.7045 223.642 30.5661 223.74 30.3823C223.788 30.291 223.818 30.191 223.827 30.0882C223.837 29.9853 223.826 29.8816 223.795 29.783C223.764 29.6844 223.714 29.5929 223.648 29.5137C223.581 29.4346 223.5 29.3694 223.408 29.3219Z" fill="#7FBC42"/>
<path d="M85.4746 19.3009C84.9693 18.6661 84.3272 18.1535 83.5962 17.8012C82.8653 17.449 82.0643 17.2661 81.2529 17.2663C80.2731 17.3069 79.3073 17.513 78.3964 17.876C78.057 18.0104 77.7251 18.1631 77.4022 18.3333C77.4553 18.1279 77.495 17.929 77.5282 17.7368C77.6065 17.2993 77.6464 16.8558 77.6475 16.4113C77.6187 15.1626 77.2597 13.9437 76.6069 12.8788C76.0255 11.9089 75.2573 11.0642 74.3469 10.3934C73.5279 9.79392 72.7587 9.12898 72.0471 8.40517L71.9875 8.35878H71.9278L71.8549 8.32564H71.8019H71.7224H71.4639H71.3844H71.3247H71.2518L71.1922 8.35878H71.1259L71.0662 8.40517H71.0331C70.3189 9.12869 69.5476 9.79359 68.7267 10.3934C67.8186 11.0621 67.0527 11.9047 66.4733 12.8722C65.5483 14.3159 65.2005 16.055 65.4991 17.7435C65.4991 17.9357 65.572 18.1345 65.625 18.3399C65.3021 18.1697 64.9702 18.0171 64.6308 17.8826C63.7185 17.5159 62.7502 17.3075 61.7677 17.2663C60.9563 17.2661 60.1553 17.449 59.4244 17.8012C58.6934 18.1535 58.0513 18.6661 57.5459 19.3009C57.0058 19.9666 56.6228 20.7456 56.4255 21.5798C56.2281 22.4141 56.2214 23.2821 56.406 24.1192C56.5851 24.9876 56.9837 25.7957 57.5638 26.4663C58.1439 27.137 58.8862 27.6477 59.7198 27.95C60.3243 28.147 60.9657 28.2037 61.5954 28.1156C61.6991 28.1038 61.7991 28.0699 61.8886 28.0161C61.9781 27.9622 62.0549 27.8898 62.114 27.8038C62.1731 27.7177 62.213 27.6199 62.231 27.5171C62.249 27.4142 62.2447 27.3087 62.2184 27.2077C62.14 26.9345 62.119 26.648 62.1566 26.3663C62.1943 26.0846 62.2898 25.8137 62.4371 25.5706C62.5427 25.4053 62.6836 25.2654 62.8498 25.1611C63.016 25.0568 63.2033 24.9907 63.3981 24.9675C64.3657 24.8217 64.9556 25.6833 65.2737 26.4256C65.4976 27.0371 65.6771 27.6639 65.8106 28.3012H65.2605C65.0671 28.3012 64.8817 28.378 64.745 28.5147C64.6082 28.6515 64.5314 28.8369 64.5314 29.0303C64.5314 29.2236 64.6082 29.409 64.745 29.5458C64.8817 29.6825 65.0671 29.7593 65.2605 29.7593H65.7111C65.6244 29.931 65.497 30.0789 65.34 30.1901C65.0269 30.3587 64.6831 30.4627 64.3289 30.4957C63.9748 30.5287 63.6177 30.4901 63.2788 30.3823C63.1642 30.3541 63.0443 30.3544 62.9298 30.3832C62.8153 30.412 62.7096 30.4684 62.622 30.5476C62.5343 30.6267 62.4674 30.7261 62.4271 30.8371C62.3868 30.9481 62.3743 31.0673 62.3907 31.1842C62.4836 32.0391 62.8812 32.832 63.5108 33.4177C64.246 34.1314 65.2236 34.5409 66.248 34.5643C66.5875 34.5683 66.9262 34.5282 67.2554 34.445C67.4133 34.727 67.5882 34.9993 67.779 35.2602C68.6773 36.4566 69.8035 37.4635 71.0928 38.2227L71.159 38.2691C71.2754 38.3444 71.4115 38.3836 71.5501 38.3818H71.5965H71.7025C71.7868 38.3687 71.8679 38.3395 71.9411 38.2956C73.2302 37.5307 74.3562 36.5195 75.2549 35.3198C75.4436 35.0588 75.6162 34.7866 75.7718 34.5047C76.1012 34.5873 76.4397 34.6274 76.7792 34.6239C77.8036 34.6006 78.7813 34.191 79.5164 33.4774C80.1566 32.8764 80.551 32.0593 80.6232 31.1842C80.6338 31.0699 80.6169 30.9547 80.5741 30.8481C80.5312 30.7416 80.4635 30.6468 80.3767 30.5717C80.2899 30.4965 80.1864 30.4431 80.0748 30.416C79.9632 30.3888 79.8468 30.3886 79.7351 30.4154C79.3972 30.5224 79.0413 30.5604 78.6884 30.5274C78.3355 30.4944 77.9928 30.391 77.6806 30.2232C77.5198 30.1144 77.3898 29.966 77.3028 29.7924H77.7601C77.9535 29.7924 78.1389 29.7156 78.2756 29.5789C78.4123 29.4422 78.4892 29.2567 78.4892 29.0634C78.4892 28.87 78.4123 28.6846 78.2756 28.5479C78.1389 28.4112 77.9535 28.3344 77.7601 28.3344H77.2034C77.3375 27.6972 77.5169 27.0704 77.7402 26.4587C78.0584 25.7165 78.6482 24.8615 79.6159 25.0007C79.8107 25.0238 79.9979 25.0899 80.1641 25.1942C80.3303 25.2985 80.4713 25.4384 80.5769 25.6038C80.7211 25.8419 80.8149 26.1072 80.8526 26.383C80.8902 26.6589 80.8708 26.9396 80.7956 27.2077C80.7693 27.3077 80.7646 27.4122 80.7818 27.5142C80.799 27.6163 80.8378 27.7134 80.8954 27.7993C80.9531 27.8852 81.0284 27.9578 81.1163 28.0124C81.2042 28.0669 81.3027 28.1021 81.4053 28.1156C82.0328 28.2034 82.672 28.1467 83.2743 27.95C84.1087 27.6472 84.8516 27.1354 85.4317 26.4635C86.0119 25.7917 86.41 24.9822 86.5881 24.1126C86.7757 23.2784 86.773 22.4127 86.5803 21.5797C86.3875 20.7467 86.0096 19.9679 85.4746 19.3009ZM64.485 32.3639C64.3568 32.2398 64.2454 32.0995 64.1537 31.9464C64.8662 31.9797 65.5705 31.7821 66.1618 31.3831C66.7022 30.9874 67.083 30.4114 67.2355 29.7593H68.5146C68.5114 29.7968 68.5114 29.8345 68.5146 29.872C68.3003 30.8905 67.9101 31.8639 67.3614 32.7483C67.2076 32.8875 67.0255 32.9916 66.8275 33.0534C66.6295 33.1151 66.4205 33.1332 66.2148 33.1062C65.5669 33.0787 64.9514 32.8146 64.485 32.3639ZM74.1149 34.4052C73.4065 35.3495 72.533 36.1578 71.5368 36.7912C70.5372 36.1597 69.6613 35.3512 68.952 34.4052C68.7897 34.1928 68.6392 33.9716 68.5014 33.7425C68.5302 33.702 68.5568 33.66 68.5809 33.6166V33.5702C69.2183 32.5398 69.6671 31.4043 69.9064 30.2166C69.9064 30.0774 69.9528 29.9449 69.9727 29.8123H72.9617C72.9617 29.9449 73.0015 30.0774 73.028 30.2166C73.2673 31.4043 73.7162 32.5398 74.3535 33.5702C74.3514 33.5855 74.3514 33.6012 74.3535 33.6166L74.4331 33.7425C74.3384 33.9687 74.2322 34.1899 74.1149 34.4052ZM76.8323 31.3831C77.4357 31.7718 78.1429 31.9682 78.8603 31.9464C78.7686 32.0995 78.6572 32.2398 78.5289 32.3639C78.0625 32.8146 77.4471 33.0787 76.7991 33.1062C76.5935 33.1332 76.3845 33.1151 76.1865 33.0534C75.9885 32.9916 75.8063 32.8875 75.6525 32.7483C75.1025 31.8598 74.7122 30.8818 74.4993 29.8587V29.746H75.7785C75.9229 30.4001 76.2967 30.9808 76.8323 31.3831ZM85.1897 23.8077C85.0558 24.4245 84.7699 24.9981 84.3578 25.4761C83.9457 25.9542 83.4206 26.3216 82.8302 26.5449C82.6676 26.595 82.5015 26.6327 82.3332 26.6576C82.347 25.9822 82.1602 25.3179 81.7963 24.7488C81.5743 24.4101 81.2816 24.1234 80.9385 23.9084C80.5953 23.6933 80.2097 23.555 79.808 23.5028C78.3632 23.2974 77.1106 24.1656 76.3816 25.8291C76.0893 26.6255 75.8675 27.4461 75.7188 28.2813H67.2951C67.146 27.4462 66.9242 26.6257 66.6324 25.8291C65.9033 24.1391 64.6441 23.2974 63.2059 23.5028C62.8043 23.555 62.4187 23.6933 62.0755 23.9084C61.7323 24.1234 61.4397 24.4101 61.2176 24.7488C60.8538 25.3179 60.6669 25.9822 60.6808 26.6576C60.5168 26.633 60.355 26.5954 60.197 26.5449C59.6033 26.3202 59.0756 25.95 58.6622 25.4683C58.2488 24.9865 57.9629 24.4087 57.8309 23.7878C57.695 23.1637 57.7006 22.5171 57.8474 21.8955C57.9942 21.2738 58.2785 20.693 58.6793 20.1957C59.0479 19.7303 59.5175 19.3549 60.0525 19.0977C60.5876 18.8405 61.1741 18.7083 61.7677 18.7111C62.5634 18.7551 63.3467 18.9275 64.0874 19.2214C64.7221 19.4217 65.3063 19.7561 65.8003 20.2021C66.2943 20.6481 66.6866 21.1952 66.9505 21.8062C67.1295 22.1972 67.3018 22.5949 67.4741 22.9991C67.6464 23.4034 67.8452 23.9071 67.9778 24.3247C68.0639 24.5699 68.1435 24.8151 68.2098 25.067C68.3817 25.6713 68.497 26.2903 68.5544 26.9161C68.571 27.0977 68.655 27.2665 68.79 27.3892C68.925 27.5119 69.101 27.5796 69.2834 27.5788H69.3497C69.5427 27.5603 69.7205 27.4664 69.8447 27.3175C69.9688 27.1685 70.0291 26.9766 70.0125 26.7835C69.9461 26.0706 69.8152 25.3652 69.6214 24.6759C69.5419 24.3976 69.4557 24.1192 69.363 23.8541C69.2105 23.4167 69.0382 22.9527 68.8195 22.4424C68.6538 22.0448 68.4749 21.6537 68.3025 21.2693V21.2362L68.2628 21.15L68.0772 20.7259C67.7449 20.0169 67.455 19.2888 67.209 18.5454C67.1025 18.2017 67.0162 17.852 66.9505 17.4982C66.8767 17.1493 66.8345 16.7944 66.8246 16.4378C66.8473 15.4464 67.1333 14.4789 67.653 13.6343C68.1399 12.8329 68.7794 12.1349 69.5353 11.5798C70.1119 11.1424 70.8608 10.5525 71.5236 9.96265C72.1576 10.5361 72.8212 11.0759 73.5118 11.5798C74.2656 12.1351 74.9029 12.8332 75.3874 13.6343C75.9072 14.4789 76.1931 15.4464 76.2159 16.4378C76.2132 16.7919 76.1755 17.1449 76.1032 17.4916C76.0407 17.8461 75.9543 18.1959 75.8447 18.5388C75.6016 19.2832 75.3117 20.0115 74.9765 20.7192L74.8042 21.1169C74.786 21.1487 74.7705 21.182 74.7578 21.2163C74.7612 21.2316 74.7612 21.2474 74.7578 21.2627C74.5855 21.6471 74.4066 22.0381 74.2409 22.4358C74.0288 22.9461 73.8498 23.4101 73.6974 23.8475C73.6046 24.1126 73.5185 24.3909 73.4456 24.6693C73.2465 25.3576 73.1133 26.0633 73.0479 26.7769C73.0313 26.97 73.0916 27.1619 73.2157 27.3108C73.3398 27.4598 73.5177 27.5537 73.7107 27.5722H73.7769C73.9593 27.5729 74.1354 27.5053 74.2704 27.3826C74.4053 27.2599 74.4894 27.0911 74.506 26.9094C74.5402 26.2905 74.6312 25.6759 74.7777 25.0736C74.844 24.8217 74.9235 24.5765 75.0097 24.3313C75.1488 23.927 75.3145 23.4962 75.5134 23.0058C75.7122 22.5153 75.858 22.2038 76.0369 21.8128C76.3068 21.204 76.7045 20.6604 77.2031 20.2189C77.7017 19.7775 78.2895 19.4486 78.9266 19.2545C79.6694 18.9599 80.455 18.7876 81.2529 18.7442C81.8465 18.7415 82.433 18.8737 82.9681 19.1309C83.5031 19.388 83.9727 19.7635 84.3413 20.2288C84.7414 20.7239 85.0254 21.3025 85.1722 21.9219C85.319 22.5413 85.325 23.1857 85.1897 23.8077Z" fill="#7FBC42"/>
<path d="M116.969 33.3581C116.838 33.3581 116.709 33.3324 116.589 33.2824C116.468 33.2324 116.358 33.1592 116.266 33.0669C116.174 32.9746 116.1 32.865 116.051 32.7444C116.001 32.6238 115.975 32.4945 115.975 32.3639C115.975 32.2334 116.001 32.1041 116.051 31.9835C116.1 31.8629 116.174 31.7533 116.266 31.661C116.358 31.5687 116.468 31.4954 116.589 31.4455C116.709 31.3955 116.838 31.3698 116.969 31.3698C119.337 31.3756 121.672 30.8191 123.782 29.746C124.014 29.6495 124.274 29.6443 124.509 29.7313C124.744 29.8183 124.938 29.9912 125.052 30.2152C125.165 30.4392 125.189 30.6978 125.12 30.939C125.05 31.1802 124.892 31.3862 124.677 31.5156C122.29 32.7332 119.648 33.3648 116.969 33.3581Z" fill="#7FBC42"/>
<path d="M132.564 21.1633C132.412 21.1604 132.264 21.1237 132.129 21.0559C131.993 20.9881 131.875 20.8909 131.782 20.7714C131.689 20.652 131.625 20.5133 131.592 20.3655C131.56 20.2177 131.561 20.0646 131.596 19.9173C132.506 16.2165 131.984 12.3083 130.132 8.97699C128.281 5.64567 125.238 3.13776 121.615 1.95653C121.484 1.92256 121.361 1.86215 121.254 1.77899C121.147 1.69584 121.058 1.59171 120.993 1.47299C120.928 1.35426 120.887 1.22346 120.874 1.0886C120.862 0.953735 120.876 0.817666 120.918 0.688742C120.96 0.559819 121.027 0.440762 121.117 0.33888C121.206 0.236999 121.315 0.154443 121.437 0.0962811C121.56 0.038119 121.693 0.00557819 121.828 0.000656342C121.963 -0.0042655 122.098 0.0185355 122.225 0.0676595C126.322 1.40748 129.761 4.24769 131.851 8.01806C133.941 11.7884 134.527 16.2098 133.492 20.3945C133.442 20.6066 133.325 20.7966 133.157 20.9355C132.99 21.0744 132.781 21.1544 132.564 21.1633Z" fill="#7FBC42"/>
<path d="M116.969 33.3581C114.283 33.37 111.634 32.7406 109.241 31.5222C109.118 31.4671 109.008 31.3875 108.917 31.2884C108.826 31.1893 108.756 31.0727 108.711 30.9457C108.666 30.8188 108.648 30.684 108.656 30.5496C108.665 30.4153 108.701 30.2842 108.763 30.1642C108.824 30.0442 108.909 29.9379 109.012 29.8517C109.115 29.7655 109.235 29.7012 109.364 29.6627C109.493 29.6242 109.629 29.6124 109.763 29.6278C109.896 29.6433 110.026 29.6858 110.142 29.7527C112.251 30.8257 114.583 31.3822 116.949 31.3764C117.213 31.3764 117.465 31.4812 117.652 31.6676C117.838 31.854 117.943 32.1069 117.943 32.3706C117.943 32.6342 117.838 32.8871 117.652 33.0735C117.465 33.26 117.213 33.3647 116.949 33.3647L116.969 33.3581Z" fill="#7FBC42"/>
<path d="M101.374 21.1633C101.153 21.1624 100.938 21.0876 100.764 20.9507C100.59 20.8138 100.466 20.6228 100.413 20.4078C100.085 19.0672 99.918 17.6921 99.9162 16.3119C99.9093 12.7056 101.048 9.19025 103.168 6.27304C105.289 3.35584 108.281 1.18754 111.713 0.0809245C111.961 0.0103352 112.226 0.0383641 112.453 0.159122C112.68 0.27988 112.851 0.483965 112.931 0.728497C113.011 0.973029 112.993 1.23897 112.881 1.47044C112.769 1.70192 112.571 1.8809 112.33 1.96979C108.707 3.14829 105.664 5.65335 103.811 8.98224C101.959 12.3111 101.434 16.2175 102.342 19.9173C102.374 20.0637 102.374 20.2153 102.34 20.3615C102.307 20.5076 102.242 20.6445 102.149 20.7624C102.057 20.8803 101.939 20.9762 101.805 21.0432C101.671 21.1102 101.524 21.1467 101.374 21.1501V21.1633Z" fill="#7FBC42"/>
<path d="M116.969 2.61928C117.243 2.61797 117.511 2.69793 117.74 2.84904C117.968 3.00016 118.147 3.21564 118.253 3.46824C118.359 3.72084 118.388 3.99921 118.335 4.26816C118.283 4.53711 118.153 4.78455 117.96 4.97919C117.767 5.17384 117.521 5.30694 117.252 5.36167C116.984 5.4164 116.705 5.39031 116.452 5.28668C116.198 5.18306 115.981 5.00656 115.828 4.7795C115.674 4.55244 115.592 4.28503 115.59 4.01107C115.59 3.64546 115.736 3.29482 115.994 3.0363C116.253 2.77777 116.603 2.63253 116.969 2.63253V2.61928ZM116.969 0.849708C116.342 0.849709 115.729 1.03568 115.208 1.38407C114.687 1.73247 114.281 2.22764 114.042 2.8069C113.802 3.38616 113.74 4.02348 113.862 4.63819C113.985 5.2529 114.288 5.81737 114.731 6.26015C115.175 6.70294 115.74 7.00414 116.355 7.12563C116.97 7.24711 117.607 7.18343 118.186 6.94264C118.765 6.70184 119.259 6.29476 119.606 5.77292C119.954 5.25107 120.138 4.63792 120.137 4.01107C120.137 3.59536 120.055 3.18372 119.896 2.79974C119.736 2.41575 119.503 2.06695 119.209 1.7733C118.914 1.47966 118.565 1.24693 118.181 1.08845C117.797 0.929964 117.385 0.848836 116.969 0.849708Z" fill="#7FBC42"/>
<path d="M119.62 18.8569H114.629C114.415 18.8559 114.207 18.7776 114.046 18.6365C113.884 18.4953 113.778 18.3007 113.748 18.0881L112.588 9.85663C112.559 9.65021 112.604 9.44015 112.714 9.26325C112.824 9.08634 112.993 8.95386 113.191 8.889L113.516 8.77633C114.651 8.28668 115.875 8.03412 117.111 8.03412C118.348 8.03412 119.571 8.28668 120.707 8.77633L121.052 8.89563C121.251 8.96056 121.422 9.09377 121.534 9.27191C121.645 9.45005 121.69 9.66174 121.661 9.86989L120.508 18.0881C120.476 18.3013 120.369 18.496 120.206 18.637C120.044 18.7781 119.835 18.8561 119.62 18.8569ZM115.405 17.0675H118.845L119.792 10.3404C118.094 9.64294 116.189 9.64294 114.49 10.3404L115.405 17.0675Z" fill="#7FBC42"/>
<path d="M108.062 12.0172C108.336 12.0159 108.605 12.0962 108.834 12.2479C109.062 12.3996 109.241 12.6159 109.347 12.8692C109.452 13.1226 109.48 13.4017 109.427 13.671C109.374 13.9403 109.242 14.1877 109.048 14.3818C108.853 14.576 108.606 14.708 108.337 14.7613C108.067 14.8145 107.788 14.7865 107.535 14.6808C107.282 14.5752 107.065 14.3966 106.914 14.1678C106.762 13.939 106.682 13.6703 106.683 13.3958C106.683 13.0302 106.828 12.6795 107.087 12.421C107.345 12.1625 107.696 12.0172 108.062 12.0172ZM108.062 10.2344C107.435 10.2344 106.822 10.4204 106.301 10.7688C105.78 11.1172 105.374 11.6123 105.134 12.1916C104.894 12.7709 104.832 13.4082 104.955 14.0229C105.078 14.6376 105.38 15.2021 105.824 15.6448C106.268 16.0876 106.833 16.3888 107.448 16.5103C108.063 16.6318 108.7 16.5681 109.278 16.3273C109.857 16.0865 110.352 15.6795 110.699 15.1576C111.046 14.6358 111.231 14.0226 111.23 13.3958C111.23 12.5573 110.896 11.7532 110.304 11.1603C109.711 10.5675 108.907 10.2344 108.068 10.2344H108.062Z" fill="#7FBC42"/>
<path d="M125.877 12.0172C126.151 12.0185 126.418 12.1011 126.645 12.2543C126.872 12.4076 127.049 12.6248 127.152 12.8784C127.256 13.132 127.282 13.4107 127.227 13.6791C127.172 13.9475 127.039 14.1937 126.845 14.3865C126.65 14.5793 126.403 14.71 126.134 14.7622C125.865 14.8144 125.586 14.7856 125.334 14.6796C125.081 14.5735 124.866 14.3949 124.715 14.1664C124.563 13.9379 124.483 13.6697 124.485 13.3958C124.485 13.2147 124.52 13.0355 124.59 12.8682C124.659 12.701 124.761 12.549 124.889 12.421C125.017 12.293 125.168 12.1914 125.336 12.1222C125.503 12.0529 125.682 12.0172 125.863 12.0172H125.877ZM125.863 10.2344C125.236 10.2344 124.624 10.4204 124.103 10.7688C123.581 11.1172 123.175 11.6123 122.936 12.1916C122.696 12.7708 122.634 13.4082 122.757 14.0229C122.879 14.6376 123.182 15.2021 123.626 15.6448C124.069 16.0876 124.634 16.3888 125.249 16.5103C125.864 16.6318 126.501 16.5681 127.08 16.3273C127.659 16.0865 128.153 15.6795 128.501 15.1576C128.848 14.6358 129.033 14.0226 129.031 13.3958C129.031 12.98 128.949 12.5684 128.79 12.1844C128.631 11.8004 128.397 11.4516 128.103 11.158C127.809 10.8643 127.459 10.6316 127.075 10.4731C126.691 10.3147 126.279 10.2335 125.863 10.2344Z" fill="#7FBC42"/>
<path d="M128.375 28.2548H123.384C123.169 28.254 122.961 28.176 122.798 28.035C122.635 27.8939 122.528 27.6992 122.496 27.486L121.343 19.2546C121.314 19.0481 121.359 18.8381 121.469 18.6612C121.579 18.4843 121.748 18.3518 121.946 18.2869L122.271 18.1743C123.405 17.6844 124.628 17.4317 125.863 17.4317C127.099 17.4317 128.321 17.6844 129.455 18.1743L129.807 18.2936C130.007 18.3574 130.177 18.4907 130.288 18.6693C130.399 18.8479 130.442 19.0602 130.41 19.2678L129.256 27.486C129.226 27.6986 129.121 27.8933 128.959 28.0344C128.797 28.1756 128.59 28.2538 128.375 28.2548ZM124.16 26.4654H127.6L128.541 19.7384C126.843 19.0387 124.937 19.0387 123.239 19.7384L124.16 26.4654Z" fill="#7FBC42"/>
<path d="M110.567 28.2548H105.576C105.361 28.2538 105.154 28.1756 104.992 28.0344C104.83 27.8933 104.725 27.6986 104.695 27.486L103.522 19.2546C103.494 19.0483 103.539 18.8388 103.649 18.6622C103.759 18.4856 103.927 18.3529 104.125 18.2869L104.456 18.1743C105.607 17.7246 106.826 17.4714 108.061 17.4253C109.287 17.4722 110.496 17.7207 111.64 18.161L111.992 18.2803C112.191 18.3453 112.361 18.4788 112.471 18.6572C112.582 18.8355 112.625 19.0471 112.595 19.2546L111.441 27.486C111.41 27.697 111.305 27.8899 111.145 28.0307C110.985 28.1715 110.78 28.2509 110.567 28.2548ZM106.351 26.4654H109.791L110.739 19.7384C109.041 19.0387 107.135 19.0387 105.437 19.7384L106.351 26.4654Z" fill="#7FBC42"/>
<path d="M175.637 8.46481C175.969 8.46218 176.294 8.55829 176.572 8.74093C176.849 8.92358 177.066 9.18453 177.195 9.49068C177.324 9.79683 177.359 10.1344 177.296 10.4605C177.233 10.7866 177.074 11.0867 176.84 11.3225C176.606 11.5583 176.307 11.7193 175.982 11.7851C175.656 11.8509 175.318 11.8185 175.011 11.692C174.704 11.5655 174.441 11.3506 174.257 11.0745C174.072 10.7985 173.973 10.4738 173.973 10.1416C173.973 9.69917 174.148 9.27467 174.459 8.96059C174.771 8.64651 175.194 8.46831 175.637 8.46481ZM175.637 13.3096C176.264 13.3148 176.879 13.1335 177.404 12.7886C177.928 12.4437 178.338 11.9508 178.582 11.3724C178.826 10.794 178.893 10.1562 178.773 9.53996C178.654 8.92369 178.355 8.35673 177.913 7.91103C177.471 7.46532 176.906 7.16095 176.291 7.03655C175.676 6.91215 175.037 6.97332 174.457 7.2123C173.877 7.45128 173.38 7.85729 173.031 8.37883C172.682 8.90036 172.495 9.5139 172.495 10.1416C172.499 10.9743 172.83 11.772 173.419 12.3615C174.007 12.9509 174.804 13.2845 175.637 13.2897" fill="#7FBC42"/>
<path d="M164.283 12.1365C164.17 12.205 164.077 12.3026 164.014 12.4191C163.951 12.5357 163.921 12.6669 163.926 12.7993V15.4503C163.916 15.5533 163.928 15.6571 163.96 15.7552C163.993 15.8532 164.046 15.9434 164.115 16.0199C164.185 16.0964 164.27 16.1575 164.364 16.1993C164.459 16.2411 164.561 16.2627 164.665 16.2627C164.768 16.2627 164.87 16.2411 164.965 16.1993C165.059 16.1575 165.144 16.0964 165.214 16.0199C165.283 15.9434 165.336 15.8532 165.369 15.7552C165.401 15.6571 165.413 15.5533 165.404 15.4503V13.2632C166.375 12.7811 167.441 12.5165 168.525 12.4878C169.437 12.5073 170.337 12.7008 171.176 13.0578C171.268 13.0929 171.365 13.1096 171.463 13.107C171.561 13.1043 171.657 13.0824 171.746 13.0423C171.836 13.0023 171.916 12.945 171.983 12.8737C172.05 12.8024 172.103 12.7186 172.137 12.627C172.212 12.4441 172.211 12.2391 172.136 12.0566C172.06 11.8741 171.915 11.729 171.733 11.6527C170.715 11.2312 169.627 11.0063 168.525 10.99C167.035 11.0249 165.577 11.4303 164.283 12.1697" fill="#7FBC42"/>
<path d="M168.525 5.51557C168.857 5.51294 169.183 5.60904 169.46 5.79169C169.738 5.97433 169.955 6.23528 170.084 6.54143C170.213 6.84758 170.248 7.18514 170.184 7.51127C170.121 7.8374 169.963 8.13741 169.729 8.37325C169.495 8.60908 169.196 8.77009 168.87 8.83588C168.545 8.90166 168.207 8.86923 167.9 8.74272C167.593 8.61621 167.33 8.40131 167.145 8.12528C166.96 7.84926 166.862 7.52455 166.862 7.19235C166.861 6.97302 166.903 6.75567 166.986 6.5527C167.069 6.34973 167.192 6.16513 167.346 6.00942C167.5 5.85372 167.684 5.72997 167.886 5.64523C168.089 5.56049 168.306 5.51643 168.525 5.51557ZM168.525 10.3537C169.153 10.359 169.768 10.1775 170.293 9.83229C170.818 9.4871 171.228 8.99379 171.471 8.41501C171.715 7.83623 171.781 7.19809 171.661 6.58164C171.542 5.96519 171.241 5.39824 170.799 4.9528C170.356 4.50736 169.791 4.20351 169.175 4.07986C168.56 3.95621 167.921 4.01833 167.341 4.25832C166.76 4.49832 166.265 4.90537 165.916 5.42778C165.568 5.95018 165.382 6.56437 165.384 7.19235C165.382 8.02789 165.712 8.83001 166.301 9.42269C166.889 10.0154 167.689 10.3502 168.525 10.3537Z" fill="#7FBC42"/>
<path d="M157.623 13.071C157.72 13.0701 157.817 13.0501 157.906 13.012C157.996 12.9739 158.077 12.9185 158.146 12.8489C158.214 12.7794 158.268 12.6971 158.304 12.6067C158.341 12.5163 158.359 12.4196 158.358 12.3221V10.1416C159.329 9.65728 160.395 9.39254 161.48 9.36618C162.391 9.38375 163.291 9.57495 164.131 9.92953C164.221 9.96611 164.317 9.98449 164.415 9.98361C164.512 9.98273 164.608 9.96261 164.697 9.9244C164.787 9.8862 164.867 9.83066 164.935 9.76102C165.003 9.69137 165.056 9.60898 165.092 9.51862C165.167 9.33667 165.166 9.1326 165.09 8.95119C165.014 8.76978 164.87 8.62586 164.688 8.55099C163.671 8.12603 162.582 7.90101 161.48 7.88823C159.99 7.92175 158.532 8.32729 157.238 9.06794C157.124 9.13591 157.031 9.23338 156.968 9.35004C156.905 9.46671 156.875 9.59823 156.88 9.7307V12.3817C156.895 12.5687 156.98 12.7433 157.117 12.8709C157.255 12.9985 157.435 13.0699 157.623 13.071Z" fill="#7FBC42"/>
<path d="M161.467 2.43371C161.799 2.43109 162.124 2.52719 162.402 2.70983C162.679 2.89248 162.896 3.15343 163.025 3.45958C163.154 3.76573 163.189 4.10328 163.126 4.42942C163.063 4.75555 162.904 5.05556 162.67 5.29139C162.436 5.52722 162.138 5.68824 161.812 5.75402C161.486 5.8198 161.149 5.78738 160.841 5.66087C160.534 5.53435 160.272 5.31945 160.087 5.04343C159.902 4.7674 159.803 4.44269 159.803 4.11049C159.802 3.89117 159.845 3.67381 159.928 3.47085C160.011 3.26788 160.133 3.08328 160.288 2.92757C160.442 2.77187 160.626 2.64811 160.828 2.56338C161.03 2.47864 161.247 2.43458 161.467 2.43371ZM161.467 7.27849C162.094 7.28374 162.709 7.10241 163.234 6.75752C163.758 6.41262 164.169 5.91971 164.412 5.34131C164.656 4.76292 164.723 4.12513 164.604 3.50886C164.484 2.89259 164.185 2.32564 163.743 1.87993C163.301 1.43422 162.736 1.12986 162.121 1.00545C161.506 0.881052 160.867 0.942221 160.287 1.1812C159.707 1.42018 159.21 1.8262 158.861 2.34773C158.512 2.86926 158.325 3.4828 158.325 4.11049C158.323 4.94665 158.653 5.74946 159.242 6.34319C159.831 6.93693 160.631 7.27323 161.467 7.27849Z" fill="#7FBC42"/>
<path d="M178.433 21.3887H172.866L172.568 16.1595C173.532 15.6827 174.588 15.4225 175.663 15.3973C176.738 15.4253 177.793 15.6853 178.758 16.1595L178.433 21.3887ZM171.395 15.0858C171.282 15.1553 171.19 15.2531 171.127 15.3694C171.065 15.4857 171.033 15.6164 171.037 15.7486L171.401 22.1575C171.412 22.3462 171.493 22.524 171.63 22.6545C171.767 22.7851 171.948 22.8586 172.137 22.86H179.129C179.319 22.8602 179.501 22.7872 179.638 22.6564C179.775 22.5255 179.856 22.3468 179.865 22.1575L180.229 15.7486C180.236 15.6167 180.206 15.4857 180.145 15.3691C180.083 15.2525 179.991 15.1546 179.878 15.0858C178.598 14.3143 177.131 13.9066 175.636 13.9066C174.142 13.9066 172.675 14.3143 171.395 15.0858Z" fill="#7FBC42"/>
<path d="M262.454 41.896H263.864V42.9581H262.454V41.896ZM254.438 36.6138L256.843 42.9581H256.165L254.987 39.8681C254.942 39.7541 254.864 39.6563 254.763 39.5873C254.662 39.5183 254.542 39.4814 254.42 39.4814C254.297 39.4814 254.178 39.5183 254.077 39.5873C253.976 39.6563 253.898 39.7541 253.853 39.8681L252.675 42.9581H251.997L254.438 36.6138ZM253.993 42.9581L254.454 41.7998L254.899 42.9661L253.993 42.9581ZM263.143 32.7062L265.624 40.6697H260.674L263.143 32.7062ZM267.92 42.9581H265.059V41.896H266.449C266.545 41.8962 266.639 41.8734 266.725 41.8295C266.81 41.7855 266.883 41.7218 266.938 41.6435C266.995 41.5662 267.033 41.4767 267.049 41.382C267.065 41.2873 267.059 41.1902 267.03 41.0985L263.74 30.4819C263.702 30.3576 263.626 30.2488 263.521 30.1714C263.417 30.0941 263.291 30.0523 263.161 30.0523C263.031 30.0523 262.905 30.0941 262.8 30.1714C262.696 30.2488 262.619 30.3576 262.582 30.4819L259.271 41.0985C259.243 41.1902 259.237 41.2873 259.253 41.382C259.269 41.4767 259.307 41.5662 259.364 41.6435C259.419 41.7218 259.492 41.7855 259.577 41.8295C259.662 41.8734 259.757 41.8962 259.852 41.896H261.243V42.9581H258.177L255.023 34.69C254.978 34.5761 254.9 34.4782 254.799 34.4092C254.698 34.3402 254.578 34.3033 254.456 34.3033C254.334 34.3033 254.214 34.3402 254.113 34.4092C254.012 34.4782 253.934 34.5761 253.889 34.69L250.735 42.9581H249.492C249.353 42.986 249.229 43.0611 249.139 43.1707C249.049 43.2803 249 43.4176 249 43.5593C249 43.7009 249.049 43.8382 249.139 43.9478C249.229 44.0574 249.353 44.1325 249.492 44.1604H251.027C251.067 44.1665 251.108 44.1665 251.148 44.1604H257.764C257.806 44.1665 257.847 44.1665 257.889 44.1604H267.94C268.079 44.1325 268.204 44.0574 268.294 43.9478C268.383 43.8382 268.433 43.7009 268.433 43.5593C268.433 43.4176 268.383 43.2803 268.294 43.1707C268.204 43.0611 268.079 42.986 267.94 42.9581" fill="#7FBC42"/>
<path d="M259.215 28.2095C259.215 28.1253 259.215 28.0451 259.215 27.961C259.578 28.3733 259.786 28.8985 259.804 29.4471C259.823 29.9958 259.651 30.5338 259.317 30.9697C258.983 31.4055 258.509 31.7121 257.974 31.8373C257.44 31.9625 256.878 31.8985 256.386 31.6561C257.185 31.5007 257.906 31.0716 258.424 30.4427C258.942 29.8137 259.224 29.0241 259.223 28.2095H259.215ZM257.42 33.119C258.296 33.1116 259.139 32.7855 259.793 32.2017C260.446 31.6179 260.864 30.8163 260.97 29.9466C261.076 29.0768 260.861 28.1984 260.366 27.4753C259.871 26.7522 259.13 26.2339 258.281 26.0172C258.163 25.9884 258.038 25.9959 257.924 26.0388C257.809 26.0817 257.711 26.1579 257.64 26.2577C257.572 26.3595 257.535 26.4795 257.535 26.6023C257.535 26.7251 257.572 26.8451 257.64 26.947C257.885 27.3225 258.016 27.761 258.017 28.2095C258.019 28.571 257.934 28.9278 257.771 29.25C257.607 29.5723 257.368 29.8507 257.075 30.0621C256.781 30.2735 256.442 30.4117 256.084 30.4652C255.727 30.5187 255.361 30.4859 255.019 30.3696C254.903 30.3298 254.778 30.3261 254.66 30.359C254.542 30.3919 254.436 30.4599 254.358 30.554C254.279 30.6483 254.231 30.764 254.218 30.8862C254.206 31.0084 254.231 31.1314 254.29 31.2393C254.595 31.8062 255.048 32.2801 255.6 32.6109C256.152 32.9418 256.784 33.1173 257.428 33.119" fill="#7FBC42"/>
<path d="M264.686 46.1763H252.971C252.808 46.1763 252.653 46.2409 252.538 46.3559C252.423 46.4709 252.358 46.6269 252.358 46.7895C252.358 46.9521 252.423 47.1081 252.538 47.2231C252.653 47.3381 252.808 47.4027 252.971 47.4027H264.686C264.848 47.4027 265.004 47.3381 265.119 47.2231C265.234 47.1081 265.299 46.9521 265.299 46.7895C265.299 46.6269 265.234 46.4709 265.119 46.3559C265.004 46.2409 264.848 46.1763 264.686 46.1763Z" fill="#7FBC42"/>
<path d="M33.1764 70.1346L32.2154 68.1463L34.3494 67.1323L37.0469 65.8068L39.1478 64.7928L42.0573 70.804L33.1764 70.1346ZM30.4126 70.5654C30.3248 70.6411 30.2449 70.7255 30.1741 70.8173L28.663 67.6957C28.6105 67.5963 28.5786 67.4874 28.5691 67.3754C28.5597 67.2634 28.573 67.1507 28.6082 67.044C28.6434 66.9373 28.6998 66.8388 28.7739 66.7544C28.8481 66.6699 28.9385 66.6013 29.0398 66.5527C29.1411 66.5041 29.2512 66.4764 29.3634 66.4713C29.4757 66.4662 29.5878 66.4838 29.6931 66.5231C29.7984 66.5623 29.8947 66.6224 29.9762 66.6998C30.0577 66.7772 30.1227 66.8702 30.1674 66.9733L30.7241 68.1331L31.6586 70.0551C31.1979 70.0862 30.7601 70.2679 30.4126 70.572V70.5654ZM27.9207 59.3051C27.824 59.1056 27.8105 58.8759 27.8832 58.6664C27.956 58.457 28.1089 58.2851 28.3084 58.1884C28.5079 58.0917 28.7376 58.0782 28.9471 58.1509C29.1565 58.2237 29.3285 58.3766 29.4251 58.5761L33.1366 66.2509L31.6321 66.9733L31.3604 66.4165L27.9207 59.3051ZM29.7631 56.2299C29.6665 56.0304 29.653 55.8007 29.7257 55.5912C29.7984 55.3818 29.9514 55.2098 30.1509 55.1132C30.3504 55.0165 30.5801 55.003 30.7895 55.0757C30.999 55.1484 31.1709 55.3014 31.2676 55.5009L32.1226 57.2705L35.834 64.9452L34.3494 65.6477L30.6181 57.9664L29.7631 56.2299ZM33.6999 55.5672C33.9004 55.4713 34.1307 55.4585 34.3406 55.5318C34.5504 55.6051 34.7228 55.7583 34.82 55.9582L38.5315 63.6329L37.0005 64.3222L33.289 56.6475C33.1977 56.4476 33.1882 56.2199 33.2625 56.0131C33.3368 55.8063 33.489 55.6367 33.6867 55.5406L33.6999 55.5672ZM33.1035 54.3344C32.8512 54.4623 32.6261 54.6378 32.4407 54.8514C32.3171 54.5959 32.1444 54.3673 31.9325 54.1786C31.7205 53.9899 31.4735 53.8448 31.2055 53.7516C30.9375 53.6583 30.6537 53.6188 30.3704 53.6352C30.0871 53.6516 29.8098 53.7237 29.5544 53.8473C29.2989 53.9709 29.0703 54.1436 28.8816 54.3555C28.6929 54.5675 28.5478 54.8145 28.4546 55.0825C28.3613 55.3505 28.3218 55.6343 28.3382 55.9176C28.3546 56.2009 28.4267 56.4782 28.5503 56.7336C28.2624 56.746 27.9803 56.8182 27.7218 56.9457C27.2059 57.1997 26.8115 57.6477 26.6252 58.1918C26.4389 58.7359 26.4757 59.3316 26.7277 59.8486L29.2926 65.1507C29.0047 65.1631 28.7226 65.2353 28.4641 65.3628C28.2044 65.4884 27.9723 65.6645 27.7813 65.8808C27.5904 66.097 27.4444 66.3492 27.3518 66.6224C27.2593 66.8957 27.2221 67.1847 27.2424 67.4725C27.2627 67.7603 27.34 68.0412 27.47 68.2988L32.1093 77.9088C32.1456 77.9896 32.1978 78.0623 32.2627 78.1226C32.3276 78.1829 32.4039 78.2296 32.4871 78.2599C32.5704 78.2902 32.6589 78.3035 32.7473 78.299C32.8358 78.2945 32.9225 78.2724 33.0022 78.2338C33.082 78.1953 33.1532 78.1411 33.2117 78.0746C33.2702 78.008 33.3147 77.9304 33.3427 77.8464C33.3707 77.7623 33.3815 77.6735 33.3746 77.5852C33.3676 77.4969 33.343 77.4108 33.3023 77.3322L31.9039 74.4293L36.5962 74.7938C36.771 74.8066 36.9438 74.7496 37.0767 74.6354C37.2096 74.5211 37.2918 74.3588 37.3054 74.1841C37.3135 74.0959 37.3039 74.0071 37.2772 73.9227C37.2504 73.8383 37.207 73.7602 37.1496 73.6928C37.0921 73.6255 37.0218 73.5703 36.9427 73.5306C36.8636 73.4909 36.7773 73.4675 36.689 73.4617L31.7713 73.0839C31.5506 73.0557 31.3499 72.942 31.2123 72.7672C31.0747 72.5924 31.0113 72.3705 31.0356 72.1494C31.0516 71.9292 31.154 71.7243 31.3206 71.5794C31.4037 71.5071 31.5006 71.4522 31.6053 71.4181C31.7101 71.3839 31.8206 71.3712 31.9304 71.3806L42.1369 72.1759H42.3026C42.4371 72.1993 42.5643 72.2541 42.6737 72.3359C42.7831 72.4176 42.8716 72.524 42.9322 72.6465C42.97 72.7252 43.023 72.7958 43.0882 72.8541C43.1533 72.9123 43.2292 72.9572 43.3117 72.9862C43.3942 73.0151 43.4815 73.0275 43.5688 73.0226C43.6561 73.0178 43.7415 72.9958 43.8203 72.958C43.899 72.9201 43.9696 72.8671 44.0279 72.802C44.0861 72.7369 44.131 72.6609 44.16 72.5784C44.1889 72.496 44.2013 72.4086 44.1964 72.3214C44.1916 72.2341 44.1696 72.1486 44.1318 72.0699L40.016 63.6595L36.0395 55.3816C35.7889 54.8639 35.344 54.4661 34.8015 54.2749C34.259 54.0838 33.663 54.1147 33.1432 54.3609" fill="#7FBC42"/>
<path d="M73.631 220.17C73.5994 219.769 73.4697 219.382 73.2533 219.044C72.9608 218.759 72.584 218.578 72.1796 218.527C71.5831 218.361 67.3746 218.613 67.189 218.527C66.8112 218.301 67.1095 217.413 67.189 217.095C67.3282 216.353 67.4674 215.61 67.5999 214.868C66.9372 214.941 66.3208 215.034 65.6713 215.127C64.6374 215.279 63.5836 215.325 62.5431 215.412C62.4039 217.486 61.37 219.388 61.3037 221.509C61.3037 222.251 61.3037 223.225 62.0725 223.623C62.8413 224.021 64.0608 223.623 64.8495 223.457C67.3744 222.97 69.8684 222.335 72.3188 221.555C73.0478 221.284 73.7305 221.098 73.631 220.17Z" fill="#421818"/>
<path d="M99.8897 221.025C99.8579 220.623 99.7258 220.236 99.5053 219.898C99.2168 219.612 98.8414 219.431 98.4382 219.381C97.8351 219.209 93.6332 219.468 93.441 219.381C93.0632 219.163 93.3681 218.275 93.441 217.957C93.5802 217.214 93.7127 216.472 93.8519 215.73C93.1892 215.796 92.5662 215.889 91.9233 215.988C90.8894 216.141 89.8356 216.18 88.7951 216.267C88.6559 218.348 87.622 220.243 87.5491 222.364C87.5491 223.113 87.5491 224.087 88.3245 224.485C89.0999 224.882 90.3128 224.485 91.1015 224.312C93.6278 223.832 96.1222 223.196 98.5708 222.41C99.2998 222.132 99.9626 221.953 99.8897 221.025Z" fill="#421818"/>
<path d="M109.606 69.167C109.665 69.4917 109.718 69.8298 109.765 70.1346C109.858 70.7245 109.917 71.2945 109.957 71.8313C110.07 73.4816 109.911 74.8203 109.294 75.4897C108.095 76.8152 103.197 77.71 100.943 77.3123C100.157 77.2122 99.3985 76.9531 98.7149 76.551C98.0313 76.1488 97.4366 75.6118 96.9669 74.9728C96.1872 74.1067 95.457 73.1972 94.7798 72.2488C94.1537 71.3036 93.6336 70.2924 93.2289 69.2333C92.3228 67.0876 91.6904 64.8364 91.3467 62.5328C91.3136 62.2677 91.2804 61.9959 91.2539 61.7242C92.2348 61.1476 93.1759 60.4915 94.2032 59.9944C95.497 59.4034 96.8383 58.9223 98.2129 58.5562C98.3008 58.5304 98.3871 58.4994 98.4714 58.4634L99.0347 58.5098L100.029 58.6689C102.117 59.0069 104.184 59.4311 106.259 59.8486C106.271 59.6554 106.293 59.4629 106.325 59.272C106.321 59.2545 106.321 59.2365 106.325 59.219C106.246 59.0997 106.438 58.987 106.517 59.1063L107.094 60.0408C107.094 60.0408 107.094 60.1004 107.127 60.1269C107.519 60.7697 107.836 61.4544 108.075 62.1682C108.119 62.301 108.157 62.4359 108.187 62.5725C108.287 62.9768 108.346 63.3877 108.426 63.792C108.516 64.4662 108.797 65.1007 109.235 65.6212C109.758 66.2045 110.56 66.7015 110.6 67.5697C110.579 67.8974 110.477 68.2147 110.304 68.4934C110.13 68.7721 109.89 69.0035 109.606 69.167Z" fill="#F7A37A"/>
<path d="M107.206 65.7339C107.293 66.2376 107.578 66.6087 107.869 66.5624C108.161 66.516 108.28 66.0719 108.194 65.5748C108.108 65.0778 107.829 64.7 107.564 64.7464C107.299 64.7928 107.12 65.2368 107.206 65.7339Z" fill="#421818"/>
<path d="M108.227 62.5593C107.686 62.4357 107.123 62.4384 106.583 62.5671C106.043 62.6958 105.54 62.9471 105.112 63.3016C104.874 63.507 104.45 63.9245 104.529 64.2891C104.609 64.6536 105.02 64.647 105.291 64.6006C105.921 64.4813 106.451 64.0438 107.094 63.9378C107.482 63.8697 107.874 63.8276 108.267 63.8119H108.466C108.386 63.3745 108.327 62.9967 108.227 62.5593Z" fill="#421818"/>
<path d="M74.8505 76.6562C74.5558 76.4567 74.2766 76.2351 74.0154 75.9934L74.0949 75.7482C74.0949 75.6488 73.9756 75.609 73.9425 75.7018C73.9288 75.7582 73.9111 75.8136 73.8895 75.8675C73.0515 74.9456 72.287 73.9595 71.603 72.9182C70.5823 71.4999 69.5838 70.0683 68.6073 68.6235C66.619 65.7273 64.7567 62.7846 62.9009 59.8287C61.8471 58.1586 60.8066 56.4751 59.7661 54.7984C59.7515 54.7853 59.7326 54.7781 59.7131 54.7781C59.6935 54.7781 59.6746 54.7853 59.66 54.7984L57.8043 56.0377C57.7913 56.0523 57.7841 56.0712 57.7841 56.0907C57.7841 56.1103 57.7913 56.1292 57.8043 56.1438C61.244 63.3082 63.1594 71.1619 67.2619 78.0148C68.3213 79.7941 69.5462 81.4695 70.9203 83.0187C70.9271 83.0282 70.936 83.0361 70.9464 83.0415C70.9567 83.0468 70.9683 83.0497 70.98 83.0497C70.9917 83.0497 71.0032 83.0468 71.0136 83.0415C71.024 83.0361 71.0329 83.0282 71.0396 83.0187C72.2358 80.8436 73.2233 78.5601 73.9889 76.1989C74.2435 76.4374 74.5136 76.6589 74.7975 76.8616C74.8571 76.8484 74.9366 76.7158 74.8505 76.6562Z" fill="#F7A37A"/>
<path d="M127.487 76.9147C127.6 77.6814 127.673 78.4534 127.706 79.2277C127.938 79.0885 128.163 78.9427 128.368 78.7969L127.487 76.9147Z" fill="#F7A37A"/>
<path d="M147.834 58.2977C147.376 57.7079 146.926 57.118 146.468 56.5348C146.462 56.5266 146.454 56.5199 146.445 56.5153C146.436 56.5107 146.426 56.5083 146.415 56.5083C146.405 56.5083 146.395 56.5107 146.386 56.5153C146.376 56.5199 146.368 56.5266 146.362 56.5348L141.789 60.2993C139.085 62.5129 136.361 64.7 133.578 66.8208C132.19 67.8812 130.787 68.9218 129.369 69.9424L128.044 70.8968C128.262 71.321 128.481 71.7385 128.706 72.156C129.515 73.7003 130.231 75.2975 130.993 76.8749C131.298 76.6297 131.596 76.3911 131.888 76.1392C137.958 70.9498 142.28 64.1101 147.794 58.4104C147.804 58.4062 147.814 58.3998 147.822 58.3916C147.829 58.3835 147.835 58.3737 147.839 58.3631C147.843 58.3524 147.844 58.3411 147.843 58.3298C147.842 58.3185 147.839 58.3076 147.834 58.2977Z" fill="#F7A37A"/>
<path d="M96.4832 73.3689C95.4724 76.411 94.7078 79.5293 94.1966 82.6939C94.1237 83.1446 93.8454 83.9532 94.0641 84.3773C94.1834 84.5377 94.347 84.6598 94.5346 84.7286L95.5752 85.2323L99.903 87.3531C99.9187 87.3581 99.9352 87.3598 99.9516 87.3582C99.9679 87.3565 99.9837 87.3514 99.998 87.3433C100.012 87.3353 100.025 87.3243 100.035 87.3111C100.045 87.298 100.052 87.283 100.055 87.267C101.182 83.6615 102.307 80.0561 103.429 76.4507L103.979 76.6827C104.105 76.7357 104.204 76.5369 104.078 76.4839L103.495 76.232C103.614 75.8476 103.734 75.4566 103.86 75.0722C103.899 74.933 103.694 74.8999 103.648 75.0324L103.303 76.1525L96.6489 73.2894C96.5693 73.2562 96.5097 73.3026 96.4832 73.3689Z" fill="#F7A37A"/>
<path d="M110.315 126.429C109.661 126.144 108.944 126.03 108.234 126.098C106.197 126.019 104.162 125.977 102.13 125.972C100.857 125.972 99.5782 125.972 98.3057 125.972C98.3984 125.588 98.4979 125.203 98.5906 124.812C98.596 124.796 98.5974 124.779 98.5945 124.762C98.5917 124.745 98.5847 124.728 98.5743 124.715C98.5639 124.701 98.5502 124.69 98.5346 124.683C98.519 124.676 98.5018 124.672 98.4846 124.673C92.0791 124.953 85.7156 125.852 79.4833 127.357C79.5429 127.218 79.6026 127.086 79.6556 126.946C79.7086 126.807 79.523 126.701 79.4634 126.834L79.2182 127.417L77.9987 127.728C77.9843 127.735 77.9713 127.743 77.9604 127.755C77.9494 127.766 77.9408 127.779 77.935 127.793C77.9291 127.808 77.9262 127.823 77.9263 127.839C77.9264 127.854 77.9296 127.87 77.9357 127.884C77.9418 127.899 77.9507 127.912 77.9618 127.923C77.9729 127.933 77.9861 127.942 78.0006 127.948C78.015 127.954 78.0305 127.957 78.0461 127.957C78.0617 127.956 78.0771 127.953 78.0915 127.947L79.1453 127.682C77.0058 132.812 75.4388 138.161 74.4728 143.635C74.3933 144.077 74.3204 144.518 74.2541 144.96C72.6767 148.42 72.1465 152.251 71.729 156.028C71.4639 158.421 71.2452 160.827 70.8144 163.193C70.3208 165.665 69.618 168.09 68.7134 170.443C67.7421 172.893 66.9557 175.412 66.3606 177.979C65.8105 180.63 65.5256 183.281 65.0351 185.932C64.5447 188.583 63.6632 191.035 62.954 193.6C62.6013 194.776 62.3791 195.988 62.2913 197.212C62.2813 198.496 62.3477 199.78 62.4901 201.056C62.6681 202.494 62.5185 203.953 62.0527 205.324C61.5357 206.59 60.7272 207.677 60.6145 209.082C60.5018 210.487 60.8796 212.031 60.6609 213.529C60.4502 214.973 59.9303 216.354 59.1365 217.579C59.1274 217.596 59.1228 217.615 59.1233 217.635C59.1238 217.654 59.1293 217.673 59.1393 217.69C59.1494 217.706 59.1635 217.72 59.1804 217.73C59.1974 217.739 59.2165 217.744 59.236 217.744C60.5424 217.852 61.856 217.836 63.1595 217.698L64.876 217.625C65.5136 217.695 66.1584 217.604 66.7517 217.36C67.1626 217.088 69.6081 207.127 70.4631 203.866C72.0842 197.298 74.2296 190.871 76.8786 184.646C78.2704 181.505 79.8279 178.43 81.2595 175.301C82.691 172.173 84.0364 169.052 85.3288 165.89C87.8959 159.62 90.2377 153.265 92.3541 146.823C92.6324 145.968 92.9108 145.106 93.1825 144.251C92.8578 147.565 92.6324 150.879 92.4734 154.192C91.7092 157.092 91.3084 160.075 91.2804 163.073C91.2877 165.278 91.4716 167.479 91.8305 169.655C91.9233 170.264 92.0094 170.887 92.0558 171.504C92.1022 172.12 92.0558 172.789 92.0558 173.432C91.8925 174.526 91.6126 175.599 91.2207 176.633C90.5404 178.641 90.2043 180.75 90.2266 182.87C90.2266 185.07 90.505 187.258 90.6441 189.445C90.8464 191.685 90.7146 193.943 90.2531 196.145C89.7229 198.365 88.9276 200.499 88.6028 202.773C88.2052 205.338 87.9865 207.936 87.7081 210.514L86.8267 218.639C86.8282 218.669 86.8406 218.696 86.8614 218.717C86.8822 218.738 86.91 218.75 86.9393 218.752C87.8181 218.738 88.687 218.565 89.5042 218.242C90.8682 218.209 92.2253 218.036 93.5537 217.725C93.9646 217.625 93.9116 217.665 94.0375 217.267C94.1634 216.87 94.3357 216.306 94.4815 215.829C94.7599 214.908 98.7762 202.302 99.3197 198.352C99.8631 194.402 100.261 190.359 101.03 186.422C101.798 182.486 102.865 178.675 103.939 174.837C106.13 167.193 107.839 159.419 109.056 151.561C110.246 143.746 110.857 135.853 110.885 127.947C110.932 127.666 110.904 127.378 110.804 127.112C110.704 126.845 110.535 126.61 110.315 126.429Z" fill="#9FB0C9"/>
<path d="M102.229 81.9914C102.116 81.713 101.891 81.713 101.619 81.6666C101.076 81.5738 100.526 81.4943 99.9758 81.4082C98.8888 81.2358 97.8085 81.0503 96.7216 80.9045C96.251 80.8382 95.7805 80.7852 95.3099 80.7587C94.9532 80.7038 94.5883 80.7402 94.2495 80.8647C93.6464 81.1828 93.368 82.1902 93.2024 82.7668C93.1936 82.7941 93.196 82.8237 93.209 82.8492C93.2221 82.8746 93.2447 82.8939 93.2719 82.9027C93.2992 82.9115 93.3288 82.9091 93.3543 82.896C93.3798 82.883 93.399 82.8603 93.4078 82.8331C95.571 83.0386 97.7142 83.4176 99.8167 83.9664C100.36 84.1289 100.917 84.2398 101.48 84.2978C101.57 84.307 101.661 84.2914 101.743 84.2529C101.824 84.2144 101.894 84.1543 101.944 84.0791C102.281 83.4383 102.382 82.6992 102.229 81.9914Z" fill="#97420F"/>
<path d="M110.805 136.616C110.755 136.084 110.528 135.584 110.16 135.196C109.793 134.808 109.306 134.554 108.777 134.475C105.506 133.705 102.184 133.171 98.8358 132.878C94.9056 132.487 90.9423 132.434 87.0651 131.592C85.2757 131.201 83.4531 130.737 81.604 130.896C79.8609 131.049 78.0847 131.718 76.3549 131.201L76.3947 131.069C76.4345 130.936 76.2224 130.877 76.176 131.009C76.1296 131.142 76.176 131.089 76.176 131.128H76.0965C75.9639 131.075 75.9043 131.294 76.0368 131.34H76.1097C75.1192 134.567 74.3726 137.864 73.8762 141.202C73.7494 141.915 73.6587 142.634 73.6045 143.356C73.6045 143.78 73.7238 144.019 74.1745 144.079C74.8649 144.087 75.5553 144.056 76.2423 143.986C77.1105 143.986 77.9853 143.986 78.8535 144.052C80.5117 144.163 82.1523 144.459 83.7447 144.934C85.3155 145.411 86.7338 146.259 88.278 146.783C91.3532 147.87 94.667 147.24 97.8416 147.187C101.348 147.127 104.787 147.896 108.273 148.168C108.664 148.168 109.056 148.228 109.447 148.241C109.667 148.281 109.895 148.267 110.109 148.201C110.567 147.956 110.454 147.074 110.48 146.663C110.6 144.923 110.693 143.177 110.759 141.428C110.792 140.559 110.818 139.685 110.838 138.81C110.882 138.079 110.871 137.345 110.805 136.616Z" fill="#97420F"/>
<path d="M137.541 73.3159C136.015 71.017 134.348 68.8147 132.551 66.7214C132.533 66.7115 132.514 66.7063 132.494 66.7063C132.474 66.7063 132.455 66.7115 132.438 66.7214C130.204 67.4637 128.733 69.3724 127.136 70.9763C126.311 71.8823 125.338 72.642 124.259 73.2231C122.934 73.8858 121.41 74.1178 120.031 74.701C117.559 75.7548 116.273 78.0944 114.576 80.0031C112.651 82.1086 110.047 83.4714 107.22 83.8537C103.508 84.4502 92.9771 82.0444 91.5522 82.0179C89.0403 81.9715 86.1706 82.6409 83.9702 81.0569C82.0946 79.7314 81.3656 77.246 79.3309 76.0729C77.4288 74.9728 75.0627 75.0722 73.1805 73.9389C71.855 73.1502 71.3977 71.8114 70.715 70.5389C70.1384 69.4917 69.3431 68.4843 68.1502 68.2988C68.1263 68.2936 68.1014 68.296 68.0789 68.3055C68.0563 68.3149 68.0373 68.3311 68.0242 68.3518C65.9167 71.7451 63.7892 75.1318 61.7015 78.5384C61.3502 79.0951 61.2707 79.4331 61.7612 79.9103C62.2704 80.3805 62.716 80.9152 63.0867 81.5009C63.7586 82.7041 64.2837 83.9835 64.6508 85.3118C65.4461 87.7773 66.2878 90.3355 68.6273 91.7472C70.0059 92.5757 71.5899 92.9932 72.9419 93.8813C74.2939 94.7694 75.3742 96.2606 76.3816 97.6126C77.3316 98.8938 78.4307 100.057 79.6557 101.079C79.7986 104.394 79.4524 107.713 78.6284 110.927C77.9656 113.433 76.8588 115.799 76.3021 118.324C75.7454 120.849 76.0304 123.493 76.3021 126.072L76.7196 130.254C76.7925 130.989 76.6666 132.05 77.6806 131.93C78.92 131.785 80.1329 131.486 81.3855 131.394C85.068 131.127 88.7668 131.593 92.268 132.765C94.5995 133.606 96.824 134.719 98.8956 136.079C100.026 136.837 101.216 137.502 102.455 138.067C103.709 138.573 105.023 138.916 106.365 139.088C107.942 139.32 109.52 139.519 111.104 139.698C111.012 136.53 111.209 133.36 111.693 130.227C112.217 126.913 113.682 123.878 114.411 120.617C115.18 117.25 114.219 113.877 114.199 110.49C114.199 107.375 115.213 104.326 116.233 101.417C117.036 98.9697 118.12 96.6234 119.461 94.4248C119.759 93.4439 121.337 89.7854 122.059 89.2022C123.438 88.0291 125.227 87.4923 126.665 86.3987C127.922 85.3048 128.947 83.9708 129.681 82.4752C130.591 80.8326 131.654 79.2793 132.855 77.8359C134.228 76.2134 135.785 74.7565 137.495 73.4948C137.548 73.4285 137.581 73.3689 137.541 73.3159Z" fill="#182149"/>
<path d="M60.5019 45.4269C59.8391 44.9696 59.4746 46.6464 59.4348 46.9579C59.3251 47.9391 59.2852 48.9269 59.3155 49.9138L58.9378 49.4234L55.213 44.731C54.775 44.0981 54.2707 43.5138 53.7086 42.988C53.4037 42.7361 52.7741 42.3252 52.3499 42.4843C51.548 42.8223 53.6754 44.7642 53.914 45.0492C54.5238 45.7649 55.107 46.5006 55.6505 47.2628C55.8294 47.508 56.0017 47.7598 56.1741 48.0117L55.7366 48.3895C54.6828 47.2628 53.5959 46.1493 52.4228 45.1154C52.1445 44.8636 50.4346 43.432 50.2357 44.4527C50.1363 44.8901 50.7659 45.2745 51.1371 45.533C51.0047 45.4802 50.8572 45.4796 50.7244 45.5313C50.5916 45.5829 50.4833 45.683 50.4213 45.8113C50.1429 46.3482 51.0377 46.8651 51.3624 47.1369C52.3764 47.9852 53.4103 48.7739 54.3382 49.6819L54.1195 49.8741C53.4381 49.3027 52.706 48.7947 51.9324 48.3563C51.6673 48.2105 50.6069 47.5478 50.6731 48.3563C50.6923 48.4571 50.7346 48.5521 50.7967 48.6337C50.8588 48.7154 50.939 48.7815 51.031 48.8269C51.4552 49.1119 51.9059 49.3372 52.3168 49.6355C52.8687 50.1177 53.3746 50.6502 53.8279 51.2261C55.1136 53.1348 56.4789 54.9773 57.9635 56.7535C57.9838 56.7681 58.0081 56.7759 58.0331 56.7759C58.0581 56.7759 58.0824 56.7681 58.1027 56.7535C58.7015 56.4388 59.2814 56.0892 59.8391 55.7063C59.8551 55.7824 59.875 55.8577 59.8988 55.9317C59.9108 55.9545 59.9303 55.9724 59.954 55.9826C59.9776 55.9928 60.0041 55.9945 60.0289 55.9875C60.0537 55.9806 60.0754 55.9653 60.0903 55.9443C60.1052 55.9232 60.1125 55.8977 60.1108 55.872C60.1108 55.7527 60.0512 55.6334 60.0247 55.5141C59.891 54.7429 59.9068 53.9532 60.0711 53.1878C60.144 52.7902 60.2368 52.3925 60.3296 52.0015C60.3949 51.8098 60.4131 51.6052 60.3826 51.405C60.5451 50.4948 60.6315 49.5726 60.6411 48.6479C60.6411 47.9852 60.6411 47.3224 60.6411 46.6199C60.6477 46.3283 60.7935 45.639 60.5019 45.4269Z" fill="#F7A37A"/>
<path d="M144.633 48.8998C144.633 49.5626 144.633 50.2253 144.633 50.9278C144.639 51.8639 144.728 52.7976 144.898 53.7181C144.87 53.9183 144.888 54.1224 144.951 54.3146C145.044 54.7056 145.143 55.1032 145.216 55.5009C145.373 56.267 145.389 57.0554 145.262 57.8272C145.262 57.9465 145.209 58.0658 145.176 58.1851C145.143 58.3044 145.355 58.3773 145.395 58.2447C145.435 58.1122 145.428 58.0989 145.448 58.0194C145.999 58.3841 146.57 58.7182 147.158 59.0201C147.178 59.0347 147.202 59.0425 147.227 59.0425C147.252 59.0425 147.277 59.0347 147.297 59.0201C148.762 57.2439 150.147 55.4015 151.433 53.4927C151.887 52.9153 152.395 52.3827 152.95 51.9021C153.361 51.6039 153.805 51.3785 154.229 51.0935C154.323 51.049 154.404 50.9832 154.467 50.9015C154.531 50.8198 154.574 50.7244 154.594 50.623C154.654 49.821 153.593 50.4838 153.335 50.623C152.558 51.0597 151.823 51.5678 151.141 52.1407L150.929 51.9485C151.85 51.0405 152.884 50.2518 153.898 49.4035C154.223 49.1318 155.117 48.6148 154.839 48.078C154.777 47.9496 154.669 47.8496 154.536 47.7979C154.403 47.7463 154.256 47.7469 154.123 47.7996C154.494 47.5411 155.124 47.1369 155.025 46.7193C154.799 45.7186 153.123 47.1501 152.838 47.3821C151.684 48.416 150.604 49.5294 149.524 50.6561L149.086 50.2783C149.259 50.0265 149.431 49.7746 149.61 49.5294C150.153 48.7673 150.737 48.0316 151.346 47.3158C151.598 47.0308 153.712 45.0889 152.917 44.7509C152.486 44.5654 151.863 45.0028 151.552 45.2546C150.99 45.7804 150.485 46.3648 150.047 46.9977L146.356 51.7298L145.978 52.2202C146.012 51.2333 145.972 50.2453 145.859 49.2643C145.819 48.9528 145.441 47.276 144.792 47.7333C144.487 47.9255 144.633 48.6148 144.633 48.8998Z" fill="#F7A37A"/>
<path d="M112.8 125.734C110.958 126.907 109.029 128.146 106.835 128.504C104.754 128.835 102.461 128.292 101.202 126.516C100.745 125.843 100.421 125.09 100.248 124.295L100.731 120.63C101.394 115.713 102.057 110.795 102.653 105.877C102.973 103.442 103.148 100.99 103.177 98.5339C103.177 97.4337 103.177 96.3269 103.097 95.2201C103.106 94.3373 102.806 93.4793 102.249 92.7944C103.538 89.3415 105.435 86.1474 107.849 83.3633C107.865 83.352 107.878 83.3362 107.885 83.3179C107.892 83.2997 107.893 83.2797 107.889 83.2606C107.885 83.2415 107.875 83.2241 107.861 83.2105C107.847 83.1969 107.829 83.1878 107.81 83.1844C106.857 82.858 105.819 82.8887 104.887 83.2705C103.86 83.7377 103.006 84.517 102.448 85.4974C101.209 87.3531 100.062 89.2685 98.9883 91.2104C98.2394 90.9652 97.4772 90.7465 96.7084 90.5476C94.481 89.9805 92.2077 89.6124 89.9151 89.4474C88.8348 89.3679 87.7545 89.3348 86.6676 89.348C87.0432 88.4202 87.4607 87.5078 87.9202 86.6108C88.8083 84.8744 89.8025 83.0717 91.4461 81.8854C91.462 81.8713 91.4734 81.8528 91.4787 81.8323C91.484 81.8117 91.483 81.7901 91.4759 81.7701C91.4688 81.7501 91.4558 81.7327 91.4387 81.7202C91.4215 81.7076 91.401 81.7005 91.3798 81.6998C90.2134 81.8323 89.0071 81.3883 87.9335 82.1239C86.9592 82.7867 86.323 83.9797 85.6801 84.9274C84.3988 86.8097 83.155 88.7206 81.9488 90.6603C80.4386 91.7907 79.2598 93.306 78.5355 95.0478C77.7825 97.0702 77.26 99.1712 76.9781 101.311C76.5362 103.754 76.1297 106.202 75.7586 108.654C74.9832 113.559 74.3138 118.463 73.8299 123.381C73.598 125.773 73.3594 128.179 73.2799 130.572C73.2268 132.083 73.3925 133.885 74.8771 134.661C75.2221 134.831 75.5946 134.939 75.9773 134.979C76.5043 135.025 77.0343 135.025 77.5613 134.979C78.6643 134.896 79.772 134.896 80.8751 134.979C83.1693 135.255 85.4478 135.649 87.7015 136.159C88.6957 136.344 89.6898 136.503 90.7171 136.59C91.3953 136.657 92.0771 136.681 92.7584 136.662H92.9903C93.3717 136.651 93.7521 136.62 94.1303 136.57C95.8203 136.364 97.6429 135.728 98.5443 134.157C98.96 133.336 99.2164 132.443 99.2998 131.526C99.2998 131.314 99.3528 131.109 99.386 130.903C100.149 131.359 100.972 131.705 101.832 131.93C103.51 132.332 105.244 132.45 106.961 132.282C107.81 132.222 108.658 132.129 109.506 132.01C109.775 131.998 110.038 131.934 110.282 131.82C110.525 131.706 110.743 131.545 110.925 131.347C111.387 130.57 111.723 129.725 111.919 128.842L112.973 125.84C112.975 125.819 112.971 125.797 112.961 125.779C112.952 125.76 112.937 125.744 112.919 125.733C112.902 125.722 112.881 125.716 112.86 125.716C112.839 125.716 112.818 125.722 112.8 125.734Z" fill="#EEDED4"/>
<path d="M115.776 94.2922C115.18 92.9667 113.669 92.41 112.303 92.3768C111.341 92.3934 110.383 92.5134 109.447 92.7347C108.399 92.9487 107.335 93.0707 106.266 93.0992C102.09 93.1722 98.0738 91.8069 94.0508 90.8724C92.112 90.4119 90.1396 90.1061 88.1523 89.9578C86.0447 89.8186 83.9371 89.8252 81.8296 89.7457C79.7135 89.7136 77.6053 89.4806 75.5333 89.0498C73.9493 88.6853 72.034 87.6381 70.4433 88.4997C69.938 88.8016 69.5164 89.2254 69.2172 89.7324C67.7194 92.2509 66.0492 94.6368 66.0758 97.5795C66.0758 98.9448 66.5198 100.449 67.8917 101.013C68.626 101.265 69.4101 101.337 70.1782 101.225C71.179 101.119 72.1665 100.946 73.1673 100.834C81.8958 99.8263 90.7039 100.535 99.4059 101.496C101.613 101.742 103.82 102.007 106.034 102.272C107.982 102.497 110.01 102.749 111.945 102.186C112.717 101.993 113.438 101.636 114.058 101.138C114.678 100.641 115.183 100.014 115.538 99.3027C115.855 98.5107 116.035 97.67 116.068 96.8173C116.182 95.9645 116.082 95.0965 115.776 94.2922Z" fill="#8AA39D"/>
<path d="M101.646 92.0918C101.403 91.9676 101.129 91.917 100.857 91.946C100.307 91.9305 99.7598 91.8684 99.2203 91.7605C98.2807 91.5495 97.3536 91.2862 96.4434 90.9718C95.3928 90.6092 94.316 90.3278 93.2223 90.1301C92.1553 89.9578 91.0684 89.8782 89.9947 89.7788L86.4291 89.4474C85.3294 89.3199 84.2218 89.2734 83.1153 89.3083C83.1896 89.2217 83.2693 89.1398 83.3538 89.063C83.4599 88.9636 83.3008 88.8046 83.1948 88.904C83.0518 89.04 82.919 89.1862 82.7971 89.3414C82.7771 89.3479 82.7596 89.3602 82.7466 89.3767C82.7336 89.3932 82.7258 89.4132 82.7242 89.4342C81.0474 91.7008 82.0615 95.3394 83.387 97.5132C84.1889 98.8387 85.3753 100.217 86.9129 100.542C88.4505 100.867 90.2929 100.337 91.8305 99.8793C95.0124 99.0149 97.9239 97.3597 100.294 95.0676C100.745 94.5971 102.673 92.8209 101.646 92.0918Z" fill="#EEDED4"/>
<path d="M109.765 70.1346C109.161 70.477 108.469 70.6337 107.776 70.5853C107.759 70.5858 107.742 70.5903 107.726 70.5983C107.71 70.6063 107.696 70.6177 107.686 70.6316C107.675 70.6455 107.667 70.6617 107.664 70.6789C107.66 70.6961 107.66 70.7139 107.664 70.7311C107.705 70.8952 107.787 71.0459 107.903 71.1689C108.019 71.2919 108.165 71.3831 108.327 71.4336C108.856 71.6266 109.405 71.76 109.964 71.8313C109.904 71.2945 109.857 70.7245 109.765 70.1346Z" fill="white"/>
<path d="M103.939 72.4476C103.773 71.7035 103.442 71.0059 102.972 70.4063C102.859 69.9026 102.693 69.3989 102.574 68.8953C102.176 67.2251 102.872 65.8134 103.899 64.5277C105.278 62.8045 107.425 60.5975 106.113 58.2248C105.857 57.8377 105.55 57.4875 105.198 57.1843C104.615 56.2365 103.482 55.8588 102.262 55.7395C101.503 55.5965 100.725 55.5853 99.9626 55.7063C99.039 55.7998 98.1209 55.9413 97.2121 56.1305C94.871 56.4894 92.7459 57.703 91.2473 59.5371C90.885 60.0522 90.4745 60.5315 90.0212 60.9686C89.4313 61.4723 88.6957 61.7374 88.0859 62.2411C87.16 63.0388 86.5335 64.1281 86.3097 65.3296C86.2148 65.8277 86.1992 66.3377 86.2633 66.8407C86.3489 67.2586 86.4087 67.6813 86.4423 68.1066C86.4403 68.3634 86.3795 68.6164 86.2646 68.8462C86.1497 69.0759 85.9838 69.2764 85.7795 69.4321C85.3023 69.8364 84.7522 70.0948 84.2949 70.5521C83.7577 71.0387 83.3091 71.6151 82.9694 72.2554C82.4525 73.2628 82.247 74.9728 83.7448 75.1848C84.1272 75.1822 84.5075 75.2403 84.8715 75.3572C85.1501 75.5528 85.4531 75.711 85.7729 75.8277C85.8699 75.8375 85.9675 75.8375 86.0645 75.8277C86.4315 75.9256 86.8135 75.9548 87.1912 75.9139C87.5893 75.8609 87.9927 75.8609 88.3908 75.9139C88.8161 76.0384 89.1857 76.3051 89.438 76.6694C89.7194 76.9863 90.0726 77.2312 90.4682 77.3834C90.8637 77.5356 91.29 77.5908 91.7112 77.5443C91.7983 77.6891 91.9131 77.8152 92.0492 77.9154C92.6788 78.3727 93.2555 77.8624 93.9116 77.8027C95.2371 77.6834 96.3307 78.9361 97.6959 78.7969H97.8948C98.5229 78.9597 99.1821 78.9597 99.8101 78.7969C100.89 78.6246 101.798 79.2741 102.859 79.2277C103.002 79.2246 103.143 79.1902 103.272 79.1268C103.4 79.0635 103.514 78.9727 103.603 78.8608C103.693 78.749 103.757 78.6188 103.791 78.4795C103.825 78.3402 103.828 78.1952 103.8 78.0546C103.727 76.9544 103.137 76.0663 103.469 74.9529C103.821 74.1666 103.982 73.3081 103.939 72.4476Z" fill="#6B2733"/>
<path d="M103.097 66.5491C103.179 66.5719 103.259 66.6007 103.336 66.6353C103.462 66.7015 103.575 66.5027 103.449 66.4431C103.215 66.3184 102.957 66.2439 102.693 66.2245C102.429 66.2051 102.163 66.2412 101.914 66.3304C101.664 66.4197 101.436 66.5601 101.244 66.7427C101.051 66.9253 100.9 67.1461 100.798 67.3908C100.34 68.5241 101.109 69.6707 101.984 70.3335C102.238 70.5173 102.501 70.6877 102.773 70.8438C102.965 70.9565 103.276 71.2083 103.522 71.2017C103.893 71.2017 103.952 70.7709 103.992 70.4859C104.17 69.1091 103.853 67.7139 103.097 66.5491Z" fill="#F7A37A"/>
<path d="M116.081 92.695C114.901 91.661 113.47 92.695 112.648 93.6692C111.626 94.8312 110.965 96.2661 110.746 97.7982C110.672 98.0768 110.667 98.3688 110.729 98.6501C110.791 98.9314 110.92 99.1937 111.104 99.4153C111.314 99.5834 111.566 99.6918 111.833 99.7291C112.1 99.7664 112.373 99.7313 112.621 99.6274C113.214 99.4005 113.718 98.9893 114.06 98.4543C114.504 97.8821 114.765 97.1891 114.808 96.4661C114.822 96.3462 114.803 96.2247 114.753 96.1149C114.703 96.005 114.624 95.9109 114.525 95.8427C114.425 95.7744 114.309 95.7347 114.188 95.7278C114.068 95.7208 113.948 95.747 113.841 95.8033C113.178 96.1612 112.827 97.215 112.694 97.9042C112.694 98.0434 112.88 98.1031 112.906 97.9639C112.971 97.6135 113.08 97.2728 113.231 96.9499C113.297 96.8107 113.37 96.6781 113.45 96.5456C113.495 96.4729 113.546 96.4041 113.602 96.3401C113.808 95.9756 114.139 96.0419 114.59 96.539C114.568 96.9357 114.447 97.3208 114.238 97.659C114.122 97.9142 113.982 98.1582 113.821 98.3881C113.638 98.6686 113.401 98.9094 113.123 99.0961C112.845 99.2829 112.533 99.4117 112.204 99.475C111.276 99.5943 110.878 98.8652 110.938 98.0302C111.074 96.7596 111.53 95.5443 112.263 94.4977C112.973 93.4638 114.59 91.6677 115.929 92.8341C116.035 92.9468 116.194 92.8209 116.081 92.695Z" fill="#421818"/>
<path d="M91.4263 122.234C91.3865 123.765 90.843 125.263 90.5978 126.767C90.2227 129.074 90.1314 131.418 90.3261 133.746V133.912C89.5573 134.025 88.815 134.131 88.0661 134.17C87.3823 134.21 86.6962 134.182 86.0181 134.084C84.4467 133.784 82.857 133.589 81.2595 133.501C79.934 133.501 78.4561 133.501 77.1968 132.931C76.7424 132.724 76.3386 132.421 76.0136 132.042C75.6885 131.663 75.4499 131.218 75.3146 130.737C75.3809 129.458 75.5134 128.179 75.699 126.913C75.8845 125.647 76.1165 124.355 76.428 123.096L76.4877 122.884C76.5473 122.652 76.607 122.426 76.6732 122.221C76.7714 121.625 77.0435 121.072 77.4553 120.63C77.9132 120.397 78.428 120.298 78.9399 120.345C82.2025 120.142 85.4772 120.264 88.7156 120.71C89.1464 120.763 89.5772 120.829 90.0411 120.902C90.3665 120.922 90.6875 120.987 90.9955 121.094C91.0817 121.13 91.1604 121.182 91.2274 121.247C91.2776 121.303 91.3199 121.365 91.3534 121.432C91.4321 121.692 91.4569 121.965 91.4263 122.234Z" fill="#A67A6F"/>
<path d="M102.865 81.6136C102.865 81.6136 93.7061 80.1489 90.5912 80.6394C88.3577 81.6136 88.6758 82.6674 88.6758 82.6674L90.0013 90.7862C90.0013 90.7862 100.943 83.8405 102.892 83.8471C104.841 83.8538 105.205 84.6027 105.205 84.6027C105.398 83.9947 105.398 83.3417 105.205 82.7337C104.821 82.051 102.865 81.6136 102.865 81.6136Z" fill="#9E1B32"/>
<path d="M253.723 64.1499C253.378 63.2684 252.537 64.5277 252.338 64.8127C251.839 65.5794 251.301 66.3205 250.727 67.0329L250.475 66.7082C251.447 65.6012 252.238 64.3488 252.822 62.9967C253.001 62.546 253.398 61.6712 253.173 61.1476C253.143 61.0799 253.097 61.0204 253.04 60.9743C252.982 60.9281 252.914 60.8966 252.841 60.8825C252.908 60.5644 253.001 60.0209 252.709 59.842C252.046 59.4377 251.132 61.9363 250.946 62.3339C250.463 63.358 249.882 64.3324 249.21 65.2435L248.997 65.0049C249.615 64.1328 250.162 63.2131 250.634 62.2544C250.982 61.5528 251.287 60.8314 251.549 60.0938C251.675 59.7359 252.099 58.6556 251.655 58.3309C251.211 58.0061 250.847 58.9936 250.74 59.2389C250.369 60.0077 250.025 60.7765 249.581 61.5055C248.896 62.6532 248.083 63.7184 247.155 64.6801C246.804 64.9651 246.452 65.2567 246.114 65.555C246.559 64.3825 247.07 63.2362 247.645 62.1219C247.791 61.8435 248.096 61.3531 247.725 61.1012C247.354 60.8494 247.062 61.3398 246.877 61.5718C245.388 63.6569 244.391 66.0519 243.96 68.5771C243.868 68.8555 243.788 69.1405 243.709 69.4255C243.225 70.2597 242.542 70.961 241.72 71.4668L238.711 73.7202C238.699 73.7313 238.689 73.7451 238.682 73.7605C238.675 73.776 238.671 73.7927 238.671 73.8096C238.671 73.8266 238.675 73.8433 238.682 73.8587C238.689 73.8741 238.699 73.8879 238.711 73.8991C239.063 74.2769 239.407 74.6613 239.759 75.0457C240.082 75.448 240.43 75.8309 240.799 76.1922C241.296 76.6164 241.787 75.8675 242.125 75.5295C243.605 74.1598 245.036 72.7415 246.419 71.2746C246.427 71.2532 246.427 71.2296 246.419 71.2083C246.565 71.0956 246.704 70.9763 246.817 70.8968L247.758 70.2871L249.548 69.0543L250.442 68.438C250.658 68.3319 250.853 68.1882 251.019 68.0138C251.051 67.9672 251.076 67.9157 251.092 67.8614C252.078 67.1452 252.891 66.2166 253.471 65.144C253.59 64.8657 253.836 64.4813 253.723 64.1499Z" fill="#F7A37A"/>
<path d="M159.034 51.1797C159.147 51.6666 159.3 52.1433 159.492 52.6046C159.774 53.2619 160.142 53.8792 160.585 54.4405C160.576 54.4953 160.576 54.5513 160.585 54.6062C160.7 54.8159 160.848 55.0061 161.023 55.1695L161.685 56.0112L163.124 57.6946L163.786 58.5297C163.879 58.6357 163.979 58.7882 164.085 58.934C164.08 58.9455 164.077 58.9579 164.077 58.9704C164.077 58.983 164.08 58.9954 164.085 59.0069C165.021 60.7743 166.011 62.5284 167.054 64.2692C167.306 64.6867 167.571 65.5417 168.167 65.27C168.625 65.0232 169.068 64.7488 169.493 64.4482L170.818 63.633C170.831 63.6218 170.841 63.608 170.848 63.5926C170.855 63.5771 170.859 63.5604 170.859 63.5435C170.859 63.5266 170.855 63.5098 170.848 63.4944C170.841 63.479 170.831 63.4652 170.818 63.454L168.532 60.465C167.894 59.7494 167.439 58.8897 167.206 57.9597C167.206 57.6615 167.206 57.3699 167.206 57.0716C167.485 54.5249 167.181 51.9482 166.318 49.5361C166.205 49.2643 166.046 48.7076 165.655 48.8733C165.264 49.039 165.39 49.5361 165.45 49.8807C165.7 51.1089 165.882 52.3502 165.993 53.5988C165.748 53.221 165.49 52.8432 165.231 52.4721C164.6 51.2955 164.106 50.0501 163.76 48.7606C163.534 47.9322 163.415 47.0971 163.263 46.2554C163.223 46.0168 163.137 44.9299 162.6 45.1353C162.063 45.3408 162.202 46.4608 162.222 46.8651C162.271 47.6433 162.366 48.4179 162.507 49.1848C162.7 50.2371 162.977 51.2721 163.336 52.2799L163.064 52.4522C162.665 51.3924 162.372 50.2957 162.189 49.1782C162.116 48.7407 161.904 46.0831 161.175 46.2952C160.844 46.3946 160.784 46.9579 160.764 47.2628C160.691 47.2578 160.617 47.2702 160.549 47.299C160.481 47.3278 160.421 47.3721 160.373 47.4285C160.022 47.846 160.154 48.8203 160.201 49.3041C160.4 50.7701 160.825 52.1964 161.46 53.5325L161.135 53.7777C160.774 52.9379 160.458 52.0795 160.188 51.2062C160.081 50.8682 159.611 49.4234 159.034 50.1789C158.842 50.4043 158.948 50.8682 159.034 51.1797Z" fill="#F7A37A"/>
<path d="M196.275 144.887C192.466 145.634 188.66 146.396 184.855 147.174C184.908 146.71 184.968 146.246 185.028 145.782C185.028 145.636 184.822 145.596 184.809 145.736C184.743 146.233 184.683 146.723 184.623 147.22L183.298 147.492C183.159 147.492 183.172 147.744 183.298 147.717L184.623 147.452C183.492 156.576 182.496 165.718 181.634 174.877C180.751 184.54 179.997 194.21 179.374 203.886C179.039 209.33 178.747 214.771 178.5 220.21C178.5 220.263 178.566 220.316 178.619 220.309C179.335 220.21 180.057 220.124 180.766 220.004C180.944 220.001 181.118 219.954 181.273 219.869C181.429 219.783 181.562 219.662 181.661 219.514C181.837 219.033 181.918 218.522 181.899 218.01C181.966 217.393 182.039 216.777 182.131 216.167C182.51 213.707 183.039 211.272 183.715 208.877C185.041 204.045 186.744 199.326 188.003 194.482C188.649 192.097 189.128 189.669 189.435 187.218C189.712 184.74 189.748 182.24 189.541 179.755C189.422 178.277 188.938 176.7 189.475 175.315C195.957 158.686 195.784 151.223 196.427 145.02C196.401 144.96 196.354 144.874 196.275 144.887Z" fill="#F7A37A"/>
<path d="M247.413 200.937C247.061 200.563 246.637 200.264 246.167 200.055C245.637 199.731 245.12 199.393 244.61 199.041C242.561 197.617 240.602 196.067 238.744 194.402C234.987 191.088 231.494 187.49 227.696 184.229C226.662 183.347 225.609 182.492 224.522 181.677C223.395 182.645 222.209 183.559 221.009 184.447C219.68 185.443 218.262 186.315 216.774 187.052C221.943 190.118 227.142 193.141 232.369 196.119C237.11 198.809 241.87 201.46 246.651 204.072C246.664 204.077 246.678 204.08 246.692 204.08C246.706 204.08 246.72 204.077 246.733 204.071C246.746 204.066 246.758 204.058 246.768 204.047C246.778 204.037 246.785 204.025 246.79 204.012C247.016 203.349 247.254 202.634 247.453 201.944C247.528 201.786 247.563 201.611 247.556 201.436C247.549 201.26 247.5 201.089 247.413 200.937Z" fill="#F7A37A"/>
<path d="M231.401 178.615C228.916 177.29 228.386 174.281 227.623 171.835C227.278 170.544 226.72 169.318 225.973 168.21C225.006 167.055 223.968 165.962 222.865 164.936C222.304 164.363 221.825 163.717 221.44 163.014C221.067 162.196 220.741 161.357 220.466 160.502C220.213 159.811 219.845 159.168 219.379 158.6C218.862 157.997 218.239 157.5 217.689 156.93C216.363 155.518 216.144 153.682 216.018 151.82C215.886 149.778 215.76 147.744 215.627 145.702C215.323 141.063 215.022 136.424 214.726 131.785C214.726 131.767 214.721 131.75 214.713 131.734C214.705 131.718 214.694 131.705 214.68 131.694C214.666 131.683 214.65 131.675 214.632 131.672C214.615 131.668 214.597 131.668 214.58 131.672C208.297 132.852 202.056 134.23 195.857 135.807C195.599 134.482 195.334 133.156 195.075 131.785C195.075 131.645 194.83 131.705 194.863 131.844L195.639 135.861L193.869 136.318C193.84 136.326 193.815 136.345 193.8 136.371C193.786 136.397 193.782 136.428 193.79 136.457C193.797 136.486 193.817 136.511 193.843 136.526C193.869 136.541 193.9 136.544 193.929 136.537C194.512 136.377 195.095 136.232 195.678 136.086C197.13 143.575 198.568 151.064 200.059 158.547C200.848 162.523 201.756 166.5 203.433 170.205C205.109 173.91 207.747 177.124 210.431 180.212L220.452 191.725C220.462 191.738 220.475 191.749 220.49 191.757C220.505 191.765 220.522 191.769 220.538 191.769C220.555 191.769 220.572 191.765 220.587 191.757C220.602 191.749 220.615 191.738 220.625 191.725C223.813 187.088 227.428 182.759 231.421 178.794C231.435 178.783 231.446 178.768 231.453 178.752C231.46 178.735 231.463 178.717 231.461 178.699C231.459 178.681 231.452 178.664 231.442 178.649C231.431 178.635 231.417 178.623 231.401 178.615Z" fill="#B5D4E8"/>
<path style="mix-blend-mode:multiply" opacity="0.66" d="M231.401 178.615C228.916 177.29 228.386 174.281 227.623 171.835C227.278 170.544 226.72 169.318 225.973 168.21C225.006 167.055 223.968 165.962 222.865 164.936C222.304 164.363 221.825 163.717 221.44 163.014C221.067 162.196 220.741 161.357 220.466 160.502C220.213 159.811 219.845 159.168 219.379 158.6C218.862 157.997 218.239 157.5 217.689 156.93C216.363 155.518 216.144 153.682 216.018 151.82C215.886 149.778 215.76 147.744 215.627 145.702C215.323 141.063 215.022 136.424 214.726 131.785C214.726 131.767 214.721 131.75 214.713 131.734C214.705 131.718 214.694 131.705 214.68 131.694C214.666 131.683 214.65 131.675 214.632 131.672C214.615 131.668 214.597 131.668 214.58 131.672C208.297 132.852 202.056 134.23 195.857 135.807C195.599 134.482 195.334 133.156 195.075 131.785C195.075 131.645 194.83 131.705 194.863 131.844L195.639 135.861L193.869 136.318C193.84 136.326 193.815 136.345 193.8 136.371C193.786 136.397 193.782 136.428 193.79 136.457C193.797 136.486 193.817 136.511 193.843 136.526C193.869 136.541 193.9 136.544 193.929 136.537C194.512 136.377 195.095 136.232 195.678 136.086C197.13 143.575 198.568 151.064 200.059 158.547C200.848 162.523 201.756 166.5 203.433 170.205C205.109 173.91 207.747 177.124 210.431 180.212L220.452 191.725C220.462 191.738 220.475 191.749 220.49 191.757C220.505 191.765 220.522 191.769 220.538 191.769C220.555 191.769 220.572 191.765 220.587 191.757C220.602 191.749 220.615 191.738 220.625 191.725C223.813 187.088 227.428 182.759 231.421 178.794C231.435 178.783 231.446 178.768 231.453 178.752C231.46 178.735 231.463 178.717 231.461 178.699C231.459 178.681 231.452 178.664 231.442 178.649C231.431 178.635 231.417 178.623 231.401 178.615Z" fill="url(#paint0_linear)"/>
<path d="M204.997 133.912C199.695 131.864 194.094 134.104 188.613 134.19L188.169 134.363C187.553 134.601 186.923 134.78 186.287 134.966C185.922 135.14 185.543 135.284 185.154 135.397C184.16 138.525 183.212 141.68 182.503 144.881C181.571 148.984 181.108 153.179 181.124 157.387C181.193 159.616 181.095 161.847 180.833 164.061C180.499 166.067 180.032 168.049 179.434 169.993C178.837 171.934 178.35 173.908 177.976 175.904C177.681 177.856 177.588 179.832 177.698 181.803C177.896 186.383 178.698 191.115 177.154 195.562C177.15 195.579 177.15 195.596 177.154 195.613C177.157 195.629 177.164 195.645 177.174 195.659C177.184 195.673 177.197 195.684 177.212 195.693C177.227 195.701 177.243 195.706 177.26 195.708C182.702 195.205 188.171 195.077 193.63 195.323C193.66 195.322 193.688 195.309 193.708 195.289C193.729 195.268 193.741 195.24 193.743 195.211C193.839 191.103 194.575 187.036 195.924 183.155C197.189 179.53 199.005 176.044 199.522 172.2C199.801 170.158 199.721 168.091 199.807 166.043C199.916 163.974 200.236 161.922 200.762 159.919C201.259 157.93 201.816 155.942 202.26 153.954C202.704 151.966 203.095 149.865 203.419 147.803C204.148 143.237 204.626 138.631 205.096 134.031C205.083 133.985 205.037 133.945 204.997 133.912Z" fill="#B5D4E8"/>
<path d="M245.412 199.671C245.272 199.749 245.154 199.86 245.07 199.996C244.985 200.132 244.936 200.287 244.928 200.446C244.925 200.706 244.938 200.965 244.968 201.222C244.969 201.671 244.801 202.104 244.497 202.435C244.487 202.429 244.476 202.426 244.464 202.426C244.453 202.426 244.441 202.429 244.431 202.435C243.669 202.885 244.358 203.72 244.789 204.131C245.247 204.513 245.647 204.959 245.975 205.457C246.298 206.055 246.522 206.702 246.638 207.372C246.85 208.453 246.731 210.434 247.128 211.475C247.26 211.846 247.489 212.176 247.791 212.429C248.151 212.753 248.586 212.981 249.057 213.092C249.302 213.092 249.382 212.973 249.461 212.761C249.657 212.14 249.809 211.506 249.919 210.865C250.204 209.539 250.581 207.432 250.78 206.12C250.873 205.49 250.959 204.854 251.019 204.218C251.093 203.775 251.064 203.321 250.933 202.892C250.581 201.991 249.422 201.567 248.64 201.162L246.585 200.042C246.234 199.837 245.81 199.525 245.412 199.671Z" fill="#421818"/>
<path d="M181.76 218.639C181.645 218.526 181.504 218.444 181.348 218.401C181.193 218.359 181.029 218.356 180.872 218.394C180.625 218.458 180.383 218.542 180.15 218.646C179.71 218.781 179.235 218.74 178.824 218.533C178.822 218.508 178.81 218.484 178.791 218.467C178.128 217.87 177.532 218.765 177.26 219.289C177.029 219.883 176.68 220.425 176.233 220.881C175.787 221.337 175.252 221.697 174.662 221.94C173.681 222.45 171.746 222.888 170.858 223.564C170.538 223.787 170.285 224.094 170.129 224.452C169.922 224.887 169.828 225.368 169.857 225.85C169.91 226.089 170.069 226.122 170.288 226.142C170.939 226.154 171.59 226.123 172.237 226.049C173.562 225.963 175.723 225.737 177.035 225.552C177.665 225.466 178.301 225.373 178.924 225.254C179.378 225.204 179.814 225.047 180.196 224.796C180.965 224.206 181.025 222.98 181.217 222.145L181.721 219.859C181.827 219.474 182.039 218.964 181.76 218.639Z" fill="#421818"/>
<path d="M207.807 68.5241C207.807 68.8025 207.747 69.0742 207.714 69.3393C207.345 71.6415 206.688 73.8882 205.759 76.0266C205.348 77.0834 204.819 78.0906 204.182 79.0289C203.5 79.9734 202.765 80.8785 201.981 81.7395C201.508 82.3729 200.912 82.9042 200.229 83.3017C199.546 83.6991 198.789 83.9545 198.005 84.0526C195.758 84.437 190.86 83.4959 189.674 82.1703C189.064 81.5076 188.918 80.1821 189.011 78.5119C189.051 77.9751 189.124 77.4051 189.21 76.8152C189.263 76.4905 189.322 76.1525 189.382 75.841C189.089 75.6804 188.842 75.4486 188.662 75.1672C188.483 74.8857 188.377 74.5636 188.355 74.2305C188.355 73.3623 190.429 71.1155 190.562 70.466C190.562 70.413 190.562 70.36 190.595 70.3069C190.661 69.9557 190.714 69.6044 190.807 69.2465C190.807 69.1405 190.86 69.0278 190.893 68.9218C190.926 68.8157 190.893 68.8687 190.893 68.8422C191.137 68.1293 191.462 67.4466 191.861 66.8076V66.7214C192.046 66.4033 192.245 66.0984 192.444 65.7869C192.452 65.7743 192.462 65.7633 192.474 65.7547C192.486 65.746 192.5 65.7398 192.514 65.7364C192.529 65.733 192.544 65.7325 192.559 65.735C192.573 65.7374 192.587 65.7426 192.6 65.7505C192.612 65.7583 192.623 65.7685 192.632 65.7806C192.641 65.7927 192.647 65.8063 192.65 65.8208C192.654 65.8353 192.654 65.8502 192.652 65.8649C192.649 65.8796 192.644 65.8936 192.636 65.9062C192.64 65.9215 192.64 65.9374 192.636 65.9526C192.668 66.1458 192.69 66.3404 192.703 66.5358C194.777 66.1315 196.845 65.7206 198.939 65.3959L199.933 65.2435L200.497 65.2037L200.755 65.2898C202.12 65.6673 203.45 66.1595 204.732 66.7612C205.898 67.2781 206.833 67.9409 207.807 68.5241Z" fill="#F7A37A"/>
<path d="M191.616 72.4344C191.523 72.9315 191.238 73.3026 190.953 73.2562C190.668 73.2098 190.542 72.7658 190.628 72.2621C190.714 71.7584 191.006 71.3938 191.291 71.4402C191.576 71.4866 191.702 71.9307 191.616 72.4344Z" fill="#421818"/>
<path d="M192.749 69.7303C192.233 69.2935 191.603 69.013 190.933 68.9218C190.9 69.0278 190.873 69.1405 190.847 69.2465C190.754 69.6044 190.701 69.9557 190.635 70.3069H190.761C191.423 70.4395 191.927 70.8835 192.563 71.0028C192.828 71.0559 193.226 71.0028 193.325 70.698C193.425 70.3931 192.974 69.9424 192.749 69.7303Z" fill="#A67A6F"/>
<path d="M203.168 80.8249L195.599 81.0171C195.632 80.6195 195.658 80.2152 195.685 79.8109C195.685 79.6651 195.486 79.6187 195.473 79.7711C195.44 80.1887 195.413 80.6062 195.38 81.0237H194.717C194.578 81.0237 194.598 81.2557 194.717 81.2491H195.347C195.069 85.1461 194.792 89.0409 194.519 92.9335C194.516 92.9502 194.516 92.9674 194.521 92.9838C194.525 93.0001 194.533 93.0154 194.543 93.0286C194.554 93.0418 194.567 93.0525 194.583 93.0601C194.598 93.0677 194.614 93.072 194.631 93.0727L199.642 92.7016L200.841 92.6088C201.049 92.6233 201.256 92.5698 201.431 92.4564C201.809 92.1316 201.842 91.2501 201.941 90.7928C202.652 87.5562 203.095 84.2667 203.267 80.9575C203.271 80.9268 203.263 80.8959 203.244 80.8711C203.225 80.8464 203.198 80.8298 203.168 80.8249Z" fill="#F7A37A"/>
<path d="M191.211 77.2792C191.099 77.2792 190.993 77.2792 190.887 77.2792C190.309 77.2592 189.745 77.1 189.243 76.8152C189.21 77.0406 189.177 77.2659 189.15 77.478C189.11 77.8293 189.071 78.1408 189.044 78.4986C189.605 78.4304 190.156 78.2992 190.688 78.1076C190.85 78.0594 190.997 77.969 191.114 77.8457C191.23 77.7223 191.312 77.5703 191.35 77.4051C191.353 77.3867 191.351 77.3679 191.345 77.3505C191.339 77.333 191.328 77.3173 191.315 77.3048C191.301 77.2923 191.284 77.2835 191.266 77.279C191.248 77.2745 191.229 77.2746 191.211 77.2792Z" fill="#D38262"/>
<path d="M196.454 75.6223C196.348 76.0531 196.215 76.4839 196.102 76.9478C195.954 78.0562 196.166 79.1829 196.706 80.1622C198.097 82.3029 203.075 83.5489 204.712 81.1232C205.467 80.0031 205.659 78.5981 206.435 77.5045C207.343 76.232 208.728 75.4698 209.185 73.8726C209.57 72.5471 209.02 71.2215 209.225 69.896C209.396 69.1528 209.298 68.3729 208.947 67.6957C208.544 67.283 208.174 66.8399 207.84 66.3701C206.346 64.5237 204.221 63.296 201.875 62.9238C200.969 62.7281 200.053 62.5799 199.131 62.4797C198.372 62.3522 197.597 62.3522 196.838 62.4797C195.612 62.5858 194.479 62.9636 193.889 63.9047C193.537 64.209 193.227 64.5589 192.968 64.9452C191.642 67.3046 193.776 69.5249 195.141 71.2613C196.182 72.5404 196.865 73.9521 196.454 75.6223Z" fill="#A67A6F"/>
<path d="M194.996 77.2063C195.029 77.4913 195.088 77.9154 195.46 77.922C195.736 77.8648 195.995 77.7421 196.215 77.5642C196.488 77.4127 196.752 77.2445 197.004 77.0605C197.885 76.3977 198.661 75.2644 198.21 74.1311C198.11 73.889 197.96 73.6703 197.771 73.4886C197.583 73.307 197.358 73.1663 197.112 73.0755C196.867 72.9846 196.605 72.9455 196.343 72.9607C196.081 72.9758 195.826 73.0448 195.592 73.1634C195.46 73.2231 195.592 73.4219 195.705 73.3623C195.78 73.3256 195.857 73.2946 195.937 73.2695C195.165 74.4283 194.832 75.8239 194.996 77.2063Z" fill="#F7A37A"/>
<path d="M189.243 76.8152C189.21 77.0406 189.177 77.2659 189.15 77.478C189.437 77.6497 189.772 77.7241 190.105 77.6901C190.408 77.6468 190.685 77.4963 190.887 77.2659C190.31 77.25 189.747 77.0954 189.243 76.8152Z" fill="white"/>
<path d="M242.456 76.9478C241.369 75.4433 240.275 73.9455 239.182 72.441C239.172 72.4248 239.159 72.4113 239.143 72.402C239.126 72.3927 239.108 72.3878 239.089 72.388C232.19 73.296 227.709 79.2144 221.99 82.5017C218.822 84.3243 215.256 84.8877 211.836 86.0342C209.525 86.8792 207.321 87.9913 205.268 89.348C204.333 89.1261 203.371 89.039 202.412 89.0896C202.392 89.0904 202.372 89.0968 202.355 89.108C202.338 89.1193 202.324 89.1349 202.315 89.1532C202.306 89.1716 202.303 89.192 202.305 89.2123C202.306 89.2326 202.314 89.252 202.326 89.2685C200.298 88.9018 198.256 88.6256 196.202 88.4401C195.042 88.334 193.882 88.2744 192.749 88.1352C191.423 87.7044 189.972 87.5586 188.772 86.9687C186.227 85.7294 185.571 82.6475 184.067 80.4869C182.562 78.3263 180.448 76.6363 178.612 74.7342C177.636 73.758 176.789 72.6598 176.094 71.4668C175.358 70.0172 174.832 68.4709 174.53 66.8739C173.834 63.8716 173.204 60.5578 170.739 58.4634C170.711 58.4548 170.681 58.4548 170.652 58.4634H170.599C168.513 59.6645 166.519 61.0203 164.635 62.5195C164.62 62.5398 164.612 62.5641 164.612 62.5891C164.612 62.6141 164.62 62.6384 164.635 62.6587C165.549 64.0846 166.221 65.6523 166.623 67.298C166.981 69.074 167.16 70.8812 167.16 72.6929C167.181 74.3603 167.476 76.0128 168.035 77.5841C168.686 79.0849 169.434 80.5416 170.275 81.945C171.901 85.022 173.213 88.2549 174.192 91.5948C174.6 93.0465 175.114 94.4664 175.729 95.8431C176.398 97.2311 177.327 98.4777 178.466 99.5148C179.823 100.644 181.115 101.847 182.337 103.12C182.939 103.814 183.482 104.557 183.961 105.34C185.551 109.112 184.789 113.294 184.252 117.197C183.955 119.134 183.813 121.09 183.828 123.049C183.828 124.249 183.954 125.442 184.067 126.635C184.111 126.721 184.132 126.817 184.126 126.913V127.205C184.199 127.98 184.285 128.749 184.352 129.525C184.587 131.661 184.587 133.817 184.352 135.953L184.411 136.967C184.415 136.952 184.415 136.936 184.411 136.921V136.822C185.465 137.372 186.87 137.213 188.017 137.014C190.461 136.634 192.879 136.096 195.254 135.403C197.451 134.643 199.568 133.671 201.577 132.5C202.588 131.921 203.671 131.475 204.798 131.175C206.004 130.903 207.256 130.903 208.463 131.175C210.922 131.678 213.248 132.812 215.8 132.759C215.829 132.756 215.856 132.743 215.876 132.723C215.897 132.702 215.909 132.675 215.912 132.646C216.237 125.356 213.818 118.357 213.328 111.146C213.096 107.746 213.533 104.366 213.414 100.966C213.389 100.221 213.325 99.4777 213.222 98.7393C214.335 98.2091 215.495 97.7783 216.615 97.2614C217.952 96.6358 219.175 95.7913 220.234 94.7628C222.348 92.7281 223.971 90.1897 226.364 88.4533C228.757 86.7169 231.971 85.968 234.317 83.9267C236.902 81.6401 238.512 77.6172 242.317 77.1002C242.338 77.1119 242.362 77.1161 242.385 77.1123C242.409 77.1084 242.43 77.0967 242.447 77.0791C242.463 77.0615 242.472 77.0389 242.474 77.0151C242.476 76.9912 242.469 76.9675 242.456 76.9478Z" fill="#DE913D"/>
<path d="M222.295 106.46C222.295 106.388 222.295 106.308 222.295 106.235C222.202 104.963 222.083 103.692 221.937 102.424C221.725 100.615 221.499 98.6068 220.28 97.162C219.06 95.7171 217.165 95.4123 215.389 95.3725C212.963 95.3129 210.524 95.4322 208.098 95.4719L200.371 95.5978C198.502 95.631 196.122 95.3659 194.585 96.6583C193.458 97.5994 193.186 99.0575 193.259 100.456C193.259 100.608 193.259 100.767 193.259 100.92C193.259 100.966 193.259 101.019 193.259 101.072L193.339 101.636C192.968 105.771 192.68 109.911 192.477 114.056C192.351 116.594 192.245 119.132 192.179 121.677C190.155 124.598 187.325 126.866 184.034 128.206C184.011 128.213 183.991 128.227 183.977 128.246C183.962 128.265 183.954 128.288 183.954 128.312C183.901 129.392 183.855 130.466 183.802 131.539C183.803 131.556 183.808 131.573 183.817 131.588C183.825 131.603 183.837 131.616 183.85 131.626C183.864 131.636 183.88 131.643 183.897 131.646C183.913 131.649 183.931 131.649 183.947 131.645C187.173 130.543 190.009 128.528 192.113 125.846C192.113 126.964 192.113 128.084 192.113 129.206C192.113 131.34 192.351 133.587 193.485 135.45C193.939 136.226 194.581 136.876 195.353 137.34C196.124 137.803 196.999 138.065 197.899 138.101C200.391 138.286 202.909 138.293 205.408 138.379C207.92 138.533 210.44 138.51 212.95 138.313C215.035 138.192 217.07 137.622 218.915 136.643C219.709 136.163 220.393 135.519 220.92 134.755C221.446 133.99 221.805 133.122 221.97 132.209C222.421 130.035 222.328 127.728 222.401 125.515C222.487 122.93 222.56 120.345 222.58 117.761C222.639 114.029 222.573 110.225 222.295 106.46Z" fill="#782C2C"/>
<path d="M201.04 98.8255C200.463 97.2879 199.854 95.7569 199.211 94.2458C198.642 92.8119 197.894 91.4557 196.984 90.2096C196.156 89.1132 195.057 88.25 193.796 87.7044C193.31 87.456 192.771 87.3266 192.225 87.3266C191.974 87.3266 191.728 87.4857 191.695 87.7044C191.689 87.7214 191.689 87.7404 191.695 87.7574C191.696 87.8128 191.709 87.8673 191.735 87.9165C191.739 87.9297 191.746 87.9418 191.755 87.9518C191.765 87.9618 191.776 87.9693 191.789 87.9739C191.802 87.9784 191.816 87.9798 191.83 87.9779C191.843 87.976 191.856 87.9708 191.867 87.9629C194.844 91.0747 196.738 95.0628 197.269 99.3358C197.269 99.3531 197.272 99.3703 197.279 99.3861C197.286 99.4018 197.297 99.4157 197.311 99.4266C197.324 99.4375 197.34 99.4451 197.357 99.4489C197.374 99.4527 197.391 99.4526 197.408 99.4485C198.56 99.1453 199.744 98.9828 200.934 98.9647C200.951 98.9642 200.967 98.9599 200.982 98.9523C200.997 98.9446 201.01 98.9337 201.02 98.9204C201.03 98.907 201.037 98.8916 201.041 98.8752C201.044 98.8588 201.044 98.8418 201.04 98.8255Z" fill="#782C2C"/>
<path d="M211.604 99.866C211.028 98.3284 210.425 96.7974 209.775 95.2864C209.213 93.8514 208.464 92.4966 207.548 91.2568C206.721 90.1579 205.622 89.2924 204.36 88.7449C203.875 88.4994 203.34 88.3701 202.796 88.3671C202.538 88.3671 202.293 88.5262 202.26 88.7449V88.7979C202.264 88.8549 202.277 88.9108 202.299 88.9636C202.305 88.9764 202.313 88.9879 202.323 88.9971C202.334 89.0063 202.346 89.0131 202.359 89.0169C202.373 89.0207 202.387 89.0215 202.4 89.0191C202.414 89.0168 202.427 89.0114 202.438 89.0034C205.41 92.1174 207.302 96.1048 207.833 100.376C207.833 100.449 207.9 100.509 207.979 100.489C209.128 100.186 210.31 100.023 211.498 100.005C211.515 100.005 211.532 100 211.546 99.9928C211.561 99.9851 211.574 99.9742 211.585 99.9609C211.595 99.9475 211.602 99.9321 211.605 99.9157C211.609 99.8993 211.608 99.8823 211.604 99.866Z" fill="#782C2C"/>
<path d="M226.596 128.868C226.596 127.45 226.689 126.032 226.669 124.62C226.716 124.185 226.618 123.746 226.39 123.372C226.163 122.999 225.818 122.71 225.41 122.552C224.276 122.121 222.891 122.367 221.698 122.4C220.121 122.44 218.537 122.4 216.966 122.261C213.387 122.022 209.835 121.598 206.243 121.697C202.716 121.793 199.21 122.266 195.784 123.109C195.77 123.111 195.757 123.116 195.746 123.124C195.734 123.132 195.724 123.142 195.717 123.154C195.71 123.166 195.706 123.18 195.705 123.194C195.704 123.208 195.706 123.222 195.711 123.235C195.424 123.44 195.187 123.707 195.015 124.015C194.843 124.323 194.741 124.666 194.717 125.018C194.524 126.354 194.48 127.708 194.585 129.054C194.62 130.388 194.76 131.718 195.002 133.031C195.082 133.526 195.267 133.999 195.545 134.418C195.823 134.836 196.187 135.19 196.613 135.456C197.739 136.119 199.151 135.854 200.404 135.715C202.034 135.536 203.678 135.43 205.321 135.363C208.635 135.231 211.916 135.277 215.21 135.297C216.82 135.297 218.437 135.297 220.048 135.297C221.477 135.372 222.909 135.207 224.283 134.807C224.782 134.652 225.236 134.378 225.606 134.009C225.975 133.639 226.249 133.185 226.404 132.686C226.613 131.425 226.678 130.144 226.596 128.868Z" fill="#421818"/>
<path d="M204.48 119.934C204.471 119.906 204.451 119.882 204.426 119.868C204.4 119.853 204.37 119.848 204.341 119.855L203.015 120.332V120.206C203.015 120.06 202.777 120.127 202.803 120.266C202.8 120.312 202.8 120.359 202.803 120.405L202.14 120.637C202.001 120.683 202.061 120.895 202.2 120.849L202.81 120.63C203.518 125.746 203.533 130.933 202.856 136.053C202.858 136.082 202.87 136.11 202.891 136.131C202.912 136.151 202.939 136.164 202.969 136.165H204.36C204.39 136.164 204.418 136.151 204.438 136.131C204.459 136.11 204.472 136.082 204.473 136.053C204.712 133.278 204.88 130.497 204.977 127.709C205.07 125.144 205.302 122.42 204.48 119.934Z" fill="#782C2C"/>
<path d="M217.649 119.934C217.646 119.92 217.64 119.907 217.631 119.895C217.623 119.883 217.612 119.873 217.6 119.866C217.587 119.859 217.573 119.854 217.559 119.852C217.545 119.85 217.53 119.851 217.516 119.855L216.191 120.332V120.206C216.191 120.06 215.959 120.127 215.979 120.266V120.405L215.316 120.637C215.183 120.683 215.236 120.895 215.376 120.849L215.985 120.63C216.692 125.746 216.71 130.933 216.038 136.053C216.038 136.112 216.091 136.165 216.144 136.165H217.536C217.566 136.165 217.595 136.154 217.616 136.132C217.637 136.111 217.649 136.083 217.649 136.053C217.896 133.278 218.064 130.497 218.152 127.709C218.239 125.144 218.471 122.42 217.649 119.934Z" fill="#782C2C"/>
<path d="M218.736 107.13C219.954 107.142 221.163 106.917 222.295 106.467C222.295 106.394 222.295 106.315 222.295 106.242C220.147 107.196 217.556 106.905 215.243 106.812C212.146 106.747 209.048 106.862 205.964 107.156C204.453 107.289 202.947 107.441 201.444 107.614L199.363 107.852C199.184 107.852 198.402 108.091 198.263 107.985C198.124 107.879 198.263 107.229 198.263 106.971C198.482 104.638 198.594 101.748 197.09 99.7666C196.8 99.3352 196.352 99.0346 195.843 98.9293C195.334 98.824 194.804 98.9223 194.366 99.2033C193.87 99.5015 193.474 99.9396 193.226 100.462C193.226 100.615 193.226 100.774 193.226 100.926C193.445 100.291 193.876 99.7509 194.446 99.3955C195.89 98.567 196.944 99.7202 197.468 100.979C198.409 103.233 198.131 105.765 197.892 108.124C197.892 108.139 197.895 108.153 197.9 108.167C197.906 108.181 197.914 108.193 197.925 108.204C197.935 108.214 197.948 108.222 197.961 108.228C197.975 108.234 197.99 108.237 198.005 108.237C199.476 108.056 200.952 107.885 202.432 107.726L202.014 111.703C201.888 112.909 201.696 114.056 202.16 115.209C202.406 115.731 202.589 116.28 202.704 116.846C202.727 117.371 202.811 117.891 202.955 118.397C203.366 119.404 204.692 119.497 205.606 119.762C205.63 119.768 205.656 119.766 205.678 119.757C205.701 119.747 205.72 119.73 205.732 119.709C205.898 119.434 205.958 119.109 205.902 118.794C205.846 118.478 205.677 118.193 205.427 117.992C204.95 117.621 204.546 117.409 204.374 116.773C204.261 116.164 204.261 115.54 204.374 114.931C204.405 113.752 204.376 112.573 204.288 111.398C204.319 110.089 204.448 108.784 204.672 107.494C207.064 107.262 209.457 107.09 211.856 107.03C212.943 107.03 214.03 107.03 215.117 107.077C214.945 109.151 214.633 111.259 214.945 113.327C215.048 113.915 215.093 114.512 215.077 115.109C215.034 115.601 215.034 116.096 215.077 116.587C215.182 117.365 215.481 118.103 215.945 118.735C216.39 119.398 218.119 121.18 218.411 119.47C218.557 118.596 217.748 118.092 217.41 117.356C217.099 116.451 216.964 115.495 217.013 114.54C216.964 112.065 217.015 109.595 217.165 107.13C217.682 107.136 218.205 107.143 218.736 107.13Z" fill="#421818"/>
<path d="M236.286 87.1609C235.517 84.9407 234.297 82.727 232.309 81.4015C230.142 79.9832 227.471 80.3146 225.131 79.4132C222.447 78.3528 221.897 75.4765 220.399 73.3225C218.901 71.1685 216.542 69.6906 214.13 68.6832C212.572 68.0204 210.955 67.4902 209.358 66.9401C207.76 66.39 206.11 65.9261 205.202 64.5144C205.123 64.3951 204.93 64.5144 205.003 64.6271C205.445 65.2654 206.04 65.7827 206.733 66.1315C206.656 66.9887 206.638 67.8501 206.68 68.7097C206.719 68.9588 206.822 69.1936 206.979 69.3911C207.136 69.5885 207.341 69.742 207.575 69.8364C209.012 70.5438 210.229 71.63 211.094 72.9779C211.942 74.3564 212.42 75.947 213.295 77.2924C214.07 78.341 214.945 79.3131 215.906 80.1953C216.932 81.0972 217.748 82.2123 218.298 83.4627C218.703 84.5629 218.451 86.1138 219.491 86.8958C219.984 87.2046 220.554 87.3656 221.135 87.3597C221.882 87.3672 222.625 87.4788 223.342 87.6911C224.827 88.228 225.993 89.3348 227.252 90.2891C227.462 90.516 227.716 90.6977 227.999 90.8231C228.282 90.9484 228.587 91.0148 228.896 91.0182C229.743 90.8467 230.563 90.5637 231.335 90.1765C233.082 89.4289 234.733 88.4743 236.253 87.3332C236.272 87.2537 236.306 87.2073 236.286 87.1609Z" fill="#A67A6F"/>
<path d="M192.901 85.8354C192.901 85.8354 203.406 86.1005 206.773 87.2935C209.059 88.8443 208.483 89.9445 208.483 89.9445L199.257 96.8902C199.257 96.8902 193.842 89.5999 192.007 88.1418C190.774 87.1676 189.879 87.5453 189.879 87.5453C189.879 87.5453 189.554 87.2869 190.091 86.5976C190.628 85.9083 192.901 85.8354 192.901 85.8354Z" fill="#9E1B32"/>
<defs>
<linearGradient id="paint0_linear" x1="193.79" y1="161.728" x2="231.454" y2="161.728" gradientUnits="userSpaceOnUse">
<stop stop-color="#A9C8D4"/>
<stop offset="1" stop-color="white"/>
</linearGradient>
</defs>
</svg>
