<svg width="670" height="449" viewBox="0 0 670 449" fill="none" xmlns="http://www.w3.org/2000/svg">
<g clip-path="url(#clip0)">
<path opacity="0.32" d="M167.081 183.951C181.128 138.532 78.665 58.6332 159.255 13.7274C237.21 -30.0365 286.301 46.271 328.551 68.1075C423.279 117.159 576.081 82.9106 628.37 212.911C715.051 428.206 51 562.179 41.5883 318.701C38.5971 241.45 146.985 249.063 167.081 183.951Z" fill="url(#paint0_linear)"/>
<path d="M520.726 388.48C517.829 389.953 514.884 391.407 511.893 392.841C466.355 414.686 412.496 430.978 357.794 440.204L170.221 440.064C143.779 434.321 119.923 425.616 100.174 413.668C74.2112 398.004 55.2803 376.689 46.571 349.185C43.392 338.993 41.6238 328.414 41.3156 317.741C41.0712 312.109 41.5152 306.468 42.6377 300.944C44.7808 290.742 49.6339 281.308 56.6851 273.638C56.6851 273.638 56.6851 273.638 56.6851 273.597C59.0318 271.412 61.3124 269.095 63.6013 266.803C71.3439 259.042 79.2434 251.405 90.3904 248.848C93.1004 248.226 95.8735 247.924 98.6535 247.946C130.723 248.045 148.232 264.925 168.783 264.991C189.333 265.058 195.754 229.088 227.236 229.204C241.193 229.204 250.596 234.169 259.702 239.729C271.113 246.647 282.013 254.441 300.828 254.499C308.074 254.499 314.619 252.455 320.825 249.187C343.515 237.255 361.545 209.362 392.078 209.469C399.911 209.593 407.716 210.454 415.388 212.043C423.568 213.688 431.651 215.787 439.599 218.331C441.929 219.076 444.243 219.846 446.54 220.64C471.767 229.361 494.416 241.028 502.275 247.425C503.159 248.144 504.018 249.592 504.853 251.669C508.579 260.929 511.794 282.699 514.438 308.284C515.611 319.529 516.669 331.518 517.619 343.508C518.834 359.031 519.875 374.554 520.726 388.48Z" fill="url(#paint1_linear)"/>
<path d="M544.822 251.198C538.211 236.899 510.29 197.248 457.794 197.082C405.299 196.917 390.037 254.317 354.555 254.177C319.073 254.036 306.777 239.349 267.726 239.224C228.674 239.1 182.929 276.625 174.03 315.085C165.13 353.545 205.43 375.895 269.436 376.102C333.442 376.308 578.205 333.215 578.205 333.215L544.822 251.198Z" fill="url(#paint2_linear)"/>
<path d="M633.113 228.311C605.804 239.266 590.971 274.565 562.447 274.474C559.644 274.471 556.845 274.277 554.068 273.895C532.749 270.933 522.346 257.346 504.845 251.669C499.681 250.005 494.288 249.168 488.864 249.187C457.406 249.088 451.027 285.049 430.452 284.983C418.33 284.983 407.315 279.075 393.697 274.226C389.336 272.644 384.885 271.321 380.369 270.262C373.796 268.731 367.071 267.948 360.322 267.929C328.253 267.83 321.006 306.819 290.086 306.72C259.165 306.621 250.935 290.916 220.824 290.825C200.298 290.758 187.334 306.256 173.774 316.103C173.41 316.376 173.038 316.641 172.666 316.931C166.692 321.068 160.561 324.096 153.579 324.072C123.302 323.972 118.047 308.4 118.047 308.4L111.941 344.402L100.149 413.643C119.898 425.592 143.721 434.329 170.196 440.039C225.427 452.037 292.218 451.201 357.769 440.179C412.496 430.978 466.355 414.686 511.893 392.841C514.873 391.407 517.818 389.953 520.726 388.48C578.684 359.031 621.652 320.315 633.105 275.748C637.093 260.188 637.095 243.872 633.113 228.311Z" fill="url(#paint3_linear)"/>
<path d="M261.33 315.689C259.359 315.863 257.464 316.538 255.827 317.65C257.587 314.87 259.058 311.031 255.116 311.031C252.117 311.068 249.214 312.091 246.853 313.943C247.993 312.101 248.883 310.114 249.497 308.035C250.183 305.718 251.505 301.548 248.96 299.885C246.688 298.404 243.374 299.372 241.069 300.266C238.246 301.362 235.704 303.078 233.632 305.288C231.713 307.318 230.246 309.732 229.327 312.371C229.061 312.021 228.699 311.756 228.285 311.609C227.871 311.462 227.423 311.44 226.997 311.544C224.65 311.9 222.502 313.844 221.097 315.813C221.237 315.168 221.345 314.517 221.419 313.861C221.474 313.637 221.47 313.404 221.41 313.182C221.349 312.961 221.233 312.759 221.072 312.595C220.246 311.875 218.486 312.388 217.568 312.595C215.508 313.155 213.649 314.288 212.206 315.863C212.384 315.396 212.533 314.918 212.652 314.432C212.9 313.397 213.239 311.949 212.594 310.973C211.412 309.202 208.586 309.839 206.983 310.518C204.718 311.606 202.765 313.252 201.307 315.3C199.512 317.673 197.991 320.241 196.77 322.954C196.538 323.173 196.383 323.462 196.328 323.776C196.273 324.091 196.321 324.415 196.464 324.7C196.977 325.826 198.596 326.355 199.637 326.785C202.963 327.972 206.479 328.533 210.008 328.44C217.544 328.531 225.096 328.44 232.64 328.498C236.136 328.498 239.648 328.498 243.135 328.192C246.754 327.861 250.307 327.075 253.877 326.645C256.628 326.322 259.661 326.463 262.14 324.99C263.321 324.205 264.298 323.15 264.991 321.912C265.695 320.904 266.182 319.76 266.42 318.552C266.85 315.731 263.354 315.524 261.33 315.689Z" fill="url(#paint4_linear)"/>
<path d="M463.487 201.791C462.083 203.884 458.868 206.308 456.877 207.988C452.828 211.372 447.87 213.921 443.185 216.552C438.5 219.184 432.732 221.021 427.758 223.172C425.279 224.256 422.8 225.298 420.247 226.3L418.346 227.044C417.685 227.317 417.007 227.582 416.338 227.872C415.008 228.434 413.686 229.047 412.372 229.676C407.029 232.251 402.032 235.49 397.498 239.315C392.749 243.305 388.753 248.114 385.698 253.515C382.521 259.185 380.681 265.508 380.319 272C379.964 278.57 383.525 293.696 386.103 299.695L404.72 295.955C402.621 291.95 394.408 282.715 393.573 272.24C393.325 267.674 394.226 263.119 396.193 258.992C398.245 254.578 401.072 250.567 404.538 247.151C408.171 243.56 412.241 240.44 416.652 237.867C417.776 237.214 418.908 236.568 420.065 235.964C420.643 235.65 421.23 235.369 421.817 235.062L423.692 234.119C426.188 232.845 428.667 231.532 431.129 230.18C436.087 227.466 440.88 224.57 445.54 221.36C450.289 218.186 454.695 214.525 458.687 210.437C460.731 208.312 462.497 205.935 463.942 203.363C464.157 202.974 464.19 202.486 464.38 202.072L463.487 201.791Z" fill="url(#paint5_linear)"/>
<path d="M463.909 202.469C463.86 202.481 463.809 202.481 463.76 202.469C463.661 202.433 463.578 202.362 463.528 202.269C463.477 202.176 463.463 202.067 463.488 201.964C463.669 200.748 464.909 167.749 465.545 150.431C465.552 150.317 465.601 150.209 465.684 150.131C465.767 150.052 465.877 150.009 465.991 150.009C466.106 150.013 466.215 150.062 466.293 150.146C466.372 150.229 466.415 150.341 466.413 150.456C466.413 150.588 465.942 163.38 465.454 176.107C464.463 201.849 464.372 202.097 464.314 202.246C464.275 202.318 464.216 202.377 464.144 202.417C464.072 202.456 463.991 202.474 463.909 202.469ZM463.504 201.882C463.504 201.882 463.504 201.882 463.504 201.923V201.882Z" fill="#46515C"/>
<path opacity="0.1" d="M261.33 315.689C259.359 315.863 257.464 316.538 255.827 317.65C257.587 314.87 259.058 311.031 255.116 311.031C252.117 311.068 249.214 312.091 246.853 313.943C247.993 312.101 248.883 310.114 249.497 308.035C250.183 305.718 251.505 301.548 248.96 299.885C246.688 298.404 243.374 299.372 241.069 300.266C238.246 301.362 235.704 303.078 233.632 305.288C231.713 307.318 230.246 309.732 229.327 312.371C229.061 312.021 228.699 311.756 228.285 311.609C227.871 311.462 227.423 311.44 226.997 311.544C224.65 311.9 222.502 313.844 221.097 315.813C221.237 315.168 221.345 314.517 221.419 313.861C221.474 313.637 221.47 313.404 221.41 313.182C221.349 312.961 221.233 312.759 221.072 312.595C220.246 311.875 218.486 312.388 217.568 312.595C215.508 313.155 213.649 314.288 212.206 315.863C212.384 315.396 212.533 314.918 212.652 314.432C212.9 313.397 213.239 311.949 212.594 310.973C211.412 309.202 208.586 309.839 206.983 310.518C204.718 311.606 202.765 313.252 201.307 315.3C199.512 317.673 197.991 320.241 196.77 322.954C196.538 323.173 196.383 323.462 196.328 323.776C196.273 324.091 196.321 324.415 196.464 324.7C196.977 325.826 198.596 326.355 199.637 326.785C202.963 327.972 206.479 328.533 210.008 328.44C217.544 328.531 225.096 328.44 232.64 328.498C236.136 328.498 239.648 328.498 243.135 328.192C246.754 327.861 250.307 327.075 253.877 326.645C256.628 326.322 259.661 326.463 262.14 324.99C263.321 324.205 264.298 323.15 264.991 321.912C265.695 320.904 266.182 319.76 266.42 318.552C266.85 315.731 263.354 315.524 261.33 315.689Z" fill="url(#paint6_linear)"/>
<path d="M603.705 269.658C587.377 269.609 573.197 276.832 558.737 285.38C544.921 293.547 530.849 302.922 514.43 308.292C505.638 311.23 496.43 312.722 487.162 312.711C453.531 312.603 429.179 300.249 402.225 292.281C398.258 291.106 394.243 290.03 390.119 289.103C389.293 288.913 388.467 288.731 387.64 288.557L385.161 288.052L383.459 287.738L382.41 287.548C375.346 286.327 368.193 285.698 361.025 285.669C321.8 285.545 312.801 311.246 266.247 319.851C255.047 321.824 243.689 322.75 232.318 322.615C220.874 322.571 209.44 321.908 198.067 320.629C189.589 319.686 181.483 318.461 173.65 317.071L172.7 316.914C126.947 308.706 90.3822 295.16 43.7946 300.812L42.7039 300.961C41.5605 306.477 41.0943 312.112 41.3157 317.741C41.6292 328.415 43.403 338.994 46.5876 349.185C55.2969 376.714 74.2278 398.004 100.166 413.668C119.915 425.616 143.737 434.354 170.212 440.064C225.443 452.062 292.234 451.226 357.786 440.204C412.512 431.003 466.372 414.71 511.91 392.866C514.89 391.432 517.834 389.978 520.743 388.505C578.701 359.056 621.669 320.34 633.122 275.773C622.834 272.083 612.877 269.691 603.705 269.658Z" fill="url(#paint7_linear)"/>
<path d="M340.392 360.372C345.13 357.83 349.366 354.445 352.894 350.384C354.645 348.316 356.171 346.066 357.447 343.674C358.675 341.346 359.682 338.908 360.455 336.392C361.889 331.615 362.76 326.685 363.049 321.705L363.173 320.05C363.223 319.537 363.264 319.024 363.338 318.511C363.462 317.485 363.644 316.467 363.867 315.458C364.314 313.442 364.962 311.477 365.801 309.591C367.554 305.735 370.041 302.259 373.122 299.355C376.324 296.348 379.942 293.818 383.864 291.842C385.889 290.806 387.972 289.888 390.103 289.095C387.899 288.588 385.657 288.132 383.377 287.73L382.228 288.152C377.679 289.859 373.401 292.217 369.528 295.152C365.514 298.198 362.132 301.998 359.57 306.339C357.643 309.666 356.209 313.256 355.315 316.997C355.158 317.626 355.034 318.246 354.91 318.875L354.58 320.654C353.87 324.866 352.675 328.981 351.018 332.917C349.493 336.531 347.243 339.792 344.408 342.499C338.921 347.703 312.925 356.359 293.854 356.301L326.361 366.23C331.211 364.721 335.908 362.76 340.392 360.372Z" fill="url(#paint8_linear)"/>
<path fill-rule="evenodd" clip-rule="evenodd" d="M466.099 150.753C467.751 150.753 472.139 150.05 471.883 152.88C471.8 153.707 470.619 154.733 471.172 155.685C471.726 156.636 474.825 156.339 475.758 156.339C478.915 156.339 481.948 156.471 485.079 156.785C486.187 156.901 489.616 156.876 489.847 158.275C490.128 159.93 484.988 161.328 487.947 162.685C489.302 163.306 491.343 162.95 492.83 162.95C495.331 162.97 497.805 163.47 500.118 164.423C497.003 164.274 494.268 165.987 491.516 167.369C489.203 168.527 485.129 169.412 482.741 168.113C482.267 167.864 481.876 167.481 481.616 167.012C481.357 166.543 481.239 166.008 481.278 165.474C481.278 164.208 481.41 163.819 479.898 163.819C478.039 163.819 476.196 164.489 474.345 164.696C473.164 164.82 471.247 165.184 470.462 164.175C469.677 163.165 470.511 161.287 469.718 160.583C468.925 159.88 466.603 161.08 465.644 161.105L466.099 150.753Z" fill="#E1251B"/>
<g style="mix-blend-mode:multiply">
<path d="M468.983 158.738C469.098 158.043 469.09 157.323 469.206 156.628C469.462 155.048 470.536 154.146 471.751 153.318C471.811 153.182 471.85 153.037 471.866 152.888C472.139 150.058 467.735 150.762 466.082 150.762L465.611 161.096C466.272 161.096 467.57 160.484 468.578 160.368C468.685 159.806 468.892 159.293 468.983 158.738Z" fill="#D71920"/>
</g>
<g style="mix-blend-mode:multiply">
<path d="M470.594 164.332C471.455 164.528 472.327 164.674 473.205 164.77H473.552L474.304 164.663C475.816 164.489 477.328 164.001 478.849 163.835C479.535 163.587 480.196 163.264 480.873 163.008C482.427 162.354 484.096 162.048 485.666 161.452C486.807 160.961 487.912 160.389 488.971 159.739C489.517 159.276 489.93 158.796 489.847 158.291C489.707 157.464 488.376 157.116 487.112 156.968C485.979 157.206 484.872 157.555 483.807 158.01C482.522 158.627 481.28 159.33 480.088 160.112C478.487 161.108 476.832 162.014 475.13 162.826C473.8 163.438 471.825 164.216 470.288 163.976C470.322 164.042 470.363 164.103 470.412 164.158C470.468 164.221 470.529 164.279 470.594 164.332Z" fill="#D71920"/>
</g>
<g style="mix-blend-mode:multiply">
<path d="M492.814 162.95H492.574C492.4 163.058 492.227 163.157 492.062 163.273C491.239 163.88 490.45 164.532 489.698 165.225C487.743 166.825 485.383 167.851 482.881 168.188C485.286 169.371 489.236 168.51 491.5 167.36C494.251 165.978 496.986 164.266 500.102 164.415C497.788 163.465 495.314 162.968 492.814 162.95Z" fill="#D71920"/>
</g>
<path d="M400.547 315.325C399.898 314.437 399.03 313.733 398.027 313.281C397.028 312.898 395.959 312.728 394.89 312.784C393.821 312.839 392.776 313.119 391.821 313.604C389.92 314.595 388.217 315.927 386.797 317.534C380.559 324.08 372.064 337.071 377.981 346.164C378.705 347.341 379.723 348.307 380.934 348.969C382.146 349.631 383.509 349.965 384.889 349.937C387.293 349.78 389.4 348.283 391.193 346.677C394.411 343.789 397.092 340.351 399.109 336.524C401.581 332.049 402.803 326.99 402.646 321.879C402.591 319.537 401.863 317.262 400.547 315.325Z" fill="#009057"/>
<path d="M369.28 383.797H369.214C369.18 383.789 369.149 383.775 369.122 383.755C369.094 383.734 369.071 383.709 369.054 383.679C369.037 383.65 369.026 383.617 369.023 383.583C369.019 383.549 369.022 383.515 369.032 383.482C369.106 383.218 376.469 356.177 381.427 343.277C386.384 330.377 394.846 319.008 394.929 318.892C394.972 318.84 395.033 318.806 395.101 318.796C395.168 318.787 395.236 318.803 395.292 318.842C395.345 318.883 395.38 318.943 395.389 319.01C395.399 319.076 395.382 319.144 395.342 319.198C395.259 319.314 386.913 330.575 381.906 343.467C376.898 356.359 369.561 383.35 369.511 383.623C369.495 383.673 369.465 383.716 369.423 383.747C369.382 383.778 369.332 383.796 369.28 383.797Z" fill="#005A37"/>
<path d="M409.348 347.53C407.873 347.29 406.361 347.438 404.96 347.96C402.122 349.162 399.802 351.335 398.416 354.091C396.416 357.732 394.358 362.995 395.515 367.19C395.69 367.923 396.016 368.611 396.473 369.21C396.93 369.808 397.507 370.304 398.168 370.665C400.415 371.766 403.126 370.665 405.191 369.258C407.694 367.603 409.924 365.568 411.802 363.226C413.424 361.322 414.559 359.049 415.107 356.607C415.379 355.387 415.367 354.122 415.072 352.908C414.777 351.694 414.206 350.564 413.405 349.607C412.323 348.479 410.894 347.748 409.348 347.53Z" fill="#009057"/>
<path d="M391.871 380.992C391.833 381 391.794 381 391.755 380.992C391.724 380.975 391.697 380.952 391.676 380.924C391.655 380.895 391.639 380.863 391.632 380.829C391.624 380.794 391.623 380.758 391.631 380.724C391.638 380.689 391.652 380.656 391.673 380.628C391.714 380.528 396.366 370.599 399.2 365.444C402.035 360.289 407.53 353.645 407.588 353.578C407.631 353.526 407.694 353.493 407.762 353.486C407.831 353.48 407.899 353.501 407.951 353.545C408.004 353.589 408.037 353.652 408.043 353.72C408.049 353.789 408.028 353.857 407.984 353.909C407.926 353.976 402.464 360.579 399.647 365.692C396.829 370.806 392.21 380.744 392.135 380.843C392.114 380.894 392.077 380.936 392.029 380.963C391.981 380.99 391.925 381 391.871 380.992Z" fill="#005A37"/>
<path d="M486.938 384.641C488.145 383.069 489.417 381.174 489.657 379.279C489.897 377.384 488.517 376.797 486.856 377.161C483.237 377.981 479.933 379.835 477.345 382.498C477.783 381.67 478.171 380.843 478.576 379.957C479.204 378.551 480.13 376.879 480.006 375.291C479.766 372.229 475.973 372.734 473.883 373.114C469.17 374.004 464.804 376.21 461.29 379.478C463.13 376.792 464.681 373.918 465.917 370.905C467.305 367.38 468.966 361.737 466.487 358.286C465.248 356.565 463.265 356.433 461.323 356.69C459.195 356.972 457.1 357.463 455.068 358.154C450.943 359.558 447.104 361.691 443.731 364.451C440.89 366.767 438.423 369.507 436.418 372.577C436.208 372.125 435.839 371.767 435.381 371.571C434.923 371.376 434.41 371.357 433.939 371.517C432.068 371.948 430.377 372.948 429.096 374.38C429.105 374.134 429.086 373.886 429.039 373.644C428.978 373.309 428.846 372.992 428.652 372.712C428.458 372.433 428.206 372.199 427.914 372.026C427.622 371.852 427.296 371.744 426.958 371.707C426.62 371.671 426.279 371.708 425.957 371.815C424.13 372.287 422.428 373.867 421.131 375.125C420.151 376.105 419.278 377.187 418.528 378.352C419.354 375.87 419.726 373.23 418.148 371.021C417.834 370.514 417.415 370.08 416.918 369.75C416.422 369.421 415.86 369.202 415.271 369.11C414.683 369.018 414.081 369.055 413.508 369.218C412.935 369.38 412.403 369.665 411.951 370.053C407.398 373.611 405.059 379.833 404.943 385.592L404.241 385.841C403.869 385.973 404.026 386.577 404.406 386.436L404.943 386.246C404.943 386.784 404.943 387.322 405.009 387.843C405.009 387.975 405.224 387.975 405.216 387.843C405.175 387.289 405.166 386.726 405.166 386.188C406.404 385.729 407.701 385.45 409.017 385.361C409.973 385.297 410.927 385.497 411.777 385.94C412.513 386.487 413.207 387.09 413.851 387.744C414.77 388.378 415.844 388.75 416.958 388.819C418.809 389.035 420.685 389.109 422.536 389.291C437.524 390.74 452.28 394.01 466.479 399.03C469.784 400.213 473.18 401.703 476.791 401.372C479.625 401.084 482.332 400.054 484.641 398.385C489.599 394.852 497.73 385.899 492.376 383.036C490.698 382.15 488.632 384.004 486.938 384.641Z" fill="#007141"/>
<path opacity="0.18" d="M486.938 384.641C488.145 383.069 489.417 381.174 489.657 379.279C489.897 377.384 488.517 376.797 486.856 377.161C483.237 377.981 479.933 379.835 477.345 382.498C477.783 381.67 478.171 380.843 478.576 379.957C479.204 378.551 480.13 376.879 480.006 375.291C479.766 372.229 475.973 372.734 473.883 373.114C469.17 374.004 464.804 376.21 461.29 379.478C463.13 376.792 464.681 373.918 465.917 370.905C467.305 367.38 468.966 361.737 466.487 358.286C465.248 356.565 463.265 356.433 461.323 356.69C459.195 356.972 457.1 357.463 455.068 358.154C450.943 359.558 447.104 361.691 443.731 364.451C440.89 366.767 438.423 369.507 436.418 372.577C436.208 372.125 435.839 371.767 435.381 371.571C434.923 371.376 434.41 371.357 433.939 371.517C432.068 371.948 430.377 372.948 429.096 374.38C429.105 374.134 429.086 373.886 429.039 373.644C428.978 373.309 428.846 372.992 428.652 372.712C428.458 372.433 428.206 372.199 427.914 372.026C427.622 371.852 427.296 371.744 426.958 371.707C426.62 371.671 426.279 371.708 425.957 371.815C424.13 372.287 422.428 373.867 421.131 375.125C420.151 376.105 419.278 377.187 418.528 378.352C419.354 375.87 419.726 373.23 418.148 371.021C417.834 370.514 417.415 370.08 416.918 369.75C416.422 369.421 415.86 369.202 415.271 369.11C414.683 369.018 414.081 369.055 413.508 369.218C412.935 369.38 412.403 369.665 411.951 370.053C407.398 373.611 405.059 379.833 404.943 385.592L404.241 385.841C403.869 385.973 404.026 386.577 404.406 386.436L404.943 386.246C404.943 386.784 404.943 387.322 405.009 387.843C405.009 387.975 405.224 387.975 405.216 387.843C405.175 387.289 405.166 386.726 405.166 386.188C406.404 385.729 407.701 385.45 409.017 385.361C409.973 385.297 410.927 385.497 411.777 385.94C412.513 386.487 413.207 387.09 413.851 387.744C414.77 388.378 415.844 388.75 416.958 388.819C418.809 389.035 420.685 389.109 422.536 389.291C437.524 390.74 452.28 394.01 466.479 399.03C469.784 400.213 473.18 401.703 476.791 401.372C479.625 401.084 482.332 400.054 484.641 398.385C489.599 394.852 497.73 385.899 492.376 383.036C490.698 382.15 488.632 384.004 486.938 384.641Z" fill="url(#paint9_linear)"/>
<path d="M511.893 392.841C466.355 414.686 412.496 430.978 357.794 440.204C292.242 451.226 225.451 452.062 170.221 440.063C143.779 434.321 119.923 425.616 100.174 413.668C74.2112 398.004 55.2804 376.689 46.571 349.184C65.5763 347.132 87.6058 345.353 111.908 344.394C132.375 343.566 154.496 343.359 177.881 344.054C218.817 345.201 259.623 349.21 300.002 356.052C311.636 358.055 323.378 360.341 335.227 362.912C340.218 364.015 345.226 365.16 350.25 366.346L356.86 367.91C362.132 369.145 367.316 370.326 372.411 371.451L372.907 371.567C380.069 373.156 387.037 374.642 393.813 376.027L394.333 376.135C398.349 376.962 402.316 377.74 406.208 378.485C438.773 384.765 467.165 388.819 491.872 391.194C498.829 391.873 505.503 392.422 511.893 392.841Z" fill="url(#paint10_linear)"/>
<g style="mix-blend-mode:multiply">
<path d="M73.418 393.428C113.966 393.428 146.836 388.979 146.836 383.491C146.836 378.002 113.966 373.553 73.418 373.553C32.8703 373.553 0 378.002 0 383.491C0 388.979 32.8703 393.428 73.418 393.428Z" fill="#AFEEB1"/>
</g>
<g style="mix-blend-mode:multiply">
<path d="M81.3093 387.355C108.043 387.355 129.715 385.625 129.715 383.491C129.715 381.357 108.043 379.626 81.3093 379.626C54.5757 379.626 32.9038 381.357 32.9038 383.491C32.9038 385.625 54.5757 387.355 81.3093 387.355Z" fill="#AFEEB1"/>
</g>
<g style="mix-blend-mode:multiply">
<path d="M231.145 393.428C271.692 393.428 304.563 388.979 304.563 383.491C304.563 378.002 271.692 373.553 231.145 373.553C190.597 373.553 157.727 378.002 157.727 383.491C157.727 388.979 190.597 393.428 231.145 393.428Z" fill="#AFEEB1"/>
</g>
<g style="mix-blend-mode:multiply">
<path d="M239.036 387.355C265.77 387.355 287.442 385.625 287.442 383.491C287.442 381.357 265.77 379.626 239.036 379.626C212.302 379.626 190.631 381.357 190.631 383.491C190.631 385.625 212.302 387.355 239.036 387.355Z" fill="#AFEEB1"/>
</g>
<path d="M53.3964 383.185C52.3387 383.027 52.8014 381.885 52.9254 380.818L53.1237 379.089L56.5942 377.095L62.4858 375.928C62.7302 375.877 62.981 375.863 63.2295 375.887L65.2953 376.06C65.5379 376.081 65.764 376.192 65.9292 376.371C66.0943 376.55 66.1865 376.785 66.1877 377.028V377.707L61.4612 380.371C61.4612 380.371 57.7015 382.572 57.4701 382.647C57.2387 382.721 53.3964 383.185 53.3964 383.185Z" fill="#614223"/>
<path d="M53.8178 372.411C54.0492 372.717 52.5536 380.727 53.5534 381.728C54.8579 382.212 56.2777 382.289 57.6271 381.952C58.0072 381.728 59.1641 377.566 59.1641 376.871C59.1641 376.176 59.5855 372.179 59.5855 372.179L53.8178 372.411Z" fill="#614223"/>
<path d="M77.3677 181.435C79.45 180.31 81.2514 176.404 81.6067 175.221C81.962 174.038 92.5966 179.607 92.5966 179.607C92.5966 179.607 89.5062 183.264 89.2914 186.061C89.0765 188.858 77.3677 181.435 77.3677 181.435Z" fill="#FFA17A"/>
<path d="M82.8709 184.604C80.0532 183.14 77.3677 181.435 77.3677 181.435C79.45 180.31 81.2514 176.404 81.6067 175.221C81.962 174.038 92.5966 179.607 92.5966 179.607C92.0347 180.293 91.5132 181.011 91.0349 181.758C88.2116 182.383 85.4714 183.339 82.8709 184.604Z" fill="#F27E4E"/>
<path d="M78.3428 160.807C79.039 157.896 80.8121 155.359 83.304 153.707C85.796 152.055 88.8211 151.411 91.7686 151.906C94.7161 152.4 97.3664 153.997 99.1842 156.372C101.002 158.748 101.852 161.726 101.562 164.704C101.512 165.211 101.429 165.714 101.314 166.21C101.314 166.4 101.223 166.582 101.166 166.773C101.488 168.428 102.215 171.307 102.165 172.565C102.165 173.517 100.827 173.806 99.8931 173.881C99.3064 177.629 98.9346 179.739 97.5712 180.5C95.3319 181.725 90.7128 180.98 87.5893 180.269C83.2925 179.325 79.0535 172.11 78.1941 165.49C77.9246 163.935 77.9752 162.342 78.3428 160.807Z" fill="#FFA17A"/>
<path d="M78.3428 160.807C78.9885 158.137 80.5438 155.776 82.7408 154.13C84.9379 152.485 87.6391 151.658 90.3794 151.792C93.1197 151.926 95.7274 153.013 97.7536 154.866C99.7797 156.718 101.097 159.22 101.48 161.941C100.306 163.595 98.0256 164.481 95.8855 165.308C95.0647 165.622 94.2619 165.981 93.4809 166.384C91.5143 166.674 90.2831 165.25 88.5726 164.588C87.4707 164.162 86.2892 163.981 85.1103 164.059C83.1272 164.2 81.2597 165.184 80.6152 167.162C79.5823 170.314 81.9704 172.813 82.2182 175.817C82.2227 175.88 82.2227 175.944 82.2182 176.007C80.0825 172.861 78.705 169.26 78.1941 165.49C77.9246 163.935 77.9752 162.342 78.3428 160.807Z" fill="#F27E4E"/>
<path d="M59.2384 281.888H82.2925C79.8136 293.745 75.1945 314.432 72.071 323.021C70.154 337.683 59.5854 372.668 59.5854 372.668L53.9335 372.784C53.9335 372.784 53.3468 349.458 58.6682 326.264C59.792 310.981 58.9905 296.095 59.2384 281.888Z" fill="#E8E3CC"/>
<path d="M79.136 266.117H103.339C103.801 288.011 104.454 319.76 104.454 324.46C104.454 331.734 101.149 372.668 101.149 372.668L95.5383 373.727C95.5383 373.727 89.8863 340.041 90.5061 321.961C85.1669 303.697 81.3636 285.017 79.136 266.117Z" fill="#E8E3CC"/>
<path d="M63.7087 189.602C57.0982 196.222 51.1818 204.794 46.918 211.48C45.1733 214.214 43.5976 217.052 42.1998 219.978C41.6361 221.151 41.455 222.471 41.6818 223.753C41.9087 225.034 42.5322 226.212 43.464 227.119C46.133 229.692 51.0744 233.606 59.9242 238.414C75.0044 246.605 69.0136 236.577 69.0136 236.577C69.0136 236.577 58.1889 227.193 52.0577 222.585C55.0383 219.638 57.8338 216.51 60.4282 213.218C63.1468 209.635 69.4516 200.98 69.4516 200.98L63.7087 189.602Z" fill="#FFA17A"/>
<path d="M61.7255 256.75C61.7999 249.03 67.5097 244.421 67.8403 232.655C68.146 223.064 60.6596 198.506 60.8414 193.127C63.5682 187.079 68.6666 184.927 78.5493 184.025C90.6135 182.983 98.1329 187.037 103.107 191.472C114.841 201.873 101.24 215.832 98.8849 231.413C97.0009 243.916 103.289 255.186 103.289 255.186C103.289 255.186 90.6631 259.083 79.6813 259.489C70.815 259.82 61.7255 256.75 61.7255 256.75Z" fill="#213D5C"/>
<path d="M70.9556 184.811C73.4369 184.24 75.9596 183.867 78.4998 183.694C84.441 183.181 88.5065 183.545 93.3735 185.349C90.3491 187.923 88.7213 191.034 82.243 191.969C76.5249 192.747 72.1207 187.542 70.9556 184.811Z" fill="#FFA17A"/>
<path d="M82.3175 287.705L74.3684 315.838C71.9227 316.346 69.429 316.584 66.9315 316.55C64.292 316.666 61.6536 316.296 59.1477 315.458C59.1477 315.458 56.7761 284.403 57.7842 270.61C58.2786 265.39 59.5892 260.28 61.6679 255.467C61.6679 255.467 73.1454 257.61 78.7561 257.735C84.3668 257.859 83.9949 277.511 83.9949 277.511L82.3175 287.705Z" fill="#E8E3CC"/>
<path d="M81.3672 268.756C82.1623 268.79 82.9564 268.669 83.7057 268.4C83.9937 271.307 84.1233 274.226 84.094 277.147L82.4414 287.324L79.0122 299.479C77.6075 301.465 76.1779 303.22 76.5333 301.59C80.1525 286.439 76.9381 271.892 81.3672 268.756Z" fill="#D1CDB9"/>
<path d="M103.231 255.012C109.792 266.754 104.339 316.244 104.339 316.244C101.865 316.873 99.322 317.19 96.7696 317.187C90.6301 317.361 88.9609 316.302 88.9609 316.302C88.9609 316.302 85.4739 303.824 82.9453 293.133C81.6646 287.738 78.5576 281.35 78.5576 277.775C78.5576 269.691 78.7725 257.776 78.7725 257.776C78.7725 257.776 85.4821 257.644 91.6216 256.907C97.7612 256.171 103.231 255.012 103.231 255.012Z" fill="#E8E3CC"/>
<path d="M149.588 230.9L146.175 232.415L143.481 233.912L148.604 234.897L150.521 234.508L149.588 230.9Z" fill="#FFA17A"/>
<path d="M150.959 385.303C150.716 385.304 150.474 385.257 150.248 385.164C150.023 385.072 149.818 384.935 149.645 384.763C149.472 384.591 149.335 384.386 149.242 384.161C149.148 383.935 149.1 383.694 149.1 383.449V207.864C149.102 207.372 149.299 206.9 149.648 206.553C149.996 206.206 150.468 206.011 150.959 206.011C151.45 206.013 151.919 206.209 152.266 206.556C152.612 206.903 152.808 207.373 152.81 207.864V383.449C152.81 383.941 152.615 384.412 152.268 384.76C151.921 385.108 151.45 385.303 150.959 385.303Z" fill="#5A2F18"/>
<path d="M143.473 233.399C139.854 232.365 118.46 223.47 116.973 222.51C115.486 221.55 111.685 203.172 106.834 194.774C103.041 188.196 97.1828 191.588 95.8938 194.476C95.0096 196.437 95.3567 199.441 95.7203 200.64C99.0751 211.397 105.983 228.915 110.239 231.91C114.618 234.988 137.11 238.579 143.506 239.845L143.473 233.399Z" fill="#FFA17A"/>
<path d="M95.8938 194.451C97.1829 191.563 103.041 188.171 106.834 194.749C107.546 196.003 108.181 197.299 108.735 198.63C108.735 198.63 108.735 198.679 108.735 198.704C109.66 202.13 108.528 204.281 106.694 207.053C105.499 208.634 104.675 210.464 104.281 212.407C103.727 216.213 105.826 222.336 107.528 225.58C111.007 232.199 115.634 233.962 115.75 234.069C113.815 233.601 111.955 232.866 110.222 231.885C105.967 228.89 99.0586 211.356 95.7038 200.616C95.3567 199.416 95.0262 196.437 95.8938 194.451Z" fill="#F27E4E"/>
<path d="M110.726 203.073C109.727 204.993 108.289 206.649 106.528 207.905C104.313 209.516 101.82 210.702 99.1742 211.406C99.1742 211.406 95.4392 202.726 94.9765 200.243C94.5138 197.761 95.2327 187.17 99.232 188.527C108.445 191.654 110.726 203.073 110.726 203.073Z" fill="#213D5C"/>
<path d="M143.473 233.416L146.588 232.315H146.638L151.009 232.961C151.705 233.063 152.358 233.362 152.89 233.822C153.423 234.282 153.814 234.885 154.017 235.559C154.207 236.221 154.207 236.924 154.017 237.586V237.669C153.827 238.374 153.435 239.007 152.888 239.49C152.341 239.972 151.665 240.283 150.943 240.383L147.348 240.88C146.631 240.979 145.9 240.92 145.208 240.706L144.845 240.598C143.956 240.33 143.199 239.74 142.721 238.943L141.713 237.23C141.701 237.198 141.701 237.163 141.713 237.131L143.415 233.499C143.423 233.465 143.444 233.435 143.473 233.416Z" fill="#FFA17A"/>
<path d="M115.312 384.765C115.436 384.769 115.559 384.744 115.672 384.691C115.784 384.637 115.882 384.558 115.957 384.459C116.032 384.36 116.083 384.245 116.104 384.122C116.126 384 116.118 383.874 116.081 383.755C115.783 382.928 114.899 381.885 112.42 381.439C99.7609 379.147 101.909 374.298 99.9509 368.837C99.8963 368.685 99.7963 368.555 99.6646 368.463C99.5329 368.371 99.376 368.322 99.2155 368.324H95.8359C95.7205 368.325 95.6067 368.351 95.5029 368.402C95.3991 368.453 95.3079 368.526 95.2359 368.616C95.1638 368.706 95.1128 368.812 95.0865 368.924C95.0603 369.037 95.0594 369.154 95.084 369.267C95.555 371.484 96.687 377.128 96.5217 379.759C96.4018 381.05 96.4435 382.351 96.6457 383.631C96.6825 383.801 96.7749 383.953 96.9081 384.064C97.0414 384.175 97.2079 384.238 97.3811 384.244L115.312 384.765Z" fill="#614223"/>
<path d="M95.026 373.52C95.026 373.52 93.5386 371.038 94.0014 369.242C94.4641 367.447 101.719 367.265 102.43 368.224C103.14 369.184 102.355 373.421 101.215 373.437L95.026 373.52Z" fill="#E8E3CC"/>
<path d="M64.122 325.13H64.0229L60.6267 324.584C60.5497 324.571 60.4759 324.543 60.4097 324.501C60.3435 324.46 60.2862 324.405 60.2409 324.342C60.1956 324.278 60.1633 324.206 60.1459 324.13C60.1284 324.053 60.1262 323.974 60.1392 323.897C60.1502 323.819 60.1768 323.744 60.2176 323.676C60.2584 323.608 60.3124 323.549 60.3765 323.503C60.4405 323.457 60.5133 323.424 60.5904 323.406C60.6674 323.389 60.7473 323.387 60.825 323.401L64.2129 323.947C64.2907 323.959 64.3653 323.986 64.4325 324.028C64.4996 324.069 64.5579 324.123 64.604 324.187C64.6502 324.25 64.6832 324.323 64.7011 324.4C64.7191 324.476 64.7217 324.556 64.7087 324.633C64.6869 324.773 64.6155 324.9 64.5078 324.991C64.4001 325.082 64.2631 325.131 64.122 325.13Z" fill="#D1CDB9"/>
<path d="M95.8524 321.125H95.7533L92.448 322.01C92.2985 322.043 92.1424 322.016 92.0119 321.936C91.8814 321.856 91.7867 321.729 91.7473 321.581C91.708 321.433 91.7271 321.276 91.8006 321.142C91.8742 321.008 91.9965 320.907 92.1423 320.861L95.4475 319.967C95.5898 319.938 95.738 319.96 95.8649 320.031C95.9917 320.102 96.0887 320.217 96.1379 320.354C96.1872 320.491 96.1854 320.641 96.133 320.776C96.0805 320.912 95.9809 321.024 95.8524 321.092V321.125Z" fill="#D1CDB9"/>
<path d="M95.8028 277.643C95.8728 277.642 95.9419 277.627 96.0058 277.599C96.0698 277.57 96.1272 277.529 96.1747 277.478C97.982 275.477 99.3749 273.136 100.273 270.593C101.171 268.049 101.556 265.352 101.405 262.658C101.397 262.523 101.336 262.396 101.236 262.305C101.135 262.214 101.003 262.165 100.868 262.17C100.801 262.174 100.735 262.191 100.674 262.221C100.614 262.251 100.56 262.292 100.515 262.343C100.471 262.394 100.437 262.453 100.415 262.517C100.393 262.581 100.384 262.648 100.389 262.716C100.53 265.272 100.165 267.831 99.3137 270.245C98.4628 272.66 97.1432 274.881 95.431 276.782C95.3701 276.856 95.3313 276.945 95.3188 277.039C95.3063 277.134 95.3208 277.23 95.3606 277.316C95.4003 277.403 95.4637 277.476 95.5435 277.528C95.6232 277.58 95.716 277.609 95.8111 277.61L95.8028 277.643Z" fill="#D1CDB9"/>
<path d="M53.6359 372.494C53.6359 372.494 52.0576 369.871 52.5369 367.91C53.0162 365.949 60.8 365.792 61.5602 366.818C62.3204 367.844 61.4776 372.386 60.2629 372.403L53.6359 372.494Z" fill="#E8E3CC"/>
<path d="M45.2985 230.23C45.2985 234.194 45.439 238.157 45.5712 242.112C45.6786 245.497 45.5712 249.03 46.2323 252.365C46.4857 253.762 47.034 255.09 47.8405 256.258C48.647 257.427 49.6932 258.41 50.9092 259.141C53.6278 260.796 56.8752 261.384 59.9987 261.706C63.8479 262.006 67.7132 262.039 71.5671 261.806C75.3846 261.673 79.2353 261.665 83.0446 261.384C84.4257 261.315 85.7674 260.9 86.9469 260.177C88.1264 259.454 89.1058 258.447 89.7955 257.246C91.5225 254.392 91.8365 250.95 91.8944 247.681C91.8944 245.968 91.8944 244.255 91.8944 242.543C95.1119 246.648 99.4487 249.732 104.38 251.421C104.406 251.427 104.432 251.428 104.458 251.422C104.484 251.417 104.509 251.406 104.53 251.39C104.551 251.375 104.569 251.354 104.581 251.331C104.594 251.308 104.601 251.282 104.603 251.256C104.52 249.601 104.446 247.946 104.372 246.291C104.369 246.254 104.356 246.219 104.334 246.19C104.312 246.161 104.282 246.138 104.248 246.126C99.2193 244.069 94.8939 240.597 91.7952 236.13C91.6961 232.233 91.5308 228.344 91.3407 224.463C91.0378 218.119 90.5971 211.775 90.0187 205.431C90.0682 205.15 90.1095 204.861 90.1426 204.604V204.364C90.1426 204.132 90.1839 203.901 90.1922 203.661C90.2913 201.518 89.8699 199.284 88.1512 197.869C85.7962 195.899 82.1604 196.296 79.3096 196.214L67.5016 196.106C63.7914 196.048 60.0648 195.866 56.3546 195.957C53.636 196.015 50.7274 196.495 48.8765 198.696C47.0255 200.897 46.6702 203.983 46.348 206.747C46.1249 208.692 45.9348 210.636 45.7943 212.581C45.7943 212.697 45.7943 212.812 45.7943 212.928C45.3481 218.662 45.2407 224.455 45.2985 230.23Z" fill="#782C2C"/>
<path d="M78.0619 200.773C79.8565 201.06 81.6099 201.563 83.2842 202.271C83.3079 202.281 83.3338 202.286 83.3597 202.285C83.3856 202.283 83.4108 202.276 83.4334 202.263C83.4559 202.25 83.4751 202.232 83.4893 202.21C83.5036 202.189 83.5126 202.164 83.5156 202.138C85.2553 195.78 88.9927 190.151 94.175 186.086C94.1896 186.1 94.207 186.112 94.2261 186.12C94.2453 186.128 94.2658 186.132 94.2866 186.132C94.3073 186.132 94.3278 186.128 94.347 186.12C94.3661 186.112 94.3835 186.1 94.3981 186.086C94.4407 186.011 94.4713 185.93 94.489 185.846C94.4931 185.818 94.4931 185.79 94.489 185.763C94.489 185.424 94.142 185.167 93.7701 185.076C92.9377 184.957 92.0891 185.034 91.2912 185.3C89.2647 185.854 87.4168 186.926 85.9284 188.411C84.2716 190.09 82.841 191.979 81.6729 194.029C80.359 196.18 79.1113 198.365 77.9049 200.566C77.9001 200.59 77.9006 200.615 77.9061 200.639C77.9116 200.663 77.9221 200.685 77.937 200.705C77.9518 200.724 77.9706 200.74 77.9921 200.752C78.0137 200.764 78.0374 200.771 78.0619 200.773Z" fill="#782C2C"/>
<path d="M59.321 202.577C61.1401 202.602 62.9492 202.849 64.7086 203.313C64.7338 203.319 64.7602 203.32 64.7857 203.314C64.8111 203.309 64.8351 203.298 64.8557 203.282C64.8763 203.266 64.8931 203.246 64.9049 203.223C64.9166 203.199 64.9229 203.174 64.9234 203.148C65.746 196.618 68.6428 190.526 73.1865 185.771C73.2035 185.784 73.2233 185.793 73.2443 185.796C73.2652 185.8 73.2868 185.798 73.3071 185.792C73.3274 185.785 73.3458 185.774 73.3608 185.759C73.3757 185.744 73.3868 185.725 73.3931 185.705C73.4308 185.628 73.4506 185.543 73.451 185.457C73.4592 185.43 73.4592 185.401 73.451 185.374C73.4014 185.043 73.0295 184.836 72.6246 184.795C71.7969 184.796 70.9803 184.985 70.2366 185.349C68.3101 186.186 66.6332 187.509 65.3696 189.188C63.978 191.089 62.8365 193.161 61.9735 195.353C60.9819 197.662 60.0564 200.003 59.1723 202.361C59.1662 202.386 59.1654 202.411 59.1698 202.435C59.1742 202.459 59.1838 202.482 59.1978 202.503C59.2119 202.523 59.2302 202.54 59.2515 202.553C59.2727 202.566 59.2964 202.574 59.321 202.577Z" fill="#782C2C"/>
<path d="M39.4895 252.985C39.7288 253.749 40.1491 254.444 40.7145 255.01C41.28 255.576 41.9739 255.997 42.7369 256.237C44.7531 256.998 47.0586 256.948 49.207 256.99C51.6859 257.031 54.1649 257.031 56.6438 256.99C61.6843 256.99 66.7248 256.891 71.7571 257.089C74.236 257.197 76.7811 257.362 79.2765 257.635C81.1853 257.842 83.3503 258.214 85.0607 257.238C85.715 256.832 86.2747 256.29 86.7024 255.649C87.13 255.009 87.4155 254.283 87.5397 253.523C87.9039 251.523 88.1166 249.498 88.1759 247.466C88.3345 245.404 88.2652 243.331 87.9693 241.285C87.9321 240.746 87.7765 240.221 87.5137 239.749C87.2509 239.277 86.8873 238.869 86.4489 238.554C86.4584 238.535 86.4631 238.514 86.4624 238.492C86.4618 238.47 86.456 238.449 86.4454 238.431C86.4348 238.412 86.4198 238.396 86.4017 238.384C86.3836 238.373 86.3629 238.366 86.3415 238.364C81.1047 237.071 75.744 236.347 70.3523 236.204C64.8574 236.064 59.4202 236.692 53.9583 237.032C51.5537 237.197 49.1326 237.296 46.7198 237.239C44.8936 237.189 42.7782 236.817 41.043 237.479C39.5308 238.049 39.1342 239.315 39.1177 240.639C39.1177 242.807 39.192 244.975 39.2334 247.143C39.2334 249.063 39.0185 251.14 39.4895 252.985Z" fill="#421818"/>
<path d="M72.2446 245.439C72.3823 249.697 72.6385 253.956 73.0131 258.214C73.0151 258.258 73.0331 258.299 73.0637 258.329C73.0943 258.36 73.1351 258.378 73.1783 258.38H75.3102C75.3556 258.378 75.3986 258.359 75.4307 258.327C75.4628 258.295 75.4817 258.252 75.4837 258.206C74.4507 250.367 74.4757 242.424 75.5581 234.591L76.4918 234.93C76.6984 234.996 76.7893 234.665 76.5827 234.599L75.5994 234.251C75.5994 234.177 75.5994 234.103 75.5994 234.028C75.5994 233.813 75.3019 233.722 75.2689 233.937V234.136L73.2114 233.407C73.1902 233.401 73.168 233.399 73.1461 233.402C73.1241 233.404 73.1029 233.411 73.0837 233.422C73.0644 233.433 73.0475 233.447 73.034 233.465C73.0204 233.482 73.0105 233.502 73.0048 233.523C71.7571 237.33 72.1124 241.5 72.2446 245.439Z" fill="#782C2C"/>
<path d="M52.1074 245.439C52.2451 249.697 52.5012 253.956 52.8758 258.214C52.8779 258.258 52.8959 258.299 52.9265 258.329C52.957 258.36 52.9979 258.378 53.0411 258.38H55.173C55.2184 258.378 55.2613 258.359 55.2935 258.327C55.3256 258.295 55.3445 258.252 55.3465 258.206C54.3135 250.367 54.3385 242.424 55.4209 234.591L56.3546 234.93C56.5612 234.996 56.6521 234.665 56.4455 234.599L55.4622 234.251C55.4622 234.177 55.4622 234.103 55.4622 234.028C55.4622 233.813 55.1647 233.722 55.1317 233.937V234.136L53.0742 233.407C53.053 233.401 53.0308 233.399 53.0089 233.402C52.9869 233.404 52.9657 233.411 52.9465 233.422C52.9272 233.433 52.9103 233.447 52.8968 233.465C52.8832 233.482 52.8733 233.502 52.8676 233.523C51.6198 237.33 51.9752 241.5 52.1074 245.439Z" fill="#782C2C"/>
<path d="M53.6277 213.921C53.8508 217.694 53.9334 221.484 53.8591 225.265C53.9329 226.73 53.7282 228.196 53.2559 229.585C52.7849 230.702 51.5041 231.48 51.7272 232.82C52.1651 235.435 54.8093 232.679 55.4952 231.686C56.1799 230.704 56.6087 229.567 56.7429 228.377C56.8007 227.622 56.8007 226.864 56.7429 226.109C56.7181 225.198 56.7846 224.286 56.9412 223.387C57.4288 220.218 56.9412 216.991 56.6851 213.814C58.3377 213.756 59.9903 213.706 61.6429 213.747C65.3118 213.83 68.9724 214.095 72.6164 214.451C72.9633 216.427 73.1622 218.427 73.2113 220.433C73.0765 222.231 73.0323 224.034 73.0791 225.836C73.2525 226.772 73.2525 227.731 73.0791 228.666C72.8147 229.634 72.195 229.957 71.4265 230.528C71.0493 230.846 70.8033 231.293 70.7362 231.782C70.669 232.271 70.7854 232.768 71.0629 233.176C71.0831 233.208 71.1135 233.233 71.1494 233.247C71.1853 233.26 71.2246 233.262 71.2612 233.25C72.6577 232.845 74.6822 232.704 75.3102 231.165C75.5396 230.391 75.6674 229.59 75.6903 228.782C75.8685 227.925 76.1458 227.092 76.5166 226.3C77.219 224.529 76.9215 222.775 76.7314 220.93C76.5249 218.902 76.31 216.867 76.0952 214.84C78.3593 215.088 80.6151 215.353 82.871 215.617C82.9536 215.617 83.0527 215.535 83.0362 215.452C82.6561 211.836 82.2512 207.963 83.689 204.513C84.5153 202.585 86.1018 200.814 88.3081 202.089C89.1605 202.625 89.8092 203.432 90.1508 204.381C90.1508 204.149 90.1921 203.917 90.2004 203.677C89.8179 202.877 89.2087 202.206 88.4486 201.749C87.7848 201.332 86.9867 201.186 86.2183 201.34C85.45 201.494 84.7696 201.936 84.317 202.577C82.0199 205.614 82.1934 210.024 82.5239 213.615C82.5239 214.004 82.8131 214.955 82.5239 215.162C82.2347 215.369 81.1192 214.997 80.8713 214.964L77.6734 214.649C75.3763 214.393 73.0709 214.153 70.7737 213.946C66.0636 213.503 61.3322 213.329 56.6024 213.425C53.0741 213.524 49.1078 214.012 45.8604 212.548C45.8604 212.663 45.8604 212.779 45.8604 212.895C47.5953 213.585 49.4471 213.934 51.314 213.921C52.0577 213.938 52.8289 213.938 53.6277 213.921Z" fill="#421818"/>
<path d="M103.388 151.482C102.347 148.677 99.6865 144.705 89.9277 144.101C81.5241 143.588 77.1033 146.227 72.1289 149.016C67.7495 151.498 62.6594 150.935 57.528 149.463C52.223 147.948 42.2246 147.377 35.1762 150.919C27.7394 154.667 23.0046 157.423 18.5673 159.028C11.1883 161.684 9.60177 170.364 14.1052 176.967C18.716 183.719 28.9127 184.993 37.4733 180.194C44.5383 176.239 53.0576 178.655 59.7838 181.849C70.8481 187.103 80.9126 186.938 86.6638 178.341C87.9941 176.347 88.7626 171.903 87.1265 170.629C85.3086 169.206 84.7467 166.707 86.4159 165.201C88.6139 163.215 90.878 166.599 91.5886 165.871C92.7289 164.721 93.6048 163.438 98.5131 162.644C103.711 161.808 104.71 155.023 103.388 151.482Z" fill="#32373D"/>
<path d="M99.637 167.484C99.637 166.831 99.29 166.301 98.8107 166.293C98.3314 166.285 97.9844 166.806 97.9844 167.459C97.9844 168.113 98.3232 168.634 98.8107 168.642C99.2982 168.65 99.6287 168.129 99.637 167.484Z" fill="#32373D"/>
<path d="M98.9594 177.14C99.0338 177.14 99.106 177.115 99.1655 177.071C99.225 177.026 99.2686 176.963 99.2899 176.892C99.304 176.849 99.3093 176.804 99.3057 176.759C99.302 176.714 99.2894 176.67 99.2687 176.63C99.2479 176.59 99.2193 176.555 99.1847 176.526C99.15 176.497 99.1099 176.475 99.0668 176.462C98.6439 176.31 98.2853 176.018 98.0504 175.635C98.0295 175.594 98.0006 175.558 97.9655 175.528C97.9305 175.498 97.8898 175.476 97.846 175.462C97.8022 175.448 97.7561 175.443 97.7103 175.447C97.6645 175.451 97.6201 175.465 97.5794 175.486C97.5392 175.508 97.5037 175.537 97.4749 175.573C97.446 175.608 97.4245 175.649 97.4114 175.693C97.3984 175.736 97.3941 175.782 97.3988 175.828C97.4036 175.873 97.4172 175.917 97.439 175.957C97.7577 176.501 98.2629 176.909 98.8602 177.107L98.9594 177.14Z" fill="#F27E4E"/>
<path d="M99.3809 164.489C99.3809 164.489 97.4803 165.606 97.0589 164.911C96.6375 164.216 100.125 163.381 99.3809 164.489Z" fill="#32373D"/>
<path d="M89.498 172.399C89.8165 172.41 90.128 172.304 90.3739 172.101C90.5024 171.981 90.6058 171.837 90.6781 171.676C90.7504 171.516 90.7903 171.343 90.7953 171.167C90.7953 171.074 90.7588 170.986 90.6937 170.921C90.6286 170.856 90.5403 170.819 90.4483 170.819C90.4031 170.818 90.3582 170.826 90.3161 170.843C90.274 170.859 90.2357 170.884 90.2034 170.916C90.171 170.947 90.1453 170.985 90.1278 171.027C90.1102 171.068 90.1012 171.113 90.1012 171.158C90.0907 171.317 90.0232 171.467 89.9112 171.58C89.8282 171.639 89.7339 171.679 89.6342 171.699C89.5346 171.719 89.4319 171.718 89.3328 171.696C89.2407 171.686 89.1485 171.713 89.0765 171.771C89.0044 171.83 88.9584 171.914 88.9485 172.006C88.9387 172.098 88.9658 172.191 89.0239 172.263C89.082 172.335 89.1663 172.381 89.2584 172.391L89.498 172.399Z" fill="#F27E4E"/>
<path d="M87.4487 168.162C87.534 168.163 87.6166 168.132 87.6806 168.075C87.7446 168.019 87.7856 167.941 87.7958 167.856C87.8156 167.531 87.9088 167.214 88.0684 166.93C88.1353 166.811 88.2279 166.708 88.3394 166.629C88.4509 166.551 88.5785 166.498 88.713 166.475C88.8209 166.464 88.9295 166.488 89.0231 166.543C89.1166 166.598 89.1903 166.681 89.2335 166.781C89.2458 166.825 89.2668 166.866 89.2953 166.901C89.3237 166.937 89.3591 166.966 89.3992 166.988C89.4393 167.01 89.4834 167.023 89.5287 167.027C89.5741 167.031 89.6198 167.026 89.6632 167.012C89.7072 167 89.7484 166.979 89.7842 166.951C89.8201 166.922 89.8501 166.887 89.8723 166.847C89.8946 166.807 89.9088 166.763 89.914 166.718C89.9192 166.672 89.9155 166.626 89.9029 166.582C89.8206 166.321 89.6507 166.096 89.4219 165.945C89.1931 165.794 88.9193 165.727 88.6469 165.755C88.4069 165.786 88.1772 165.871 87.9753 166.005C87.7733 166.138 87.6045 166.316 87.4818 166.524C87.265 166.899 87.1351 167.317 87.1017 167.749C87.0924 167.839 87.1192 167.93 87.1765 168.002C87.2337 168.073 87.3167 168.119 87.4074 168.129L87.4487 168.162Z" fill="#F27E4E"/>
<path d="M247.745 383.673C247.745 383.673 249.538 380.785 237.887 379.271C226.84 377.839 231.632 372.651 229.467 366.735L222.179 366.842C223.056 370.925 223.14 375.139 222.427 379.254C221.692 382.738 222.749 384.012 222.749 384.012L247.745 383.673Z" fill="#82483D"/>
<path d="M178.219 379.8L177.575 382.903C177.54 383.065 177.54 383.232 177.575 383.394C177.609 383.556 177.677 383.709 177.775 383.842C177.872 383.976 177.997 384.087 178.141 384.169C178.284 384.251 178.443 384.302 178.608 384.318L183.508 384.823C183.789 384.851 184.074 384.82 184.343 384.731C184.612 384.643 184.859 384.5 185.069 384.31L186.193 383.3C186.819 382.734 187.303 382.028 187.606 381.24L192.919 378.245V377.657C192.92 377.334 192.799 377.021 192.58 376.784C192.361 376.546 192.06 376.4 191.738 376.375L190.242 376.25C189.532 376.185 188.817 376.225 188.119 376.366L182.119 377.558L178.219 379.8Z" fill="#82483D"/>
<path d="M213.792 268.574C213.792 269.327 202.43 305.106 198.092 318.006C196.349 331.328 187.705 368.241 185.375 378.087C185.214 378.765 184.817 379.363 184.255 379.774C183.693 380.185 183.003 380.382 182.31 380.33C181.566 380.272 180.756 380.222 180.012 380.181C179.773 380.163 179.539 380.098 179.326 379.988C179.112 379.878 178.922 379.727 178.768 379.542C178.614 379.358 178.498 379.144 178.428 378.914C178.358 378.684 178.335 378.443 178.36 378.203C181.285 348.829 175.154 336.905 182.855 318.494C181.789 294.358 179.31 265.951 187.772 240.788C201.331 239.556 213.792 239.721 213.792 239.721V268.574Z" fill="#182149"/>
<path d="M204.414 272.703C203.966 275.349 203.669 278.017 203.521 280.696C203.405 284.312 203.521 288.251 202.827 291.817C202.133 295.384 201.083 298.437 200.183 301.904C199.026 306.43 198.902 311.196 198.91 315.664C202.653 304.279 209.768 281.937 212.594 272.703H204.414Z" fill="#0C1436"/>
<path d="M228.839 377.409C229.285 377.376 229.702 377.176 230.008 376.85C230.314 376.524 230.487 376.094 230.492 375.646C230.855 366.884 232.235 328.084 232.235 321.275C232.235 314.465 230.922 254.036 230.649 241.277C230.642 240.981 230.572 240.69 230.443 240.423C230.315 240.157 230.131 239.921 229.904 239.731C229.677 239.541 229.413 239.403 229.128 239.324C228.843 239.245 228.545 239.228 228.253 239.274L204.215 242.981C203.728 243.056 203.284 243.302 202.961 243.675C202.639 244.048 202.459 244.523 202.455 245.017C202.389 253.457 202.901 290.526 215.965 318.718C216.136 319.099 216.191 319.522 216.122 319.934C212.363 341.837 221.022 345.295 222.617 376.797C222.675 378.046 224.534 378.17 225.765 377.955L228.839 377.409Z" fill="#182149"/>
<path d="M186.268 185.043C180.39 193.456 175.322 202.408 171.13 211.778C167.742 219.415 168.568 222.071 168.568 222.071C168.568 222.071 174.575 231.794 192.374 234.798C210.173 237.801 201.274 229.005 201.274 229.005C201.274 229.005 184.83 220.102 182.054 219.424C184.532 216.494 188.805 210.76 189.49 207.277C190.176 203.793 196.663 192.912 196.663 192.912L186.268 185.043Z" fill="#F5C1AE"/>
<path d="M186.656 179.557C180.252 186.483 174.683 202.891 174.683 202.891C174.683 202.891 183.061 208.683 187.391 212.39C189.385 210.642 191.133 208.633 192.589 206.416C192.589 206.416 195.547 194.211 193.894 189.238C192.242 184.265 186.656 179.557 186.656 179.557Z" fill="#FF4929"/>
<path d="M183.111 208.998C184.673 210.181 186.185 211.373 187.391 212.415C189.385 210.667 191.133 208.658 192.589 206.441C192.589 206.441 191.06 197.339 191.085 191.688C189.094 197.743 186.419 203.551 183.111 208.998Z" fill="#FF4929"/>
<path d="M203.034 171.862C204.686 170.604 208.239 164.117 208.314 162.851C208.388 161.585 220.097 164.208 220.097 164.208C220.097 164.208 218.089 169.015 218.511 171.862C218.932 174.708 203.034 171.862 203.034 171.862Z" fill="#F5C1AE"/>
<path d="M209.884 170.314C212.67 168.724 215.775 167.777 218.973 167.542C219.274 166.417 219.644 165.312 220.08 164.233C220.08 164.233 208.38 161.618 208.297 162.876C208.215 164.133 204.653 170.629 203.017 171.887C203.017 171.887 204.504 172.151 206.545 172.441C207.603 171.648 208.719 170.937 209.884 170.314Z" fill="#DE9D85"/>
<path d="M187.144 250.792C187.689 242.865 188.953 222.924 188.317 215.212C187.747 208.352 182.715 190.521 182.896 184.869C185.475 178.109 191.887 174.468 202.29 173.566C214.974 172.466 229.137 176.462 232.203 180.235C235.268 184.009 233.12 203.47 231.616 216.643C230.112 229.816 230.872 249.129 230.872 249.129C230.872 249.129 217.593 253.266 206.083 253.663C196.712 254.028 187.144 250.792 187.144 250.792Z" fill="#384A8C"/>
<path d="M232.599 186.508C237.259 194.666 240.862 200.574 242.036 209.436C243.209 218.298 245.622 233.06 245.622 233.06L256.488 236.742C264.338 239.39 279.005 245.844 279.005 245.844L276.956 252C276.956 252 237.92 247.408 235.004 237.404C230.872 223.28 226.253 198.853 226.253 198.853L232.599 186.508Z" fill="#F5C1AE"/>
<path d="M236.764 214.211C238.565 212.812 240.813 211.083 241.961 208.94C240.73 200.392 237.169 194.509 232.599 186.508L226.253 198.853C226.253 198.853 227.972 207.955 230.244 218.191C232.64 217.396 234.913 215.65 236.764 214.211Z" fill="#DE9D85"/>
<path d="M241.936 208.336C239.672 210.446 228.955 212.415 228.955 212.415C228.955 212.415 224.427 201.989 223.824 199.722C223.22 197.455 218.51 175.991 230.054 178.415C242.936 187.087 241.936 208.336 241.936 208.336Z" fill="#384A8C"/>
<path d="M217.783 170.207C214.536 169.686 206.149 169.321 203.513 169.851C200.877 170.381 199.968 173.823 195.903 175.18C191.837 176.537 203.901 176.76 208.297 177.472C212.693 178.183 220.998 174.99 220.998 174.99C220.998 174.99 220.279 170.604 217.783 170.207Z" fill="#384A8C"/>
<path d="M227.699 154.609C227.219 152.994 226.605 151.422 225.865 149.909C225.815 149.363 225.765 148.85 225.716 148.379V148.13V147.965C225.489 146.253 224.899 144.609 223.986 143.143C223.072 141.678 221.856 140.425 220.42 139.469C218.983 138.513 217.359 137.876 215.656 137.6C213.953 137.324 212.211 137.416 210.547 137.869C208.883 138.323 207.334 139.128 206.006 140.23C204.678 141.332 203.6 142.705 202.846 144.259C202.091 145.812 201.677 147.509 201.631 149.235C201.585 150.962 201.908 152.679 202.579 154.27C204.984 160.658 210.917 166.864 215.42 166.822C218.725 166.822 223.039 167.104 224.989 165.358C226.079 164.381 226.352 160.6 226.286 156.595C227.013 156.157 227.864 155.462 227.699 154.609Z" fill="#F5C1AE"/>
<path d="M211.222 149.976C212.518 149.885 213.819 150.054 215.048 150.472C216.833 150.886 218.692 150.174 220.403 149.645C222.568 148.95 224.262 148.039 225.361 146.509C224.614 143.663 222.86 141.186 220.423 139.541C217.987 137.896 215.037 137.196 212.123 137.569C209.208 137.943 206.529 139.367 204.586 141.573C202.643 143.78 201.568 146.62 201.563 149.562C201.564 151.057 201.844 152.539 202.389 153.931C204.895 151.793 207.961 150.421 211.222 149.976Z" fill="#DE9D85"/>
<path d="M224.394 134.337C225.146 137.076 227.129 144.572 222.154 146.633C217.436 148.577 216.866 150.058 215.998 151.473C215.461 152.367 212.412 149.529 210.677 152.019C209.363 153.914 210.512 156.281 212.66 157.274C213.136 157.508 213.56 157.837 213.904 158.241C214.248 158.646 214.505 159.117 214.66 159.625C214.815 160.133 214.864 160.667 214.804 161.195C214.745 161.723 214.577 162.233 214.313 162.693C213.23 164.903 211.726 167.038 209.636 167.501C207.545 167.964 202.695 162.536 199.91 157.398C197.125 152.259 195.778 139.674 203 136.116C210.222 132.558 223.534 131.217 224.394 134.337Z" fill="#614223"/>
<path d="M282.252 240.788C281.542 241.219 278.038 244.098 277.856 244.926C277.675 245.753 282.508 244.388 282.508 244.388L282.252 240.788Z" fill="#F5C1AE"/>
<path d="M283.269 381.604C282.762 381.604 282.277 381.403 281.919 381.044C281.561 380.686 281.36 380.2 281.36 379.693V198.903C281.362 198.397 281.564 197.912 281.921 197.554C282.279 197.196 282.763 196.994 283.269 196.991C283.775 196.991 284.26 197.193 284.618 197.551C284.976 197.91 285.177 198.396 285.177 198.903V379.693C285.178 379.944 285.13 380.193 285.034 380.425C284.939 380.658 284.798 380.869 284.621 381.047C284.443 381.224 284.232 381.365 284 381.461C283.768 381.557 283.52 381.605 283.269 381.604Z" fill="#5A2F18"/>
<path d="M276.096 252.042C277.479 252.475 278.954 252.518 280.36 252.166C281.967 251.779 283.544 251.276 285.078 250.66C286.395 250.168 287.543 249.306 288.384 248.177C288.464 248.063 288.51 247.928 288.516 247.789L288.681 245.381C288.737 244.502 288.617 243.621 288.326 242.791V242.749C288.264 242.583 288.15 242.441 288.001 242.344C287.853 242.247 287.677 242.2 287.499 242.212L284.748 242.369H284.657L281.781 242.874L279.881 243.138C279.767 243.156 279.657 243.195 279.559 243.254L276.311 245.306C276.266 245.334 276.224 245.368 276.187 245.406L275.716 245.852C275.637 245.93 275.574 246.023 275.532 246.125C275.489 246.227 275.468 246.337 275.468 246.448L275.543 251.314C275.549 251.481 275.606 251.643 275.706 251.778C275.807 251.912 275.946 252.013 276.105 252.067L276.096 252.042Z" fill="#F5C1AE"/>
<path d="M230.542 242.493C227.658 244.33 225.509 246.771 222.072 247.317C218.767 247.838 215.23 246.994 213.247 244.164C212.536 243.108 212.031 241.926 211.76 240.681L212.512 234.938C213.52 227.227 214.569 219.523 215.528 211.77C216.029 207.95 216.305 204.104 216.354 200.252C216.354 198.531 216.354 196.801 216.23 195.088C216.247 193.702 215.776 192.355 214.9 191.282L214.858 191.241C217.036 185.537 220.162 180.244 224.105 175.585C224.129 175.565 224.147 175.539 224.156 175.509C224.166 175.479 224.167 175.447 224.159 175.417C224.151 175.387 224.135 175.359 224.112 175.338C224.089 175.316 224.061 175.302 224.03 175.296C222.541 174.799 220.925 174.849 219.469 175.436C217.862 176.177 216.525 177.4 215.643 178.936C213.71 181.849 211.437 185.713 209.752 188.767C208.578 188.38 207.388 188.033 206.182 187.724C202.698 186.831 199.142 186.252 195.556 185.995C193.903 185.862 192.168 185.821 190.465 185.837C191.06 184.381 191.705 182.95 192.424 181.543C193.82 178.812 195.382 175.982 197.977 174.096C198.009 174.078 198.034 174.049 198.047 174.014C198.059 173.979 198.058 173.941 198.043 173.907C198.029 173.872 198.002 173.845 197.968 173.829C197.935 173.814 197.896 173.812 197.861 173.823C196.027 174.038 194.134 173.335 192.449 174.485C190.92 175.536 189.928 177.397 188.92 178.879C186.91 181.841 184.962 184.836 183.078 187.865C180.714 189.643 178.868 192.023 177.732 194.757C176.555 197.924 175.738 201.213 175.294 204.563C174.633 208.402 173.989 212.241 173.386 216.081C172.179 223.768 171.13 231.463 170.37 239.167C170.006 242.915 169.634 246.688 169.543 250.437C169.461 252.811 169.717 255.674 172.022 256.849C172.562 257.114 173.143 257.282 173.741 257.346C174.566 257.42 175.395 257.42 176.22 257.346C177.944 257.212 179.675 257.198 181.401 257.304C184.994 257.737 188.563 258.356 192.093 259.158C193.656 259.464 195.234 259.69 196.82 259.836C197.88 259.937 198.945 259.976 200.009 259.952H200.373C200.96 259.952 201.563 259.886 202.158 259.812C204.802 259.489 207.653 258.488 209.066 256.022C209.722 254.767 210.136 253.4 210.289 251.992C210.33 251.669 210.38 251.338 210.421 251.016C211.617 251.731 212.908 252.274 214.255 252.629C216.883 253.26 219.597 253.448 222.287 253.184C223.617 253.093 224.948 252.935 226.261 252.753C227.088 252.629 230.219 252.555 230.566 251.727C231.145 250.379 230.682 249.924 230.955 248.418C231.228 246.912 230.517 244.363 230.996 242.783C231.007 242.725 231.001 242.666 230.978 242.613C230.955 242.559 230.917 242.514 230.868 242.482C230.819 242.451 230.761 242.435 230.703 242.437C230.645 242.439 230.589 242.459 230.542 242.493Z" fill="#EEDED4"/>
<path d="M236.499 193.119C235.557 191.059 233.194 190.165 231.062 190.115C229.553 190.137 228.051 190.325 226.584 190.678C224.95 191.009 223.291 191.197 221.626 191.241C215.089 191.356 208.801 189.213 202.505 187.757C199.469 187.033 196.379 186.554 193.267 186.326C189.961 186.102 186.656 186.11 183.351 185.995C180.048 185.941 176.759 185.573 173.526 184.894C171.047 184.323 168.047 182.693 165.56 184.067C164.768 184.539 164.108 185.205 163.643 186.003C161.296 189.942 158.685 193.69 158.685 198.307C158.685 200.442 159.388 202.8 161.536 203.685C162.681 204.086 163.907 204.197 165.106 204.008C166.676 203.851 168.229 203.578 169.791 203.396C183.458 201.824 197.249 202.933 210.859 204.463C214.321 204.852 217.783 205.291 221.237 205.671C224.295 206.035 227.492 206.433 230.5 205.547C231.708 205.245 232.836 204.684 233.806 203.902C234.776 203.121 235.565 202.138 236.119 201.021C236.62 199.78 236.899 198.461 236.945 197.124C237.132 195.772 236.978 194.396 236.499 193.119Z" fill="#30686E"/>
<path d="M195.836 209.287C195.679 209.138 195.514 208.998 195.349 208.857C196.049 207.819 196.509 206.637 196.696 205.398C196.804 204.561 196.678 203.711 196.332 202.941C195.986 202.171 195.434 201.512 194.737 201.038C194.07 200.606 193.292 200.377 192.498 200.377C191.704 200.377 190.926 200.606 190.259 201.038C189.136 201.845 188.322 203.013 187.953 204.347C187.62 204.196 187.271 204.082 186.912 204.008C185.367 203.735 184.714 205.928 184.144 206.97C182.995 209.064 181.665 211.108 180.682 213.292C180.551 213.501 180.466 213.735 180.431 213.978C180.397 214.222 180.415 214.471 180.483 214.707C180.572 214.881 180.7 215.033 180.856 215.15C181.012 215.268 181.193 215.348 181.384 215.386C182.585 216.141 183.802 216.861 185.036 217.545L186.226 218.191L186.441 218.298C187.185 218.704 187.937 219.084 188.697 219.448C189.434 219.865 190.209 220.212 191.011 220.483C192.663 220.93 193.234 219.208 193.895 218.05C194.861 216.337 195.845 214.6 196.671 212.812C197.316 211.422 196.968 210.338 195.836 209.287ZM194.142 207.905C193.316 207.31 192.49 206.764 191.664 206.251C190.945 205.829 190.209 205.423 189.457 205.076C190.143 203.321 192.415 201.013 194.151 202.899C195.423 204.38 194.853 206.284 194.118 207.905H194.142Z" fill="#421818"/>
<path d="M205.62 203.752C205.529 203.753 205.44 203.736 205.356 203.702C204.744 211.977 204.116 220.251 203.273 228.476C202.811 233.033 202.26 237.578 201.621 242.112C201.042 246.25 200.059 250.486 199.927 254.706C199.864 256.304 200.023 257.902 200.398 259.456H200.794C200.424 257.96 200.263 256.42 200.315 254.88C200.414 250.528 201.455 246.175 202.05 241.872C203.224 233.441 204.05 224.968 204.744 216.478C205.099 212.241 205.413 207.997 205.727 203.752H205.62Z" fill="#421818"/>
<path d="M235.822 193.624C233.888 192.167 231.541 193.673 230.194 195.006C228.563 196.572 227.472 198.618 227.079 200.847C226.965 201.244 226.959 201.665 227.062 202.065C227.165 202.466 227.374 202.831 227.666 203.123C228.027 203.363 228.439 203.516 228.869 203.569C229.3 203.622 229.736 203.574 230.145 203.429C231.081 203.132 231.903 202.554 232.5 201.774C233.212 201.004 233.643 200.015 233.723 198.969C233.71 198.789 233.653 198.616 233.558 198.463C233.462 198.311 233.331 198.184 233.175 198.094C233.019 198.004 232.844 197.954 232.664 197.948C232.484 197.942 232.306 197.98 232.144 198.059C231.029 198.564 230.492 200.053 230.26 201.029C230.219 201.228 230.574 201.311 230.616 201.112C230.72 200.609 230.898 200.124 231.145 199.672C231.252 199.476 231.374 199.288 231.508 199.11C231.576 199.001 231.657 198.901 231.748 198.812C232.087 198.299 232.624 198.398 233.4 199.101C233.491 199.532 233.037 200.301 232.83 200.682C232.635 201.049 232.402 201.396 232.136 201.716C231.482 202.546 230.536 203.094 229.492 203.247C229.21 203.31 228.917 203.301 228.639 203.221C228.361 203.141 228.108 202.993 227.902 202.789C227.697 202.586 227.546 202.334 227.462 202.057C227.379 201.78 227.367 201.486 227.426 201.203C227.674 199.379 228.424 197.66 229.591 196.238C230.756 194.782 233.409 192.234 235.59 193.88C235.739 193.996 235.995 193.773 235.822 193.624Z" fill="#265257"/>
<path d="M198.373 236.916C198.315 239.316 197.464 241.666 197.076 244.016C196.487 247.636 196.343 251.315 196.646 254.971V255.219C195.475 255.414 194.294 255.549 193.11 255.625C192.039 255.695 190.964 255.651 189.903 255.492C187.447 255.024 184.963 254.72 182.467 254.582C180.343 254.541 178.079 254.582 176.104 253.688C175.394 253.364 174.762 252.888 174.253 252.295C173.744 251.703 173.369 251.006 173.154 250.255C173.27 248.241 173.471 246.241 173.757 244.256C174.055 242.253 174.41 240.242 174.906 238.273C174.906 238.157 174.964 238.05 174.988 237.934C175.088 237.578 175.179 237.222 175.286 236.866C175.509 236.039 175.807 234.889 176.509 234.384C177.229 234.022 178.037 233.87 178.839 233.946C183.946 233.628 189.072 233.816 194.142 234.508C194.812 234.599 195.489 234.707 196.159 234.814C196.668 234.846 197.171 234.947 197.654 235.112C197.789 235.169 197.91 235.254 198.01 235.36C198.096 235.442 198.163 235.54 198.208 235.65C198.354 236.055 198.41 236.487 198.373 236.916Z" fill="#A67A6F"/>
<path d="M196.663 254.971V255.219C195.491 255.414 194.311 255.549 193.126 255.625C192.794 255.61 192.469 255.532 192.167 255.393C190.92 254.756 191.292 252.853 191.341 251.744C191.551 247.703 192.031 243.681 192.779 239.704C191.508 239.973 190.2 240.023 188.912 239.853C184.235 239.407 179.574 238.802 174.906 238.273C174.906 238.157 174.964 238.049 174.988 237.934C179.346 238.43 183.698 238.921 188.044 239.407C190.019 239.63 192.176 239.862 193.994 238.844C194.9 238.276 195.732 237.598 196.473 236.825L198.051 235.344C198.137 235.425 198.204 235.524 198.249 235.633L196.481 237.288C195.791 237.993 195.02 238.612 194.184 239.133C193.858 239.314 193.514 239.461 193.159 239.572C192.528 242.913 192.081 246.285 191.82 249.675C191.771 250.503 191.721 251.272 191.68 252.067C191.577 252.801 191.593 253.547 191.73 254.276C192.201 255.865 195.15 255.327 196.663 254.971Z" fill="#421818"/>
<path d="M220.576 149.627C220.576 149.627 222.931 149.082 222.741 148.221C222.551 147.361 219.155 149.313 220.576 149.627Z" fill="#614223"/>
<path d="M214.065 156.512C213.993 156.512 213.923 156.484 213.872 156.432C213.821 156.381 213.792 156.312 213.792 156.239C213.792 156.167 213.821 156.098 213.872 156.046C213.923 155.995 213.993 155.966 214.065 155.966L214.99 155.917C215.026 155.913 215.062 155.917 215.096 155.929C215.13 155.94 215.161 155.958 215.188 155.982C215.214 156.007 215.235 156.036 215.25 156.069C215.264 156.102 215.271 156.137 215.271 156.173C215.274 156.209 215.269 156.245 215.257 156.279C215.245 156.313 215.227 156.344 215.203 156.371C215.18 156.398 215.151 156.42 215.118 156.436C215.086 156.451 215.051 156.461 215.015 156.463L214.098 156.512H214.065Z" fill="#DE9D85"/>
<path d="M211.669 153.715C211.609 153.717 211.55 153.698 211.502 153.662C211.454 153.626 211.419 153.575 211.404 153.516C211.329 153.204 211.379 152.874 211.545 152.599C211.71 152.324 211.977 152.124 212.288 152.044C212.567 152.004 212.852 152.039 213.113 152.145C213.375 152.251 213.603 152.425 213.776 152.648C213.824 152.703 213.848 152.775 213.844 152.847C213.839 152.92 213.806 152.988 213.751 153.037C213.696 153.085 213.624 153.109 213.552 153.105C213.479 153.1 213.411 153.067 213.363 153.012C213.251 152.866 213.105 152.751 212.937 152.676C212.77 152.601 212.587 152.568 212.404 152.582C212.321 152.602 212.244 152.639 212.176 152.69C212.107 152.742 212.05 152.806 212.007 152.88C211.962 152.951 211.932 153.032 211.919 153.116C211.906 153.2 211.911 153.286 211.933 153.368C211.951 153.438 211.941 153.512 211.906 153.575C211.871 153.638 211.812 153.686 211.743 153.707L211.669 153.715Z" fill="#DE9D85"/>
<path d="M222.278 151.531C222.278 150.902 222.609 150.398 223.039 150.389C223.468 150.381 223.815 150.886 223.824 151.506C223.832 152.126 223.493 152.639 223.072 152.639C222.65 152.639 222.278 152.151 222.278 151.531Z" fill="#614223"/>
<path d="M225.815 160.666C225.766 160.707 225.705 160.733 225.642 160.74C225.301 160.771 224.957 160.728 224.633 160.616C224.31 160.503 224.014 160.323 223.766 160.087C223.682 160.011 223.63 159.907 223.621 159.794C223.613 159.682 223.648 159.57 223.719 159.483C223.79 159.395 223.892 159.339 224.004 159.325C224.116 159.311 224.229 159.341 224.32 159.408C224.633 159.715 225.055 159.885 225.493 159.88C225.607 159.863 225.723 159.892 225.815 159.96C225.908 160.028 225.97 160.13 225.989 160.244C226 160.323 225.99 160.404 225.96 160.479C225.929 160.553 225.879 160.618 225.815 160.666Z" fill="#DE9D85"/>
<path d="M225.245 271.197C225.189 271.267 225.113 271.318 225.027 271.342C224.941 271.366 224.849 271.361 224.766 271.33C224.715 271.31 224.669 271.28 224.63 271.242C224.591 271.204 224.56 271.159 224.539 271.109C224.517 271.059 224.506 271.005 224.505 270.951C224.504 270.896 224.514 270.842 224.534 270.792C224.534 270.709 227.889 262.253 228.525 259.282C228.536 259.229 228.557 259.179 228.588 259.134C228.618 259.089 228.657 259.051 228.703 259.022C228.748 258.993 228.799 258.973 228.852 258.963C228.906 258.954 228.96 258.955 229.013 258.968C229.066 258.978 229.117 259 229.162 259.03C229.207 259.06 229.245 259.099 229.275 259.145C229.305 259.19 229.326 259.241 229.336 259.294C229.346 259.348 229.346 259.403 229.335 259.456C228.682 262.493 225.443 270.742 225.303 271.098C225.287 271.133 225.267 271.166 225.245 271.197Z" fill="#0C1436"/>
<path d="M184.532 318.668C184.423 318.668 184.318 318.624 184.24 318.546C184.163 318.469 184.119 318.364 184.119 318.254C184.119 318.144 184.163 318.039 184.24 317.962C184.318 317.884 184.423 317.84 184.532 317.84L188.664 317.195C188.773 317.179 188.885 317.207 188.974 317.273C189.063 317.338 189.123 317.437 189.139 317.547C189.155 317.657 189.128 317.768 189.062 317.857C188.996 317.947 188.897 318.006 188.788 318.022L184.656 318.659L184.532 318.668Z" fill="#0C1436"/>
<path d="M217.321 320.075C217.236 320.05 217.162 319.999 217.108 319.929C217.055 319.859 217.025 319.774 217.023 319.686C217.021 319.631 217.03 319.577 217.049 319.526C217.068 319.475 217.098 319.428 217.136 319.388C217.173 319.349 217.219 319.318 217.269 319.296C217.319 319.275 217.373 319.264 217.428 319.264L221.634 319.181C221.689 319.179 221.744 319.188 221.795 319.207C221.847 319.226 221.894 319.256 221.934 319.293C221.974 319.331 222.006 319.377 222.028 319.427C222.05 319.477 222.062 319.532 222.064 319.587C222.062 319.695 222.019 319.799 221.944 319.877C221.869 319.955 221.767 320.002 221.659 320.008L217.444 320.091L217.321 320.075Z" fill="#0C1436"/>
<path opacity="0.35" d="M432.856 157.216L335.971 156.91C335.971 156.91 336.591 147.659 341.135 147.667C345.68 147.675 345.854 151.564 345.854 151.564C345.854 151.564 345.705 141.858 352.249 141.875C358.794 141.891 359.513 147.361 359.513 147.361C359.513 147.361 361.587 122.231 377.047 122.281C392.507 122.33 393.003 139.707 393.003 139.707C393.003 139.707 392.846 130.713 400.853 130.737C408.86 130.762 409.025 139.732 409.025 139.732C409.025 139.732 409.761 136.927 416.132 136.943C422.503 136.96 423.007 148.445 423.007 148.445C423.007 148.445 432.889 144.754 432.856 157.216Z" fill="url(#paint11_linear)"/>
<path opacity="0.45" d="M524.709 197.81H670C670 197.81 669.116 183.926 662.29 183.926C655.465 183.926 655.201 189.718 655.201 189.718C655.201 189.718 655.473 175.155 645.649 175.155C635.824 175.155 634.733 183.347 634.733 183.347C634.733 183.347 631.733 145.648 608.547 145.648C585.361 145.648 584.534 171.713 584.534 171.713C584.534 171.713 584.807 158.217 572.801 158.217C560.794 158.217 560.522 171.713 560.522 171.713C560.522 171.713 559.431 167.501 549.887 167.501C540.343 167.501 539.517 184.72 539.517 184.72C539.517 184.72 524.709 179.176 524.709 197.81Z" fill="url(#paint12_linear)"/>
</g>
<defs>
<linearGradient id="paint0_linear" x1="338.846" y1="449" x2="338.846" y2="0.413682" gradientUnits="userSpaceOnUse">
<stop stop-color="#8ED8F8"/>
<stop offset="0.17" stop-color="#A7E1FA"/>
<stop offset="0.53" stop-color="#D7F1FC"/>
<stop offset="0.81" stop-color="#F4FBFE"/>
<stop offset="0.97" stop-color="white"/>
</linearGradient>
<linearGradient id="paint1_linear" x1="280.988" y1="234.028" x2="280.988" y2="438.467" gradientUnits="userSpaceOnUse">
<stop stop-color="#82483D"/>
<stop offset="0.46" stop-color="#AD6253"/>
<stop offset="1" stop-color="#E68470"/>
</linearGradient>
<linearGradient id="paint2_linear" x1="376.526" y1="214.136" x2="376.526" y2="373.28" gradientUnits="userSpaceOnUse">
<stop stop-color="#77B053"/>
<stop offset="0.19" stop-color="#66A750"/>
<stop offset="0.57" stop-color="#3A8F4A"/>
<stop offset="1" stop-color="#007141"/>
</linearGradient>
<linearGradient id="paint3_linear" x1="368.114" y1="251.794" x2="368.114" y2="447.105" gradientUnits="userSpaceOnUse">
<stop stop-color="#95CB6E"/>
<stop offset="0.62" stop-color="#84BC5F"/>
<stop offset="1" stop-color="#77B053"/>
</linearGradient>
<linearGradient id="paint4_linear" x1="16895" y1="11451.1" x2="22850.1" y2="11451.1" gradientUnits="userSpaceOnUse">
<stop stop-color="#77B053"/>
<stop offset="0.19" stop-color="#66A750"/>
<stop offset="0.57" stop-color="#3A8F4A"/>
<stop offset="1" stop-color="#007141"/>
</linearGradient>
<linearGradient id="paint5_linear" x1="423.031" y1="297.874" x2="423.031" y2="193.731" gradientUnits="userSpaceOnUse">
<stop stop-color="#005A37"/>
<stop offset="0.49" stop-color="#007346"/>
<stop offset="1" stop-color="#009057"/>
</linearGradient>
<linearGradient id="paint6_linear" x1="232.467" y1="327.845" x2="232.467" y2="298.354" gradientUnits="userSpaceOnUse">
<stop/>
<stop offset="0.11" stop-color="#323232"/>
<stop offset="0.24" stop-color="#686868"/>
<stop offset="0.37" stop-color="#969696"/>
<stop offset="0.5" stop-color="#BCBCBC"/>
<stop offset="0.63" stop-color="#D9D9D9"/>
<stop offset="0.76" stop-color="#EEEEEE"/>
<stop offset="0.88" stop-color="#FBFBFB"/>
<stop offset="1" stop-color="white"/>
</linearGradient>
<linearGradient id="paint7_linear" x1="304.976" y1="418.12" x2="340.376" y2="278.808" gradientUnits="userSpaceOnUse">
<stop stop-color="#F7BC94"/>
<stop offset="1" stop-color="#FBD3AE"/>
</linearGradient>
<linearGradient id="paint8_linear" x1="328.575" y1="377.061" x2="348.516" y2="299.865" gradientUnits="userSpaceOnUse">
<stop stop-color="#ED9685"/>
<stop offset="1" stop-color="#F7BC94"/>
</linearGradient>
<linearGradient id="paint9_linear" x1="450.291" y1="399.924" x2="450.291" y2="355.126" gradientUnits="userSpaceOnUse">
<stop offset="0.26"/>
<stop offset="0.34" stop-color="#323232"/>
<stop offset="0.44" stop-color="#686868"/>
<stop offset="0.53" stop-color="#969696"/>
<stop offset="0.63" stop-color="#BCBCBC"/>
<stop offset="0.73" stop-color="#D9D9D9"/>
<stop offset="0.82" stop-color="#EEEEEE"/>
<stop offset="0.91" stop-color="#FBFBFB"/>
<stop offset="1" stop-color="white"/>
</linearGradient>
<linearGradient id="paint10_linear" x1="156851" y1="44818.2" x2="156913" y2="52199.8" gradientUnits="userSpaceOnUse">
<stop stop-color="#95CB6E"/>
<stop offset="0.62" stop-color="#84BC5F"/>
<stop offset="1" stop-color="#77B053"/>
</linearGradient>
<linearGradient id="paint11_linear" x1="384.409" y1="157.183" x2="384.409" y2="122.248" gradientUnits="userSpaceOnUse">
<stop stop-color="#8ED8F8"/>
<stop offset="0.18" stop-color="#A4DEF8"/>
<stop offset="0.53" stop-color="#C9E8F8"/>
<stop offset="0.82" stop-color="#E0EFF8"/>
<stop offset="1" stop-color="#E8F1F8"/>
</linearGradient>
<linearGradient id="paint12_linear" x1="105554" y1="12615.6" x2="105554" y2="9329.38" gradientUnits="userSpaceOnUse">
<stop stop-color="#8ED8F8"/>
<stop offset="0.18" stop-color="#A4DEF8"/>
<stop offset="0.53" stop-color="#C9E8F8"/>
<stop offset="0.82" stop-color="#E0EFF8"/>
<stop offset="1" stop-color="#E8F1F8"/>
</linearGradient>
<clipPath id="clip0">
<rect width="670" height="449" fill="white"/>
</clipPath>
</defs>
</svg>
