<svg width="270" height="210" viewBox="0 0 270 210" fill="none" xmlns="http://www.w3.org/2000/svg">
<path d="M84.1633 79.0334L95.797 81.3774L84.1633 79.0334Z" fill="#E3F9F9"/>
<path d="M95.7971 81.6035H95.7516L84.1225 79.2604C84.0931 79.2556 84.0651 79.2448 84.0401 79.2287C84.015 79.2127 83.9936 79.1916 83.977 79.167C83.9604 79.1423 83.949 79.1145 83.9436 79.0853C83.9381 79.0561 83.9387 79.026 83.9453 78.997C83.9507 78.968 83.9619 78.9403 83.9781 78.9157C83.9944 78.891 84.0154 78.8698 84.0399 78.8533C84.0644 78.8368 84.092 78.8254 84.121 78.8196C84.15 78.8139 84.1798 78.814 84.2088 78.82L95.8652 81.1539C95.9234 81.167 95.9741 81.2024 96.0064 81.2525C96.0387 81.3027 96.05 81.3635 96.0378 81.4218C96.0278 81.4768 95.9975 81.526 95.9529 81.5596C95.9083 81.5933 95.8527 81.6089 95.7971 81.6035Z" fill="#3C92C1"/>
<path d="M245 162.148H72.457L48.1266 57.6735H220.674L245 162.148Z" fill="#F5E8DD"/>
<path d="M93.8709 91.5706H74.701L70.1538 72.4265H89.3237L93.8709 91.5706Z" fill="white"/>
<path d="M94.2979 91.9065H74.433L69.7268 72.0905H89.5918L94.2979 91.9065ZM74.969 91.2254H93.4439L89.0512 72.767H70.5808L74.969 91.2254Z" fill="#CAF0F4"/>
<path d="M113.041 91.5706H93.871L89.3238 72.4265H108.494L113.041 91.5706Z" fill="white"/>
<path d="M113.468 91.9065H93.5939L88.8968 72.0905H108.757L113.468 91.9065ZM94.139 91.2254H112.609L108.226 72.758H89.7508L94.139 91.2254Z" fill="#CAF0F4"/>
<path d="M132.206 91.5706H113.041L108.494 72.4265H127.659L132.206 91.5706Z" fill="white"/>
<path d="M132.633 91.9065H112.773L108.067 72.0905H127.927L132.633 91.9065ZM113.304 91.2254H131.779L127.396 72.758H108.921L113.304 91.2254Z" fill="#CAF0F4"/>
<path d="M151.376 91.5706H132.206L127.659 72.4265H146.829L151.376 91.5706Z" fill="white"/>
<path d="M151.803 91.9065H131.938L127.232 72.0905H147.097L151.803 91.9065ZM132.474 91.2254H150.949L146.561 72.767H128.091L132.474 91.2254Z" fill="#CAF0F4"/>
<path d="M170.546 91.5706H151.376L146.829 72.4265H165.999L170.546 91.5706Z" fill="white"/>
<path d="M170.973 91.9065H151.108L146.402 72.0905H166.276L170.973 91.9065ZM151.644 91.2254H170.119L165.731 72.767H147.256L151.644 91.2254Z" fill="#CAF0F4"/>
<path d="M189.716 91.5706H170.546L165.999 72.4265H185.169L189.716 91.5706Z" fill="white"/>
<path d="M190.143 91.9065H170.278L165.572 72.0905H185.432L190.143 91.9065ZM170.819 91.2254H189.289L184.901 72.767H166.426L170.819 91.2254Z" fill="#CAF0F4"/>
<path d="M208.881 91.5706H189.716L185.169 72.4265H204.339L208.881 91.5706Z" fill="#E3F9F9"/>
<path d="M209.308 91.9065H189.444L184.742 72.0905H204.602L209.308 91.9065ZM189.98 91.2254H208.454L204.071 72.767H185.596L189.98 91.2254Z" fill="#CAF0F4"/>
<path d="M98.4181 110.715H79.2482L74.701 91.5706H93.8709L98.4181 110.715Z" fill="white"/>
<path d="M98.8451 111.051H78.9802L74.274 91.2255H94.1389L98.8451 111.051ZM79.5116 110.374H97.982L93.5938 91.9066H75.128L79.5116 110.374Z" fill="#CAF0F4"/>
<path d="M117.584 110.715H98.4182L93.871 91.5706H113.041L117.584 110.715Z" fill="white"/>
<path d="M118.011 111.051H98.1365L93.444 91.2255H113.304L118.011 111.051ZM98.6816 110.374H117.157L112.773 91.9066H94.298L98.6816 110.374Z" fill="#CAF0F4"/>
<path d="M136.753 110.715H117.584L113.041 91.5706H132.206L136.753 110.715Z" fill="white"/>
<path d="M137.203 111.051H117.32L112.609 91.2255H132.474L137.203 111.051ZM117.874 110.374H136.349L131.961 91.9066H113.468L117.874 110.374Z" fill="#CAF0F4"/>
<path d="M155.923 110.715H136.753L132.206 91.5706H151.376L155.923 110.715Z" fill="white"/>
<path d="M156.35 111.051H136.485L131.779 91.2255H151.644L156.35 111.051ZM137.022 110.374H155.496L151.108 91.9066H132.633L137.022 110.374Z" fill="#CAF0F4"/>
<path d="M175.093 110.715H155.923L151.376 91.5706H170.546L175.093 110.715Z" fill="white"/>
<path d="M175.52 111.051H155.655L150.949 91.2255H170.819L175.52 111.051ZM156.191 110.374H174.666L170.278 91.9066H151.803L156.191 110.374Z" fill="#CAF0F4"/>
<path d="M194.259 110.715H175.093L170.546 91.5706H189.716L194.259 110.715Z" fill="white"/>
<path d="M194.686 111.051H174.825L170.119 91.2255H189.98L194.686 111.051ZM175.361 110.374H193.836L189.444 91.9066H170.973L175.361 110.374Z" fill="#CAF0F4"/>
<path d="M213.429 110.715H194.259L189.716 91.5706H208.881L213.429 110.715Z" fill="#E3F9F9"/>
<path d="M213.856 111.051H193.986L189.285 91.2255H209.15L213.856 111.051ZM194.527 110.374H213.002L208.618 91.9066H190.143L194.527 110.374Z" fill="#CAF0F4"/>
<path d="M102.961 129.854H83.7953L79.2482 110.715H98.4181L102.961 129.854Z" fill="white"/>
<path d="M103.392 130.195H83.5273L78.8212 110.374H98.6816L103.392 130.195ZM84.0543 129.518H102.529L98.1365 111.051H79.6752L84.0543 129.518Z" fill="#CAF0F4"/>
<path d="M122.131 129.854H102.961L98.4182 110.715H117.584L122.131 129.854Z" fill="white"/>
<path d="M122.558 130.195H102.679L97.9684 110.374H117.852L122.558 130.195ZM103.229 129.518H121.704L117.32 111.051H98.8451L103.229 129.518Z" fill="#CAF0F4"/>
<path d="M141.301 129.854H122.131L117.583 110.715H136.753L141.301 129.854Z" fill="white"/>
<path d="M141.746 130.195H121.863L117.156 110.374H137.021L141.746 130.195ZM122.417 129.518H140.892L136.504 111.051H118.011L122.417 129.518Z" fill="#CAF0F4"/>
<path d="M160.471 129.854H141.301L136.753 110.715H155.923L160.471 129.854Z" fill="white"/>
<path d="M160.898 130.195H141.033L136.326 110.374H156.191L160.898 130.195ZM141.569 129.518H160.044L155.655 111.051H137.203L141.569 129.518Z" fill="#CAF0F4"/>
<path d="M179.641 129.854H160.471L155.923 110.715H175.093L179.641 129.854Z" fill="white"/>
<path d="M180.068 130.195H160.203L155.496 110.374H175.361L180.068 130.195ZM160.734 129.518H179.209L174.825 111.051H156.35L160.734 129.518Z" fill="#CAF0F4"/>
<path d="M198.806 129.854H179.641L175.093 110.715H194.259L198.806 129.854Z" fill="white"/>
<path d="M199.233 130.195H179.372L174.666 110.374H194.527L199.233 130.195ZM179.904 129.518H198.379L193.986 111.051H175.52L179.904 129.518Z" fill="#CAF0F4"/>
<path d="M217.976 129.854H198.806L194.259 110.715H213.429L217.976 129.854Z" fill="#E3F9F9"/>
<path d="M218.403 130.195H198.529L193.823 110.374H213.688L218.403 130.195ZM199.074 129.518H217.549L213.161 111.051H194.686L199.074 129.518Z" fill="#CAF0F4"/>
<path d="M107.508 148.998H88.3425L83.7953 129.854H102.961L107.508 148.998Z" fill="white"/>
<path d="M107.935 149.348H88.0745L83.3683 129.532H103.229L107.935 149.348ZM88.5969 148.658H107.072L102.679 130.195H84.2224L88.5969 148.658Z" fill="#CAF0F4"/>
<path d="M126.678 148.998H107.508L102.961 129.854H122.131L126.678 148.998Z" fill="white"/>
<path d="M127.105 149.348H107.222L102.516 129.532H122.381L127.105 149.348ZM107.776 148.671H126.251L121.863 130.208H103.392L107.776 148.671Z" fill="#CAF0F4"/>
<path d="M145.848 148.998H126.678L122.131 129.854H141.301L145.848 148.998Z" fill="white"/>
<path d="M146.288 149.348H126.41L121.704 129.532H141.569L146.288 149.348ZM126.96 148.671H145.434L141.046 130.208H122.558L126.96 148.671Z" fill="#CAF0F4"/>
<path d="M165.018 148.998H145.848L141.301 129.854H160.471L165.018 148.998Z" fill="white"/>
<path d="M165.445 149.348H145.58L140.874 129.532H160.734L165.445 149.348ZM146.116 148.671H164.586L160.203 130.208H141.746L146.116 148.671Z" fill="#CAF0F4"/>
<path d="M184.183 148.998H165.018L160.471 129.854H179.641L184.183 148.998Z" fill="white"/>
<path d="M184.61 149.348H164.75L160.044 129.532H179.904L184.61 149.348ZM165.281 148.671H183.756L179.373 130.208H160.898L165.281 148.671Z" fill="#CAF0F4"/>
<path d="M203.353 148.998H184.183L179.641 129.854H198.806L203.353 148.998Z" fill="white"/>
<path d="M203.78 149.348H183.92L179.209 129.532H199.074L203.78 149.348ZM184.447 148.658H202.922L198.529 130.195H180.068L184.447 148.658Z" fill="#CAF0F4"/>
<path d="M222.523 148.998H203.353L198.806 129.854H217.976L222.523 148.998Z" fill="#E3F9F9"/>
<path d="M222.95 149.348H203.071L198.365 129.532H218.244L222.95 149.348ZM203.621 148.671H222.096L217.708 130.208H199.233L203.621 148.671Z" fill="#CAF0F4"/>
<path d="M121.681 110.297H121.527C117.752 110.261 114.644 108.876 112.995 106.496C110.606 103.032 111.801 98.2955 114.217 95.4076C116.634 92.5196 120.123 90.8668 123.498 89.4319C123.745 89.3259 124.024 89.3223 124.274 89.422C124.523 89.5216 124.723 89.7163 124.829 89.9631C124.935 90.21 124.939 90.4889 124.839 90.7384C124.739 90.9879 124.545 91.1876 124.298 91.2936C121.154 92.6558 117.906 94.1589 115.771 96.7108C113.895 98.954 112.868 102.741 114.667 105.338C116.466 107.936 120.077 108.254 121.545 108.263H121.681C124.387 108.233 127.045 107.541 129.421 106.246C131.797 104.95 133.819 103.092 135.309 100.834C135.95 99.9464 136.359 98.9132 136.499 97.8278C136.555 97.3794 136.494 96.9241 136.323 96.5058C136.152 96.0875 135.877 95.7203 135.522 95.4394C134.805 94.9535 133.728 94.9853 132.797 95.0761C129.168 95.4345 125.654 96.5465 122.48 98.3409C122.364 98.4153 122.234 98.4651 122.098 98.4875C121.961 98.5099 121.822 98.5044 121.688 98.4712C121.554 98.438 121.428 98.3779 121.318 98.2945C121.208 98.2112 121.116 98.1063 121.048 97.9863C120.98 97.8663 120.937 97.7337 120.921 97.5965C120.906 97.4593 120.919 97.3205 120.959 97.1884C120.999 97.0563 121.066 96.9338 121.155 96.8283C121.244 96.7227 121.353 96.6364 121.477 96.5746C124.899 94.6441 128.686 93.4472 132.597 93.06C133.914 92.9328 135.422 92.9147 136.685 93.7547C137.339 94.2333 137.856 94.8753 138.184 95.6165C138.512 96.3577 138.639 97.172 138.552 97.9777C138.391 99.4007 137.873 100.76 137.044 101.928C135.365 104.474 133.086 106.569 130.407 108.028C127.728 109.487 124.732 110.266 121.681 110.297Z" fill="#EB564E"/>
<path d="M140.02 69.761H133.869C133.376 69.7632 132.896 69.5962 132.511 69.288C132.126 68.9798 131.858 68.549 131.752 68.0673C131.703 67.8377 131.707 67.6001 131.761 67.3719C131.816 67.1437 131.921 66.9305 132.069 66.7479C132.216 66.5652 132.402 66.4177 132.614 66.3161C132.826 66.2144 133.057 66.1611 133.292 66.1602H139.475C139.968 66.1599 140.447 66.3294 140.831 66.6403C141.215 66.9511 141.48 67.3844 141.582 67.8675C141.63 68.0981 141.625 68.3365 141.568 68.565C141.512 68.7936 141.404 69.0065 141.254 69.1881C141.104 69.3698 140.916 69.5155 140.702 69.6147C140.488 69.7138 140.255 69.7638 140.02 69.761Z" fill="#ED8B72"/>
<path d="M159.19 69.761H153.034C152.542 69.7619 152.065 69.5944 151.681 69.2862C151.298 68.978 151.031 68.5479 150.927 68.0673C150.877 67.8376 150.88 67.5997 150.934 67.3711C150.988 67.1426 151.093 66.929 151.241 66.7462C151.389 66.5633 151.575 66.4158 151.787 66.3144C151.999 66.213 152.231 66.1603 152.466 66.1602H158.622C159.116 66.1599 159.595 66.3294 159.978 66.6403C160.362 66.9511 160.627 67.3844 160.73 67.8675C160.777 68.0963 160.772 68.3326 160.717 68.5595C160.661 68.7864 160.556 68.9981 160.409 69.1793C160.261 69.3605 160.076 69.5067 159.865 69.6073C159.654 69.7079 159.423 69.7604 159.19 69.761Z" fill="#ED8B72"/>
<path d="M77.1356 77.7283C77.7868 76.998 77.5691 75.7417 76.6493 74.9223C75.7295 74.1029 74.4561 74.0306 73.8049 74.7609C73.1537 75.4912 73.3715 76.7475 74.2912 77.567C75.211 78.3864 76.4845 78.4586 77.1356 77.7283Z" fill="#ED8B72"/>
<path d="M48.1266 57.6735L72.457 162.148H48.1266H25L48.1266 57.6735Z" fill="#F2AA98"/>
<path style="mix-blend-mode:multiply" opacity="0.55" d="M36.6019 112.872C37.3733 114.639 38.2705 116.35 39.2866 117.989C40.445 119.833 41.6942 121.649 42.9889 123.406C45.0467 126.212 47.2862 128.946 48.8625 132.07C50.4552 135.37 51.2577 138.996 51.2065 142.659C51.1673 145.047 50.999 147.432 50.7023 149.802C50.5024 151.732 50.3479 153.671 50.248 155.61C50.1435 157.776 50.1163 159.955 50.2207 162.13H72.4524L48.1266 57.6735L36.1476 111.8C36.2976 112.159 36.4475 112.517 36.6019 112.872Z" fill="url(#paint0_linear)"/>
<path d="M116.107 76.2862C116.407 77.5486 115.707 78.6247 114.54 78.6929C113.372 78.761 112.187 77.7847 111.887 76.5269C111.587 75.2691 112.287 74.1838 113.454 74.1157C114.076 74.1283 114.675 74.3491 115.156 74.7426C115.637 75.1362 115.972 75.6797 116.107 76.2862Z" fill="#D4E5FF"/>
<path d="M120.314 76.3362C120.367 76.4835 120.386 76.6413 120.369 76.7972C120.351 76.9531 120.298 77.1028 120.213 77.2347C120.128 77.3666 120.014 77.4771 119.879 77.5575C119.745 77.638 119.593 77.6862 119.437 77.6984C119.089 77.6924 118.753 77.5696 118.484 77.3496C118.214 77.1297 118.027 76.8255 117.951 76.486C117.897 76.3387 117.877 76.1807 117.894 76.0244C117.911 75.8682 117.964 75.718 118.049 75.5859C118.134 75.4537 118.249 75.3432 118.384 75.263C118.519 75.1828 118.671 75.1351 118.828 75.1238C119.176 75.1306 119.511 75.2537 119.78 75.4735C120.05 75.6933 120.237 75.9971 120.314 76.3362Z" fill="#FFCF91"/>
<g style="mix-blend-mode:multiply" opacity="0.55">
<path fill-rule="evenodd" clip-rule="evenodd" d="M162.601 95.4393C162.655 95.5867 162.674 95.7445 162.656 95.9003C162.639 96.0562 162.586 96.2059 162.501 96.3378C162.416 96.4697 162.302 96.5802 162.167 96.6607C162.032 96.7411 161.881 96.7893 161.724 96.8016C161.377 96.7956 161.041 96.6727 160.771 96.4528C160.502 96.2328 160.314 95.9286 160.239 95.5892C160.184 95.4418 160.165 95.2838 160.182 95.1276C160.199 94.9713 160.252 94.8212 160.337 94.689C160.422 94.5569 160.536 94.4463 160.672 94.3661C160.807 94.2859 160.959 94.2383 161.116 94.2269C161.463 94.2345 161.798 94.358 162.067 94.5776C162.336 94.7973 162.524 95.1006 162.601 95.4393Z" fill="#FF7575"/>
</g>
<path d="M159.094 95.6618C159.394 96.9242 158.694 98.0004 157.527 98.0685C156.359 98.1366 155.174 97.1603 154.874 95.9025C154.574 94.6447 155.274 93.5594 156.441 93.4913C157.063 93.5039 157.662 93.7247 158.143 94.1182C158.624 94.5118 158.959 95.0554 159.094 95.6618Z" fill="#D4E5FF"/>
<path d="M178.541 95.7663C178.841 97.0287 178.141 98.1094 176.974 98.1729C175.807 98.2365 174.621 97.2648 174.321 96.007C174.021 94.7492 174.721 93.6639 175.888 93.6003C177.056 93.5368 178.241 94.5131 178.541 95.7663Z" fill="#D4E5FF"/>
<path opacity="0.5" fill-rule="evenodd" clip-rule="evenodd" d="M159.957 82.598C159.685 81.3265 158.517 80.3276 157.35 80.3775L116.493 80.0687C115.326 80.1096 114.599 81.1721 114.876 82.4436C115.153 83.715 116.316 84.714 117.484 84.664L158.34 84.9728C159.508 84.941 160.23 83.8785 159.957 82.598Z" fill="#005899"/>
<path fill-rule="evenodd" clip-rule="evenodd" d="M197.357 136.102C197.234 135.493 196.911 134.943 196.438 134.539C195.965 134.136 195.37 133.903 194.749 133.877L153.893 133.573C152.725 133.614 152.003 134.676 152.276 135.948C152.399 136.556 152.723 137.106 153.196 137.508C153.669 137.911 154.263 138.143 154.883 138.168L195.74 138.477C196.907 138.45 197.62 137.369 197.357 136.102Z" fill="#E3F9F9"/>
<g style="mix-blend-mode:multiply" opacity="0.48">
<path fill-rule="evenodd" clip-rule="evenodd" d="M204.016 104.675C203.744 103.408 202.576 102.405 201.409 102.45L160.552 102.123C159.385 102.164 158.663 103.227 158.935 104.494C159.208 105.761 160.375 106.764 161.543 106.719L202.399 107.073C203.562 107.009 204.289 105.947 204.016 104.675Z" fill="#FFB875"/>
</g>
<path fill-rule="evenodd" clip-rule="evenodd" d="M194.39 123.524C194.091 122.262 192.9 121.29 191.738 121.354L124.77 121.068C123.603 121.131 122.898 122.212 123.198 123.474C123.498 124.737 124.688 125.708 125.851 125.645L192.819 125.931C193.986 125.867 194.69 124.787 194.39 123.524Z" fill="#FFEAD7"/>
<path opacity="0.5" fill-rule="evenodd" clip-rule="evenodd" d="M192.246 116.654C192.117 116.047 191.788 115.5 191.311 115.103C190.834 114.705 190.237 114.479 189.616 114.461L156.696 114.22C155.528 114.275 154.815 115.346 155.101 116.613C155.23 117.22 155.56 117.767 156.037 118.165C156.514 118.562 157.11 118.788 157.731 118.806L190.652 119.047C191.819 118.992 192.533 117.921 192.246 116.654Z" fill="#005899"/>
<path fill-rule="evenodd" clip-rule="evenodd" d="M114.753 80.7816C114.79 80.7484 114.833 80.7237 114.88 80.7096C114.928 80.6954 114.977 80.6921 115.026 80.6999C115.14 80.7408 115.171 80.8815 115.176 80.9951C115.175 81.5156 115.017 82.0236 114.722 82.4527C114.432 82.878 114.098 83.2721 113.727 83.6287C113.559 83.8013 113.318 83.9875 113.105 83.883C112.985 83.8057 112.901 83.6853 112.868 83.547C112.677 82.9839 112.514 82.3845 112.968 81.985C113.536 81.5452 114.133 81.1432 114.753 80.7816Z" fill="#FF967B"/>
<path fill-rule="evenodd" clip-rule="evenodd" d="M103.633 161.894V164.305L101.089 163.392L101.121 161.553L103.633 161.894Z" fill="#ED8B72"/>
<path fill-rule="evenodd" clip-rule="evenodd" d="M74.8646 161.926L73.4336 164.283L70.9988 164.314L72.2616 161.077L74.8646 161.926Z" fill="#ED8B72"/>
<path fill-rule="evenodd" clip-rule="evenodd" d="M81.4968 70.7146C81.5922 70.3331 81.7648 69.8927 82.1464 69.8064C82.3095 69.7914 82.473 69.8316 82.6105 69.9205C82.7481 70.0095 82.8518 70.142 82.905 70.2968C83.0035 70.6077 83.03 70.9369 82.9823 71.2595L82.6915 75.1464C82.6552 75.6005 82.6007 76.6131 81.992 76.6721C81.4696 76.7221 81.1788 75.9274 81.0834 75.5369C80.7836 74.043 81.1425 72.154 81.4968 70.7146Z" fill="#ED8B72"/>
<path fill-rule="evenodd" clip-rule="evenodd" d="M80.1522 136.497C80.6065 133.964 82.2782 116.445 82.4235 113.612L98.6498 113.312C100.04 119.528 102.738 134.277 103.311 141.043C103.924 148.494 103.688 145.711 103.765 162.085L99.4448 162.062C99.163 155.283 98.4148 148.532 97.2053 141.856C95.788 134.045 93.8801 123.238 91.9449 116.191C88.9059 132.433 81.9057 151.732 74.8873 161.926L70.6899 161.903C74.6238 153.825 78.267 146.446 80.1522 136.497Z" fill="#1A4246"/>
<path d="M80.72 73.0168C80.5337 77.6711 81.5558 86.0489 81.9965 88.4556C82.528 91.3208 83.2321 94.5357 83.7726 97.9504C83.7726 97.9504 81.6648 116.609 78.8121 138.927C85.7242 140.283 92.7972 140.626 99.8081 139.944C99.8081 139.944 99.0995 102.845 99.2903 97.9776C99.3811 95.6255 99.0268 92.1654 96.4239 90.7123C94.7807 89.9707 93.0138 89.5411 91.2135 89.4454C90.0837 89.3618 88.9626 89.1872 87.861 88.9233C87.6748 88.2558 82.9004 72.4764 82.9004 72.4764L80.72 73.0168Z" fill="#FFD29A"/>
<path fill-rule="evenodd" clip-rule="evenodd" d="M94.8976 90.6624C94.2571 91.5706 93.0805 91.6569 92.1311 91.5706C91.4284 91.5393 90.7346 91.4015 90.0733 91.1619C89.9379 91.1067 89.822 91.0125 89.7405 90.8911C89.6589 90.7698 89.6154 90.627 89.6154 90.4808C89.6154 90.3347 89.6589 90.1918 89.7405 90.0705C89.822 89.9492 89.9379 89.8549 90.0733 89.7997C90.2109 89.7544 90.3261 89.6587 90.3958 89.5318C90.6487 87.7381 90.7898 85.9304 90.8183 84.1191C91.2726 84.1191 92.3492 86.5666 92.8125 86.5394C92.8125 86.5394 92.4809 88.3557 92.9851 89.1776C93.3849 89.8133 93.1668 89.8633 94.8976 90.6624Z" fill="#ED8B72"/>
<path fill-rule="evenodd" clip-rule="evenodd" d="M96.2376 81.3901C96.1275 80.9819 95.9752 80.5862 95.7834 80.2094C95.2246 79.3013 94.0299 79.0379 92.976 79.1424C92.596 79.1661 92.2247 79.2662 91.8842 79.4366C91.5437 79.607 91.241 79.8442 90.9943 80.1341C90.7475 80.424 90.5617 80.7606 90.448 81.1238C90.3342 81.4871 90.2949 81.8695 90.3322 82.2483C90.2641 84.1963 91.536 86.7255 93.0078 87.7699C93.0432 87.8013 93.083 87.8273 93.1259 87.8471C93.4736 88.0898 93.8833 88.2284 94.307 88.2467C96.4557 88.2467 96.7055 85.5767 96.7101 84.16C96.6433 83.2235 96.4851 82.2957 96.2376 81.3901Z" fill="#ED8B72"/>
<path fill-rule="evenodd" clip-rule="evenodd" d="M96.215 82.4209C96.3136 82.3479 96.433 82.3085 96.5557 82.3085C96.6784 82.3085 96.7978 82.3479 96.8964 82.4209C96.9643 82.4861 97.0171 82.5655 97.0508 82.6535C97.0846 82.7414 97.0986 82.8357 97.0917 82.9297C97.0894 83.0211 97.0803 83.1122 97.0644 83.2022C97.0112 83.5014 96.9212 83.7928 96.7964 84.0699C96.2422 85.2919 95.3155 83.0841 96.215 82.4209Z" fill="#ED8B72"/>
<path d="M98.9269 89.2411C101.248 87.8789 113.15 81.8351 113.15 81.8351L114.967 83.3608C111.864 86.9934 103.233 91.9883 100.626 96.0751C99.0359 98.5634 98.0865 101.401 97.1507 104.203C97.2689 103.844 96.7737 102.75 96.6965 102.387C96.5375 101.756 96.3785 101.124 96.2422 100.493C95.9333 99.2173 95.6517 97.9323 95.4245 96.6381C95.1974 95.344 95.0202 94.0816 94.9203 92.7921C94.8613 92.002 94.8658 91.2981 95.6108 90.8577C96.0919 90.6294 96.5864 90.4308 97.0917 90.2628C97.7238 89.9602 98.3367 89.619 98.9269 89.2411Z" fill="#FFD29A"/>
<path fill-rule="evenodd" clip-rule="evenodd" d="M88.1972 80.6136C87.3432 82.6524 87.3614 85.0682 87.4886 87.2795C87.5249 87.9289 87.8111 89.5045 87.8111 89.5045C87.8111 89.5045 89.8553 90.4127 90.6548 90.4717C94.6932 90.7396 96.6102 90.2265 99.6038 88.4783C99.3221 88.1332 98.241 87.0888 98.241 87.0888C99.522 88.1105 100.113 88.0969 100.113 88.0969L102.952 85.3724C102.952 85.3724 99.0359 82.7251 98.1592 81.4582C94.3797 76.0683 89.5373 77.4396 88.1972 80.6136Z" fill="#192147"/>
<path d="M101.094 163.275L103.633 163.42C103.633 163.42 107.031 164.088 107.64 164.269C107.804 164.308 107.951 164.402 108.056 164.535C108.16 164.667 108.217 164.832 108.217 165.001L101.026 164.951L101.094 163.275Z" fill="#3C92C1"/>
<path d="M71.4394 163.179L73.947 163.438C73.947 163.438 77.0042 164.088 77.6129 164.269C77.7774 164.308 77.924 164.402 78.0287 164.534C78.1335 164.667 78.1902 164.832 78.1898 165.001L70.6672 164.951L71.4394 163.179Z" fill="#3C92C1"/>
<path d="M81.097 70.751C81.0007 69.8612 80.9855 68.9645 81.0516 68.0719C81.1924 67.2727 81.8329 67.2818 82.1237 67.0775C82.4144 66.8731 82.7733 66.6234 83.1003 66.7823C83.4274 66.9413 83.064 69.0527 83.3275 69.3161C83.5909 69.5795 84.0316 68.6668 84.3223 68.7712C84.613 68.8756 84.554 69.3524 84.1224 69.92C83.6911 70.5892 83.1379 71.1714 82.4916 71.6365C81.8011 72.0315 81.6149 71.9225 81.5195 71.7227C81.4241 71.5229 81.097 70.751 81.097 70.751Z" fill="#ED8B72"/>
<path d="M113.74 81.3855C113.74 81.3855 115.703 79.6327 116.148 79.4693C116.593 79.3058 117.752 79.6827 118.065 80.0596C118.379 80.4365 117.247 81.5671 116.743 81.8078C116.083 82.0359 115.408 82.215 114.722 82.3436C114.722 82.3436 114.376 81.944 114.408 81.8396C114.44 81.7351 113.74 81.3855 113.74 81.3855Z" fill="#FF967B"/>
<path d="M115.853 79.6652C115.853 79.6652 117.252 78.5341 117.538 78.2388C117.824 77.9435 117.856 78.1298 117.992 78.2388C118.215 78.4023 117.084 79.6516 117.084 79.6516L115.853 79.6652Z" fill="#FF967B"/>
<path fill-rule="evenodd" clip-rule="evenodd" d="M162.31 76.5409L162.383 76.4456L163.405 75.0833H162.992C163.111 74.532 163.094 73.96 162.942 73.4169L156.091 48.6422C155.893 47.9231 155.469 47.2867 154.882 46.8265C154.295 46.3662 153.576 46.1066 152.83 46.0857L121.031 45.1776C120.299 45.1557 119.578 45.3672 118.974 45.7815V45.5181L118.297 46.4263C118.216 46.5207 118.14 46.6192 118.07 46.7214L118.042 46.7623C117.78 47.1525 117.6 47.5922 117.513 48.0544C117.426 48.5166 117.435 48.9917 117.538 49.4505L123.275 74.77C123.447 75.5361 123.872 76.2218 124.483 76.7162C125.093 77.2107 125.852 77.4849 126.637 77.4945L159.539 77.8805C160.06 77.8868 160.575 77.7758 161.047 77.5557C161.519 77.3356 161.935 77.012 162.265 76.609L162.31 76.5409Z" fill="#003160"/>
<path fill-rule="evenodd" clip-rule="evenodd" d="M118.433 48.2603L124.17 73.5799C124.343 74.3456 124.768 75.0308 125.378 75.5251C125.988 76.0194 126.747 76.2939 127.532 76.3044L160.434 76.6949C160.976 76.7018 161.511 76.5828 161.999 76.3471C162.486 76.1113 162.912 75.7655 163.242 75.3368C163.573 74.9082 163.799 74.4085 163.903 73.8774C164.007 73.3463 163.986 72.7982 163.841 72.2767L156.991 47.4657C156.791 46.7466 156.366 46.1104 155.779 45.6504C155.191 45.1903 154.471 44.9305 153.725 44.9092L121.926 44.001C121.395 43.988 120.868 44.0963 120.385 44.3176C119.902 44.5388 119.476 44.8673 119.139 45.278C118.802 45.6887 118.564 46.1708 118.441 46.6876C118.319 47.2044 118.316 47.7423 118.433 48.2603Z" fill="#005899"/>
<path d="M139.216 48.996C145.771 49.1503 152.071 54.2451 153.298 60.3707C154.524 66.4962 150.186 71.3367 143.631 71.1778C137.076 71.0189 130.775 65.9286 129.549 59.8258C128.345 53.6684 132.661 48.837 139.216 48.996ZM139.048 48.1514C131.984 47.9743 127.318 53.1826 128.622 59.7849C129.926 66.3873 136.708 71.8726 143.772 72.0451C150.836 72.2177 155.501 67.0139 154.22 60.4116V60.3888C152.907 53.7911 146.129 48.3058 139.07 48.1287L139.048 48.1514Z" fill="white"/>
<path d="M143.045 68.2679C142.904 68.2707 142.766 68.228 142.652 68.1462C142.537 68.0643 142.452 67.9477 142.409 67.8136C142.389 67.7557 142.384 67.6938 142.393 67.6333C142.402 67.5728 142.426 67.5154 142.462 67.466C142.498 67.4165 142.546 67.3765 142.6 67.3492C142.655 67.322 142.716 67.3083 142.777 67.3094H142.859C144.014 67.3538 145.162 67.1135 146.202 66.6098C146.322 66.5428 146.461 66.5201 146.596 66.5459C146.73 66.5717 146.852 66.6442 146.938 66.7506C146.983 66.7931 147.02 66.8445 147.044 66.9015C147.069 66.9586 147.082 67.0201 147.082 67.0822C147.082 67.1444 147.069 67.2059 147.044 67.263C147.02 67.32 146.983 67.3714 146.938 67.4139L146.834 67.4638C145.656 68.0401 144.355 68.3163 143.045 68.2679Z" fill="white"/>
<path d="M149.923 62.6184H149.8C149.665 62.5876 149.543 62.5131 149.455 62.4064C149.366 62.2997 149.315 62.1667 149.309 62.0281C149.559 58.3591 146.584 54.5267 142.459 53.2598C142.33 53.2174 142.22 53.1308 142.149 53.0154C142.077 52.8999 142.049 52.763 142.068 52.6286C142.102 52.5257 142.174 52.4399 142.27 52.3898C142.366 52.3397 142.478 52.3293 142.582 52.3607C146.402 53.5368 149.468 56.7154 150.182 60.289C150.316 60.9321 150.363 61.5903 150.322 62.2461C150.321 62.2968 150.309 62.3466 150.288 62.3928C150.267 62.4389 150.237 62.4805 150.2 62.5151C150.163 62.5496 150.119 62.5766 150.071 62.5943C150.024 62.612 149.973 62.6202 149.923 62.6184Z" fill="white"/>
<path d="M143.045 68.2679C141.614 68.2269 140.205 67.8946 138.907 67.2912C138.787 67.233 138.694 67.1321 138.645 67.0085C138.596 66.8849 138.596 66.7475 138.643 66.6234C138.702 66.5351 138.791 66.4703 138.893 66.4404C138.995 66.4105 139.104 66.4174 139.202 66.4599C140.342 66.9919 141.578 67.2871 142.836 67.3276C142.977 67.3247 143.115 67.3674 143.229 67.4493C143.344 67.5311 143.429 67.6477 143.472 67.7818C143.492 67.8398 143.497 67.9016 143.488 67.9621C143.479 68.0226 143.455 68.08 143.419 68.1295C143.383 68.1789 143.335 68.2189 143.281 68.2462C143.226 68.2735 143.165 68.2871 143.104 68.2861H143.027L143.045 68.2679Z" fill="white"/>
<path d="M133.864 62.2188C133.745 62.2113 133.63 62.1726 133.53 62.1064C133.43 62.0402 133.35 61.949 133.297 61.8419C133.01 61.2191 132.797 60.5655 132.661 59.8939C131.943 56.3384 133.769 53.2416 137.176 52.2381C137.308 52.1971 137.451 52.2012 137.581 52.2497C137.71 52.2982 137.821 52.3883 137.894 52.506C137.934 52.5532 137.962 52.609 137.977 52.6691C137.991 52.7291 137.992 52.7918 137.978 52.8521C137.965 52.9124 137.937 52.9687 137.898 53.0166C137.859 53.0645 137.809 53.1026 137.753 53.1281C137.722 53.1413 137.69 53.1505 137.657 53.1553C134.023 54.236 132.533 57.9459 134.237 61.6603C134.268 61.713 134.286 61.7725 134.289 61.8336C134.292 61.8946 134.28 61.9556 134.255 62.0112C134.229 62.0669 134.191 62.1156 134.143 62.1533C134.095 62.191 134.038 62.2166 133.978 62.2279C133.94 62.2303 133.902 62.2272 133.864 62.2188Z" fill="white"/>
<path d="M140.11 53.4959C140.306 53.5035 140.494 53.5738 140.646 53.6965C140.798 53.8192 140.907 53.9877 140.955 54.1771C140.974 54.2594 140.972 54.3449 140.951 54.4266C140.93 54.5082 140.89 54.5838 140.834 54.6471C140.778 54.7103 140.709 54.7596 140.63 54.7907C140.552 54.8219 140.467 54.8341 140.383 54.8264C140.188 54.8179 140.002 54.7472 139.85 54.6245C139.699 54.5019 139.591 54.3339 139.543 54.1453C139.523 54.0624 139.524 53.9761 139.545 53.8936C139.566 53.811 139.606 53.7347 139.663 53.6711C139.719 53.6074 139.79 53.5583 139.87 53.5278C139.949 53.4973 140.035 53.4864 140.12 53.4959H140.11ZM139.929 52.6286C139.735 52.6063 139.539 52.6307 139.357 52.6998C139.175 52.7688 139.012 52.8806 138.882 53.0256C138.752 53.1706 138.659 53.3447 138.61 53.5332C138.562 53.7217 138.559 53.9192 138.602 54.1089C138.713 54.5421 138.961 54.9278 139.309 55.2086C139.657 55.4893 140.086 55.6499 140.533 55.6664C140.726 55.6891 140.922 55.6648 141.104 55.5957C141.286 55.5267 141.449 55.4148 141.579 55.2696C141.708 55.1244 141.801 54.9502 141.849 54.7616C141.897 54.573 141.899 54.3756 141.855 54.1861C141.746 53.753 141.499 53.367 141.152 53.0861C140.804 52.8052 140.375 52.6447 139.929 52.6286Z" fill="white"/>
<path d="M143.027 61.3333L140.46 61.2561C140.346 61.2546 140.234 61.2194 140.14 61.1547C140.045 61.0901 139.972 60.999 139.929 60.8928L138.566 56.9242C138.547 56.8809 138.538 56.8342 138.538 56.787C138.539 56.7399 138.55 56.6934 138.569 56.6506C138.589 56.6078 138.617 56.5696 138.653 56.5385C138.688 56.5074 138.73 56.4841 138.775 56.4701L138.929 56.4202C139.502 56.2133 140.106 56.1058 140.715 56.1023C141.366 56.1448 142.009 56.2793 142.623 56.5019L142.818 56.5609C142.922 56.5943 143.014 56.6571 143.084 56.7417C143.153 56.8263 143.196 56.9291 143.209 57.0377L143.395 60.9791C143.397 61.0274 143.389 61.0755 143.371 61.1203C143.353 61.1652 143.326 61.2057 143.291 61.2392C143.256 61.2727 143.214 61.2984 143.169 61.3146C143.123 61.3308 143.075 61.3372 143.027 61.3333ZM140.687 60.4251L142.459 60.466L142.305 57.242C141.846 57.0817 141.368 56.9854 140.883 56.956C140.433 56.9586 139.987 57.0337 139.561 57.1785L140.687 60.4251Z" fill="white"/>
<path d="M136.431 57.905C136.626 57.9134 136.812 57.9842 136.964 58.1069C137.115 58.2295 137.223 58.3975 137.271 58.5861C137.29 58.6687 137.289 58.7545 137.267 58.8364C137.246 58.9183 137.205 58.9939 137.149 59.057C137.093 59.1201 137.022 59.1688 136.943 59.199C136.864 59.2293 136.779 59.2402 136.694 59.2309C136.495 59.2242 136.303 59.1522 136.149 59.0258C135.995 58.8994 135.886 58.7257 135.84 58.5316C135.822 58.449 135.823 58.3632 135.844 58.2813C135.866 58.1994 135.906 58.1238 135.963 58.0607C136.019 57.9976 136.09 57.9489 136.169 57.9187C136.248 57.8884 136.333 57.8775 136.417 57.8868L136.431 57.905ZM136.249 57.0422C136.056 57.0221 135.86 57.0484 135.679 57.119C135.498 57.1896 135.336 57.3024 135.207 57.448C135.078 57.5937 134.986 57.768 134.938 57.9565C134.89 58.145 134.888 58.3421 134.932 58.5316C135.044 58.9637 135.293 59.3482 135.64 59.6286C135.988 59.909 136.416 60.0704 136.863 60.0891C137.056 60.1117 137.252 60.0875 137.434 60.0184C137.616 59.9493 137.779 59.8375 137.908 59.6923C138.038 59.5471 138.131 59.3729 138.179 59.1843C138.227 58.9957 138.229 58.7983 138.184 58.6088C138.073 58.1788 137.826 57.7961 137.48 57.5173C137.134 57.2385 136.707 57.0783 136.263 57.0604L136.249 57.0422Z" fill="white"/>
<path d="M145.589 58.123C145.784 58.1315 145.97 58.2023 146.122 58.3249C146.273 58.4476 146.381 58.6156 146.429 58.8042C146.447 58.8878 146.444 58.9744 146.421 59.0567C146.398 59.139 146.356 59.2145 146.297 59.2769C146.239 59.3393 146.166 59.3867 146.086 59.4151C146.005 59.4434 145.919 59.4519 145.834 59.4399C145.64 59.4317 145.454 59.3616 145.303 59.2398C145.151 59.118 145.043 58.951 144.994 58.7633C144.974 58.6804 144.975 58.5941 144.996 58.5116C145.017 58.429 145.057 58.3528 145.114 58.2891C145.17 58.2255 145.241 58.1763 145.321 58.1458C145.4 58.1154 145.486 58.1044 145.571 58.114L145.589 58.123ZM145.403 57.2739C145.209 57.2516 145.013 57.276 144.831 57.345C144.649 57.4141 144.486 57.5258 144.356 57.6709C144.226 57.8159 144.133 57.99 144.084 58.1785C144.036 58.367 144.033 58.5644 144.076 58.7542C144.187 59.187 144.435 59.5723 144.783 59.8529C145.131 60.1336 145.56 60.2945 146.007 60.3117C146.2 60.334 146.396 60.3097 146.578 60.2406C146.761 60.1715 146.923 60.0598 147.053 59.9147C147.183 59.7697 147.277 59.5956 147.325 59.4071C147.374 59.2186 147.377 59.0212 147.333 58.8314C147.222 58.4028 146.976 58.0212 146.632 57.7425C146.288 57.4638 145.863 57.3028 145.421 57.283L145.403 57.2739Z" fill="white"/>
<path d="M148.414 65.9558L145.834 65.8968C145.721 65.8874 145.613 65.8468 145.521 65.7794C145.43 65.7121 145.359 65.6207 145.316 65.5154L143.954 61.5467C143.935 61.5034 143.925 61.4567 143.926 61.4096C143.927 61.3624 143.937 61.3159 143.957 61.2731C143.976 61.2303 144.005 61.1921 144.04 61.161C144.076 61.1299 144.117 61.1066 144.163 61.0926L144.317 61.0427C144.89 60.8373 145.494 60.7313 146.102 60.7294C146.754 60.769 147.396 60.9021 148.01 61.1244L148.201 61.188C148.304 61.217 148.396 61.2755 148.466 61.3561C148.536 61.4368 148.582 61.5362 148.596 61.6421L148.782 65.5835C148.786 65.633 148.78 65.6828 148.763 65.7295C148.746 65.7763 148.719 65.8187 148.684 65.8541C148.649 65.8894 148.607 65.9168 148.56 65.9344C148.514 65.952 148.464 65.9593 148.414 65.9558ZM146.08 65.0477L147.847 65.0885L147.692 61.8646C147.234 61.7052 146.755 61.6104 146.27 61.583C145.822 61.5815 145.376 61.6567 144.953 61.8055L146.08 65.0477Z" fill="white"/>
<path d="M139.266 65.738L136.69 65.6744C136.575 65.6703 136.463 65.6324 136.37 65.5654C136.276 65.4983 136.204 65.4052 136.163 65.2975L134.777 61.3288C134.759 61.2859 134.749 61.2394 134.749 61.1925C134.75 61.1456 134.76 61.0993 134.779 61.0565C134.798 61.0137 134.826 60.9755 134.861 60.9442C134.896 60.9129 134.937 60.8892 134.982 60.8748L135.141 60.8248C135.713 60.6179 136.317 60.5104 136.926 60.507C137.578 60.5498 138.22 60.6844 138.834 60.9065L139.029 60.9656C139.13 60.9973 139.22 61.0567 139.289 61.1369C139.358 61.2172 139.404 61.3151 139.42 61.4197L139.606 65.3611C139.611 65.4088 139.606 65.457 139.592 65.5026C139.577 65.5482 139.552 65.5902 139.52 65.6257C139.488 65.6613 139.449 65.6897 139.405 65.7091C139.361 65.7284 139.313 65.7382 139.266 65.738ZM136.926 64.8298L138.698 64.8707L138.539 61.6467C138.082 61.4864 137.605 61.3901 137.121 61.3606C136.672 61.3632 136.225 61.4383 135.8 61.5831L136.926 64.8298Z" fill="white"/>
<g style="mix-blend-mode:multiply" opacity="0.48">
<path fill-rule="evenodd" clip-rule="evenodd" d="M40.6585 76.9673L61.2139 77.0082C61.573 77.0083 61.9231 77.1209 62.2148 77.3303C62.5065 77.5396 62.7252 77.8351 62.8402 78.1752L68.2914 96.1023C68.378 96.3593 68.4027 96.6331 68.3633 96.9014C68.324 97.1697 68.2218 97.425 68.065 97.6463C67.9082 97.8677 67.7013 98.0488 67.4612 98.175C67.2211 98.3013 66.9545 98.369 66.6833 98.3727L45.9915 98.6542C45.6157 98.6583 45.2489 98.5393 44.9471 98.3155C44.6452 98.0917 44.4249 97.7753 44.3199 97.4146L39.0004 79.1651C38.9254 78.9084 38.9114 78.6378 38.9596 78.3748C39.0077 78.1118 39.1166 77.8637 39.2777 77.6502C39.4387 77.4368 39.6474 77.2639 39.8872 77.1453C40.1269 77.0267 40.391 76.9658 40.6585 76.9673Z" fill="#F46666"/>
</g>
<path d="M70.5945 94.7854C70.705 94.6484 70.7939 94.4953 70.8579 94.3314L71.4757 93.2779L70.8988 93.237C70.901 93.2129 70.901 93.1885 70.8988 93.1644L65.4295 75.2373C65.3139 74.8976 65.0951 74.6025 64.8035 74.3932C64.5119 74.184 64.1622 74.0711 63.8032 74.0703L43.2432 74.0294C43.2023 74.0294 43.1615 74.0294 43.1206 74.0294L42.6663 73.321L41.7623 74.8785C41.6415 75.0817 41.5648 75.308 41.5374 75.5427C41.51 75.7774 41.5325 76.0153 41.6033 76.2408L46.9137 94.4903C47.0188 94.851 47.2391 95.1674 47.5409 95.3912C47.8427 95.6151 48.2096 95.734 48.5854 95.7299L69.2726 95.4484C69.5219 95.446 69.7676 95.3885 69.9922 95.2802C70.2168 95.1719 70.4147 95.0153 70.5717 94.8218L70.5945 94.7854Z" fill="#ED6161"/>
<path opacity="0.97" d="M44.0382 72.6536L64.5982 72.6944C64.9561 72.6945 65.305 72.8066 65.5959 73.0151C65.8868 73.2237 66.105 73.518 66.2199 73.8569L71.6711 91.7885C71.7577 92.0455 71.7824 92.3194 71.743 92.5877C71.7037 92.856 71.6015 93.1112 71.4447 93.3326C71.2879 93.5539 71.0811 93.7351 70.8409 93.8613C70.6008 93.9875 70.3343 94.0553 70.063 94.0589L49.3713 94.3405C48.9985 94.3411 48.6356 94.2212 48.3367 93.9986C48.0379 93.7759 47.8191 93.4626 47.7132 93.1054L42.3801 74.8513C42.3061 74.5947 42.2929 74.3244 42.3414 74.0618C42.3899 73.7992 42.499 73.5515 42.6598 73.3383C42.8207 73.1251 43.0289 72.9522 43.2682 72.8334C43.5074 72.7145 43.771 72.653 44.0382 72.6536Z" fill="#FF8A8A"/>
<path d="M55.2767 75.5959C50.6068 75.5959 47.795 79.0651 49.0033 83.3653C50.2116 87.6654 54.9814 91.1664 59.6422 91.1755C64.3029 91.1845 67.1193 87.7063 65.911 83.4061C64.6981 79.1015 59.942 75.6141 55.2767 75.5959ZM59.524 90.6169C55.1858 90.6169 50.7613 87.3703 49.6347 83.3517C48.5081 79.333 51.0884 76.1454 55.4357 76.1499C59.783 76.1545 64.1984 79.3966 65.3205 83.4152C66.4379 87.4066 63.835 90.6396 59.5059 90.6351" fill="white"/>
<path d="M59.2333 84.8229C59.2137 84.3758 59.2784 83.9291 59.4241 83.506C59.649 82.9136 59.701 82.2696 59.574 81.6488C59.3402 80.9604 58.9009 80.3602 58.3152 79.9291C57.7296 79.498 57.0259 79.2566 56.2988 79.2377C54.8633 79.2377 54.0002 80.3048 54.3727 81.6307C54.6581 82.3603 55.0841 83.0268 55.6265 83.5923C55.9696 83.9695 56.274 84.3803 56.535 84.8183C56.4996 84.8144 56.4638 84.8193 56.4308 84.8327C56.3978 84.8462 56.3687 84.8676 56.3461 84.8951C56.3236 84.9227 56.3082 84.9554 56.3016 84.9904C56.2949 85.0253 56.297 85.0614 56.3079 85.0953L56.7621 86.7936C56.7897 86.8736 56.841 86.9434 56.9091 86.9937C56.9773 87.044 57.0591 87.0724 57.1437 87.0751H57.23C57.4042 87.3936 57.6715 87.6513 57.9963 87.8136C58.3211 87.9759 58.6877 88.0351 59.0471 87.9833C59.2571 87.945 59.4461 87.8319 59.5789 87.6648C59.7118 87.4978 59.7794 87.2883 59.7694 87.0751H59.8557C59.8912 87.0786 59.9271 87.073 59.9599 87.059C59.9928 87.045 60.0216 87.023 60.0438 86.995C60.0659 86.967 60.0807 86.9339 60.0867 86.8987C60.0927 86.8635 60.0898 86.8274 60.0783 86.7936L59.624 85.0953C59.5957 85.0161 59.5441 84.9473 59.476 84.8979C59.4079 84.8485 59.3265 84.8207 59.2424 84.8183L59.2333 84.8229ZM57.2936 86.5166L57.2527 86.335H57.9114C58.084 86.3622 58.2067 86.2578 58.1931 86.1079C58.1775 86.0251 58.1362 85.9494 58.075 85.8915C58.0138 85.8336 57.9359 85.7965 57.8524 85.7855H57.0756L56.962 85.3768H59.0698L59.3923 86.5211L57.2936 86.5166ZM56.1035 83.338C55.6265 82.8436 55.2459 82.2646 54.9814 81.6307C54.6952 80.6135 55.3585 79.7917 56.4623 79.7917C57.0209 79.8036 57.5624 79.9868 58.0133 80.3166C58.4643 80.6463 58.803 81.1067 58.9835 81.6352C59.0781 82.174 59.0231 82.7284 58.8245 83.2381C58.6459 83.7462 58.5747 84.2859 58.6155 84.8229H57.1301C56.8519 84.2858 56.5036 83.788 56.0944 83.3426L56.1035 83.338ZM58.6155 87.4565C58.4702 87.4522 58.3276 87.4157 58.198 87.3497C58.0684 87.2838 57.9551 87.19 57.866 87.0751H59.1561C59.1239 87.1913 59.0525 87.2928 58.9539 87.3623C58.8554 87.4318 58.7358 87.4651 58.6155 87.4565Z" fill="white"/>
<path d="M58.0795 82.2624H58.452C58.6246 82.2624 58.7427 82.1716 58.72 82.0217C58.6999 81.94 58.6551 81.8665 58.5917 81.8112C58.5282 81.7559 58.4493 81.7215 58.3657 81.7128H57.766C57.7218 81.7102 57.6777 81.7204 57.639 81.7421C57.6004 81.7639 57.5688 81.7962 57.548 81.8354L57.4026 82.1716L56.6576 81.0904C56.609 81.019 56.5376 80.9662 56.4551 80.9406C56.3726 80.915 56.2838 80.9182 56.2034 80.9496C56.1775 80.9606 56.154 80.9768 56.1345 80.997C56.115 81.0173 56.0998 81.0414 56.0898 81.0677L55.8899 81.79H55.7128C55.5401 81.79 55.4129 81.8672 55.4311 82.0217C55.4466 82.1033 55.4874 82.1779 55.5478 82.235C55.6081 82.2921 55.6849 82.3287 55.7673 82.3396H56.2215C56.2694 82.3428 56.317 82.3297 56.3566 82.3025C56.3961 82.2753 56.4254 82.2356 56.4396 82.1897L56.5304 81.8672L57.2527 82.862C57.2877 82.9115 57.3323 82.9535 57.3838 82.9855C57.4353 83.0175 57.4927 83.0388 57.5525 83.0483H57.5843C57.6288 83.052 57.6733 83.0424 57.7122 83.0205C57.7511 82.9986 57.7825 82.9656 57.8024 82.9256L58.0795 82.2624Z" fill="white"/>
<path d="M56.2352 79.0166C56.2699 79.0189 56.3046 79.0128 56.3363 78.9987C56.3681 78.9845 56.3959 78.9629 56.4174 78.9356C56.4388 78.9083 56.4533 78.8762 56.4596 78.842C56.4658 78.8078 56.4637 78.7726 56.4532 78.7395L56.3033 78.2125C56.2835 78.1315 56.2394 78.0585 56.1768 78.0033C56.1143 77.9481 56.0364 77.9133 55.9535 77.9036C55.9189 77.8959 55.883 77.8966 55.8487 77.9059C55.8145 77.9151 55.783 77.9326 55.7571 77.9568C55.7311 77.9809 55.7115 78.0111 55.6998 78.0446C55.6881 78.078 55.6848 78.1139 55.6901 78.1489C55.6886 78.1701 55.6886 78.1914 55.6901 78.2125L55.8354 78.7395C55.8635 78.818 55.9143 78.8864 55.9815 78.9357C56.0487 78.9851 56.1292 79.0133 56.2125 79.0166" fill="white"/>
<path d="M58.661 79.9239C58.7096 79.9504 58.7646 79.963 58.82 79.9602C58.8668 79.9645 58.9138 79.9536 58.9539 79.929C58.994 79.9045 59.0251 79.8676 59.0426 79.8239L59.3197 79.0471C59.3354 78.9685 59.3226 78.8869 59.2834 78.8169C59.2443 78.7469 59.1814 78.6932 59.1061 78.6655C59.0748 78.6447 59.0394 78.6308 59.0023 78.6245C58.9652 78.6183 58.9272 78.62 58.8908 78.6294C58.8544 78.6388 58.8203 78.6558 58.7909 78.6793C58.7615 78.7027 58.7373 78.7321 58.72 78.7655L58.452 79.5468C58.4386 79.6252 58.4531 79.7059 58.4929 79.7747C58.5327 79.8436 58.5954 79.8964 58.6701 79.9239" fill="white"/>
<path d="M59.9147 81.8583C59.9934 81.9413 60.1004 81.9916 60.2145 81.9991C60.2628 81.998 60.3099 81.9839 60.3508 81.9582L61.8181 81.0497C61.9407 80.9725 61.9407 80.8044 61.8181 80.6681C61.766 80.601 61.692 80.5542 61.609 80.536C61.526 80.5177 61.4393 80.5291 61.3638 80.5682L59.8966 81.4767C59.7739 81.5539 59.7739 81.7266 59.8966 81.8583" fill="white"/>
<path d="M59.7557 83.388C59.7834 83.4664 59.8343 83.5345 59.9017 83.5832C59.9691 83.6319 60.0497 83.6589 60.1328 83.6606H63.1582C63.1925 83.6693 63.2284 83.6694 63.2627 83.6608C63.2971 83.6522 63.3287 83.6352 63.3548 83.6113C63.381 83.5874 63.4008 83.5574 63.4124 83.524C63.4241 83.4906 63.4272 83.4548 63.4216 83.4198C63.403 83.3382 63.3592 83.2645 63.2965 83.2091C63.2337 83.1536 63.1552 83.1193 63.0718 83.1109C63.0494 83.1064 63.0262 83.1064 63.0037 83.1109H59.9783C59.9435 83.1069 59.9082 83.1117 59.8758 83.1249C59.8433 83.1381 59.8146 83.1592 59.7925 83.1863C59.7703 83.2135 59.7553 83.2458 59.7489 83.2802C59.7425 83.3147 59.7448 83.3502 59.7557 83.3835" fill="white"/>
<path d="M63.1581 85.7407L60.0873 84.3234C60.056 84.3026 60.0206 84.2886 59.9835 84.2824C59.9464 84.2762 59.9084 84.2778 59.872 84.2872C59.8355 84.2967 59.8015 84.3137 59.7721 84.3371C59.7427 84.3605 59.7185 84.3899 59.7012 84.4233C59.6876 84.5024 59.7019 84.5837 59.7417 84.6533C59.7814 84.7229 59.8442 84.7765 59.9192 84.8049L62.9764 86.2313C63.0287 86.252 63.0839 86.2642 63.14 86.2676C63.175 86.2708 63.2103 86.2652 63.2426 86.2514C63.275 86.2377 63.3034 86.2161 63.3255 86.1887C63.3475 86.1613 63.3624 86.1288 63.3689 86.0943C63.3753 86.0597 63.3732 86.0241 63.3626 85.9905C63.3456 85.9371 63.3174 85.888 63.2797 85.8464C63.2421 85.8049 63.196 85.7719 63.1445 85.7498" fill="white"/>
<path d="M60.9186 86.8118C60.8661 86.7453 60.7924 86.6988 60.7099 86.6798C60.6273 86.6608 60.5407 86.6705 60.4644 86.7074C60.3417 86.7846 60.3417 86.9527 60.4644 87.0844L61.3002 87.9929C61.3789 88.0759 61.4859 88.1262 61.6 88.1337C61.6494 88.1348 61.6982 88.1223 61.7408 88.0974C61.8635 88.0247 61.868 87.8566 61.7408 87.7249L60.9186 86.8118Z" fill="white"/>
<path d="M58.8245 88.2193C58.79 88.2183 58.7558 88.2255 58.7248 88.2406C58.6938 88.2556 58.6669 88.2779 58.6463 88.3055C58.6258 88.3332 58.6123 88.3654 58.6069 88.3995C58.6015 88.4335 58.6045 88.4683 58.6155 88.501V88.5646C58.6347 88.6459 58.6787 88.7193 58.7413 88.7746C58.804 88.8299 58.8822 88.8645 58.9653 88.8735C58.9999 88.8813 59.0359 88.8805 59.0701 88.8712C59.1043 88.862 59.1358 88.8445 59.1617 88.8203C59.1877 88.7962 59.2074 88.766 59.2191 88.7326C59.2307 88.6991 59.2341 88.6632 59.2288 88.6282C59.2303 88.607 59.2303 88.5858 59.2288 88.5646V88.501C59.2013 88.4221 59.1505 88.3534 59.0832 88.304C59.0159 88.2545 58.9352 88.2266 58.8517 88.2239" fill="white"/>
<path d="M53.8821 79.8194C53.9201 79.8614 53.9663 79.8952 54.0179 79.9187C54.0694 79.9421 54.1253 79.9547 54.1819 79.9557C54.2298 79.9562 54.2769 79.9436 54.3182 79.9193C54.3474 79.8973 54.371 79.8688 54.3873 79.8361C54.4036 79.8034 54.4121 79.7674 54.4121 79.7308C54.4121 79.6943 54.4036 79.6582 54.3873 79.6255C54.371 79.5928 54.3474 79.5643 54.3182 79.5423L53.6186 78.761C53.5655 78.6952 53.4916 78.6495 53.409 78.6314C53.3265 78.6132 53.2402 78.6237 53.1644 78.661C53.0417 78.7383 53.0417 78.9063 53.1644 79.0381L53.8821 79.8194Z" fill="white"/>
<path d="M51.8016 81.0315L53.7822 81.94C53.8327 81.9663 53.8887 81.9803 53.9457 81.9809C53.9809 81.9835 54.0162 81.9774 54.0484 81.9631C54.0807 81.9487 54.1088 81.9266 54.1304 81.8987C54.152 81.8708 54.1664 81.838 54.1722 81.8032C54.178 81.7684 54.1751 81.7327 54.1637 81.6993C54.1475 81.6467 54.12 81.5983 54.0832 81.5575C54.0463 81.5167 54.0009 81.4845 53.9502 81.463L51.9696 80.5545C51.9387 80.5338 51.9036 80.5199 51.8669 80.5137C51.8301 80.5075 51.7924 80.5092 51.7564 80.5186C51.7203 80.5281 51.6866 80.545 51.6576 80.5685C51.6286 80.5919 51.6049 80.6212 51.5881 80.6545C51.5732 80.733 51.5865 80.8143 51.6255 80.884C51.6646 80.9538 51.7269 81.0076 51.8016 81.036" fill="white"/>
<path d="M55.1768 83.3836C55.1503 83.3046 55.1006 83.2354 55.0341 83.1851C54.9676 83.1349 54.8875 83.1059 54.8043 83.1019H51.7698C51.7355 83.0932 51.6995 83.0931 51.6652 83.1017C51.6309 83.1103 51.5992 83.1274 51.5731 83.1512C51.547 83.1751 51.5272 83.2051 51.5155 83.2385C51.5039 83.272 51.5007 83.3077 51.5063 83.3427C51.5261 83.4237 51.5703 83.4967 51.6328 83.552C51.6953 83.6072 51.7732 83.6419 51.8561 83.6516H54.9496C54.9845 83.6553 55.0197 83.6503 55.0522 83.6371C55.0847 83.6239 55.1135 83.6029 55.1359 83.5759C55.1584 83.549 55.1739 83.5169 55.181 83.4826C55.1881 83.4483 55.1866 83.4127 55.1768 83.379" fill="white"/>
<path d="M55.3721 84.3189L53.1008 85.7271C52.9781 85.8044 52.9781 85.9724 53.1008 86.1042C53.1387 86.1466 53.1848 86.181 53.2363 86.2052C53.2878 86.2294 53.3437 86.2429 53.4006 86.245C53.45 86.2461 53.4987 86.2335 53.5414 86.2086L55.8127 84.7959C55.8411 84.7733 55.864 84.7447 55.8798 84.712C55.8956 84.6794 55.9037 84.6436 55.9037 84.6074C55.9037 84.5711 55.8956 84.5353 55.8798 84.5027C55.864 84.4701 55.8411 84.4414 55.8127 84.4188C55.7606 84.3517 55.6867 84.3049 55.6037 84.2867C55.5207 84.2684 55.4339 84.2798 55.3585 84.3189" fill="white"/>
<path d="M56.3442 86.6846C56.3128 86.6638 56.2775 86.6498 56.2404 86.6436C56.2033 86.6374 56.1653 86.639 56.1288 86.6484C56.0924 86.6579 56.0584 86.6749 56.029 86.6983C55.9995 86.7218 55.9754 86.7511 55.9581 86.7845L55.6401 87.6931C55.6255 87.771 55.6389 87.8516 55.678 87.9206C55.7171 87.9896 55.7792 88.0425 55.8536 88.0701C55.8849 88.0909 55.9203 88.1049 55.9574 88.1111C55.9945 88.1173 56.0325 88.1157 56.0689 88.1062C56.1054 88.0968 56.1394 88.0798 56.1688 88.0564C56.1982 88.0329 56.2224 88.0036 56.2397 87.9702L56.5577 87.0616C56.5723 86.9837 56.5589 86.9031 56.5198 86.8341C56.4807 86.7651 56.4185 86.7122 56.3442 86.6846Z" fill="white"/>
<path fill-rule="evenodd" clip-rule="evenodd" d="M214.719 95.4167L214.033 95.7708C214.027 95.6165 214.008 95.463 213.974 95.3122L210.558 80.8634C210.435 80.3599 210.151 79.9102 209.749 79.5825C209.347 79.2548 208.85 79.0668 208.332 79.047L195.317 78.5021C194.834 78.4887 194.359 78.6234 193.954 78.8881L194.045 78.2842L193.2 79.6464C192.883 80.1469 192.767 80.7484 192.873 81.3311L195.667 96.5473C195.77 97.1038 196.067 97.6058 196.505 97.9641C196.944 98.3224 197.495 98.5139 198.061 98.5044L211.689 98.2819C212.066 98.2754 212.437 98.1789 212.769 98.0004C213.102 97.8219 213.387 97.5666 213.601 97.2557L214.719 95.4167Z" fill="#BA9A46"/>
<path d="M196.258 76.9809L209.268 77.5258C209.786 77.5448 210.284 77.7325 210.686 78.0604C211.087 78.3882 211.371 78.8383 211.494 79.3421L214.882 93.8092C214.965 94.1558 214.969 94.5165 214.894 94.865C214.82 95.2134 214.668 95.5407 214.45 95.8228C214.232 96.105 213.954 96.3348 213.636 96.4955C213.318 96.6562 212.967 96.7437 212.611 96.7516L198.983 96.9741C198.418 96.9834 197.867 96.7918 197.429 96.4334C196.992 96.0751 196.696 95.5732 196.594 95.017L193.795 79.8008C193.73 79.4468 193.745 79.0827 193.841 78.7356C193.936 78.3885 194.108 78.0673 194.345 77.7962C194.582 77.525 194.877 77.3109 195.208 77.1697C195.539 77.0285 195.898 76.964 196.258 76.9809Z" fill="#FFC52F"/>
<path d="M203.167 79.9552C199.837 79.9824 197.688 83.1656 198.374 87.057C199.06 90.9485 202.313 94.0817 205.643 94.0544C208.972 94.0272 211.121 90.8441 210.44 86.9526C209.745 83.0657 206.497 79.9416 203.171 79.9643L203.167 79.9552ZM205.574 93.5595C202.481 93.5913 199.451 90.6851 198.815 87.0706C198.179 83.4562 200.178 80.4956 203.258 80.4638C206.338 80.432 209.381 83.3381 210.022 86.9571C210.653 90.5898 208.659 93.5231 205.574 93.5595Z" fill="white"/>
<path d="M205.829 88.6145C205.467 88.3976 205.056 88.2772 204.634 88.2649C204.248 88.2748 203.875 88.405 203.567 88.6372C203.536 88.6663 203.514 88.7033 203.502 88.7441C203.491 88.785 203.491 88.8281 203.503 88.8688L203.957 90.8259C203.968 90.8884 203.999 90.9455 204.046 90.9882C204.093 91.031 204.153 91.0569 204.216 91.062H206.06C206.089 91.0603 206.116 91.0523 206.141 91.0386C206.166 91.0249 206.188 91.0058 206.204 90.9828C206.221 90.9597 206.232 90.9333 206.237 90.9054C206.242 90.8774 206.241 90.8487 206.233 90.8214L205.988 88.8643C205.981 88.8177 205.965 88.7729 205.94 88.733C205.915 88.6931 205.882 88.659 205.842 88.6327L205.829 88.6145ZM205.77 90.5625H204.334L203.98 89.0005C204.205 88.8555 204.466 88.7754 204.734 88.7689C205.025 88.7767 205.311 88.8497 205.57 88.9823L205.77 90.5625Z" fill="white"/>
<path d="M203.598 82.3946C201.422 82.3946 200.019 84.4924 200.468 87.0398C200.571 87.6255 200.762 88.1921 201.036 88.7199C201.056 88.7658 201.088 88.8053 201.129 88.8342C201.17 88.863 201.218 88.88 201.268 88.8834C201.386 88.8834 201.459 88.7699 201.436 88.6337C201.432 88.6014 201.421 88.5704 201.404 88.5428C200.323 86.4359 200.796 84.0429 202.454 83.1983C204.112 82.3537 206.342 83.3709 207.423 85.4687C207.908 86.3881 208.094 87.4357 207.955 88.4656C207.941 88.5313 207.949 88.5996 207.978 88.6602C208.007 88.7209 208.054 88.7705 208.114 88.8017C208.138 88.8169 208.166 88.826 208.195 88.8281C208.224 88.8301 208.253 88.8251 208.279 88.8135C208.305 88.8018 208.329 88.7839 208.346 88.7613C208.364 88.7387 208.377 88.712 208.382 88.6836C208.382 88.6836 208.382 88.6836 208.382 88.6473C208.538 87.436 208.305 86.2065 207.716 85.1364C207.127 84.0663 206.213 83.2111 205.107 82.6943C204.628 82.4899 204.114 82.3848 203.594 82.3855" fill="white"/>
<path d="M203.798 83.5061C202.172 83.5061 201.123 85.0727 201.459 86.9707C201.535 87.409 201.677 87.8332 201.881 88.2285C201.902 88.2738 201.934 88.3128 201.975 88.3416C202.016 88.3703 202.063 88.3877 202.113 88.392C202.138 88.3967 202.165 88.3967 202.19 88.392C202.241 88.3562 202.276 88.3022 202.288 88.2413C202.3 88.1804 202.287 88.1173 202.254 88.0651C201.482 86.5575 201.8 84.8456 203.003 84.2372C204.207 83.6287 205.783 84.3598 206.56 85.8673C206.911 86.5268 207.043 87.2804 206.937 88.0197C206.929 88.0857 206.943 88.1526 206.975 88.2105C207.008 88.2685 207.058 88.3146 207.119 88.3421C207.145 88.3538 207.173 88.3592 207.201 88.3578C207.229 88.3563 207.257 88.3482 207.281 88.334C207.306 88.3197 207.327 88.2998 207.342 88.276C207.357 88.2521 207.366 88.2249 207.369 88.1968C207.486 87.2862 207.308 86.3622 206.862 85.5598C206.415 84.7575 205.724 84.1189 204.889 83.7377C204.538 83.587 204.161 83.5097 203.78 83.5106" fill="white"/>
<path d="M204.007 84.705C202.921 84.705 202.222 85.7539 202.449 87.0253C202.5 87.315 202.595 87.5952 202.731 87.8563C202.741 87.8854 202.757 87.9122 202.777 87.9351C202.798 87.958 202.823 87.9766 202.851 87.9897C202.879 88.0028 202.909 88.0102 202.94 88.0115C202.971 88.0127 203.002 88.0078 203.031 87.997C203.056 87.9801 203.079 87.9581 203.096 87.9325C203.114 87.9069 203.126 87.878 203.132 87.8477C203.139 87.8173 203.139 87.786 203.133 87.7555C203.127 87.7251 203.116 87.696 203.099 87.6701C202.992 87.4662 202.917 87.2472 202.876 87.0208C202.699 86.0263 203.249 85.2044 204.098 85.2044C204.948 85.2044 205.779 85.99 205.951 86.9844C205.99 87.2007 205.99 87.4221 205.951 87.6383C205.941 87.7047 205.953 87.7724 205.985 87.8314C206.017 87.8904 206.068 87.9374 206.129 87.9653C206.155 87.9718 206.183 87.9718 206.21 87.9653C206.254 87.9631 206.296 87.9447 206.327 87.9136C206.358 87.8826 206.376 87.8411 206.378 87.7972C206.447 87.2005 206.327 86.5973 206.035 86.0721C205.744 85.5469 205.295 85.126 204.752 84.8684C204.516 84.7713 204.263 84.7204 204.007 84.7186" fill="white"/>
<path d="M205.261 86.9984C205.226 86.7418 205.106 86.5044 204.92 86.3247C204.734 86.1449 204.492 86.0334 204.234 86.0081C204.119 86.0178 204.006 86.0534 203.906 86.1122C203.806 86.171 203.72 86.2515 203.655 86.3479C203.59 86.4442 203.548 86.5539 203.531 86.6688C203.514 86.7837 203.523 86.901 203.557 87.012C203.592 87.2687 203.713 87.5061 203.901 87.6851C204.088 87.8642 204.331 87.9744 204.589 87.9977C204.704 87.9888 204.816 87.9539 204.916 87.8956C205.016 87.8372 205.102 87.757 205.167 87.6608C205.231 87.5647 205.274 87.4551 205.29 87.3404C205.306 87.2257 205.296 87.1087 205.261 86.9984ZM203.994 86.9984C203.977 86.9437 203.973 86.8861 203.982 86.8297C203.991 86.7733 204.012 86.7196 204.044 86.6725C204.076 86.6255 204.119 86.5862 204.168 86.5577C204.218 86.5292 204.273 86.5121 204.33 86.5077C204.456 86.5207 204.574 86.5757 204.666 86.6638C204.757 86.7519 204.816 86.8681 204.834 86.9938C204.85 87.0478 204.855 87.1047 204.846 87.1604C204.838 87.2162 204.818 87.2695 204.786 87.3164C204.755 87.3633 204.714 87.4027 204.665 87.4318C204.617 87.4608 204.563 87.4788 204.507 87.4844C204.383 87.477 204.266 87.4282 204.174 87.3457C204.081 87.2633 204.019 87.1521 203.998 87.0302" fill="white"/>
<defs>
<linearGradient id="paint0_linear" x1="12.7076" y1="181.324" x2="93.0629" y2="60.6314" gradientUnits="userSpaceOnUse">
<stop stop-color="white"/>
<stop offset="1" stop-color="#FC957C"/>
</linearGradient>
</defs>
</svg>
