<svg width="270" height="210" viewBox="0 0 270 210" fill="none" xmlns="http://www.w3.org/2000/svg">
<path d="M125.81 31.3847L122.96 41.4034L113.62 45.9869C112.742 44.1763 112.405 42.1496 112.651 40.1515C112.897 38.1534 113.715 36.2694 115.006 34.7269C116.297 33.1844 118.006 32.0493 119.926 31.4588C121.847 30.8682 123.897 30.8474 125.829 31.3988L125.81 31.3847Z" fill="#639BB0"/>
<path d="M122.96 41.4034H133.356C133.359 41.4285 133.359 41.4537 133.356 41.4787C129.994 41.5164 122.96 41.4034 122.96 41.4034Z" fill="#F29D7E"/>
<path d="M131.205 35.0649L122.96 41.4039L125.81 31.3848C127.956 31.999 129.848 33.2893 131.205 35.0649Z" fill="#FAF8DC"/>
<path d="M133.356 41.4037H122.96L131.205 35.0647C132.603 36.8806 133.36 39.1103 133.356 41.4037Z" fill="#FCC14A"/>
<path d="M133.351 41.4787C133.348 42.6079 133.159 43.7287 132.793 44.7965L122.96 41.4034C122.96 41.4034 129.994 41.5164 133.351 41.4787Z" fill="#7AC4B2"/>
<path d="M132.792 44.7964C132.123 46.7434 130.892 48.448 129.257 49.695C127.621 50.942 125.654 51.6755 123.602 51.8028C121.551 51.9302 119.509 51.4458 117.732 50.4107C115.955 49.3756 114.524 47.8363 113.62 45.9869L122.96 41.4034L132.792 44.7964Z" fill="#E85F5B"/>
<path d="M194.831 76.3584C194.042 76.7773 191.319 76.5561 190.333 76.5467C187.985 76.5467 185.637 76.5467 183.289 76.5467C182.191 76.5467 174.231 76.6314 168.578 76.5467C165.343 76.509 162.863 76.4196 162.863 76.2361C162.37 75.9208 162.633 71.1444 162.633 71.1444V54.001C162.633 52.8857 162.591 51.7704 162.6 50.6551C162.6 50.1845 162.6 49.7422 162.661 49.2857C162.685 49.0928 162.624 48.7069 162.863 48.5422C163.103 48.3775 164.084 48.4151 164.422 48.4057C165.291 48.4057 166.155 48.3775 167.024 48.4057H167.329C171.984 48.4246 176.639 48.4371 181.294 48.4434C184.078 48.4434 186.867 48.4434 189.652 48.4434C190.737 48.4434 191.821 48.4434 192.901 48.4716C193.474 48.4293 194.05 48.4593 194.615 48.561C195.193 48.8151 194.855 50.2834 194.859 50.641C194.92 55.7092 194.949 60.7774 195.024 65.8456C195.052 68.1138 195.057 70.382 195.155 72.6502C195.183 73.3985 195.221 74.1373 195.188 74.8808C195.169 75.2243 195.348 76.0761 194.831 76.3584Z" fill="#FBE6D4"/>
<path d="M168.841 60.0623C169.649 60.4481 170.551 60.5941 171.44 60.4832C172.328 60.3723 173.167 60.0091 173.856 59.4364C174.249 59.103 174.569 58.6911 174.795 58.227C175.786 56.1893 174.518 53.521 172.532 52.3916C172.461 52.3492 172.381 52.3116 172.306 52.2739C170.536 51.4033 168.55 52.1704 167.352 53.6857C167.46 55.4787 167.568 57.3517 167.672 59.2529C168.02 59.5783 168.414 59.851 168.841 60.0623Z" fill="white"/>
<path d="M190.535 56.5893C190.535 58.9423 188.629 60.5565 186.281 60.5565C183.933 60.5565 181.735 58.6741 181.735 56.3211C181.734 56.0417 181.768 55.7633 181.838 55.4928C182.132 54.4639 182.788 53.5763 183.684 52.9939C184.532 52.3964 185.54 52.0684 186.576 52.0527C188.924 52.0339 190.535 54.2363 190.535 56.5893Z" fill="white"/>
<path d="M186.135 56.2976C185.905 56.2976 183.05 55.7235 181.838 55.4693C182.132 54.4404 182.788 53.5529 183.684 52.9705C184.445 53.9258 186.37 56.2788 186.135 56.2976Z" fill="#FFD7D4"/>
<path d="M174.79 58.227C174.564 58.6912 174.245 59.1031 173.851 59.4365L170.752 56.2129L172.541 52.3916C174.509 53.5069 175.781 56.1893 174.79 58.227Z" fill="#F3DEBF"/>
<path d="M167.667 59.2576C167.564 57.3752 167.456 55.4928 167.348 53.6904C167.117 53.9826 166.917 54.298 166.751 54.6316C166.374 55.396 166.259 56.264 166.424 57.1006C166.59 57.9373 167.027 58.6956 167.667 59.2576Z" fill="#C5DEF0"/>
<path d="M172.56 64.8715C171.805 64.5892 170.99 64.5062 170.194 64.6307C169.398 64.7551 168.648 65.0828 168.014 65.5821C168.141 67.9868 168.263 70.3351 168.376 72.5281C168.678 72.7738 169.019 72.9663 169.386 73.0976C170.214 73.3798 171.112 73.3798 171.94 73.0976C172.871 72.7818 173.682 72.1871 174.264 71.394C174.534 71.0311 174.748 70.6298 174.898 70.2034C175.673 67.9963 174.781 65.6621 172.56 64.8715Z" fill="white"/>
<path d="M166.967 67.1351C166.324 68.9798 166.892 71.3705 168.376 72.5423C168.263 70.3493 168.141 68.001 168.014 65.5962C167.535 66.0064 167.173 66.5377 166.967 67.1351Z" fill="#C5DEF0"/>
<path d="M173.71 72.0385C173.206 72.5224 172.602 72.8888 171.94 73.1115L170.94 68.9608L173.71 72.0385Z" fill="#CCDADE"/>
<path d="M190.089 70.9046C189.192 73.0788 186.802 73.8459 184.646 72.947C183.856 72.6144 183.174 72.0686 182.674 71.3705C182.231 70.7965 181.943 70.1181 181.837 69.4003C181.731 68.6826 181.811 67.9496 182.068 67.2716C182.299 66.7168 182.667 66.2306 183.139 65.8598C183.849 65.3252 184.683 64.9815 185.562 64.8612C186.442 64.741 187.337 64.8482 188.164 65.1727C190.333 66.0762 190.981 68.7304 190.089 70.9046Z" fill="white"/>
<path d="M186.13 69.0692C185.023 69.9021 183.869 70.6705 182.674 71.3705C182.231 70.7965 181.943 70.1181 181.837 69.4003C181.731 68.6826 181.811 67.9496 182.068 67.2715C182.299 66.7168 182.667 66.2306 183.139 65.8597C184.121 66.848 186.248 68.9845 186.13 69.0692Z" fill="#C5DEF0"/>
<path d="M176.856 59.5633C176.838 59.5675 176.819 59.5675 176.8 59.5633L175.063 58.6221C175.034 58.6054 175.014 58.5784 175.005 58.5468C174.996 58.5153 175 58.4815 175.016 58.4527C175.031 58.4237 175.058 58.4021 175.09 58.3924C175.121 58.3827 175.155 58.3858 175.185 58.4009L176.917 59.3421C176.946 59.358 176.968 59.3847 176.978 59.4163C176.987 59.4479 176.984 59.4821 176.969 59.5115C176.956 59.5291 176.939 59.5431 176.919 59.5521C176.9 59.5612 176.878 59.565 176.856 59.5633Z" fill="white"/>
<path d="M182.242 53.9116C182.215 53.9113 182.188 53.9013 182.167 53.8834L180.115 52.2786C180.093 52.2551 180.081 52.2239 180.081 52.1916C180.081 52.1592 180.093 52.1281 180.115 52.1045C180.126 52.093 180.14 52.0838 180.155 52.0776C180.17 52.0713 180.186 52.0681 180.202 52.0681C180.218 52.0681 180.234 52.0713 180.249 52.0776C180.264 52.0838 180.277 52.093 180.289 52.1045L182.341 53.714C182.363 53.7375 182.375 53.7687 182.375 53.801C182.375 53.8334 182.363 53.8645 182.341 53.8881C182.327 53.8991 182.311 53.907 182.294 53.9111C182.277 53.9151 182.259 53.9153 182.242 53.9116Z" fill="white"/>
<path d="M180.326 51.6011H176.542V52.7588H180.326V51.6011Z" fill="white"/>
<path d="M180.524 58.7963H176.739V59.9539H180.524V58.7963Z" fill="white"/>
<path d="M179.754 64.5985H175.969V65.7562H179.754V64.5985Z" fill="white"/>
<path d="M180.026 71.662H176.241V72.8197H180.026V71.662Z" fill="white"/>
<path d="M173.71 72.9467C173.68 72.9453 173.651 72.9333 173.629 72.9126C173.607 72.892 173.593 72.8641 173.59 72.834C173.586 72.8039 173.594 72.7737 173.611 72.7486C173.628 72.7235 173.653 72.7053 173.682 72.6972L176.251 72.1184C176.283 72.1113 176.317 72.1172 176.345 72.1348C176.373 72.1524 176.393 72.1803 176.401 72.2125C176.408 72.2449 176.402 72.2789 176.385 72.307C176.367 72.3351 176.339 72.3553 176.307 72.3631L173.734 72.942L173.71 72.9467Z" fill="white"/>
<path d="M181.735 67.1962C181.706 67.1962 181.678 67.1862 181.655 67.1679L179.552 65.342C179.528 65.3182 179.515 65.2861 179.515 65.2526C179.515 65.2191 179.528 65.187 179.552 65.1632C179.575 65.141 179.606 65.1287 179.638 65.1287C179.671 65.1287 179.702 65.141 179.725 65.1632L181.829 66.9797C181.853 67.0035 181.866 67.0356 181.866 67.0691C181.866 67.1026 181.853 67.1347 181.829 67.1585C181.817 67.1709 181.802 67.1807 181.786 67.1871C181.77 67.1936 181.753 67.1967 181.735 67.1962Z" fill="white"/>
<path d="M106.482 122.283C105.323 123.44 101.317 122.829 99.8663 122.805C96.4056 122.753 92.9496 122.753 89.5171 122.753C86.972 122.753 59.4649 123.351 59.4649 121.963C58.7136 121.078 59.0987 107.916 59.0987 107.916V60.6644C59.0987 57.5915 59.0376 54.5186 59.0517 51.4504C59.0517 50.1892 59.0517 48.9281 59.1409 47.6857C59.1691 47.1493 59.0799 46.0904 59.4367 45.6387C59.7936 45.1869 61.2352 45.2857 61.7329 45.2622C63.1416 45.1822 64.5832 45.1869 66.006 45.1963C72.8569 45.2481 79.7079 45.2952 86.5588 45.2952C90.6581 45.2952 94.7574 45.2622 98.8568 45.2952C100.449 45.2952 102.045 45.2952 103.637 45.3657C104.219 45.3657 105.665 45.2057 106.158 45.6104C107.008 46.3163 106.515 50.3633 106.52 51.3375C106.609 65.3091 106.652 79.2808 106.755 93.2477C106.802 99.5018 106.806 105.761 106.952 112.01C106.999 114.057 107.051 116.109 106.999 118.156C106.976 119.092 107.243 121.502 106.482 122.283Z" fill="url(#paint0_linear)"/>
<path d="M95.6167 51.9492H67.6823C67.3944 51.9492 67.1611 52.1831 67.1611 52.4716V55.0927C67.1611 55.3812 67.3944 55.6151 67.6823 55.6151H95.6167C95.9046 55.6151 96.1379 55.3812 96.1379 55.0927V52.4716C96.1379 52.1831 95.9046 51.9492 95.6167 51.9492Z" fill="#384A8C"/>
<path d="M85.9061 57.728H67.6823C67.3944 57.728 67.1611 57.9619 67.1611 58.2504V60.8715C67.1611 61.16 67.3944 61.3939 67.6823 61.3939H85.9061C86.194 61.3939 86.4273 61.16 86.4273 60.8715V58.2504C86.4273 57.9619 86.194 57.728 85.9061 57.728Z" fill="#51C1BB"/>
<path d="M72.4251 68.8008H67.6494C67.3797 68.8008 67.1611 69.0199 67.1611 69.2902V71.9773C67.1611 72.2476 67.3797 72.4668 67.6494 72.4668H72.4251C72.6948 72.4668 72.9134 72.2476 72.9134 71.9773V69.2902C72.9134 69.0199 72.6948 68.8008 72.4251 68.8008Z" fill="#384A8C"/>
<path d="M90.3529 74.5844H67.6494C67.3797 74.5844 67.1611 74.8035 67.1611 75.0738V77.7608C67.1611 78.0311 67.3797 78.2502 67.6494 78.2502H90.3529C90.6226 78.2502 90.8412 78.0311 90.8412 77.7608V75.0738C90.8412 74.8035 90.6226 74.5844 90.3529 74.5844Z" fill="#51C1BB"/>
<path d="M80.1497 85.6572H67.6166C67.365 85.6572 67.1611 85.8616 67.1611 86.1137V88.8667C67.1611 89.1188 67.365 89.3232 67.6166 89.3232H80.1497C80.4013 89.3232 80.6052 89.1188 80.6052 88.8667V86.1137C80.6052 85.8616 80.4013 85.6572 80.1497 85.6572Z" fill="#384A8C"/>
<path d="M74.6885 91.4407H67.6166C67.365 91.4407 67.1611 91.645 67.1611 91.8971V94.6502C67.1611 94.9023 67.365 95.1066 67.6166 95.1066H74.6885C74.94 95.1066 75.144 94.9023 75.144 94.6502V91.8971C75.144 91.645 74.94 91.4407 74.6885 91.4407Z" fill="#51C1BB"/>
<path d="M99.594 115.022C99.3029 116.259 97.7157 115.935 96.6827 115.963C90.846 116.217 84.9811 116.151 79.1397 116.09C76.3693 116.062 73.5989 116.024 70.8284 115.93C69.8001 115.897 68.4806 116.245 67.5133 115.859C66.9639 115.652 66.7855 114.603 66.7291 113.53V113.121C66.7291 112.306 66.7291 111.539 66.7291 111.163C66.6681 109.389 66.6962 107.619 66.7009 105.85C66.7009 104.372 66.7009 102.881 66.8324 101.403C66.8747 100.89 66.7995 100.194 67.2081 99.8548L67.2456 99.8265C67.6917 99.4971 68.5463 99.723 69.0488 99.7136C74.5662 99.5724 80.0882 99.6101 85.6056 99.6242C88.4888 99.6242 91.3719 99.643 94.255 99.6806C94.9688 99.6806 99.2465 99.3371 99.331 100.245C99.4531 101.521 99.486 102.815 99.5001 104.104C99.5001 104.198 99.5001 104.292 99.5001 104.386C99.5001 105.078 99.5001 105.765 99.5001 106.448C99.5001 108.142 99.5001 109.831 99.5001 111.521C99.5095 112.659 99.8476 113.911 99.594 115.022Z" fill="white"/>
<path d="M99.4954 104.401C98.7441 104.401 97.4199 104.49 96.9081 104.994C96.6165 105.302 96.3437 105.627 96.091 105.968C95.4759 106.749 94.8889 107.488 94.3677 107.488C93.6117 107.488 91.987 107.798 91.7475 108.231C91.4001 108.857 89.611 111.996 88.7893 111.756C88.5169 111.681 88.1319 111.13 87.4087 110.081C86.3898 108.593 84.8449 106.339 83.8307 106.57C82.8164 106.801 81.8444 108.452 81.2293 109.568C80.7597 110.368 80.6141 110.645 80.4028 110.645C80.1025 110.585 79.8188 110.46 79.5717 110.278C79.1039 109.97 78.5834 109.752 78.0362 109.633C77.6183 109.586 76.7496 110.655 76.05 111.516C75.2094 112.551 74.6788 113.177 74.2844 113.153C73.89 113.13 73.3734 112.49 72.5329 111.445C71.9225 110.688 71.0021 109.539 70.7016 109.643C70.232 109.798 68.18 111.949 66.7432 113.544V113.135C67.7715 111.991 70.0301 109.568 70.6265 109.37C71.096 109.224 71.7394 109.991 72.7724 111.252C73.3124 111.972 74.0214 112.871 74.2891 112.871C74.5567 112.871 75.2282 112.029 75.8105 111.337C76.6698 110.283 77.4868 109.29 78.0597 109.356C78.6452 109.479 79.2016 109.714 79.6985 110.048C79.9118 110.193 80.1462 110.304 80.3934 110.377C80.6133 110.082 80.8051 109.767 80.9663 109.436C81.6049 108.292 82.5769 106.565 83.7555 106.297C84.9341 106.029 86.4461 108.179 87.6388 109.925C88.1084 110.636 88.6719 111.436 88.8597 111.488C89.2307 111.591 90.5267 109.822 91.4893 108.099C91.8321 107.478 93.7056 107.205 94.3583 107.205C94.7434 107.205 95.335 106.462 95.8562 105.794C96.1203 105.445 96.4041 105.112 96.7061 104.796C97.2931 104.217 98.7018 104.123 99.4907 104.123C99.4907 104.212 99.4954 104.306 99.4954 104.401Z" fill="#30686E"/>
<path style="mix-blend-mode:multiply" opacity="0.66" d="M149.382 84.8854C151.727 86.0585 153.726 87.825 155.181 90.01C157.369 93.483 159.407 107.845 161.581 110.683C163.755 113.52 169.878 115.624 169.878 115.624C169.878 115.624 162.21 121.572 162.3 121.342C162.389 121.111 155.637 120.198 155.637 119.647C155.637 119.097 146.691 104.918 146.602 104.095C146.513 103.271 146.602 88.363 146.602 88.363L149.382 84.8854Z" fill="url(#paint1_linear)"/>
<path d="M185.534 147.106C185.534 147.106 179.204 172.635 176.668 174.809C174.133 176.983 156.768 178.47 149.283 178.47C141.798 178.47 126.462 179.2 123.18 177.186C119.898 175.172 110.699 151.28 110.699 151.28C110.699 151.28 116.803 147.214 117.7 147.106C118.597 146.998 152.918 144.988 156.205 145.901C159.492 146.814 185.534 147.106 185.534 147.106Z" fill="#D6E4ED"/>
<path d="M118.067 155.224C126.2 156.942 131.576 157.784 150.199 157.6C168.822 157.417 178.843 154.306 186.356 146.259C193.869 138.212 195.662 126.132 190.187 118.264C184.712 110.396 167.549 105.088 163.168 95.2056C158.787 85.3234 157.379 64.8718 131.881 63.7565C106.384 62.6412 103.463 95.648 102.731 104.495C101.998 113.342 99.9978 137.172 105.834 145.718C110.582 152.673 115.554 154.702 118.067 155.224Z" fill="#2E5E5E"/>
<path style="mix-blend-mode:multiply" opacity="0.66" d="M122.551 111.243C122.551 111.243 116.663 103.083 116.202 96.7959C120.809 96.7959 121.631 96.7959 121.631 96.7959L122.551 111.243Z" fill="url(#paint2_linear)"/>
<path d="M187.994 169.718L190.915 174.537L195.118 172.301L192.38 166.442L187.994 169.718Z" fill="#FFAA85"/>
<path d="M195.963 163.407L197.278 168.89L201.786 168.019L200.959 161.605L195.963 163.407Z" fill="#FFAA85"/>
<path d="M157.43 120.838C157.43 120.838 180.439 123.191 187.013 124.033C193.587 124.876 195.775 126.386 197.235 132.217C198.696 138.047 201.245 158.348 201.602 161.134C202.016 164.381 197.724 165.111 196.019 164.748C194.315 164.386 188.473 140.843 183.092 136.777C180.505 134.819 167.174 133.398 167.174 133.398L151.472 130.349L148.654 124.909L157.43 120.838Z" fill="#293B7D"/>
<path d="M147.997 63.6244C148.721 63.7589 149.469 63.6144 150.091 63.2197C151.148 62.5562 152.148 61.0127 151.472 59.695C150.795 58.3774 149.983 58.2362 149.011 57.4833C148.039 56.7303 148.682 54.9892 146.705 54.6927C145.165 54.4527 143.221 53.0033 141.892 53.8221C140.564 54.641 138.953 53.8221 137.45 54.5139C135.948 55.2057 136.042 55.6904 135.511 56.9609C134.98 58.2315 133.825 57.7374 133.365 60.1703C132.905 62.6032 133.459 64.2315 133.407 65.8832C133.464 67.442 133.656 68.9929 133.98 70.5185C133.98 70.5185 140.526 72.4008 140.554 72.2738C140.582 72.1467 147.245 67.0973 147.316 66.8714C147.386 66.6456 147.997 63.6244 147.997 63.6244Z" fill="#705138"/>
<path d="M148.509 59.695C149.209 61.5311 149.586 63.4754 149.621 65.4409C149.621 68.5091 149.415 72.8102 146.921 76.2643C144.808 79.1772 142.277 79.3466 140.348 78.3443C139.563 77.9349 135.652 75.9914 134.854 72.1937C134.055 68.3961 134.882 62.6409 134.882 62.6409C134.882 62.6409 135.75 60.3727 136.154 59.8927C136.558 59.4127 139.357 57.888 139.357 57.888L143.583 56.8762C143.583 56.8762 147.372 58.1797 147.429 58.4527C147.739 58.9073 148.102 59.3242 148.509 59.695Z" fill="#FFAA85"/>
<path d="M140.981 129.986C140.981 129.986 143.799 134.621 147.086 136.447C150.373 138.273 167.78 144.88 170.095 145.666C172.409 146.452 180.805 162.052 184.454 166.442C188.102 170.833 187.769 171.148 190.178 170.235C194.709 168.499 193.704 167.656 191.76 162.833C189.816 158.01 184.336 142.546 181.533 138.645C178.73 134.744 168.263 128.871 163.76 127.422C160.201 126.177 156.708 124.752 153.293 123.153L140.981 129.986Z" fill="#384A8C"/>
<path d="M145.959 84.2454L145.32 85.7984C145.32 85.7984 144.043 89.0924 141.038 89.1866C138.033 89.2807 138.385 88.2454 137.657 87.6289C136.929 87.0125 132.177 84.6972 132.177 84.6972C132.177 84.6972 134.553 83.9678 135.192 80.4055C135.83 76.8431 134.722 72.3538 134.722 72.3538L144.029 76.1937C144.029 76.1937 143.869 77.3514 143.799 78.6925C143.718 79.673 143.746 80.6595 143.883 81.6337C143.907 81.7137 143.921 81.7937 143.944 81.869C144.09 82.3871 144.345 82.8677 144.692 83.2779C145.04 83.688 145.472 84.0181 145.959 84.2454Z" fill="#FFAA85"/>
<path d="M149.819 61.7138C149.819 61.7138 148.88 63.5397 145.945 62.7821C143.01 62.0244 142.691 61.0597 140.46 61.6056C138.342 62.1233 139.371 64.0856 137.77 64.7021C136.168 65.3185 135.286 66.5844 135.666 68.1185C136.046 69.6526 135.065 73.3843 135.065 73.3843L133.98 70.5185L134.422 62.895L135.797 59.3703L139.357 57.1351L143.226 56.3445L146.649 57.6527L148.645 58.9845L149.584 60.9327L149.819 61.7138Z" fill="#705138"/>
<path d="M149.382 84.8854C151.727 86.0585 153.726 87.825 155.181 90.01C157.369 93.483 159.407 107.845 161.581 110.683C163.755 113.52 169.878 115.624 169.878 115.624C169.878 115.624 162.21 121.572 162.3 121.342C162.389 121.111 155.637 120.198 155.637 119.647C155.637 119.097 146.691 104.918 146.602 104.095C146.513 103.271 146.602 88.363 146.602 88.363L149.382 84.8854Z" fill="#ADD88A"/>
<path style="mix-blend-mode:multiply" opacity="0.66" d="M149.382 84.8854C151.727 86.0585 153.726 87.825 155.181 90.01C157.369 93.483 159.407 107.845 161.581 110.683C163.755 113.52 169.878 115.624 169.878 115.624C169.878 115.624 162.21 121.572 162.3 121.342C162.389 121.111 155.637 120.198 155.637 119.647C155.637 119.097 146.691 104.918 146.602 104.095C146.513 103.271 146.602 88.363 146.602 88.363L149.382 84.8854Z" fill="url(#paint3_linear)"/>
<path d="M161.389 121.751C160.788 122.636 149.828 126.782 147.09 128.885C144.353 130.989 143.334 133.097 140.986 131.967C138.638 130.838 131.459 119.92 129.853 117.379C128.294 114.904 128.608 101.266 127.885 97.6947C127.867 97.5785 127.84 97.4637 127.805 97.3512C127.391 96.1004 126.908 94.8734 126.359 93.6759C125.373 91.3559 124.504 89.0783 125.617 88.3771C127.336 87.2619 134.595 82.2831 134.595 82.2831C134.595 82.2831 137.76 85.9725 140.986 85.9725C141.836 86.0265 142.675 85.7584 143.337 85.2215C143.999 84.6845 144.435 83.9179 144.56 83.0737C144.56 83.0737 148.565 84.1513 149.391 84.8666C150.363 85.7325 151.997 88.7395 153.458 93.6336C153.902 95.1049 154.322 96.7426 154.716 98.5465C155.111 100.35 155.447 102.292 155.726 104.372C156.876 112.598 162.666 119.864 161.389 121.751Z" fill="#ADD88A"/>
<path d="M125.608 88.363C124.402 89.2141 123.411 90.3353 122.713 91.6374C122.016 92.9395 121.63 94.3867 121.588 95.8642C121.405 100.984 123.143 120.382 124.603 123.582C126.063 126.782 142.677 125.412 142.677 125.412L134.459 106.344L132.177 91.2854L125.608 88.363Z" fill="#ADD88A"/>
<path d="M148.997 123.365C149.202 122.413 149.632 121.525 150.252 120.774C150.871 120.024 151.662 119.434 152.556 119.055C152.795 118.957 153.042 118.88 153.294 118.824C154.998 118.457 157.482 120.283 158.22 121.69C158.957 123.097 158.168 123.389 156.769 123.521C155.369 123.652 148.833 124.302 148.833 124.302L148.997 123.365Z" fill="#FFAA85"/>
<path d="M145.621 74.0714C144.509 74.2446 143.372 73.9835 142.447 73.3419C142.057 73.0784 141.62 73.6619 142.01 73.9255C143.096 74.6791 144.428 74.9873 145.734 74.7867C145.816 74.7592 145.886 74.7034 145.931 74.6291C145.976 74.5549 145.993 74.467 145.98 74.3812C145.966 74.2953 145.923 74.2171 145.857 74.1604C145.791 74.1036 145.708 74.0721 145.621 74.0714Z" fill="#F58D5F"/>
<path d="M146.959 68.7114C146.851 68.2408 146.133 68.3632 146.236 68.8244C146.363 69.3797 146.494 69.9303 146.621 70.4809C146.809 71.328 146.565 71.648 145.865 72.0244C145.456 72.2456 145.748 72.9186 146.161 72.6927C146.696 72.4056 147.269 72.0574 147.419 71.4221C147.616 70.5985 147.142 69.5067 146.959 68.7114Z" fill="#F58D5F"/>
<path style="mix-blend-mode:multiply" opacity="0.72" d="M143.898 81.6339C143.279 81.6579 142.66 81.5993 142.057 81.4597C140.631 81.0556 139.415 80.1191 138.657 78.8432C138.188 77.902 138.887 77.1537 140.62 78.2079C141.086 78.515 141.613 78.7162 142.165 78.7975C142.716 78.8788 143.279 78.8382 143.813 78.6785C143.731 79.6637 143.76 80.655 143.898 81.6339Z" fill="url(#paint4_linear)"/>
<path d="M207.209 179.158C206.707 179.835 204.861 180.005 202.443 180C199.245 180 197.367 179.463 196.301 179.661C193.7 180.132 192.605 179.567 192.155 179.242C191.979 179.029 191.843 178.787 191.751 178.527C191.281 177.487 190.619 175.586 190.234 174.438C190.135 174.15 190.131 173.838 190.223 173.548C190.316 173.258 190.499 173.005 190.746 172.828C191.715 172.131 192.79 171.597 193.93 171.247C196.343 170.513 195.16 171.562 196.277 172.518C196.367 172.601 196.461 172.679 196.559 172.753C196.799 172.94 197.05 173.111 197.311 173.266C197.921 173.617 198.566 173.904 199.236 174.122C199.607 174.254 200.015 174.376 200.466 174.489C201.123 174.663 201.875 174.823 202.711 174.96L203.077 175.026C206.932 175.68 207.716 178.471 207.209 179.158Z" fill="#182149"/>
<path d="M211.679 176.348C211.022 176.889 209.472 176.819 206.392 176.005C203.312 175.191 202.063 174.212 200.983 174.122C198.128 173.948 197.423 173.125 197.062 172.711C196.926 172.395 196.842 172.06 196.813 171.718C196.62 170.504 196.456 168.48 196.376 167.379C196.353 167.134 196.411 166.889 196.539 166.68C196.668 166.471 196.861 166.31 197.09 166.221C198.255 165.735 199.496 165.455 200.757 165.393C203.274 165.285 201.865 166.009 202.692 167.209C202.874 167.469 203.073 167.716 203.288 167.948C203.467 168.136 203.668 168.334 203.894 168.541C204.446 169.01 205.035 169.433 205.655 169.807C205.918 169.962 206.204 170.122 206.509 170.278C207.045 170.56 207.641 170.852 208.322 171.162L208.665 171.313C212.271 172.908 212.337 175.807 211.679 176.348Z" fill="#182149"/>
<path d="M207.209 179.158C206.707 179.835 204.861 180.005 202.443 180C199.245 180 197.367 179.463 196.301 179.661C193.7 180.132 192.605 179.567 192.155 179.242C191.979 179.029 191.843 178.787 191.751 178.527C192.056 178.607 192.408 178.711 192.751 178.833C193.798 179.209 194.474 179.064 196.367 178.833C198.259 178.602 200.184 178.833 200.414 178.602C200.644 178.372 200.593 177.369 201.785 175.906C202.058 175.565 202.361 175.249 202.692 174.965L203.058 175.031C206.932 175.68 207.716 178.471 207.209 179.158Z" fill="#FFEEE6"/>
<path d="M197.292 173.266C196.378 173.518 195.571 174.064 194.996 174.819C194.709 175.181 194.08 174.819 194.366 174.442C194.934 173.701 195.683 173.119 196.541 172.753C196.78 172.94 197.031 173.111 197.292 173.266Z" fill="#FFEEE6"/>
<path d="M200.447 174.489C199.635 174.603 198.898 175.03 198.395 175.68C198.118 176.052 197.484 175.68 197.771 175.313C198.148 174.803 198.645 174.394 199.217 174.122C199.588 174.254 199.997 174.376 200.447 174.489Z" fill="#FFEEE6"/>
<path d="M211.679 176.348C211.022 176.889 209.472 176.819 206.392 176.005C203.312 175.191 202.063 174.212 200.983 174.122C198.128 173.948 197.423 173.125 197.062 172.711C196.926 172.395 196.842 172.06 196.813 171.718C197.432 172.113 198.082 172.458 198.757 172.748C199.569 173.15 200.475 173.322 201.377 173.247C202.382 173.247 203.603 173.892 204.612 173.854C205.622 173.816 204.932 172.748 206.57 171.784C207.115 171.481 207.707 171.276 208.322 171.177L208.665 171.327C212.271 172.908 212.337 175.807 211.679 176.348Z" fill="#FFEEE6"/>
<path d="M206.509 170.282C205.609 170.52 204.794 171.009 204.162 171.694C203.842 172.038 203.33 171.515 203.654 171.172C204.21 170.57 204.889 170.096 205.645 169.784C205.918 169.967 206.204 170.127 206.509 170.282Z" fill="#FFEEE6"/>
<path d="M203.894 168.546C203.003 168.753 202.196 169.226 201.579 169.901C201.26 170.245 200.743 169.722 201.062 169.379C201.67 168.723 202.437 168.237 203.288 167.967C203.467 168.146 203.669 168.339 203.894 168.546Z" fill="#FFEEE6"/>
<path d="M159.651 126.137C160.473 126.965 185.121 125.257 187.22 124.65C189.318 124.043 195.892 104.918 195.254 104.005C194.615 103.092 167.23 103.365 166.498 104.005C165.765 104.645 158.834 125.304 159.651 126.137Z" fill="#FFEEE6"/>
<path d="M160.421 126.297C160.421 126.297 150.645 126.457 148.128 126.485C145.611 126.513 145.424 124.753 147.25 124.49C149.077 124.226 162.3 123.003 162.3 123.003L160.421 126.297Z" fill="#FFEEE6"/>
<path d="M182.491 111.172C182.491 111.432 182.414 111.686 182.27 111.902C182.126 112.118 181.922 112.286 181.682 112.385C181.443 112.485 181.18 112.511 180.925 112.46C180.671 112.409 180.438 112.284 180.255 112.101C180.071 111.917 179.947 111.683 179.896 111.429C179.845 111.174 179.871 110.91 179.971 110.67C180.07 110.43 180.238 110.225 180.453 110.081C180.669 109.936 180.922 109.859 181.181 109.859C181.353 109.859 181.524 109.892 181.683 109.958C181.842 110.024 181.987 110.121 182.109 110.243C182.231 110.365 182.327 110.51 182.393 110.669C182.458 110.829 182.492 111 182.491 111.172Z" fill="#F0D3C5"/>
<path d="M187.187 122.565L162.173 123.803C161.703 123.826 161.703 124.556 162.173 124.532L187.187 123.295C187.656 123.271 187.656 122.542 187.187 122.565Z" fill="#F0D3C5"/>
<path d="M142.39 64.6645C142.437 64.9845 143.616 65.328 144.428 64.9892C145.663 64.4715 142.301 64.0433 142.39 64.6645Z" fill="#705138"/>
<path d="M149.556 66.7538C149.49 67.0644 147.706 66.4997 147.654 65.9397C147.574 65.022 149.711 66.0056 149.556 66.7538Z" fill="#705138"/>
<path d="M143.902 67.7561C143.78 68.2267 143.512 68.5562 143.296 68.5044C143.08 68.4526 143.01 68.0338 143.132 67.5632C143.254 67.0926 143.526 66.7632 143.738 66.8197C143.949 66.8761 144.024 67.2855 143.902 67.7561Z" fill="#2E1F44"/>
<path d="M148.649 68.6361C148.527 69.1067 148.255 69.4361 148.044 69.3844C147.832 69.3326 147.757 68.9138 147.879 68.4432C148.001 67.9726 148.274 67.6432 148.485 67.6949C148.696 67.7467 148.772 68.1655 148.649 68.6361Z" fill="#2E1F44"/>
<path d="M115.019 95.2241C115.019 95.2241 118.851 117.812 140.981 122.546C152.176 124.942 151.692 139.379 151.692 139.379L147.466 143.708C147.466 143.708 125.425 136.4 122.504 135.657C119.583 134.913 117.024 134.01 115.019 128.885C113.014 123.76 111.549 108.749 111.915 107.29C112.282 105.831 115.019 95.2241 115.019 95.2241Z" fill="#2E5E5E"/>
<path style="mix-blend-mode:multiply" opacity="0.66" d="M171.456 146.81C171.456 146.81 170.404 145.713 170.287 145.77C165.934 144.137 159.487 141.563 157.397 140.894C155.519 140.287 154.007 139.483 151.678 138.542C151.678 143.158 151.678 145.638 151.678 145.638C151.678 145.638 155.951 145.638 156.627 146.029C161.675 146.617 171.456 146.81 171.456 146.81Z" fill="url(#paint5_linear)"/>
<path style="mix-blend-mode:multiply" opacity="0.66" d="M124.105 89.6478C124.105 89.6478 131.966 89.8078 132.163 95.4124C132.37 101.412 132.163 105.718 132.163 105.718C132.163 105.718 130.186 115.478 137.3 116.4C145.132 117.417 151.533 118.363 151.533 118.363C151.533 118.363 135.765 116.862 134.769 112.33C133.774 107.798 135.464 97.6947 134.328 94.7207C133.29 92.0101 131.163 88.8007 124.105 89.6478Z" fill="url(#paint6_linear)"/>
<defs>
<linearGradient id="paint0_linear" x1="58.9953" y1="84.0807" x2="107.027" y2="84.0807" gradientUnits="userSpaceOnUse">
<stop stop-color="#AEDEF2"/>
<stop offset="1" stop-color="#D6E4ED"/>
</linearGradient>
<linearGradient id="paint1_linear" x1="146.56" y1="103.116" x2="169.878" y2="103.116" gradientUnits="userSpaceOnUse">
<stop stop-color="#A9C8D4"/>
<stop offset="1" stop-color="white"/>
</linearGradient>
<linearGradient id="paint2_linear" x1="122.95" y1="107.276" x2="114.858" y2="88.5546" gradientUnits="userSpaceOnUse">
<stop stop-color="#A9C8D4"/>
<stop offset="0.64" stop-color="white"/>
</linearGradient>
<linearGradient id="paint3_linear" x1="146.56" y1="103.116" x2="169.878" y2="103.116" gradientUnits="userSpaceOnUse">
<stop stop-color="#A9C8D4"/>
<stop offset="1" stop-color="white"/>
</linearGradient>
<linearGradient id="paint4_linear" x1="140.611" y1="81.9397" x2="142.148" y2="76.7744" gradientUnits="userSpaceOnUse">
<stop stop-color="white"/>
<stop offset="1" stop-color="#F0C3A8"/>
</linearGradient>
<linearGradient id="paint5_linear" x1="165.873" y1="147.803" x2="140.42" y2="136.855" gradientUnits="userSpaceOnUse">
<stop offset="0.36" stop-color="white"/>
<stop offset="1" stop-color="#A9C8D4"/>
</linearGradient>
<linearGradient id="paint6_linear" x1="128.74" y1="106.528" x2="155.18" y2="99.216" gradientUnits="userSpaceOnUse">
<stop stop-color="#A9C8D4"/>
<stop offset="0.46" stop-color="white"/>
</linearGradient>
</defs>
</svg>
