<svg width="270" height="210" viewBox="0 0 270 210" fill="none" xmlns="http://www.w3.org/2000/svg">
<path d="M41.853 137.019C46.3855 141.888 52.4598 145.156 58.8447 147.013C64.296 148.604 69.9864 149.214 75.6511 148.816C78.8109 148.588 82.134 147.961 84.4875 145.842C87.1678 143.424 88.034 139.399 87.2114 135.881C84.0571 122.008 64.0473 118.168 52.182 118.092C49.3764 118.092 46.5163 118.245 43.8959 119.247C41.2755 120.249 38.8894 122.177 37.9033 124.808C37.4139 126.164 37.2844 127.624 37.5274 129.045C38.0177 131.932 39.7828 134.802 41.853 137.019Z" fill="#8CC9C5"/>
<path d="M130.652 161.975C130.672 161.953 130.69 161.929 130.707 161.904C130.729 161.866 130.743 161.823 130.748 161.778C130.754 161.734 130.75 161.689 130.738 161.646C130.726 161.603 130.705 161.562 130.678 161.527C130.65 161.492 130.615 161.463 130.576 161.441C130.255 161.267 98.1016 143.571 81.3223 136.512C64.5431 129.454 46.1894 127.03 46.0042 127.03C45.9594 127.023 45.9135 127.025 45.8694 127.036C45.8253 127.046 45.7839 127.066 45.7476 127.093C45.7113 127.121 45.6809 127.155 45.6582 127.195C45.6354 127.234 45.6209 127.277 45.6154 127.322C45.6099 127.368 45.6136 127.413 45.6261 127.457C45.6387 127.501 45.66 127.541 45.6887 127.576C45.7173 127.612 45.7528 127.641 45.793 127.662C45.8332 127.683 45.8772 127.696 45.9225 127.7C46.1023 127.7 64.3361 130.118 81.0554 137.15C97.7747 144.181 129.928 161.872 130.249 162.052C130.315 162.085 130.391 162.095 130.464 162.082C130.536 162.068 130.603 162.03 130.652 161.975Z" fill="url(#paint0_linear)"/>
<path d="M55.4506 91.6652C56.6601 98.2011 60.0213 104.225 64.4123 109.225C68.161 113.488 72.6356 117.052 77.6287 119.753C80.4179 121.257 83.5559 122.515 86.6829 121.986C90.2458 121.387 93.1331 118.462 94.348 115.058C99.1366 101.665 84.324 87.6783 74.3545 81.2404C72.0011 79.7208 69.4951 78.3319 66.7276 77.7655C63.9601 77.199 60.9366 77.5476 58.703 79.247C57.5604 80.1288 56.6667 81.2925 56.1098 82.6238C54.944 85.3308 54.8786 88.6805 55.4506 91.6652Z" fill="url(#paint1_linear)"/>
<path d="M116.946 160.407L117.027 160.374C117.105 160.33 117.163 160.258 117.188 160.173C117.213 160.087 117.205 159.995 117.163 159.916C116.989 159.59 99.3764 127.4 89.0146 112.433C78.6529 97.4657 64.4995 85.5758 64.3306 85.456C64.2613 85.4006 64.1732 85.3742 64.0848 85.3823C63.9965 85.3904 63.9147 85.4325 63.8567 85.4996C63.8279 85.5333 63.8061 85.5725 63.7927 85.6147C63.7793 85.657 63.7744 85.7015 63.7785 85.7457C63.7826 85.7899 63.7954 85.8328 63.8163 85.8719C63.8372 85.911 63.8658 85.9455 63.9002 85.9734C64.0364 86.0933 78.1299 97.9069 88.459 112.82C98.788 127.732 116.395 159.916 116.57 160.238C116.606 160.302 116.662 160.353 116.73 160.384C116.798 160.414 116.873 160.422 116.946 160.407Z" fill="#8CC9C5"/>
<path d="M183.191 177.101L181.665 25.1786C181.669 24.9033 181.618 24.63 181.516 24.3745C181.413 24.119 181.261 23.8863 181.068 23.6898C180.875 23.4934 180.645 23.337 180.391 23.2299C180.138 23.1227 179.865 23.0668 179.59 23.0654L99.0059 23C98.4534 23.0157 97.9297 23.2499 97.5498 23.6512C97.1698 24.0525 96.9647 24.5881 96.9793 25.1405L98.5047 177.101C98.5033 177.375 98.5558 177.646 98.6593 177.9C98.7629 178.153 98.9154 178.384 99.1081 178.579C99.3008 178.774 99.5301 178.928 99.7827 179.035C100.035 179.141 100.306 179.196 100.58 179.198L181.164 179.257C181.439 179.25 181.71 179.188 181.961 179.075C182.212 178.962 182.438 178.801 182.626 178.6C182.815 178.4 182.961 178.164 183.058 177.907C183.155 177.649 183.2 177.375 183.191 177.101Z" fill="#1F2144"/>
<path d="M178.391 172.351L177.046 30.4238C177.047 30.182 177.001 29.9423 176.91 29.7184C176.819 29.4945 176.684 29.2908 176.514 29.1188C176.344 28.9468 176.142 28.81 175.919 28.7162C175.696 28.6224 175.457 28.5733 175.215 28.5719L104.002 28.3159C103.514 28.3302 103.051 28.537 102.715 28.8911C102.379 29.2453 102.197 29.718 102.209 30.2059L103.56 172.133C103.559 172.375 103.605 172.615 103.696 172.839C103.787 173.063 103.922 173.266 104.092 173.438C104.262 173.61 104.464 173.747 104.687 173.841C104.91 173.935 105.149 173.984 105.391 173.985L176.599 174.241C176.841 174.235 177.079 174.181 177.3 174.082C177.521 173.984 177.72 173.843 177.887 173.667C178.053 173.492 178.184 173.285 178.27 173.06C178.357 172.834 178.398 172.593 178.391 172.351Z" fill="white"/>
<path d="M124.398 49.7157C124.371 49.476 124.246 49.2908 124.077 49.2799C120.367 49.0893 109.449 49.0838 108.594 49.0403C107.886 49.0022 108.049 49.8736 108.049 50.0316C108.082 53.5174 108.594 61.4966 108.714 63.1851C108.757 63.9367 108.839 64.3071 109.411 64.4977C110.501 64.8518 121.396 64.7973 124.06 64.8354C124.91 64.8354 124.992 64.5304 124.91 62.6023C124.578 55.135 125.019 56.1372 124.398 49.7157Z" fill="#89E294"/>
<path d="M129.977 63.3744C130.037 64.1315 130.434 64.7251 131.774 64.7633C138.819 64.943 167.539 65.3079 170.421 65.3079C172.328 65.3079 172.442 64.9757 172.393 64.0879C172.186 60.4713 172.486 55.4223 172.219 50.9834C172.17 50.1936 172.638 49.796 170.781 49.7906C168.531 49.7906 140.649 49.2459 130.892 49.0008C129.061 48.9572 129.35 50.6893 129.367 50.9725C129.677 56.1631 129.775 60.8472 129.977 63.3744Z" fill="#F5E4D5"/>
<path d="M119.789 54.1436C119.681 54.0801 119.552 54.0623 119.43 54.0939C119.309 54.1256 119.205 54.2042 119.141 54.3125L116.39 59.0837L115.251 57.6022C115.222 57.5381 115.18 57.4812 115.126 57.4358C115.072 57.3903 115.009 57.3573 114.941 57.3392C114.873 57.3211 114.802 57.3184 114.733 57.3313C114.664 57.3441 114.598 57.3722 114.541 57.4134C114.484 57.4547 114.437 57.5081 114.403 57.5699C114.37 57.6316 114.35 57.7 114.346 57.7703C114.342 57.8405 114.354 57.9107 114.38 57.9759C114.407 58.041 114.448 58.0994 114.5 58.1469L116.079 60.2057C116.117 60.255 116.165 60.2965 116.218 60.3275C116.272 60.3586 116.332 60.3788 116.394 60.3869C116.455 60.395 116.518 60.3908 116.578 60.3747C116.638 60.3586 116.695 60.3307 116.744 60.2928C116.824 60.2289 116.881 60.1411 116.907 60.0423L119.958 54.7591C120.013 54.6542 120.026 54.5323 119.995 54.4182C119.963 54.304 119.89 54.2059 119.789 54.1436Z" fill="white"/>
<path d="M166.978 52.5914L134.052 52.5315C134.021 52.5377 133.993 52.5544 133.973 52.5788C133.953 52.6031 133.943 52.6335 133.943 52.6649C133.943 52.6963 133.953 52.7268 133.973 52.7511C133.993 52.7754 134.021 52.7921 134.052 52.7984L166.984 52.8583C167.014 52.8514 167.042 52.8342 167.061 52.8095C167.08 52.7847 167.091 52.754 167.09 52.7226C167.089 52.6912 167.078 52.661 167.058 52.637C167.037 52.6131 167.009 52.597 166.978 52.5914ZM167.038 56.9487L134.106 56.8942C134.075 56.9005 134.048 56.9172 134.028 56.9415C134.008 56.9658 133.997 56.9963 133.997 57.0277C133.997 57.0591 134.008 57.0895 134.028 57.1138C134.048 57.1382 134.075 57.1549 134.106 57.1611L167.033 57.2156C167.071 57.2163 167.108 57.2018 167.136 57.1752C167.163 57.1487 167.179 57.1122 167.18 57.074C167.18 57.0357 167.166 56.9987 167.139 56.9711C167.113 56.9435 167.076 56.9276 167.038 56.9269V56.9487ZM166.891 60.9901C163.742 60.9465 160.595 60.9628 157.45 61.0391C157.276 61.0391 157.27 61.3114 157.45 61.306C160.599 61.2352 163.748 61.2134 166.891 61.2569C166.929 61.2569 166.966 61.2417 166.993 61.2147C167.02 61.1876 167.035 61.1509 167.035 61.1126C167.035 61.0743 167.02 61.0376 166.993 61.0105C166.966 60.9835 166.929 60.9683 166.891 60.9683V60.9901Z" fill="#1F2144"/>
<path d="M124.796 128.174C124.796 127.934 124.649 127.749 124.474 127.738C120.77 127.548 109.853 127.542 108.997 127.499C108.289 127.46 108.452 128.337 108.452 128.49C108.491 131.976 108.997 139.928 109.117 141.643C109.161 142.395 109.248 142.771 109.82 142.956C110.909 143.315 121.805 143.256 124.469 143.294C125.313 143.294 125.401 142.994 125.313 141.066C124.976 133.615 125.422 134.595 124.796 128.174Z" fill="#89E294"/>
<path d="M120.28 132.155C120.226 132.123 120.167 132.103 120.105 132.094C120.044 132.086 119.981 132.09 119.921 132.106C119.861 132.122 119.805 132.15 119.756 132.189C119.707 132.227 119.667 132.275 119.637 132.329L116.88 137.101L115.742 135.614C115.704 135.564 115.656 135.523 115.602 135.492C115.549 135.461 115.489 135.441 115.427 135.433C115.366 135.424 115.303 135.429 115.243 135.445C115.183 135.461 115.126 135.489 115.077 135.527C115.028 135.564 114.986 135.611 114.955 135.664C114.924 135.718 114.904 135.777 114.896 135.838C114.888 135.899 114.892 135.962 114.908 136.021C114.924 136.081 114.952 136.137 114.99 136.186L116.57 138.25C116.608 138.299 116.655 138.341 116.709 138.372C116.763 138.403 116.822 138.423 116.884 138.431C116.946 138.439 117.008 138.435 117.068 138.419C117.129 138.403 117.185 138.375 117.234 138.337C117.315 138.274 117.372 138.186 117.398 138.087L120.448 132.798C120.48 132.745 120.5 132.686 120.509 132.625C120.517 132.563 120.513 132.501 120.498 132.441C120.482 132.382 120.455 132.326 120.417 132.277C120.38 132.227 120.333 132.186 120.28 132.155Z" fill="white"/>
<path d="M131.595 141.692C131.66 142.449 132.063 143.038 133.403 143.059C140.447 143.174 169.174 143.25 172.05 143.196C173.957 143.157 174.071 142.842 174.011 141.954C173.766 138.337 174.011 133.288 173.701 128.855C173.646 128.065 174.109 127.662 172.257 127.673C170.002 127.673 142.12 127.449 132.357 127.297C130.527 127.27 130.832 129.002 130.854 129.28C131.219 134.459 131.366 139.149 131.595 141.692Z" fill="#F5E4D5"/>
<path d="M169.097 130.881L136.171 130.445C136.14 130.451 136.112 130.468 136.093 130.492C136.073 130.517 136.062 130.547 136.062 130.579C136.062 130.61 136.073 130.64 136.093 130.665C136.112 130.689 136.14 130.706 136.171 130.712L169.097 131.148C169.283 131.153 169.283 130.886 169.097 130.881Z" fill="#1F2144"/>
<path d="M168.972 135.2L136.051 134.781C136.02 134.787 135.993 134.803 135.973 134.828C135.953 134.852 135.942 134.883 135.942 134.914C135.942 134.945 135.953 134.976 135.973 135C135.993 135.024 136.02 135.041 136.051 135.047L168.978 135.489C169.016 135.488 169.052 135.472 169.079 135.444C169.105 135.417 169.12 135.38 169.119 135.342C169.118 135.303 169.103 135.267 169.075 135.24C169.047 135.214 169.01 135.199 168.972 135.2Z" fill="#1F2144"/>
<path d="M145.568 139.012C142.423 138.889 139.278 138.824 136.133 138.816C136.097 138.816 136.062 138.831 136.036 138.856C136.011 138.882 135.996 138.916 135.996 138.953C135.996 138.989 136.011 139.023 136.036 139.049C136.062 139.074 136.097 139.089 136.133 139.089C139.278 139.089 142.423 139.152 145.568 139.279C145.748 139.29 145.743 139.012 145.568 139.012Z" fill="#1F2144"/>
<path d="M124.109 75.9409C124.082 75.7013 123.957 75.5161 123.782 75.5052C120.078 75.3146 109.161 75.3091 108.305 75.2655C107.597 75.2329 107.76 76.1043 107.76 76.2568C107.799 79.7426 108.305 87.6947 108.425 89.4104C108.474 90.162 108.556 90.5378 109.128 90.723C110.217 91.0825 121.113 91.0225 123.777 91.0607C124.621 91.0607 124.709 90.7611 124.621 88.833C124.284 81.3821 124.73 82.3679 124.109 75.9409Z" fill="#89E294"/>
<path d="M119.054 79.6119C118.945 79.5484 118.816 79.5305 118.695 79.5622C118.573 79.5938 118.469 79.6724 118.406 79.7807L115.654 84.5465L114.516 83.065C114.478 83.0157 114.431 82.9743 114.377 82.9432C114.323 82.9121 114.263 82.8919 114.202 82.8838C114.14 82.8757 114.077 82.8799 114.017 82.896C113.957 82.9122 113.901 82.94 113.851 82.9779C113.802 83.0153 113.761 83.0621 113.73 83.1155C113.699 83.169 113.678 83.228 113.67 83.2893C113.662 83.3505 113.666 83.4128 113.682 83.4725C113.699 83.5321 113.726 83.588 113.764 83.6369L115.344 85.7012C115.397 85.7716 115.469 85.8256 115.552 85.8568C115.635 85.888 115.724 85.8951 115.811 85.8775C115.898 85.8598 115.977 85.8181 116.041 85.757C116.105 85.6959 116.15 85.618 116.172 85.5323L119.223 80.2491C119.284 80.1421 119.301 80.0151 119.269 79.8958C119.238 79.7765 119.16 79.6744 119.054 79.6119Z" fill="white"/>
<path d="M129.977 89.4486C130.037 90.2057 130.434 90.7994 131.774 90.8375C138.819 91.0172 167.539 91.3821 170.421 91.3821C172.328 91.3821 172.442 91.0499 172.393 90.1621C172.186 86.5456 172.486 81.4966 172.219 77.0576C172.17 76.2678 172.638 75.8702 170.781 75.8648C168.531 75.8648 140.649 75.3201 130.892 75.075C129.061 75.0315 129.35 76.7635 129.367 77.0467C129.677 82.2373 129.775 86.9214 129.977 89.4486Z" fill="#F5E4D5"/>
<path d="M166.793 78.9475L133.872 78.2776C133.841 78.2838 133.813 78.3005 133.794 78.3249C133.774 78.3492 133.763 78.3796 133.763 78.411C133.763 78.4424 133.774 78.4729 133.794 78.4972C133.813 78.5215 133.841 78.5382 133.872 78.5445L166.793 79.2144C166.824 79.2082 166.851 79.1915 166.871 79.1671C166.891 79.1428 166.902 79.1124 166.902 79.081C166.902 79.0496 166.891 79.0191 166.871 78.9948C166.851 78.9705 166.824 78.9538 166.793 78.9475ZM133.714 82.88C144.686 83.1033 146.827 83.2667 157.804 83.49C157.835 83.4837 157.863 83.467 157.882 83.4427C157.902 83.4184 157.913 83.388 157.913 83.3565C157.913 83.3251 157.902 83.2947 157.882 83.2704C157.863 83.246 157.835 83.2294 157.804 83.2231C146.832 82.9998 144.691 82.8364 133.714 82.6131C133.683 82.6193 133.655 82.636 133.636 82.6604C133.616 82.6847 133.605 82.7151 133.605 82.7465C133.605 82.7779 133.616 82.8084 133.636 82.8327C133.655 82.857 133.683 82.8737 133.714 82.88ZM166.341 87.7002L133.414 87.0248C133.383 87.0311 133.356 87.0478 133.336 87.0721C133.316 87.0964 133.305 87.1269 133.305 87.1583C133.305 87.1897 133.316 87.2201 133.336 87.2444C133.356 87.2688 133.383 87.2855 133.414 87.2917L166.335 87.9671C166.366 87.9615 166.394 87.9454 166.415 87.9215C166.435 87.8975 166.447 87.8673 166.447 87.8359C166.448 87.8044 166.438 87.7738 166.418 87.749C166.399 87.7243 166.371 87.7071 166.341 87.7002Z" fill="#1F2144"/>
<path d="M124.709 101.235C124.709 100.995 124.556 100.81 124.387 100.799C120.677 100.609 109.76 100.603 108.905 100.56C108.202 100.521 108.36 101.393 108.36 101.551C108.392 105.037 108.905 113.016 109.024 114.704C109.068 115.451 109.155 115.826 109.722 116.017C110.811 116.371 121.707 116.317 124.371 116.355C125.221 116.355 125.302 116.05 125.221 114.122C124.888 106.676 125.335 107.656 124.709 101.235Z" fill="#89E294"/>
<path d="M119.964 105.93C119.91 105.899 119.851 105.878 119.79 105.87C119.729 105.861 119.667 105.865 119.607 105.881C119.547 105.896 119.491 105.924 119.442 105.961C119.393 105.999 119.352 106.045 119.321 106.099L116.564 110.87L115.426 109.388C115.389 109.339 115.342 109.297 115.289 109.266C115.236 109.234 115.177 109.213 115.115 109.205C115.054 109.196 114.992 109.2 114.932 109.215C114.872 109.231 114.816 109.258 114.766 109.296C114.717 109.334 114.676 109.381 114.644 109.435C114.613 109.489 114.593 109.548 114.585 109.61C114.577 109.672 114.581 109.734 114.597 109.795C114.613 109.855 114.641 109.911 114.679 109.96L116.259 112.019C116.313 112.088 116.385 112.14 116.467 112.17C116.549 112.201 116.637 112.208 116.723 112.191C116.809 112.174 116.888 112.134 116.952 112.075C117.017 112.015 117.063 111.94 117.087 111.856L120.138 106.573C120.169 106.519 120.189 106.46 120.197 106.398C120.205 106.337 120.201 106.275 120.185 106.215C120.169 106.155 120.141 106.099 120.103 106.05C120.065 106.001 120.017 105.96 119.964 105.93Z" fill="white"/>
<path d="M166.619 104.22L133.692 103.784C133.661 103.79 133.634 103.807 133.614 103.831C133.594 103.856 133.583 103.886 133.583 103.917C133.583 103.949 133.594 103.979 133.614 104.004C133.634 104.028 133.661 104.045 133.692 104.051L166.619 104.487C166.788 104.492 166.788 104.225 166.619 104.22Z" fill="#1F2144"/>
<path d="M130.238 115.26C130.298 116.022 130.696 116.611 132.036 116.649C139.08 116.839 167.801 117.226 170.683 117.193C172.589 117.193 172.704 116.856 172.655 115.973C172.448 112.357 172.753 107.308 172.486 102.869C172.437 102.079 172.911 101.682 171.053 101.671C168.798 101.671 140.921 101.126 131.164 100.865C129.334 100.816 129.617 102.548 129.633 102.831C129.944 108.027 130.058 112.716 130.238 115.26Z" fill="#F5E4D5"/>
<path d="M133.022 104.917C143.994 105.064 146.14 105.211 157.112 105.358C157.143 105.352 157.171 105.335 157.191 105.311C157.21 105.286 157.221 105.256 157.221 105.225C157.221 105.193 157.21 105.163 157.191 105.138C157.171 105.114 157.143 105.097 157.112 105.091C146.14 104.944 143.994 104.797 133.022 104.65C132.991 104.656 132.964 104.673 132.944 104.697C132.924 104.721 132.913 104.752 132.913 104.783C132.913 104.815 132.924 104.845 132.944 104.87C132.964 104.894 132.991 104.911 133.022 104.917ZM165.682 109.508L132.782 109.056C132.752 109.062 132.724 109.079 132.704 109.103C132.684 109.128 132.673 109.158 132.673 109.19C132.673 109.221 132.684 109.251 132.704 109.276C132.724 109.3 132.752 109.317 132.782 109.323L165.709 109.764C165.735 109.752 165.756 109.733 165.77 109.708C165.784 109.683 165.789 109.655 165.786 109.627C165.783 109.598 165.772 109.572 165.753 109.551C165.734 109.529 165.709 109.515 165.682 109.508Z" fill="#1F2144"/>
<path d="M177.068 30.4238C177.069 30.182 177.023 29.9423 176.932 29.7184C176.84 29.4945 176.706 29.2908 176.536 29.1188C176.366 28.9468 176.164 28.81 175.941 28.7162C175.718 28.6224 175.479 28.5733 175.237 28.5719L104.023 28.3159C103.535 28.3302 103.073 28.537 102.737 28.8911C102.401 29.2453 102.219 29.718 102.231 30.2059L102.275 33.8932H177.1L177.068 30.4238Z" fill="#78ADD9"/>
<path d="M103.56 172.133C103.559 172.375 103.605 172.615 103.696 172.839C103.787 173.063 103.922 173.266 104.092 173.438C104.262 173.61 104.464 173.747 104.687 173.841C104.91 173.935 105.149 173.984 105.391 173.985L176.599 174.241C176.841 174.235 177.079 174.181 177.3 174.082C177.521 173.984 177.72 173.843 177.887 173.667C178.053 173.492 178.184 173.285 178.27 173.059C178.357 172.834 178.398 172.593 178.391 172.351L178.304 163.163L103.473 162.89L103.56 172.133Z" fill="#78ADD9"/>
<path d="M141.804 170.298H138.611C138.457 170.298 138.309 170.239 138.197 170.132C138.085 170.026 138.019 169.88 138.012 169.726L137.881 167.253C137.877 167.172 137.889 167.09 137.917 167.014C137.945 166.937 137.989 166.867 138.045 166.808C138.101 166.749 138.169 166.702 138.244 166.67C138.318 166.638 138.399 166.621 138.481 166.621H141.673C141.823 166.619 141.969 166.675 142.08 166.776C142.191 166.877 142.26 167.016 142.272 167.166L142.403 169.644C142.408 169.726 142.395 169.807 142.367 169.884C142.339 169.96 142.296 170.03 142.24 170.089C142.183 170.148 142.116 170.195 142.041 170.228C141.966 170.26 141.885 170.276 141.804 170.276V170.298ZM138.481 166.888C138.436 166.889 138.392 166.899 138.351 166.917C138.309 166.935 138.272 166.96 138.241 166.993C138.211 167.025 138.186 167.064 138.17 167.106C138.154 167.147 138.147 167.192 138.148 167.237L138.279 169.715C138.285 169.8 138.322 169.879 138.383 169.938C138.445 169.997 138.526 170.03 138.611 170.031H141.804C141.849 170.031 141.893 170.022 141.934 170.004C141.976 169.986 142.013 169.96 142.044 169.927C142.076 169.896 142.101 169.857 142.116 169.815C142.132 169.773 142.139 169.727 142.136 169.682L142.005 167.204C142.001 167.119 141.964 167.039 141.903 166.98C141.841 166.921 141.759 166.888 141.673 166.888H138.481Z" fill="#F5E4D5"/>
<path d="M166.117 170.183C166.087 170.182 166.058 170.171 166.036 170.151L163.737 168.359L165.856 166.436C165.868 166.424 165.883 166.414 165.898 166.408C165.914 166.401 165.931 166.398 165.949 166.398C165.966 166.398 165.983 166.401 165.999 166.408C166.015 166.414 166.029 166.424 166.041 166.436C166.054 166.448 166.064 166.462 166.071 166.478C166.078 166.494 166.082 166.511 166.082 166.529C166.082 166.546 166.078 166.563 166.071 166.579C166.064 166.595 166.054 166.61 166.041 166.621L164.156 168.332L166.21 169.933C166.233 169.958 166.246 169.991 166.246 170.025C166.246 170.06 166.233 170.093 166.21 170.118C166.2 170.135 166.187 170.149 166.171 170.16C166.155 170.172 166.137 170.179 166.117 170.183Z" fill="#F5E4D5"/>
<path d="M116.581 166.714H120.459C120.479 166.718 120.5 166.718 120.519 166.713C120.539 166.708 120.557 166.699 120.573 166.686C120.588 166.673 120.601 166.657 120.61 166.639C120.618 166.621 120.623 166.601 120.623 166.58C120.623 166.56 120.618 166.54 120.61 166.522C120.601 166.504 120.588 166.488 120.573 166.475C120.557 166.462 120.539 166.453 120.519 166.448C120.5 166.443 120.479 166.443 120.459 166.447H116.581C116.561 166.443 116.54 166.443 116.521 166.448C116.501 166.453 116.483 166.462 116.467 166.475C116.452 166.488 116.439 166.504 116.43 166.522C116.422 166.54 116.417 166.56 116.417 166.58C116.417 166.601 116.422 166.621 116.43 166.639C116.439 166.657 116.452 166.673 116.467 166.686C116.483 166.699 116.501 166.708 116.521 166.713C116.54 166.718 116.561 166.718 116.581 166.714ZM120.487 168.179C120.523 168.179 120.557 168.165 120.583 168.139C120.608 168.114 120.623 168.079 120.623 168.043C120.623 168.007 120.608 167.972 120.583 167.947C120.557 167.921 120.523 167.907 120.487 167.907H116.608C116.572 167.907 116.537 167.921 116.511 167.947C116.486 167.972 116.472 168.007 116.472 168.043C116.472 168.079 116.486 168.114 116.511 168.139C116.537 168.165 116.572 168.179 116.608 168.179H120.487ZM120.596 169.399H116.711C116.68 169.405 116.653 169.422 116.633 169.446C116.613 169.471 116.602 169.501 116.602 169.533C116.602 169.564 116.613 169.594 116.633 169.619C116.653 169.643 116.68 169.66 116.711 169.666H120.596C120.626 169.66 120.654 169.643 120.674 169.619C120.694 169.594 120.705 169.564 120.705 169.533C120.705 169.501 120.694 169.471 120.674 169.446C120.654 169.422 120.626 169.405 120.596 169.399Z" fill="#F5E4D5"/>
<path d="M139.903 61.3604L154.149 67.526C157.101 68.6153 156.055 62.0358 156.055 62.0358L140.954 59.1709L139.903 61.3604Z" fill="#FD6D0D"/>
<path d="M157.842 62.2154C157.842 62.2154 155.783 61.3821 154.96 61.9322C154.138 62.4823 153.353 66.1969 153.871 67.3788C154.388 68.5607 156.666 69.1326 156.666 69.1326L157.842 62.2154Z" fill="white"/>
<path d="M182.63 47.4606C183.327 45.783 184.809 44.1272 186.721 43.8059C187.122 43.7125 187.542 43.7588 187.913 43.9371C188.283 44.1155 188.582 44.4151 188.759 44.7863C189.498 44.3926 190.339 44.2313 191.172 44.3233C191.989 44.3941 192.55 44.917 193.384 44.9715C194.035 44.9493 194.686 44.9931 195.329 45.1022C196.571 45.4453 197.851 46.6763 197.426 48.0815C197.328 48.3427 197.176 48.5803 196.979 48.7786C197.23 49.0234 197.417 49.3268 197.521 49.6615C197.626 49.9962 197.646 50.3517 197.579 50.6958C197.301 52.2046 195.775 52.6348 194.582 53.2503C192.708 54.2252 191.619 56.3167 189.783 57.4006C188.219 58.2089 186.509 58.6977 184.754 58.8385C184.754 58.9093 184.754 58.9801 184.782 59.0455C184.782 59.1599 184.662 59.2797 184.542 59.1871C183.801 58.6806 183.605 57.4224 183.322 56.6217C182.897 55.4289 182.679 54.149 182.314 52.929C182.085 52.2712 181.92 51.5926 181.823 50.9028C181.687 49.5684 182.139 48.6425 182.63 47.4606Z" fill="#F2CAA9"/>
<path d="M195.465 181.354V181.305C195.127 179.916 194.375 174.639 194.277 173.223C194.212 172.525 198.123 171.785 198.21 173.119C198.287 174.236 197.965 179.023 197.971 180.14C197.971 181.049 198.025 182.155 196.81 182.291C196.51 182.326 196.208 182.25 195.96 182.078C195.712 181.905 195.536 181.648 195.465 181.354Z" fill="#FD6D0D"/>
<path d="M178.62 181.262C178.62 181.262 178.62 181.229 178.62 181.213C178.348 179.807 177.961 174.481 177.906 173.043C177.879 172.346 181.72 172.155 181.72 173.489C181.72 174.611 181.213 179.04 181.175 180.162C181.132 181.071 181.126 182.171 179.911 182.253C179.613 182.271 179.318 182.18 179.081 181.998C178.843 181.816 178.68 181.555 178.62 181.262Z" fill="#FD6D0D"/>
<path d="M199.79 103.55C199.79 103.55 203.255 109.318 203.533 120.576C203.745 129.29 200.983 172.917 200.706 173.468C200.428 174.018 193.313 174.138 192.398 173.816C191.482 173.495 188.225 120.134 188.225 120.134L187.369 105.167C187.369 105.167 188.388 101.322 190.093 100.772C191.798 100.222 199.79 103.55 199.79 103.55Z" fill="#192147"/>
<path d="M176.828 104.296C176.828 104.296 174.393 108.49 174.616 121.676C174.774 131.131 174.561 173.01 175.656 173.489C176.751 173.969 183.283 174.105 183.899 173.489C184.515 172.874 190.104 121.507 190.104 121.507L189.739 104.296H176.828Z" fill="#192147"/>
<path d="M184.073 65.4453C182.984 67.1337 186.171 68.8494 187.418 69.0237C188.469 69.0674 189.509 68.8064 190.415 68.2721C190.959 67.967 192.398 66.7198 191.58 65.9464C191.341 65.7197 191.192 65.4139 191.161 65.0858C191.251 64.5138 191.311 63.9375 191.341 63.3592C191.341 63.3592 191.341 63.2721 191.341 63.2285C191.341 63.1849 191.341 63.1414 191.341 63.1032C191.341 63.0651 191.341 63.0706 191.341 63.0542C192.13 62.9132 192.856 62.5329 193.422 61.9649C194.751 60.5815 195.122 59.1109 195.432 57.3135C195.624 56.2355 195.681 55.1376 195.601 54.0455C195.596 53.8773 195.578 53.7097 195.546 53.5445C195.546 53.4736 195.546 53.4137 195.519 53.3484C195.492 53.283 195.481 53.136 195.459 53.027C195.385 52.6574 195.285 52.2935 195.16 51.9377C194.986 51.2447 194.654 50.6014 194.19 50.0581C193.726 49.5148 193.142 49.0862 192.485 48.8059C190.965 48.1142 188.535 47.929 186.988 48.7024C185.879 49.2909 185.017 50.257 184.558 51.4257C184.357 51.9704 184.161 52.515 183.981 53.0597C183.981 53.0597 183.087 52.9399 182.864 53.6044C182.319 55.1784 184.455 57.6839 184.455 57.6839C184.455 57.6839 184.455 60.2819 184.389 61.7252C184.346 62.8963 184.28 64.0618 184.248 65.2274C184.248 65.2873 184.248 65.3309 184.248 65.3854C184.216 65.3812 184.184 65.3844 184.154 65.3948C184.123 65.4052 184.096 65.4225 184.073 65.4453Z" fill="#FD6D0D"/>
<path d="M193.46 55.598C193.402 55.4847 193.375 55.3584 193.381 55.2315C193.386 55.1045 193.425 54.9812 193.493 54.8736C193.543 54.8129 193.615 54.7739 193.693 54.7648C193.771 54.7556 193.85 54.777 193.913 54.8246C194.098 55.0206 194.174 55.6688 193.864 55.8049C193.684 55.8812 193.542 55.7723 193.46 55.598Z" fill="#371005"/>
<path d="M187.478 55.7178C187.415 55.6077 187.381 55.4828 187.381 55.3556C187.381 55.2285 187.415 55.1035 187.478 54.9934C187.527 54.9323 187.597 54.8924 187.675 54.8822C187.752 54.872 187.83 54.8924 187.893 54.939C188.084 55.1296 188.171 55.7723 187.866 55.9139C187.707 56.001 187.566 55.8921 187.478 55.7178Z" fill="#371005"/>
<path style="mix-blend-mode:multiply" opacity="0.72" d="M189.162 64.514C189.787 64.8218 190.466 65.0067 191.161 65.0587C191.243 64.514 191.314 63.9149 191.341 63.3321H191.308H191.341C191.341 63.2831 191.341 63.2449 191.341 63.2014C191.335 63.1598 191.335 63.1177 191.341 63.0761C191.04 63.0111 190.731 62.9964 190.426 63.0325C189.802 63.0165 189.195 62.828 188.671 62.4879C188.274 62.2101 187.462 61.4911 187.337 62.4116C187.211 63.3321 188.492 64.1763 189.162 64.514Z" fill="url(#paint2_linear)"/>
<path d="M200.362 113.876C200.362 113.876 195.928 121.175 194.49 121.104C193.051 121.033 189.706 115.472 189.706 115.472C189.706 115.472 185.217 120.347 184.182 120.347C183.147 120.347 178.141 115.336 178.141 115.336L200.362 113.876Z" fill="white"/>
<path d="M191.875 57.7275C191.804 57.7277 191.736 57.7006 191.684 57.652C191.632 57.6034 191.601 57.5369 191.597 57.4661L191.504 54.9171C191.503 54.8806 191.508 54.8442 191.521 54.8099C191.534 54.7757 191.553 54.7442 191.578 54.7174C191.603 54.6906 191.633 54.6689 191.666 54.6537C191.699 54.6384 191.735 54.6298 191.771 54.6284C191.844 54.6283 191.914 54.6559 191.966 54.7055C192.019 54.7551 192.051 54.8231 192.055 54.8953L192.148 57.4443C192.149 57.4801 192.144 57.5158 192.131 57.5494C192.119 57.583 192.1 57.6138 192.076 57.6401C192.051 57.6664 192.022 57.6877 191.989 57.7027C191.957 57.7177 191.922 57.7261 191.886 57.7275H191.875Z" fill="#E6580B"/>
<path d="M192.343 58.7678C192.087 58.7678 191.798 59.0728 191.559 59.1327C191.401 59.16 191.239 59.1522 191.085 59.1098C190.93 59.0674 190.787 58.9916 190.665 58.8876C190.513 58.7895 190.306 58.5281 189.962 58.5989C189.89 58.6251 189.828 58.6724 189.783 58.7346C189.739 58.7968 189.714 58.871 189.712 58.9475C189.712 59.4922 190.371 59.9061 190.85 60.0368C191.116 60.1034 191.393 60.1065 191.66 60.0459C191.927 59.9854 192.176 59.8628 192.387 59.6882C192.735 59.3941 192.882 58.8222 192.343 58.7678Z" fill="white"/>
<path d="M184.313 65.2383C188.459 64.6936 192.637 65.674 196.745 67.6729C200.226 69.3668 202.149 70.6467 203.337 72.8907C204.524 75.1347 206.061 77.7927 206.061 77.7927C205.284 80.6975 204.503 83.6115 203.718 86.5345C202.426 91.1411 202.159 95.9745 202.934 100.696C203.478 103.909 204.132 106.774 203.587 110.124C202.825 114.808 199.071 115.913 189.728 115.456C180.93 115.031 175.874 117.313 173.723 114.426C171.571 111.54 172.088 83.212 172.088 83.212C172.088 83.212 171.424 75.4506 172.088 73.4082C172.916 70.7339 175.526 68.882 177.83 67.5367C179.818 66.3501 182.021 65.5689 184.313 65.2383Z" fill="#DC291E"/>
<path d="M192.708 53.3865C192.709 53.4129 192.718 53.4386 192.733 53.4599C192.749 53.4813 192.77 53.4975 192.795 53.5063C193.269 53.697 193.847 53.5063 194.337 53.5063C194.727 53.5366 195.118 53.5366 195.508 53.5063C195.508 53.4355 195.508 53.3756 195.481 53.3102C195.454 53.2449 195.443 53.0978 195.421 52.9889C195.005 52.7684 194.531 52.6827 194.065 52.7438C193.678 52.7819 192.768 52.8309 192.708 53.3865Z" fill="#F2CAA9"/>
<path d="M186.411 53.3866C186.639 52.8419 187.604 52.7711 188.099 52.7656C188.604 52.741 189.102 52.8847 189.516 53.1741C189.533 53.1907 189.547 53.2113 189.555 53.234C189.563 53.2568 189.565 53.2811 189.562 53.305C189.559 53.329 189.55 53.3518 189.536 53.3717C189.523 53.3915 189.504 53.4078 189.483 53.4192C189.065 53.5333 188.629 53.5683 188.197 53.5227C187.696 53.5663 186.933 53.9693 186.487 53.6643C186.441 53.6361 186.408 53.5918 186.394 53.5403C186.38 53.4889 186.386 53.434 186.411 53.3866Z" fill="#F2CAA9"/>
<path d="M184.444 49.5359C184.868 48.9025 185.424 48.3679 186.074 47.9685C186.723 47.5691 187.451 47.3142 188.208 47.2211C189.129 47.0523 189.908 47.3573 190.823 47.4063C191.603 47.4276 192.376 47.554 193.122 47.7821C193.809 48.0054 195.029 48.5065 195.383 49.2799C195.416 49.2803 195.448 49.2896 195.476 49.3069C195.503 49.3242 195.526 49.3488 195.541 49.378C195.629 49.5091 195.681 49.6605 195.694 49.8177C195.706 49.9749 195.679 50.1327 195.613 50.2762C195.548 50.4197 195.447 50.5441 195.32 50.6376C195.193 50.7311 195.044 50.7905 194.887 50.8104C193.318 51.2026 192.588 48.9531 190.932 49.6013C190.387 49.8082 190.05 50.3093 189.483 50.4782C188.983 50.5925 188.463 50.5925 187.963 50.4782C187.408 50.3464 186.824 50.4301 186.329 50.7124C185.43 51.3769 185.533 52.6296 185.593 53.6154C185.593 53.7951 185.642 53.9967 185.484 54.1601C185.125 54.4923 184.662 53.9585 184.455 53.6971C184.308 53.5383 184.173 53.369 184.052 53.1906C183.874 52.9514 183.741 52.682 183.659 52.3954C183.603 52.0609 183.612 51.7187 183.687 51.3877C183.82 50.7282 184.077 50.0999 184.444 49.5359Z" fill="#F2CAA9"/>
<path d="M186.372 65.0858C186.372 65.0858 173.194 63.6697 170.574 63.5226C167.953 63.3756 158.343 61.7253 157.592 61.9649C156.121 62.4333 155.467 63.7405 155.331 65.1947C155.015 68.5607 155.331 72.2154 159.242 72.8526C162.587 73.3973 164.254 74.089 166.798 76.491C169.343 78.8929 174.758 87.1772 174.758 87.1772L186.372 65.0858Z" fill="#DC291E"/>
<path d="M191.368 65.6849C191.368 65.6849 191.798 67.3897 189.565 68.2557C185.419 69.857 184.226 64.857 184.226 64.857C184.226 64.857 186.705 64.2688 186.841 64.2688C186.977 64.2688 191.368 65.6849 191.368 65.6849Z" fill="#FD6D0D"/>
<path d="M206.039 77.7927C206.039 77.7927 211.231 88.7186 212.892 89.4484C214.554 90.1783 215.551 87.8907 217.474 88.0759C219.397 88.2611 221.042 95.0312 220.405 96.4092C219.767 97.7872 214.358 99.7534 209.509 99.3612C204.661 98.9691 200.368 94.029 200.368 94.029C200.368 94.029 199.823 86.0607 199.823 84.4158C199.823 82.7709 206.039 77.7927 206.039 77.7927Z" fill="#DC291E"/>
<path d="M213.951 95.8683L227.442 98.4388C228.237 98.5903 229.004 98.0688 229.156 97.2739L232.791 78.2054C232.942 77.4106 232.42 76.6434 231.625 76.4919L218.134 73.9214C217.339 73.7699 216.572 74.2914 216.42 75.0863L212.785 94.1548C212.634 94.9496 213.156 95.7168 213.951 95.8683Z" fill="#371005"/>
<path d="M231.491 89.8951C231.328 90.4398 231.072 91.1696 230.478 91.2295C228.843 91.3875 229.671 88.6751 229.933 87.9017C230.065 87.4976 230.345 87.1587 230.717 86.954C230.827 86.8938 230.949 86.8624 231.074 86.8625C231.198 86.8627 231.321 86.8945 231.43 86.9549C231.538 87.0154 231.63 87.1024 231.696 87.208C231.762 87.3136 231.8 87.4342 231.807 87.5585C231.86 88.2602 231.782 88.9656 231.578 89.6391L231.491 89.8951Z" fill="#FD6D0D"/>
<path d="M191.368 65.6851C191.148 66.3332 190.774 66.9183 190.278 67.3898C189.786 67.8683 189.21 68.2523 188.579 68.5227C188.579 68.5227 190.845 69.8299 191.602 69.1981C192.583 68.3975 191.368 65.6851 191.368 65.6851Z" fill="white"/>
<path d="M188.595 68.5227C187.638 68.2809 186.746 67.8287 185.986 67.1992C185.263 66.5309 184.667 65.7375 184.226 64.8572C184.226 64.8572 184.226 68.8114 185.136 69.3343C186.487 70.1077 188.595 68.5227 188.595 68.5227Z" fill="white"/>
<path d="M194.239 184.296C194.239 184.448 194.239 184.584 194.239 184.726C194.25 184.823 194.266 184.919 194.288 185.015C194.312 185.323 194.443 185.614 194.657 185.838C194.872 186.061 195.157 186.203 195.465 186.24C196.712 186.425 202.122 186.899 205.102 186.654C206.192 186.561 206.774 186.245 206.987 185.832C207.084 185.632 207.114 185.407 207.074 185.189C206.872 184.486 206.411 183.886 205.783 183.511C205.2 183.135 204.595 182.76 203.952 182.389C203.724 182.253 203.5 182.128 203.271 182.003C203.043 181.877 202.89 181.801 202.694 181.698C202.089 181.382 201.463 181.082 200.809 180.799L200.357 180.608L200.15 180.527C198.118 179.78 195.247 179.938 195.247 179.938C195.153 180.021 195.069 180.114 194.996 180.216C194.858 180.396 194.746 180.594 194.664 180.804C194.587 180.997 194.534 181.198 194.506 181.403C194.345 182.359 194.255 183.326 194.239 184.296Z" fill="#854C3A"/>
<path d="M177.291 184.568C177.29 184.75 177.302 184.932 177.329 185.113C177.332 185.17 177.341 185.226 177.356 185.281C177.381 185.59 177.511 185.881 177.726 186.104C177.94 186.328 178.225 186.47 178.533 186.507C179.786 186.692 185.19 187.171 188.17 186.926C189.26 186.834 189.843 186.512 190.055 186.098C190.154 185.9 190.185 185.674 190.142 185.456C189.937 184.75 189.469 184.149 188.835 183.778C188.29 183.424 187.702 183.059 187.092 182.689L186.318 182.248C186.133 182.144 185.942 182.046 185.74 181.948C185.266 181.692 184.771 181.458 184.259 181.224C184.013 181.109 183.768 181.006 183.518 180.902L183.403 180.853C181.803 180.29 180.133 179.946 178.44 179.829C178.283 180.025 178.144 180.234 178.026 180.456C177.909 180.651 177.81 180.857 177.732 181.071C177.664 181.259 177.613 181.452 177.58 181.649C177.407 182.613 177.31 183.589 177.291 184.568Z" fill="#854C3A"/>
<path d="M194.261 184.726C194.271 184.823 194.288 184.919 194.31 185.014C194.334 185.323 194.465 185.614 194.679 185.837C194.894 186.061 195.179 186.203 195.487 186.24C196.734 186.425 202.144 186.899 205.124 186.654C206.213 186.561 206.796 186.245 207.009 185.831C207.105 185.632 207.136 185.407 207.096 185.189C206.889 184.482 206.419 183.882 205.783 183.511C205.2 183.135 204.595 182.76 203.952 182.389C203.594 183.014 203.174 183.601 202.699 184.143C201.659 185.298 196.979 184.878 195.617 184.802C195.165 184.764 194.691 184.764 194.261 184.726Z" fill="#FFEEE6"/>
<path d="M177.329 185.118C177.332 185.175 177.341 185.232 177.356 185.287C177.38 185.596 177.511 185.887 177.725 186.11C177.94 186.333 178.225 186.476 178.533 186.512C179.786 186.698 185.19 187.177 188.17 186.932C189.26 186.839 189.843 186.518 190.055 186.104C190.154 185.905 190.185 185.679 190.142 185.461C189.937 184.755 189.469 184.155 188.835 183.784C188.29 183.43 187.702 183.065 187.091 182.694C186.601 183.348 186.145 184.026 185.724 184.726C185.114 185.783 178.98 185.276 177.329 185.118Z" fill="#FFEEE6"/>
<path d="M194.691 180.804C195.664 181.613 196.891 182.051 198.156 182.041C199.169 181.975 200.122 181.537 200.831 180.81L200.379 180.619L200.172 180.537C198.646 181.856 196.691 181.322 195.045 180.227C194.901 180.402 194.781 180.596 194.691 180.804Z" fill="#FFEEE6"/>
<path d="M177.732 181.098C178.678 181.783 179.81 182.164 180.977 182.191C182.145 182.218 183.293 181.891 184.27 181.251C184.024 181.136 183.779 181.033 183.529 180.93C182.667 181.391 181.691 181.595 180.717 181.516C179.743 181.436 178.813 181.078 178.037 180.483C177.916 180.678 177.814 180.884 177.732 181.098Z" fill="#FFEEE6"/>
<path d="M140.093 61.4312C140.093 61.4312 134.052 59.3343 133.556 55.4399C133.06 51.5456 138.323 57.6186 138.846 57.3626C139.369 57.1066 138.186 55.5216 138.214 54.7918C138.241 54.062 140.475 55.9683 141.482 59.002C142.49 62.0358 140.093 61.4312 140.093 61.4312Z" fill="#FD6D0D"/>
<defs>
<linearGradient id="paint0_linear" x1="130.745" y1="144.546" x2="45.6229" y2="144.546" gradientUnits="userSpaceOnUse">
<stop stop-color="#1FA69E"/>
<stop offset="0.28" stop-color="#28A8A1"/>
<stop offset="1" stop-color="#40ADA7"/>
</linearGradient>
<linearGradient id="paint1_linear" x1="2002.04" y1="6366.74" x2="4964.24" y2="6366.74" gradientUnits="userSpaceOnUse">
<stop stop-color="#1FA69E"/>
<stop offset="0.28" stop-color="#28A8A1"/>
<stop offset="1" stop-color="#40ADA7"/>
</linearGradient>
<linearGradient id="paint2_linear" x1="189.347" y1="61.0826" x2="189.347" y2="65.0913" gradientUnits="userSpaceOnUse">
<stop stop-color="#F0C3A8"/>
<stop offset="1" stop-color="white"/>
</linearGradient>
</defs>
</svg>
