<svg width="88" height="88" viewBox="0 0 88 88" fill="none" xmlns="http://www.w3.org/2000/svg">
<g clip-path="url(#clip0)">
<path d="M54.0178 57.1834H57.6603V59.936H54.0178V57.1834ZM33.3217 43.555L39.5305 59.936H37.8645L34.8221 51.9576C34.7109 51.659 34.511 51.4016 34.2493 51.2198C33.9876 51.038 33.6765 50.9406 33.3579 50.9406C33.0392 50.9406 32.7282 51.038 32.4665 51.2198C32.2047 51.4016 32.0049 51.659 31.8936 51.9576L28.8513 59.936H27.1128L33.3217 43.555ZM32.2144 59.936L33.3631 56.9144L34.5117 59.9256L32.2144 59.936ZM55.8805 33.4656L62.2859 54.0272H49.4233L55.8805 33.4656ZM68.174 59.936H60.7958V57.1834H64.3866C64.6355 57.183 64.8809 57.1236 65.1024 57.0099C65.3239 56.8962 65.5153 56.7316 65.6607 56.5296C65.8062 56.3275 65.9016 56.0938 65.9392 55.8477C65.9767 55.6015 65.9553 55.35 65.8767 55.1138L57.3292 27.7224C57.2319 27.4016 57.034 27.1206 56.7647 26.9209C56.4955 26.7212 56.1691 26.6134 55.8339 26.6134C55.4987 26.6134 55.1723 26.7212 54.903 26.9209C54.6338 27.1206 54.4359 27.4016 54.3386 27.7224L45.8014 55.1345C45.7228 55.3707 45.7014 55.6222 45.7389 55.8684C45.7765 56.1145 45.8719 56.3482 46.0174 56.5503C46.1629 56.7523 46.3542 56.9169 46.5757 57.0306C46.7972 57.1443 47.0426 57.2037 47.2916 57.2041H50.8823V59.9567H42.9661L34.8221 38.5879C34.7109 38.2893 34.511 38.0319 34.2493 37.8501C33.9876 37.6683 33.6765 37.5708 33.3579 37.5708C33.0392 37.5708 32.7282 37.6683 32.4665 37.8501C32.2047 38.0319 32.0049 38.2893 31.8936 38.5879L23.8014 59.936H20.5935C20.235 60.0081 19.9124 60.2021 19.6806 60.485C19.4489 60.768 19.3223 61.1225 19.3223 61.4882C19.3223 61.854 19.4489 62.2084 19.6806 62.4914C19.9124 62.7743 20.235 62.9683 20.5935 63.0404H24.5568C24.6601 63.0505 24.7641 63.0505 24.8673 63.0404H41.9106C42.0138 63.0505 42.1178 63.0505 42.221 63.0404H68.174C68.5325 62.9683 68.8551 62.7743 69.0869 62.4914C69.3186 62.2084 69.4452 61.854 69.4452 61.4882C69.4452 61.1225 69.3186 60.768 69.0869 60.485C68.8551 60.2021 68.5325 60.0081 68.174 59.936Z" fill="#7FBC42"/>
<path d="M45.6568 21.8552C45.6568 21.6379 45.6568 21.4309 45.6568 21.2136C46.3958 22.1119 46.8676 23.1998 47.0185 24.3532C47.1693 25.5067 46.993 26.6793 46.5098 27.7375C46.0266 28.7956 45.2558 29.6967 44.2853 30.3381C43.3148 30.9795 42.1837 31.3353 41.0208 31.3651C40.0951 31.3649 39.1818 31.1525 38.351 30.7442C40.415 30.3449 42.2754 29.2391 43.6124 27.6169C44.9495 25.9947 45.6796 23.9574 45.6775 21.8552H45.6568ZM41.0208 34.5316C43.2838 34.5148 45.4632 33.6747 47.1519 32.1682C48.8406 30.6617 49.923 28.5919 50.1968 26.3455C50.4707 24.0991 49.9172 21.8298 48.6399 19.9618C47.3625 18.0937 45.4487 16.7546 43.256 16.1948C42.9497 16.1159 42.6265 16.1332 42.3303 16.2443C42.0341 16.3554 41.7793 16.5548 41.6003 16.8157C41.4206 17.0776 41.3243 17.3879 41.3243 17.7056C41.3243 18.0233 41.4206 18.3336 41.6003 18.5955C42.1849 19.4812 42.5198 20.5081 42.5696 21.5682C42.6194 22.6282 42.3823 23.682 41.8833 24.6186C41.3843 25.5552 40.6419 26.3398 39.7343 26.8897C38.8267 27.4396 37.7875 27.7345 36.7264 27.7432C36.0814 27.7454 35.4409 27.6369 34.8327 27.4224C34.532 27.3221 34.208 27.3149 33.9032 27.4018C33.5984 27.4888 33.327 27.6658 33.1245 27.9096C32.922 28.1535 32.7979 28.4529 32.7685 28.7685C32.7391 29.0841 32.8057 29.4012 32.9597 29.6783C33.7455 31.1419 34.9124 32.3656 36.337 33.22C37.7616 34.0744 39.3907 34.5276 41.0519 34.5316" fill="#7FBC42"/>
<path d="M59.7804 68.2972H29.533C29.1744 68.3693 28.8518 68.5633 28.6201 68.8463C28.3883 69.1292 28.2617 69.4837 28.2617 69.8495C28.2617 70.2152 28.3883 70.5697 28.6201 70.8526C28.8518 71.1356 29.1744 71.3296 29.533 71.4017H59.7804C60.139 71.3296 60.4615 71.1356 60.6933 70.8526C60.925 70.5697 61.0517 70.2152 61.0517 69.8495C61.0517 69.4837 60.925 69.1292 60.6933 68.8463C60.4615 68.5633 60.139 68.3693 59.7804 68.2972Z" fill="#7FBC42"/>
<path d="M44.0004 3.15616C52.0785 3.15616 59.9753 5.55161 66.692 10.0396C73.4087 14.5276 78.6438 20.9065 81.7352 28.3697C84.8265 35.833 85.6354 44.0453 84.0594 51.9682C82.4834 59.8912 78.5934 67.1688 72.8813 72.881C67.1692 78.5931 59.8915 82.4831 51.9686 84.059C44.0457 85.635 35.8333 84.8262 28.3701 81.7348C20.9069 78.6434 14.5279 73.4084 10.04 66.6916C5.55198 59.9749 3.15653 52.0782 3.15653 44C3.17022 33.1717 7.47779 22.7909 15.1345 15.1342C22.7913 7.47743 33.1721 3.16985 44.0004 3.15616ZM44.0004 0.0517404C35.294 0.043556 26.781 2.61846 19.5386 7.45055C12.2963 12.2826 6.65031 19.1547 3.31523 27.1969C-0.019848 35.2392 -0.894077 44.0901 0.803193 52.6294C2.50046 61.1687 6.69293 69.0125 12.85 75.1681C19.007 81.3237 26.8518 85.5143 35.3915 87.2096C43.9312 88.9048 52.7819 88.0285 60.8234 84.6915C68.8648 81.3546 75.7355 75.7069 80.5659 68.4635C85.3963 61.22 87.9692 52.7063 87.959 44C87.959 32.3376 83.329 21.1523 75.0863 12.9019C66.8437 4.65152 55.6627 0.0109712 44.0004 0V0.0517404Z" fill="#7FBC42"/>
<circle cx="76" cy="12" r="11" fill="#6FCF97"/>
<path fill-rule="evenodd" clip-rule="evenodd" d="M82.6866 7.27299C83.0881 7.6522 83.1062 8.28511 82.727 8.68663L75.1715 16.6866C74.9826 16.8866 74.7196 17 74.4444 17C74.1693 17 73.9063 16.8866 73.7174 16.6866L69.273 11.9807C68.8938 11.5792 68.9119 10.9463 69.3134 10.5671C69.7149 10.1879 70.3478 10.206 70.727 10.6075L74.4444 14.5436L81.273 7.31338C81.6522 6.91186 82.2851 6.89378 82.6866 7.27299Z" fill="white"/>
</g>
<defs>
<clipPath id="clip0">
<path d="M0 0H88V88H0V0Z" fill="white"/>
</clipPath>
</defs>
</svg>
