<svg width="88" height="88" viewBox="0 0 88 88" fill="none" xmlns="http://www.w3.org/2000/svg">
<g clip-path="url(#clip0)">
<path d="M44.0414 3.15431C52.1195 3.15431 60.0163 5.54835 66.733 10.0337C73.4497 14.519 78.6848 20.8942 81.7762 28.3531C84.8675 35.8119 85.6764 44.0194 84.1004 51.9377C82.5245 59.856 78.6344 67.1294 72.9223 72.8381C67.2102 78.5469 59.9325 82.4346 52.0096 84.0096C44.0867 85.5847 35.8744 84.7763 28.4111 81.6868C20.9479 78.5972 14.5689 73.3652 10.081 66.6524C5.59299 59.9396 3.19754 52.0475 3.19754 43.9741C3.21123 33.1522 7.51881 22.7775 15.1755 15.1253C22.8323 7.47303 33.2131 3.16799 44.0414 3.15431ZM44.0414 0.0517099C35.335 0.0435304 26.822 2.61692 19.5796 7.44617C12.3373 12.2754 6.69133 19.1434 3.35625 27.181C0.0211676 35.2185 -0.853062 44.0642 0.844208 52.5984C2.54148 61.1327 6.73395 68.9719 12.891 75.1239C19.048 81.2759 26.8928 85.464 35.4325 87.1583C43.9722 88.8526 52.8229 87.9768 60.8644 84.6418C68.9058 81.3067 75.7766 75.6624 80.6069 68.4232C85.4373 61.184 88.0102 52.6754 88 43.9741C88 32.3186 83.37 21.1399 75.1273 12.8943C66.8847 4.64878 55.7037 0.0109647 44.0414 0V0.0517099Z" fill="#7FBC42"/>
<path d="M44.0405 74.121C43.7988 74.1396 43.5559 74.108 43.327 74.0284C43.0981 73.9487 42.8882 73.8226 42.7103 73.658C42.5325 73.4934 42.3906 73.2939 42.2936 73.0719C42.1966 72.8499 42.1465 72.6103 42.1465 72.368C42.1465 72.1258 42.1966 71.8862 42.2936 71.6642C42.3906 71.4422 42.5325 71.2427 42.7103 71.0781C42.8882 70.9135 43.0981 70.7874 43.327 70.7077C43.5559 70.6281 43.7988 70.5965 44.0405 70.6151C48.2276 70.6316 52.3579 69.6457 56.0856 67.74C56.2916 67.5985 56.5254 67.5024 56.7715 67.4583C57.0175 67.4142 57.2702 67.423 57.5126 67.4841C57.755 67.5452 57.9815 67.6572 58.1772 67.8127C58.3728 67.9682 58.5331 68.1636 58.6472 68.3859C58.7614 68.6082 58.8269 68.8522 58.8392 69.1017C58.8516 69.3512 58.8107 69.6005 58.7191 69.833C58.6275 70.0655 58.4873 70.2757 58.308 70.4498C58.1287 70.6239 57.9144 70.7578 57.6792 70.8426C53.4589 73.0048 48.783 74.1287 44.0405 74.121Z" fill="#7FBC42"/>
<path d="M71.6286 52.5581C71.4875 52.5726 71.3453 52.5726 71.2043 52.5581C70.7529 52.4432 70.365 52.1552 70.1248 51.7563C69.8846 51.3575 69.8114 50.8801 69.9211 50.4276C71.5527 43.8753 70.6369 36.9484 67.3586 31.0444C64.0803 25.1405 58.6835 20.6988 52.257 18.6157C51.8576 18.4444 51.5357 18.1314 51.3535 17.7371C51.1713 17.3427 51.1416 16.8949 51.2701 16.48C51.3986 16.0651 51.6763 15.7124 52.0496 15.4899C52.4229 15.2674 52.8654 15.191 53.2918 15.2752C59.3755 17.2192 64.6818 21.0486 68.442 26.2085C72.2021 31.3685 74.2207 37.5909 74.2052 43.9742C74.2069 46.4135 73.915 48.844 73.336 51.2136C73.2416 51.5956 73.0224 51.9353 72.7132 52.1788C72.4039 52.4223 72.0223 52.5558 71.6286 52.5581Z" fill="#7FBC42"/>
<path d="M44.042 74.1211C39.302 74.1384 34.6262 73.0251 30.4032 70.8737C30.0508 70.6316 29.7987 70.2694 29.6941 69.855C29.5895 69.4405 29.6395 69.0022 29.8348 68.622C30.0301 68.2417 30.3573 67.9456 30.7552 67.789C31.1531 67.6324 31.5945 67.626 31.9968 67.7711C35.7246 69.6768 39.8548 70.6627 44.042 70.6462C44.2836 70.6276 44.5265 70.6591 44.7554 70.7388C44.9843 70.8185 45.1943 70.9446 45.3721 71.1092C45.5499 71.2738 45.6918 71.4733 45.7888 71.6953C45.8859 71.9173 45.936 72.1569 45.936 72.3991C45.936 72.6414 45.8859 72.881 45.7888 73.103C45.6918 73.3249 45.5499 73.5245 45.3721 73.6891C45.1943 73.8537 44.9843 73.9798 44.7554 74.0594C44.5265 74.1391 44.2836 74.1707 44.042 74.1521V74.1211Z" fill="#7FBC42"/>
<path d="M16.4537 52.558C16.0614 52.5563 15.6808 52.4243 15.3717 52.1828C15.0627 51.9413 14.8427 51.604 14.7463 51.2239C14.1673 48.8543 13.8754 46.4237 13.8771 43.9845C13.8588 37.6064 15.8714 31.3878 19.6236 26.2285C23.3759 21.0692 28.6732 17.2367 34.7491 15.2855C34.9757 15.1883 35.2202 15.1399 35.4668 15.1432C35.7134 15.1466 35.9564 15.2017 36.1803 15.3051C36.4042 15.4084 36.6038 15.5576 36.7662 15.743C36.9287 15.9284 37.0503 16.1458 37.1232 16.3812C37.1961 16.6166 37.2187 16.8647 37.1895 17.1094C37.1603 17.3541 37.08 17.59 36.9537 17.8016C36.8274 18.0133 36.658 18.1961 36.4565 18.3381C36.255 18.4801 36.0258 18.5782 35.7839 18.626C29.3707 20.7088 23.9842 25.1407 20.7072 31.0308C17.4303 36.9209 16.5058 43.8324 18.1198 50.3759C18.1755 50.6 18.1866 50.8328 18.1522 51.0612C18.1179 51.2895 18.0389 51.5089 17.9198 51.7067C17.8006 51.9046 17.6436 52.077 17.4578 52.2142C17.2719 52.3514 17.0609 52.4507 16.8366 52.5063C16.711 52.5359 16.5827 52.5533 16.4537 52.558Z" fill="#7FBC42"/>
<path d="M44.0417 19.7636C44.5247 19.7636 44.9968 19.9067 45.3985 20.1749C45.8001 20.4431 46.1131 20.8243 46.2979 21.2703C46.4828 21.7162 46.5311 22.207 46.4369 22.6804C46.3427 23.1539 46.1101 23.5888 45.7685 23.9301C45.427 24.2714 44.9918 24.5039 44.5181 24.5981C44.0444 24.6923 43.5533 24.6439 43.1071 24.4592C42.6609 24.2745 42.2794 23.9616 42.0111 23.5603C41.7428 23.1589 41.5995 22.687 41.5995 22.2043C41.5995 21.557 41.8568 20.9361 42.3148 20.4784C42.7728 20.0207 43.394 19.7636 44.0417 19.7636ZM44.0417 16.6093C42.9344 16.6093 41.8521 16.9374 40.9314 17.5522C40.0108 18.167 39.2932 19.0408 38.8695 20.0631C38.4458 21.0855 38.3349 22.2105 38.5509 23.2958C38.7669 24.3811 39.3001 25.3781 40.0831 26.1605C40.866 26.943 41.8635 27.4759 42.9495 27.6918C44.0355 27.9077 45.1611 27.7969 46.184 27.3734C47.207 26.9499 48.0813 26.2328 48.6965 25.3127C49.3116 24.3926 49.64 23.3109 49.64 22.2043C49.64 20.7204 49.0502 19.2973 48.0003 18.248C46.9504 17.1987 45.5264 16.6093 44.0417 16.6093Z" fill="#7FBC42"/>
<path d="M48.7402 48.473H39.903C39.5209 48.4766 39.1505 48.3412 38.861 48.0918C38.5716 47.8425 38.3828 47.4964 38.3301 47.1182L36.2604 32.567C36.2081 32.2054 36.2826 31.8369 36.4712 31.524C36.6598 31.2111 36.951 30.973 37.2953 30.8502L37.8747 30.6537C39.9144 29.8604 42.0724 29.413 44.2595 29.33C46.428 29.4121 48.5679 29.8524 50.5925 30.633L51.2134 30.8399C51.5577 30.9627 51.8488 31.2007 52.0375 31.5137C52.2261 31.8266 52.3005 32.1951 52.2482 32.5567L50.1786 47.1182C50.1282 47.4736 49.9583 47.8013 49.6969 48.0474C49.4355 48.2936 49.0982 48.4437 48.7402 48.473ZM41.2689 45.3704H47.3639L49.0403 33.4668C47.5269 32.9077 45.934 32.5935 44.3216 32.536C42.7078 32.5895 41.1137 32.9075 39.6029 33.4771L41.2689 45.3704Z" fill="#7FBC42"/>
<path d="M28.2819 36.3831C28.7649 36.3831 29.2371 36.5263 29.6387 36.7944C30.0403 37.0626 30.3533 37.4438 30.5382 37.8898C30.723 38.3358 30.7714 38.8265 30.6771 39.3C30.5829 39.7734 30.3503 40.2083 30.0088 40.5497C29.6672 40.891 29.2321 41.1235 28.7583 41.2176C28.2846 41.3118 27.7936 41.2635 27.3473 41.0787C26.9011 40.894 26.5197 40.5812 26.2513 40.1798C25.983 39.7784 25.8398 39.3066 25.8398 38.8238C25.8398 38.1765 26.0971 37.5557 26.555 37.098C27.013 36.6403 27.6342 36.3831 28.2819 36.3831ZM28.2819 33.2805C27.1747 33.2805 26.0923 33.6087 25.1717 34.2234C24.251 34.8382 23.5335 35.7121 23.1097 36.7344C22.686 37.7568 22.5752 38.8817 22.7912 39.9671C23.0072 41.0524 23.5404 42.0493 24.3233 42.8318C25.1062 43.6143 26.1038 44.1472 27.1897 44.363C28.2757 44.5789 29.4013 44.4681 30.4243 44.0447C31.4472 43.6212 32.3216 42.9041 32.9367 41.984C33.5519 41.0639 33.8802 39.9821 33.8802 38.8755C33.8802 37.3916 33.2904 35.9685 32.2405 34.9193C31.1906 33.87 29.7667 33.2805 28.2819 33.2805Z" fill="#7FBC42"/>
<path d="M59.8014 36.3831C60.2844 36.3831 60.7566 36.5263 61.1582 36.7944C61.5598 37.0626 61.8728 37.4438 62.0577 37.8898C62.2425 38.3358 62.2909 38.8265 62.1967 39.3C62.1024 39.7734 61.8698 40.2083 61.5283 40.5497C61.1868 40.891 60.7516 41.1235 60.2779 41.2176C59.8041 41.3118 59.3131 41.2635 58.8669 41.0787C58.4206 40.894 58.0392 40.5812 57.7709 40.1798C57.5025 39.7784 57.3593 39.3066 57.3593 38.8238C57.3593 38.1765 57.6166 37.5557 58.0746 37.098C58.5326 36.6403 59.1537 36.3831 59.8014 36.3831ZM59.8014 33.2805C58.6942 33.2805 57.6118 33.6087 56.6912 34.2234C55.7705 34.8382 55.053 35.7121 54.6293 36.7344C54.2056 37.7568 54.0947 38.8817 54.3107 39.9671C54.5267 41.0524 55.0599 42.0493 55.8428 42.8318C56.6258 43.6143 57.6233 44.1472 58.7093 44.363C59.7952 44.5789 60.9209 44.4681 61.9438 44.0447C62.9668 43.6212 63.8411 42.9041 64.4563 41.984C65.0714 41.0639 65.3997 39.9821 65.3997 38.8755C65.3997 37.3916 64.8099 35.9685 63.76 34.9193C62.7101 33.87 61.2862 33.2805 59.8014 33.2805Z" fill="#7FBC42"/>
<path d="M64.1996 65.0925H55.3831C55.0087 65.0841 54.6494 64.9434 54.369 64.6954C54.0886 64.4474 53.9053 64.108 53.8515 63.7377L51.7819 49.1865C51.7296 48.8249 51.8041 48.4564 51.9927 48.1435C52.1813 47.8306 52.4725 47.5925 52.8167 47.4697L53.3859 47.2732C55.4256 46.4799 57.5835 46.0325 59.7706 45.9495C61.9391 46.0316 64.0791 46.4719 66.1037 47.2526L66.7246 47.4594C67.0711 47.5788 67.3647 47.8161 67.5539 48.13C67.743 48.4438 67.8158 48.8141 67.7594 49.1762L65.6897 63.7377C65.6373 64.1013 65.46 64.4353 65.1881 64.6825C64.9162 64.9297 64.5667 65.0746 64.1996 65.0925ZM56.7387 61.9899H62.8233L64.4997 50.0863C62.9866 49.5262 61.3935 49.2119 59.781 49.1555C58.1674 49.2111 56.5736 49.529 55.0623 50.0966L56.7387 61.9899Z" fill="#7FBC42"/>
<path d="M32.6998 65.0925H23.8418C23.4615 65.0936 23.0936 64.957 22.8064 64.7079C22.5191 64.4588 22.3318 64.1141 22.2793 63.7377L20.2097 49.1865C20.1573 48.8249 20.2318 48.4564 20.4204 48.1435C20.6091 47.8306 20.9002 47.5925 21.2445 47.4697L21.824 47.2732C23.8637 46.4799 26.0216 46.0325 28.2087 45.9495C30.3772 46.0316 32.5172 46.4719 34.5417 47.2526L35.1626 47.4594C35.5069 47.5822 35.7981 47.8202 35.9867 48.1332C36.1753 48.4461 36.2498 48.8146 36.1974 49.1762L34.1278 63.7377C34.0778 64.0915 33.9095 64.4179 33.6502 64.6639C33.3909 64.9099 33.0559 65.061 32.6998 65.0925ZM25.2285 61.9899H31.3235L32.9999 50.0863C31.4865 49.5272 29.8936 49.213 28.2812 49.1555C26.6674 49.21 25.0735 49.5279 23.5624 50.0966L25.2285 61.9899Z" fill="#7FBC42"/>
<circle cx="76" cy="12" r="11" fill="#6FCF97"/>
<path fill-rule="evenodd" clip-rule="evenodd" d="M82.6866 7.27299C83.0881 7.6522 83.1062 8.28511 82.727 8.68663L75.1715 16.6866C74.9826 16.8866 74.7196 17 74.4444 17C74.1693 17 73.9063 16.8866 73.7174 16.6866L69.273 11.9807C68.8938 11.5792 68.9119 10.9463 69.3134 10.5671C69.7149 10.1879 70.3478 10.206 70.727 10.6075L74.4444 14.5436L81.273 7.31338C81.6522 6.91186 82.2851 6.89378 82.6866 7.27299Z" fill="white"/>
</g>
<defs>
<clipPath id="clip0">
<path d="M0 0H88V88H0V0Z" fill="white"/>
</clipPath>
</defs>
</svg>
