<svg width="88" height="88" viewBox="0 0 88 88" fill="none" xmlns="http://www.w3.org/2000/svg">
<g clip-path="url(#clip0)">
<path d="M43.9984 1.94785e-05C35.2943 -0.0081688 26.7833 2.56542 19.5421 7.39523C12.3009 12.225 6.65485 19.094 3.31824 27.1332C-0.0183599 35.1725 -0.895614 44.0207 0.797458 52.5586C2.49053 61.0965 6.67786 68.9404 12.8297 75.098C18.9816 81.2557 26.8215 85.4504 35.3578 87.1515C43.8941 88.8526 52.7432 87.9837 60.7855 84.6547C68.8279 81.3256 75.7022 75.6861 80.5388 68.4494C85.3754 61.2127 87.957 52.7042 87.957 44C87.9434 32.3419 83.309 21.1645 75.0693 12.917C66.8296 4.66959 55.6566 0.0246588 43.9984 1.94785e-05ZM43.9984 84.8542C35.9153 84.8562 28.0132 82.4611 21.2914 77.9716C14.5697 73.4821 9.33039 67.1001 6.23617 59.6326C3.14195 52.1652 2.33182 43.9478 3.90826 36.0199C5.48469 28.092 9.37687 20.8097 15.0925 15.0941C20.8081 9.37845 28.0904 5.48627 36.0184 3.90983C43.9463 2.3334 52.1636 3.14352 59.6311 6.23775C67.0985 9.33197 73.4806 14.5713 77.97 21.293C82.4595 28.0147 84.8547 35.9169 84.8526 44C84.8389 54.831 80.5303 65.2145 72.8716 72.8732C65.2129 80.5318 54.8294 84.8405 43.9984 84.8542Z" fill="#FFC52F"/>
<path d="M52.2259 54.1307C49.7112 52.7116 46.8858 51.9333 43.9992 51.8645C41.0949 51.9248 38.2508 52.7034 35.7207 54.1307C35.4766 54.2799 35.2774 54.4924 35.1444 54.7456C35.0114 54.9989 34.9495 55.2835 34.9653 55.5691L35.669 67.7902C35.6903 68.1937 35.8672 68.5732 36.1624 68.8491C36.4576 69.125 36.8482 69.2759 37.2522 69.27H50.7047C51.1044 69.268 51.4884 69.114 51.7787 68.8391C52.0689 68.5643 52.2436 68.1892 52.2673 67.7902L52.9813 55.5691C52.9971 55.2835 52.9352 54.9989 52.8022 54.7456C52.6691 54.4924 52.47 54.2799 52.2259 54.1307ZM49.2353 66.1345H38.763L38.2042 56.397C40.0144 55.5241 41.9901 55.0478 43.9992 55C46.0081 55.0491 47.9835 55.5253 49.7941 56.397L49.2353 66.1345Z" fill="#FFC52F"/>
<path d="M43.9986 15.2221C39.3135 15.2187 34.6984 16.3601 30.555 18.547C26.4115 20.7339 22.8651 23.9 20.2243 27.77C17.5835 31.64 15.9282 36.0965 15.4024 40.7521C14.8766 45.4077 15.4962 50.1212 17.2074 54.4827C17.3155 54.7838 17.5133 55.0444 17.7743 55.2295C18.0352 55.4146 18.3466 55.5151 18.6665 55.5175C18.9212 55.5181 19.1721 55.4565 19.3976 55.338C19.623 55.2194 19.816 55.0476 19.9598 54.8375C20.1037 54.6273 20.194 54.3852 20.2229 54.1322C20.2517 53.8792 20.2184 53.6229 20.1256 53.3858C18.6013 49.4982 18.0495 45.2973 18.518 41.148C18.9866 36.9987 20.4613 33.0266 22.8141 29.5769C25.1669 26.1272 28.3266 23.3042 32.0185 21.3534C35.7104 19.4025 39.8229 18.3828 43.9986 18.3828C48.1743 18.3828 52.2868 19.4025 55.9787 21.3534C59.6706 23.3042 62.8303 26.1272 65.1831 29.5769C67.5359 33.0266 69.0107 36.9987 69.4792 41.148C69.9477 45.2973 69.3959 49.4982 67.8716 53.3858C67.7765 53.5808 67.7228 53.7934 67.7138 54.0102C67.7049 54.227 67.7409 54.4433 67.8195 54.6455C67.8982 54.8477 68.0179 55.0314 68.171 55.1852C68.3241 55.3389 68.5074 55.4593 68.7093 55.5387C68.9112 55.6182 69.1274 55.655 69.3442 55.6469C69.561 55.6388 69.7738 55.5859 69.9692 55.4916C70.1646 55.3973 70.3384 55.2636 70.4796 55.0988C70.6208 54.9341 70.7264 54.7419 70.7898 54.5344C72.5118 50.1703 73.1399 45.4511 72.6193 40.7885C72.0987 36.1259 70.4453 31.6614 67.8032 27.7845C65.1611 23.9076 61.6106 20.736 57.4614 18.5464C53.3121 16.3567 48.6902 15.2154 43.9986 15.2221Z" fill="#FFC52F"/>
<path d="M43.9991 22.1967C40.5025 22.1931 37.058 23.044 33.9651 24.6753C30.8723 26.3065 28.2249 28.6687 26.2532 31.5564C24.2815 34.4441 23.0452 37.7698 22.6519 41.2443C22.2585 44.7187 22.72 48.2367 23.9963 51.4921C24.1056 51.7923 24.3038 52.0522 24.5644 52.2371C24.8251 52.4219 25.1359 52.523 25.4554 52.5269C25.6533 52.5286 25.8498 52.4936 26.0349 52.4234C26.23 52.3471 26.4079 52.2327 26.5582 52.0868C26.7084 51.9408 26.8281 51.7664 26.91 51.5736C26.9919 51.3808 27.0345 51.1736 27.0353 50.9641C27.0361 50.7547 26.995 50.5471 26.9145 50.3538C25.8205 47.5719 25.4228 44.5649 25.756 41.5943C26.0891 38.6237 27.1431 35.7795 28.8262 33.3091C30.5092 30.8387 32.7704 28.8169 35.413 27.4197C38.0556 26.0225 40.9995 25.2921 43.9888 25.2921C46.978 25.2921 49.922 26.0225 52.5646 27.4197C55.2072 28.8169 57.4683 30.8387 59.1514 33.3091C60.8344 35.7795 61.8884 38.6237 62.2216 41.5943C62.5548 44.5649 62.1571 47.5719 61.0631 50.3538C60.9884 50.5454 60.9521 50.7498 60.9564 50.9555C60.9606 51.1611 61.0054 51.3638 61.088 51.5522C61.1706 51.7405 61.2896 51.9107 61.438 52.0531C61.5864 52.1955 61.7614 52.3072 61.953 52.382C62.1446 52.4567 62.3491 52.493 62.5547 52.4887C62.7603 52.4844 62.9631 52.4397 63.1515 52.3571C63.3398 52.2744 63.51 52.1555 63.6524 52.0071C63.7948 51.8587 63.9065 51.6837 63.9813 51.4921C65.2516 48.2381 65.7094 44.7235 65.3148 41.2527C64.9203 37.782 63.6853 34.4597 61.717 31.574C59.7486 28.6882 57.1063 26.326 54.0189 24.692C50.9315 23.058 47.4923 22.2014 43.9991 22.1967Z" fill="#FFC52F"/>
<path d="M43.9975 29.6577C41.6639 29.6579 39.3655 30.2275 37.3019 31.3171C35.2383 32.4067 33.4717 33.9834 32.1555 35.9104C30.8392 37.8374 30.013 40.0564 29.7486 42.375C29.4842 44.6936 29.7895 47.0417 30.6381 49.2156C30.7891 49.6025 31.0876 49.9137 31.4679 50.0806C31.8483 50.2475 32.2794 50.2564 32.6663 50.1055C33.0533 49.9546 33.3645 49.6561 33.5314 49.2757C33.6983 48.8953 33.7072 48.4642 33.5563 48.0773C33.0417 46.7796 32.7783 45.3961 32.7802 44.0001C32.7802 42.5271 33.0703 41.0684 33.634 39.7075C34.1978 38.3465 35.024 37.1099 36.0656 36.0683C37.1073 35.0267 38.3439 34.2004 39.7048 33.6367C41.0658 33.073 42.5244 32.7828 43.9975 32.7828C45.4706 32.7828 46.9292 33.073 48.2902 33.6367C49.6511 34.2004 50.8877 35.0267 51.9293 36.0683C52.9709 37.1099 53.7972 38.3465 54.3609 39.7075C54.9246 41.0684 55.2148 42.5271 55.2148 44.0001C55.2166 45.3961 54.9533 46.7796 54.4387 48.0773C54.3584 48.2713 54.3179 48.4794 54.3193 48.6894C54.3208 48.8993 54.3643 49.1069 54.4472 49.2998C54.5301 49.4926 54.6509 49.667 54.8022 49.8125C54.9536 49.958 55.1326 50.0717 55.3286 50.1469C55.5101 50.217 55.7032 50.2521 55.8978 50.2504C56.2173 50.2465 56.5281 50.1454 56.7887 49.9606C57.0494 49.7757 57.2475 49.5158 57.3568 49.2156C58.2054 47.0417 58.5108 44.6936 58.2463 42.375C57.9819 40.0564 57.1557 37.8374 55.8395 35.9104C54.5232 33.9834 52.7567 32.4067 50.693 31.3171C48.6294 30.2275 46.3311 29.6579 43.9975 29.6577Z" fill="#FFC52F"/>
<path d="M50.1872 44C50.1872 42.772 49.8231 41.5716 49.1408 40.5505C48.4586 39.5295 47.4889 38.7337 46.3544 38.2638C45.2199 37.7938 43.9715 37.6709 42.7671 37.9104C41.5627 38.15 40.4564 38.7413 39.5881 39.6097C38.7197 40.478 38.1284 41.5843 37.8888 42.7887C37.6493 43.9931 37.7722 45.2415 38.2422 46.376C38.7121 47.5105 39.5079 48.4802 40.5289 49.1625C41.55 49.8447 42.7504 50.2088 43.9784 50.2088C45.6251 50.2088 47.2043 49.5547 48.3687 48.3903C49.5331 47.2259 50.1872 45.6467 50.1872 44ZM40.9464 44C40.9465 43.3984 41.1243 42.8103 41.4575 42.3095C41.7907 41.8087 42.2644 41.4175 42.8192 41.185C43.374 40.9525 43.9851 40.8891 44.5758 41.0027C45.1666 41.1164 45.7105 41.402 46.1394 41.8238C46.5683 42.2456 46.8631 42.7846 46.9867 43.3734C47.1102 43.9621 47.0571 44.5742 46.834 45.1328C46.6108 45.6914 46.2276 46.1717 45.7325 46.5132C45.2373 46.8548 44.6523 47.0425 44.0508 47.0527C43.6456 47.0595 43.2431 46.9856 42.8667 46.8353C42.4903 46.685 42.1477 46.4612 41.8587 46.1771C41.5697 45.8929 41.3402 45.5541 41.1836 45.1803C41.027 44.8065 40.9463 44.4053 40.9464 44Z" fill="#FFC52F"/>
<circle cx="76" cy="12" r="10.5" fill="#6FCF97"/>
<path fill-rule="evenodd" clip-rule="evenodd" d="M82.6866 7.27299C83.0881 7.6522 83.1062 8.28511 82.727 8.68663L75.1715 16.6866C74.9826 16.8867 74.7196 17 74.4444 17C74.1693 17 73.9063 16.8867 73.7174 16.6866L69.273 11.9807C68.8938 11.5792 68.9119 10.9463 69.3134 10.5671C69.7149 10.1879 70.3478 10.206 70.727 10.6075L74.4444 14.5436L81.273 7.31338C81.6522 6.91186 82.2851 6.89378 82.6866 7.27299Z" fill="white"/>
</g>
<defs>
<clipPath id="clip0">
<path d="M0 0H88V88H0V0Z" fill="white"/>
</clipPath>
</defs>
</svg>
