<svg width="48" height="48" viewBox="0 0 48 48" fill="none" xmlns="http://www.w3.org/2000/svg">
<g clip-path="url(#clip0)">
<g opacity="0.6">
<path d="M24.0001 -3.51517e-05C19.2524 -0.00450149 14.61 1.39928 10.6603 4.03371C6.71055 6.66815 3.63089 10.4149 1.81093 14.7999C-0.00903795 19.1849 -0.48754 24.0112 0.435954 28.6683C1.35945 33.3253 3.64344 37.6038 6.999 40.9625C10.3546 44.3212 14.6309 46.6093 19.2871 47.5371C23.9432 48.465 28.77 47.9911 33.1567 46.1752C37.5435 44.3594 41.2931 41.2833 43.9312 37.336C46.5694 33.3887 47.9775 28.7477 47.9775 24C47.9701 17.641 45.4422 11.5442 40.9479 7.04561C36.4535 2.547 30.3591 0.0134045 24.0001 -3.51517e-05V-3.51517e-05ZM24.0001 46.2841C19.5912 46.2852 15.2809 44.9787 11.6145 42.5299C7.94809 40.0811 5.09028 36.6 3.40252 32.5268C1.71477 28.4537 1.27288 23.9715 2.13275 19.6472C2.99263 15.3229 5.11564 11.3507 8.23325 8.23309C11.3509 5.11547 15.323 2.99247 19.6474 2.13259C23.9717 1.27272 28.4539 1.7146 32.527 3.40236C36.6002 5.09012 40.0813 7.94793 42.5301 11.6143C44.9789 15.2807 46.2853 19.591 46.2842 24C46.2768 29.9078 43.9266 35.5715 39.7491 39.749C35.5717 43.9264 29.9079 46.2766 24.0001 46.2841" fill="#FFC52F"/>
<path d="M28.4872 29.5258C27.1156 28.7517 25.5745 28.3272 23.9999 28.2896C22.4158 28.3225 20.8644 28.7472 19.4844 29.5258C19.3512 29.6071 19.2426 29.723 19.1701 29.8612C19.0975 29.9993 19.0638 30.1545 19.0724 30.3103L19.4562 36.9764C19.4678 37.1965 19.5643 37.4035 19.7253 37.554C19.8863 37.7045 20.0994 37.7867 20.3198 37.7835H27.6575C27.8755 37.7825 28.085 37.6984 28.2433 37.5485C28.4016 37.3986 28.4969 37.194 28.5098 36.9764L28.8993 30.3103C28.9079 30.1545 28.8741 29.9993 28.8016 29.8612C28.729 29.723 28.6204 29.6071 28.4872 29.5258V29.5258ZM26.856 36.0733H21.1439L20.8391 30.7619C21.8264 30.2858 22.9041 30.026 23.9999 29.9999C25.0957 30.0267 26.1732 30.2864 27.1608 30.7619L26.856 36.0733Z" fill="#FFC52F"/>
<path d="M24.0005 8.30287C21.445 8.30104 18.9277 8.92363 16.6676 10.1165C14.4076 11.3093 12.4732 13.0363 11.0327 15.1472C9.59224 17.2581 8.68935 19.6889 8.40256 22.2283C8.11577 24.7677 8.45376 27.3388 9.38715 29.7177C9.44607 29.882 9.55399 30.0242 9.69632 30.1251C9.83865 30.226 10.0085 30.2809 10.183 30.2822C10.3219 30.2825 10.4588 30.2489 10.5817 30.1843C10.7047 30.1196 10.81 30.0259 10.8884 29.9113C10.9669 29.7967 11.0162 29.6646 11.0319 29.5266C11.0477 29.3886 11.0295 29.2488 10.9789 29.1194C10.1474 26.999 9.84644 24.7075 10.102 22.4443C10.3576 20.181 11.162 18.0144 12.4453 16.1328C13.7287 14.2511 15.4521 12.7113 17.4659 11.6472C19.4797 10.5831 21.7229 10.0269 24.0005 10.0269C26.2781 10.0269 28.5213 10.5831 30.5351 11.6472C32.5489 12.7113 34.2723 14.2511 35.5557 16.1328C36.839 18.0144 37.6434 20.181 37.899 22.4443C38.1546 24.7075 37.8536 26.999 37.0221 29.1194C36.9703 29.2258 36.941 29.3418 36.9361 29.46C36.9312 29.5783 36.9508 29.6962 36.9937 29.8065C37.0367 29.9168 37.1019 30.0171 37.1855 30.1009C37.269 30.1848 37.3689 30.2504 37.4791 30.2938C37.5892 30.3371 37.7071 30.3572 37.8254 30.3528C37.9436 30.3484 38.0597 30.3195 38.1663 30.2681C38.2729 30.2166 38.3677 30.1437 38.4447 30.0538C38.5217 29.964 38.5793 29.8592 38.6139 29.746C39.5531 27.3655 39.8957 24.7914 39.6118 22.2482C39.3278 19.7049 38.426 17.2698 36.9848 15.1551C35.5437 13.0405 33.6071 11.3105 31.3438 10.1161C29.0806 8.92174 26.5596 8.29923 24.0005 8.30287" fill="#FFC52F"/>
<path d="M24 12.1072C22.0928 12.1053 20.2139 12.5694 18.5269 13.4592C16.8399 14.349 15.3959 15.6375 14.3204 17.2126C13.2449 18.7877 12.5706 20.6017 12.356 22.4969C12.1415 24.392 12.3932 26.3109 13.0894 28.0865C13.149 28.2503 13.2571 28.3921 13.3993 28.4929C13.5414 28.5937 13.711 28.6489 13.8852 28.651C13.9932 28.652 14.1004 28.6328 14.2013 28.5945C14.3077 28.553 14.4048 28.4905 14.4868 28.4109C14.5687 28.3313 14.634 28.2362 14.6787 28.131C14.7234 28.0259 14.7466 27.9128 14.747 27.7986C14.7474 27.6843 14.725 27.5711 14.6811 27.4657C14.0844 25.9483 13.8675 24.3081 14.0492 22.6878C14.2309 21.0674 14.8058 19.516 15.7239 18.1686C16.6419 16.8211 17.8753 15.7183 19.3167 14.9562C20.7581 14.1941 22.3639 13.7957 23.9944 13.7957C25.6249 13.7957 27.2307 14.1941 28.6721 14.9562C30.1135 15.7183 31.3468 16.8211 32.2649 18.1686C33.1829 19.516 33.7578 21.0674 33.9395 22.6878C34.1213 24.3081 33.9043 25.9483 33.3076 27.4657C33.2669 27.5702 33.2471 27.6817 33.2494 27.7939C33.2517 27.906 33.2761 28.0166 33.3212 28.1193C33.3663 28.2221 33.4312 28.3149 33.5121 28.3926C33.5931 28.4702 33.6885 28.5312 33.793 28.572C33.8976 28.6127 34.0091 28.6325 34.1212 28.6302C34.2334 28.6278 34.344 28.6034 34.4467 28.5584C34.5495 28.5133 34.6423 28.4484 34.72 28.3675C34.7976 28.2865 34.8586 28.1911 34.8994 28.0865C35.5923 26.3117 35.842 24.3946 35.6268 22.5015C35.4115 20.6083 34.7379 18.7962 33.6643 17.2222C32.5906 15.6481 31.1494 14.3596 29.4653 13.4683C27.7813 12.577 25.9054 12.1099 24 12.1072" fill="#FFC52F"/>
<path d="M23.9997 16.1768C22.7269 16.177 21.4732 16.4877 20.3476 17.082C19.222 17.6763 18.2584 18.5363 17.5405 19.5874C16.8225 20.6385 16.3719 21.8489 16.2276 23.1136C16.0834 24.3782 16.2499 25.659 16.7128 26.8448C16.7951 27.0558 16.958 27.2256 17.1654 27.3166C17.3729 27.4076 17.608 27.4125 17.8191 27.3302C18.0302 27.2478 18.1999 27.085 18.2909 26.8776C18.382 26.6701 18.3869 26.435 18.3045 26.2239C18.0239 25.5161 17.8802 24.7614 17.8812 24C17.8812 23.1965 18.0395 22.4009 18.3469 21.6585C18.6544 20.9162 19.1051 20.2417 19.6733 19.6735C20.2414 19.1054 20.9159 18.6547 21.6583 18.3472C22.4006 18.0397 23.1962 17.8815 23.9997 17.8815C24.8032 17.8815 25.5989 18.0397 26.3412 18.3472C27.0835 18.6547 27.758 19.1054 28.3262 19.6735C28.8943 20.2417 29.345 20.9162 29.6525 21.6585C29.96 22.4009 30.1183 23.1965 30.1183 24C30.1193 24.7614 29.9756 25.5161 29.6949 26.2239C29.6512 26.3297 29.629 26.4432 29.6298 26.5578C29.6306 26.6723 29.6543 26.7855 29.6996 26.8907C29.7448 26.9959 29.8107 27.091 29.8932 27.1703C29.9758 27.2497 30.0734 27.3117 30.1804 27.3528C30.2794 27.391 30.3847 27.4101 30.4908 27.4092C30.6651 27.4071 30.8346 27.352 30.9768 27.2511C31.119 27.1503 31.227 27.0086 31.2867 26.8448C31.7495 25.659 31.9161 24.3782 31.7718 23.1136C31.6276 21.8489 31.177 20.6385 30.459 19.5874C29.7411 18.5363 28.7775 17.6763 27.6519 17.082C26.5263 16.4877 25.2726 16.177 23.9997 16.1768" fill="#FFC52F"/>
<path d="M27.3756 24C27.3756 23.3302 27.177 22.6754 26.8048 22.1185C26.4327 21.5615 25.9038 21.1275 25.2849 20.8711C24.6661 20.6148 23.9852 20.5477 23.3282 20.6784C22.6713 20.8091 22.0679 21.1316 21.5942 21.6053C21.1206 22.0789 20.798 22.6823 20.6674 23.3393C20.5367 23.9962 20.6038 24.6772 20.8601 25.296C21.1164 25.9148 21.5505 26.4437 22.1074 26.8159C22.6644 27.188 23.3191 27.3866 23.9889 27.3866C24.8871 27.3866 25.7485 27.0298 26.3837 26.3947C27.0188 25.7596 27.3756 24.8982 27.3756 24V24ZM22.3351 24C22.3352 23.6719 22.4322 23.3511 22.6139 23.0779C22.7957 22.8047 23.0541 22.5913 23.3567 22.4645C23.6593 22.3377 23.9926 22.3031 24.3148 22.3651C24.637 22.4271 24.9337 22.5829 25.1677 22.813C25.4016 23.043 25.5624 23.3371 25.6298 23.6582C25.6972 23.9793 25.6682 24.3132 25.5465 24.6179C25.4248 24.9226 25.2158 25.1845 24.9457 25.3708C24.6756 25.5572 24.3565 25.6595 24.0284 25.6651C23.8074 25.6688 23.5879 25.6285 23.3826 25.5465C23.1773 25.4645 22.9904 25.3425 22.8328 25.1875C22.6751 25.0325 22.55 24.8477 22.4645 24.6438C22.3791 24.4399 22.3351 24.221 22.3351 24Z" fill="#FFC52F"/>
</g>
</g>
<defs>
<clipPath id="clip0">
<path d="M0 0H48V48H0V0Z" fill="white"/>
</clipPath>
</defs>
</svg>
