<svg width="88" height="88" viewBox="0 0 88 88" fill="none" xmlns="http://www.w3.org/2000/svg">
<g clip-path="url(#clip0)">
<path fill-rule="evenodd" clip-rule="evenodd" d="M43.9138 83.9991C22.0312 84.0732 3.91236 66.0996 4.00032 43.8324C4.08735 21.9496 21.858 4.17329 43.6286 4.00006C65.9426 3.82406 83.83 21.7857 83.9975 43.6657C84.1688 66.1932 65.8797 84.1492 43.9138 83.9991Z" fill="#83B63F"/>
<path fill-rule="evenodd" clip-rule="evenodd" d="M7.09692 44.1927C6.98211 23.9782 23.7223 7.08285 44.4549 7.32833C64.406 7.56547 81.0518 23.8643 80.9425 44.5225C80.8351 64.71 64.3384 81.5054 43.4086 81.2312C23.5584 80.9718 6.93211 64.6035 7.09692 44.1927Z" fill="#562779"/>
<path fill-rule="evenodd" clip-rule="evenodd" d="M61.4545 16.6067C62.9998 17.5886 64.3294 18.8215 65.5479 20.1758C68.5163 23.4727 70.4792 27.2938 71.5347 31.6049C72.4522 35.3055 72.6069 39.1541 71.9893 42.9164C71.9495 43.16 71.9403 43.4074 71.9171 43.6575C71.8755 44.5643 71.5468 45.4119 71.3616 46.2883C71.3366 46.4031 71.3153 46.5198 71.1857 46.5523C71.0005 46.5986 70.9005 46.4596 70.8153 46.341C70.4619 45.7788 70.1392 45.1977 69.8487 44.6005C67.6265 40.1958 65.2507 35.8679 63.0406 31.4558C62.8202 31.0149 62.5212 30.6156 62.3517 30.1478C62.1202 29.6291 61.9128 29.0983 61.5471 28.6518C61.2332 28.5017 60.949 28.6648 60.6759 28.7639C57.9639 29.7495 55.2316 30.6768 52.5122 31.6355C50.0432 32.5093 47.5742 33.3795 45.1051 34.2459C44.3172 34.5238 43.5413 34.8341 42.7422 35.0796C42.5793 35.1301 42.4285 35.2137 42.2994 35.3253C42.1703 35.4369 42.0658 35.574 41.9922 35.7281C41.1247 37.3297 40.2784 38.9443 39.4173 40.5505C39.1757 41.0017 38.9646 41.4722 38.6053 41.8474C38.4045 42.0268 38.1409 42.1194 37.872 42.1049C37.2646 42.1049 36.6554 42.117 36.048 42.1003C35.3369 42.0808 34.9582 41.7214 34.7971 41.0165C34.6545 40.3931 34.411 39.7974 34.2416 39.1805C34.1779 39.0027 34.1372 38.8175 34.1203 38.6293C34.1144 38.4631 34.1354 38.297 34.1823 38.1374C34.2749 37.8651 34.1731 37.7104 33.9046 37.652C33.6361 37.5937 33.4583 37.4723 33.474 37.1694C33.5518 36.6201 34.1147 36.5729 34.4277 36.2653C35.3425 35.3668 36.3137 34.5238 36.9591 33.3891C37.5526 32.2923 38.1776 31.189 38.4127 29.9616C38.6988 28.4637 38.834 26.9631 38.5572 25.4041C38.2233 23.5275 37.4669 21.7517 36.3452 20.211C35.5972 19.1796 34.6533 18.3058 33.5675 17.6395C33.3435 17.5006 33.162 17.3709 33.3185 17.1162C33.4749 16.8614 33.6944 16.967 33.9157 17.08C34.4333 17.344 34.8203 17.7627 35.236 18.1481C35.7434 18.6187 35.8286 18.6057 36.0499 17.986C36.336 17.1856 36.4323 16.3371 36.6582 15.5201C36.7656 15.1292 36.9711 14.8466 37.3109 14.717C38.0128 14.4483 38.709 14.1612 39.4247 13.9277C40.6234 13.5433 41.844 13.2315 43.0802 12.994C45.5514 12.4956 48.0476 12.4502 50.5336 12.6503C51.6386 12.7333 52.7325 12.9278 53.7983 13.2311C54.8446 13.534 55.9084 13.811 56.8991 14.239C58.2074 14.805 59.55 15.3441 60.6953 16.2352C60.9295 16.4131 61.2092 16.4677 61.4545 16.6067Z" fill="#FDE709"/>
<path fill-rule="evenodd" clip-rule="evenodd" d="M66.1886 56.4519C65.7395 57.2995 65.0664 57.9711 64.4294 58.6751C62.8517 60.4196 61.0669 61.9647 59.1147 63.2762C56.3 65.1678 53.2399 66.5184 49.9345 67.2455C47.0715 67.8633 44.1218 67.9693 41.2218 67.5586C37.8096 67.1131 34.5354 65.9292 31.6268 64.0895C28.0275 61.8157 25.2128 58.7995 23.1826 55.0411C21.8631 52.6033 20.9292 49.9756 20.4142 47.2515C20.129 45.7694 19.9059 44.2613 19.9272 42.7375C20.3503 42.4235 20.8679 42.4763 21.3438 42.4105C21.8836 42.3355 22.428 42.2252 22.978 42.2493C23.441 42.2716 23.7465 42.1252 23.8335 41.6426C24.1817 41.5416 24.128 41.8334 24.1446 41.9964C24.2289 42.8005 24.415 43.587 24.5261 44.4336C24.7113 43.6926 25.0233 43.0441 25.252 42.3596C25.314 42.1743 25.3446 41.9399 25.6168 41.9103C25.7585 41.9659 25.9038 42.04 26.0557 42.0075C26.8205 41.8454 27.6103 41.9853 28.3704 41.813C28.7473 41.7371 28.776 42.1511 29.025 42.2762C29.2463 42.1437 28.9852 41.5805 29.5083 41.7083C30.4065 41.8714 31.3111 41.7445 32.211 41.7806C32.4934 41.7926 32.7758 41.7806 33.0582 41.7806C33.2434 41.7732 33.4341 41.7806 33.6212 41.7852C33.8082 41.7899 33.9674 41.7852 34.1406 41.7695C34.5711 41.9353 34.7517 42.3586 35.0544 42.6032C35.0776 42.3994 34.6545 42.1206 35.0878 41.8797C36.0433 42.1141 37.0322 41.9724 37.9914 42.1187C38.371 42.4179 38.2691 42.7282 38.0655 43.096C36.3063 46.2909 34.6582 49.5498 32.886 52.7401C32.5601 53.3283 32.6156 53.4302 33.2564 53.6794C35.3989 54.5131 37.5451 55.3301 39.6765 56.1916C41.1728 56.7974 42.7125 57.2939 44.2013 57.922C44.4532 58.0285 44.6847 57.9581 44.9254 57.9007C47.9808 57.633 51.0502 57.4292 54.1093 57.1596C55.3537 57.0503 56.6093 57.104 57.8444 56.8984C57.9788 56.8647 58.117 56.8488 58.2555 56.8511C59.1018 56.8511 59.9388 56.7483 60.7776 56.6538C62.16 56.6205 63.5248 56.3074 64.9145 56.3759C65.1518 56.3968 65.3908 56.378 65.6219 56.3203C65.8228 56.2889 66.0302 56.275 66.1886 56.4519Z" fill="#83B63F"/>
<path fill-rule="evenodd" clip-rule="evenodd" d="M62.4536 30.0763C65.3174 35.5547 68.1812 41.0339 71.0996 46.6197C71.5422 45.5684 71.6051 44.5744 71.9162 43.6555C72.0329 44.4391 71.7894 45.1626 71.5514 45.8889C71.3005 46.6586 71.3792 47.3905 71.8292 48.0732C72.3421 48.8466 72.8569 49.6683 73.1856 50.4918C73.8338 52.1027 74.8337 53.5107 75.4865 55.1031C75.6467 55.494 75.593 55.6144 75.142 55.6663C72.6875 55.9498 70.2107 55.9785 67.7608 56.3148C67.2571 56.3833 66.7423 56.3314 66.2257 56.3361L66.1822 56.2684C66.1387 56.0767 66.1118 55.8886 66.3211 55.7654C67.2025 55.1985 68.0803 54.6372 69.1247 54.3982C69.4559 54.3125 69.795 54.2604 70.1367 54.2425C70.7033 54.2277 70.77 54.1342 70.5654 53.5811C70.1876 52.5622 69.8311 51.5432 69.4626 50.5242C68.084 46.7152 66.6562 42.9283 65.3146 39.1025C64.5017 36.7867 63.6147 34.4996 62.7777 32.193C62.5453 31.5501 62.4193 30.8721 62.1101 30.2551C62.049 30.131 61.9731 29.9365 62.1684 29.8624C62.323 29.7957 62.3805 29.9717 62.4536 30.0763Z" fill="#695838"/>
<path fill-rule="evenodd" clip-rule="evenodd" d="M25.0341 22.3119C25.3878 21.2299 26.3136 20.6537 27.0979 19.9525C27.1951 19.8654 27.2979 19.8284 27.3979 19.9256C28.046 20.5546 28.8876 20.9872 29.2858 21.8709C29.5793 22.5194 29.6922 23.1761 29.4293 23.8514C29.3367 24.0904 29.3413 24.2859 29.4783 24.4888C29.4626 24.5184 29.4469 24.548 29.432 24.5814C29.0251 25.2651 28.7136 26.0012 28.5062 26.7694C28.4691 26.8972 28.4284 27.0241 28.3987 27.1529C28.3228 27.4947 28.0997 27.6105 27.7728 27.5948C27.4071 27.5762 27.2821 27.3428 27.2756 27.0251C27.2562 26.057 27.2108 25.0862 27.2932 24.1229C27.3423 23.5374 27.1544 22.9603 27.2562 22.5481C27.3395 23.7746 27.2192 25.1613 27.2562 26.5499C27.267 26.7587 27.2574 26.9681 27.2275 27.1751C27.1821 27.4336 27.0321 27.5799 26.7646 27.5948C26.497 27.6096 26.2322 27.5716 26.1729 27.2752C25.9748 26.2757 25.4692 25.3966 25.1285 24.4545C24.8794 23.7579 24.9322 23.0279 25.0341 22.3119Z" fill="#FCFCFB"/>
<path fill-rule="evenodd" clip-rule="evenodd" d="M58.721 72.6931C58.7506 74.3262 57.3821 75.675 55.6544 75.7167C54.0563 75.7546 52.6804 74.443 52.6471 72.845C52.6128 71.1711 54.0174 69.8057 55.7951 69.7826C57.4636 69.7696 58.6867 70.9822 58.721 72.6931Z" fill="#FBFAF8"/>
<path fill-rule="evenodd" clip-rule="evenodd" d="M43.2224 74.6868C43.2224 76.4468 41.9891 77.6881 40.2642 77.6807C38.418 77.6724 37.1615 76.4301 37.168 74.6238C37.1735 73.049 38.4818 71.8059 40.1309 71.7994C41.8558 71.7874 43.2252 73.0694 43.2224 74.6868Z" fill="#FAFAF9"/>
<path fill-rule="evenodd" clip-rule="evenodd" d="M15.1702 57.3922C13.5323 57.4043 12.2444 56.0685 12.2287 54.3427C12.2129 52.6753 13.4545 51.3525 15.06 51.3359C16.747 51.3183 18.0942 52.6781 18.1099 54.415C18.1266 56.1917 16.9535 57.3793 15.1702 57.3922Z" fill="#FAFAF8"/>
<path fill-rule="evenodd" clip-rule="evenodd" d="M35.6517 72.7785C35.2868 72.8776 35.0276 72.7877 34.9008 72.2523C34.7591 71.6511 33.986 71.363 33.4073 71.589C32.4814 71.9503 31.9888 73.2481 32.4416 74.1272C32.7369 74.7006 33.523 74.9859 34.0489 74.7062C34.1832 74.6348 34.3378 74.544 34.3471 74.3884C34.3582 74.1902 34.1471 74.1985 34.0184 74.1374C33.7286 74.0012 33.261 74.0503 33.5202 73.4519C33.8054 72.7933 33.7601 72.7775 34.4619 73.0369C35.0313 73.2481 35.6007 73.4612 36.1766 73.652C36.4127 73.7298 36.46 73.828 36.384 74.0661C35.8628 75.6927 34.3193 76.4671 32.7129 75.8946C31.0416 75.299 30.312 73.7215 30.9537 72.0967C31.4166 70.9286 32.3758 70.1949 33.4684 70.1755C34.7767 70.1514 35.897 70.7961 36.3526 71.8336C36.7053 72.6321 36.6433 72.7284 35.6517 72.7785Z" fill="#FAFAF8"/>
<path fill-rule="evenodd" clip-rule="evenodd" d="M73.0717 61.1391C72.8495 61.6717 72.4755 62.0543 72.1968 62.4943C72.0801 62.6796 71.8894 62.6018 71.7264 62.6027C71.1403 62.6083 70.5533 62.6027 69.9357 62.6027C70.2265 62.939 70.619 63.1585 70.9913 63.3808C71.3403 63.593 71.3375 63.7782 71.1181 64.0941C70.5468 64.9176 70.5626 64.9278 69.7478 64.3627C68.645 63.5994 67.5441 62.8222 66.4247 62.0812C66.1081 61.87 66.0118 61.7051 66.2673 61.3735C66.6729 60.8491 67.0219 60.2813 67.4293 59.7589C67.9386 59.1104 68.6145 58.9103 69.2913 59.1623C70.0728 59.4541 70.4755 60.0127 70.4394 60.8547C70.4246 61.1873 70.5061 61.2762 70.8274 61.2345C71.5712 61.1361 72.3223 61.1042 73.0717 61.1391V61.1391Z" fill="#F9FAF9"/>
<path fill-rule="evenodd" clip-rule="evenodd" d="M15.2027 60.6269C15.1462 59.9219 15.5351 59.4134 16.0925 59.0391C17.0184 58.4148 17.9822 57.8349 18.9239 57.23C19.109 57.1096 19.2072 57.1503 19.3368 57.3226C20.0775 58.2981 20.0775 58.2925 19.0461 58.9363C18.4183 59.3281 17.7813 59.7079 17.1739 60.1313C16.5851 60.5426 16.4888 60.952 16.7952 61.4281C17.1017 61.9043 17.536 61.9923 18.1378 61.6384C18.9572 61.1604 19.7618 60.6547 20.5534 60.1294C20.8766 59.9154 21.021 59.9766 21.2099 60.2971C21.7423 61.1993 21.7534 61.1845 20.8553 61.7292C20.222 62.1136 19.6109 62.5333 18.9702 62.9047C17.4887 63.7634 16.3999 63.455 15.561 61.9543C15.3388 61.5541 15.1796 61.1271 15.2027 60.6269Z" fill="#FAFAF8"/>
<path fill-rule="evenodd" clip-rule="evenodd" d="M69.1901 66.596C69.0235 66.7451 68.8142 66.8878 68.6642 67.0777C68.3207 67.5102 67.9494 67.6612 67.467 67.3055C67.4219 67.2702 67.3698 67.2446 67.3143 67.2305C66.9208 67.1573 65.8328 68.4514 65.9551 68.8331C66.0245 69.0554 66.28 69.2833 66.0736 69.5167C65.7922 69.8243 65.4859 70.1081 65.1579 70.3652C65.0245 70.4727 64.9829 70.3031 64.9412 70.2022C64.2554 68.5552 63.569 66.9097 62.882 65.2657C62.8107 65.0972 62.8728 64.9878 62.9839 64.8619C63.8292 63.8948 63.8274 63.8938 65.0023 64.4654C66.2986 65.0959 67.5948 65.724 68.8911 66.3496C68.9994 66.3987 69.1133 66.4237 69.1901 66.596Z" fill="#FAFAF8"/>
<path fill-rule="evenodd" clip-rule="evenodd" d="M10.6116 42.5948C10.5857 41.9862 10.7875 41.4443 11.0746 40.9181C11.2403 40.6152 11.4181 40.5411 11.6968 40.7569C11.756 40.8049 11.8214 40.8448 11.8912 40.8755C12.369 41.0783 12.6032 41.3331 12.1153 41.7814C12.0422 41.8692 11.9925 41.974 11.9708 42.0862C11.8542 42.4817 11.7394 42.9412 12.2403 43.1052C12.7412 43.2691 12.7828 42.7652 12.9273 42.4567C12.9912 42.3196 13.0199 42.1677 13.0754 42.026C13.4291 41.121 13.8948 40.8403 14.8346 40.9644C15.2236 41.0133 15.5848 41.1915 15.8605 41.4703C16.1362 41.7491 16.3103 42.1125 16.3549 42.5021C16.4272 43.1422 16.2864 43.7425 16.0253 44.3261C15.9012 44.604 15.7475 44.6577 15.4985 44.4937C15.34 44.3896 15.1755 44.295 15.0059 44.2103C14.7726 44.0926 14.6855 43.9574 14.8883 43.7314C14.9487 43.658 14.9937 43.5733 15.0207 43.4822C15.1383 43.1228 15.2198 42.7004 14.7976 42.5457C14.4078 42.403 14.3467 42.843 14.218 43.1015C14.1587 43.22 14.1254 43.3488 14.0726 43.472C13.6735 44.4965 13.1467 44.8356 12.1801 44.6883C11.244 44.5465 10.6709 43.8824 10.6162 42.8773C10.6079 42.7847 10.6125 42.6892 10.6116 42.5948Z" fill="#FAF9F9"/>
<path fill-rule="evenodd" clip-rule="evenodd" d="M49.6522 77.3368C49.5013 77.3368 49.3476 77.3498 49.1976 77.3368C48.2365 77.2377 48.0051 76.7199 48.5337 75.9019C48.68 75.6768 48.7995 75.8426 48.9124 75.8899C49.2513 76.0307 49.5939 76.1502 49.9615 76.0529C50.2226 75.9834 50.4818 75.8676 50.4753 75.5342C50.4698 75.2183 50.2189 75.1358 49.9707 75.0868C49.693 75.033 49.4106 74.9941 49.1282 74.9672C48.5032 74.907 48.0449 74.6403 47.8727 73.9992C47.6773 73.2711 47.7403 72.5819 48.3356 72.0641C49.1013 71.3981 50.0096 71.4463 50.9281 71.6538C51.0864 71.6899 51.1429 71.7853 51.0929 71.9483C51.0207 72.1845 50.9531 72.4217 50.8929 72.6616C50.8327 72.9015 50.6892 72.9469 50.4698 72.8552C50.34 72.794 50.1989 72.7604 50.0554 72.7568C49.9119 72.7531 49.7692 72.7794 49.6365 72.8339C49.4513 72.9117 49.3022 73.0368 49.3254 73.2609C49.3458 73.4564 49.4893 73.5555 49.6707 73.5889C49.9133 73.6333 50.1568 73.6741 50.4013 73.7C51.3272 73.7982 51.8077 74.1762 51.9633 74.9311C52.1558 75.8575 51.8577 76.5689 51.0698 77.0089C50.6422 77.2614 50.1472 77.3759 49.6522 77.3368V77.3368Z" fill="#FAFAF9"/>
<path fill-rule="evenodd" clip-rule="evenodd" d="M24.9998 71.3279C23.9814 71.3075 22.7564 70.3339 22.5166 69.3594C22.4675 69.1603 22.4981 69.0343 22.7018 68.9583C22.8788 68.8899 23.0511 68.8098 23.2175 68.7184C23.5091 68.5637 23.7073 68.51 23.8017 68.9546C23.8406 69.1522 23.9264 69.3375 24.052 69.4948C24.1775 69.6522 24.3391 69.777 24.523 69.8587C24.7286 69.9513 24.9258 69.9588 25.0915 69.7661C25.1586 69.697 25.1991 69.6064 25.2061 69.5104C25.213 69.4143 25.1859 69.3189 25.1295 69.2408C24.9785 69 24.8082 68.7721 24.6508 68.5368C24.1082 67.7291 24.1202 67.1705 24.6897 66.5239C25.2767 65.857 26.1378 65.6847 26.8998 66.0848C27.4738 66.3868 27.8673 66.8629 28.2025 67.4049C28.3618 67.6633 28.3331 67.8134 28.0386 67.9162C27.8782 67.9776 27.7233 68.0526 27.5757 68.1404C27.3285 68.2756 27.1127 68.3423 27.0479 67.9551C27.0344 67.8992 27.007 67.8476 26.9683 67.805C26.7276 67.5151 26.459 67.0945 26.0554 67.3817C25.6757 67.6513 26.0433 67.9847 26.2118 68.2626C26.3109 68.4238 26.4331 68.572 26.5294 68.7341C26.8377 69.2557 26.9655 69.8068 26.6137 70.345C26.2433 70.924 25.7656 71.3779 24.9998 71.3279Z" fill="#F9FAF8"/>
<path fill-rule="evenodd" clip-rule="evenodd" d="M14.8482 50.0971C15.388 49.0272 15.3112 48.2954 14.6705 47.835C14.3755 47.6213 14.0135 47.521 13.6506 47.5525C13.2878 47.584 12.9484 47.7451 12.6946 48.0064C12.1474 48.5835 12.2317 49.2977 13.002 50.3306C12.7335 50.376 12.4844 50.4232 12.2335 50.4603C11.3076 50.5927 11.0539 50.4288 10.9234 49.4941C10.753 48.276 11.0826 47.1912 12.127 46.4937C13.1715 45.7961 14.3149 45.811 15.4001 46.4937C16.326 47.0773 16.8324 48.3464 16.6269 49.4867C16.588 49.7016 16.5436 49.8878 16.2667 49.9147C15.8204 49.961 15.3732 50.0295 14.8482 50.0971Z" fill="#FAFAF9"/>
<path fill-rule="evenodd" clip-rule="evenodd" d="M61.4558 16.6066C61.0669 16.6714 60.7947 16.4991 60.4965 16.2509C59.7012 15.5904 58.7198 15.244 57.8031 14.7965C57.0143 14.4121 56.1365 14.1944 55.3606 13.7952C54.9625 13.5914 54.5338 13.5599 54.1431 13.458C53.1624 13.2188 52.1701 13.0302 51.17 12.8929C49.3516 12.615 47.5414 12.6873 45.7471 12.7901C44.9323 12.8373 44.0564 12.8624 43.2147 13.1125C42.6916 13.2681 42.0879 13.3431 41.525 13.4422C40.7148 13.5858 39.951 13.9786 39.1473 14.174C38.5658 14.3149 38.0658 14.6372 37.4955 14.7827C37.3468 14.8168 37.2089 14.8874 37.0943 14.9882C36.9797 15.0889 36.892 15.2166 36.839 15.3598C36.6178 16.0493 36.4558 16.7565 36.3548 17.4736C36.3076 17.8368 36.1381 18.1471 36.0502 18.4871C35.9752 18.777 35.6196 18.7094 35.402 18.5111C35.0761 18.2221 34.767 17.9147 34.4761 17.5904C34.266 17.3495 33.9576 17.2949 33.7225 17.1077C33.6972 17.0851 33.6667 17.0692 33.6336 17.0615C33.6006 17.0539 33.5662 17.0547 33.5335 17.064C33.5009 17.0732 33.4712 17.0906 33.447 17.1144C33.4229 17.1383 33.4052 17.1678 33.3956 17.2004C33.3475 17.3477 33.4253 17.419 33.5623 17.5033C35.4099 18.6354 36.8608 20.3133 37.7149 22.3054C38.1323 23.274 38.4518 24.2819 38.6686 25.3141C38.8862 26.3025 38.8899 27.2724 38.813 28.2302C38.6973 29.6716 38.3964 31.0954 37.6094 32.3617C37.3835 32.723 37.2261 33.1268 37.0381 33.5103C36.9998 33.5384 36.9528 33.552 36.9054 33.549C36.8581 33.5459 36.8133 33.5264 36.7788 33.4937C37.3585 32.3876 37.9223 31.2797 38.2316 30.0533C38.8185 27.7335 38.6653 25.2882 37.7934 23.0599C36.9216 20.8316 35.3747 18.9321 33.3697 17.6274C33.3183 17.6044 33.2711 17.5731 33.2299 17.5348C33.1049 17.3736 32.6503 17.3745 32.8919 17.0457C33.0864 16.7817 33.3901 16.5695 33.7799 16.8308C34.3484 17.2124 34.9122 17.6024 35.4011 18.0813C35.7539 18.4268 35.8724 18.3064 35.9659 17.8961C36.1668 17.0272 36.3918 16.1629 36.5955 15.294C36.6174 15.1558 36.6754 15.0258 36.7637 14.9173C36.852 14.8088 36.9674 14.7256 37.0983 14.6761C39.8877 13.4576 42.8602 12.7116 45.8943 12.4687C48.34 12.2635 50.8027 12.4234 53.2014 12.943C56.1231 13.5793 58.8933 14.778 61.3576 16.4723C61.3975 16.5113 61.4307 16.5567 61.4558 16.6066V16.6066Z" fill="#EFD54D"/>
<path fill-rule="evenodd" clip-rule="evenodd" d="M29.4796 24.4839C29.8111 24.4765 29.9991 24.2134 30.2426 24.0504C31.2055 23.4094 32.4916 23.641 33.1129 24.5692C33.761 25.539 33.5425 26.8331 32.6295 27.4473C32.4142 27.6063 32.1562 27.6972 31.8888 27.7085C31.6907 27.7085 31.5944 27.6826 31.5925 27.4306C31.5925 26.9183 31.3916 26.4959 30.8305 26.382C30.2407 26.2616 29.9139 26.6284 29.6565 27.0767C29.5845 27.2301 29.5259 27.3894 29.4815 27.5529C29.2963 27.7317 29.0676 27.728 28.8417 27.6937C28.4843 27.639 28.3195 27.4528 28.3982 27.061C28.5834 26.1198 28.9908 25.2769 29.4908 24.4673L29.4796 24.4839Z" fill="#FAF9F7"/>
<path fill-rule="evenodd" clip-rule="evenodd" d="M25.0478 27.529C25.009 27.2131 24.8349 26.963 24.6395 26.7296C24.3738 26.4109 24.0377 26.2747 23.621 26.3989C23.2044 26.523 23.0192 26.8278 22.9637 27.2381C22.8951 27.7374 22.7229 27.8217 22.2229 27.6087C21.1878 27.1742 20.7415 25.8653 21.2813 24.813C21.4042 24.5594 21.5787 24.3343 21.7935 24.1519C22.0083 23.9696 22.2588 23.8341 22.5289 23.7541C22.799 23.6741 23.0828 23.6513 23.3622 23.6872C23.6416 23.7231 23.9105 23.8169 24.1516 23.9626C24.346 24.0784 24.5219 24.2238 24.7071 24.3554C25.5636 24.8723 25.7302 25.7958 26.0478 26.6305C26.0672 26.6823 26.0552 26.7444 26.0728 26.7972C26.1654 27.0705 26.2784 27.3706 25.9802 27.5679C25.6821 27.7652 25.3478 27.7902 25.0478 27.529Z" fill="#FBFAFA"/>
<path fill-rule="evenodd" clip-rule="evenodd" d="M24.842 64.5991C24.6568 64.927 24.3485 65.1234 24.0856 65.355C23.8745 65.5403 23.7263 65.292 23.6402 65.1549C23.2986 64.6093 23.0106 64.7177 22.6106 65.1234C21.918 65.8246 21.1542 66.4555 20.4523 67.1474C20.1496 67.4457 19.9737 67.4429 19.6857 67.1252C19.0376 66.4064 19.0191 66.424 19.7551 65.744C20.4098 65.1401 21.0458 64.512 21.7227 63.9331C22.0782 63.6292 22.1134 63.4088 21.7542 63.0994C21.6171 62.9789 21.3171 62.8381 21.4634 62.6214C21.6652 62.3211 21.936 62.0736 22.2532 61.8998C22.3458 61.8525 22.4208 61.9544 22.4865 62.0257C23.2186 62.8205 23.9525 63.6144 24.6883 64.4073C24.7402 64.4601 24.7809 64.5222 24.842 64.5991Z" fill="#FAFAF8"/>
<path fill-rule="evenodd" clip-rule="evenodd" d="M63.9222 71.1269C63.9454 71.34 63.8158 71.3705 63.7259 71.4298C63.0315 71.893 62.3278 72.3349 61.6427 72.8082C61.3816 72.9879 61.2668 72.9083 61.1159 72.6748C60.2517 71.339 59.3758 70.0094 58.4882 68.686C58.3289 68.4489 58.3771 68.3331 58.6002 68.196C59.8196 67.4457 59.402 67.3827 60.1622 68.4795C60.6594 69.1964 61.1316 69.931 61.5834 70.6758C61.8038 71.0389 62.0112 71.0991 62.3288 70.8129C62.4583 70.7024 62.6014 70.609 62.7547 70.535C62.9463 70.4424 63.1463 70.1394 63.3334 70.3043C63.5945 70.5294 63.7519 70.8759 63.9222 71.1269Z" fill="#F9F9F7"/>
<path fill-rule="evenodd" clip-rule="evenodd" d="M28.9206 30.7507C28.8436 30.8801 28.7576 31.0039 28.6632 31.1213C27.4012 32.4922 27.1577 32.5701 25.8439 31.0731C25.761 30.9698 25.684 30.8618 25.6133 30.7498C25.4967 30.6025 25.5661 30.4617 25.6365 30.3274C25.8317 29.9802 25.9852 29.6111 26.0939 29.2278C26.1865 28.8731 26.4392 28.7545 26.7874 28.7888C27.1355 28.823 27.2105 29.0518 27.2503 29.339C27.3429 29.98 27.3429 30.1292 27.192 30.6072C27.3337 30.2626 27.3318 30.2237 27.2948 29.6864C27.2707 29.3334 27.1753 28.9323 27.6651 28.8017C28.0781 28.6924 28.3373 28.8749 28.4984 29.4224C28.6355 29.8698 28.9845 30.2459 28.9206 30.7507Z" fill="#F9F9F9"/>
<path fill-rule="evenodd" clip-rule="evenodd" d="M28.4701 41.8638C28.1183 42.1306 25.8647 42.2084 25.5638 41.9648C25.3943 41.5016 25.6712 41.1218 25.8175 40.7272C26.1721 39.7657 26.1878 39.7638 25.2054 39.6249C24.8488 39.5837 24.4964 39.5124 24.1518 39.4118C23.7814 39.2932 23.6564 39.4359 23.7324 39.7999C23.8249 40.2631 23.9398 40.7263 23.9962 41.1894C24.0147 41.3423 24.0194 41.4924 23.9036 41.6156C23.8953 42.3362 23.8731 42.3687 23.1379 42.3909C22.0593 42.4224 21.0019 42.6512 19.9297 42.7364C19.9186 42.0574 19.9093 41.3775 19.8973 40.6985C19.8922 40.6135 19.9111 40.5288 19.9519 40.4541C19.9926 40.3794 20.0536 40.3177 20.1279 40.2761C20.5704 39.9982 21.0093 39.7036 21.45 39.4164C21.4932 39.3927 21.5415 39.3796 21.5908 39.3783C21.6401 39.3771 21.689 39.3876 21.7334 39.409C21.862 39.8259 21.5334 39.9704 21.2704 40.0639C20.3751 40.3854 20.2038 41.0533 20.288 41.887C20.313 42.1297 20.3584 42.2501 20.6482 42.2668C21.475 42.314 22.2583 42.0389 23.0685 41.9833C23.274 41.9694 23.3555 41.8212 23.3703 41.6304C23.3898 41.383 23.4111 41.1292 23.3166 40.8976C23.1629 40.516 23.149 40.1223 23.1555 39.7221C23.1685 38.9116 23.4259 38.6439 24.2027 38.8643C24.9434 39.0737 25.7091 38.9875 26.4406 39.2284C26.8258 39.3553 27.2656 39.3025 27.6767 39.1774C28.3248 38.9801 28.9831 38.9996 29.6423 39.1246C29.6701 39.1379 29.6941 39.1579 29.7122 39.1828C29.7303 39.2077 29.742 39.2368 29.746 39.2673C29.6794 39.4581 29.5025 39.4924 29.3414 39.5313C28.6933 39.6851 28.034 39.7036 27.3804 39.7916C27.3126 39.7983 27.2444 39.7983 27.1767 39.7916C27.5211 40.1825 27.8692 40.7179 28.2368 41.2404C28.3664 41.4238 28.4877 41.6211 28.4701 41.8638Z" fill="#EBD948"/>
<path fill-rule="evenodd" clip-rule="evenodd" d="M27.2667 33.6307L27.6583 33.6122C27.6972 34.0568 27.1695 34.0096 27.0361 34.3152C27.637 34.344 27.7259 34.2411 27.6574 33.6122C27.6807 33.5425 27.7262 33.4825 27.7869 33.4413C27.8477 33.4001 27.9203 33.3801 27.9935 33.3843C28.112 33.6399 28.2778 33.7418 28.5713 33.6298C28.827 33.5221 29.0928 33.4402 29.3648 33.3852C29.6055 33.4973 29.8462 33.602 30.0981 33.4111C30.2221 33.6353 30.0721 33.8391 30.0518 34.0531C30.012 34.1781 29.9721 34.3032 29.9333 34.4236C29.3583 34.7015 29.3583 34.7015 29.8305 35.1147L29.6009 35.3175C29.3981 35.4166 29.0925 35.4157 29.1583 35.7751L28.9138 36.0058C28.4055 35.5686 28.3222 35.5769 28.0333 36.0984C27.7556 36.1716 27.8019 35.8733 27.663 35.7835C27.6917 35.2675 27.6333 35.2147 26.9723 35.1971C27.0806 35.4537 27.475 35.4472 27.462 35.7612L27.1667 35.7724C26.7639 35.5871 26.5019 35.7631 26.3084 36.1123L26.0464 36.0049C25.8834 35.5602 25.626 35.7149 25.364 35.8974L24.8983 35.7733C24.6649 35.6621 24.5168 35.4954 24.5547 35.2175C24.6603 35.1638 24.6807 35.0637 24.6964 34.9609C24.914 34.9303 24.9408 35.2444 25.1918 35.2184C25.2455 34.8025 24.8214 34.6432 24.714 34.3301C24.714 34.1596 24.9112 33.9716 24.664 33.8261C24.6205 33.6918 24.6973 33.6001 24.777 33.5093L25.0316 33.714C25.1594 33.815 25.0112 34.2041 25.3158 34.0688C25.5677 33.9567 25.7723 33.6983 25.4964 33.3843C25.726 33.0397 26.0741 33.5871 26.3084 33.2759C26.2852 33.6084 26.4297 33.7511 26.7713 33.6964C26.9343 33.6742 27.1028 33.6705 27.2667 33.6307Z" fill="#5F496F"/>
<path fill-rule="evenodd" clip-rule="evenodd" d="M25.0487 27.529C25.0658 27.5374 25.0838 27.5436 25.1024 27.5476C26.0644 27.6402 26.1561 27.5411 25.9218 26.636C25.6998 25.7924 25.2838 25.0124 24.707 24.3582C25.045 24.272 24.8922 23.9969 24.9172 23.7968C24.9829 23.3031 24.7728 22.7881 25.0357 22.3091C24.8904 23.2058 25.0728 24.0414 25.4644 24.8519C25.819 25.5874 26.1727 26.3341 26.2811 27.1529C26.3283 27.5124 26.5588 27.4308 26.7755 27.4447C27.0931 27.4688 27.0958 27.2734 27.0921 27.0455C27.0718 25.3929 27.1282 23.7425 27.2616 22.0942C27.4468 23.6848 27.4236 25.2827 27.4412 26.8787C27.4412 27.1038 27.2903 27.4207 27.7579 27.4549C28.1495 27.4827 28.2208 27.3132 28.281 26.9871C28.4319 26.1979 28.7949 25.48 29.1097 24.7473C29.1874 24.562 29.2948 24.4694 29.4893 24.4694C29.5532 24.6954 29.4365 24.864 29.3217 25.0418C28.9586 25.6188 28.6965 26.2535 28.5467 26.9186C28.4365 27.3817 28.531 27.6004 29.0328 27.5615C29.181 27.5503 29.331 27.554 29.48 27.5513C29.4708 27.7467 29.6365 27.8514 29.7143 28.0015C29.318 28.2358 28.9393 27.9783 28.5662 27.9274C27.5255 27.7847 26.4977 27.8486 25.4672 27.9783C25.3144 27.9968 25.1681 28.0274 25.0376 27.9144C25.0655 27.8543 25.0809 27.7891 25.0828 27.7229C25.0848 27.6566 25.0731 27.5906 25.0487 27.529V27.529Z" fill="#5A4A66"/>
<path fill-rule="evenodd" clip-rule="evenodd" d="M36.7764 33.4937L37.0347 33.5103C36.7116 34.2792 36.0644 34.7794 35.5088 35.3574C34.9996 35.8882 34.5644 36.4977 33.8543 36.8053C33.7823 36.832 33.7195 36.879 33.6737 36.9407C33.6278 37.0023 33.6008 37.076 33.5959 37.1527C33.1524 37.6492 32.5395 37.8706 31.9636 38.142C29.9757 39.0785 27.8656 39.2712 25.7138 39.0767C24.9235 39.0055 24.1436 38.8458 23.3889 38.6005C23.151 38.5236 22.7973 38.4792 22.8417 38.0725C22.8766 38.0372 22.9232 38.016 22.9728 38.0129C23.0223 38.0098 23.0712 38.0251 23.1102 38.0558C24.3139 38.4162 25.524 38.7274 26.786 38.7274C30.9312 38.7274 34.2219 37.0535 36.6153 33.6483C36.6639 33.5917 36.7179 33.5399 36.7764 33.4937V33.4937Z" fill="#EFD740"/>
<path fill-rule="evenodd" clip-rule="evenodd" d="M28.9214 30.7507C28.7075 30.2097 28.3658 29.7215 28.2668 29.1333C28.214 28.8147 27.9686 28.9203 27.776 28.911C27.5529 28.9008 27.4334 28.9805 27.4223 29.2334C27.401 29.6965 27.4436 30.1727 27.2159 30.6331C27.1779 30.1819 27.1335 29.7317 27.1057 29.2806C27.0936 29.0777 27.0918 28.8897 26.8122 28.9101C26.59 28.9277 26.3066 28.7897 26.2566 29.188C26.1807 29.7605 25.8131 30.2218 25.6168 30.7498C25.4844 30.6766 25.4168 30.4997 25.2317 30.5108C25.2585 30.1467 25.578 29.9402 25.7011 29.6234C25.9094 29.087 25.8992 29.0388 25.3604 28.9017C25.2874 28.8818 25.218 28.8506 25.1548 28.8091L25.1465 28.4719C25.1843 28.4292 25.2317 28.396 25.2848 28.3752C25.338 28.3545 25.3953 28.3466 25.452 28.3524C26.6703 28.4736 27.8977 28.4684 29.1149 28.3367C29.1809 28.3261 29.2483 28.3305 29.3124 28.3494C29.3765 28.3683 29.4356 28.4013 29.4852 28.446C29.3695 28.6516 29.5334 28.8591 29.4852 29.0648C29.2343 29.0852 28.9297 28.7869 28.7519 29.0555C28.5742 29.3242 28.8751 29.5706 28.9556 29.8309C29.0362 30.0912 29.3889 30.2014 29.3788 30.5265C29.164 30.4867 29.0464 30.6266 28.9214 30.7507Z" fill="#5A4865"/>
<path fill-rule="evenodd" clip-rule="evenodd" d="M29.4795 28.4551C28.0443 28.6934 26.5805 28.7022 25.1426 28.481C24.8871 28.3365 24.4223 28.2309 25.0361 27.9252C26.6009 27.6353 28.1619 27.5927 29.7128 28.0123C29.9387 28.3124 29.6082 28.3291 29.4795 28.4551Z" fill="#E8D6EE"/>
<path fill-rule="evenodd" clip-rule="evenodd" d="M25.1509 28.8136C26.1167 28.7534 26.2093 28.8858 25.7991 29.7399C25.6517 30.0257 25.4601 30.2864 25.2315 30.5125C24.5574 30.7237 24.0361 30.5393 23.7954 30.0011C23.6963 29.7797 23.6232 29.6223 24.0148 29.6528C24.6861 29.7066 24.9297 29.4963 25.1509 28.8136Z" fill="#F5F2F5"/>
<path fill-rule="evenodd" clip-rule="evenodd" d="M29.3706 30.5312C29.0099 30.2589 28.7495 29.8749 28.6298 29.439C28.5771 29.2584 28.3169 28.9823 28.6234 28.8675C28.9011 28.7646 29.29 28.6164 29.4817 29.0694C29.7206 29.7234 30.2761 29.6613 30.8104 29.6354C30.6382 30.4487 30.1678 30.7359 29.3706 30.5312Z" fill="#F6F2F7"/>
<path fill-rule="evenodd" clip-rule="evenodd" d="M23.1081 38.0556L22.8497 38.0853C22.3646 38.2511 21.9794 37.9722 21.5915 37.7703C21.3766 37.6591 21.1859 37.497 20.9026 37.3924C21.14 37.6784 21.4613 37.8826 21.8211 37.976C22.2442 38.101 22.5951 38.5725 22.4785 38.8504C22.347 39.1644 22.1924 39.5239 21.7239 39.4349L21.4461 39.4201L22.3155 38.7226C21.784 38.4336 21.297 38.1668 20.8026 37.8963C20.6496 37.8198 20.5055 37.7266 20.373 37.6184C20.0739 37.347 20.1832 36.9792 20.3322 36.7356C20.4813 36.492 20.685 36.7902 20.8387 36.8875C21.56 37.3479 22.3451 37.6814 23.1081 38.0556Z" fill="#E5C864"/>
<path fill-rule="evenodd" clip-rule="evenodd" d="M19.8723 35.6687C19.5481 35.6646 19.2383 35.534 19.009 35.3048C18.7796 35.0755 18.6489 34.7657 18.6445 34.4413C18.6527 34.1075 18.7905 33.79 19.0286 33.556C19.2668 33.322 19.5867 33.1901 19.9205 33.188C20.5797 33.2037 21.1547 33.7836 21.1492 34.4293C21.1477 34.5948 21.1134 34.7585 21.0483 34.9107C20.9832 35.0629 20.8884 35.2007 20.7697 35.316C20.6509 35.4313 20.5104 35.5218 20.3563 35.5824C20.2023 35.6429 20.0378 35.6723 19.8723 35.6687V35.6687Z" fill="#D5BBE4"/>
<path fill-rule="evenodd" clip-rule="evenodd" d="M29.3693 33.3852C29.111 33.7751 28.636 33.6964 28.274 33.8557C28.061 33.9484 27.849 33.6918 27.9962 33.3842C28.4508 33.2147 28.9064 33.0471 29.3693 33.3852Z" fill="#EADFEE"/>
<path fill-rule="evenodd" clip-rule="evenodd" d="M27.4661 35.763C27.2671 35.4851 26.8986 35.5064 26.6328 35.3239C26.9745 34.9738 27.68 34.9941 27.8874 35.3424C28.0384 35.5953 27.7254 35.6305 27.6634 35.7852L27.4661 35.763Z" fill="#F1E4F4"/>
<path fill-rule="evenodd" clip-rule="evenodd" d="M25.4961 33.3889C25.6877 33.3648 25.8664 33.3129 25.8183 33.6418C25.7701 33.9882 25.472 34.117 25.297 34.3495C25.2303 34.4421 25.1313 34.3495 25.0609 34.2828C24.8646 34.104 24.9572 33.9123 25.0313 33.7196C25.1211 33.5167 25.3701 33.5389 25.4961 33.3889Z" fill="#EBDFEF"/>
<path fill-rule="evenodd" clip-rule="evenodd" d="M24.4499 36.1708C24.1545 36.3347 23.9869 36.6617 23.7147 36.859C23.6221 36.9248 23.4564 36.6738 23.3777 36.5256C23.299 36.3774 23.4286 36.3042 23.5351 36.2829C23.7203 36.244 23.8008 36.168 23.861 35.9744C23.9064 35.8262 24.1221 35.8697 24.2675 35.9262C24.3188 35.9441 24.3636 35.977 24.3962 36.0205C24.4287 36.0641 24.4474 36.1165 24.4499 36.1708Z" fill="#B8A1C4"/>
<path fill-rule="evenodd" clip-rule="evenodd" d="M27.2666 33.6307C26.9676 34.0781 26.5185 33.8622 26.1953 33.7668C25.9277 33.6881 26.2463 33.4482 26.3083 33.2796C26.6713 33.2786 27.025 33.3009 27.2666 33.6307Z" fill="#E8DDEC"/>
<path fill-rule="evenodd" clip-rule="evenodd" d="M24.7137 34.3347C25.0026 34.5052 25.2795 34.6886 25.3397 35.0563C25.3591 35.1814 25.61 35.3092 25.3786 35.4269C25.2147 35.5093 25.0082 35.513 24.8785 35.3129C24.8091 35.2036 24.7563 35.0832 24.6934 34.9674C24.7008 34.7562 24.7076 34.5453 24.7137 34.3347Z" fill="#EFDFF2"/>
<path fill-rule="evenodd" clip-rule="evenodd" d="M30.0506 34.053C29.8747 33.8251 30.0265 33.6204 30.0969 33.4111C30.3228 33.4305 30.5599 32.9868 30.7451 33.3416C30.983 33.7936 30.5339 33.84 30.2571 33.9632L30.0506 34.053Z" fill="#E1D4E6"/>
<path fill-rule="evenodd" clip-rule="evenodd" d="M29.1578 35.7788C29.1467 35.6028 28.7661 35.5565 28.9624 35.3323C29.1402 35.1276 29.3846 35.2767 29.6004 35.3212C29.667 35.4954 30.0328 35.5796 29.8615 35.7844C29.6902 35.9891 29.3902 36.0613 29.1578 35.7788Z" fill="#E4DBEA"/>
<path fill-rule="evenodd" clip-rule="evenodd" d="M28.0326 36.1002C27.6816 35.7343 28.1002 35.6093 28.2733 35.5546C28.6159 35.4463 28.9094 35.563 28.9131 36.0095C28.6279 36.1271 28.3298 36.1104 28.0326 36.1002Z" fill="#E2D4E8"/>
<path fill-rule="evenodd" clip-rule="evenodd" d="M26.9618 18.4979C26.9739 18.4979 26.7415 18.6322 26.7544 18.3339C26.7683 18.0032 26.9859 17.9282 27.2581 17.9717C27.3887 17.9921 27.6461 17.8495 27.6174 18.157C27.5906 18.4405 27.4146 18.584 26.9618 18.4979Z" fill="#E2D3E7"/>
<path fill-rule="evenodd" clip-rule="evenodd" d="M21.5828 31.5667C21.8356 31.7 22.0726 31.8445 22.1272 32.0984C22.1513 32.2095 21.9208 32.3401 21.7846 32.3235C21.6548 32.3038 21.5331 32.2482 21.4333 32.1629C21.3335 32.0776 21.2595 31.966 21.2198 31.8408C21.1633 31.6565 21.467 31.6899 21.5828 31.5667Z" fill="#E7DBEE"/>
<path fill-rule="evenodd" clip-rule="evenodd" d="M21.4331 31.3056C21.4146 31.3808 21.369 31.4464 21.3051 31.49C21.2412 31.5336 21.1635 31.5521 21.0868 31.5418C20.772 31.5344 20.6414 31.2482 20.5544 31.0259C20.4766 30.8276 20.759 30.835 20.8729 30.8258C21.2025 30.798 21.2396 31.1481 21.4331 31.3056Z" fill="#EDE2F2"/>
<path fill-rule="evenodd" clip-rule="evenodd" d="M34.055 21.7727C34.3828 21.8477 34.4883 22.1358 34.5522 22.3961C34.5948 22.5684 34.3606 22.5332 34.2476 22.5397C33.8893 22.5629 33.8356 22.2257 33.743 22.0108C33.6504 21.7959 33.9319 21.8514 34.055 21.7727Z" fill="#E9DDEF"/>
<path fill-rule="evenodd" clip-rule="evenodd" d="M34.5828 30.0911C34.4828 30.294 34.4254 30.571 34.1856 30.6469C34.093 30.6747 33.8939 30.4617 33.918 30.2708C33.9486 30.0346 34.0208 29.7623 34.2801 29.715C34.4051 29.6919 34.556 29.8845 34.5828 30.0911Z" fill="#EBDBEF"/>
<path fill-rule="evenodd" clip-rule="evenodd" d="M20.9564 20.938C21.4193 21.2742 21.1545 21.5559 20.9341 21.8467C20.7906 22.032 20.6999 21.8838 20.6351 21.7921C20.311 21.3363 20.7925 21.2029 20.9564 20.938Z" fill="#E9DBEE"/>
<path fill-rule="evenodd" clip-rule="evenodd" d="M19.7031 28.799C19.2605 28.8221 19.3207 28.4451 19.2327 28.2052C19.1596 28.006 19.3253 28.0069 19.4651 28.0042C19.8966 27.993 19.8355 28.3571 19.9179 28.6044C20.0003 28.8518 19.8096 28.7795 19.7031 28.799Z" fill="#E7DAEC"/>
<path fill-rule="evenodd" clip-rule="evenodd" d="M32.552 19.933C32.4594 20.1108 32.3085 20.2164 32.1418 20.184C31.902 20.1377 31.652 20.0052 31.603 19.7579C31.5817 19.6504 31.8085 19.4624 31.9863 19.5013C32.1052 19.5304 32.2169 19.5837 32.3143 19.658C32.4116 19.7323 32.4926 19.8259 32.552 19.933V19.933Z" fill="#E6D6EA"/>
<path fill-rule="evenodd" clip-rule="evenodd" d="M35.2792 24.2006C35.3431 24.4341 35.2736 24.4878 35.0986 24.4943C34.6819 24.5072 34.7023 24.1738 34.6218 23.9199C34.5625 23.7347 34.6727 23.6948 34.8273 23.6856C35.2523 23.6606 35.2023 24.0154 35.2792 24.2006Z" fill="#E3D6EA"/>
<path fill-rule="evenodd" clip-rule="evenodd" d="M33.4696 20.928C33.7669 20.9799 33.9048 21.2346 33.9771 21.4662C34.0354 21.6514 33.7706 21.6626 33.6502 21.6514C33.3493 21.6357 33.1928 21.3837 33.1271 21.142C33.0891 21.0076 33.3298 20.9826 33.4696 20.928Z" fill="#E9DBED"/>
<path fill-rule="evenodd" clip-rule="evenodd" d="M31.0801 33.614C30.8264 33.1239 31.068 32.9183 31.406 32.7506C31.5717 32.6682 31.6514 32.7312 31.6912 32.8905C31.8227 33.4092 31.3245 33.3648 31.0801 33.614Z" fill="#E8D8ED"/>
<path fill-rule="evenodd" clip-rule="evenodd" d="M21.9194 20.5879C21.8268 20.8223 21.6694 21.0428 21.4453 21.0956C21.2823 21.1335 21.1842 20.8714 21.2036 20.725C21.2253 20.6054 21.2803 20.4942 21.3621 20.4043C21.444 20.3144 21.5495 20.2493 21.6666 20.2165C21.8712 20.159 21.8388 20.4462 21.9194 20.5879Z" fill="#EDE0F3"/>
<path fill-rule="evenodd" clip-rule="evenodd" d="M19.5566 26.4173C19.5372 26.5581 19.6492 26.7804 19.3511 26.761C19.0159 26.7378 18.9649 26.5044 18.9992 26.245C19.0159 26.1199 18.8612 25.8578 19.1844 25.8995C19.4779 25.9384 19.602 26.1227 19.5566 26.4173Z" fill="#E3D6E8"/>
<path fill-rule="evenodd" clip-rule="evenodd" d="M35.5242 26.2321C35.4835 26.3312 35.6465 26.5887 35.4011 26.5915C35.1557 26.5943 34.9326 26.4451 34.9752 26.1283C34.9974 25.9709 34.8641 25.7143 35.1955 25.7337C35.49 25.7476 35.5622 25.9375 35.5242 26.2321Z" fill="#EDE3F1"/>
<path fill-rule="evenodd" clip-rule="evenodd" d="M33.6463 31.5262C33.5656 31.5151 33.491 31.4773 33.4343 31.4189C33.3776 31.3605 33.342 31.2848 33.3333 31.2038C33.3009 30.9065 33.5185 30.7036 33.7342 30.5841C33.8315 30.5295 33.9944 30.7694 34 30.9287C34.0102 31.1992 33.7453 31.3187 33.6463 31.5262Z" fill="#ECE0F0"/>
<path fill-rule="evenodd" clip-rule="evenodd" d="M33.0579 31.3389C33.4181 31.5936 33.4329 31.8474 33.0986 32.1059C32.9996 32.1828 32.9051 32.4199 32.7505 32.2189C32.4181 31.79 32.8635 31.6047 33.0579 31.3389Z" fill="#E9DCED"/>
<path fill-rule="evenodd" clip-rule="evenodd" d="M25.5068 18.4333C25.5068 18.8557 25.1485 18.8168 24.8966 18.8853C24.692 18.9409 24.7114 18.7501 24.7114 18.626C24.7114 18.2267 25.0596 18.2962 25.2883 18.2174C25.4651 18.1563 25.5216 18.2702 25.5068 18.4333Z" fill="#E5D6EB"/>
<path fill-rule="evenodd" clip-rule="evenodd" d="M34.7333 28.1821C34.8185 28.0681 34.6962 27.7615 34.9861 27.7902C35.2027 27.8115 35.3833 27.9662 35.2907 28.2265C35.2314 28.3933 35.3166 28.711 35.0129 28.6721C34.8055 28.6452 34.6462 28.4664 34.7333 28.1821Z" fill="#E6D7E9"/>
<path fill-rule="evenodd" clip-rule="evenodd" d="M29.7591 18.3407C29.6017 18.8742 29.2814 18.8168 28.9369 18.7112C28.7471 18.6528 28.7749 18.5408 28.8508 18.4148C29.1193 17.9683 29.4332 18.3258 29.7591 18.3407Z" fill="#EDE0F2"/>
<path fill-rule="evenodd" clip-rule="evenodd" d="M31.6601 19.3224C31.5499 19.4994 31.4249 19.6513 31.2397 19.5827C31.0545 19.5142 30.737 19.5059 30.7305 19.2354C30.7323 19.187 30.7454 19.1397 30.7687 19.0972C30.7919 19.0547 30.8248 19.0182 30.8645 18.9906C30.9043 18.9631 30.95 18.9451 30.9979 18.9382C31.0458 18.9313 31.0947 18.9357 31.1407 18.951C31.3425 19.0149 31.5592 19.1066 31.6601 19.3224Z" fill="#EBDEEE"/>
<path fill-rule="evenodd" clip-rule="evenodd" d="M32.3555 20.4415C32.6814 20.0191 32.9416 20.1479 33.1888 20.4711C33.2619 20.5638 33.4286 20.6564 33.2351 20.7787C32.7786 21.0705 32.6203 20.6444 32.3555 20.4415Z" fill="#E5DAEA"/>
<path fill-rule="evenodd" clip-rule="evenodd" d="M19.0588 27.2019C19.0496 27.0666 19.0033 26.9388 19.2329 26.9527C19.632 26.9786 19.6311 27.2677 19.6737 27.5437C19.6996 27.7104 19.645 27.7845 19.4709 27.7873C19.0329 27.7947 19.1135 27.4501 19.0588 27.2019Z" fill="#E8DCEB"/>
<path fill-rule="evenodd" clip-rule="evenodd" d="M20.3392 22.8372C19.8985 22.6418 19.9013 22.3602 20.1457 22.0341C20.2151 21.9415 20.2864 21.7692 20.4438 21.9063C20.8568 22.2675 20.4503 22.5269 20.3392 22.8372Z" fill="#ECDDF1"/>
<path fill-rule="evenodd" clip-rule="evenodd" d="M26.3153 18.0349C26.4292 18.0506 26.5866 17.9654 26.5635 18.21C26.5283 18.5981 26.2625 18.612 25.9718 18.6435C25.7496 18.6676 25.7209 18.5768 25.7357 18.3915C25.7597 17.996 26.069 18.0719 26.3153 18.0349Z" fill="#E4D7E9"/>
<path fill-rule="evenodd" clip-rule="evenodd" d="M22.9525 32.6451C22.9025 32.8637 22.7608 32.9637 22.6238 32.9711C22.4916 32.9756 22.3615 32.9368 22.2534 32.8605C22.1453 32.7843 22.065 32.6748 22.0247 32.5487C21.9729 32.4079 22.2155 32.3088 22.3488 32.3051C22.6108 32.2977 22.747 32.5478 22.9525 32.6451Z" fill="#F3E5F5"/>
<path fill-rule="evenodd" clip-rule="evenodd" d="M30.7456 18.8215C30.6252 18.9743 30.5271 19.192 30.3123 19.1244C30.1169 19.0642 29.8039 19.0975 29.7743 18.8344C29.7595 18.7038 29.9336 18.4815 30.1706 18.5297C30.3826 18.5695 30.6076 18.6093 30.7456 18.8215Z" fill="#EEE1F1"/>
<path fill-rule="evenodd" clip-rule="evenodd" d="M19.9258 30.0495C20.4239 29.8059 20.6091 30.0829 20.7693 30.4117C20.8415 30.5581 20.7693 30.6174 20.6378 30.6516C20.1239 30.7897 20.1424 30.3256 19.9258 30.0495Z" fill="#ECE0F1"/>
<path fill-rule="evenodd" clip-rule="evenodd" d="M32.1142 32.9378C31.8605 32.9665 31.8753 32.797 31.8577 32.6812C31.805 32.3348 32.1022 32.218 32.3207 32.1161C32.5012 32.0318 32.5411 32.2819 32.5587 32.4024C32.6096 32.7572 32.2531 32.7785 32.1142 32.9378Z" fill="#EBDFF3"/>
<path fill-rule="evenodd" clip-rule="evenodd" d="M35.4746 27.251C35.3506 27.3437 35.5848 27.6892 35.2395 27.6271C34.9283 27.5706 34.8987 27.3224 34.9543 27.0611C34.9802 26.9416 34.8756 26.7147 35.1469 26.7656C35.4015 26.8157 35.5496 26.9583 35.4746 27.251Z" fill="#F2E8F6"/>
<path fill-rule="evenodd" clip-rule="evenodd" d="M23.4715 18.9224C23.7261 19.4059 23.4308 19.5921 23.0863 19.7561C22.9465 19.8209 22.8826 19.7561 22.853 19.6217C22.7363 19.0826 23.1835 19.0863 23.4715 18.9224Z" fill="#E8DBEC"/>
<path fill-rule="evenodd" clip-rule="evenodd" d="M24.503 18.7954C24.503 19.1771 24.1594 19.1984 23.9094 19.2586C23.7122 19.3077 23.7594 19.0808 23.7576 18.9724C23.752 18.6018 24.0946 18.6102 24.3187 18.5268C24.5428 18.4434 24.4696 18.6695 24.503 18.7954Z" fill="#EAE1ED"/>
<path fill-rule="evenodd" clip-rule="evenodd" d="M20.3065 29.5778C20.3018 29.802 20.1305 29.739 20.0213 29.7464C19.6454 29.7723 19.6509 29.4407 19.5648 29.2165C19.4972 29.0313 19.6574 29.01 19.7981 29.0081C20.1916 29.0026 20.1759 29.3583 20.3065 29.5778Z" fill="#EDE1F3"/>
<path fill-rule="evenodd" clip-rule="evenodd" d="M34.6803 28.7175C34.8655 28.8213 35.0563 28.925 35.0109 29.1066C34.9553 29.3234 34.9396 29.6402 34.6479 29.6679C34.522 29.68 34.3702 29.4827 34.3905 29.2817C34.417 29.0651 34.5197 28.8651 34.6803 28.7175Z" fill="#EFE2F3"/>
<path fill-rule="evenodd" clip-rule="evenodd" d="M23.863 33.2018C23.75 33.387 23.638 33.5769 23.4694 33.5473C23.2398 33.5084 22.9574 33.413 22.9139 33.1527C22.8907 33.0221 23.0991 32.8748 23.2898 32.8979C23.5194 32.9248 23.675 33.0869 23.863 33.2018Z" fill="#EEE3F3"/>
<path fill-rule="evenodd" clip-rule="evenodd" d="M24.7773 33.5141C24.8061 33.6438 24.7338 33.7365 24.6644 33.831C24.6347 33.8533 24.6038 33.8741 24.5718 33.893C24.294 34.0375 24.0653 33.8995 23.8514 33.7522C23.7468 33.6809 23.8514 33.5883 23.9033 33.5188C24.1042 33.265 24.3292 33.365 24.5588 33.4697C24.6296 33.4932 24.703 33.5081 24.7773 33.5141V33.5141Z" fill="#EBDDF1"/>
<path fill-rule="evenodd" clip-rule="evenodd" d="M19.6111 25.3204C19.5259 25.4353 19.7121 25.7317 19.3963 25.7178C19.1611 25.7076 19.0111 25.5548 19.063 25.3028C19.0963 25.1425 18.9852 24.8637 19.2426 24.8535C19.4797 24.8424 19.6537 25.0166 19.6111 25.3204Z" fill="#EEE5F5"/>
<path fill-rule="evenodd" clip-rule="evenodd" d="M35.4697 25.2715C35.5234 25.4883 35.4364 25.5244 35.2688 25.5216C34.8679 25.5142 34.9392 25.1872 34.8734 24.9566C34.8114 24.7417 34.9373 24.699 35.117 24.7111C35.5225 24.737 35.3873 25.0862 35.4697 25.2715Z" fill="#F2E3F3"/>
<path fill-rule="evenodd" clip-rule="evenodd" d="M19.7964 24.3062C19.7251 24.4211 19.8186 24.7082 19.5528 24.6934C19.3399 24.6823 19.1463 24.5239 19.2454 24.2701C19.3084 24.108 19.2195 23.7884 19.5167 23.8162C19.7223 23.8365 19.8714 24.019 19.7964 24.3062Z" fill="#F0E5F6"/>
<path fill-rule="evenodd" clip-rule="evenodd" d="M34.4908 22.7276C34.8723 22.697 34.8816 23.0194 34.976 23.2491C35.0557 23.44 34.9232 23.4677 34.7742 23.4807C34.364 23.5187 34.3436 23.1685 34.2473 22.9249C34.1621 22.7119 34.3881 22.7711 34.4908 22.7276Z" fill="#E9E0F0"/>
<path fill-rule="evenodd" clip-rule="evenodd" d="M19.9657 23.7663C19.5731 23.6533 19.4268 23.4384 19.637 23.0586C19.7 22.9446 19.7101 22.701 19.9148 22.8187C20.3731 23.0882 20.0527 23.4356 19.9657 23.7663Z" fill="#EDE1F2"/>
<path fill-rule="evenodd" clip-rule="evenodd" d="M29.8316 35.1185C29.5714 35.0777 29.202 35.1129 29.3076 34.6942C29.377 34.4163 29.6113 34.2486 29.9344 34.4274C29.9409 34.6618 29.9409 34.8999 29.8316 35.1185Z" fill="#F2E5F4"/>
<path fill-rule="evenodd" clip-rule="evenodd" d="M22.4268 19.5403C22.649 19.5403 22.6685 19.6931 22.6852 19.8182C22.7342 20.1665 22.4296 20.2767 22.2111 20.3675C22.0509 20.4351 21.9805 20.1822 21.9805 20.0516C21.9759 19.7478 22.2907 19.7061 22.4268 19.5403Z" fill="#F0E2F5"/>
<path fill-rule="evenodd" clip-rule="evenodd" d="M28.1511 18.5611C28.052 18.5101 27.7928 18.6593 27.7872 18.3953C27.7817 18.1174 27.9826 17.9914 28.2502 18.0451C28.3965 18.0747 28.6622 17.984 28.6594 18.2155C28.6567 18.4471 28.4761 18.6259 28.1511 18.5611Z" fill="#F3E7F7"/>
<path fill-rule="evenodd" clip-rule="evenodd" d="M26.3145 36.1141C26.5533 35.399 26.5533 35.399 27.1728 35.7741C26.9172 35.9705 26.6598 36.1567 26.3145 36.1141Z" fill="#E5D5EC"/>
<path fill-rule="evenodd" clip-rule="evenodd" d="M25.3667 35.8991C25.1769 35.4934 25.6001 35.7139 25.7019 35.5898C25.7319 35.5596 25.7677 35.5358 25.8072 35.52C25.8467 35.5042 25.8891 35.4967 25.9316 35.4979C25.9741 35.4991 26.0159 35.5091 26.0545 35.5271C26.093 35.5451 26.1274 35.5709 26.1556 35.6027C26.2704 35.7389 26.1065 35.8751 26.0491 36.0066C25.8001 36.1048 25.588 35.9723 25.3667 35.8991Z" fill="#EEE0F3"/>
<path fill-rule="evenodd" clip-rule="evenodd" d="M24.5566 35.2222L24.9001 35.778C24.6094 36.0485 24.3316 35.8298 24.1964 35.6464C24.1094 35.526 24.2834 35.2416 24.5566 35.2222Z" fill="#E1D3E7"/>
<path fill-rule="evenodd" clip-rule="evenodd" d="M30.2156 36.2243C30.1045 36.3456 29.9962 36.4892 29.8091 36.4522C29.7036 36.4309 29.5878 36.3419 29.6239 36.2178C29.6795 36.0325 29.8462 35.9881 30.0239 36.0112C30.1387 36.0261 30.2397 36.0705 30.2156 36.2243Z" fill="#BDA8C7"/>
<path fill-rule="evenodd" clip-rule="evenodd" d="M66.1888 56.4518C65.786 56.3944 65.4017 56.6158 64.998 56.5306C65.2499 56.1026 65.6156 56.0452 66.2332 56.3351V56.3305C66.2156 56.3713 66.2018 56.4111 66.1888 56.4518Z" fill="#695838"/>
<path fill-rule="evenodd" clip-rule="evenodd" d="M30.6721 36.6452C30.56 36.7776 30.4869 36.9787 30.2748 36.9963C30.1591 37.0055 30.1184 36.8879 30.148 36.7934C30.1676 36.7106 30.211 36.6355 30.2729 36.5772C30.3348 36.5189 30.4124 36.48 30.4961 36.4655C30.6045 36.4488 30.6665 36.5229 30.6721 36.6452Z" fill="#BDA8C7"/>
<path fill-rule="evenodd" clip-rule="evenodd" d="M44.7778 58.0675C44.5843 58.2083 44.3871 58.1666 44.1843 58.0879C41.0956 56.8929 38.0012 55.7127 34.9208 54.4965C34.2393 54.2278 33.5736 53.9129 32.8736 53.7026C32.369 53.5507 32.4486 53.2589 32.6162 52.9402C33.0134 52.1862 33.4412 51.4488 33.8393 50.6966C35.0671 48.3762 36.2846 46.0502 37.5105 43.7288C37.6787 43.3912 37.8727 43.0673 38.091 42.7598C38.2457 42.5532 38.1447 42.4328 38.0438 42.2837C38.2151 42.0864 38.4392 41.9419 38.5938 41.7279C39.7049 39.6557 40.827 37.5853 41.9326 35.5085C41.994 35.3822 42.0805 35.2697 42.1869 35.178C42.2932 35.0862 42.4171 35.0171 42.5511 34.9749C46.9953 33.4242 51.4353 31.8671 55.871 30.3034C57.5533 29.7115 59.2292 29.0992 60.9226 28.5387C61.1273 28.4711 61.4606 28.096 61.6856 28.5721L61.6272 28.6249C61.1041 29.0501 60.931 29.7004 60.6088 30.2506C58.9181 33.138 57.2404 36.0328 55.5923 38.947C53.9849 41.7946 52.3331 44.6171 50.7073 47.4554C48.9712 50.4919 47.2315 53.5266 45.4482 56.5335C45.1871 56.9735 44.9954 57.4598 44.6528 57.8489C44.4908 58.036 44.8158 57.9489 44.7778 58.0675Z" fill="#A38426"/>
<path fill-rule="evenodd" clip-rule="evenodd" d="M62.454 30.0762L62.2198 29.9253C62.4587 30.5941 62.6225 31.2888 62.8577 31.9548C63.8892 34.8802 64.9567 37.7907 66.0252 40.7059C66.6733 42.4798 67.3631 44.239 68.0122 46.0138C68.6742 47.8239 69.3084 49.645 69.9565 51.4597C70.2343 52.2443 70.5121 53.0345 70.813 53.8089C70.9611 54.1952 70.8889 54.3897 70.4426 54.3916C69.0695 54.3971 67.8557 54.8547 66.7798 55.6977C66.6332 55.8227 66.4444 55.887 66.252 55.8774C66.2107 55.8517 66.1754 55.8174 66.1486 55.7768C66.1217 55.7362 66.104 55.6902 66.0965 55.6421C66.0583 55.1684 65.9856 54.6981 65.8789 54.235C65.6345 52.9502 65.4095 51.6617 65.2178 50.3704C64.9188 48.363 64.554 46.3686 64.2169 44.3677C63.8938 42.4437 63.5438 40.5234 63.216 38.6004C62.8679 36.5624 62.4605 34.5384 62.1513 32.4949C62.0355 31.7288 61.7763 30.9859 61.7244 30.205C61.7337 29.8271 61.7753 29.45 61.5818 29.0934C61.5409 29.0168 61.5242 28.9295 61.534 28.8431C61.5437 28.7568 61.5795 28.6754 61.6365 28.6099L61.6809 28.5737C62.0089 29.0351 62.2692 29.5411 62.454 30.0762V30.0762Z" fill="#A28427"/>
<path fill-rule="evenodd" clip-rule="evenodd" d="M21.7221 39.4352C22.0415 39.2722 22.4368 39.0647 22.3581 38.6942C22.285 38.3496 21.9591 38.0976 21.5248 38.0531C21.1674 38.0161 20.9989 37.59 20.6341 37.5131C20.6145 37.4739 20.603 37.4311 20.6003 37.3873C20.5976 37.3435 20.6038 37.2997 20.6184 37.2583C20.7258 37.099 20.8712 37.1555 21.0128 37.2389C21.4684 37.5085 21.8915 37.8345 22.4155 37.9855C22.5574 38.0288 22.7018 38.0632 22.8479 38.0883C23.184 38.621 23.8062 38.5515 24.2868 38.6784C25.6877 39.0573 27.1496 39.1147 28.5839 38.9489C30.3764 38.7423 32.0152 38.0142 33.592 37.1555C33.592 37.3102 33.592 37.4834 33.805 37.489C34.4003 37.5066 34.5762 37.7567 34.2837 38.2986C34.2513 38.3579 34.2772 38.4487 34.2753 38.5246C34.0235 38.5839 33.9707 38.3681 33.8726 38.2245C33.4624 37.6196 33.4643 37.6178 32.9532 38.1319C32.8045 38.2546 32.6301 38.3423 32.443 38.3885C32.368 38.4014 32.4624 38.3885 32.3884 38.4051C32.0708 38.4765 31.6208 38.357 31.5069 38.7636C31.3977 39.1555 31.6921 39.4806 31.9513 39.7548C32.4319 40.2652 32.9411 40.7469 33.4281 41.2508C33.6133 41.4361 33.8189 41.6279 33.692 41.9391H33.1309C32.6772 41.7279 32.1967 41.8631 31.7301 41.8409C31.2174 41.815 30.7038 41.815 30.1912 41.8409C29.706 41.8659 29.5699 41.6306 29.5496 41.1925C29.5273 40.7024 29.832 40.2912 29.8209 39.803C29.8209 39.5927 29.856 39.3898 29.7097 39.212C28.9262 39.2054 28.1434 39.2655 27.37 39.3917C26.3515 39.5492 25.309 39.262 24.3053 38.9943C23.5794 38.8007 23.3461 38.9943 23.3044 39.7483C23.2655 40.4375 23.6562 41.0535 23.5618 41.7455C23.5266 41.9975 23.5127 42.1522 23.1914 42.1837C22.2331 42.2763 21.2776 42.406 20.3212 42.5394C20.074 42.5736 20.136 42.4088 20.1295 42.3013C20.1221 41.827 20.0823 41.3463 20.1406 40.8794C20.2147 40.2856 20.7813 40.1383 21.2128 39.9123C21.4424 39.7909 21.6452 39.6937 21.7221 39.4352Z" fill="#FBE60D"/>
<path fill-rule="evenodd" clip-rule="evenodd" d="M42.8973 28.4783L39.4622 29.9827C39.2872 30.0596 39.1446 30.0494 39.1845 29.8132C39.3106 29.0259 39.3944 28.2325 39.4354 27.4362C39.4456 27.1824 39.6252 27.1972 39.8057 27.2611C40.8242 27.6138 41.8427 27.9658 42.8612 28.3172L42.8973 28.4783Z" fill="#572C6E"/>
<path fill-rule="evenodd" clip-rule="evenodd" d="M40.6362 33.5167C39.8724 33.5278 39.1419 33.274 38.3835 33.2304C38.04 33.2101 37.9891 33.0331 38.1363 32.7302C38.3428 32.3041 38.5252 31.866 38.6965 31.4241C38.8095 31.1323 38.9474 31.0258 39.2326 31.2323C39.5539 31.4649 39.8872 31.6807 40.2159 31.9039C40.6705 32.3254 41.1918 32.6506 41.7223 32.9655C41.8899 33.0646 42.1325 33.1776 42.064 33.424C41.9899 33.6881 41.7214 33.6167 41.5307 33.6019C41.2313 33.5888 40.9327 33.5603 40.6362 33.5167V33.5167Z" fill="#572B6F"/>
<path fill-rule="evenodd" clip-rule="evenodd" d="M38.2824 38.0781C37.3259 37.5807 36.4926 37.1351 35.6464 36.7127C35.3177 36.5478 35.3251 36.3968 35.5853 36.181C35.712 36.0671 35.8326 35.9466 35.9464 35.8197C36.6954 35.0527 36.7139 35.0425 37.2121 35.9874C37.5537 36.6368 37.9907 37.2389 38.2824 38.0781Z" fill="#5C3162"/>
<path fill-rule="evenodd" clip-rule="evenodd" d="M38.1157 21.643C37.8731 21.2345 37.6425 20.8167 37.3823 20.4202C37.2046 20.1497 37.2657 20.0386 37.5675 19.9691C37.8388 19.907 38.0953 19.7838 38.3823 19.7838C38.7629 19.7384 39.2508 19.4642 39.4934 19.8125C39.736 20.1608 39.2666 20.4554 39.0916 20.7667C38.9416 21.0279 38.7675 21.2715 38.6036 21.5226C38.4684 21.7236 38.312 21.744 38.1157 21.643Z" fill="#572E6F"/>
<path fill-rule="evenodd" clip-rule="evenodd" d="M44.7395 23.7802C44.8081 23.8033 44.9766 23.6829 44.933 23.8311C44.8895 23.9793 44.7219 24.0683 44.5571 24.1414C43.0007 24.8371 41.4545 25.5569 39.9397 26.3415C39.5064 26.5647 39.0814 26.3174 39.0795 25.8163C39.0795 25.2438 39.0249 24.7046 38.6972 24.2072C38.512 23.9293 38.8286 23.8441 38.9749 23.7061C39.2953 24.1535 39.3351 24.6898 39.4231 25.2021C39.5629 26.0238 39.5416 26.0275 40.2906 25.643C41.0915 25.2493 41.9174 24.9121 42.7109 24.5046C43.1637 24.3638 43.5618 24.1053 43.9933 23.9182C44.2266 23.8163 44.4553 23.644 44.7395 23.7802Z" fill="#EFD54D"/>
<path fill-rule="evenodd" clip-rule="evenodd" d="M40.3597 25.7439C39.4264 26.3146 39.4339 26.3127 39.2829 25.2493C39.207 24.7305 39.0792 24.2201 38.9746 23.706C39.0104 23.7068 39.0455 23.6968 39.0755 23.6773C39.1987 23.5689 39.3533 23.568 39.5024 23.5661C41.1606 23.5448 42.8189 23.6143 44.4753 23.505C44.5214 23.4956 44.569 23.4973 44.6143 23.5101C44.6595 23.5228 44.7011 23.5461 44.7355 23.5782C44.7355 23.6458 44.7355 23.7125 44.7355 23.7801L42.7115 24.6333C42.5513 24.2488 42.9615 24.2627 43.1078 24.0626C42.0597 24.0682 41.0236 24.058 39.9875 24.0691C39.4755 24.0747 39.4126 24.2007 39.5338 24.7018C39.6524 25.1863 39.7922 25.6272 40.3597 25.7439Z" fill="#63393F"/>
<path fill-rule="evenodd" clip-rule="evenodd" d="M32.8887 38.0716C33.284 37.4278 33.5442 37.4287 33.9294 38.0336C34.034 38.1985 34.0377 38.4486 34.2738 38.5218C34.334 39.2304 34.6516 39.8705 34.8238 40.5486C34.846 40.6366 34.9284 40.7079 34.9488 40.795C35.2071 41.8705 35.2895 41.939 36.3793 41.9437C36.8172 41.9437 37.2543 41.9316 37.6904 41.9529C38.0075 41.9828 38.3254 41.9034 38.5912 41.7278C38.4931 41.9983 38.3866 42.2595 38.0403 42.2836C37.2496 42.0872 36.4321 42.1836 35.633 42.0659C35.4117 42.0326 35.1756 42.0891 34.9729 41.9511C34.7451 41.8288 34.7118 41.5898 34.6349 41.3805C34.3405 40.5773 34.1071 39.7547 33.8655 38.9359C33.7164 38.4227 33.5646 37.9688 32.8887 38.0716Z" fill="#EFD740"/>
<path fill-rule="evenodd" clip-rule="evenodd" d="M44.741 23.5783C42.8559 23.6839 40.968 23.6811 39.0801 23.6774C39.1366 23.3068 39.4273 23.4551 39.6199 23.4532C41.0745 23.4384 42.53 23.4421 43.9845 23.4337C44.1845 23.4337 44.3827 23.4717 44.5808 23.3309C44.691 23.2522 44.8317 23.3967 44.9002 23.531L44.741 23.5783Z" fill="#EFD54D"/>
<path fill-rule="evenodd" clip-rule="evenodd" d="M40.636 33.5167C41.074 33.4315 41.5286 33.5741 42.0249 33.4241C41.4953 32.771 40.5675 32.6673 40.2129 31.9021C41.2369 32.4579 42.1749 33.148 43.1239 33.8474C42.2795 33.7992 41.4434 33.7714 40.636 33.5167Z" fill="#6C4736"/>
<path fill-rule="evenodd" clip-rule="evenodd" d="M38.1152 21.6429C38.2569 21.6068 38.4171 21.629 38.5134 21.4715C38.8393 20.9435 39.1726 20.4192 39.5708 19.7856H38.381C38.905 19.5234 39.4763 19.4605 40.1097 19.429C39.5782 20.2413 39.0773 21.075 38.5023 21.855C38.2143 22.2487 38.206 21.7939 38.1152 21.6429Z" fill="#684436"/>
<path fill-rule="evenodd" clip-rule="evenodd" d="M61.639 28.6082C61.7131 29.1316 62.0093 29.6188 61.8945 30.1737C61.6001 30.2228 61.6353 29.8958 61.4566 29.7884C61.1288 30.6915 61.1529 31.6549 60.9251 32.5674C60.5835 33.9476 60.4492 35.3704 60.0918 36.7488C59.9712 37.2662 59.8785 37.7897 59.814 38.3171C59.589 39.8548 59.2076 41.362 58.9446 42.8904C58.7122 44.2373 58.452 45.5768 58.1761 46.9144C57.89 48.3039 57.6993 49.7129 57.3604 51.0959C57.116 52.088 57.0428 53.1181 56.8123 54.1166C56.6586 54.7818 56.5956 55.4635 56.4206 56.1249C56.2697 56.6983 56.3845 56.8262 56.9873 56.8549C57.2993 56.8688 57.64 56.7623 57.9076 57.029C57.366 57.2199 56.7882 57.1921 56.2364 57.2143C53.7087 57.3227 51.1949 57.595 48.6755 57.796C47.3793 57.8989 46.0765 57.9748 44.7775 58.0628C44.3886 58.0628 44.5182 57.8535 44.6275 57.6664C45.2898 56.5233 45.9534 55.3808 46.6182 54.2389C47.328 53.0143 48.0379 51.7885 48.7477 50.5614C49.2477 49.6968 49.7462 48.8282 50.2431 47.9556C51.6196 45.5632 52.9964 43.1702 54.3735 40.7765C55.1475 39.4296 55.9271 38.0846 56.6882 36.7312C58.1234 34.1829 59.6835 31.7049 61.0399 29.1094C61.1418 28.9102 61.2408 28.535 61.639 28.6082Z" fill="#695838"/>
<path fill-rule="evenodd" clip-rule="evenodd" d="M57.9065 57.0316C57.5648 57.026 57.2231 57.0177 56.8815 57.0168C56.1898 57.0168 55.9824 56.7389 56.2334 56.07C56.4843 55.4012 56.488 54.7213 56.638 54.0506C56.8741 52.9918 57.0954 51.9256 57.2528 50.852C57.3333 50.2962 57.4805 49.7487 57.6009 49.2105C57.7426 48.5806 57.7944 47.9331 57.9453 47.3014C58.1564 46.4167 58.2972 45.5015 58.4842 44.6048C58.6953 43.5858 58.7796 42.5493 59.0879 41.5479C59.2564 41.0014 59.1888 40.3955 59.3721 39.8277C59.6786 38.8801 59.6147 37.8509 59.8786 36.907C60.199 35.7611 60.2332 34.5698 60.5564 33.4406C60.8934 32.2623 60.9517 31.0442 61.2156 29.8594C61.25 29.7129 61.3025 29.5713 61.3721 29.4379C61.3927 29.409 61.4196 29.385 61.4506 29.3677C61.4817 29.3504 61.5162 29.3402 61.5517 29.3379C61.6443 29.3379 61.6554 29.4305 61.661 29.5065C61.6795 29.752 61.6609 30.0076 61.8971 30.1744C62.0822 31.2137 62.2674 32.2537 62.4526 33.2943C62.6476 34.391 62.8424 35.4878 63.0368 36.5846C63.2313 37.6805 63.4294 38.7763 63.6183 39.874C63.8109 40.9856 63.9886 42.1046 64.1831 43.2199C64.3553 44.225 64.5433 45.2273 64.7099 46.2333C64.9229 47.5181 65.1145 48.8067 65.3293 50.0915C65.5145 51.2077 65.7284 52.3193 65.9201 53.4346C65.9673 53.7125 65.9812 53.9978 66.0127 54.2794C66.1349 54.7232 65.996 55.2058 66.233 55.6347L66.258 55.8783C66.2182 56.0293 66.3506 56.1886 66.2349 56.3359C65.8265 56.4211 65.3608 56.146 64.9997 56.5314L60.7573 56.8009C60.1249 56.8824 59.486 56.8185 58.8536 56.8982C58.6527 56.9232 58.437 56.8593 58.2574 57.0038L57.9065 57.0316Z" fill="#562779"/>
<path fill-rule="evenodd" clip-rule="evenodd" d="M23.901 41.6192C23.7927 41.0227 23.6843 40.428 23.5769 39.8314C23.4556 39.1515 23.5112 39.082 24.1538 39.2534C24.7395 39.4109 25.3393 39.5108 25.9444 39.5517C26.3148 39.5758 26.3407 39.7369 26.2361 40.0315C26.0074 40.6735 25.7907 41.3191 25.5685 41.9648C25.2435 42.8466 24.9204 43.7248 24.5352 44.7669C24.1908 43.8406 24.1649 43.0143 24.0195 42.2158C23.9778 42.0166 24.0621 41.7943 23.901 41.6192Z" fill="#562A72"/>
<path fill-rule="evenodd" clip-rule="evenodd" d="M32.8897 38.0713C33.6489 37.8592 33.6517 37.8573 33.9128 38.6586C34.2693 39.7545 34.6202 40.8531 34.9739 41.9508C34.9739 42.2287 35.2517 42.4529 35.1498 42.8002C34.7239 42.5705 34.4859 42.1629 34.1526 41.8628C33.6897 41.6534 33.4545 41.1995 33.0943 40.8781C32.5879 40.427 32.1684 39.8916 31.7147 39.3849C31.3036 38.9217 31.3981 38.6568 31.9814 38.4381C32.136 38.3807 32.3203 38.4067 32.4444 38.2723C32.5758 38.1556 32.7879 38.2325 32.8897 38.0713Z" fill="#552C6F"/>
<path fill-rule="evenodd" clip-rule="evenodd" d="M28.4693 41.8637L26.9453 39.6637C27.8777 39.5711 28.7869 39.5109 29.6804 39.3284C29.8859 39.4562 29.86 39.6693 29.8165 39.8406C29.6563 40.4705 29.7174 41.1532 29.3619 41.735C29.33 41.779 29.3027 41.8262 29.2804 41.8758C29.2054 42.1083 29.4008 42.4955 29.1119 42.5566C28.873 42.6076 28.7786 42.2102 28.6128 42.0175C28.5666 41.9675 28.5175 41.9165 28.4693 41.8637Z" fill="#582D6B"/>
<path fill-rule="evenodd" clip-rule="evenodd" d="M32.4494 38.2744C32.3272 38.5523 32.0272 38.5671 31.8013 38.6672C31.455 38.8219 31.493 38.9645 31.7087 39.198C32.4577 39.9928 33.1975 40.7959 33.9392 41.5981C34.016 41.6815 34.0799 41.776 34.1493 41.8649C34.0151 42.0122 33.8475 41.9492 33.6864 41.9371C33.4225 41.2313 32.7559 40.87 32.3068 40.3235C32.0355 39.9937 31.668 39.7677 31.4846 39.3369C31.1763 38.619 31.3217 38.3281 32.1031 38.2892L32.4494 38.2744Z" fill="#EFD740"/>
<path fill-rule="evenodd" clip-rule="evenodd" d="M29.3613 41.7391C29.4308 40.9323 29.7493 40.1578 29.6798 39.3306C29.69 39.2899 29.6993 39.25 29.7095 39.2102C30.0326 39.4066 30.1196 39.9985 29.8558 40.5237C29.7752 40.6696 29.728 40.8317 29.7178 40.998C29.6863 41.7169 29.6835 41.7169 30.4104 41.7178C31.1372 41.7187 31.8918 41.7113 32.627 41.7178C32.8121 41.7178 33.0686 41.6131 33.1306 41.9308L29.7548 41.9484C29.5817 41.9559 29.4076 41.966 29.3613 41.7391Z" fill="#E9DE3D"/>
<path fill-rule="evenodd" clip-rule="evenodd" d="M58.2578 57.0067C58.2847 56.7445 58.4884 56.7982 58.6486 56.7982C59.3513 56.7982 60.0541 56.7982 60.7578 56.7982C59.9336 56.9518 59.096 57.0216 58.2578 57.0067V57.0067Z" fill="#695838"/>
<path fill-rule="evenodd" clip-rule="evenodd" d="M55.7048 71.2703C56.5585 71.2703 57.1594 71.8678 57.1696 72.7367C57.185 72.9406 57.1581 73.1455 57.0905 73.3385C57.023 73.5315 56.9162 73.7084 56.777 73.8581C56.6377 74.0078 56.4691 74.1271 56.2815 74.2084C56.094 74.2897 55.8917 74.3314 55.6873 74.3306C55.4829 74.3299 55.2808 74.2869 55.0939 74.2043C54.9069 74.1217 54.739 74.0013 54.6008 73.8506C54.4626 73.6999 54.3571 73.5223 54.2909 73.3288C54.2246 73.1353 54.1991 72.9303 54.216 72.7265C54.2215 71.8946 54.8558 71.274 55.7048 71.2703Z" fill="#562878"/>
<path fill-rule="evenodd" clip-rule="evenodd" d="M40.1771 76.2123C39.3809 76.2123 38.7216 75.5342 38.7207 74.7135C38.7198 73.8928 39.379 73.2536 40.2216 73.2666C41.0206 73.2795 41.703 73.94 41.6919 74.6987C41.6921 74.8977 41.6531 75.0947 41.5771 75.2786C41.501 75.4625 41.3894 75.6295 41.2487 75.7702C41.1079 75.9108 40.9408 76.0222 40.757 76.0981C40.5731 76.174 40.376 76.2128 40.1771 76.2123V76.2123Z" fill="#542977"/>
<path fill-rule="evenodd" clip-rule="evenodd" d="M16.653 54.4037C16.6535 54.5983 16.6151 54.7911 16.5399 54.9706C16.4648 55.1501 16.3544 55.3127 16.2153 55.4488C16.0763 55.5849 15.9114 55.6917 15.7303 55.7629C15.5493 55.8342 15.3558 55.8684 15.1614 55.8636C14.7692 55.8558 14.3959 55.6935 14.1225 55.4121C13.8491 55.1306 13.6977 54.7526 13.7012 54.3601C13.717 53.5589 14.4142 52.8697 15.1993 52.878C15.9845 52.8863 16.6604 53.5978 16.653 54.4037Z" fill="#562878"/>
<path fill-rule="evenodd" clip-rule="evenodd" d="M68.6084 60.5991C68.9204 60.6621 69.1926 60.8316 69.1787 61.1799C69.1686 61.4365 69.0862 61.8756 68.7815 61.8154C68.4454 61.7487 67.9945 61.5014 67.9186 61.167C67.8584 60.902 68.2297 60.6427 68.6084 60.5991Z" fill="#56336F"/>
<path fill-rule="evenodd" clip-rule="evenodd" d="M64.623 65.8254C65.1369 66.0969 65.511 66.2969 65.8879 66.4915C66.0305 66.5647 66.0295 66.6647 65.9351 66.7592C65.761 66.9324 65.5906 67.1973 65.3888 67.2288C65.1351 67.2687 65.1351 66.913 65.0332 66.7268C64.9017 66.4868 64.8036 66.2275 64.623 65.8254Z" fill="#5B417A"/>
<path fill-rule="evenodd" clip-rule="evenodd" d="M31.9633 25.9541C32.2336 25.4955 31.392 25.9763 31.5725 25.2871C31.7318 24.6831 32.2207 25.2815 32.2031 24.8638C32.5346 25.2843 32.4327 25.6196 31.9633 25.9541Z" fill="#5C4971"/>
<path fill-rule="evenodd" clip-rule="evenodd" d="M22.043 25.427C22.1995 25.0565 22.5124 24.9175 22.9254 24.9796C22.8837 25.1973 22.8865 25.4076 23.0319 25.5928C22.6596 25.8541 22.3189 25.8494 22.043 25.427Z" fill="#523B67"/>
<path fill-rule="evenodd" clip-rule="evenodd" d="M26.6094 39.7241C26.9798 40.2271 27.3038 40.7051 27.6687 41.1498C27.8409 41.3591 27.9622 41.5638 27.8474 41.8102C27.7326 42.0566 27.477 41.9316 27.2835 41.939C26.8326 41.9547 26.3807 41.9436 25.9492 41.9436C25.9705 41.1192 26.389 40.4698 26.6094 39.7241Z" fill="#FBE60D"/>
<path fill-rule="evenodd" clip-rule="evenodd" d="M27.6576 33.6121C27.74 33.8039 28.0882 33.9187 27.8428 34.2022C27.7321 34.3322 27.5907 34.4324 27.4314 34.4937C27.2721 34.555 27.1 34.5755 26.9308 34.5533C26.9069 34.5538 26.8832 34.5492 26.8612 34.5399C26.8392 34.5306 26.8194 34.5167 26.8032 34.4992C26.7869 34.4817 26.7745 34.461 26.7668 34.4384C26.7592 34.4158 26.7563 34.3918 26.7585 34.368C26.7585 34.2244 26.8104 34.1105 26.9641 34.0716C27.2389 33.9973 27.4817 33.8345 27.6548 33.6084L27.6576 33.6121Z" fill="#F3EAF5"/>
<path fill-rule="evenodd" clip-rule="evenodd" d="M29.092 35.0062C28.592 35.4694 28.1605 35.3638 27.7031 34.9367C28.1902 34.7246 28.6235 34.7051 29.092 35.0062Z" fill="#E9DBEB"/>
<path fill-rule="evenodd" clip-rule="evenodd" d="M29.7216 33.8697C29.7105 34.0958 29.0587 34.5506 28.8717 34.4598C28.7652 34.4079 28.8022 34.3033 28.8068 34.2162C28.8217 33.9605 29.3096 33.5955 29.58 33.6233C29.7587 33.6428 29.705 33.7706 29.7216 33.8697Z" fill="#EDE0F1"/>
<path fill-rule="evenodd" clip-rule="evenodd" d="M26.1414 34.0189C26.258 34.1616 26.6358 33.8846 26.6136 34.2876C26.6034 34.4802 26.4803 34.5979 26.2673 34.5303C26.0543 34.4626 25.721 34.5479 25.6867 34.2524C25.6664 34.081 25.9099 33.9828 26.1414 34.0189Z" fill="#F5E9F8"/>
<path fill-rule="evenodd" clip-rule="evenodd" d="M26.6409 34.9618C26.5335 35.0433 26.4409 35.1619 26.3261 35.1897C26.0946 35.2443 25.8437 35.2823 25.6483 35.0757C25.5844 35.0081 25.5057 34.9016 25.5826 34.8312C25.752 34.6737 25.9742 34.7636 26.1733 34.7636C26.2604 34.7642 26.3466 34.782 26.4268 34.816C26.5071 34.8501 26.5798 34.8996 26.6409 34.9618V34.9618Z" fill="#ECDEF1"/>
<path fill-rule="evenodd" clip-rule="evenodd" d="M27.7734 34.6117C27.879 34.3449 28.0142 34.2411 28.1707 34.1819C28.2855 34.1355 28.4068 34.029 28.5345 34.117C28.5753 34.1457 28.5781 34.2532 28.5707 34.3217C28.5665 34.3984 28.5334 34.4707 28.478 34.524C28.4227 34.5773 28.3493 34.6076 28.2725 34.6089C28.1262 34.6219 27.9808 34.6117 27.7734 34.6117Z" fill="#DED3E2"/>
<path fill-rule="evenodd" clip-rule="evenodd" d="M25.1602 28.2329C25.9009 27.917 28.6461 27.9244 29.3331 28.2329C27.9476 28.408 26.5456 28.408 25.1602 28.2329V28.2329Z" fill="#5B4567"/>
<path fill-rule="evenodd" clip-rule="evenodd" d="M19.9342 35.4409C19.8017 35.446 19.6694 35.4248 19.5451 35.3785C19.4208 35.3322 19.3069 35.2618 19.2099 35.1714C19.1129 35.0809 19.0348 34.9721 18.98 34.8512C18.9252 34.7304 18.8948 34.5999 18.8907 34.4673C18.8882 34.1999 18.9865 33.9415 19.166 33.7434C19.3455 33.5453 19.593 33.4221 19.8592 33.3983C20.3647 33.3678 20.8777 33.8615 20.8981 34.3923C20.9054 34.5249 20.8861 34.6576 20.8414 34.7826C20.7966 34.9076 20.7272 35.0224 20.6374 35.1201C20.5475 35.2179 20.439 35.2966 20.3182 35.3517C20.1975 35.4068 20.0669 35.4371 19.9342 35.4409V35.4409Z" fill="#553B67"/>
<path fill-rule="evenodd" clip-rule="evenodd" d="M57.3422 31.6104C56.0265 33.8956 54.7849 36.0503 53.546 38.2049C53.4948 38.295 53.4225 38.3713 53.3352 38.4271C53.2479 38.483 53.1484 38.5167 53.0451 38.5254C51.0832 38.8496 49.124 39.1905 47.162 39.5185C46.9768 39.549 46.7055 39.5972 46.6185 39.5036C46.4639 39.336 46.6574 39.1183 46.7491 38.9478C47.5537 37.4231 48.3722 35.9058 49.1805 34.3819C49.2243 34.2875 49.2874 34.2033 49.3657 34.1347C49.444 34.0661 49.5357 34.0146 49.6351 33.9836L57.3422 31.6104Z" fill="#FDE709"/>
<path fill-rule="evenodd" clip-rule="evenodd" d="M51.4976 41.6897C50.9513 42.6475 50.4115 43.598 49.8671 44.5456C49.4042 45.3515 48.931 46.1509 48.4783 46.9605C48.2931 47.2838 48.0866 47.4673 47.6737 47.433C46.0885 47.3005 44.5015 47.1995 42.9155 47.0875C42.3674 47.0486 42.6664 46.703 42.7544 46.5317C43.2868 45.4858 43.8497 44.4557 44.4034 43.421C44.4395 43.3543 44.5099 43.2988 44.5247 43.2293C44.7534 42.1853 45.5497 42.1075 46.4154 42.0464C47.9051 41.9398 49.3903 41.7685 50.8782 41.6267C51.0541 41.6091 51.2439 41.5619 51.4976 41.6897Z" fill="#FDE709"/>
<path fill-rule="evenodd" clip-rule="evenodd" d="M46.2428 50.7577C46.1918 50.8559 46.1437 50.9587 46.0863 51.0569C45.2872 52.4343 44.4817 53.809 43.6919 55.192C43.5401 55.4569 43.3993 55.6042 43.066 55.4838C41.7834 55.0212 40.497 54.5707 39.2069 54.1323C38.894 54.0257 38.844 53.9081 39.0069 53.6098C39.6624 52.4149 40.2967 51.2079 40.9291 49.9972C41.0411 49.7841 41.1633 49.6915 41.4189 49.7369C42.9086 49.999 44.4002 50.2454 45.8909 50.4974C46.0483 50.5261 46.2557 50.4835 46.2428 50.7577Z" fill="#FDE709"/>
<path fill-rule="evenodd" clip-rule="evenodd" d="M47.5901 34.7071C47.2837 35.3166 46.9846 35.9234 46.6753 36.5255C46.1815 37.487 45.684 38.447 45.1828 39.4055C45.0902 39.5907 45.0226 39.827 44.7912 39.8686C43.381 40.1225 41.9672 40.3615 40.4395 40.6255C41.0135 39.4166 41.5829 38.3439 42.0348 37.223C42.3838 36.3569 42.9514 35.9438 43.8495 35.7409C44.9374 35.5001 45.9883 35.0925 47.0587 34.7683C47.2151 34.7247 47.367 34.6006 47.5901 34.7071Z" fill="#FCE70A"/>
<path fill-rule="evenodd" clip-rule="evenodd" d="M43.6672 42.3223C43.0117 43.5997 42.4033 44.7937 41.7876 45.9841C41.2321 47.0651 41.2321 47.0466 39.9682 46.8891C39.3127 46.8067 38.6479 46.7733 37.9868 46.7548C37.5831 46.7446 37.5387 46.6038 37.7017 46.2722C38.2266 45.2023 38.747 44.1296 39.2544 43.0504C39.3951 42.7512 39.6062 42.6539 39.9238 42.6317C41.1293 42.5464 42.333 42.4353 43.6672 42.3223Z" fill="#FCE70A"/>
<path fill-rule="evenodd" clip-rule="evenodd" d="M36.7135 48.9651C37.6626 49.13 38.6097 49.3023 39.5606 49.4561C39.856 49.5033 39.9069 49.6201 39.7736 49.8739C39.1579 51.0457 38.5422 52.2184 37.9394 53.394C37.8339 53.6005 37.6968 53.6107 37.5218 53.5505C36.6811 53.2587 35.8432 52.9595 35.0006 52.6705C34.7636 52.589 34.7229 52.4667 34.8284 52.2425C35.3265 51.2205 35.8203 50.1959 36.3098 49.1689C36.3922 48.9948 36.5182 48.9114 36.7135 48.9651Z" fill="#FCE60A"/>
<path fill-rule="evenodd" clip-rule="evenodd" d="M66.2297 55.6338C65.876 55.5782 66.0269 55.2957 66.0103 55.1058C65.9871 54.8279 66.0103 54.55 66.0103 54.2786C66.1634 54.7137 66.2377 55.1726 66.2297 55.6338V55.6338Z" fill="#695838"/>
<path fill-rule="evenodd" clip-rule="evenodd" d="M40.3614 25.7439C40.1003 25.6624 39.6309 25.8828 39.5957 25.6022C39.5309 25.0862 39.1948 24.6212 39.3179 24.0802C39.3503 23.9412 39.4596 23.9153 39.5781 23.9153C40.8793 23.9085 42.1795 23.9042 43.4789 23.9023C43.5066 23.9023 43.5353 23.9477 43.5909 23.995C43.3548 24.2886 42.8317 24.1997 42.7132 24.6314C41.9576 25.064 41.1577 25.3984 40.3614 25.7439Z" fill="#562A76"/>
<path fill-rule="evenodd" clip-rule="evenodd" d="M19.4219 35.0766C19.4219 34.7422 19.4219 34.4088 19.4219 34.0743C19.4219 33.9224 19.4154 33.7436 19.6256 33.7316C19.8673 33.7177 20.1247 33.6556 20.3395 33.8242C20.4941 33.9456 20.5497 34.167 20.4432 34.2828C20.1858 34.5607 20.2099 34.8024 20.4691 35.0451C20.1913 35.2165 20.1812 34.9877 20.0913 34.8951C20.0015 34.8024 19.9719 34.5662 19.7913 34.5894C19.57 34.6172 19.7062 34.8404 19.6487 34.9655C19.6241 35.0104 19.5953 35.0529 19.5626 35.0924L19.4219 35.0766Z" fill="#CDB7D9"/>
<path fill-rule="evenodd" clip-rule="evenodd" d="M19.926 34.3226C19.7862 34.3226 19.663 34.2939 19.6815 34.1114C19.6964 33.9623 19.8112 33.9567 19.9241 33.9558C20.0565 33.9558 20.2084 33.9623 20.2075 34.1337C20.2065 34.305 20.0612 34.3236 19.926 34.3226Z" fill="#564366"/>
</g>
<defs>
<clipPath id="clip0">
<rect width="80" height="80" fill="white" transform="translate(4 4)"/>
</clipPath>
</defs>
</svg>
