<svg width="88" height="88" viewBox="0 0 88 88" fill="none" xmlns="http://www.w3.org/2000/svg">
<g clip-path="url(#clip0)">
<path d="M11.4337 67.1542C11.2705 67.1239 11.2356 67.0074 11.1726 66.9212C8.91699 63.7018 7.14495 60.1699 5.9128 56.4378C5.77757 56.0325 6.02937 56.0255 6.28583 55.9509C11.0327 54.5935 15.785 53.2315 20.5428 51.8647C21.114 51.7016 21.6922 51.5549 22.2565 51.3662C22.5222 51.28 22.6621 51.3079 22.7601 51.5875C23.3474 53.2738 24.1498 54.8774 25.1475 56.3586C25.3806 56.6987 25.1032 56.7826 24.933 56.9131C23.245 58.2021 21.5555 59.4866 19.8644 60.7663L11.8138 66.877C11.6832 66.9772 11.541 67.0703 11.4337 67.1542Z" fill="#CE8C2A"/>
<path d="M4.00465 44.0395V41.7542C4.00465 41.4676 4.08392 41.3698 4.39167 41.4C8.19198 41.751 11.9923 42.0958 15.7926 42.4344C17.5529 42.5928 19.3155 42.7582 21.0781 42.9003C21.3905 42.926 21.4674 43.0122 21.4558 43.329C21.3821 45.041 21.527 46.7555 21.8871 48.4309C21.964 48.7804 21.8614 48.8968 21.514 49.004C16.2014 50.5121 10.8934 52.0372 5.59005 53.5794C5.19137 53.6959 5.08878 53.6027 5.00252 53.23C4.29107 50.2195 3.95589 47.1325 4.00465 44.0395V44.0395Z" fill="#48773E"/>
<path d="M38.8472 66.1969C38.5161 67.9627 38.1897 69.717 37.8586 71.4712C37.1638 75.1613 36.4706 78.8515 35.7789 82.5417C35.702 82.9447 35.6484 83.18 35.1005 83.0472C31.4189 82.1782 27.8712 80.8179 24.5529 79.0029C24.1938 78.8049 24.1425 78.6698 24.3687 78.304C27.2706 73.6447 30.1593 68.9777 33.0348 64.3029C33.2563 63.9441 33.4032 63.8765 33.7972 64.0862C35.2657 64.8526 36.8189 65.4445 38.4252 65.8497C38.5977 65.8963 38.9264 65.8311 38.8472 66.1969Z" fill="#E01483"/>
<path d="M4.31346 38.5392C4.84999 34.6945 5.93833 30.9472 7.54489 27.4128C7.71276 27.0424 7.85731 27.089 8.15108 27.2358C12.5234 29.4225 16.8996 31.6031 21.2796 33.7774C21.8438 34.0593 22.4034 34.3575 22.9816 34.6138C23.2964 34.7535 23.3873 34.884 23.2334 35.2288C22.5452 36.7776 22.0632 38.4098 21.7995 40.0838C21.7506 40.4006 21.6154 40.4658 21.3333 40.4402C16.204 39.965 11.0678 39.499 5.92451 39.0424C5.51651 39.0051 5.1085 38.9469 4.69816 38.9399C4.28782 38.9329 4.19922 38.7932 4.31346 38.5392Z" fill="#007DBB"/>
<path d="M45.9259 83.9767C43.0419 84.0466 40.778 83.9651 38.5235 83.6459C38.1574 83.5947 38.1178 83.4898 38.1808 83.1567C39.2159 77.7209 40.2418 72.278 41.2583 66.8282C41.3143 66.53 41.3842 66.3623 41.7479 66.4112C43.4339 66.6027 45.1371 66.5855 46.8189 66.36C47.2012 66.3134 47.2852 66.4159 47.3458 66.7607C48.1805 71.2367 49.0237 75.7112 49.8754 80.1841C50.048 81.0973 50.1902 82.0175 50.407 82.9214C50.5213 83.3873 50.3627 83.5364 49.9407 83.59C48.3973 83.7834 46.8632 83.9651 45.9259 83.9767Z" fill="#F26D25"/>
<path d="M70.06 13.7589C69.9388 13.8987 69.8106 14.0594 69.673 14.2085L61.7133 22.8865C60.6828 24.0117 59.643 25.1276 58.6311 26.2714C58.37 26.5673 58.2161 26.5533 57.9317 26.3157C56.663 25.2779 55.2687 24.4037 53.7816 23.7135C53.4273 23.5481 53.3736 23.4106 53.5112 23.0565C55.1246 18.9036 56.7294 14.7451 58.3257 10.5813C58.7197 9.55857 59.1231 8.53819 59.5031 7.51081C59.6033 7.24058 59.7106 7.18699 59.9811 7.30581C63.5679 8.87352 66.9049 10.9591 69.8852 13.4957C70.0787 13.6681 70.074 13.6727 70.06 13.7589Z" fill="#D29F29"/>
<path d="M21.9357 77.3955L21.6723 77.2208C18.4868 75.0704 15.6205 72.4824 13.1577 69.5329C12.9082 69.2347 12.9712 69.1019 13.2556 68.8876C17.6668 65.5562 22.0686 62.2171 26.4611 58.8701C26.7246 58.6698 26.8691 58.6511 27.0953 58.9121C28.2118 60.2146 29.4923 61.3672 30.9049 62.3413C31.2523 62.5743 31.0938 62.742 30.9562 62.961L23.8242 74.4857C23.2857 75.3547 22.7494 76.2283 22.2108 77.0973C22.1386 77.2138 22.0826 77.3605 21.9357 77.3955Z" fill="#F89C26"/>
<path d="M28.093 27.9883C27.9974 28.0978 27.9181 28.2003 27.8295 28.2912C26.6531 29.4861 25.6217 30.8154 24.7566 32.2516C24.5655 32.5707 24.4046 32.5684 24.1038 32.417C19.1642 29.9475 14.2199 27.4874 9.27096 25.0366C8.91191 24.8596 8.8816 24.7152 9.07511 24.3774C10.9646 21.0545 13.3137 18.0146 16.0532 15.3476C16.3144 15.0937 16.4263 15.138 16.6478 15.3803C20.3781 19.482 24.1139 23.5798 27.8552 27.6738C27.9416 27.773 28.0211 27.8781 28.093 27.9883V27.9883Z" fill="#5DBA46"/>
<path d="M66.4426 77.123C66.2537 77.0578 66.2094 76.9017 66.1395 76.7805C63.7894 72.9863 61.4439 69.1898 59.1031 65.3909C58.5365 64.473 57.977 63.5505 57.3941 62.6442C57.2193 62.3717 57.2169 62.2296 57.5037 62.0246C58.8429 61.0454 60.0573 59.9063 61.1198 58.6326C61.4136 58.2831 61.5861 58.3554 61.8752 58.5813C65.1098 61.0321 68.349 63.4806 71.5928 65.9267C72.7586 66.8003 73.9056 67.6809 75.076 68.5406C75.3465 68.7386 75.3931 68.8597 75.167 69.137C72.7439 72.1163 69.9129 74.7396 66.7573 76.9296L66.4426 77.123Z" fill="#FCB613"/>
<path d="M42.9232 12.7408C42.9232 15.4587 42.9271 18.1766 42.9349 20.8945C42.9349 21.3278 42.858 21.5142 42.3777 21.5352C40.7406 21.6182 39.1209 21.9111 37.5585 22.4065C37.2298 22.509 37.1388 22.3832 37.0409 22.1246C35.0296 16.9295 33.0129 11.7367 30.9907 6.54623C30.8672 6.23639 30.9721 6.13855 31.2495 6.04769C34.8402 4.85888 38.5778 4.17059 42.3567 4.00226C42.823 3.97896 42.9396 4.11408 42.9349 4.57768C42.9116 7.30104 42.9232 10.0151 42.9232 12.7408Z" fill="#183668"/>
<path d="M53.1662 82.9518C52.8748 83.0287 52.9098 82.7911 52.8771 82.6187C52.5476 80.9009 52.2204 79.1848 51.8956 77.4701L49.7972 66.402C49.711 65.9617 49.7809 65.7614 50.2635 65.6356C51.8032 65.2213 53.2845 64.6147 54.6724 63.8301C54.9941 63.6507 55.1387 63.7066 55.3159 64.0071C58.21 68.7099 61.1127 73.4088 64.0239 78.1038C64.1801 78.3554 64.2757 78.5045 63.926 78.7049C60.6153 80.6034 57.0536 82.0268 53.3458 82.9332C53.2863 82.9429 53.2264 82.9492 53.1662 82.9518V82.9518Z" fill="#8E1838"/>
<path d="M63.7434 32.8574C63.5453 32.883 63.5103 32.7316 63.4497 32.6244C62.587 31.1427 61.549 29.77 60.3581 28.5359C60.1017 28.2703 60.2579 28.1422 60.4281 27.9558C62.9228 25.241 65.4143 22.5231 67.9028 19.8021C69.1618 18.4299 70.4325 17.0671 71.6751 15.6809C71.9223 15.4037 72.0319 15.448 72.265 15.6809C74.943 18.3545 77.2358 21.3872 79.0776 24.692C79.2828 25.0554 79.1942 25.1719 78.8631 25.335C73.9157 27.7889 68.9706 30.2474 64.0279 32.7106L63.7434 32.8574Z" fill="#279A48"/>
<path d="M83.6921 38.7327C83.776 38.9983 83.5848 39.0752 83.3004 39.1031C80.4451 39.3656 77.5898 39.6312 74.7345 39.8999C72.1209 40.1468 69.5074 40.3775 66.8961 40.657C66.3995 40.7083 66.2736 40.5755 66.1967 40.1119C65.9477 38.5507 65.5085 37.0259 64.8887 35.5714C64.7535 35.2592 64.7791 35.1055 65.1219 34.9494C70.0864 32.4877 75.0462 30.016 80.0013 27.5341C80.2205 27.4246 80.3884 27.2825 80.5516 27.6483C82.1256 31.1733 83.1833 34.9064 83.6921 38.7327V38.7327Z" fill="#C21F33"/>
<path d="M46.1684 4.04428C49.7994 4.244 53.387 4.9304 56.835 6.08505C57.2406 6.22017 57.3013 6.35529 57.1474 6.74201C55.1579 11.8672 53.18 17.0002 51.2138 22.141C51.0879 22.4694 50.9806 22.6069 50.5889 22.4671C49.0658 21.9677 47.4859 21.6617 45.8863 21.5562C45.5436 21.5329 45.42 21.4351 45.42 21.0577C45.4325 15.524 45.4325 9.99031 45.42 4.45663C45.4107 3.67154 45.9633 4.19105 46.1684 4.04428Z" fill="#EA1C2D"/>
<path d="M83.988 44.2051C84.0141 47.2033 83.6822 50.1939 82.9995 53.1136C82.9109 53.5073 82.8199 53.6564 82.3606 53.5236C77.0759 51.9861 71.7874 50.4672 66.4949 48.9669C66.1359 48.8644 66.0286 48.7339 66.1056 48.3612C66.4373 46.8138 66.5829 45.2325 66.5392 43.6506C66.5392 43.2686 66.6371 43.1637 67.0218 43.1288L81.864 41.731C82.4213 41.6774 82.9785 41.6495 83.5334 41.5842C83.8668 41.5423 83.9997 41.6238 83.9997 41.9873C83.9717 42.7164 83.988 43.4619 83.988 44.2051Z" fill="#EE402B"/>
<path d="M34.8087 23.2661C34.846 23.4711 34.6711 23.4781 34.5755 23.5247C33.0364 24.2335 31.5844 25.1177 30.2483 26.1595C29.9639 26.3925 29.8613 26.1828 29.7167 26.0244C27.7661 23.8935 25.8185 21.7635 23.874 19.6342C22.0928 17.6819 20.3232 15.718 18.535 13.7798C18.2692 13.4909 18.2459 13.3581 18.5606 13.1019C21.47 10.718 24.6945 8.74638 28.143 7.2428C28.4764 7.09603 28.586 7.17524 28.7025 7.47576C30.7029 12.6553 32.7088 17.8334 34.7201 23.0098C34.7527 23.1007 34.783 23.1892 34.8087 23.2661Z" fill="#02558A"/>
<path d="M82.1249 56.2282C82.0946 56.3214 82.0573 56.4263 82.0223 56.5311C80.8731 60.0152 79.2482 63.3242 77.1938 66.3645C76.9793 66.6837 76.8534 66.7908 76.4944 66.5136C72.1205 63.19 67.7342 59.8811 63.3355 56.587C62.9881 56.3261 62.9625 56.1584 63.1933 55.7996C64.0282 54.4998 64.7037 53.1044 65.2053 51.6435C65.3336 51.2708 65.4991 51.2335 65.8442 51.3313C71.1413 52.8642 76.4454 54.3902 81.7565 55.9091C81.8941 55.958 82.1832 55.9091 82.1249 56.2282Z" fill="#00ADD8"/>
</g>
<defs>
<clipPath id="clip0">
<rect width="80" height="80" fill="white" transform="translate(4 4)"/>
</clipPath>
</defs>
</svg>
