<svg width="96" height="66" viewBox="0 0 96 66" fill="none" xmlns="http://www.w3.org/2000/svg">
<g filter="url(#filter0_d)">
<path d="M88 4H8V54H88V4Z" fill="black"/>
</g>
<path d="M49.7043 31.4681C49.4486 31.0497 49.2782 30.5476 49.193 30.2966C49.193 30.2966 49.193 30.2966 49.193 30.2129H49.7895C49.8747 30.4639 50.0451 30.715 50.2156 30.8823C50.4712 31.0497 50.7268 31.1334 51.0677 31.1334C51.0677 31.2171 50.9825 31.2171 50.8973 31.3008C50.812 31.3844 50.5564 31.6355 50.2156 31.6355C49.9599 31.6355 49.7895 31.5518 49.7043 31.4681Z" fill="#CECA8A"/>
<path d="M44.9324 31.1334C45.2732 31.1334 45.5289 31.0497 45.7845 30.8823C46.0401 30.715 46.1254 30.4639 46.2106 30.2129H46.7218C46.7218 30.2129 46.7218 30.2129 46.7218 30.2966C46.6366 30.5476 46.5514 31.0497 46.2106 31.4681C46.1254 31.5518 45.9549 31.6355 45.6993 31.6355C45.3584 31.6355 45.0176 31.3844 45.0176 31.3008C45.0176 31.3008 44.9324 31.2171 44.9324 31.1334Z" fill="#CECA8A"/>
<path d="M48.5965 30.2129C48.5965 30.2966 48.5965 30.2966 48.5965 30.3803C48.6817 30.715 48.8521 31.2171 49.193 31.8028C49.193 31.8028 49.193 31.8028 49.193 31.8865C49.1078 31.9702 49.1078 32.0539 49.0226 32.1376C48.7669 32.4723 48.3409 32.8907 47.9148 33.1418C47.4887 32.8907 47.1479 32.556 46.807 32.1376C46.7218 32.0539 46.6366 31.9702 46.6366 31.8865C46.6366 31.8865 46.6366 31.8865 46.6366 31.8028C46.9774 31.3008 47.1479 30.7987 47.2331 30.3803C47.2331 30.2966 47.2331 30.2966 47.2331 30.2129H47.8296H48.5965Z" fill="#CECA8A"/>
<path d="M49.7043 29.6271H47.9148H46.1253C46.0401 29.2924 45.9549 28.7903 45.8697 28.6229C45.5289 27.9534 45.0176 27.6187 44.4211 27.7024C44.0802 27.7861 43.8246 27.9534 43.569 28.2045C43.3985 28.4555 43.3133 28.7066 43.3133 28.9576C43.2281 28.9576 43.1429 28.9576 43.1429 28.9576C42.7168 28.7903 42.2908 28.3719 42.1203 27.7861C42.0351 27.284 42.1203 26.6982 42.4612 26.2798C42.9725 25.9451 43.3985 25.694 43.9098 25.694C44.1654 25.694 44.5915 25.7777 44.8472 25.8614C45.2732 26.0288 45.7845 26.2798 46.0401 26.9493C46.1253 27.1166 46.2106 27.284 46.2958 27.4514C46.381 27.6187 46.4662 27.7861 46.4662 27.9534C46.4662 28.0371 46.5514 28.1208 46.5514 28.2882C46.6366 28.5392 46.6366 28.7903 46.7218 29.0413C46.7218 29.2087 46.8923 29.2924 46.9775 29.2924C47.1479 29.2924 47.2331 29.125 47.2331 28.9576C47.2331 28.7066 47.1479 28.3719 47.0627 28.1208C47.0627 28.0371 46.9775 27.8698 46.9775 27.7861C46.8923 27.6187 46.8071 27.4514 46.7218 27.2003C46.6366 27.0329 46.5514 26.8656 46.4662 26.6982L46.5514 26.5308C46.381 26.1961 46.2958 25.9451 46.2106 25.6103C46.1253 25.443 46.1253 25.3593 46.1253 25.1919C46.1253 25.0246 46.1253 24.9409 46.1253 24.7735C46.1253 24.3551 46.2958 24.0204 46.4662 23.602C46.6366 23.2673 46.8923 23.0162 47.2331 22.7652C47.4888 22.5978 47.8296 22.3467 48.0852 22.0957C48.3409 22.3467 48.6817 22.5978 48.9374 22.7652C49.2782 23.0162 49.5339 23.2673 49.7043 23.602C49.7895 24.0204 49.9599 24.4388 49.9599 24.7735C49.9599 24.9409 49.9599 25.0246 49.9599 25.1919C49.9599 25.3593 49.8747 25.443 49.8747 25.6103C49.7895 25.8614 49.7043 26.1961 49.5339 26.5308L49.4487 26.6982C49.3634 26.8656 49.2782 27.0329 49.193 27.2003C49.1078 27.3677 49.0226 27.6187 48.9374 27.7861C48.8522 27.8698 48.8522 28.0371 48.8522 28.1208C48.767 28.4555 48.6817 28.7066 48.6817 28.9576C48.6817 29.125 48.7669 29.2924 48.9374 29.2924C49.1078 29.2924 49.193 29.2087 49.193 29.0413C49.193 28.7903 49.2782 28.5392 49.3634 28.2882C49.3634 28.2045 49.4487 28.1208 49.4487 27.9534C49.5339 27.7861 49.5339 27.6187 49.6191 27.4514C49.7043 27.284 49.7895 27.1166 49.8747 26.9493C50.1304 26.2798 50.6416 26.0288 51.0677 25.8614C51.4086 25.7777 51.8346 25.694 52.005 25.694C52.5163 25.694 52.9424 25.8614 53.2832 26.2798C53.6241 26.6982 53.7945 27.2003 53.6241 27.7861C53.5389 28.2882 53.1128 28.7903 52.6015 28.9576C52.5163 28.9576 52.4311 28.9576 52.4311 28.9576C52.4311 28.7066 52.3459 28.3719 52.1755 28.2045C52.005 27.9534 51.6642 27.7024 51.3233 27.7024C50.7268 27.6187 50.2156 27.9534 49.8747 28.6229C49.9599 28.8739 49.7895 29.2924 49.7043 29.6271Z" fill="#CECA8A"/>
<path d="M42.4612 35.7359C41.0978 36.6564 39.7344 37.3259 38.4562 36.7401C38.7118 36.5728 38.9675 36.4054 39.2231 36.238L41.2682 34.8154C41.6091 35.1502 42.0351 35.4849 42.4612 35.7359Z" fill="#CECA8A"/>
<path d="M39.8195 33.2256C40.0751 33.644 40.416 34.0624 40.842 34.3971L38.8821 35.736C37.0075 36.9913 35.5588 37.4097 34.3658 36.9913C34.7067 36.8239 35.0475 36.5729 35.3884 36.3218L39.8195 33.2256Z" fill="#CECA8A"/>
<path d="M31.8948 36.3213C32.4061 35.9866 33.0878 35.4008 33.9399 34.8151C35.4737 33.6435 37.9449 31.8025 38.7118 31.4678C38.8822 31.9699 39.1379 32.3883 39.4787 32.8904L34.9625 35.9866C33.0878 37.2418 31.6391 37.6602 30.5314 37.2418C31.0427 36.8234 31.4687 36.5724 31.8948 36.3213Z" fill="#CECA8A"/>
<path d="M38.5414 30.7983C37.7744 31.1331 36.2406 32.2209 33.599 34.313C32.7469 34.9824 31.98 35.4845 31.5539 35.8193C29.6792 37.1582 28.2306 37.4929 26.9524 36.9908C27.208 36.8234 27.4637 36.6561 27.8045 36.4887C28.2306 36.2377 28.9975 35.5682 30.0201 34.7314C31.4687 33.5598 33.2582 32.0536 34.8772 30.882C36.8371 29.4594 37.7744 29.041 38.2005 29.041C38.2005 29.2084 38.2857 29.4594 38.2857 29.6268C38.2857 29.9615 38.3709 30.3799 38.5414 30.7983Z" fill="#CECA8A"/>
<path d="M29.5088 34.2298C28.5715 35.0666 27.8045 35.6524 27.3785 35.9034C25.9299 36.9076 24.396 37.8281 22.8622 37.2423C23.203 37.075 23.4587 36.9076 23.6291 36.7402C24.0552 36.4055 25.0777 35.485 26.4411 34.3134C29.6792 31.3846 35.0476 26.531 37.178 26.1963C37.5188 26.4473 37.6892 26.7821 37.8597 27.0331C38.0301 27.3678 38.0301 27.8699 38.1153 28.372C36.4963 28.6231 33.173 31.3009 29.5088 34.2298Z" fill="#CECA8A"/>
<path d="M23.2883 36.3216C22.5213 36.9074 20.5614 37.9953 18.8572 37.5769C19.0276 37.4932 19.1128 37.4095 19.198 37.3258L19.2832 37.2421C19.7945 36.9074 20.8171 35.9032 22.2657 34.5643C25.6742 31.3007 31.4687 25.9451 33.6842 25.6103C34.8772 25.443 35.8146 25.6103 36.4111 25.7777C33.8547 26.7819 29.168 30.966 26.0151 33.8949C24.7369 35.0664 23.7143 35.9869 23.2883 36.3216Z" fill="#CECA8A"/>
<path d="M54.4762 34.2297C52.772 35.8197 50.386 36.7402 48 36.7402C45.5289 36.7402 43.2281 35.8197 41.5238 34.2297C41.0126 33.8113 40.5865 33.2255 40.1604 32.6397C39.4787 31.6356 39.0527 30.5477 38.797 29.4598C38.797 29.2925 38.7118 28.9577 38.7118 28.623C38.6266 28.0372 38.6266 27.3678 38.371 26.8657C38.2005 26.531 37.9449 26.1126 37.4336 25.6941C37.4336 25.6941 37.4336 25.6941 37.3484 25.6105C36.5815 25.1084 35.4737 24.7736 33.599 25.0247C31.2131 25.3594 25.589 30.6314 21.8396 34.146C20.4762 35.4849 19.3685 36.4891 18.9424 36.8238L18.8572 36.9075C17.4086 37.9117 16.3008 38.6649 14.9374 37.9954C16.8121 35.987 27.8898 23.9368 32.1504 23.0163C36.7519 22.0121 39.6492 24.941 39.7344 24.941L39.8196 25.0247C39.5639 25.7778 39.3935 26.6146 39.3935 27.5351C39.3935 32.1377 43.2281 35.9033 47.9148 35.9033C52.3459 35.9033 55.9248 32.6397 56.3509 28.372L57.203 28.4556C57.203 28.5393 57.203 28.5393 57.203 28.623C57.203 28.9577 57.1178 29.2088 57.1178 29.4598C57.0326 29.9619 56.8622 30.464 56.6918 30.8824C56.4361 31.4682 56.0953 32.1377 55.7544 32.6397C55.4136 33.2255 54.9875 33.7276 54.4762 34.2297Z" fill="#CECA8A"/>
<path d="M57.5438 36.7401C56.1804 37.3259 54.9022 36.6564 53.5388 35.7359C53.9649 35.4849 54.3909 35.1502 54.7318 34.8154L56.7769 36.238C57.0326 36.4054 57.2882 36.5728 57.5438 36.7401Z" fill="#CECA8A"/>
<path d="M60.6115 36.3218C60.9523 36.5729 61.2932 36.7402 61.634 36.9913C60.4411 37.4934 58.9924 37.075 57.1177 35.736L55.1578 34.3971C55.4987 34.0624 55.8395 33.644 56.1804 33.2256L60.6115 36.3218Z" fill="#CECA8A"/>
<path d="M57.2029 31.3848C57.9699 31.7195 60.441 33.6442 62.0601 34.732C62.9122 35.4015 63.6791 35.9873 64.1052 36.2383C64.5313 36.4894 64.9573 36.8241 65.4686 37.0751C64.2756 37.4936 62.827 37.0751 61.0375 35.8199L56.5212 32.7237C56.7769 32.3053 57.0325 31.8032 57.2029 31.3848Z" fill="#CECA8A"/>
<path d="M57.7995 29.5438C57.7995 29.3764 57.8847 29.2091 57.8847 28.958C58.3107 29.0417 59.1629 29.3764 61.208 30.799C62.827 31.9706 64.6165 33.4768 66.0651 34.6484C67.0877 35.4852 67.8546 36.071 68.2807 36.4057C68.5363 36.5731 68.7919 36.7404 69.1328 36.9078C67.9398 37.4099 66.4912 36.9915 64.5313 35.7363C64.1052 35.4015 63.3383 34.8157 62.4862 34.23C59.7594 32.2216 58.3107 31.0501 57.5438 30.7153C57.629 30.3806 57.7143 29.9622 57.7995 29.5438Z" fill="#CECA8A"/>
<path d="M66.4059 34.2298C62.827 31.3009 59.4185 28.6231 57.8846 28.372C57.9699 27.8699 57.9699 27.3678 58.1403 27.0331C58.3107 26.7821 58.4811 26.4473 58.822 26.1963C60.8671 26.531 66.3207 31.3846 69.5588 34.3134C70.837 35.485 71.8596 36.4055 72.3709 36.7402C72.5413 36.9076 72.7969 37.075 73.1378 37.2423C71.6892 37.9118 70.0701 36.9076 68.6215 35.9034C68.1954 35.6524 67.4285 35.0666 66.4059 34.2298Z" fill="#CECA8A"/>
<path d="M62.2306 25.61C64.4461 25.9447 70.2406 31.384 73.6492 34.564C75.0978 35.9865 76.2055 36.9907 76.6316 37.2418L76.7168 37.3255C76.802 37.4091 76.8872 37.4928 76.9725 37.4928C75.2682 37.9112 73.3935 36.8234 72.5414 36.2376C72.1153 35.9029 71.0928 35.066 69.8146 33.8945C66.5765 30.9656 61.8898 26.7815 59.4186 25.7773C60.1855 25.61 61.0376 25.5263 62.2306 25.61Z" fill="#CECA8A"/>
<path d="M56.5213 27.5351C56.5213 26.6983 56.3509 25.8615 56.0952 25.0247C56.1804 25.0247 56.1804 25.0247 56.2656 24.941C56.2656 24.941 59.2481 22.0121 63.8496 23.0163C68.1103 23.9368 79.2732 35.987 81.0626 37.9117C79.6992 38.5812 78.5915 37.828 77.228 36.8238L77.1428 36.7402C76.7168 36.4054 75.609 35.4013 74.1604 34.0623C70.411 30.5477 64.7869 25.2757 62.401 24.941C60.4411 24.8573 59.3333 25.1921 58.5664 25.6941C58.5664 25.6941 58.4812 25.6941 58.4812 25.7778C57.9699 26.1126 57.7143 26.531 57.5438 26.8657C57.3734 27.2841 57.2882 27.9536 57.203 28.4556L56.3509 28.372C56.5213 28.1209 56.5213 27.8699 56.5213 27.5351Z" fill="#CECA8A"/>
<path d="M40.0752 27.5354C40.0752 23.2676 43.6541 19.7529 48 19.7529C52.3459 19.7529 55.9248 23.2676 55.9248 27.5354C55.9248 31.8031 52.4311 35.3178 48 35.3178C43.6541 35.3178 40.0752 31.8031 40.0752 27.5354ZM50.386 29.6274C50.4712 29.3764 50.5564 28.958 50.6416 28.8743C50.812 28.5395 50.9825 28.2048 51.4085 28.2885C51.579 28.2885 51.7494 28.3722 51.8346 28.5395C52.005 28.7069 52.005 28.958 51.9198 29.209C51.9198 29.2927 51.9198 29.3764 51.9198 29.46C51.9198 29.5437 52.005 29.5437 52.0902 29.6274C52.3459 29.6274 52.6015 29.6274 52.8572 29.5437C53.5389 29.2927 54.0501 28.7069 54.2206 27.9538C54.391 27.2843 54.2206 26.5312 53.7945 25.9454C53.3684 25.4433 52.6867 25.1086 52.005 25.1086C51.6642 25.1086 51.1529 25.1923 50.812 25.3596C50.6416 25.4433 50.5564 25.4433 50.386 25.527C50.386 25.4433 50.386 25.3596 50.4712 25.2759C50.4712 25.1086 50.5564 24.9412 50.5564 24.7738C50.5564 24.2718 50.386 23.7697 50.1303 23.3513C49.8747 22.9328 49.6191 22.5981 49.193 22.3471C48.7669 22.0123 48.4261 21.7613 48.2556 21.5103C48.0852 21.6776 47.7444 22.0123 47.3183 22.3471C46.8922 22.5981 46.6366 22.9328 46.381 23.3513C46.1253 23.7697 45.9549 24.3554 45.9549 24.7738C45.9549 24.9412 45.9549 25.1086 45.9549 25.2759C45.9549 25.3596 45.9549 25.4433 46.0401 25.527C45.8697 25.4433 45.7845 25.3596 45.614 25.3596C45.188 25.1923 44.7619 25.1086 44.4211 25.1086C43.7394 25.1086 43.0577 25.4433 42.6316 25.9454C42.2055 26.5312 42.0351 27.2006 42.2055 27.9538C42.3759 28.7069 42.8872 29.2927 43.5689 29.5437C43.8246 29.6274 44.0802 29.6274 44.3358 29.6274C44.4211 29.6274 44.5063 29.5437 44.5063 29.46C44.5915 29.3764 44.5915 29.2927 44.5063 29.209C44.4211 28.958 44.5063 28.7069 44.5915 28.5395C44.6767 28.3722 44.8471 28.2885 45.0176 28.2885C45.4436 28.2048 45.6993 28.5395 45.7845 28.8743C45.8697 29.0416 45.9549 29.3764 46.0401 29.6274H45.7845C45.614 29.6274 45.4436 29.7948 45.4436 29.9621C45.4436 30.1295 45.614 30.2132 45.7845 30.2132H45.5288C45.5288 30.2969 45.4436 30.3805 45.3584 30.3805C45.188 30.4642 44.8471 30.5479 44.5063 30.4642C44.4211 30.4642 44.3358 30.4642 44.2506 30.5479C44.1654 30.6316 44.1654 30.7153 44.1654 30.799C44.1654 31.1337 44.3358 31.4684 44.5915 31.7195C44.7619 31.8868 45.188 32.2215 45.6993 32.2215C45.8697 32.2215 45.9549 32.2215 46.1253 32.1379C46.2105 32.2215 46.2957 32.3889 46.381 32.4726C46.7218 32.9747 47.2331 33.3931 47.7444 33.7278C47.8296 33.7278 47.8296 33.7278 47.9148 33.7278C47.9148 33.7278 47.9148 33.7278 48 33.7278H48.0852C48.5965 33.3931 49.1078 32.9747 49.4486 32.4726C49.5338 32.3889 49.6191 32.2215 49.7043 32.1379C49.7895 32.1379 49.9599 32.2215 50.1303 32.2215C50.7268 32.2215 51.1529 31.8868 51.2381 31.7195C51.4937 31.4684 51.6642 31.1337 51.6642 30.799C51.6642 30.7153 51.6642 30.6316 51.579 30.5479C51.4937 30.4642 51.4085 30.4642 51.3233 30.4642C50.9825 30.5479 50.6416 30.5479 50.4712 30.3805C50.386 30.2969 50.386 30.2969 50.3008 30.2132H50.4712C50.6416 30.2132 50.812 30.0458 50.812 29.9621C50.812 29.7948 50.6416 29.6274 50.4712 29.6274H50.386Z" fill="#758487"/>
<path d="M44.9323 31.1335C44.9323 31.2171 45.0175 31.2171 45.1027 31.3008C45.1879 31.3845 45.4436 31.6356 45.7844 31.6356C46.0401 31.6356 46.2105 31.5519 46.2957 31.4682C46.5513 31.0498 46.7218 30.5477 46.807 30.2966C46.807 30.2966 46.807 30.2966 46.807 30.213H46.2957C46.2105 30.464 46.0401 30.715 45.8696 30.8824C45.5288 31.0498 45.2731 31.1335 44.9323 31.1335ZM49.1929 30.2966C49.2782 30.5477 49.3634 31.0498 49.7042 31.4682C49.7894 31.5519 49.9599 31.6356 50.2155 31.6356C50.5564 31.6356 50.8972 31.3845 50.8972 31.3008C50.9824 31.2171 50.9824 31.2171 51.0676 31.1335C50.7268 31.1335 50.4711 31.0498 50.2155 30.8824C49.9599 30.715 49.8746 30.464 49.7894 30.213L49.1929 30.2966ZM48.1704 21.51C48.3408 21.6774 48.6817 22.0121 49.1077 22.3468C49.5338 22.5979 49.7894 23.0163 50.0451 23.351C50.3007 23.7694 50.4711 24.3552 50.4711 24.7736C50.4711 24.941 50.4711 25.1084 50.3859 25.2757C50.3859 25.3594 50.3859 25.4431 50.3007 25.5268C50.4711 25.4431 50.5564 25.3594 50.7268 25.3594C51.1528 25.192 51.5789 25.1084 51.9198 25.1084C52.6015 25.1084 53.2832 25.4431 53.7092 25.9452C54.1353 26.5309 54.3057 27.2004 54.1353 27.9535C53.9649 28.7067 53.4536 29.2925 52.7719 29.5435C52.5163 29.6272 52.2606 29.6272 52.005 29.6272C51.9198 29.6272 51.8345 29.5435 51.8345 29.4598C51.7493 29.3761 51.7493 29.2925 51.8345 29.2088C51.9198 28.9577 51.8345 28.7067 51.7493 28.5393C51.6641 28.372 51.4937 28.2883 51.3233 28.2883C50.8972 28.2046 50.6416 28.5393 50.5564 28.874C50.4711 29.0414 50.3859 29.3761 50.3007 29.6272H50.5564C50.7268 29.6272 50.8972 29.7945 50.8972 29.9619C50.8972 30.1293 50.7268 30.213 50.5564 30.213H50.3859C50.3859 30.2966 50.4711 30.3803 50.5564 30.3803C50.7268 30.464 51.0676 30.5477 51.4085 30.464C51.4937 30.464 51.5789 30.464 51.6641 30.5477C51.7493 30.6314 51.7493 30.715 51.7493 30.7987C51.7493 31.1335 51.5789 31.4682 51.3233 31.7192C51.1528 31.8866 50.7268 32.2213 50.2155 32.2213C50.0451 32.2213 49.8746 32.2213 49.7894 32.1376C49.7042 32.2213 49.619 32.3887 49.5338 32.4724C49.1929 32.9745 48.6817 33.3929 48.1704 33.7276H48.0852C48.0852 33.7276 48.0852 33.7276 48 33.7276C47.9147 33.7276 47.9147 33.7276 47.8295 33.7276C47.3183 33.3929 46.807 32.9745 46.4661 32.4724C46.3809 32.3887 46.2957 32.2213 46.2105 32.1376C46.1253 32.1376 45.9548 32.2213 45.7844 32.2213C45.1879 32.2213 44.7619 31.8866 44.6767 31.7192C44.421 31.4682 44.2506 31.1335 44.2506 30.7987C44.2506 30.715 44.2506 30.6314 44.3358 30.5477C44.421 30.464 44.5062 30.464 44.5914 30.464C44.9323 30.5477 45.2731 30.5477 45.4436 30.3803C45.5288 30.2966 45.5288 30.2966 45.614 30.213H45.4436C45.2731 30.213 45.1027 30.0456 45.1027 29.9619C45.1027 29.7945 45.2731 29.6272 45.4436 29.6272H45.6992C45.614 29.3761 45.5288 28.9577 45.4436 28.874C45.2731 28.5393 45.0175 28.2046 44.6767 28.2883C44.5062 28.2883 44.3358 28.372 44.2506 28.5393C44.0802 28.7067 44.0802 28.9577 44.1654 29.2088C44.1654 29.2925 44.1654 29.3761 44.1654 29.4598C44.0802 29.5435 43.9949 29.5435 43.9949 29.6272C43.7393 29.6272 43.4837 29.6272 43.228 29.5435C42.5463 29.2925 42.0351 28.7067 41.8646 27.9535C41.6942 27.2841 41.8646 26.5309 42.2907 25.9452C42.7168 25.4431 43.3985 25.1084 44.0802 25.1084C44.421 25.1084 44.8471 25.192 45.2731 25.3594C45.4436 25.4431 45.5288 25.4431 45.6992 25.5268C45.6992 25.4431 45.6992 25.3594 45.614 25.2757C45.614 25.1084 45.614 24.941 45.614 24.7736C45.614 24.2715 45.7844 23.7694 46.0401 23.351C46.0401 22.9326 46.3809 22.5979 46.807 22.3468C47.233 22.0121 47.5739 21.7611 47.7443 21.51C48.0852 21.4263 48.1704 21.4263 48.1704 21.51C48.1704 21.4263 48.1704 21.51 48.1704 21.51ZM48.5965 30.3803C48.5965 30.2966 48.5965 30.2966 48.5965 30.213H48H47.4035C47.4035 30.2966 47.4035 30.2966 47.4035 30.3803C47.3183 30.715 47.1478 31.2171 46.807 31.8029C46.807 31.8029 46.807 31.8029 46.807 31.8866C46.8922 31.9703 46.8922 32.054 46.9774 32.1376C47.233 32.4724 47.6591 32.8908 48.0852 33.1418C48.5112 32.8908 48.9373 32.5561 49.1929 32.1376C49.2782 32.054 49.3634 31.9703 49.3634 31.8866C49.3634 31.8866 49.3634 31.8866 49.3634 31.8029C48.8521 31.3008 48.6817 30.7987 48.5965 30.3803ZM48 29.6272H49.7894C49.8746 29.2925 49.9599 28.7904 50.0451 28.623C50.3859 27.9535 50.8972 27.6188 51.4937 27.7025C51.8345 27.7862 52.1754 27.9535 52.3458 28.2046C52.5163 28.4556 52.6015 28.7067 52.6015 28.9577C52.6867 28.9577 52.7719 28.9577 52.7719 28.9577C53.2832 28.7904 53.624 28.372 53.7944 27.7862C53.8797 27.2841 53.7944 26.6983 53.4536 26.2799C53.0275 25.9452 52.5163 25.6941 52.005 25.6941C51.7493 25.6941 51.3233 25.7778 51.0676 25.8615C50.6416 26.0289 50.1303 26.2799 49.8746 26.9494C49.7894 27.1167 49.7042 27.2841 49.619 27.4515C49.5338 27.6188 49.4486 27.7862 49.4486 27.9535C49.4486 28.0372 49.3634 28.1209 49.3634 28.2883C49.2782 28.5393 49.2782 28.7904 49.1929 29.0414C49.1929 29.2088 49.0225 29.2925 48.9373 29.2925C48.7669 29.2925 48.6817 29.1251 48.6817 28.9577C48.6817 28.7067 48.7669 28.372 48.8521 28.1209C48.8521 28.0372 48.9373 27.8699 48.9373 27.7862C49.0225 27.6188 49.1077 27.4514 49.1929 27.2004C49.2782 27.033 49.3634 26.8657 49.4486 26.6983V26.5309C49.619 26.1962 49.7042 25.9452 49.7894 25.6104C49.8746 25.4431 49.8746 25.3594 49.8746 25.192C49.8746 25.0247 49.8746 24.941 49.8746 24.7736C49.8746 24.3552 49.7894 24.0205 49.5338 23.6021C49.3634 23.2673 49.1077 23.0163 48.7669 22.7653C48.5112 22.5979 48.1704 22.3468 47.9147 22.0958C47.6591 22.3468 47.3183 22.5979 47.0626 22.7653C46.7218 23.0163 46.4661 23.2673 46.2957 23.6021C46.0401 23.9368 45.9548 24.3552 45.9548 24.7736C45.9548 24.941 45.9548 25.0247 45.9548 25.192C45.9548 25.3594 46.0401 25.4431 46.0401 25.6104C46.2957 25.9452 46.3809 26.1962 46.5513 26.5309L46.6366 26.6983C46.7218 26.8657 46.807 27.033 46.8922 27.2004C46.9774 27.3678 47.0626 27.6188 47.1478 27.7862C47.1478 27.8699 47.233 28.0372 47.233 28.1209C47.3183 28.4556 47.4035 28.7067 47.4035 28.9577C47.4035 29.1251 47.3183 29.2925 47.1478 29.2925C46.9774 29.2925 46.8922 29.2088 46.8922 29.0414C46.8922 28.7904 46.807 28.5393 46.7218 28.2883C46.7218 28.2046 46.6366 28.1209 46.6366 27.9535C46.5513 27.7862 46.4661 27.6188 46.4661 27.4515C46.3809 27.2841 46.2957 27.1167 46.2105 26.9494C45.9548 26.2799 45.4436 26.0289 45.0175 25.8615C44.5914 25.7778 44.1654 25.6941 43.9097 25.6941C43.3985 25.6941 42.9724 25.8615 42.6315 26.2799C42.2907 26.6983 42.2055 27.2004 42.2907 27.7862C42.3759 28.2883 42.802 28.7904 43.3132 28.9577C43.3985 28.9577 43.4837 28.9577 43.4837 28.9577C43.4837 28.7067 43.5689 28.372 43.7393 28.2046C43.9097 27.9535 44.2506 27.7025 44.5914 27.7025C45.1879 27.6188 45.6992 27.9535 46.0401 28.623C46.1253 28.7904 46.2957 29.2925 46.2957 29.6272H48Z" fill="black"/>
<path d="M57.8847 28.372C59.4185 28.6231 62.8271 31.2172 66.406 34.2298C67.4286 35.0666 68.1955 35.6523 68.5363 35.9034C69.985 36.9076 71.5188 37.8281 73.0526 37.2423C72.7118 37.0749 72.4561 36.9076 72.2857 36.7402C71.8596 36.4055 70.8371 35.485 69.4737 34.3134C66.2356 31.4682 60.8672 26.6147 58.822 26.28C58.4812 26.531 58.3108 26.8657 58.1403 27.1168C58.0551 27.4515 57.9699 27.9536 57.8847 28.372ZM73.6491 34.5645C70.2406 31.3846 64.4461 25.9452 62.2306 25.6105C61.0376 25.4431 60.1002 25.6105 59.5037 25.7779C62.0601 26.7821 66.6616 30.9662 69.8997 33.895C71.1779 35.0666 72.2005 35.9871 72.6266 36.2381C73.3935 36.8239 75.3534 37.9118 77.0576 37.4934C76.9724 37.4097 76.8872 37.326 76.802 37.326L76.7168 37.2423C76.2055 36.9913 75.0977 35.9871 73.6491 34.5645ZM62.0601 34.7318C60.5263 33.5603 58.0551 31.7193 57.203 31.3846C57.0326 31.8867 56.7769 32.3051 56.4361 32.8072L60.9524 35.9034C62.8271 37.1586 64.1905 37.577 65.3834 37.1586C64.8722 36.9076 64.4461 36.5729 64.02 36.3218C63.6792 35.9871 62.9123 35.4013 62.0601 34.7318ZM57.8847 29.0415C57.8847 29.2088 57.8847 29.4599 57.7995 29.6272C57.7143 30.0457 57.6291 30.4641 57.4586 30.8825C58.2256 31.2172 59.7594 32.3051 62.401 34.3971C63.2531 35.0666 64.02 35.5687 64.4461 35.9034C66.3208 37.2423 67.8546 37.577 69.0476 37.0749C68.792 36.9076 68.5363 36.7402 68.1955 36.5728C67.7694 36.3218 67.0025 35.6523 65.9799 34.8155C64.5313 33.644 62.7418 32.1377 61.1228 30.9662C59.1629 29.4599 58.3108 29.0415 57.8847 29.0415ZM60.6115 36.3218L56.1804 33.2256C55.8396 33.644 55.4987 34.0624 55.1579 34.3971L57.1178 35.736C58.9925 36.9913 60.4411 37.4097 61.6341 36.9913C61.2932 36.8239 60.9524 36.5729 60.6115 36.3218ZM54.7318 34.8155C54.391 35.1503 53.9649 35.485 53.5388 35.736C54.9022 36.6565 56.1804 37.326 57.5438 36.7402C57.2882 36.5729 57.0326 36.4055 56.7769 36.2381L54.7318 34.8155ZM38.4561 36.7402C39.8195 37.326 41.1829 36.6565 42.4611 35.736C42.0351 35.485 41.609 35.1503 41.2682 34.8155L39.223 36.2381C38.9674 36.4055 38.7118 36.5729 38.4561 36.7402ZM34.3659 36.9913C35.5589 37.4934 37.0075 37.0749 38.8822 35.736L40.8421 34.3971C40.416 34.0624 40.1604 33.644 39.8195 33.2256L35.3032 36.3218C35.0476 36.5729 34.7068 36.8239 34.3659 36.9913ZM38.7118 31.3846C37.9449 31.7193 35.4737 33.644 33.9398 34.7318C33.0877 35.4013 32.3208 35.9871 31.8947 36.2381C31.4687 36.4892 31.0426 36.8239 30.5313 37.0749C31.7243 37.4934 33.1729 37.0749 34.9624 35.8197L39.4787 32.7235C39.223 32.3051 38.9674 31.803 38.7118 31.3846ZM27.3784 35.9871C27.8045 35.736 28.5714 35.0666 29.5088 34.3134C33.0877 31.3846 36.4962 28.7067 38.0301 28.4557C38.0301 27.9536 37.9449 27.4515 37.7744 27.1168C37.6892 26.8657 37.4336 26.531 37.0927 26.28C35.0476 26.6147 29.594 31.4682 26.3559 34.3971C25.0777 35.5687 24.0551 36.4892 23.5438 36.8239C23.3734 36.9913 23.1178 37.1586 22.7769 37.326C24.396 37.9118 26.015 36.9076 27.3784 35.9871ZM29.9348 34.7318C28.9123 35.5687 28.1454 36.1544 27.7193 36.4892C27.4636 36.6565 27.208 36.8239 26.8672 36.9913C28.0601 37.4934 29.5088 37.0749 31.4687 35.8197C31.9799 35.485 32.6616 34.8992 33.5138 34.3134C36.1554 32.3051 37.6892 31.1335 38.4561 30.7988C38.2857 30.3804 38.2005 29.962 38.1153 29.5436C38.1153 29.3762 38.0301 29.2088 38.0301 28.9578C37.604 29.0415 36.7519 29.3762 34.7068 30.7988C33.1729 32.054 31.3834 33.5603 29.9348 34.7318ZM18.9423 37.577C20.6466 37.9954 22.5213 36.9076 23.3734 36.3218C23.7995 35.9871 24.822 35.1503 26.1002 33.9787C29.3383 31.0498 33.9398 26.8657 36.4962 25.8616C35.8997 25.6105 34.9624 25.5268 33.7694 25.6942C31.6391 25.9452 25.8446 31.3846 22.3509 34.6482C20.9022 36.0708 19.7945 37.0749 19.3684 37.326L19.2832 37.4097C19.1128 37.4097 19.0276 37.4934 18.9423 37.577ZM48 35.3176C52.3459 35.3176 55.9248 31.803 55.9248 27.5352C55.9248 23.2674 52.3459 19.8364 48 19.8364C43.6541 19.8364 40.0752 23.3511 40.0752 27.6189C40.0752 31.803 43.6541 35.3176 48 35.3176ZM48 36.8239C50.4712 36.8239 52.7719 35.9034 54.4762 34.3134C54.9875 33.895 55.4135 33.3093 55.8396 32.7235C56.1804 32.1377 56.5213 31.5519 56.7769 30.9662C56.9474 30.5477 57.1178 30.0457 57.203 29.5436C57.203 29.3762 57.2882 29.0415 57.2882 28.7067C57.2882 28.6231 57.2882 28.6231 57.2882 28.5394C57.2882 27.9536 57.3734 27.3678 57.6291 26.9494C57.7995 26.531 58.0551 26.1126 58.4812 25.6942C58.4812 25.6942 58.4812 25.6942 58.5664 25.6105C59.2481 25.1084 60.4411 24.7737 62.3158 25.0247C64.7017 25.3595 70.3258 30.6314 74.0752 34.1461C75.4386 35.485 76.5464 36.4892 77.0576 36.8239L77.1428 36.9076C78.5915 37.9118 79.6992 38.6649 80.9774 37.9954C79.188 35.9871 68.1103 23.9369 63.7644 23.0164C59.1629 22.0122 56.2657 24.9411 56.1804 24.9411C56.1804 24.9411 56.0952 25.0247 56.01 25.0247C56.2657 25.7779 56.4361 26.6147 56.4361 27.5352C56.4361 27.7862 56.4361 28.121 56.4361 28.372C56.01 32.5561 52.3459 35.9034 48 35.9034C43.3133 35.9034 39.4787 32.1377 39.4787 27.5352C39.4787 26.6984 39.6491 25.8616 39.9048 25.0247C39.9048 25.0247 39.8195 25.0247 39.8195 24.9411C39.8195 24.9411 36.8371 22.0122 32.2356 23.0164C27.8897 23.9369 16.812 35.9871 15.0225 37.9118C16.386 38.5812 17.4937 37.8281 18.9423 36.8239L19.0276 36.7402C19.4536 36.4055 20.5614 35.4013 21.9248 34.0624C25.6742 30.5477 31.2982 25.2758 33.6842 24.9411C35.5589 24.8574 36.6667 25.1921 37.4336 25.6942C37.4336 25.6942 37.4336 25.6942 37.5188 25.7779C38.0301 26.1126 38.2857 26.531 38.4561 26.8657C38.6266 27.3678 38.7118 28.0373 38.797 28.6231C38.797 28.9578 38.8822 29.2088 38.8822 29.4599C39.1378 30.6314 39.5639 31.7193 40.2456 32.6398C40.6717 33.2256 41.0977 33.7277 41.609 34.2298C43.2281 35.8197 45.5288 36.8239 48 36.8239ZM52.9423 36.0708C51.4937 36.9076 49.7895 37.4097 48 37.4097C46.2105 37.4097 44.5063 36.9913 43.0576 36.1544C41.9499 36.9076 40.7569 37.6607 39.4787 37.6607C38.9674 37.6607 38.3709 37.4934 37.8596 37.1586C37.0927 37.577 36.2406 37.8281 35.3885 37.8281C34.792 37.8281 34.2807 37.6607 33.6842 37.4097C33.0025 37.7444 32.3208 37.9118 31.5539 37.9118C30.9574 37.9118 30.4461 37.7444 29.8496 37.4934C29.2531 37.7444 28.6566 37.9118 28.0601 37.9118C27.4636 37.9118 26.8672 37.7444 26.3559 37.4934C25.589 37.9118 24.7368 38.2465 23.8847 38.2465C23.3734 38.2465 22.7769 38.0791 22.2657 37.7444C21.4987 38.0791 20.6466 38.4139 19.7093 38.4139C19.198 38.4139 18.7719 38.3302 18.2606 38.1628C17.4937 38.6649 16.7268 38.9996 15.9599 38.9996C15.4486 38.9996 14.8521 38.8323 14.2556 38.4975C14.1704 38.4139 14.1704 38.4139 14.0852 38.3302C14.0852 38.2465 14.0852 38.1628 14.1704 38.0791C14.8521 37.2423 27.208 23.4348 32.0652 22.4306C36.5814 21.5101 39.5639 23.9369 40.0752 24.439C41.3534 21.3427 44.421 19.167 48 19.167C51.5789 19.167 54.6466 21.3427 55.9248 24.439C56.5213 23.9369 59.4185 21.4264 63.9348 22.4306C68.792 23.4348 81.1479 37.2423 81.6591 37.8281C81.7443 37.9118 81.7443 37.9954 81.7443 38.0791C81.7443 38.1628 81.6591 38.2465 81.5739 38.2465C80.9774 38.5812 80.4662 38.7486 79.8697 38.7486C79.1027 38.7486 78.3358 38.4139 77.5689 37.9118C77.1428 38.0791 76.6316 38.1628 76.1203 38.1628C75.1829 38.1628 74.3308 37.9118 73.5639 37.4934C73.0526 37.8281 72.4561 37.9954 71.9449 37.9954C71.0927 37.9954 70.3258 37.6607 69.4737 37.2423C68.8772 37.577 68.3659 37.6607 67.7694 37.6607C67.1729 37.6607 66.5764 37.4934 65.9799 37.2423C65.3834 37.577 64.8722 37.6607 64.2757 37.6607C63.5088 37.6607 62.8271 37.4097 62.1454 37.1586C61.5489 37.4934 61.0376 37.577 60.4411 37.577C59.589 37.577 58.7368 37.2423 57.9699 36.9076C57.3734 37.2423 56.8621 37.4097 56.3509 37.4097C55.3283 37.577 54.1353 36.9076 52.9423 36.0708Z" fill="black"/>
<defs>
<filter id="filter0_d" x="0" y="0" width="96" height="66" filterUnits="userSpaceOnUse" color-interpolation-filters="sRGB">
<feFlood flood-opacity="0" result="BackgroundImageFix"/>
<feColorMatrix in="SourceAlpha" type="matrix" values="0 0 0 0 0 0 0 0 0 0 0 0 0 0 0 0 0 0 127 0"/>
<feOffset dy="4"/>
<feGaussianBlur stdDeviation="4"/>
<feColorMatrix type="matrix" values="0 0 0 0 0 0 0 0 0 0 0 0 0 0 0 0 0 0 0.05 0"/>
<feBlend mode="normal" in2="BackgroundImageFix" result="effect1_dropShadow"/>
<feBlend mode="normal" in="SourceGraphic" in2="effect1_dropShadow" result="shape"/>
</filter>
</defs>
</svg>
