<svg width="88" height="88" viewBox="0 0 88 88" fill="none" xmlns="http://www.w3.org/2000/svg">
<g clip-path="url(#clip0)">
<g opacity="0.6">
<path d="M44.0414 3.15431C52.1195 3.15431 60.0163 5.54835 66.733 10.0337C73.4497 14.519 78.6848 20.8942 81.7762 28.3531C84.8675 35.8119 85.6764 44.0194 84.1004 51.9377C82.5245 59.856 78.6344 67.1294 72.9223 72.8381C67.2102 78.5469 59.9325 82.4346 52.0096 84.0096C44.0867 85.5847 35.8744 84.7763 28.4111 81.6868C20.9479 78.5972 14.5689 73.3652 10.081 66.6524C5.59299 59.9396 3.19754 52.0475 3.19754 43.9741C3.21123 33.1522 7.51881 22.7775 15.1755 15.1253C22.8323 7.47303 33.2131 3.16799 44.0414 3.15431ZM44.0414 0.0517099C35.335 0.0435304 26.822 2.61692 19.5796 7.44617C12.3373 12.2754 6.69133 19.1434 3.35625 27.181C0.0211676 35.2185 -0.853062 44.0642 0.844208 52.5984C2.54148 61.1327 6.73395 68.9719 12.891 75.1239C19.048 81.2759 26.8928 85.464 35.4325 87.1583C43.9722 88.8526 52.8229 87.9768 60.8644 84.6418C68.9058 81.3067 75.7766 75.6624 80.6069 68.4232C85.4373 61.184 88.0102 52.6754 88 43.9741C88 32.3186 83.37 21.1399 75.1273 12.8943C66.8847 4.64878 55.7037 0.0109647 44.0414 0V0.0517099Z" fill="#7FBC42"/>
<path d="M74.1433 35.597C73.0471 34.2303 71.6581 33.1268 70.0784 32.3679C68.4988 31.609 66.769 31.214 65.0163 31.212C62.8873 31.3037 60.7886 31.7511 58.8075 32.5358C58.0754 32.8224 57.3602 33.1504 56.6654 33.5183C56.7689 33.0839 56.862 32.6599 56.9345 32.2359C57.6207 28.6063 56.9151 24.8515 54.958 21.7181C53.6979 19.6261 52.0383 17.8023 50.0737 16.3506C48.3024 15.0705 46.6378 13.649 45.0963 12.1L45.0238 12.0483L44.8893 11.9346L44.7651 11.8725L44.5375 11.7484H44.4133H44.2477H43.8131C43.758 11.7435 43.7026 11.7435 43.6475 11.7484C43.6029 11.7426 43.5577 11.7426 43.513 11.7484H43.3578L43.2233 11.8105L43.0888 11.8932L42.9542 11.9863L42.8818 12.0483C41.3396 13.6037 39.6713 15.0288 37.894 16.3092C35.897 17.7664 34.2087 19.6048 32.927 21.7181C30.974 24.8417 30.265 28.5839 30.9401 32.2049C31.0126 32.6289 31.1057 33.0529 31.2092 33.4873C30.5144 33.1194 29.7992 32.7913 29.0671 32.5048C27.086 31.7201 24.9873 31.2727 22.8583 31.181C21.1069 31.1815 19.378 31.576 17.7999 32.335C16.2217 33.0941 14.8347 34.1984 13.7416 35.566C12.5733 37.0027 11.745 38.6847 11.3185 40.4863C10.892 42.2879 10.8785 44.1625 11.2788 45.9701C11.6745 47.8543 12.5487 49.6052 13.8173 51.0542C15.0859 52.5031 16.7062 53.6015 18.5224 54.2436C19.83 54.6681 21.2167 54.7918 22.5789 54.6056C22.7997 54.5722 23.0113 54.4934 23.2001 54.3742C23.3889 54.2549 23.5509 54.0978 23.6758 53.9127C23.7982 53.7273 23.88 53.5181 23.9157 53.2988C23.9514 53.0796 23.9401 52.8552 23.8827 52.6406C23.7134 52.0502 23.6682 51.4311 23.7502 50.8223C23.8321 50.2136 24.0393 49.6284 24.3587 49.1037C24.5867 48.7478 24.8904 48.4466 25.2481 48.2213C25.6058 47.9961 26.0088 47.8525 26.4284 47.8006C28.498 47.48 29.8018 49.3519 30.4952 50.9549C30.9752 52.2742 31.3625 53.6254 31.6541 54.9986H30.4434C30.2254 54.9809 30.0062 55.0086 29.7994 55.0799C29.5927 55.1511 29.4029 55.2644 29.2422 55.4126C29.0814 55.5608 28.9531 55.7406 28.8653 55.9408C28.7776 56.141 28.7323 56.3572 28.7323 56.5758C28.7323 56.7943 28.7776 57.0105 28.8653 57.2107C28.9531 57.4109 29.0814 57.5908 29.2422 57.7389C29.4029 57.8871 29.5927 58.0004 29.7994 58.0717C30.0062 58.1429 30.2254 58.1706 30.4434 58.1529H31.4161C31.2218 58.5208 30.9457 58.8392 30.609 59.0837C29.9316 59.4436 29.1895 59.6654 28.4257 59.7365C27.6618 59.8075 26.8915 59.7262 26.1593 59.4974C25.9175 59.441 25.6658 59.4426 25.4247 59.502C25.1836 59.5615 24.9601 59.6772 24.7723 59.8396C24.5846 60.002 24.438 60.2066 24.3445 60.4365C24.251 60.6664 24.2134 60.9152 24.2346 61.1624C24.4058 63.0246 25.2392 64.7638 26.5836 66.0645C27.6293 67.0993 28.9246 67.8467 30.3441 68.2345C31.7636 68.6222 33.2592 68.6371 34.6861 68.2777C35.0173 68.8569 35.3794 69.4464 35.8037 70.0462C37.7337 72.6523 40.156 74.8553 42.9335 76.5306L43.0784 76.634C43.3344 76.789 43.6277 76.8712 43.9269 76.8719C43.9384 76.8767 43.9507 76.8792 43.9632 76.8792C43.9756 76.8792 43.9879 76.8767 43.9994 76.8719C44.0784 76.8821 44.1584 76.8821 44.2374 76.8719C44.4163 76.841 44.5881 76.778 44.7444 76.6858L44.8169 76.6237C47.6173 74.9774 50.0621 72.7907 52.0088 70.191C52.4119 69.6249 52.785 69.0381 53.1264 68.4328C54.5533 68.7922 56.0489 68.7773 57.4684 68.3896C58.8879 68.0019 60.1832 67.2544 61.2289 66.2197C62.5733 64.919 63.4067 63.1798 63.5779 61.3176C63.5991 61.0703 63.5615 60.8215 63.468 60.5916C63.3745 60.3617 63.2279 60.1572 63.0402 59.9948C62.8524 59.8323 62.6289 59.7167 62.3878 59.6572C62.1467 59.5977 61.895 59.5961 61.6532 59.6525C60.9229 59.8822 60.1541 59.9639 59.3918 59.8929C58.6295 59.8219 57.8891 59.5995 57.2139 59.2388C56.8713 58.9978 56.5911 58.6788 56.3964 58.308H57.4312C57.8276 58.2759 58.1975 58.0959 58.4672 57.8036C58.7368 57.5114 58.8865 57.1284 58.8865 56.7309C58.8865 56.3334 58.7368 55.9504 58.4672 55.6582C58.1975 55.3659 57.8276 55.1858 57.4312 55.1537H56.2618C56.5432 53.7791 56.9271 52.4274 57.4105 51.11C58.1038 49.507 59.387 47.6558 61.4773 47.9557C61.896 48.0103 62.298 48.1551 62.6553 48.3801C63.0126 48.6051 63.3168 48.9049 63.5469 49.2588C63.8623 49.7852 64.0663 50.3707 64.1464 50.9791C64.2265 51.5874 64.181 52.2057 64.0126 52.7958C63.9547 53.0111 63.9433 53.2363 63.9792 53.4564C64.0151 53.6765 64.0974 53.8865 64.2208 54.0723C64.3441 54.2582 64.5056 54.4157 64.6945 54.5344C64.8834 54.6531 65.0954 54.7302 65.3164 54.7607C66.6872 54.9104 68.074 54.7478 69.3729 54.285C71.189 53.6429 72.8094 52.5445 74.078 51.0955C75.3466 49.6465 76.2208 47.8957 76.6165 46.0114C77.0148 44.2014 76.9992 42.3249 76.571 40.5217C76.1428 38.7185 75.3129 37.0352 74.1433 35.597ZM28.767 63.8203C28.4894 63.5514 28.2461 63.2492 28.0427 62.9206C29.5984 62.9958 31.137 62.5679 32.4302 61.7002C33.5992 60.8478 34.4221 59.6033 34.7482 58.1943H37.5111C37.5111 58.277 37.5111 58.3494 37.5111 58.4321C37.0577 60.6329 36.2131 62.7346 35.0173 64.6373C34.6853 64.9371 34.2924 65.1616 33.8655 65.2955C33.4387 65.4294 32.9879 65.4694 32.5441 65.413C31.1317 65.3655 29.7866 64.7983 28.767 63.8203ZM49.5253 68.257C47.9934 70.3028 46.1037 72.0547 43.9476 73.428C41.7752 72.0607 39.8709 70.3083 38.3286 68.257C37.9739 67.7798 37.6523 67.2787 37.3663 66.7575C37.3663 66.6644 37.4698 66.5713 37.5318 66.4782L37.5836 66.3851C38.9769 64.1634 39.965 61.7123 40.5017 59.1457C40.5535 58.8562 40.6052 58.5666 40.6466 58.277H47.1142C47.1142 58.5562 47.1969 58.8458 47.259 59.1457C47.7958 61.7123 48.7838 64.1634 50.1772 66.3851C50.1904 66.4182 50.2078 66.4495 50.2289 66.4782V66.5299L50.3945 66.7988C50.1369 67.3033 49.8465 67.7904 49.5253 68.257ZM55.4547 61.7312C56.7609 62.5703 58.2902 62.9957 59.8423 62.9516C59.6389 63.2802 59.3956 63.5824 59.1179 63.8513C58.1104 64.8238 56.7816 65.394 55.3823 65.4544C54.9384 65.5108 54.4877 65.4707 54.0608 65.3369C53.6339 65.203 53.241 64.9785 52.9091 64.6787C51.7133 62.776 50.8686 60.6743 50.4152 58.4735C50.4152 58.3908 50.4152 58.3184 50.4152 58.2356H53.1781C53.5001 59.6245 54.3074 60.853 55.4547 61.7002V61.7312ZM73.5121 45.3288C73.2342 46.6715 72.6207 47.922 71.7286 48.9637C70.8365 50.0053 69.695 50.8042 68.4105 51.2858C68.0738 51.3975 67.7273 51.4771 67.3757 51.5237C67.4081 50.0604 67.0047 48.6206 66.2167 47.3869C65.7406 46.6593 65.1135 46.0426 64.3778 45.5787C63.6422 45.1147 62.8153 44.8144 61.9533 44.698C58.8489 44.2533 56.1273 46.0838 54.5441 49.7242C53.9077 51.4445 53.4195 53.2159 53.085 55.0193H34.8413C34.4955 53.2175 34.0041 51.4466 33.3719 49.7242C31.7887 46.0838 29.0982 44.2533 25.9627 44.698C25.1007 44.8144 24.2738 45.1147 23.5381 45.5787C22.8025 46.0426 22.1754 46.6593 21.6993 47.3869C20.9113 48.6206 20.5079 50.0604 20.5403 51.5237C20.1887 51.4771 19.8422 51.3975 19.5055 51.2858C18.221 50.8042 17.0795 50.0053 16.1874 48.9637C15.2953 47.922 14.6817 46.6715 14.4039 45.3288C14.1074 43.9815 14.118 42.5847 14.4351 41.2419C14.7521 39.8992 15.3675 38.6451 16.2355 37.5724C17.0285 36.5659 18.0412 35.7538 19.1962 35.1982C20.3511 34.6426 21.6179 34.358 22.8997 34.3663C24.6205 34.4615 26.3149 34.8316 27.9185 35.4626C29.2937 35.8969 30.5596 36.6212 31.6307 37.5864C32.7018 38.5516 33.5532 39.7353 34.1273 41.0576C34.4999 41.8953 34.8931 42.7537 35.2553 43.6224C35.6899 44.6566 36.0521 45.5874 36.3522 46.4665C36.5281 46.9939 36.704 47.5007 36.8489 48.0695C37.2243 49.3733 37.4738 50.7101 37.5939 52.0615C37.63 52.4538 37.8112 52.8185 38.1021 53.0844C38.393 53.3502 38.7727 53.4981 39.1668 53.499H39.3014C39.718 53.4622 40.1032 53.262 40.3727 52.9423C40.6422 52.6226 40.7742 52.2092 40.7397 51.7926C40.6 50.2492 40.3159 48.7222 39.8912 47.2318C39.7256 46.6319 39.5394 46.0424 39.3324 45.4529C39.0116 44.5118 38.6287 43.5087 38.1631 42.4124C37.8009 41.5437 37.418 40.706 37.0455 39.8683V39.7855C37.0455 39.7235 37.0455 39.6614 36.9627 39.589L36.5591 38.6893C35.839 37.157 35.2135 35.5821 34.6861 33.9733C34.4479 33.2314 34.2578 32.4748 34.117 31.7084C33.9874 30.9569 33.9217 30.1958 33.9204 29.4332C33.9728 27.294 34.5904 25.2067 35.7106 23.3831C36.7624 21.6494 38.144 20.1386 39.7774 18.9361C41.0295 17.995 42.6541 16.7126 44.0201 15.4508C45.3734 16.6848 46.7895 17.8481 48.2628 18.9361C49.894 20.1378 51.2724 21.6489 52.3192 23.3831C53.444 25.2047 54.062 27.2932 54.1094 29.4332C54.1133 30.196 54.0475 30.9576 53.9128 31.7084C53.7757 32.4756 53.5855 33.2324 53.3437 33.9733C52.8163 35.5821 52.1908 37.157 51.4707 38.6893L51.0878 39.5373L50.9947 39.7649L50.9429 39.8683C50.5601 40.6956 50.1875 41.5437 49.8253 42.4021C49.3597 43.5087 48.9768 44.4705 48.656 45.4426C48.4491 46.0321 48.2628 46.6216 48.0972 47.2214C47.6782 48.7132 47.3942 50.2396 47.2487 51.7822C47.2142 52.1989 47.3462 52.6122 47.6157 52.932C47.8852 53.2517 48.2704 53.4518 48.6871 53.4887H48.8216C49.2158 53.4878 49.5954 53.3399 49.8863 53.074C50.1772 52.8082 50.3584 52.4434 50.3945 52.0511C50.5147 50.6997 50.7641 49.363 51.1396 48.0591C51.2948 47.511 51.4603 47.0249 51.6363 46.4561C51.9364 45.5771 52.2985 44.6566 52.7332 43.6121C53.0953 42.7433 53.4782 41.8953 53.8611 41.0473C54.4341 39.7243 55.285 38.5399 56.3563 37.5745C57.4276 36.6092 58.6941 35.8854 60.0699 35.4522C61.6735 34.8213 63.368 34.4511 65.0888 34.356C66.3705 34.3477 67.6373 34.6322 68.7923 35.1879C69.9472 35.7435 70.9599 36.5555 71.7529 37.562C72.6126 38.6406 73.2174 39.8993 73.522 41.2442C73.8266 42.5891 73.8232 43.9854 73.5121 45.3288Z" fill="#7FBC42"/>
</g>
</g>
<defs>
<clipPath id="clip0">
<path d="M0 0H88V88H0V0Z" fill="white"/>
</clipPath>
</defs>
</svg>
