<svg width="88" height="88" viewBox="0 0 88 88" fill="none" xmlns="http://www.w3.org/2000/svg">
<path d="M44 84C66.0914 84 84 66.0914 84 44C84 21.9086 66.0914 4 44 4C21.9086 4 4 21.9086 4 44C4 66.0914 21.9086 84 44 84Z" fill="#FDFEFE"/>
<path fill-rule="evenodd" clip-rule="evenodd" d="M5.67188 44.1094C5.67928 38.0964 6.96262 32.3686 9.70243 27.0159C14.5796 17.4899 22.1043 11.0217 32.2765 7.61122C35.6582 6.48734 39.1888 5.87502 42.7515 5.79456C52.2509 5.54764 60.7101 8.39641 68.1293 14.3409C72.3163 17.701 75.6247 21.8029 78.0876 26.5779C80.2465 30.7259 81.606 35.243 82.095 39.8936C83.0348 48.8899 81.1293 57.2409 76.2126 64.8334C70.9876 72.889 63.695 78.2501 54.4793 80.9723C52.7987 81.4696 51.0793 81.8057 49.3469 82.0631C49.0774 82.1038 48.9404 82.0483 48.9284 81.7473C48.9145 81.4242 48.6626 81.0149 48.8358 80.8103C49.0089 80.6057 49.4404 80.6538 49.7617 80.602C57.4203 79.3674 64.046 76.0615 69.6385 70.6844C74.933 65.5881 78.4046 59.4495 80.0534 52.2686C80.9468 48.3913 81.1915 44.3927 80.7774 40.4353C79.9348 32.2384 76.7213 25.1088 71.1367 19.0464C65.7098 13.1668 59.0506 9.34456 51.183 7.8603C39.9311 5.73807 29.7256 8.24733 20.7728 15.4047C14.3348 20.551 10.0487 27.1936 8.1478 35.2223C5.37002 46.9362 7.70428 57.6446 15.1395 67.1223C20.2737 73.6668 26.9913 77.8946 35.0552 79.9686C36.6335 80.3726 38.2394 80.6601 39.8598 80.8288C40.1219 80.8566 40.1997 80.9362 40.1376 81.1797C40.1135 81.2723 40.1034 81.3649 40.0858 81.4622C39.9422 82.2372 39.9422 82.2362 39.17 82.1353C34.7774 81.5631 30.5756 80.3362 26.6561 78.2696C16.5469 72.9409 9.92558 64.7751 6.90613 53.7334C6.04502 50.5871 5.67188 47.3714 5.67188 44.1094Z" fill="#044888"/>
<path fill-rule="evenodd" clip-rule="evenodd" d="M44.4546 18.2703C54.4426 18.6406 61.9806 23.0906 66.9398 31.8286C67.8657 33.4582 68.7917 35.0804 69.4398 36.8517C70.4241 39.5536 71.0139 42.3342 70.9213 45.2073C70.762 50.6814 68.9019 55.5545 65.5093 59.8434C63.612 62.2416 61.3232 64.1953 58.7426 65.8305C57.3926 66.6879 56.1185 67.6638 54.6889 68.3971C50.8926 70.3416 46.8648 71.3268 42.5907 71.2129C36.038 71.0379 30.3232 68.7425 25.5352 64.2684C21.512 60.5101 19.0815 55.861 18.1695 50.4277C17.5861 46.9508 17.7852 43.5119 18.5657 40.0749C19.0519 37.9369 19.5324 35.8082 20.4472 33.8082C23.9232 26.2073 29.7815 21.411 37.7796 19.1666C39.9546 18.5601 42.1833 18.3054 44.4546 18.2703ZM61.7019 26.048C61.6722 26.0082 61.6417 25.9554 61.5889 26.0147C61.5806 26.024 61.6167 26.073 61.6315 26.1073L61.7306 26.1897C61.762 26.2008 61.8148 26.2277 61.8232 26.2184C61.8556 26.1786 61.8232 26.1545 61.7852 26.136C61.7472 26.1175 61.7296 26.0749 61.7019 26.0471V26.048ZM61.4074 25.9305C61.4417 25.9693 61.4787 26.0129 61.5306 25.9638C61.5398 25.9545 61.5102 25.9064 61.4991 25.8767C61.4789 25.8269 61.4489 25.7816 61.4106 25.7437C61.3724 25.7058 61.3269 25.6761 61.2769 25.6564C58.8528 23.323 56.1324 21.4425 52.913 20.3925C48.5695 18.9767 44.1352 18.7823 39.6611 19.6462C33.3519 20.8638 28.0741 23.8601 23.9426 28.8147C22.638 30.3795 21.5676 32.0869 20.8593 34.0082C20.8287 34.0656 20.725 34.136 20.7852 34.1786C20.8778 34.2434 20.9 34.1351 20.9185 34.0629C20.9639 33.9962 21.0157 33.9323 21.0546 33.8619C22.3906 31.4818 24.1114 29.3392 26.1472 27.5212C28.7398 25.1869 31.7324 23.5277 34.9954 22.2962C39.7352 20.5082 44.5898 19.9175 49.5926 20.736C53.8685 21.436 57.7324 23.123 61.1833 25.7471C61.2335 25.8333 61.313 25.8984 61.4074 25.9305ZM70.1454 42.6777C70.1679 42.438 70.1162 42.1971 69.9972 41.9879C69.9514 42.218 69.954 42.4551 70.0046 42.6842C70.056 43.4348 70.056 44.1881 70.0046 44.9388C69.6917 50.0993 68.0232 54.7737 64.9991 58.9619C63.9528 60.4156 62.7667 61.7601 61.6537 63.1684C63.0872 62.0517 64.3602 60.7432 65.437 59.2795C69.0926 54.3351 70.825 48.8471 70.1472 42.6777H70.1454ZM66.45 55.7508C66.5769 55.7147 66.5833 55.5906 66.6278 55.499C69.1657 50.386 70.0639 45.0443 68.9232 39.3999C68.0537 35.0999 66.2074 31.3517 63.0019 28.2888C59.3907 24.836 55.1722 22.548 50.2861 21.5073C49.3435 21.3064 48.3972 21.0851 47.4157 21.1592C47.4574 21.1899 47.5061 21.2097 47.5574 21.2166C53.113 22.174 57.8463 24.6823 61.6759 28.8175C65.8778 33.3545 68.1454 38.7517 68.4852 44.923C68.6796 48.4749 67.9472 51.8879 66.6333 55.1832C66.5602 55.3684 66.4185 55.5369 66.4537 55.7573C66.3694 55.7443 66.3769 55.8045 66.3769 55.8554C66.3769 55.8656 66.3935 55.8758 66.4019 55.886C66.4213 55.8416 66.4352 55.7962 66.45 55.7508ZM67.9241 46.2138C67.8972 45.7045 67.8843 45.1564 67.8315 44.611C67.7769 44.0119 67.7056 43.4129 67.613 42.8184C66.7695 37.3749 64.4528 32.648 60.5667 28.7443C55.9759 24.1332 50.3889 21.6851 43.8685 21.4684C39.7787 21.3304 35.8435 22.0508 32.2259 24.0388C24.763 28.1388 20.3889 34.3703 19.5769 42.9082C19.0648 48.2684 20.3176 53.2786 23.3315 57.736C28.2185 64.9666 35.2185 68.5999 43.8259 69.1147C48.8407 69.4147 53.4898 68.0036 57.7417 65.3267C59.6861 64.1017 61.5324 62.7045 62.9269 60.874C66.1907 56.5684 67.7787 51.6453 67.9241 46.211V46.2138ZM54.6945 67.998C54.563 67.9471 54.5361 67.9258 54.5167 67.9305C54.4225 67.9518 54.3297 67.979 54.2389 68.0119C51.3574 69.1101 48.3667 69.6397 45.2926 69.7193C40.6093 69.8416 36.1417 68.9443 31.9843 66.7453C25.7806 63.4638 21.5407 58.5045 19.4065 51.786C19.1167 50.874 18.9037 49.9416 18.6574 49.0323C19.9232 57.4647 24.1935 63.8758 31.8056 67.8082C39.3204 71.6851 46.9704 71.6712 54.6945 67.998ZM46.9213 21.0536C46.5856 20.9448 46.2257 20.9345 45.8843 21.024C46.2315 20.9971 46.5713 21.1592 46.9213 21.0554V21.0536Z" fill="#044888"/>
<path fill-rule="evenodd" clip-rule="evenodd" d="M14.8892 42.2953C14.3608 41.9157 13.8318 41.5367 13.3022 41.1583C12.2541 40.4101 11.2096 39.6592 10.1541 38.9212C9.96053 38.786 9.88368 38.6648 9.9485 38.4203C10.0758 37.9586 10.1747 37.4895 10.2448 37.0157C10.2855 36.7222 10.4411 36.6453 10.6902 36.5962C12.5522 36.2166 14.4133 35.8268 16.2744 35.4398C16.3105 35.4323 16.3466 35.4175 16.4485 35.3851C16.1707 35.0685 15.9179 34.7685 15.6494 34.4888C15.4642 34.2962 15.4328 34.1842 15.68 33.9898C16.2459 33.5495 16.6723 32.9549 16.9078 32.2777C16.9716 32.0925 17.0744 31.8601 16.8374 31.7222C16.6142 31.5935 16.4772 31.7981 16.3624 31.9351C16.0726 32.2814 15.817 32.6564 15.5291 33.0009C15.1374 33.4638 14.7207 33.9148 14.0633 33.9685C13.8067 33.9943 13.5474 33.9662 13.3023 33.8859C13.0571 33.8057 12.8314 33.6752 12.6396 33.5027C12.4478 33.3302 12.2942 33.1195 12.1886 32.8841C12.083 32.6488 12.0277 32.394 12.0263 32.1361C11.9976 30.6546 12.6744 29.4824 13.7161 28.4888C13.8541 28.3574 13.9661 28.3407 14.0763 28.5129C14.1009 28.5462 14.1285 28.5772 14.1587 28.6055C14.4281 28.8972 14.8392 29.1509 14.93 29.4898C15.0309 29.8694 14.467 30.0296 14.2716 30.349C14.0605 30.687 13.8402 31.0166 13.755 31.412C13.7198 31.5777 13.73 31.749 13.9105 31.8388C14.0911 31.9286 14.2087 31.812 14.3031 31.7027C14.5078 31.4648 14.6948 31.2111 14.8809 30.9573C15.0835 30.6644 15.3118 30.3901 15.5633 30.1379C16.1096 29.6194 16.7226 29.3685 17.4689 29.6749C18.2476 29.9972 18.6457 30.6009 18.6726 31.424C18.7198 32.7972 18.0615 33.8888 17.2161 34.8953C17.0828 35.0546 16.9865 35.1666 16.9763 35.4398C16.955 36.0601 16.7494 36.6731 16.6226 37.2916C16.5809 37.4962 16.4161 37.4768 16.2716 37.499C15.4513 37.6203 15.4504 37.6194 15.2661 38.4425C15.1735 38.8435 15.105 39.2481 15.0013 39.6462C14.9439 39.8703 15.0115 39.9916 15.1994 40.1157C15.9309 40.6009 15.9494 40.6129 15.7272 41.4879C15.555 42.1647 15.6346 42.8416 15.6346 43.5203C15.6457 44.6842 15.6531 45.849 15.6902 47.0129C15.6994 47.2796 15.6318 47.3351 15.3846 47.337C14.3161 47.3425 13.2485 47.3647 12.18 47.3842C11.3587 47.3999 10.5374 47.4129 9.71701 47.4434C9.46516 47.4536 9.38183 47.3796 9.39016 47.1222C9.4059 46.6296 9.3985 46.136 9.37813 45.6407C9.36794 45.3888 9.41979 45.2897 9.7059 45.2888C11.0198 45.2842 12.3346 45.2444 13.6494 45.2342C13.905 45.2342 14.0078 45.1851 13.9939 44.9027C13.9605 44.1786 13.9707 43.4518 13.9392 42.7277C13.9272 42.4499 14.0189 42.3573 14.2874 42.3842C14.4777 42.3939 14.6684 42.3939 14.8587 42.3842C14.8679 42.3564 14.8791 42.3259 14.8892 42.2953ZM13.5485 39.0435C13.6216 38.6999 13.6809 38.4092 13.7457 38.1175C13.7818 37.9546 13.7365 37.8898 13.5605 37.9212C13.1355 38.0027 12.7041 38.074 12.1994 38.1666L13.5485 39.0435Z" fill="#044888"/>
<path fill-rule="evenodd" clip-rule="evenodd" d="M41.3136 82.2205C41.434 81.4797 41.4682 80.8066 41.6645 80.1834C41.9914 79.1408 41.821 78.3529 40.9025 77.6751C40.3525 77.2695 39.9395 76.6779 39.459 76.163C40.1664 76.0575 40.9238 75.8797 41.6868 75.8464C42.5534 75.8093 43.109 75.5158 43.4108 74.6482C43.6692 73.9075 44.0942 73.2223 44.4571 72.488C44.6553 72.6816 44.7266 72.9186 44.8331 73.1362C45.1877 73.8445 45.5534 74.5482 45.8757 75.2714C46.0099 75.5742 46.2016 75.6945 46.5099 75.7343C47.5284 75.8686 48.5405 76.0186 49.6081 76.1705C49.2738 76.514 48.9682 76.8343 48.6544 77.1454C48.2062 77.589 47.7599 78.0334 47.2969 78.4603C47.1118 78.6288 47.0738 78.7945 47.1192 79.0343C47.284 79.9214 47.4266 80.8121 47.5821 81.7019C47.6071 81.8492 47.6553 81.9936 47.6034 82.1964C46.8692 81.8075 46.1099 81.4834 45.434 81.0371C44.7581 80.5908 44.1942 80.5908 43.5164 81.0455C42.8534 81.4927 42.1034 81.8066 41.3136 82.2205Z" fill="#044888"/>
<path fill-rule="evenodd" clip-rule="evenodd" d="M73.965 33.1667C74.6706 32.8722 75.3798 32.588 76.0789 32.2796C76.2937 32.187 76.3928 32.2185 76.478 32.4315C76.6632 32.9 76.8585 33.3676 77.0706 33.8259C77.1632 34.0167 77.1465 34.1037 76.9391 34.1963C75.1644 34.9438 73.3928 35.6987 71.6243 36.4611C71.4317 36.5444 71.3465 36.5055 71.2984 36.3185C71.2908 36.292 71.2789 36.267 71.2632 36.2444C70.6659 35.3648 70.74 34.5361 71.3409 33.6639C71.7261 33.1083 71.9724 32.4546 72.278 31.8435C72.2891 31.8241 72.278 31.7944 72.278 31.712C71.5733 32.0092 70.8817 32.2796 70.2104 32.5963C69.8845 32.75 69.7196 32.7342 69.5956 32.3648C69.443 31.9402 69.2668 31.5244 69.0678 31.1194C68.9808 30.9342 68.9891 30.8417 69.1974 30.7491C70.9696 29.9978 72.7397 29.2404 74.5076 28.4768C74.6928 28.3972 74.7854 28.4361 74.84 28.6222C74.8467 28.6489 74.8573 28.6745 74.8715 28.6981C75.4345 29.5417 75.4271 30.3463 74.84 31.2065C74.4437 31.7879 74.1863 32.4648 73.8678 33.0991L73.8622 33.2L73.965 33.1667Z" fill="#044888"/>
<path fill-rule="evenodd" clip-rule="evenodd" d="M40.3149 13.3825C40.3149 12.4516 40.3149 11.5211 40.3149 10.5908C40.3149 10.4205 40.2584 10.226 40.5529 10.2269C41.8491 10.2325 43.1566 10.0631 44.4473 10.2779C46.0399 10.5427 47.0056 11.7195 47.0066 13.3112C47.0075 14.9029 46.0325 16.0519 44.451 16.3668C43.6908 16.5168 42.9214 16.4288 42.1575 16.4853C41.6806 16.5205 41.1991 16.4964 40.7204 16.5195C40.4853 16.5307 40.4149 16.4492 40.4167 16.2177C40.4279 15.2732 40.4214 14.3279 40.4214 13.3834L40.3149 13.3825ZM42.4853 13.3353H42.5232C42.5232 13.5538 42.5232 13.7723 42.5232 13.9918C42.5334 14.8251 42.5334 14.8251 43.363 14.7992C44.3019 14.7751 44.8695 14.2168 44.8621 13.3223C44.8547 12.3964 44.2732 11.8362 43.3241 11.8408C43.1746 11.8551 43.0241 11.8579 42.8741 11.8492C42.5214 11.7964 42.463 11.9714 42.4797 12.2705C42.501 12.6242 42.4853 12.9816 42.4853 13.3353Z" fill="#044888"/>
<path fill-rule="evenodd" clip-rule="evenodd" d="M74.3124 47.6259L72.418 48.8296C72.418 48.0954 72.418 47.3824 72.418 46.6695C72.418 46.5435 72.5476 46.5046 72.6383 46.4472C73.0189 46.2046 73.3893 45.9426 73.7846 45.7259C74.0309 45.5908 74.0532 45.3926 74.0217 45.1704C73.9837 44.9009 73.7485 45.0065 73.593 44.9935C73.3337 44.9664 73.0724 44.9624 72.8124 44.9815C72.5069 45.0111 72.442 44.8834 72.4615 44.6111C72.4967 44.0926 72.5143 43.5722 72.517 43.0528C72.517 42.8519 72.6096 42.8334 72.768 42.838C74.6964 42.8954 76.6257 42.9503 78.556 43.0028C78.6893 43.0028 78.7967 43.0139 78.7902 43.1991C78.7504 44.4287 78.83 45.6713 78.605 46.8852C78.3328 48.3463 77.1143 49.1 75.7115 48.7593C75.0698 48.6074 74.6393 48.1889 74.3124 47.6259ZM76.2976 45.0639C76.1615 45.0639 76.0198 45.0732 75.8884 45.0639C75.7198 45.0509 75.6383 45.0972 75.6476 45.2861C75.6578 45.5037 75.6208 45.7232 75.6346 45.9398C75.6652 46.4389 75.9309 46.7046 76.368 46.6954C76.7735 46.6871 77.0504 46.4176 77.0587 45.9389C77.0772 44.9658 77.2513 45.1111 76.2976 45.0639Z" fill="#044888"/>
<path fill-rule="evenodd" clip-rule="evenodd" d="M68.8272 30.5973C68.3976 30.0149 68.0124 29.4862 67.6161 28.9621C67.5636 28.9002 67.5301 28.8245 67.5195 28.744C67.509 28.6635 67.522 28.5817 67.5569 28.5084C67.7134 28.101 67.8347 27.6806 68.0087 27.2797C68.1097 27.0417 68.0578 26.8751 67.9078 26.689C67.805 26.5612 67.7365 26.5538 67.6124 26.6501C67.3208 26.8769 67.0134 27.0825 66.7245 27.313C66.5689 27.4371 66.4745 27.4186 66.3615 27.2603C66.0522 26.826 65.7402 26.3927 65.4087 25.9751C65.2578 25.7834 65.2985 25.6973 65.4828 25.5603C66.8198 24.5843 68.1448 23.5927 69.4828 22.6186C69.7522 22.4214 70.0171 22.0278 70.3069 22.101C70.556 22.164 70.7198 22.576 70.9152 22.8417C71.3393 23.4121 71.7717 23.9778 72.18 24.5603C72.6124 25.1778 72.8995 25.8519 72.806 26.6306C72.6421 28.0075 71.2319 28.9343 69.9143 28.5093C69.6513 28.4241 69.5708 28.4649 69.4902 28.713C69.293 29.3186 69.068 29.9186 68.8272 30.5973ZM70.9097 25.8241C70.8726 25.4223 70.5745 25.0677 70.2541 24.8056C70.0985 24.676 69.8504 25.0408 69.6347 25.1677C69.4939 25.2501 69.3708 25.3612 69.2384 25.4575C69.155 25.5177 69.0837 25.5788 69.1726 25.6871C69.3782 25.9408 69.5291 26.2427 69.7948 26.4436C69.8903 26.5229 70.0078 26.5711 70.1315 26.5815C70.2552 26.5919 70.3791 26.5641 70.4865 26.5019C70.6174 26.4451 70.7279 26.3498 70.8034 26.2288C70.879 26.1078 70.916 25.9667 70.9097 25.8241V25.8241Z" fill="#044888"/>
<path fill-rule="evenodd" clip-rule="evenodd" d="M64.5223 24.2601C62.9899 24.2601 61.3464 22.7851 61.2158 21.2574C61.1575 20.575 61.3927 19.949 61.8168 19.4268C62.5751 18.4907 63.3723 17.587 64.1464 16.6648C64.251 16.5398 64.3269 16.5389 64.4417 16.6389C64.876 17.0157 65.3065 17.3972 65.7528 17.7592C65.9445 17.9148 65.8278 18.0009 65.7288 18.1157C65.0806 18.874 64.4251 19.6314 63.7843 20.3944C63.6319 20.5695 63.4973 20.7593 63.3825 20.9611C63.1362 21.4092 63.213 21.775 63.5908 22.0935C63.938 22.3861 64.3242 22.4018 64.714 22.1037C65.2186 21.7176 65.5658 21.1777 65.9853 20.7148C66.3778 20.2771 66.7599 19.8296 67.1315 19.3722C67.2778 19.1935 67.3751 19.1268 67.5769 19.3185C67.9547 19.6759 68.3565 20.0074 68.7593 20.337C68.9084 20.4583 68.925 20.5342 68.7908 20.6879C68.0343 21.5537 67.3093 22.4472 66.5362 23.2972C66.0028 23.8824 65.3464 24.262 64.5223 24.2601Z" fill="#044888"/>
<path fill-rule="evenodd" clip-rule="evenodd" d="M53.7371 11.6472C53.6612 12.0176 53.5742 12.3778 53.5186 12.7417C53.4788 13.0046 53.3455 13.0259 53.1242 12.9769C52.3325 12.8028 51.5418 12.6602 50.7584 12.4648C50.4806 12.3945 50.4575 12.5445 50.4334 12.7167C50.4093 12.8889 50.2658 13.1093 50.626 13.1695C51.2992 13.2815 51.964 13.4472 52.6362 13.5787C52.8686 13.6232 52.9575 13.7056 52.8853 13.9565C52.776 14.3352 52.8186 14.8676 52.5769 15.0676C52.3177 15.2824 51.8362 14.975 51.451 14.9148C51.098 14.8719 50.7494 14.7978 50.4093 14.6935C50.0593 14.5722 50.0066 14.7343 49.9408 15.0121C49.8658 15.3278 49.951 15.4324 50.2732 15.488C51.0547 15.6213 51.826 15.8121 52.6047 15.9639C52.8594 16.0139 52.9473 16.1241 52.8714 16.3759C52.8168 16.5611 52.7788 16.7463 52.7408 16.9315C52.5881 17.6306 52.589 17.6297 51.9075 17.4871C50.5436 17.1954 49.1806 16.8972 47.813 16.625C47.5353 16.5695 47.4871 16.4648 47.5408 16.2148C47.9353 14.3698 48.3238 12.5235 48.7066 10.6759C48.7547 10.4435 48.8612 10.4074 49.0769 10.4528C50.5334 10.7667 51.9927 11.0676 53.4492 11.3833C53.5779 11.413 53.8362 11.3648 53.7371 11.6472Z" fill="#044888"/>
<path fill-rule="evenodd" clip-rule="evenodd" d="M77.5498 36.0991C77.7174 36.0509 77.735 36.1916 77.7544 36.3092C78.0396 37.8407 78.3245 39.3725 78.609 40.9046C78.6322 41.0268 78.6257 41.125 78.4646 41.125C78.4507 41.1256 78.437 41.1281 78.4239 41.1324C77.0553 41.5185 77.0452 41.5102 76.8146 40.1305C76.7359 39.6583 76.6294 39.1916 76.5646 38.7176C76.522 38.387 76.3248 38.4694 76.1229 38.4926C75.8924 38.5185 75.7915 38.5907 75.8507 38.8629C75.9915 39.4889 76.0915 40.125 76.2211 40.7546C76.2748 41.0259 76.2924 41.2268 75.9109 41.2379C75.6233 41.2468 75.3387 41.2986 75.0665 41.3916C74.7831 41.4842 74.7461 41.3481 74.7091 41.137C74.5943 40.4889 74.4406 39.85 74.3646 39.2C74.3183 38.7991 74.1044 38.8815 73.8572 38.912C73.5933 38.9435 73.4915 39.0305 73.5572 39.3305C73.7304 40.1176 73.8581 40.9139 74.0146 41.7046C74.0656 41.962 74.0396 42.1296 73.722 42.1278C73.6 42.1421 73.4788 42.1632 73.3591 42.1907C73.0674 42.2241 72.7109 42.4528 72.5082 42.2759C72.3369 42.1268 72.3637 41.7435 72.3119 41.4629C72.065 40.1463 71.8221 38.8293 71.5832 37.512C71.5517 37.3416 71.5137 37.2111 71.7683 37.1648C73.6646 36.8241 75.5581 36.4666 77.4516 36.1148C77.4766 36.1065 77.5044 36.1046 77.5498 36.0991Z" fill="#044888"/>
<path fill-rule="evenodd" clip-rule="evenodd" d="M12.3344 48.4443C13.4557 48.5129 14.0937 49.136 14.49 50.0777C14.6514 50.4988 14.7636 50.9372 14.8243 51.3842C14.8622 51.6175 14.953 51.7101 15.2039 51.6416C15.5187 51.5545 15.8465 51.511 16.1641 51.4314C16.327 51.3897 16.4159 51.3999 16.452 51.5907C16.5551 52.1277 16.6665 52.6626 16.7863 53.1953C16.8363 53.4212 16.7641 53.4962 16.5354 53.5425C14.6885 53.9172 12.844 54.3024 11.002 54.6981C10.8039 54.7407 10.6761 54.7675 10.6261 54.5064C10.4261 53.4601 10.1789 52.4231 10.0067 51.3731C9.7474 49.799 10.6085 48.6499 12.1363 48.4601C12.2159 48.4536 12.2983 48.4508 12.3344 48.4443ZM11.6863 51.3907C11.8409 51.6342 11.577 52.224 12.0418 52.2573C12.4168 52.287 13.0752 52.3342 13.2113 51.8925C13.3965 51.3008 12.8798 50.6036 12.4428 50.586C12.0057 50.5684 11.6863 50.886 11.6863 51.3944V51.3907Z" fill="#044888"/>
<path fill-rule="evenodd" clip-rule="evenodd" d="M71.3945 52.4768C71.4633 51.2948 71.8694 50.1573 72.5649 49.199C72.7251 48.9768 72.864 48.8879 73.1084 49.1185C73.3718 49.3567 73.6539 49.5735 73.9519 49.7666C74.1556 49.9037 74.1371 49.9953 73.9908 50.1713C73.5152 50.7245 73.199 51.3966 73.076 52.1157C73.0408 52.3259 73.0066 52.562 73.2297 52.6574C73.4742 52.7611 73.5936 52.5296 73.6927 52.3574C74.039 51.7546 74.264 51.0842 74.7056 50.5342C74.874 50.3169 75.0905 50.1418 75.3382 50.0226C75.5859 49.9034 75.8579 49.8435 76.1327 49.8475C76.4075 49.8516 76.6777 49.9195 76.9217 50.0459C77.1658 50.1723 77.3771 50.3537 77.539 50.5759C77.8964 51.0444 78.0205 51.5888 78.0019 52.1583C77.9807 53.2467 77.6251 54.3021 76.9834 55.1815C76.8371 55.3852 76.7205 55.437 76.5093 55.2565C76.2491 55.0343 75.9723 54.8322 75.6816 54.6518C75.426 54.4944 75.4492 54.374 75.6223 54.1565C76.0066 53.6676 76.2843 53.1194 76.3269 52.4814C76.3399 52.2851 76.339 52.0676 76.114 51.9981C75.889 51.9287 75.7742 52.1407 75.6862 52.3C75.5214 52.5981 75.3936 52.9166 75.2343 53.2185C75.0938 53.4992 74.9351 53.7704 74.7593 54.0305C74.3816 54.5629 73.8834 54.9065 73.1982 54.825C72.4668 54.7379 71.926 54.362 71.6242 53.675C71.464 53.3046 71.4158 52.9139 71.3945 52.4768Z" fill="#044888"/>
<path fill-rule="evenodd" clip-rule="evenodd" d="M22.1133 19.4454C22.1133 17.438 24.2142 15.6093 26.2114 15.8824C26.4975 15.9213 26.7003 15.975 26.5744 16.3565C26.4649 16.7374 26.3832 17.1258 26.33 17.5185C26.2994 17.6954 26.2374 17.7426 26.0577 17.7037C25.79 17.6407 25.5105 17.6484 25.2466 17.7259C24.5059 17.9518 24.0605 18.5935 24.1596 19.3C24.2651 20.0509 25.0114 20.7704 25.7003 20.7815C26.3892 20.7926 27.105 20.1944 27.1985 19.4454C27.2438 19.075 27.3837 19.0361 27.6864 19.0796C28.0383 19.1342 28.3928 19.1694 28.7485 19.1852C29.0133 19.1944 29.067 19.3139 29.0346 19.5481C28.9371 20.2284 28.6341 20.8626 28.1661 21.3657C26.8938 22.7852 24.9503 23.1093 23.5438 22.1287C23.1103 21.8264 22.7545 21.4255 22.5059 20.9591C22.2572 20.4926 22.1226 19.9739 22.1133 19.4454Z" fill="#044888"/>
<path fill-rule="evenodd" clip-rule="evenodd" d="M21.5174 27.5183C21.4674 27.6007 21.4248 27.6729 21.3813 27.7396C21.0804 28.1627 20.7656 28.5776 20.4804 29.0109C20.3359 29.2303 20.2332 29.2174 20.035 29.0729C19.0082 28.3239 17.96 27.6026 16.9387 26.8451C16.6378 26.6229 16.46 26.5739 16.2582 26.947C16.0971 27.2461 15.8471 27.4952 15.6739 27.7887C15.5193 28.0507 15.3841 28.0294 15.1748 27.86C14.91 27.6451 14.6276 27.4498 14.3415 27.26C14.1813 27.1526 14.1128 27.0748 14.2554 26.8822C15.2893 25.4532 16.3143 24.018 17.3304 22.5766C17.4582 22.3915 17.5461 22.3915 17.7091 22.5229C18.0656 22.8007 18.6535 22.9998 18.7396 23.3359C18.8258 23.672 18.3248 24.0822 18.0461 24.4294C17.8045 24.7303 17.8137 24.8803 18.1498 25.1081C19.2026 25.8202 20.2276 26.5739 21.2619 27.3137C21.3517 27.3711 21.4304 27.4424 21.5174 27.5183Z" fill="#044888"/>
<path fill-rule="evenodd" clip-rule="evenodd" d="M63.0832 15.8057L62.7128 16.4872C62.3277 17.1983 62.3304 17.1937 61.636 16.8261C61.3369 16.6678 61.0184 16.3261 60.7415 16.4066C60.4647 16.4872 60.3823 16.952 60.2165 17.2483C59.6925 18.1918 59.1749 19.14 58.6758 20.0965C58.5471 20.3446 58.4332 20.3613 58.2128 20.2289C57.7897 19.9779 57.3601 19.7344 56.9165 19.5242C56.6545 19.4011 56.673 19.2844 56.7943 19.0613C57.4286 17.9141 58.0378 16.752 58.6795 15.6085C58.8249 15.3492 58.7878 15.2446 58.5323 15.1252C58.1619 14.9511 57.8128 14.7335 57.4462 14.5502C57.273 14.464 57.2388 14.3826 57.3406 14.2103C57.5415 13.8696 57.7351 13.5224 57.9073 13.1659C57.9999 12.9687 58.0925 12.9946 58.2517 13.0807C59.7863 13.9196 61.3221 14.756 62.8591 15.59C62.9462 15.6418 63.0749 15.6603 63.0832 15.8057Z" fill="#044888"/>
<path fill-rule="evenodd" clip-rule="evenodd" d="M31.8983 14.1221C31.5215 14.2563 31.1261 14.3721 30.753 14.5378C30.4067 14.6934 30.2039 14.6637 30.1215 14.2526C30.0456 13.8702 29.6585 13.4517 29.8344 13.1554C29.9835 12.8998 30.502 12.8572 30.8594 12.7295C32.1956 12.2517 33.5354 11.785 34.8678 11.2961C35.1391 11.1971 35.2511 11.2461 35.3252 11.5211C35.4128 11.8368 35.5217 12.1461 35.6511 12.4471C35.7437 12.6739 35.7159 12.7897 35.4659 12.8637C35.1002 12.9711 34.7493 13.1322 34.3826 13.2341C34.0937 13.3147 34.0344 13.4193 34.1437 13.7184C34.5919 14.9221 35.0002 16.135 35.4493 17.3359C35.5706 17.66 35.5094 17.7832 35.178 17.8739C34.7183 18.0063 34.2669 18.1658 33.8261 18.3517C33.5974 18.4443 33.5307 18.3813 33.4557 18.1665C33.0252 16.9156 32.5789 15.6665 32.1307 14.4248C32.09 14.3091 32.1076 14.1304 31.8983 14.1221Z" fill="#044888"/>
<path fill-rule="evenodd" clip-rule="evenodd" d="M68.9652 63.7971C69.0828 63.0999 69.1596 62.4906 69.2958 61.8943C69.3698 61.5647 69.268 61.3665 69.0439 61.1452C68.6096 60.7128 68.2106 60.248 67.793 59.7962C68.3782 59.7119 69.017 59.611 69.6578 59.5313C69.8911 59.5017 70.0467 59.4249 70.1532 59.1869C70.4208 58.5915 70.7272 58.0138 71.055 57.3545C71.3708 57.9897 71.6726 58.5582 71.9402 59.1517C71.9797 59.2592 72.0499 59.3526 72.1421 59.4205C72.2343 59.4883 72.3444 59.5275 72.4587 59.5332C73.0957 59.61 73.73 59.71 74.3717 59.8017C74.0059 60.186 73.6652 60.5897 73.2763 60.9397C72.9059 61.2749 72.6939 61.598 72.8541 62.136C73.005 62.6406 73.0393 63.1786 73.1448 63.7915C72.517 63.4638 71.9485 63.186 71.3995 62.873C71.2998 62.8046 71.182 62.7675 71.0611 62.7663C70.9402 62.7652 70.8217 62.8001 70.7208 62.8665C70.1763 63.1749 69.6161 63.4545 68.9652 63.7971Z" fill="#044888"/>
<path fill-rule="evenodd" clip-rule="evenodd" d="M19.1295 63.7927C18.4813 63.452 17.8943 63.1603 17.3248 62.8418C17.2407 62.7864 17.1422 62.7568 17.0415 62.7568C16.9408 62.7568 16.8423 62.7864 16.7582 62.8418C16.1878 63.1576 15.6045 63.4529 14.9498 63.7964C15.0665 63.1168 15.1582 62.514 15.2776 61.9177C15.3396 61.6113 15.3072 61.3946 15.0461 61.165C14.5832 60.7603 14.1813 60.2937 13.7109 59.8085C14.3452 59.7159 14.9545 59.6103 15.5628 59.5427C15.8665 59.5094 16.0508 59.4011 16.1785 59.1103C16.4295 58.5372 16.7239 57.9835 17.0359 57.3511C17.3609 58.0048 17.6674 58.5881 17.9396 59.1863C18.047 59.4214 18.2007 59.5029 18.4369 59.5326C19.0739 59.6122 19.7082 59.7085 20.4359 59.8103C19.9156 60.3177 19.447 60.789 18.9628 61.2418C18.7776 61.4122 18.7396 61.5742 18.7896 61.8187C18.9211 62.4474 19.0109 63.0816 19.1295 63.7927Z" fill="#044888"/>
<path fill-rule="evenodd" clip-rule="evenodd" d="M37.7855 17.1378C37.629 17.2054 37.6049 17.0869 37.5753 16.9304C37.2105 15.023 36.8401 13.1171 36.4642 11.2128C36.4244 11.0119 36.5188 10.973 36.667 10.9452C37.204 10.8443 37.7438 10.7517 38.2781 10.6387C38.4707 10.598 38.5401 10.6332 38.5781 10.836C38.9299 12.7174 39.2904 14.5971 39.6596 16.4748C39.704 16.7008 39.6596 16.7841 39.4355 16.8221C38.8994 16.9128 38.3642 17.0258 37.7855 17.1378Z" fill="#044888"/>
<path fill-rule="evenodd" clip-rule="evenodd" d="M24.371 24.3473C24.3089 24.4167 24.2589 24.4778 24.2043 24.5325C23.8339 24.9176 23.4636 25.2963 23.0997 25.688C22.9589 25.8408 22.8645 25.8519 22.7071 25.6982C21.3355 24.363 19.9583 23.0337 18.5756 21.7102C18.4089 21.5501 18.4052 21.4538 18.5756 21.2908C18.9589 20.9204 19.3219 20.5288 19.6923 20.1454C19.7849 20.0528 19.8497 19.9482 20.0089 20.1028C21.4077 21.4664 22.8123 22.8272 24.2228 24.1852C24.2701 24.2269 24.3117 24.2778 24.371 24.3473Z" fill="#044888"/>
<path fill-rule="evenodd" clip-rule="evenodd" d="M67.9243 46.2112C67.7789 51.6454 66.1909 56.5686 62.9243 60.8741C61.5354 62.7047 59.6909 64.1019 57.7391 65.3269C53.4872 68.0028 48.8382 69.4149 43.8233 69.1149C35.2122 68.6 28.2159 64.9667 23.3289 57.7362C20.3159 53.2769 19.0622 48.2686 19.5743 42.9084C20.3891 34.3695 24.7595 28.1389 32.2233 24.0389C35.8409 22.051 39.7761 21.3306 43.8659 21.4686C50.3891 21.6852 55.9761 24.1334 60.5743 28.7454C64.4632 32.6454 66.778 37.3723 67.6206 42.8195C67.7132 43.4139 67.7845 44.013 67.8391 44.6121C67.8891 45.1538 67.8974 45.7019 67.9243 46.2112ZM59.3132 42.2778C59.053 42.3769 58.9595 42.6389 58.8095 42.8334C58.2345 43.5834 57.6835 44.351 57.0502 45.0556C56.852 45.2769 56.6428 45.4834 56.3159 45.2519C56.0104 45.0362 55.9622 44.7825 56.1687 44.3973C56.227 44.2889 56.2937 44.1852 56.3622 44.0825C56.94 43.201 57.5243 42.3232 58.0956 41.438C58.2382 41.2158 58.5308 40.9501 58.3391 40.7112C58.127 40.4482 57.7835 40.6436 57.5058 40.7463C56.8391 40.9945 56.1835 41.2723 55.5095 41.5001C55.2206 41.5973 54.8298 41.7889 54.6576 41.3436C54.5011 40.9399 54.8826 40.8047 55.14 40.6473C56.0845 40.0686 57.0845 39.5741 57.9715 38.9056C59.303 37.9065 60.3233 36.6565 60.7159 35.0297C61.0067 33.826 60.9872 32.5612 61.1085 31.326C61.128 31.1278 61.0224 30.9871 60.9048 30.851C59.5351 29.2628 57.9695 27.8546 56.2456 26.6602C52.4798 24.0445 48.2974 22.7788 43.7215 22.7908C42.6684 22.8034 41.6171 22.8801 40.5733 23.0204C38.4164 23.2836 36.3128 23.877 34.3363 24.7797C31.39 26.1288 28.9233 28.1075 26.7576 30.5038C26.1493 31.1769 25.8511 31.7825 26.3743 32.6028C26.3857 32.6275 26.3947 32.6533 26.4011 32.6797C26.7076 33.4538 26.9252 34.2658 27.4761 34.926C28.7641 36.4704 30.3937 37.4649 32.3243 37.9917C33.1576 38.2186 33.9826 38.4547 34.8095 38.6945C35.0724 38.7704 35.315 38.8982 35.2724 39.226C35.228 39.5834 34.9363 39.626 34.6539 39.6278C34.3138 39.6296 33.9738 39.6136 33.6354 39.5797C32.9289 39.5093 32.2317 39.3389 31.515 39.3732C31.3576 39.3806 31.2002 39.4056 31.1345 39.5639C31.0743 39.7075 31.1706 39.8352 31.2641 39.9288C31.5536 40.2201 31.8502 40.5041 32.1539 40.7806C32.9233 41.4815 33.6993 42.1741 34.4687 42.8741C34.6761 43.0639 34.8511 43.2778 34.7659 43.5908C34.6289 44.0917 34.1909 44.1871 33.6919 43.8334C32.7659 43.176 31.8752 42.4704 30.9835 41.7667C30.8613 41.6741 30.7169 41.4028 30.5576 41.5815C30.4428 41.7121 30.6826 41.8769 30.7946 42.0019C31.6669 42.968 32.5419 43.93 33.4196 44.888C33.6521 45.1426 33.7243 45.3908 33.4946 45.6917C33.265 45.9926 32.9909 45.9695 32.6974 45.8149C32.6021 45.7616 32.5119 45.6996 32.428 45.6297C31.4298 44.8352 30.528 43.9352 29.6095 43.0538C29.4719 42.8933 29.2832 42.785 29.0752 42.7473C29.3687 43.4028 29.6243 43.988 29.8919 44.5676C30.14 45.101 30.4039 45.6269 30.6558 46.1593C30.7863 46.4371 30.8604 46.7149 30.5493 46.9251C30.2382 47.1352 29.9511 47.0704 29.7159 46.788C29.5735 46.6216 29.4403 46.4476 29.3169 46.2667C28.8132 45.5167 28.3261 44.7556 27.8122 44.0121C27.3382 43.3251 26.8391 42.6556 26.3493 41.9751C26.2965 41.9028 26.2567 41.7686 26.1456 41.8149C26.0113 41.8686 26.0743 42 26.0946 42.1047C26.115 42.2093 26.1595 42.313 26.1872 42.4176C26.3632 43.0232 26.5298 43.6278 26.4891 44.2695C26.4877 44.4142 26.4501 44.5562 26.3795 44.6826C26.309 44.809 26.2079 44.9156 26.0854 44.9926C25.8882 45.1149 25.6576 45.1621 25.5298 44.8834C25.1669 44.0723 24.765 43.2778 24.5011 42.425C24.0667 41.0389 23.8716 39.5888 23.9243 38.1371C23.9536 37.3166 23.7718 36.5024 23.3965 35.7723C23.2372 35.8556 23.2233 35.9852 23.1743 36.0936C21.5678 39.6195 21.0946 43.3371 21.2983 47.1695C21.3122 47.4343 21.4011 47.6417 21.6428 47.7788C23.727 48.9612 25.9465 49.5167 28.34 49.1491C30.9252 48.751 32.9696 47.4038 34.5974 45.4038C36.1919 43.4399 37.5733 41.3093 39.2271 39.3852C40.6659 37.7075 42.1808 36.1121 44.0965 34.9602C45.4511 34.1463 46.8965 33.5991 48.4946 33.5426C50.4391 33.4741 52.1789 34.0889 53.7798 35.1501C54.8104 35.8315 55.7289 36.6538 56.6632 37.4556C56.9632 37.7139 57.3113 37.9241 57.5808 38.2751C56.5622 38.5473 55.6039 38.8028 54.6437 39.0639C53.2363 39.4454 51.9872 40.0899 51.0974 41.2862C49.9863 42.7806 49.3595 44.4556 49.715 46.3139C50.1567 48.6204 51.5956 50.2362 53.6965 51.2213C55.6409 52.1343 57.6372 51.9306 59.6076 51.2556C61.8752 50.4797 63.8428 49.1676 65.752 47.7575C65.8937 47.6519 66.0215 47.5297 66.0391 47.3278C66.1752 45.8688 66.1669 44.4 66.0141 42.9426C65.8473 41.3955 65.5244 39.8692 65.0502 38.3871C64.8261 37.648 64.5409 36.9288 64.1974 36.2371C64.1141 36.8158 64.2122 37.3686 64.365 37.9167C64.6285 38.8231 64.779 39.7586 64.8132 40.7019C64.8325 41.7829 64.7237 42.8623 64.4891 43.9176C64.403 44.3241 64.1909 44.4315 63.8409 44.1954C63.6598 44.0685 63.5301 43.881 63.4752 43.6667C63.3298 43.1871 63.3289 42.6973 63.3224 42.2038C63.3224 41.9834 63.4428 41.6149 63.2465 41.576C63.0289 41.5325 63.015 41.9158 62.9289 42.1149C62.3095 43.5482 61.8891 45.0538 61.3437 46.5149C61.1854 46.9389 60.9206 47.1149 60.6141 47.0047C60.2196 46.863 60.2187 46.5288 60.3122 46.2186C60.4511 45.7556 60.4974 45.2806 60.59 44.8121C60.703 44.2297 60.7817 43.6408 60.8808 43.0186C60.6382 43.1028 60.5724 43.2741 60.4798 43.4195C59.8409 44.4251 59.2604 45.4676 58.5289 46.4102C58.2835 46.726 57.965 46.7899 57.7067 46.5889C57.4058 46.3547 57.4632 46.0917 57.6243 45.7889C58.1909 44.726 58.7354 43.6538 59.2909 42.5825C59.3372 42.5038 59.4317 42.4093 59.3178 42.2778H59.3132ZM53.8326 37.463C53.8121 37.422 53.7869 37.3835 53.7576 37.3482C51.2641 35.1399 47.4687 34.8269 44.6576 36.6269C42.8243 37.801 41.3891 39.4047 40.028 41.0713C38.5298 42.9056 37.2502 44.9093 35.6928 46.6963C32.3521 50.5288 28.2446 51.8639 23.3113 50.4158C22.7845 50.2612 22.2669 50.0778 21.7271 49.901C23.2085 58.3954 31.89 68.675 45.3224 67.7454C56.2946 66.9862 64.1946 58.0232 65.365 50.1528C65.1983 50.2593 65.0502 50.3519 64.902 50.4482C63.7604 51.221 62.5482 51.8842 61.2817 52.4288C59.1437 53.3232 56.9521 53.8334 54.615 53.3695C51.6706 52.7852 48.3187 49.9556 47.9233 46.4352C47.64 43.9288 48.3095 41.7334 49.9817 39.8528C51.0308 38.6862 52.3465 37.938 53.8372 37.4649L53.8326 37.463Z" fill="#FDFEFE"/>
<path fill-rule="evenodd" clip-rule="evenodd" d="M20.8594 34.0102C21.5677 32.0889 22.6381 30.3815 23.9427 28.8167C28.0742 23.8602 33.352 20.8639 39.6631 19.6482C44.1372 18.7843 48.5714 18.9787 52.9149 20.3945C56.1344 21.4445 58.8547 23.325 61.2788 25.6574L61.1862 25.75C57.7353 23.126 53.8714 21.4389 49.5955 20.7389C44.5955 19.9204 39.7381 20.5111 34.9983 22.2991C31.7353 23.5306 28.7473 25.1898 26.1501 27.5241C24.1143 29.3422 22.3935 31.4847 21.0575 33.8648C21.0186 33.9352 20.9649 33.9991 20.9214 34.0658L20.8594 34.0102Z" fill="#FDFEFE"/>
<path fill-rule="evenodd" clip-rule="evenodd" d="M66.4579 55.7593C66.4227 55.5389 66.5644 55.3704 66.6375 55.1852C67.9477 51.8898 68.6801 48.4769 68.4894 44.925C68.1496 38.7537 65.882 33.3574 61.6801 28.8194C57.8505 24.6843 53.1162 22.1759 47.5616 21.2185C47.5103 21.2117 47.4615 21.1919 47.4199 21.1611C48.4005 21.087 49.3468 21.3083 50.2903 21.5093C55.1764 22.55 59.3922 24.838 63.0061 28.2907C66.2116 31.3528 68.0579 35.1009 68.9274 39.4019C70.0681 45.05 69.17 50.388 66.632 55.5009C66.5875 55.5935 66.5811 55.7167 66.4542 55.7528L66.4579 55.7593Z" fill="#FDFEFE"/>
<path fill-rule="evenodd" clip-rule="evenodd" d="M54.6946 67.9982C46.9705 71.6713 39.3242 71.688 31.8122 67.813C24.1983 63.8806 19.928 57.4695 18.6641 49.0371C18.9104 49.9464 19.127 50.8788 19.4131 51.7908C21.5474 58.5075 25.7854 63.4686 31.9909 66.75C36.1483 68.9491 40.6159 69.8463 45.2992 69.7241C48.3733 69.6445 51.3641 69.1149 54.2455 68.0167C54.3363 67.9838 54.4291 67.9566 54.5233 67.9352C54.5363 67.926 54.5631 67.9473 54.6946 67.9982Z" fill="#FDFEFE"/>
<path fill-rule="evenodd" clip-rule="evenodd" d="M70.1471 42.6777C70.8249 48.8472 69.0925 54.3351 65.4415 59.2777C64.3647 60.7413 63.0917 62.0499 61.6582 63.1666C62.7693 61.7583 63.9573 60.4138 65.0036 58.9601C68.019 54.7706 69.6875 50.0962 70.0091 44.937C70.0605 44.1863 70.0605 43.433 70.0091 42.6824L70.1471 42.6777Z" fill="#FDFEFE"/>
<path fill-rule="evenodd" clip-rule="evenodd" d="M46.9218 21.0555C46.5718 21.1592 46.232 20.9971 45.8848 21.0259C46.2262 20.9364 46.5861 20.9467 46.9218 21.0555V21.0555Z" fill="#7EB7E1"/>
<path fill-rule="evenodd" clip-rule="evenodd" d="M70.1475 42.6779L70.0068 42.6843C69.9561 42.4553 69.9536 42.2181 69.9994 41.988C70.1183 42.1973 70.1701 42.4382 70.1475 42.6779V42.6779Z" fill="#7EB7E1"/>
<path fill-rule="evenodd" clip-rule="evenodd" d="M61.1875 25.7491L61.2801 25.6565C61.3301 25.6766 61.3756 25.7065 61.4137 25.7445C61.4519 25.7825 61.4821 25.8279 61.5023 25.8778L61.4097 25.9315C61.3162 25.8993 61.2373 25.8346 61.1875 25.7491Z" fill="#7EB7E1"/>
<path fill-rule="evenodd" clip-rule="evenodd" d="M20.9194 34.0649C20.9008 34.1371 20.8786 34.2455 20.786 34.1806C20.7258 34.138 20.8296 34.0677 20.8601 34.0103L20.9194 34.0649Z" fill="#FDFEFE"/>
<path fill-rule="evenodd" clip-rule="evenodd" d="M66.4495 55.751C66.4347 55.7963 66.4208 55.8436 66.406 55.8871C66.3977 55.8769 66.381 55.8667 66.381 55.8565C66.381 55.8056 66.3736 55.7454 66.4578 55.7584L66.4495 55.751Z" fill="#FDFEFE"/>
<path fill-rule="evenodd" clip-rule="evenodd" d="M61.7831 26.1296C61.8183 26.1482 61.8535 26.1722 61.8211 26.212C61.8146 26.2213 61.7618 26.1944 61.7285 26.1833L61.7831 26.1296Z" fill="#7EB7E1"/>
<path fill-rule="evenodd" clip-rule="evenodd" d="M61.7012 26.0471C61.729 26.0749 61.7559 26.1036 61.7827 26.1314L61.7309 26.1851L61.6309 26.1036L61.7012 26.0471Z" fill="#7EB7E1"/>
<path fill-rule="evenodd" clip-rule="evenodd" d="M61.6317 26.1029C61.6169 26.0723 61.5808 26.0233 61.5891 26.0103C61.6419 25.952 61.6725 26.0038 61.7021 26.0436L61.6317 26.1029Z" fill="#7EB7E1"/>
<path fill-rule="evenodd" clip-rule="evenodd" d="M61.4999 25.877C61.511 25.9066 61.5406 25.9547 61.5314 25.964C61.4795 26.0131 61.4388 25.9695 61.4082 25.9307L61.4999 25.877Z" fill="#7EB7E1"/>
<path fill-rule="evenodd" clip-rule="evenodd" d="M13.5483 39.0436L12.1992 38.1668C12.7066 38.0788 13.1353 38.0066 13.5622 37.9279C13.7363 37.8964 13.7816 37.9612 13.7474 38.1242C13.6807 38.4094 13.6214 38.7001 13.5483 39.0436Z" fill="#FDFEFE"/>
<path fill-rule="evenodd" clip-rule="evenodd" d="M73.9662 33.1667L73.8652 33.2L73.8708 33.0991L73.9662 33.1667Z" fill="#FDFEFE"/>
<path fill-rule="evenodd" clip-rule="evenodd" d="M42.4847 13.3351C42.4847 12.9804 42.5004 12.6239 42.4791 12.2702C42.4624 11.9712 42.5208 11.7962 42.8735 11.8489C43.0235 11.8577 43.174 11.8549 43.3235 11.8406C44.2726 11.836 44.8541 12.3962 44.8615 13.3221C44.8689 14.2165 44.3013 14.7749 43.3624 14.7989C42.5291 14.8212 42.5291 14.8212 42.5226 13.9915C42.5226 13.7721 42.5226 13.5536 42.5226 13.3351H42.4847Z" fill="#FDFEFE"/>
<path fill-rule="evenodd" clip-rule="evenodd" d="M76.2989 45.0638C77.2527 45.1129 77.0786 44.9657 77.0601 45.937C77.0517 46.4138 76.7749 46.6851 76.3693 46.6935C75.9323 46.7027 75.6665 46.437 75.636 45.9379C75.6221 45.7212 75.6591 45.5018 75.6489 45.2842C75.6397 45.099 75.7212 45.049 75.8897 45.062C76.0258 45.0731 76.1628 45.0638 76.2989 45.0638Z" fill="#FDFEFE"/>
<path fill-rule="evenodd" clip-rule="evenodd" d="M70.9105 25.8241C70.9163 25.9662 70.879 26.1067 70.8035 26.2272C70.728 26.3476 70.6178 26.4424 70.4874 26.4991C70.38 26.5613 70.2561 26.5891 70.1324 26.5787C70.0087 26.5683 69.8912 26.5201 69.7957 26.4408C69.53 26.238 69.3791 25.938 69.1735 25.6843C69.0809 25.576 69.1559 25.5149 69.2392 25.4547C69.3716 25.3621 69.4948 25.2473 69.6355 25.1649C69.8513 25.038 70.0985 24.6732 70.255 24.8028C70.5744 25.0676 70.8735 25.4223 70.9105 25.8241Z" fill="#FDFEFE"/>
<path fill-rule="evenodd" clip-rule="evenodd" d="M11.6855 51.3944C11.6855 50.8861 12.0105 50.5722 12.442 50.5898C12.8735 50.6074 13.3939 51.3046 13.2105 51.8963C13.0744 52.338 12.4161 52.2907 12.0411 52.2611C11.5744 52.2241 11.8383 51.638 11.6855 51.3944Z" fill="#FDFEFE"/>
<path fill-rule="evenodd" clip-rule="evenodd" d="M59.3176 42.2778C59.4315 42.4092 59.337 42.5037 59.2917 42.5926C58.7361 43.6639 58.1917 44.7361 57.625 45.7991C57.4639 46.1018 57.4065 46.3648 57.7074 46.5991C57.9657 46.8 58.2842 46.7361 58.5296 46.4204C59.2611 45.4778 59.8417 44.4352 60.4805 43.4296C60.5731 43.2842 60.6389 43.1129 60.8815 43.0287C60.7824 43.6509 60.7037 44.2398 60.5907 44.8222C60.4981 45.2907 60.4528 45.7667 60.313 46.2287C60.2204 46.5389 60.2204 46.8768 60.6148 47.0148C60.9213 47.125 61.1861 46.9491 61.3444 46.525C61.8898 45.0639 62.3102 43.562 62.9296 42.125C63.0157 41.9259 63.0296 41.5426 63.2472 41.5861C63.4435 41.625 63.3204 41.9935 63.3231 42.2139C63.3296 42.7074 63.3305 43.1972 63.4759 43.6768C63.5308 43.8911 63.6605 44.0786 63.8417 44.2055C64.1926 44.4407 64.4046 44.3333 64.4898 43.9278C64.7244 42.8724 64.8332 41.793 64.8139 40.712C64.7813 39.7686 64.6323 38.8328 64.3704 37.9259C64.2176 37.3778 64.1194 36.825 64.2028 36.2463C64.5462 36.938 64.8315 37.6572 65.0555 38.3963C65.5298 39.8784 65.8527 41.4047 66.0194 42.9518C66.1722 44.4092 66.1806 45.878 66.0444 47.337C66.0268 47.5389 65.8991 47.6611 65.7574 47.7667C63.8481 49.1768 61.8805 50.4889 59.613 51.2648C57.6426 51.9398 55.6463 52.1435 53.7018 51.2305C51.6037 50.2454 50.1648 48.6296 49.7204 46.3231C49.3648 44.4648 49.9981 42.7898 51.1028 41.2954C51.9926 40.0972 53.2417 39.4528 54.6491 39.0731C55.6092 38.812 56.5713 38.5565 57.5861 38.2842C57.3167 37.9333 56.9685 37.7231 56.6685 37.4648C55.7342 36.6629 54.8167 35.8407 53.7852 35.1592C52.1842 34.0926 50.4444 33.4815 48.5 33.55C46.9018 33.6065 45.4565 34.1537 44.1018 34.9676C42.1861 36.1194 40.6713 37.7148 39.2324 39.3926C37.5824 41.3157 36.2009 43.4463 34.6028 45.4111C32.9815 47.4102 30.9342 48.7574 28.3518 49.1555C25.9583 49.5259 23.7389 48.9704 21.6546 47.7852C21.4129 47.6481 21.324 47.4407 21.3102 47.1759C21.1065 43.3435 21.5796 39.6259 23.1861 36.1C23.2352 35.9916 23.249 35.862 23.4083 35.7787C23.7836 36.5088 23.9654 37.3231 23.9361 38.1435C23.8834 39.5952 24.0785 41.0453 24.5129 42.4315C24.7768 43.2842 25.1787 44.0787 25.5416 44.8898C25.6657 45.1676 25.8963 45.1213 26.0972 44.9991C26.2197 44.922 26.3208 44.8154 26.3914 44.689C26.4619 44.5627 26.4996 44.4206 26.5009 44.2759C26.5416 43.6333 26.375 43.0287 26.199 42.4241C26.1685 42.3194 26.125 42.2176 26.1065 42.1111C26.0879 42.0046 26.0231 41.875 26.1574 41.8213C26.2722 41.775 26.3083 41.9139 26.3611 41.9815C26.8509 42.6583 27.35 43.3278 27.824 44.0185C28.3379 44.7592 28.825 45.5231 29.3287 46.2731C29.4521 46.454 29.5853 46.6281 29.7278 46.7944C29.9639 47.0768 30.2472 47.1435 30.5611 46.9315C30.875 46.7194 30.7981 46.4407 30.6676 46.1657C30.4157 45.6333 30.1518 45.1074 29.9037 44.5741C29.6361 43.9944 29.3805 43.4092 29.087 42.7537C29.295 42.7915 29.4837 42.8997 29.6213 43.0602C30.5398 43.9417 31.4416 44.8417 32.4398 45.6361C32.5237 45.706 32.6139 45.768 32.7092 45.8213C33.0028 45.9759 33.2722 46.0065 33.5065 45.6981C33.7407 45.3898 33.6639 45.1491 33.4315 44.8944C32.5524 43.9352 31.6774 42.9731 30.8065 42.0083C30.6944 41.8833 30.4546 41.7185 30.5694 41.5879C30.7287 41.4092 30.8731 41.6805 30.9953 41.7731C31.887 42.4768 32.7768 43.1824 33.7037 43.8398C34.2028 44.1935 34.6407 44.0981 34.7778 43.5972C34.8629 43.2842 34.6852 43.0704 34.4805 42.8805C33.7111 42.1805 32.9352 41.4916 32.1657 40.787C31.862 40.5111 31.5654 40.2271 31.2759 39.9352C31.1833 39.8426 31.0861 39.7139 31.1463 39.5704C31.212 39.412 31.3694 39.3852 31.5268 39.3796C32.2435 39.3454 32.9407 39.5157 33.6472 39.5861C33.9856 39.62 34.3256 39.636 34.6657 39.6342C34.9481 39.6342 35.2398 39.5898 35.2842 39.2324C35.325 38.9046 35.0824 38.7768 34.8213 38.7009C33.9944 38.4611 33.1666 38.225 32.3361 37.9981C30.4055 37.4713 28.7759 36.4768 27.4879 34.9324C26.9324 34.2722 26.7194 33.4602 26.4129 32.6861C26.4065 32.6597 26.3975 32.6339 26.3861 32.6092C25.8629 31.7889 26.1611 31.1833 26.7694 30.5102C28.9352 28.1139 31.3991 26.1352 34.3481 24.7861C36.3247 23.8834 38.4283 23.2901 40.5852 23.0268C41.6289 22.8865 42.6802 22.8098 43.7333 22.7972C48.3092 22.7852 52.4917 24.0509 56.2574 26.6666C57.9781 27.8599 59.5408 29.2661 60.9083 30.8518C61.0259 30.9879 61.1315 31.1296 61.112 31.3268C60.9907 32.5639 61.0102 33.8268 60.7194 35.0305C60.3268 36.6574 59.3065 37.9074 57.975 38.9065C57.0842 39.575 56.0879 40.0694 55.1435 40.6481C54.8861 40.8055 54.5046 40.9407 54.6611 41.3444C54.8333 41.7898 55.2241 41.5981 55.513 41.5009C56.187 41.2731 56.8426 40.9954 57.5092 40.7472C57.787 40.6444 58.1333 40.4491 58.3426 40.712C58.5343 40.9509 58.2417 41.2166 58.0991 41.4389C57.5278 42.3241 56.9435 43.1981 56.3657 44.0833C56.2972 44.1861 56.2305 44.2898 56.1722 44.3981C55.9657 44.7833 56.0139 45.037 56.3194 45.2528C56.6463 45.4842 56.8555 45.2778 57.0537 45.0565C57.6852 44.3528 58.2361 43.5852 58.8129 42.8342C58.9639 42.6389 59.0574 42.3768 59.3176 42.2778Z" fill="#7EB7E1"/>
<path fill-rule="evenodd" clip-rule="evenodd" d="M53.8373 37.4648C52.3465 37.9379 51.0308 38.6861 49.991 39.8555C48.3187 41.7361 47.6493 43.9296 47.9326 46.4379C48.3308 49.9564 51.6798 52.7879 54.6243 53.3722C56.9567 53.8351 59.1484 53.3259 61.291 52.4314C62.5575 51.8869 63.7697 51.2237 64.9113 50.4509C65.0567 50.3583 65.2048 50.2657 65.3743 50.1555C64.2039 58.0259 56.3002 66.9879 45.3317 67.7481C31.8993 68.674 23.2169 58.3963 21.7363 49.9037C22.2761 50.0805 22.7937 50.2639 23.3206 50.4185C28.2539 51.8666 32.3613 50.5314 35.7021 46.699C37.2595 44.912 38.5391 42.9083 40.0373 41.074C41.4011 39.4074 42.8363 37.8037 44.6669 36.6296C47.478 34.8296 51.2734 35.1426 53.7669 37.3509C53.7945 37.3861 53.8181 37.4243 53.8373 37.4648V37.4648ZM46.9761 59.1601C46.9855 58.2597 46.7262 57.3769 46.2314 56.6245C45.7366 55.8721 45.0288 55.2843 44.1984 54.9361C43.9252 54.8213 43.6613 54.8139 43.416 54.9824C43.3671 55.0269 43.3044 55.0532 43.2384 55.0568C43.1724 55.0603 43.1072 55.0409 43.0539 55.0018C41.9119 54.3265 40.7656 53.6589 39.615 52.999C39.4715 52.9157 39.3863 52.8333 39.4067 52.649C39.4428 52.3203 39.253 52.1046 38.9882 51.9546C38.3465 51.5898 37.7104 51.2139 37.053 50.8787C35.9197 50.3009 34.6798 50.6639 34.0354 51.762C33.315 52.9892 32.6076 54.2237 31.9132 55.4657C31.6158 55.9747 31.5268 56.5791 31.6649 57.1522C31.803 57.7254 32.1574 58.2229 32.6539 58.5407C33.2826 58.9518 33.9502 59.3009 34.6076 59.6694C34.8743 59.8185 35.1632 59.849 35.4243 59.6611C35.5798 59.549 35.6863 59.5916 35.8261 59.6731C36.9619 60.3305 38.1008 60.9845 39.2428 61.6352C39.3808 61.7139 39.4863 61.7916 39.4706 61.9796C39.441 62.3222 39.6326 62.5407 39.9085 62.7092C41.6132 63.749 43.3261 63.8379 45.0493 62.7555C45.2132 62.6537 45.3743 62.5509 45.5798 62.5703C45.7298 62.5824 45.8521 62.5852 45.765 62.8083C45.665 63.0564 45.765 63.2648 45.9965 63.399C46.3752 63.6185 46.7484 63.85 47.1382 64.0472C47.3732 64.1678 47.645 64.1957 47.8997 64.1254C48.1544 64.0551 48.3733 63.8917 48.5132 63.6676C48.865 63.0978 49.1968 62.5157 49.5085 61.9213C49.6272 61.6861 49.6537 61.4152 49.583 61.1615C49.5123 60.9079 49.3493 60.6898 49.1261 60.55C48.765 60.3277 48.3854 60.1305 48.015 59.9287C47.7937 59.8083 47.5623 59.7666 47.3835 59.9907C47.2048 60.2148 47.1252 60.0518 47.0419 59.9092C46.8974 59.6602 46.9956 59.3935 46.9761 59.1601ZM31.6687 62.074C31.6686 62.3302 31.7684 62.5763 31.9468 62.7601C32.1252 62.9438 32.3683 63.0508 32.6243 63.0583C32.7552 63.063 32.8858 63.0414 33.0082 62.9947C33.1306 62.948 33.2424 62.8772 33.3369 62.7865C33.4315 62.6958 33.5069 62.5871 33.5586 62.4667C33.6103 62.3463 33.6374 62.2168 33.6381 62.0858C33.6389 61.9548 33.6133 61.8249 33.5629 61.704C33.5126 61.583 33.4384 61.4734 33.3449 61.3817C33.2514 61.2899 33.1404 61.2179 33.0185 61.1698C32.8967 61.1217 32.7664 61.0986 32.6354 61.1018C32.3796 61.1068 32.1358 61.211 31.9555 61.3925C31.7751 61.5739 31.6723 61.8183 31.6687 62.074ZM51.1447 64.9639C51.3981 64.9632 51.6413 64.8634 51.8221 64.6858C52.003 64.5082 52.1071 64.2668 52.1123 64.0134C52.1175 63.76 52.0234 63.5146 51.85 63.3297C51.6766 63.1448 51.4377 63.0351 51.1845 63.024C51.0543 63.0184 50.9244 63.0393 50.8027 63.0856C50.6809 63.1318 50.5699 63.2025 50.4763 63.2931C50.3828 63.3838 50.3088 63.4926 50.2588 63.6128C50.2087 63.7331 50.1838 63.8623 50.1854 63.9926C50.1849 64.2482 50.2854 64.4938 50.4651 64.6757C50.6447 64.8576 50.889 64.9612 51.1447 64.9639V64.9639ZM49.5345 56.875C49.5473 56.6224 49.4604 56.375 49.2924 56.1859C49.1245 55.9969 48.8889 55.8814 48.6367 55.8644C48.3844 55.8474 48.1355 55.9302 47.9437 56.095C47.7519 56.2598 47.6325 56.4934 47.6113 56.7453C47.6006 56.8728 47.6154 57.0011 47.6547 57.1229C47.6941 57.2446 47.7574 57.3572 47.8407 57.4543C47.9241 57.5513 48.0259 57.6308 48.1403 57.688C48.2547 57.7453 48.3794 57.7792 48.507 57.7878C48.6346 57.7964 48.7627 57.7795 48.8838 57.7381C49.0048 57.6967 49.1164 57.6317 49.212 57.5467C49.3077 57.4617 49.3854 57.3586 49.4408 57.2432C49.4961 57.1279 49.528 57.0027 49.5345 56.875V56.875ZM45.6308 44.4481C45.7575 44.4513 45.8835 44.4287 46.0013 44.3818C46.1191 44.335 46.2262 44.2647 46.3161 44.1753C46.406 44.086 46.4768 43.9793 46.5244 43.8618C46.5719 43.7443 46.5952 43.6184 46.5928 43.4916C46.5956 43.3655 46.5733 43.24 46.5272 43.1225C46.4811 43.0051 46.4121 42.898 46.3243 42.8074C46.2364 42.7168 46.1314 42.6447 46.0153 42.5951C45.8993 42.5455 45.7746 42.5194 45.6484 42.5185C45.5183 42.5152 45.389 42.5383 45.2681 42.5864C45.1472 42.6345 45.0374 42.7066 44.9451 42.7983C44.8529 42.89 44.7802 42.9995 44.7314 43.1201C44.6826 43.2407 44.6588 43.3699 44.6613 43.5C44.6612 43.6263 44.6863 43.7514 44.7352 43.8679C44.7842 43.9844 44.8559 44.09 44.9462 44.1783C45.0366 44.2667 45.1437 44.3361 45.2612 44.3824C45.3788 44.4287 45.5044 44.4511 45.6308 44.4481V44.4481ZM57.8187 57.1676C57.8178 56.9758 57.7598 56.7886 57.6522 56.6299C57.5446 56.4712 57.3922 56.348 57.2144 56.2762C57.0366 56.2043 56.8414 56.1869 56.6537 56.2263C56.4661 56.2656 56.2943 56.3599 56.1604 56.4971C56.0264 56.6344 55.9363 56.8083 55.9015 56.9969C55.8667 57.1855 55.8887 57.3802 55.9649 57.5562C56.041 57.7322 56.1678 57.8816 56.3291 57.9853C56.4904 58.0891 56.6789 58.1425 56.8706 58.1389C56.9971 58.1389 57.1223 58.1136 57.2389 58.0645C57.3554 58.0154 57.461 57.9435 57.5493 57.853C57.6377 57.7625 57.707 57.6552 57.7533 57.5375C57.7996 57.4198 57.8218 57.294 57.8187 57.1676ZM41.853 51.6713C41.8502 51.8 41.8733 51.928 41.9208 52.0476C41.9684 52.1673 42.0395 52.2761 42.1299 52.3678C42.2204 52.4595 42.3283 52.5321 42.4473 52.5812C42.5663 52.6304 42.6939 52.6552 42.8227 52.6542C42.9514 52.6531 43.0787 52.6262 43.1968 52.5751C43.315 52.524 43.4217 52.4496 43.5106 52.3565C43.5995 52.2634 43.6689 52.1533 43.7145 52.0329C43.7601 51.9125 43.781 51.7842 43.7761 51.6555C43.7789 51.5268 43.7559 51.3988 43.7083 51.2792C43.6607 51.1595 43.5896 51.0506 43.4992 50.959C43.4088 50.8673 43.3009 50.7947 43.1819 50.7455C43.0629 50.6964 42.9352 50.6715 42.8065 50.6726C42.6777 50.6737 42.5505 50.7005 42.4323 50.7517C42.3141 50.8028 42.2074 50.8771 42.1185 50.9703C42.0296 51.0634 41.9603 51.1734 41.9147 51.2938C41.8691 51.4143 41.8481 51.5426 41.853 51.6713V51.6713ZM42.1484 48.3648C42.4044 48.3702 42.652 48.2738 42.837 48.0967C43.0219 47.9196 43.1289 47.6763 43.1345 47.4203C43.1379 47.1625 43.0388 46.9138 42.8589 46.7291C42.7698 46.6376 42.6636 46.5645 42.5463 46.5141C42.429 46.4637 42.3029 46.4369 42.1752 46.4351C41.9174 46.4317 41.6687 46.5308 41.484 46.7107C41.2992 46.8906 41.1935 47.1366 41.19 47.3944C41.1882 47.5213 41.2116 47.6474 41.259 47.7651C41.3063 47.8829 41.3767 47.9901 41.4659 48.0804C41.5551 48.1707 41.6614 48.2424 41.7785 48.2912C41.8957 48.34 42.0214 48.365 42.1484 48.3648V48.3648ZM28.2261 53.7222C28.2287 53.468 28.1302 53.2232 27.9523 53.0417C27.7744 52.8601 27.5317 52.7567 27.2775 52.7541C27.0234 52.7516 26.7786 52.85 26.597 53.0279C26.4155 53.2058 26.3121 53.4486 26.3095 53.7027C26.3082 53.8286 26.3317 53.9535 26.3787 54.0702C26.4257 54.187 26.4952 54.2933 26.5833 54.3832C26.6714 54.4731 26.7763 54.5448 26.8921 54.5941C27.0079 54.6435 27.1322 54.6695 27.2581 54.6708C27.3839 54.6721 27.5088 54.6485 27.6256 54.6016C27.7423 54.5546 27.8487 54.4851 27.9386 54.397C28.0285 54.3089 28.1001 54.204 28.1495 54.0882C28.1988 53.9724 28.2249 53.848 28.2261 53.7222V53.7222ZM54.6243 59.0805C54.6243 58.8264 54.5233 58.5826 54.3436 58.4029C54.1639 58.2232 53.9201 58.1222 53.666 58.1222C53.4118 58.1222 53.168 58.2232 52.9883 58.4029C52.8086 58.5826 52.7076 58.8264 52.7076 59.0805C52.7076 59.3347 52.8086 59.5784 52.9883 59.7582C53.168 59.9379 53.4118 60.0389 53.666 60.0389C53.9201 60.0389 54.1639 59.9379 54.3436 59.7582C54.5233 59.5784 54.6243 59.3347 54.6243 59.0805V59.0805ZM37.6586 45.574C37.6382 46.0213 37.9234 46.3509 38.3521 46.375C38.4509 46.3832 38.5503 46.3714 38.6445 46.3405C38.7387 46.3095 38.8257 46.26 38.9004 46.1948C38.9751 46.1296 39.0359 46.0501 39.0793 45.961C39.1227 45.8718 39.1478 45.7749 39.153 45.6759C39.1631 45.5771 39.1527 45.4773 39.1224 45.3827C39.0921 45.2881 39.0425 45.2009 38.9769 45.1263C38.9113 45.0518 38.8309 44.9917 38.7409 44.9497C38.6509 44.9077 38.5532 44.8848 38.4539 44.8824C37.9993 44.8657 37.6789 45.1435 37.6586 45.574ZM45.9104 48.6907C46.315 48.7027 46.59 48.4463 46.5947 48.0527C46.599 47.9645 46.5855 47.8762 46.555 47.7933C46.5244 47.7103 46.4775 47.6344 46.417 47.57C46.3565 47.5055 46.2837 47.4539 46.2028 47.4183C46.122 47.3826 46.0347 47.3636 45.9464 47.3623C45.858 47.3611 45.7703 47.3777 45.6885 47.411C45.6066 47.4444 45.5323 47.4939 45.4701 47.5566C45.4078 47.6193 45.3588 47.6939 45.3259 47.776C45.2931 47.858 45.2771 47.9459 45.2789 48.0342C45.2749 48.1196 45.2883 48.2048 45.3182 48.2849C45.3482 48.3649 45.3941 48.438 45.4531 48.4997C45.5122 48.5615 45.5832 48.6105 45.6618 48.644C45.7404 48.6775 45.825 48.6946 45.9104 48.6944V48.6907ZM37.7271 49.7407C37.8122 49.7401 37.8963 49.7227 37.9748 49.6896C38.0532 49.6565 38.1243 49.6082 38.184 49.5476C38.2438 49.487 38.291 49.4152 38.323 49.3363C38.355 49.2574 38.3712 49.173 38.3706 49.0879C38.3667 48.9174 38.2968 48.755 38.1756 48.635C38.0544 48.515 37.8913 48.4467 37.7208 48.4445C37.5502 48.4424 37.3855 48.5065 37.2612 48.6234C37.137 48.7403 37.063 48.9009 37.0548 49.0713C37.0536 49.1598 37.0701 49.2476 37.1035 49.3296C37.1369 49.4115 37.1864 49.486 37.2491 49.5484C37.3118 49.6109 37.3865 49.6601 37.4686 49.6931C37.5507 49.7261 37.6386 49.7423 37.7271 49.7407V49.7407ZM47.2511 51.6537C47.2539 51.5652 47.2388 51.4771 47.2068 51.3946C47.1747 51.3121 47.1264 51.2369 47.0646 51.1735C47.0028 51.1101 46.9289 51.0598 46.8473 51.0257C46.7656 50.9915 46.6779 50.9741 46.5894 50.9746C46.5009 50.9751 46.4134 50.9935 46.3322 51.0286C46.2509 51.0637 46.1776 51.1148 46.1165 51.1788C46.0555 51.2429 46.0079 51.3187 45.9768 51.4015C45.9457 51.4844 45.9316 51.5726 45.9354 51.6611C45.9427 51.8313 46.0157 51.9921 46.139 52.1096C46.2624 52.2271 46.4265 52.2923 46.5968 52.2913C46.7672 52.2903 46.9306 52.2234 47.0526 52.1044C47.1746 51.9855 47.2458 51.824 47.2511 51.6537V51.6537ZM51.1586 53.5546C50.9861 53.5555 50.8208 53.6238 50.698 53.7449C50.5752 53.866 50.5045 54.0303 50.5011 54.2027C50.4948 54.2912 50.507 54.3801 50.5369 54.4637C50.5667 54.5472 50.6136 54.6237 50.6745 54.6882C50.7354 54.7527 50.8091 54.8038 50.8908 54.8384C50.9726 54.8729 51.0606 54.8901 51.1493 54.8889C51.3213 54.8909 51.4872 54.8254 51.6115 54.7065C51.7358 54.5876 51.8085 54.4247 51.8141 54.2527C51.8182 54.1633 51.8044 54.074 51.7735 53.9899C51.7426 53.9059 51.6952 53.8289 51.6341 53.7635C51.5731 53.698 51.4996 53.6454 51.4179 53.6087C51.3362 53.5721 51.248 53.5521 51.1586 53.55V53.5546ZM31.1021 53.7796C31.1904 53.7829 31.2785 53.7684 31.3611 53.7369C31.4437 53.7053 31.5191 53.6575 31.5828 53.5961C31.6465 53.5348 31.6971 53.4613 31.7317 53.3799C31.7663 53.2986 31.7841 53.2111 31.7841 53.1227C31.7841 53.0342 31.7663 52.9467 31.7317 52.8654C31.6971 52.784 31.6465 52.7105 31.5828 52.6491C31.5191 52.5878 31.4437 52.54 31.3611 52.5084C31.2785 52.4769 31.1904 52.4624 31.1021 52.4657C31.0137 52.4624 30.9256 52.4769 30.843 52.5084C30.7604 52.54 30.685 52.5878 30.6213 52.6491C30.5577 52.7105 30.507 52.784 30.4724 52.8654C30.4378 52.9467 30.42 53.0342 30.42 53.1227C30.42 53.2111 30.4378 53.2986 30.4724 53.3799C30.507 53.4613 30.5577 53.5348 30.6213 53.5961C30.685 53.6575 30.7604 53.7053 30.843 53.7369C30.9256 53.7684 31.0137 53.7829 31.1021 53.7796V53.7796ZM30.0039 58.1398C29.9946 57.9611 29.9161 57.7931 29.7851 57.6713C29.6541 57.5495 29.4809 57.4834 29.3021 57.487C29.1302 57.4976 28.9689 57.5735 28.8512 57.6992C28.7334 57.8248 28.6682 57.9907 28.6687 58.1629C28.67 58.2519 28.6892 58.3397 28.7253 58.421C28.7614 58.5023 28.8136 58.5755 28.8788 58.6361C28.9439 58.6966 29.0207 58.7434 29.1044 58.7735C29.1882 58.8035 29.2771 58.8163 29.366 58.8111C29.5381 58.8023 29.7003 58.7277 29.819 58.6028C29.9377 58.4779 30.0039 58.3121 30.0039 58.1398V58.1398Z" fill="#044888"/>
<path fill-rule="evenodd" clip-rule="evenodd" d="M46.9762 59.1604C46.9957 59.3937 46.8975 59.6604 47.0401 59.9011C47.1234 60.0437 47.191 60.2196 47.3818 59.9826C47.5725 59.7455 47.792 59.7974 48.0132 59.9205C48.3836 60.1224 48.7623 60.3196 49.1244 60.5418C49.3475 60.6816 49.5105 60.8997 49.5812 61.1534C49.652 61.4071 49.6254 61.678 49.5068 61.9131C49.1981 62.507 48.8663 63.0891 48.5114 63.6594C48.3715 63.8836 48.1526 64.047 47.8979 64.1173C47.6432 64.1876 47.3714 64.1597 47.1364 64.0391C46.7466 63.8428 46.3734 63.6113 45.9947 63.3909C45.7651 63.2566 45.6633 63.0483 45.7633 62.8002C45.8558 62.577 45.7308 62.5742 45.5781 62.5622C45.3725 62.5465 45.2077 62.6492 45.0475 62.7474C43.3244 63.8298 41.6114 63.7409 39.9068 62.7011C39.629 62.5326 39.4392 62.3141 39.4688 61.9715C39.4845 61.7863 39.3762 61.7057 39.241 61.627C38.1003 60.9752 36.9614 60.3212 35.8244 59.665C35.6846 59.5835 35.5781 59.5409 35.4225 59.653C35.1633 59.8381 34.8725 59.8104 34.6058 59.6613C33.9503 59.2909 33.2808 58.9437 32.6521 58.5326C32.1556 58.2148 31.8012 57.7173 31.6631 57.1441C31.525 56.571 31.614 55.9666 31.9114 55.4576C32.6052 54.215 33.3126 52.9804 34.0336 51.7539C34.6818 50.6557 35.9179 50.2928 37.0512 50.8706C37.7086 51.2048 38.3475 51.5817 38.9864 51.9465C39.2512 52.0965 39.441 52.3169 39.4049 52.6409C39.3845 52.8261 39.4697 52.9076 39.6133 52.9909C40.7626 53.6527 41.9089 54.3202 43.0521 54.9937C43.1054 55.0328 43.1706 55.0522 43.2366 55.0486C43.3026 55.0451 43.3654 55.0188 43.4142 54.9743C43.6595 54.8057 43.9234 54.8131 44.1966 54.928C45.0287 55.2764 45.7378 55.8654 46.233 56.6195C46.7283 57.3735 46.987 58.2583 46.9762 59.1604V59.1604ZM45.9382 59.1243C45.9382 57.8224 45.3262 56.7844 44.116 56.0918C43.9753 56.0104 43.8623 55.9743 43.7068 56.0789C43.587 56.1609 43.4455 56.2056 43.3003 56.2072C43.1551 56.2089 43.0127 56.1674 42.891 56.0881C41.5021 55.2956 40.1133 54.5014 38.7244 53.7057C38.4568 53.552 38.2873 53.3243 38.317 53.0011C38.3345 52.8159 38.2345 52.7344 38.0947 52.6567C37.6318 52.3974 37.1688 52.1261 36.7058 51.8696C35.9827 51.4715 35.2975 51.652 34.8808 52.3659C34.192 53.5474 33.5129 54.7332 32.8438 55.9233C32.4586 56.6067 32.6586 57.3122 33.3401 57.7233C33.7744 57.9826 34.2281 58.2113 34.6531 58.4844C34.8901 58.6372 34.9836 58.5659 35.1049 58.3502C35.8994 56.9465 36.7003 55.5462 37.5077 54.1493C37.5828 54.0037 37.6779 53.8694 37.7901 53.7502C37.8667 53.6685 37.9714 53.6189 38.0832 53.6115C38.1949 53.6042 38.3053 53.6395 38.392 53.7104C38.5864 53.8465 38.6984 54.028 38.6077 54.2733C38.5544 54.4136 38.4903 54.5495 38.416 54.6798C37.7271 55.8928 37.0457 57.1104 36.3355 58.3113C36.1716 58.5891 36.2216 58.6817 36.4836 58.827C37.5491 59.4147 38.6058 60.0178 39.654 60.6363C39.8799 60.7687 39.9799 60.7622 40.1123 60.5224C40.5753 59.6715 41.0688 58.8335 41.5512 57.9918C41.8234 57.5168 42.092 57.0409 42.3744 56.5733C42.5447 56.2955 42.804 56.2363 43.0818 56.3946C43.3595 56.553 43.391 56.7946 43.267 57.0696C43.2281 57.1567 43.1744 57.2381 43.1299 57.3205C42.3299 58.7205 41.5373 60.1252 40.7225 61.5159C40.5549 61.8029 40.6151 61.9094 40.8929 62.0502C42.092 62.6557 43.2605 62.6409 44.4012 61.9205C44.9568 61.5678 45.5318 61.365 46.1818 61.6428C46.454 61.7604 46.4753 61.5057 46.5447 61.3733C46.6049 61.2576 46.8336 61.1317 46.6058 60.965C46.0049 60.5298 45.8781 59.9113 45.9382 59.1243ZM48.5429 61.5002C48.4558 61.2724 48.2308 61.24 48.067 61.1354C47.9031 61.0307 47.8633 61.2067 47.8095 61.2983C47.5744 61.6974 47.3632 62.1104 47.1132 62.502C46.9688 62.7261 47.0207 62.8298 47.2438 62.9242C47.429 63.0029 47.5984 63.2215 47.7716 62.8909C47.9845 62.4807 48.2271 62.0863 48.4558 61.6872C48.4882 61.6233 48.5142 61.5604 48.5429 61.5002Z" fill="#FDFEFE"/>
<path fill-rule="evenodd" clip-rule="evenodd" d="M31.668 62.0741C31.6715 61.8183 31.7743 61.5739 31.9547 61.3925C32.1351 61.2111 32.3789 61.1069 32.6346 61.1019C32.7656 61.0986 32.8959 61.1218 33.0178 61.1698C33.1396 61.2179 33.2506 61.29 33.3441 61.3817C33.4377 61.4735 33.5118 61.5831 33.5621 61.704C33.6125 61.825 33.6381 61.9548 33.6373 62.0858C33.6366 62.2168 33.6096 62.3464 33.5578 62.4667C33.5061 62.5871 33.4307 62.6958 33.3362 62.7865C33.2416 62.8772 33.1298 62.948 33.0074 62.9947C32.885 63.0414 32.7544 63.063 32.6235 63.0583C32.3675 63.0509 32.1244 62.9439 31.946 62.7601C31.7676 62.5763 31.6679 62.3302 31.668 62.0741Z" fill="#FDFEFE"/>
<path fill-rule="evenodd" clip-rule="evenodd" d="M51.1449 64.9639C50.8892 64.9612 50.645 64.8577 50.4653 64.6757C50.2856 64.4938 50.1851 64.2483 50.1856 63.9926C50.184 63.8624 50.2089 63.7332 50.259 63.6129C50.309 63.4926 50.383 63.3838 50.4766 63.2932C50.5701 63.2025 50.6811 63.1319 50.8029 63.0856C50.9247 63.0394 51.0546 63.0184 51.1847 63.0241C51.438 63.0352 51.6768 63.1449 51.8502 63.3298C52.0236 63.5146 52.1178 63.76 52.1126 64.0135C52.1074 64.2669 52.0033 64.5082 51.8224 64.6858C51.6416 64.8635 51.3984 64.9633 51.1449 64.9639V64.9639Z" fill="#FDFEFE"/>
<path fill-rule="evenodd" clip-rule="evenodd" d="M49.5352 56.875C49.523 57.0655 49.4545 57.2481 49.3385 57.3996C49.2224 57.5511 49.064 57.6648 48.8833 57.7261C48.7026 57.7875 48.5077 57.7939 48.3234 57.7444C48.1391 57.695 47.9736 57.5919 47.8479 57.4483C47.7222 57.3046 47.642 57.1269 47.6174 56.9377C47.5928 56.7484 47.625 56.5561 47.7098 56.3851C47.7946 56.2142 47.9283 56.0722 48.0938 55.9773C48.2594 55.8824 48.4494 55.8387 48.6398 55.8519C48.7663 55.8588 48.8902 55.8909 49.004 55.9464C49.1179 56.0019 49.2196 56.0795 49.303 56.1749C49.3865 56.2702 49.45 56.3813 49.4898 56.5015C49.5297 56.6218 49.5451 56.7488 49.5352 56.875V56.875Z" fill="#FDFEFE"/>
<path fill-rule="evenodd" clip-rule="evenodd" d="M45.6297 44.4482C45.5031 44.4512 45.3771 44.4287 45.2593 44.3822C45.1415 44.3356 45.0342 44.2659 44.9439 44.1772C44.8535 44.0884 44.7818 43.9824 44.7331 43.8655C44.6844 43.7486 44.6596 43.6231 44.6603 43.4964C44.6582 43.3666 44.6824 43.2378 44.7314 43.1177C44.7804 42.9975 44.8532 42.8885 44.9454 42.7972C45.0376 42.7058 45.1473 42.6341 45.2679 42.5862C45.3885 42.5383 45.5176 42.5154 45.6473 42.5186C45.7735 42.5196 45.8982 42.5456 46.0143 42.5952C46.1303 42.6448 46.2353 42.717 46.3232 42.8075C46.4111 42.8981 46.4801 43.0052 46.5262 43.1227C46.5723 43.2401 46.5946 43.3656 46.5917 43.4918C46.5942 43.6185 46.5709 43.7444 46.5233 43.8619C46.4758 43.9794 46.4049 44.0861 46.315 44.1754C46.2251 44.2648 46.118 44.3351 46.0003 44.3819C45.8825 44.4288 45.7564 44.4514 45.6297 44.4482V44.4482Z" fill="#FDFEFE"/>
<path fill-rule="evenodd" clip-rule="evenodd" d="M57.8172 57.1675C57.8206 57.294 57.7987 57.42 57.7525 57.5379C57.7064 57.6557 57.6371 57.7632 57.5487 57.8538C57.4602 57.9443 57.3545 58.0163 57.2377 58.0652C57.121 58.1142 56.9956 58.1392 56.869 58.1388C56.6773 58.1422 56.4889 58.0886 56.3277 57.9848C56.1666 57.8809 56.04 57.7315 55.964 57.5554C55.888 57.3794 55.866 57.1847 55.9009 56.9962C55.9358 56.8077 56.026 56.6338 56.16 56.4967C56.294 56.3595 56.4658 56.2653 56.6535 56.2261C56.8411 56.1868 57.0362 56.2042 57.214 56.2761C57.3917 56.348 57.5441 56.4712 57.6516 56.6299C57.7592 56.7886 57.8171 56.9757 57.8181 57.1675H57.8172Z" fill="#FDFEFE"/>
<path fill-rule="evenodd" clip-rule="evenodd" d="M41.8516 51.6712C41.8507 51.4811 41.9061 51.295 42.0109 51.1364C42.1157 50.9777 42.2651 50.8537 42.4403 50.78C42.6156 50.7062 42.8087 50.686 42.9954 50.7219C43.1821 50.7578 43.3539 50.8483 43.4893 50.9818C43.6246 51.1153 43.7173 51.286 43.7558 51.4721C43.7942 51.6583 43.7766 51.8517 43.7052 52.0279C43.6338 52.2041 43.5118 52.3552 43.3546 52.4621C43.1974 52.5691 43.012 52.627 42.8219 52.6286C42.5666 52.6294 42.3213 52.5292 42.1395 52.3498C41.9578 52.1705 41.8543 51.9266 41.8516 51.6712Z" fill="#FDFEFE"/>
<path fill-rule="evenodd" clip-rule="evenodd" d="M42.1481 48.3647C42.0215 48.3645 41.8961 48.3391 41.7794 48.2901C41.6627 48.2411 41.5568 48.1693 41.468 48.0791C41.3792 47.9888 41.3092 47.8818 41.2621 47.7643C41.2149 47.6467 41.1916 47.521 41.1935 47.3944C41.1969 47.1365 41.3026 46.8906 41.4874 46.7107C41.6721 46.5308 41.9208 46.4317 42.1786 46.4351C42.4365 46.4386 42.6824 46.5443 42.8623 46.7291C43.0422 46.9138 43.1414 47.1625 43.1379 47.4203C43.1352 47.5474 43.1073 47.6727 43.0561 47.789C43.0048 47.9053 42.931 48.0103 42.8391 48.098C42.7471 48.1858 42.6388 48.2545 42.5202 48.3003C42.4016 48.346 42.2752 48.3679 42.1481 48.3647V48.3647Z" fill="#FDFEFE"/>
<path fill-rule="evenodd" clip-rule="evenodd" d="M28.2253 53.7222C28.224 53.8481 28.198 53.9725 28.1486 54.0882C28.0993 54.204 28.0276 54.3089 27.9377 54.397C27.8479 54.4851 27.7415 54.5546 27.6247 54.6016C27.508 54.6486 27.3831 54.6721 27.2573 54.6708C27.1314 54.6696 27.007 54.6435 26.8913 54.5942C26.7755 54.5448 26.6705 54.4732 26.5825 54.3833C26.4944 54.2934 26.4249 54.187 26.3779 54.0703C26.3309 53.9535 26.3074 53.8286 26.3086 53.7028C26.3112 53.4486 26.4147 53.2059 26.5962 53.028C26.7778 52.8501 27.0225 52.7516 27.2767 52.7542C27.5309 52.7568 27.7736 52.8602 27.9515 53.0418C28.1294 53.2233 28.2279 53.4681 28.2253 53.7222V53.7222Z" fill="#FDFEFE"/>
<path fill-rule="evenodd" clip-rule="evenodd" d="M54.6257 59.0842C54.6258 59.274 54.5696 59.4597 54.4641 59.6175C54.3587 59.7754 54.2087 59.8984 54.0332 59.9708C53.8577 60.0433 53.6647 60.0621 53.4785 60.0247C53.2924 59.9873 53.1216 59.8954 52.9877 59.7608C52.8538 59.6261 52.763 59.4548 52.7267 59.2684C52.6904 59.0821 52.7102 58.8891 52.7837 58.7141C52.8572 58.539 52.9811 58.3898 53.1395 58.2852C53.298 58.1806 53.484 58.1255 53.6738 58.1268C53.7997 58.1252 53.9247 58.1488 54.0413 58.1964C54.1579 58.2441 54.2637 58.3146 54.3525 58.4039C54.4413 58.4932 54.5112 58.5995 54.5581 58.7163C54.6051 58.8332 54.628 58.9583 54.6257 59.0842Z" fill="#FDFEFE"/>
<path fill-rule="evenodd" clip-rule="evenodd" d="M37.6592 45.5741C37.6796 45.1398 38 44.862 38.4546 44.8824C38.5539 44.8848 38.6516 44.9077 38.7416 44.9497C38.8316 44.9917 38.9119 45.0518 38.9776 45.1264C39.0432 45.2009 39.0928 45.2882 39.1231 45.3827C39.1534 45.4773 39.1638 45.5771 39.1537 45.6759C39.1484 45.7749 39.1234 45.8718 39.08 45.961C39.0366 46.0501 38.9758 46.1296 38.9011 46.1948C38.8264 46.26 38.7394 46.3096 38.6452 46.3405C38.551 46.3714 38.4515 46.3832 38.3527 46.375C37.924 46.3546 37.6389 46.025 37.6592 45.5741Z" fill="#FDFEFE"/>
<path fill-rule="evenodd" clip-rule="evenodd" d="M45.9093 48.6944C45.8242 48.6946 45.74 48.6776 45.6616 48.6443C45.5833 48.6111 45.5125 48.5623 45.4535 48.501C45.3945 48.4396 45.3485 48.367 45.3183 48.2874C45.2881 48.2078 45.2744 48.123 45.2779 48.0379C45.276 47.9496 45.292 47.8617 45.3249 47.7797C45.3577 47.6976 45.4067 47.623 45.469 47.5603C45.5313 47.4976 45.6056 47.4481 45.6874 47.4147C45.7692 47.3813 45.8569 47.3648 45.9453 47.366C46.0337 47.3673 46.1209 47.3863 46.2018 47.422C46.2826 47.4576 46.3555 47.5092 46.416 47.5737C46.4765 47.6381 46.5234 47.714 46.5539 47.797C46.5844 47.8799 46.5979 47.9682 46.5936 48.0564C46.5917 48.45 46.314 48.7064 45.9093 48.6944Z" fill="#FDFEFE"/>
<path fill-rule="evenodd" clip-rule="evenodd" d="M37.727 49.7406C37.6385 49.7422 37.5506 49.726 37.4685 49.693C37.3864 49.6599 37.3117 49.6107 37.249 49.5483C37.1863 49.4858 37.1368 49.4114 37.1034 49.3294C37.07 49.2475 37.0535 49.1596 37.0548 49.0711C37.0629 48.9007 37.1369 48.7402 37.2611 48.6233C37.3854 48.5064 37.5501 48.4422 37.7207 48.4444C37.8912 48.4465 38.0543 48.5148 38.1755 48.6348C38.2967 48.7549 38.3667 48.9172 38.3705 49.0878C38.3711 49.1729 38.355 49.2573 38.3229 49.3362C38.2909 49.415 38.2437 49.4868 38.1839 49.5475C38.1242 49.6081 38.0531 49.6563 37.9747 49.6895C37.8963 49.7226 37.8121 49.74 37.727 49.7406V49.7406Z" fill="#FDFEFE"/>
<path fill-rule="evenodd" clip-rule="evenodd" d="M47.2519 51.6493C47.2466 51.8196 47.1754 51.9812 47.0534 52.1001C46.9314 52.219 46.768 52.2859 46.5976 52.2869C46.4272 52.2879 46.2631 52.2227 46.1398 52.1052C46.0164 51.9877 45.9434 51.8269 45.9361 51.6567C45.9324 51.5682 45.9465 51.48 45.9776 51.3971C46.0087 51.3142 46.0562 51.2385 46.1173 51.1744C46.1783 51.1103 46.2517 51.0592 46.3329 51.0241C46.4142 50.9891 46.5017 50.9707 46.5902 50.9702C46.6787 50.9697 46.7664 50.9871 46.8481 51.0212C46.9297 51.0554 47.0036 51.1057 47.0654 51.1691C47.1272 51.2325 47.1755 51.3077 47.2076 51.3902C47.2396 51.4727 47.2547 51.5608 47.2519 51.6493V51.6493Z" fill="#FDFEFE"/>
<path fill-rule="evenodd" clip-rule="evenodd" d="M51.1581 53.5498C51.2469 53.5518 51.3343 53.5714 51.4155 53.6075C51.4966 53.6435 51.5699 53.6953 51.6309 53.7597C51.6919 53.8242 51.7396 53.9001 51.7711 53.9832C51.8026 54.0662 51.8174 54.1546 51.8146 54.2433C51.809 54.4153 51.7363 54.5782 51.612 54.6971C51.4877 54.816 51.3218 54.8815 51.1498 54.8794C51.061 54.8807 50.973 54.8635 50.8913 54.829C50.8096 54.7944 50.7359 54.7433 50.675 54.6788C50.614 54.6143 50.5672 54.5378 50.5373 54.4542C50.5075 54.3707 50.4953 54.2818 50.5016 54.1933C50.5062 54.0219 50.5772 53.8589 50.6997 53.7388C50.8222 53.6187 50.9866 53.5509 51.1581 53.5498V53.5498Z" fill="#FDFEFE"/>
<path fill-rule="evenodd" clip-rule="evenodd" d="M31.102 53.7797C31.0137 53.783 30.9255 53.7685 30.8429 53.7369C30.7603 53.7054 30.685 53.6576 30.6213 53.5962C30.5576 53.5349 30.507 53.4614 30.4724 53.38C30.4378 53.2986 30.4199 53.2111 30.4199 53.1227C30.4199 53.0343 30.4378 52.9468 30.4724 52.8655C30.507 52.7841 30.5576 52.7106 30.6213 52.6492C30.685 52.5879 30.7603 52.5401 30.8429 52.5085C30.9255 52.477 31.0137 52.4625 31.102 52.4658C31.1903 52.4625 31.2785 52.477 31.3611 52.5085C31.4436 52.5401 31.519 52.5879 31.5827 52.6492C31.6464 52.7106 31.697 52.7841 31.7316 52.8655C31.7662 52.9468 31.7841 53.0343 31.7841 53.1227C31.7841 53.2111 31.7662 53.2986 31.7316 53.38C31.697 53.4614 31.6464 53.5349 31.5827 53.5962C31.519 53.6576 31.4436 53.7054 31.3611 53.7369C31.2785 53.7685 31.1903 53.783 31.102 53.7797V53.7797Z" fill="#FDFEFE"/>
<path fill-rule="evenodd" clip-rule="evenodd" d="M30.0031 58.1398C30.0024 58.3117 29.9359 58.4768 29.8172 58.6011C29.6986 58.7254 29.5368 58.7996 29.3652 58.8084C29.2764 58.8136 29.1874 58.8008 29.1037 58.7708C29.0199 58.7407 28.9432 58.6939 28.878 58.6334C28.8128 58.5728 28.7606 58.4996 28.7245 58.4183C28.6884 58.337 28.6692 58.2492 28.668 58.1602C28.6674 57.988 28.7327 57.8221 28.8504 57.6965C28.9681 57.5708 29.1294 57.4949 29.3013 57.4843C29.4806 57.4807 29.6542 57.5472 29.7853 57.6696C29.9163 57.792 29.9945 57.9607 30.0031 58.1398V58.1398Z" fill="#FDFEFE"/>
<path fill-rule="evenodd" clip-rule="evenodd" d="M45.9376 59.124C45.8774 59.9111 46.0043 60.5296 46.6043 60.9685C46.8321 61.1352 46.6043 61.2611 46.5432 61.3768C46.4737 61.5092 46.4506 61.7639 46.1802 61.6463C45.5321 61.3685 44.9589 61.5676 44.3997 61.924C43.2589 62.6444 42.0904 62.6592 40.8913 62.0537C40.6136 61.9129 40.5534 61.8065 40.721 61.5194C41.5367 60.1305 42.3293 58.724 43.1284 57.324C43.1756 57.2416 43.2265 57.1601 43.2654 57.0731C43.3876 56.7953 43.3497 56.5527 43.0802 56.3981C42.8108 56.2435 42.5432 56.2944 42.3728 56.5768C42.0904 57.0444 41.8219 57.5203 41.5497 57.9953C41.0673 58.837 40.5774 59.675 40.1108 60.5259C39.9784 60.7657 39.8784 60.7722 39.6524 60.6398C38.6031 60.0225 37.5463 59.4194 36.4821 58.8305C36.22 58.6861 36.17 58.5907 36.3339 58.3148C37.0441 57.1111 37.7228 55.8963 38.4145 54.6833C38.4888 54.5529 38.5528 54.417 38.6061 54.2768C38.6987 54.0314 38.5849 53.85 38.3904 53.7138C38.3037 53.6429 38.1934 53.6076 38.0816 53.615C37.9699 53.6224 37.8651 53.672 37.7886 53.7537C37.6763 53.8729 37.5812 54.0072 37.5061 54.1527C36.7037 55.5509 35.9027 56.9512 35.1034 58.3537C34.9821 58.5694 34.8885 58.6407 34.6515 58.4879C34.2265 58.2148 33.7728 57.9861 33.3385 57.7268C32.658 57.3194 32.4571 56.6101 32.8423 55.9268C33.5139 54.7367 34.1929 53.5509 34.8793 52.3694C35.296 51.6555 35.9811 51.475 36.7043 51.8731C37.1673 52.1296 37.6302 52.4009 38.0932 52.6601C38.233 52.7379 38.333 52.8166 38.3154 53.0046C38.2858 53.3277 38.4552 53.5555 38.7228 53.7092C40.1086 54.5055 41.4975 55.2997 42.8895 56.0916C43.0111 56.1709 43.1536 56.2124 43.2988 56.2107C43.444 56.2091 43.5854 56.1644 43.7052 56.0824C43.8608 55.9777 43.9737 56.0138 44.1145 56.0953C45.3256 56.7842 45.9441 57.8222 45.9376 59.124Z" fill="#044888"/>
<path fill-rule="evenodd" clip-rule="evenodd" d="M48.5421 61.5C48.5134 61.5602 48.4875 61.6232 48.4551 61.6852C48.2264 62.088 47.9838 62.4824 47.7708 62.8889C47.5977 63.2195 47.4301 63.001 47.2431 62.9223C47.0162 62.8297 46.9653 62.7241 47.1125 62.5C47.3625 62.1111 47.5755 61.6982 47.8088 61.2963C47.8625 61.2037 47.8931 61.0185 48.0662 61.1333C48.2393 61.2482 48.4551 61.2722 48.5421 61.5Z" fill="#044888"/>
</svg>
