<svg width="96" height="66" viewBox="0 0 96 66" fill="none" xmlns="http://www.w3.org/2000/svg">
<g filter="url(#filter0_d)">
<rect x="8" y="4" width="80" height="50" fill="white"/>
<path d="M83 9H13V49H83V9Z" fill="#DB5A40"/>
<path d="M31.3332 23.0278C33.1388 23.0278 34.5971 21.5694 34.5971 19.7639C34.5971 17.9583 33.1388 16.5 31.3332 16.5C29.5277 16.5 28.0693 17.9583 28.0693 19.7639C28.0693 21.5694 29.5277 23.0278 31.3332 23.0278ZM31.3332 18.0972C32.236 18.0972 32.9999 18.8611 32.9999 19.7639C32.9999 20.6667 32.236 21.4306 31.3332 21.4306C30.4304 21.4306 29.6666 20.6667 29.6666 19.7639C29.6666 18.7917 30.4304 18.0972 31.3332 18.0972Z" fill="white"/>
<path d="M36.6806 28.6529C36.6111 28.2362 36.2639 27.889 35.8473 27.9584C35.4306 28.0279 35.0834 28.3751 35.1528 28.7918L35.2223 29.8334C33.4861 29.9723 32.1667 29.6251 31.1945 29.0695C31.4723 27.5418 31.6806 26.014 31.6111 25.3195C31.4723 23.514 28.625 22.6112 27.5834 22.3334C27.7223 21.639 27.7917 20.9445 27.6528 20.4584C27.4445 19.4168 26.1945 18.514 25.0834 18.0973C23.9723 17.7501 23.0695 17.8195 22.5139 18.2362C21.3334 19.2084 17.4445 27.1945 18.0695 29.2779C18.4861 30.5973 19.9445 31.9168 21.5417 32.4029C21.9584 32.5418 22.375 32.6112 22.7223 32.6112C22.9306 32.6112 23.1389 32.6112 23.2778 32.5418C23.3473 32.6807 23.4167 32.7501 23.4861 32.889C23.8334 33.3057 24.4584 33.5834 25.0834 33.7223C25.2223 34.4168 25.3611 35.8057 25.0139 37.264C24.5278 39.2779 21.9584 42.1945 21.9584 42.264C21.6806 42.6112 21.6806 43.0973 22.0278 43.3751C22.2361 43.514 22.375 43.5834 22.5834 43.5834C22.7917 43.5834 23 43.514 23.2084 43.3057C23.3473 43.1668 25.9861 40.0418 26.6111 37.6807C26.9584 36.2918 26.8889 34.9723 26.8195 34.0695C27.2361 34.139 27.5834 34.139 27.7917 34.139C28.2778 34.139 28.625 34.139 28.9028 34.0695C29.25 34.8334 29.875 36.2223 30.7084 37.8195C31.8889 40.1807 33.1389 43.514 33.1389 43.5834C33.2778 43.9307 33.5556 44.0695 33.9028 44.0695C33.9723 44.0695 34.1111 44.0695 34.1806 44.0001C34.5973 43.8612 34.8056 43.3751 34.6667 43.0279C34.5973 42.889 33.4167 39.5557 32.1667 37.1251C31.1945 35.3195 30.5 33.8612 30.2223 33.1668C30.4306 32.7501 30.6389 31.7779 30.9167 30.5973C31.8889 31.0834 33.0695 31.3612 34.5973 31.3612C34.875 31.3612 35.1528 31.3612 35.4306 31.3612L36.5417 42.8195C36.6111 43.2362 36.8889 43.514 37.3056 43.514H37.375C37.7917 43.4445 38.1389 43.0973 38.0695 42.6807L36.6806 28.6529ZM23.2778 31.014C22.8611 31.2223 22.375 31.1529 21.9584 31.014C20.9167 30.6668 19.8056 29.6945 19.5278 28.8612C19.1806 27.6112 22.5834 20.2501 23.4167 19.4862C23.5556 19.4168 23.9028 19.3473 24.5278 19.6251C25.4306 19.9723 26.0556 20.5279 26.125 20.8057C26.2639 21.4307 25.9167 22.9584 25.5695 23.9307C24.3889 26.014 23.5556 29.2779 23.2778 31.014ZM29.8056 28.0279C29.0417 27.264 28.7639 26.639 28.6945 26.5695C28.5556 26.1529 28.0695 26.014 27.6528 26.1529C27.2361 26.2918 27.0973 26.7779 27.2361 27.1945C27.2361 27.1945 27.8611 28.6529 29.4584 29.8334C29.25 31.014 28.9723 32.0557 28.8334 32.4723C28.625 32.4723 28.2778 32.4723 27.7223 32.4723C26.2639 32.4723 25.0139 32.1251 24.7361 31.9168C24.875 30.5973 25.7084 26.7779 26.9584 24.6251C27.0973 24.4168 27.2361 24.139 27.375 24.0001C28.7639 24.4168 30.0139 25.1112 30.0139 25.5279C30.0834 25.9445 29.9445 26.9168 29.8056 28.0279Z" fill="white"/>
<path d="M62.2982 21.102V23H55.9802V21.102H57.9432V16.435L56.3962 17.319L55.5382 15.603L58.6452 13.835H60.3352V21.102H62.2982ZM66.3752 23.117C65.2398 23.117 64.3732 22.714 63.7752 21.908C63.1772 21.102 62.8782 19.9363 62.8782 18.411C62.8782 16.9117 63.1772 15.759 63.7752 14.953C64.3818 14.147 65.2485 13.744 66.3752 13.744C67.5018 13.744 68.3642 14.147 68.9622 14.953C69.5688 15.759 69.8722 16.9117 69.8722 18.411C69.8722 19.9363 69.5732 21.102 68.9752 21.908C68.3772 22.714 67.5105 23.117 66.3752 23.117ZM66.3752 21.31C66.7912 21.31 67.0902 21.0847 67.2722 20.634C67.4542 20.1833 67.5452 19.4423 67.5452 18.411C67.5452 17.397 67.4542 16.669 67.2722 16.227C67.0902 15.7763 66.7912 15.551 66.3752 15.551C65.9592 15.551 65.6602 15.7763 65.4782 16.227C65.2962 16.669 65.2052 17.397 65.2052 18.411C65.2052 19.4423 65.2962 20.1833 65.4782 20.634C65.6602 21.0847 65.9592 21.31 66.3752 21.31ZM74.1051 23.117C72.9697 23.117 72.1031 22.714 71.5051 21.908C70.9071 21.102 70.6081 19.9363 70.6081 18.411C70.6081 16.9117 70.9071 15.759 71.5051 14.953C72.1117 14.147 72.9784 13.744 74.1051 13.744C75.2317 13.744 76.0941 14.147 76.6921 14.953C77.2987 15.759 77.6021 16.9117 77.6021 18.411C77.6021 19.9363 77.3031 21.102 76.7051 21.908C76.1071 22.714 75.2404 23.117 74.1051 23.117ZM74.1051 21.31C74.5211 21.31 74.8201 21.0847 75.0021 20.634C75.1841 20.1833 75.2751 19.4423 75.2751 18.411C75.2751 17.397 75.1841 16.669 75.0021 16.227C74.8201 15.7763 74.5211 15.551 74.1051 15.551C73.6891 15.551 73.3901 15.7763 73.2081 16.227C73.0261 16.669 72.9351 17.397 72.9351 18.411C72.9351 19.4423 73.0261 20.1833 73.2081 20.634C73.3901 21.0847 73.6891 21.31 74.1051 21.31Z" fill="white"/>
</g>
<defs>
<filter id="filter0_d" x="0" y="0" width="96" height="66" filterUnits="userSpaceOnUse" color-interpolation-filters="sRGB">
<feFlood flood-opacity="0" result="BackgroundImageFix"/>
<feColorMatrix in="SourceAlpha" type="matrix" values="0 0 0 0 0 0 0 0 0 0 0 0 0 0 0 0 0 0 127 0"/>
<feOffset dy="4"/>
<feGaussianBlur stdDeviation="4"/>
<feColorMatrix type="matrix" values="0 0 0 0 0 0 0 0 0 0 0 0 0 0 0 0 0 0 0.05 0"/>
<feBlend mode="normal" in2="BackgroundImageFix" result="effect1_dropShadow"/>
<feBlend mode="normal" in="SourceGraphic" in2="effect1_dropShadow" result="shape"/>
</filter>
</defs>
</svg>
