<svg width="84" height="24" viewBox="0 0 84 24" fill="none" xmlns="http://www.w3.org/2000/svg">
<path d="M84 0H0V23.9982H84V0Z" fill="#9F1C34"/>
<path d="M29.3278 12.1077V14.2243H28.1594V12.1077L26.2883 9.46191H27.5964L28.7394 11.1171L29.8908 9.46191H31.2116L29.3278 12.1077Z" fill="white"/>
<path d="M31.8932 13.9911C31.5587 13.7895 31.2896 13.4955 31.1185 13.1444C30.9294 12.7408 30.8367 12.2988 30.8476 11.8533C30.8365 11.4063 30.9292 10.9629 31.1185 10.5579C31.2886 10.2061 31.5579 9.91184 31.8932 9.71125C32.2555 9.50662 32.6667 9.4042 33.0827 9.41493C33.4975 9.40347 33.9074 9.50596 34.268 9.71125C34.6043 9.91066 34.8739 10.2053 35.0427 10.5579C35.228 10.9641 35.3192 11.4069 35.3094 11.8533C35.317 12.2917 35.2243 12.7261 35.0385 13.1232C34.8674 13.4743 34.5983 13.7683 34.2638 13.9699C33.8998 14.167 33.4924 14.2702 33.0785 14.2702C32.6645 14.2702 32.2572 14.167 31.8932 13.9699V13.9911ZM33.8659 12.9539C34.0771 12.6271 34.1793 12.2418 34.158 11.8533C34.1851 11.4575 34.0826 11.0637 33.8659 10.7315C33.7706 10.6139 33.6503 10.519 33.5137 10.4539C33.3771 10.3887 33.2277 10.3549 33.0764 10.3549C32.925 10.3549 32.7756 10.3887 32.639 10.4539C32.5024 10.519 32.3821 10.6139 32.2869 10.7315C32.072 11.0642 31.9723 11.4584 32.0032 11.8533C31.9773 12.247 32.0782 12.6387 32.2911 12.9708C32.3863 13.0892 32.5068 13.1847 32.6438 13.2503C32.7808 13.3159 32.9308 13.35 33.0827 13.35C33.2346 13.35 33.3846 13.3159 33.5216 13.2503C33.6586 13.1847 33.7791 13.0892 33.8743 12.9708L33.8659 12.9539Z" fill="white"/>
<path d="M36.4776 13.7629C36.1182 13.3333 35.9405 12.7805 35.9823 12.222V9.46191H37.1253V12.277C37.1077 12.5575 37.1836 12.8359 37.3412 13.0686C37.414 13.1614 37.5084 13.2349 37.6161 13.2829C37.7238 13.3308 37.8416 13.3517 37.9593 13.3438C38.0775 13.3513 38.1957 13.3303 38.3041 13.2824C38.4124 13.2345 38.5076 13.1611 38.5815 13.0686C38.7361 12.8349 38.8091 12.5565 38.789 12.277V9.46191H39.9319V12.222C39.9729 12.7813 39.7902 13.3339 39.424 13.7586C39.0086 14.1066 38.4841 14.2973 37.9423 14.2973C37.4005 14.2973 36.876 14.1066 36.4607 13.7586L36.4776 13.7629Z" fill="white"/>
<path d="M41.7271 10.4694H40.3894V9.46191H44.2416V10.4694H42.9039V14.2285H41.7271V10.4694Z" fill="white"/>
<path d="M48.8262 9.46191V14.2285H47.6832V12.3024H45.8629V14.2285H44.72V9.46191H45.8629V11.3161H47.6832V9.46191H48.8262Z" fill="white"/>
<path d="M55.5485 9.46191V14.2285H54.4098V12.3024H52.5853V14.2285H51.4465V9.46191H52.5853V11.3161H54.4098V9.46191H55.5485Z" fill="white"/>
<path d="M56.3613 9.46191H59.532V10.4229H57.4958V11.3288H59.405V12.277H57.4958V13.2634H59.532V14.2243H56.3613V9.46191Z" fill="white"/>
<path d="M60.1416 9.46191H61.3057V13.221H63.2065V14.2285H60.1416V9.46191Z" fill="white"/>
<path d="M63.7651 9.4607H65.9241C66.133 9.44851 66.3423 9.47777 66.54 9.54679C66.7376 9.61581 66.9196 9.72322 67.0755 9.86286C67.2192 10.01 67.3309 10.1852 67.4038 10.3775C67.4766 10.5698 67.509 10.775 67.4988 10.9804C67.5097 11.1859 67.4777 11.3914 67.4048 11.5838C67.332 11.7762 67.2198 11.9513 67.0755 12.098C66.9223 12.2417 66.7419 12.3532 66.5448 12.4259C66.3478 12.4986 66.1381 12.5311 65.9283 12.5213H64.9335V14.2443H63.7694L63.7651 9.4607ZM65.7632 11.5773C65.9345 11.5916 66.1049 11.5418 66.2416 11.4376C66.2957 11.3818 66.3376 11.3154 66.3645 11.2425C66.3915 11.1696 66.403 11.0919 66.3982 11.0143C66.4049 10.9334 66.3944 10.8519 66.3674 10.7753C66.3405 10.6987 66.2976 10.6287 66.2416 10.5698C66.1055 10.4641 65.935 10.4128 65.7632 10.4259H64.9166V11.5943L65.7632 11.5773Z" fill="white"/>
<path d="M68.0491 9.46191H71.224V10.4229H69.1836V11.3288H71.1182V12.277H69.2047V13.2634H71.2452V14.2243H68.0702L68.0491 9.46191Z" fill="white"/>
<path d="M75.8469 14.2276H74.577L73.7938 12.6994C73.751 12.6153 73.6844 12.5456 73.6024 12.499C73.5204 12.4523 73.4265 12.4307 73.3324 12.4369H72.9768V14.2191H71.8296V9.46093H73.9462C74.3856 9.42801 74.8212 9.56261 75.1654 9.83769C75.3097 9.9773 75.4222 10.1464 75.4952 10.3334C75.5683 10.5204 75.6002 10.721 75.5887 10.9214C75.601 11.2542 75.5028 11.5817 75.3093 11.8527C75.1074 12.106 74.8225 12.2799 74.505 12.3438C74.6417 12.379 74.7683 12.4455 74.8748 12.5381C74.9813 12.6307 75.0649 12.7467 75.1188 12.8772L75.8469 14.2276ZM74.3314 11.3828C74.3907 11.3306 74.4367 11.2649 74.4654 11.1912C74.4941 11.1176 74.5048 11.0381 74.4965 10.9595C74.5025 10.8811 74.4907 10.8023 74.4622 10.729C74.4336 10.6558 74.3889 10.5899 74.3314 10.5362C74.1645 10.4363 73.9708 10.3905 73.7769 10.4049H72.9641V11.5141H73.7769C73.9708 11.5282 74.1644 11.4824 74.3314 11.3828Z" fill="white"/>
<path d="M9.2624 8.92353C9.2208 8.65861 9.28132 8.38779 9.43173 8.16578C9.5291 8.07673 9.6446 8.00981 9.77029 7.96962C9.89597 7.92943 10.0289 7.91692 10.1598 7.93295H10.7102C10.9293 7.94575 11.1483 7.90659 11.3494 7.81865C11.7473 7.60699 12.0055 7.14134 12.45 6.0534C12.8945 4.96546 13.2628 4.13998 13.9698 4.13574C14.6344 4.13574 14.9857 5.09245 15.2397 6.07033C15.3768 6.56246 15.4815 7.06305 15.553 7.56889C15.4434 7.60332 15.3394 7.65321 15.244 7.71706C14.7702 8.07532 14.3422 8.49046 13.9698 8.95316C13.8766 9.06322 13.7835 9.18599 13.6861 9.31722C13.5658 9.15677 13.4233 9.01423 13.2628 8.89389C13.0289 8.72147 12.8082 8.53186 12.6024 8.32664C12.3986 8.53393 12.1777 8.72368 11.942 8.89389C11.672 9.09231 11.4529 9.35202 11.3028 9.65164C10.676 9.27972 9.9831 9.03248 9.2624 8.92353ZM17.6738 15.5485C17.6738 15.6332 17.5553 15.6967 17.4537 15.739C16.7224 16.0496 15.9368 16.2121 15.1424 16.2174C14.8914 16.217 14.6409 16.1972 14.3931 16.1581C14.0271 16.1036 13.6807 15.958 13.3856 15.7348C13.4975 15.6061 13.5927 15.4639 13.6692 15.3115C13.4158 14.9414 13.26 14.5133 13.2162 14.0669H11.9759C11.9321 14.5133 11.7763 14.9414 11.5229 15.3115C11.7636 15.7731 12.1326 16.1553 12.5855 16.4121C12.8368 16.2642 13.0663 16.0818 13.267 15.8703C13.5841 16.1141 13.9589 16.2716 14.355 16.3274C14.5372 16.3567 14.7209 16.3751 14.9053 16.3825C14.9074 16.405 14.9074 16.4277 14.9053 16.4502C14.9395 17.3479 14.7535 18.2402 14.3634 19.0494C14.2804 19.2694 14.1363 19.4611 13.9481 19.6021C13.7599 19.743 13.5354 19.8274 13.3009 19.8453C13.086 19.8355 12.878 19.7667 12.6998 19.6463C11.9886 19.223 11.6118 18.4187 10.3969 17.8175C9.83458 17.5499 9.2159 17.4221 8.59355 17.445H8.46655C8.22102 17.445 8.07709 17.445 8.06863 17.335C8.06016 17.2249 8.32262 17.081 8.61048 16.882C9.15139 16.4668 9.64158 15.9894 10.0709 15.4596C10.2403 15.3877 10.4308 15.2988 10.634 15.1887C10.7331 15.2461 10.8454 15.2767 10.9599 15.2776C11.4721 15.2776 11.7854 14.4606 11.8066 14.0542H11.2562C11.197 14.5791 10.7398 14.685 10.2826 14.5834C10.3004 14.768 10.3829 14.9404 10.5154 15.0702C10.193 15.2382 9.8575 15.3798 9.51216 15.4935C9.162 15.6316 8.79167 15.7117 8.41575 15.7306C8.21583 15.743 8.01835 15.6812 7.8612 15.557C7.59027 15.3242 7.71727 14.9432 7.80617 14.4775C7.90746 14.0601 7.86725 13.6208 7.69187 13.2287C7.22621 12.2508 5.83771 12.018 4.84714 11.2857C4.36455 10.9301 4.11055 10.5406 4.17829 10.0961C4.23233 9.87938 4.34508 9.68172 4.50416 9.52489C4.66323 9.36806 4.86247 9.25812 5.07996 9.20715C5.76209 8.98078 6.47806 8.87339 7.19658 8.88966C7.52677 8.88966 7.88236 8.88966 8.25489 8.93623C9.29696 8.9722 10.3144 9.26289 11.2182 9.78287C11.1449 9.97198 11.1062 10.1727 11.1039 10.3755C11.1039 11.4169 11.9759 11.9588 11.9759 13.5123H11.815C11.815 12.3778 11.1208 10.8073 9.91008 10.8073C9.71171 10.8123 9.51694 10.8613 9.33986 10.9508C9.16278 11.0404 9.00785 11.1682 8.88627 11.325C8.7647 11.4819 8.67954 11.6638 8.63697 11.8576C8.59439 12.0514 8.59547 12.2522 8.64011 12.4456C8.69049 12.7243 8.84182 12.9746 9.06518 13.1488C9.28853 13.323 9.56824 13.4087 9.85082 13.3896C9.81996 13.3005 9.80842 13.2058 9.81697 13.1119C9.82552 13.0179 9.85397 12.9269 9.90042 12.8448C9.94686 12.7627 10.0103 12.6915 10.0864 12.6358C10.1625 12.5801 10.2496 12.5412 10.3419 12.5218C10.8202 12.454 11.1123 12.9451 11.1885 13.5123C11.1425 13.5123 11.0983 13.5306 11.0658 13.5632C11.0332 13.5957 11.015 13.6399 11.015 13.6859C11.0144 13.7091 11.0185 13.7321 11.0269 13.7536C11.0354 13.7752 11.0481 13.7948 11.0643 13.8114C11.0804 13.828 11.0998 13.8411 11.1211 13.8501C11.1424 13.8591 11.1654 13.8637 11.1885 13.8637H13.9994C14.0227 13.8637 14.0459 13.8591 14.0674 13.8502C14.089 13.8412 14.1086 13.8281 14.1251 13.8116C14.1416 13.7951 14.1547 13.7755 14.1636 13.754C14.1726 13.7324 14.1772 13.7093 14.1772 13.6859C14.1772 13.6628 14.1726 13.6398 14.1636 13.6185C14.1546 13.5972 14.1414 13.5778 14.1249 13.5617C14.1083 13.5455 14.0887 13.5328 14.0671 13.5243C14.0456 13.5159 14.0225 13.5118 13.9994 13.5123C14.0925 12.9451 14.3846 12.454 14.846 12.5218C14.9383 12.5412 15.0254 12.5801 15.1015 12.6358C15.1776 12.6915 15.241 12.7627 15.2875 12.8448C15.3339 12.9269 15.3624 13.0179 15.3709 13.1119C15.3795 13.2058 15.3679 13.3005 15.3371 13.3896C15.4787 13.4084 15.6227 13.3983 15.7604 13.36L15.8832 13.6266C16.1877 14.3605 16.7448 14.9611 17.4537 15.3199C17.5892 15.4215 17.6738 15.485 17.6738 15.5485ZM14.8926 14.5961C14.4396 14.6977 13.9825 14.5961 13.919 14.0669H13.3602C13.3602 14.4902 13.6904 15.2903 14.2068 15.2903C14.3868 15.28 14.5565 15.2033 14.6832 15.0751C14.8099 14.9468 14.8845 14.7761 14.8926 14.5961ZM19.9217 10.583C18.4951 9.82944 16.1372 9.8252 16.1626 8.22081C16.1626 7.87368 16.0059 7.69166 15.7773 7.69166C15.6244 7.69666 15.4767 7.74837 15.354 7.83982C14.8736 8.18795 14.4372 8.59306 14.0544 9.04629C13.9528 9.16482 13.8512 9.30028 13.7454 9.43998C13.9396 9.72186 14.0471 10.0545 14.0544 10.3967C14.0544 11.4381 13.1781 11.9799 13.1781 13.5335H13.339C13.339 12.399 14.0375 10.8285 15.2482 10.8285C15.4466 10.8334 15.6413 10.8825 15.8184 10.972C15.9955 11.0616 16.1504 11.1894 16.272 11.3462C16.3936 11.503 16.4787 11.6849 16.5213 11.8787C16.5639 12.0725 16.5628 12.2734 16.5182 12.4667C16.4787 12.6478 16.3993 12.8178 16.2858 12.9643C16.1723 13.1107 16.0275 13.23 15.862 13.3134L15.8959 13.3854C15.9213 13.4489 15.9509 13.5081 15.9805 13.5716C16.1365 13.9335 16.3558 14.2647 16.6282 14.5495C17.5765 13.923 17.3944 12.7927 18.5797 11.9715C19.0081 11.6751 19.4812 11.4493 19.9809 11.3026C20.3916 11.1714 20.3873 10.8369 19.9217 10.583Z" fill="white"/>
</svg>
