<svg width="88" height="88" viewBox="0 0 88 88" fill="none" xmlns="http://www.w3.org/2000/svg">
<g clip-path="url(#clip0)">
<g opacity="0.6">
<path d="M28.1263 27.4683C28.4599 27.4663 28.7866 27.5631 29.0651 27.7467C29.3436 27.9302 29.5614 28.1921 29.691 28.4994C29.8205 28.8066 29.856 29.1454 29.7929 29.4728C29.7299 29.8001 29.5711 30.1015 29.3366 30.3387C29.1022 30.5759 28.8026 30.7383 28.4759 30.8053C28.1491 30.8724 27.8097 30.8411 27.5007 30.7154C27.1917 30.5897 26.927 30.3752 26.74 30.0992C26.5529 29.8231 26.452 29.4978 26.4499 29.1644C26.4472 28.9426 26.4885 28.7226 26.5715 28.5169C26.6546 28.3112 26.7776 28.1241 26.9336 27.9663C27.0895 27.8085 27.2752 27.6833 27.48 27.5978C27.6847 27.5123 27.9044 27.4683 28.1263 27.4683ZM28.1263 34.0044C29.0884 34.0126 30.0311 33.7349 30.8349 33.2065C31.6387 32.6781 32.2671 31.9228 32.6405 31.0367C33.0139 30.1505 33.1153 29.1735 32.9319 28.2296C32.7485 27.2857 32.2886 26.4176 31.6105 25.7355C30.9324 25.0535 30.0667 24.5882 29.1235 24.3988C28.1803 24.2095 27.202 24.3046 26.313 24.672C25.4239 25.0395 24.6642 25.6627 24.1303 26.4626C23.5964 27.2625 23.3124 28.2029 23.3145 29.1644C23.3117 30.4435 23.8168 31.6715 24.7189 32.5789C25.621 33.4863 26.8464 33.999 28.1263 34.0044Z" fill="#7FBC42"/>
<path d="M54.473 37.0968C54.8079 37.0907 55.137 37.1843 55.4184 37.3657C55.6999 37.5472 55.9209 37.8082 56.0533 38.1157C56.1858 38.4231 56.2236 38.763 56.1621 39.092C56.1005 39.421 55.9424 39.7243 55.7078 39.9632C55.4732 40.202 55.1727 40.3657 54.8447 40.4333C54.5167 40.5009 54.176 40.4694 53.866 40.3427C53.5559 40.2161 53.2906 40.0001 53.1039 39.7223C52.9171 39.4444 52.8174 39.1173 52.8173 38.7826C52.816 38.5617 52.8583 38.3427 52.9419 38.1382C53.0256 37.9338 53.1488 37.7479 53.3047 37.5912C53.4605 37.4345 53.6457 37.3102 53.8498 37.2253C54.0539 37.1405 54.2727 37.0968 54.4937 37.0968H54.473ZM54.4937 43.6226C55.457 43.637 56.4027 43.3645 57.2106 42.8399C58.0184 42.3153 58.6517 41.5622 59.0298 40.6767C59.408 39.7912 59.5139 38.8132 59.3341 37.8673C59.1542 36.9214 58.6968 36.0504 58.02 35.3652C57.3432 34.68 56.4776 34.2116 55.5336 34.0197C54.5895 33.8278 53.6097 33.921 52.7188 34.2875C51.828 34.654 51.0664 35.2771 50.5311 36.0776C49.9958 36.8781 49.711 37.8197 49.7129 38.7826C49.7101 40.0599 50.2138 41.2863 51.1137 42.1934C52.0135 43.1005 53.2363 43.6144 54.5144 43.6226" fill="#7FBC42"/>
<path d="M29.9062 63.1482H26.3361L24.5563 39.2995C25.6812 38.7973 26.8946 38.5231 28.1264 38.4929C29.3546 38.5245 30.5644 38.7986 31.6861 39.2995L29.9062 63.1482ZM34.6974 37.5621L34.6042 37.4276C34.5723 37.3809 34.5377 37.336 34.5008 37.2932L34.3766 37.1691L34.1903 36.9829C32.352 35.9464 30.288 35.3747 28.1781 35.3179C26.0675 35.3705 24.0025 35.9424 22.1659 36.9829C21.9168 37.137 21.7148 37.3563 21.5816 37.617C21.4485 37.8777 21.3893 38.1699 21.4105 38.4618L23.3248 64.8443C23.3532 65.2386 23.5283 65.608 23.8156 65.8798C24.1029 66.1516 24.4815 66.3061 24.8771 66.3128H31.355C31.7519 66.3109 32.1333 66.158 32.4216 65.8853C32.7099 65.6125 32.8835 65.2403 32.9072 64.8443L34.4801 43.7362L38.3296 50.8205C38.4639 51.0681 38.6628 51.2747 38.9051 51.4185C39.1474 51.5624 39.424 51.638 39.7059 51.6375C39.9705 51.6388 40.2308 51.5711 40.4613 51.441C40.6422 51.3407 40.8016 51.2057 40.9302 51.0438C41.0589 50.8818 41.1543 50.6961 41.211 50.4972C41.2677 50.2984 41.2846 50.0903 41.2607 49.8849C41.2368 49.6795 41.1726 49.4808 41.0718 49.3002L34.6974 37.5621Z" fill="#7FBC42"/>
<path d="M60.805 28.9576L63.4645 26.672V28.9576H60.805ZM55.1136 62.9724H53.8511L52.8163 48.4936C53.3698 48.2876 53.954 48.1758 54.5445 48.1627C55.1317 48.1748 55.7126 48.2867 56.2622 48.4936L55.1136 62.9724ZM65.6893 21.7906C65.4178 21.6624 65.1149 21.6157 64.8174 21.6561C64.5199 21.6965 64.2404 21.8222 64.0129 22.0182L55.5275 29.2575C55.2793 29.4701 55.1025 29.7537 55.0211 30.0701C54.9396 30.3864 54.9575 30.7202 55.0722 31.026C55.1821 31.3278 55.3819 31.5886 55.6446 31.7735C55.9073 31.9584 56.2203 32.0585 56.5416 32.0602H63.4645V47.3871L58.4353 45.9702C57.2167 45.3118 55.8571 44.9571 54.472 44.936C53.0173 44.9719 51.5946 45.37 50.3328 46.0943C50.0772 46.2435 49.8683 46.4609 49.7294 46.7221C49.5905 46.9833 49.5271 47.278 49.5463 47.5732L50.8192 64.6478C50.8478 65.0429 51.0247 65.4127 51.3144 65.683C51.6042 65.9534 51.9853 66.1045 52.3817 66.106H56.5209C56.9173 66.1045 57.2985 65.9534 57.5882 65.683C57.8779 65.4127 58.0548 65.0429 58.0835 64.6478L59.2114 49.4968L63.4645 50.6758V64.503C63.4276 64.728 63.4401 64.9582 63.5012 65.1779C63.5622 65.3975 63.6703 65.6012 63.8179 65.7749C63.9656 65.9487 64.1493 66.0882 64.3563 66.1839C64.5633 66.2796 64.7886 66.3292 65.0167 66.3292C65.2448 66.3292 65.4701 66.2796 65.6771 66.1839C65.8841 66.0882 66.0678 65.9487 66.2155 65.7749C66.3631 65.6012 66.4712 65.3975 66.5323 65.1779C66.5933 64.9582 66.6058 64.728 66.5689 64.503V23.2178C66.5679 22.9182 66.4818 22.625 66.3206 22.3723C66.1594 22.1196 65.9297 21.9179 65.6583 21.7906" fill="#7FBC42"/>
<path d="M44.0414 3.15431C52.1195 3.15431 60.0163 5.54835 66.733 10.0337C73.4497 14.519 78.6848 20.8942 81.7762 28.3531C84.8675 35.8119 85.6764 44.0194 84.1004 51.9377C82.5245 59.856 78.6344 67.1294 72.9223 72.8381C67.2102 78.5469 59.9325 82.4346 52.0096 84.0096C44.0867 85.5847 35.8744 84.7763 28.4111 81.6868C20.9479 78.5972 14.5689 73.3652 10.081 66.6524C5.59299 59.9396 3.19754 52.0475 3.19754 43.9741C3.21123 33.1522 7.51881 22.7775 15.1755 15.1253C22.8323 7.47303 33.2131 3.16799 44.0414 3.15431ZM44.0414 0.0517099C35.335 0.0435304 26.822 2.61692 19.5796 7.44617C12.3373 12.2754 6.69133 19.1434 3.35625 27.181C0.0211676 35.2185 -0.853062 44.0642 0.844208 52.5984C2.54148 61.1327 6.73395 68.9719 12.891 75.1239C19.048 81.2759 26.8928 85.464 35.4325 87.1583C43.9722 88.8526 52.8229 87.9768 60.8644 84.6418C68.9058 81.3067 75.7766 75.6624 80.6069 68.4232C85.4373 61.184 88.0102 52.6754 88 43.9741C88 32.3186 83.37 21.1399 75.1273 12.8943C66.8847 4.64878 55.7037 0.0109647 44.0414 0V0.0517099Z" fill="#7FBC42"/>
</g>
</g>
<defs>
<clipPath id="clip0">
<path d="M0 0H88V88H0V0Z" fill="white"/>
</clipPath>
</defs>
</svg>
